<?xml version="1.0" encoding="utf-8"?>
<!-- Generator: Adobe Illustrator 12.0.0, SVG Export Plug-In . SVG Version: 6.00 Build 51448)  -->
<!DOCTYPE svg PUBLIC "-//W3C//DTD SVG 1.1//EN" "http://www.w3.org/Graphics/SVG/1.1/DTD/svg11.dtd" [
	<!ENTITY ns_svg "http://www.w3.org/2000/svg">
	<!ENTITY ns_xlink "http://www.w3.org/1999/xlink">
]>
<svg  version="1.1" id="Layer_1" xmlns="&ns_svg;" xmlns:xlink="&ns_xlink;" width="1200" height="1920" viewBox="0 0 1200 1920"
	 overflow="visible" enable-background="new 0 0 1200 1920" xml:space="preserve">
<g>
	<path fill="#C8C8C8" d="M798.979,587.697c-7.216-6.47-14.623-12.52-22.219-18.165l-3.923-0.112c0.43,4.204,1.324,6.931,2.688,8.161
		c1.394,1.334,2.777,2.348,4.151,3.044c8.432,2.962,12.681,4.694,12.754,5.195c1.372,1.283,2.294,2.312,2.762,3.086
		c3.035,7.774,5.113,11.91,6.238,12.41c-0.6,0.17,4.338,2.674,14.815,7.511c1.281,0.876,3.348,2.457,6.197,4.747l2.992,2.412
		l12.737,14.941c0.954,1.766,1.139,2.896,0.563,3.392c-0.968,1.076-2.772,1.196-5.42,0.356c-1.605-0.62-3.134-1.386-4.588-2.299
		c-6.745-6.641-12.269-11.233-16.567-13.779c-2.402-1.084-5.556-2.063-9.459-2.935c-1.893-0.389-3.851-0.403-5.883-0.042
		c-1.615,0.264-2.978,1.261-4.09,2.988l-0.754,17.777l-0.612,2.197c-0.914,1.024-2.872,1.473-5.875,1.349
		c-8.453,0.033-14.851-0.965-19.191-2.994c-0.628-0.401-0.975-1.151-1.036-2.251c1.798-4.857,2.105-8.514,0.921-10.969
		c-1.218-2.648-3.553-4.064-7.008-4.246c-5.509-0.159-12.258,0.487-20.245,1.94c-7.317,4.409-15.8,8.917-25.45,13.527
		c-5.573,2.422-10.541,2.688-14.907,0.799c-4.987-1.978-7.621-3.607-7.906-4.885c-2.567-13.181-4.073-19.591-4.516-19.232
		c-1.25-0.963-2.436-1.886-3.58-2.787c-0.953,1.354-1.969,3.007-3.05,4.978c-0.55,3.294-0.33,7.695,0.652,13.201
		c-3.168,8.346-4.266,14.386-3.299,18.123c1.461,8.519,4.486,15.989,9.083,22.413c3.927,5.199,6.714,8.029,8.36,8.493
		c2.081,1.247,4.403,1.647,6.966,1.205c3.627-1.078,8.08-6.468,13.361-16.17c2.918-1.822,6.322-2.413,10.211-1.776l19.273,15.183
		c1.058,0.925,1.913,2.092,2.565,3.5c3.101,6.854,1.592,12.64-4.529,17.358c-2.099,1.357-4.751,2.459-7.956,3.307l4.975,6.854
		l2.668,6.542c-2.037-1.452-4.176-1.885-6.418-1.301l-4.376-11.382c-2.48,0.481-5.227,0.841-8.247,1.072
		c-10.818-1.121-17-1.926-18.55-2.415l-3.636-0.977l-10.215-5.3c-6.757-8.215-11.567-11.963-14.431-11.244
		c-3.969,0.626-8.237,3.296-12.805,8.01c-13.977,4.89-22.419,7.606-25.328,8.149c-18.292,1.019-32.63,0.226-43.009-2.381
		c-18.189-5.106-26.976-7.859-26.364-8.259l-0.81-5.126c2.205-8.558,3.061-13.962,2.562-16.212c-0.63-2.6-1.803-4.794-3.52-6.587
		c-0.956-0.969-2.387-1.45-4.291-1.44c-8.2,0.702-14.981,3.692-20.34,8.97c-2.978,2.886-5.078,5.79-6.305,8.71
		c-2.948,11.824-5.152,18.475-6.612,19.95c-7.44,7.126-15.229,11.343-23.363,12.656c-1.77,0.104-3.677-0.374-5.722-1.431
		c-3.961-6.909-8.059-11.289-12.293-13.142c-1.866-0.404-9.111-0.056-21.735,1.042c-1.888-0.024-3.61-0.215-5.17-0.573
		c-4.74-1.289-8.72-4.605-11.941-9.951c-2.77-3.075-2.018-9.234,2.256-18.479c2.408-4.04,5.964-8.271,10.672-12.69l6.982-5.967
		c-2.293,0.446-6.678-1.729-13.161-6.537l-19.37-0.351c-8.281-4.704-14.449-7.318-18.505-7.84l-3.373,0.181l-11.758,5.517
		c-8.959,4-16.697,10.015-23.217,18.044c-0.86,1.228-3.303,7.364-7.326,18.411c-9.444,14.531-15.292,24.25-17.543,29.158
		c-3.719,8.236-5.734,15.329-6.052,21.28c-0.391,6.49,0.11,17.556,1.505,33.2c-1.65,22.633-2.125,36.914-1.423,42.843
		c0.308,2.184,1.32,5.072,3.022,8.645c1.624-12.87,3.887-21.545,6.79-26.014c-3.399-8.715-2.977-19.8,1.268-33.255
		c18.009-19.98,33.616-33.301,46.824-39.96c14.062-6.067,24.018-6.66,29.866-1.777l-8.032-7.539l-2.261,0.166l3.833-0.878
		l5.713-0.186c1.948,0.071,3.993,0.793,6.139,2.166c4.078,4.583,8.763,11.326,14.06,20.228c10.264,6.421,17.342,11.407,21.237,14.96
		c-0.062-0.295-0.124-0.6-0.187-0.917l-1.678-3.187c-0.101-1.544-0.302-2.953-0.6-4.227c-0.417-1.533-0.696-2.411-0.84-2.637
		c-0.224-0.536-0.471-1.037-0.744-1.504l3.594,0.818c-0.512-0.179-1.599-0.667-3.261-1.464c-1.225-0.627-2.151-1.223-2.78-1.787
		c-0.806-0.839-1.246-1.375-1.322-1.609c-0.202-0.262-0.438-1.056-0.71-2.382l-0.097-0.638c3.906,1.928,6.744,3.168,8.51,3.719
		c1.235,0.714,2.236,1.76,3.002,3.139c0.254,0.442,0.403,1.899,0.45,4.372l0.787,3.452l0.183,3.61l1.663,3.844
		c-0.013,0.485,0.009,0.982,0.064,1.49c0.203,1.291,0.364,2.08,0.487,2.366c0.321,1.085,0.78,2.219,1.379,3.396l0.105,0.896
		c-1.123-0.672-2.078-1.284-2.898-1.848c0.332,1.091,0.67,2.28,1.018,3.587l-1.565,17.1c3.173,7.416,4.157,16.827,2.953,28.23
		l4.418,13.179c0.138,2.436-0.045,4.311-0.547,5.624l-2.206,5.345l-14.32,23.653c0.267,0.29,0.512,0.542,0.729,0.744
		c-0.317-0.155-0.609-0.306-0.902-0.455l-16.404,27.092l-8.62,24.226c0.668,0.064,1.361,0.149,2.054,0.231l26.75-14.959
		c3.221-1.689,5.957-2.905,8.213-3.647c1.406-0.45,2.786-0.535,4.142-0.254l1.973-0.582l0.272-0.076l-1.821,0.773l-0.426-0.115
		c-1.99,0.628-3.156,1.047-3.5,1.261c-0.255,0.066-2.41,1.446-6.465,4.14c-1.224,0.319-5.541,2.795-12.953,7.427
		c-4.468,2.185-8.722,4.348-12.776,6.493c0.217,0.033,0.424,0.059,0.643,0.094l18.621,4.575l12.377,1.714
		c1.674,0.379,3.808,1.29,6.401,2.732c0.568,0.439,1.117,0.859,1.656,1.271c0.002-0.061,0.003-0.111,0.005-0.17
		c0.005-0.247,0.052-1.158,0.144-2.74l0.265-3.05l0.069-0.814h0.004c0.002,0.456,0.013,1.472,0.033,3.052
		c0.008,0.593,0.018,1.125,0.026,1.601c0.01,0.68,0.041,1.552,0.09,2.605c6.242,4.736,10.472,7.537,12.675,8.394
		c1.528,0.589,3.3,1.036,5.314,1.333c5.855-0.199,12.936,0.604,21.236,2.405c8.244,2.46,12.922,4.373,14.033,5.737
		c1.075,0.803,1.985,1.748,2.755,2.815c0.02-4.284-0.403-9.338-1.271-15.166c0.898-3.594,2.579-6.464,5.045-8.611
		c1.734-2.112,5.585-2.912,11.55-2.402l59.042,7.633c3.049-1.114,4.294-3.767,3.732-7.958c-0.608-3.724-3.156-9.7-7.643-17.933
		c-0.219-0.958-0.223-1.946-0.021-2.962c-4.913-1.401-10.701-2.586-17.395-3.543c-3.423-0.64-15.037,2.263-34.846,8.709
		c-4.104,0.534-7.482,0.059-10.138-1.431c-2.027-1.427-6.925-9.537-14.694-24.33c-0.921-1.284-4.18-3.002-9.779-5.162
		c-0.692-0.397-1.162-1.534-1.409-3.416c-0.005-1.334,0.501-3.161,1.508-5.477c-0.999,0.634-1.909,1.261-2.714,1.881
		c-4.141,3.003-10.053,7.519-17.733,13.548l-5.103,3.606c-0.745,0.56-1.38,1.219-1.905,1.975l2.077-3.393
		c1.802-1.691,2.967-2.749,3.496-3.171l2.028-1.582l11.703-7.383c2.242-2.306,4.219-4.22,5.933-5.746
		c0.511-0.503,1.647-1.427,3.41-2.771c0.143-0.092,0.276-0.174,0.416-0.264c2.499-4.733,6.498-10.917,12.014-18.577
		c1.123-2.18,1.115-4.612-0.021-7.295c-0.684-1.458-2.933-3.015-6.752-4.672c-11.728-2.956-19.447-5.418-23.153-7.388
		c-16.023-8.402-23.736-13.811-23.143-16.226c-1.448-2.721,0.195-6.004,4.929-9.852c2.483-1.959,11.036-6.215,25.663-12.766
		c3.479-2.047,5.737-3.75,6.773-5.107c1.114-1.271,1.857-3.023,2.231-5.262c0.054-17.008,1.232-27.036,3.537-30.086
		c3.096-7.322,8.822-12.187,17.185-14.592l0.487-0.02c1.977,0.194,3.063,1.019,3.261,2.476l-2.184,26.137l6.277,19.071
		c-0.065,2.627-5.516,11.127-16.346,25.503c-1.688,3.948-2.046,6.777-1.073,8.487c8.137,6.947,16.324,10.051,24.566,9.314
		c1.251,0.943,9.544-3.398,24.879-13.025c1.895-0.849,3.926-0.523,6.097,0.979c1.058,1.194,0.433,3.546-1.874,7.057
		c-11.373,10.89-17.794,17.95-19.262,21.18c-0.506,1.117-0.756,2.075-0.744,2.869c0.037,1.494,0.715,3.522,2.031,6.081
		c-0.572,4.046-0.613,7.184-0.13,9.416c6.821,7.766,11.891,12.248,15.207,13.45c1.25,0.783,9.635,1.834,25.151,3.158
		c3.28,0.54,5.075,1.111,5.389,1.718c0.396,0.364,0.374,1.167-0.065,2.408l-6.128,9.253c-0.259,2.233,0.288,3.698,1.641,4.391
		l5.081,1.4c3.376-2.512,7.657-4.127,12.856-4.835c7.384-0.777,12.705-0.578,15.96,0.597c2.331,0.331,8.735,5.275,19.216,14.834
		c1.353,0.589,5.077-0.159,11.175-2.243l16.36,25.439c0.413,2.402,0.323,4.26-0.271,5.575
		c-7.513,15.317-11.135,23.827-10.865,25.528c0.78,1.842,1.506,3.877,2.185,6.074l3.832-1.078c2.259-0.357,4.537-0.321,6.835,0.105
		l1.924-0.202c7.238-0.313,11.314-0.537,12.235-0.673c1.181-0.133,2.458-0.296,3.83-0.488c0.505-0.617,1.05-1.132,1.641-1.532
		l12.597-7.325c0.341-0.235,0.676-0.444,1.009-0.629c0.995-0.549,1.957-0.864,2.885-0.942l0.459-0.02
		c0.212-0.013,0.56,0.021,1.038,0.103c0.272,0.055,0.541,0.133,0.807,0.231l7.47,1.693c-0.718,0.365-2.014,0.835-3.884,1.408
		c-7.407,1.94-12.028,3.253-13.865,3.943c-1.763,0.614-3.014,1.077-3.757,1.387c-0.87,0.361-1.712,0.731-2.536,1.104
		c3.35-0.526,7.138-1.19,11.393-1.995c1.931-0.262,3.351-0.38,4.264-0.352l1.403-0.183c-5.698,1.353-11.745,2.343-18.105,3.012
		c-0.862,0.41-1.704,0.825-2.514,1.25c-0.371,0.135-0.576,0.198-0.616,0.184c-0.193-0.273-0.177-0.595,0.029-0.957l-9.1,2.176
		c-1.126,0.136-2.422,0.114-3.891-0.068c-1.652-0.434-3.225-0.811-4.713-1.125c-1.592,0.168-3.604,0.478-6.034,0.922
		c-1.559,0.319-3.011,0.618-4.368,0.9c3.303,11.101,5.376,26.546,6.218,46.336c-1.727,1.232-6.66,0.63-14.794-1.799l9.471,8.267
		l12.236-10.287l12.816-3.719l17.311-8.727c19.266,0.44,32.986,1.113,41.163,2.018c3.316,0.754,5.923,1.812,7.818,3.168
		c3.991,3.231,6.878,6.305,8.656,9.223c1.226,0.781,2.742,1.267,4.554,1.46c5.575-0.052,10.856-0.41,15.858-1.068
		c-0.888-2.296-1.724-4.214-2.506-5.751l-0.395-0.748l0.809,0.896c0.222,0.277,0.435,0.565,0.635,0.86l0.289,0.452
		c0.188,0.306,0.366,0.622,0.53,0.946c0.167,0.325,0.321,0.658,0.463,1c0.143,0.343,0.273,0.694,0.393,1.056l0.235,1.225
		c10.373-1.404,19.513-4.114,27.403-8.142l4.895,0.249c28.361-41.426,45.367-89.456,50.992-144.103l0.519-40.617
		C891.083,709.452,858.136,640.743,798.979,587.697z M389.808,667.465L389.522,667l-0.227-0.513l-0.169-0.56l-0.111-0.606
		l-0.054-0.654l0.005-0.701l0.063-0.746l0.12-0.794l0.172-0.409c0.125-0.267,0.277-0.522,0.452-0.766l0.283-0.357
		c0.2-0.233,0.426-0.453,0.676-0.663c0.251-0.209,0.525-0.407,0.824-0.594l0.469-0.271l-0.212,0.301l-0.203,0.3
		c-0.134,0.202-0.259,0.405-0.376,0.608c-0.236,0.406-0.445,0.816-0.623,1.23c-0.033,0.06-0.173,0.415-0.42,1.067l-0.222,0.732
		l-0.155,0.709l-0.085,0.684l-0.019,0.662l0.053,0.638l0.118,0.615l0.187,0.589l0.254,0.567
		C390.266,668.025,390.093,667.824,389.808,667.465z M396.027,669.965c-0.353,0.217-0.7,0.381-1.043,0.49
		c-0.342,0.108-0.681,0.163-1.015,0.163l-0.376-0.023l-0.372-0.07l-0.368-0.116l-0.364-0.163l-0.359-0.209l-0.355-0.257
		l-0.352-0.303c-0.233-0.218-0.464-0.467-0.692-0.746c-0.133-0.19-0.256-0.385-0.363-0.583l-0.039-0.075l0.335,0.266l0.397,0.235
		l0.465,0.204l0.532,0.172l0.596,0.14l0.663,0.11l0.729,0.078l0.794,0.047c0.614,0.02,1.146,0.021,1.601,0.005
		c0.051,0.019,0.088,0.04,0.111,0.064l0.024,0.041C396.616,669.545,396.434,669.722,396.027,669.965z M401.936,657.19l-0.334,0.287
		c-0.222,0.182-0.439,0.345-0.652,0.486c-0.215,0.142-0.425,0.265-0.631,0.366l-0.309,0.138c-0.382,0.149-0.802,0.251-1.26,0.303
		c-0.512,0.078-1.133,0.111-1.862,0.1c-0.737-0.011-1.582-0.068-2.537-0.171l-0.21,0.016c-0.68,0.046-1.384,0.262-2.11,0.649
		c0.1-0.172,0.519-0.671,1.257-1.499c0.31-0.329,0.64-0.656,0.991-0.98c0.35-0.324,0.721-0.645,1.113-0.963
		c0.391-0.318,0.804-0.634,1.235-0.948c0.582-0.517,1.153-0.977,1.717-1.379c1.689-1.208,3.299-1.896,4.83-2.069l0.759-0.043h0.046
		L401.936,657.19z M447.687,699.571l-1.497-0.986l12.047,6.373c1.695,1.586,3.174,2.885,4.438,3.898
		c1.069,0.92,2.313,1.735,3.729,2.445c0.187,0.163,0.36,0.334,0.525,0.514c0.445,0.421,0.88,1.162,1.302,2.224
		c0.028,0.789,0.104,1.667,0.222,2.632c-1.906-0.92-5.157-2.556-9.753-4.907C455.318,706.424,451.647,702.36,447.687,699.571z
		 M469.427,722.185l0.255,0l0.64,0.016l0.57,0.049l0.499,0.083l0.43,0.116l0.358,0.15l0.288,0.183l0.218,0.216l0.147,0.249
		l0.077,0.283l0.121,0.202l-5.988-1.365C467.939,722.258,468.734,722.198,469.427,722.185z M538.031,887.519
		c0.139-0.352,0.433-0.798,0.884-1.343c0.144-0.172,0.279-0.311,0.409-0.422l0.129-0.102l0.267-0.154l0.243-0.055l0.22,0.047
		l0.195,0.149l0.171,0.249l0.146,0.351l0.051,0.189l0.069-0.092v0.353l-0.068-0.256h-0.003c-0.399,0.529-0.773,0.936-1.127,1.224
		l-0.173,0.133c-0.115,0.082-0.227,0.151-0.336,0.208c-0.079,0.045-0.205,0.092-0.376,0.139c-0.305,0.067-0.529,0.037-0.679-0.086
		l-0.071-0.124l-0.012-0.168C537.971,887.717,537.99,887.639,538.031,887.519z M485.44,749.965l-0.354-3.006l0.24,0.142
		c0.315,0.333,0.57,0.642,0.761,0.924l0.133,0.208c0.078,0.136,0.143,0.265,0.191,0.388c0.048,0.122,0.081,0.239,0.098,0.348
		l0.337,3.439C486.551,751.86,486.082,751.047,485.44,749.965z M475.536,844.71c-0.395-0.196-0.717-0.364-0.965-0.504
		c-0.249-0.142-0.424-0.254-0.525-0.339l-0.096-0.107l0.014-0.066c-0.401-0.311-0.786-0.643-1.156-0.987l-0.138-0.131
		c0.717,0.356,1.257,0.623,1.619,0.796c0.465,0.226,0.956,0.46,1.474,0.707c0.329,0.209,0.646,0.436,0.946,0.677
		c0.37,0.312,0.589,0.501,0.653,0.574l0.452,0.453C476.402,845.132,475.643,844.775,475.536,844.71z M489.449,867.38
		c-0.854-0.7-1.556-1.341-2.105-1.922c-0.55-0.582-0.947-1.104-1.192-1.566c-1.446-3.688-2.485-6.18-3.12-7.472
		c-0.867-1.883-1.797-3.754-2.787-5.608l-1.271-3.33c-0.403-0.73-0.753-1.259-1.048-1.584l-0.107-0.113l6.028,2.68
		c0.375,0.176,2.287,1.572,5.738,4.185c0.369,0.119,0.581-0.239,0.634-1.077L489.449,867.38z M493.424,885.164l-0.033,0.501
		l-0.062,0.807c-0.098,1.276-0.271,3.365-0.518,6.266l-0.426,4.962c-0.006-0.673-0.012-1.641-0.017-2.896
		c0-0.437,0.009-0.897,0.027-1.382c0.018-0.41,0.028-0.66,0.036-0.748c0.118-1.405,0.207-2.542,0.268-3.408
		c0.061-0.865,0.093-1.458,0.095-1.783l-0.013-1.069c0-0.078-0.004-0.207-0.012-0.389c-0.064-0.646-0.125-1.357-0.182-2.136
		l-0.111,0.122l0.065-0.758h0.004l0.042,0.634c0.34-0.347,0.568-0.396,0.689-0.147c0.037,0.069,0.067,0.159,0.092,0.272l0.03,0.188
		c0.016,0.137,0.025,0.295,0.027,0.477l-0.003,0.292h0.005L493.424,885.164z M492.474,881.443c0-0.122,0.002-0.241,0.004-0.362
		l0.033-0.394l0.036-0.375l0.044-0.354l0.048-0.335l0.054-0.315c0.038-0.204,0.08-0.395,0.126-0.572
		c0.047-0.176,0.096-0.34,0.148-0.491h0.004l-0.425,4.984l-0.041-0.703c-0.009-0.119-0.015-0.238-0.019-0.359
		C492.478,881.925,492.474,881.686,492.474,881.443z M514.283,826.702l0.33-0.548c0.834-1.378,1.406-2.132,1.714-2.261h0.003
		l0.02,0.075l-0.086,0.217l-0.19,0.358l-0.292,0.499c-0.188,0.358-1.186,1.899-2.991,4.624
		C513.434,828.42,513.931,827.432,514.283,826.702z M495.933,852.788c0.364-0.654,0.92-1.492,1.662-2.516
		c4.404-5.668,7.779-10.103,10.126-13.299c1.064-1.398,2.673-3.711,4.824-6.941l0.229-0.34c-2.885,5.508-6.46,11.608-10.726,18.295
		c-0.795,1.272-2.396,3.451-4.801,6.54c-0.758,1.149-1.314,2.098-1.668,2.848l-1.128-1.901
		C494.967,854.477,495.46,853.582,495.933,852.788z M495.692,866.686c0.525-0.507,0.841-0.781,0.945-0.824
		c0.21-0.147,0.419-0.271,0.628-0.369c0.639-0.29,1.251-0.366,1.837-0.227l0.211-2.467c0.93,0.844,2.099,1.518,3.508,2.022
		c0.861,0.258,2.12,0.258,3.775,0.002c0.149,0.019,0.39,0.151,0.72,0.392c0.095,0.074,0.195,0.374,0.301,0.895
		c-0.041,0.724-0.019,2.589,0.069,5.598c-0.104,0.916-0.601,1.93-1.487,3.04c-1.758,2.063-3.378,3.614-4.867,4.649
		c-1.125,0.787-2.229,1.28-3.316,1.476c-1.021,0.167-1.947,0.116-2.776-0.151c-0.443-0.37-0.686-0.607-0.729-0.71
		c-0.658-1.741-1.1-2.608-1.32-2.6c-0.058-0.083-0.353-0.263-0.888-0.543c-1.074-0.172-1.755-0.377-2.04-0.614
		c-0.276-0.391-0.33-0.936-0.159-1.633c0.205-0.722,0.773-1.746,1.705-3.067C492.74,870.232,494.034,868.61,495.692,866.686z
		 M493.016,789.317c0.133,1,0.131,2.871-0.005,5.614c-0.213,2.712-1.268,5.506-3.163,8.384c0.159-0.55,0.372-1.517,0.639-2.9
		c0.5-2.708,0.915-5.087,1.241-7.14c0.048-0.317,0.079-0.627,0.096-0.93c0.018-0.527,0.014-0.895-0.012-1.106l0.032-0.193
		c-0.003-0.677-0.735-2.653-2.195-5.923l-0.113-4.39c-0.678-2.047-1.02-3.201-1.024-3.463l-0.028-0.213l-0.11-3.241
		c-0.028-0.979-0.045-1.906-0.052-2.78c0.001-2.092,0.015-3.284,0.04-3.575c0.024-0.715,0.061-1.378,0.105-1.988l-0.487-4.009
		l0.352-3.96l0.001-0.167c-0.05-0.532-0.505-1.765-1.364-3.698l-0.12-1.227c0.994,1.748,1.598,3.172,1.809,4.271
		c0.101,0.428,0.171,0.854,0.212,1.277c-0.028,0.335-0.05,1.014-0.064,2.036c0.004,0.74,0.051,1.263,0.141,1.565l1.492,1.546
		c0.239,0.273,0.442,0.54,0.608,0.802c0.333,0.525,0.519,1.032,0.556,1.521c0.072,2.794,0.105,6.15,0.098,10.067
		c-0.019,1.921-0.073,3.545-0.165,4.873C491.584,781.5,492.078,784.481,493.016,789.317z M563.638,766.881
		c-0.245,0.006-0.493,0.005-0.741-0.004c-0.481-0.021-0.855-0.055-1.122-0.103c-0.308-0.05-0.585-0.114-0.835-0.197
		c-0.501-0.164-0.717-0.355-0.65-0.577c0.008-0.078,0.079-0.19,0.218-0.334c0.347-0.28,0.619-0.469,0.815-0.566l0.069-0.033
		l4.861,1.691L563.638,766.881z M647.433,777.058c-0.298,0.302-0.598,0.593-0.896,0.875c-0.526,0.508-1.206,1.09-2.043,1.75
		c-0.585,0.43-1.005,0.644-1.263,0.644c-0.104,0-0.182-0.034-0.234-0.101l-0.018-0.026l0.003-0.178l0.074-0.23
		c0.071-0.171,0.195-0.375,0.366-0.617c0.171-0.241,0.389-0.516,0.654-0.825l0.438-0.491l1.155-1.205
		c0.199-0.189,0.63-0.475,1.291-0.859c0.461-0.224,0.91-0.347,1.354-0.372l0.165-0.005l0.214,0.008l0.071,0.212
		C648.026,776.445,647.582,776.919,647.433,777.058z M823.374,802.724h0.008l-0.065,0.031c-0.11,0.052-0.175,0.083-0.196,0.09
		c-0.15,0.066-0.255,0.11-0.317,0.132L823.374,802.724z M818.541,802.164h0.041c0.069-0.005,0.198,0.007,0.387,0.041
		c0.18,0.035,0.338,0.084,0.479,0.146c0.37,0.159,0.773,0.394,1.208,0.707c0.095,0.053,0.237,0.102,0.429,0.148
		c0.258,0.051,0.53,0.057,0.818,0.015c0.262-0.039,0.551-0.113,0.863-0.227l-2.99,1.324c0.222-0.697,0.226-1.207,0.013-1.532
		c-0.125-0.168-0.27-0.278-0.433-0.329l-0.053-0.019l-0.93-0.166c-0.035-0.006-0.064-0.016-0.088-0.026
		c-0.021-0.011-0.04-0.024-0.047-0.04C818.332,802.181,818.432,802.167,818.541,802.164z M809.687,781.073
		c0.061-0.132,0.209-0.376,0.447-0.731l0.129-0.195l7.259,0.917c-0.444,0.208-0.794,0.346-1.051,0.416l-0.492,0.12l-0.469,0.062
		l-0.447,0.003l-0.422-0.054l-0.402-0.112l-0.379-0.171c-0.39-0.267-0.673-0.451-0.854-0.55c-0.075-0.047-0.191-0.096-0.34-0.147
		c-0.153-0.055-0.304-0.095-0.456-0.118l-0.076-0.01l-0.341-0.011l-0.338,0.043l-0.34,0.098l-0.339,0.153l-0.868,0.53l-0.16,0.053
		l-0.09-0.021l-0.021-0.094L809.687,781.073z M794.949,895.947l0.025-0.004c0.128,0.029-0.198,0.436-0.984,1.219
		c-0.211,0.234-1.156,1.122-2.832,2.658c-0.721,0.654-3.056,2.533-7.012,5.64l-6.107,5.627c-1.625,1.354-4.81,3.297-9.561,5.828
		l1.269-3.312c-0.074-0.297-0.077-0.603-0.006-0.91l0.159-0.464c0.285-0.622,0.858-1.262,1.722-1.916
		c4.323-2.928,7.127-4.774,8.408-5.54C785.197,901.962,790.169,899.018,794.949,895.947z M779.261,921.636l-10.428-1.057
		c1.343-0.65,2.249-1.053,2.715-1.211c0.66-0.253,1.271-0.451,1.826-0.591c3.691-0.678,6.328-1.187,7.911-1.523l0.543-0.12
		c-0.524,0.384-0.979,0.755-1.361,1.116l-0.514,0.534c-0.306,0.351-0.534,0.688-0.688,1.018
		C778.961,920.458,778.959,921.068,779.261,921.636z M748.5,718.698c3.143,4.105,6.536,9.743,10.184,16.915
		c1.823,3.585,3.71,7.554,5.66,11.906c2.665,8.492,4.381,15.066,5.157,19.72l0.96,5.59c0.722,12.616,1.412,23.051,2.065,31.304
		l0.956,10.744c0.762,6.636,1.207,9.961,1.338,9.979l0.328,3.392c0.176,2.351,0.267,4.88,0.273,7.587
		c0.006,2.707-0.071,5.595-0.232,8.658c-0.163,3.063-0.41,6.307-0.74,9.729l-0.563,5.264l-0.688,5.534l-1.871,5.606l-0.554-3.328
		c-0.078-1.096-0.1-2.825-0.064-5.188c0.289-2.388,0.887-5.659,1.786-9.809c-0.073-4.166,0.349-10.43,1.266-18.788
		c0.075-2.622,0.042-4.526-0.099-5.712c-0.576-1.153-1.036-4.747-1.378-10.778l-2.033-8.505c-1.084-8.573-2.087-15.528-3.011-20.861
		l-9.667-37.051l-15.722-38.559C742.47,712.021,744.685,714.236,748.5,718.698z M698.885,722.868l0.02-0.104
		c0.018-0.07,0.044-0.144,0.074-0.22c0.224-0.407,0.402-0.685,0.538-0.831l0.049-0.05l0.171,2.191l1.393,0.665
		c0.061,0.063,0.098,0.124,0.113,0.181c0.006,0.021,0.012,0.044,0.016,0.067l0.014,0.177c-0.003,0.23-0.076,0.534-0.224,0.911
		l-0.059,0.144l-0.929,2.006l-0.324-4.15l-0.43-0.209c-0.033-0.019-0.064-0.038-0.094-0.057c-0.019-0.01-0.058-0.041-0.12-0.094
		c-0.037-0.032-0.086-0.092-0.14-0.18l-0.037-0.081l-0.024-0.084l-0.015-0.09l-0.002-0.094L698.885,722.868z M690.604,783.205
		c0.652-0.5,1.332-0.748,2.04-0.743h0.032l0.242,0.013c0.165,0.019,0.338,0.056,0.52,0.112c0.361,0.113,0.755,0.3,1.18,0.562
		c0.211,0.132,0.431,0.281,0.659,0.45l0.13,0.128c0.248,0.259,0.438,0.548,0.567,0.862l0.158,0.466
		c0.051,0.277,0.07,0.459,0.055,0.548c0.02,0.183-0.049,0.626-0.205,1.331c-0.126,0.446-0.423,0.924-0.889,1.433
		c-1.103-1.928-2.185-3.194-3.246-3.799c-0.462-0.235-0.915-0.302-1.363-0.199c-0.238,0.063-0.406,0.124-0.508,0.184l-0.928,0.638
		C689.304,784.521,689.822,783.858,690.604,783.205z M688.082,785.854l0.96-0.658h0.005c-0.049,0.131-0.093,0.254-0.125,0.37
		l-0.045,0.165c-0.028,0.108-0.046,0.207-0.058,0.299l-0.013,0.13v0.119l0.009,0.107c0.021,0.077,0.028,0.126,0.028,0.147
		L688.082,785.854z M689.483,787.587l-0.198-0.174l-0.161-0.193l-0.129-0.21l-0.091-0.227l-0.06-0.246h0.007l1.768,1.572
		l-0.336-0.104l-0.3-0.122l-0.269-0.139L689.483,787.587z M692.381,792.086c-0.53,0.217-1.146,0.403-1.847,0.558
		c-0.379,0.075-0.577,0.052-0.592-0.067c0.013-0.069,0.03-0.115,0.054-0.137c2.42-1.818,3.827-2.897,4.223-3.237
		c0.223-0.183,0.397-0.329,0.52-0.44c0.112-0.12,0.218-0.236,0.316-0.348l0.035-0.041c0.44,0.895,0.411,1.649-0.086,2.265
		c-0.229,0.257-0.613,0.525-1.153,0.803c-0.269,0.14-0.576,0.281-0.923,0.426L692.381,792.086z M698.635,879.124l-0.117-0.039
		l-0.224-0.118c-0.56-0.315-1.791-1.104-3.692-2.364l-1.007-0.672c1.937,1.083,4.046,2.326,6.325,3.731L698.635,879.124z
		 M742.533,914.434c-1.565-0.77-4.613-2.808-9.145-6.116l-17.35-13.168c-0.686-0.511-1.74-1.576-3.167-3.188l-6.349-7.481
		c-0.627-0.807-2.621-2.283-5.984-4.43l-0.605-0.38c7.915,3.339,12.667,5.793,14.255,7.36c2.226,1.779,5.293,5.289,9.199,10.529
		l4.944,4.432c3.156,2.778,6.037,5.197,8.639,7.261c2.108,1.36,3.964,2.58,5.577,3.667c-0.099-0.225-0.192-0.433-0.28-0.597
		c-2.146-3.428-3.618-6.146-4.421-8.157c-0.393-0.997-0.612-1.725-0.658-2.183l-0.028-0.351c-0.002-0.211,0.029-0.38,0.092-0.509
		c0.063-0.127,0.159-0.211,0.287-0.254l0.214-0.031c0.855-0.004,1.856,0.898,2.999,2.711c0.427,0.727,0.701,1.216,0.821,1.466
		c1.264,2.909,2.066,4.653,2.402,5.232l3.526,5.589c0.156,0.325,0.275,0.599,0.376,0.849c0.534,0.407,0.983,0.772,1.353,1.086
		l-1.101-0.333c0.025,0.119,0.036,0.221,0.029,0.299c0.049,0.108-0.107,0.729-0.466,1.857l-5.073-1.268
		c0.266-0.421,0.474-0.971,0.626-1.649c0.08-0.708,0.083-1.266,0.012-1.686C742.997,914.771,742.751,914.58,742.533,914.434z
		 M745.807,934.349c0.585-0.089,1.153-0.138,1.703-0.145l0.205-0.003c0.063-0.004,0.245,0.003,0.545,0.013
		c0.12,0.005,0.238,0.013,0.358,0.023c0.234,0.022,0.467,0.046,0.694,0.082l-7.739,1.014
		C743.263,934.952,744.675,934.623,745.807,934.349z M750.297,948.061c-0.876,3.347-1.846,6.493-2.911,9.437
		c-0.55,1.516-0.84,2.274-0.868,2.281c-0.175,0.358-0.379,0.665-0.611,0.923c-0.46,0.478-0.767,0.67-0.922,0.578
		c-0.116-0.015-0.195-0.104-0.239-0.272c-0.025,0.014-0.005-0.129,0.06-0.425l0.145-0.547c1.872-4.047,3.287-7.366,4.241-9.96
		c0.403-1.069,0.749-2.099,1.038-3.089c0.425-1.495,0.687-2.457,0.787-2.888l0.571-2.333l0.302-1.287
		C751.708,942.25,751.178,944.778,750.297,948.061z M751.994,939.449c-0.016,0.183-0.033,0.384-0.055,0.604l0.045-0.022h0.006
		l-0.09,0.392c0.017-0.149,0.03-0.272,0.039-0.366h-0.006l-0.084,0.042c0.07-0.447,0.115-0.71,0.137-0.789l0.006-0.022h0.006
		c0.002,0.004,0.002,0.01,0.002,0.019C752,939.333,751.998,939.381,751.994,939.449z M754.639,932.994
		c-0.25-0.13-0.067-0.975,0.546-2.533c-0.055-0.385-0.113-0.59-0.175-0.611c-0.155-0.117-0.344-0.194-0.561-0.226
		c-0.77,0.024-1.841-0.097-3.209-0.366c-0.961-0.214-1.64-0.429-2.042-0.646c-1.696-1.09-2.495-2.207-2.396-3.35
		c0.068-0.402,0.313-0.75,0.734-1.049c2.063-1.237,3.827-2.255,5.32-3.075l0.877-1.983l-0.66-0.12l-0.687-0.139l-0.628-0.145
		l-0.57-0.151l-0.509-0.156l-0.45-0.159l-0.392-0.166l-0.332-0.171l-0.272-0.175l4.504,1.371l2.099-4.739
		c1.216-5.142,2.044-8.312,2.484-9.505c3.296-6.395,5.142-10.365,5.539-11.907l7.463-22.353c0.681,4.409,1.137,9.04,1.368,13.893
		c-0.012,1.296-0.242,3.179-0.688,5.655c-0.444,2.566-0.862,4.396-1.255,5.489c-0.228,0.644-0.479,1.208-0.759,1.683
		c-0.81,1.006-2.708,3.817-5.7,8.435c-1.136,1.825-2.185,3.616-3.145,5.372c-1.438,2.623-2.678,5.173-3.724,7.648
		c0.343-0.157,0.666-0.297,0.968-0.42c0.816-0.362,1.583-0.554,2.305-0.572l0.186-0.001c1.69,0.137,2.634,0.493,2.828,1.064
		c0.171,0.603,0.209,1.143,0.121,1.623l-1.339,0.494c0.093,0.847,0.216,1.316,0.374,1.41l0.607,0.257l0.215,0.057
		c1.599,0.085,2.568,0.183,2.909,0.294c0.975,0.326,1.64,0.729,1.998,1.206c0.257,0.218,0.493,0.699,0.709,1.439
		c0.046,0.676,0.012,1.306-0.11,1.888c-0.345,1.662-1.386,2.932-3.104,3.821l5.42,2.591c-0.281-1.089-0.049-1.39,0.697-0.9
		c0.576,0.458,1.271,1.078,2.084,1.862c0.531,0.489,1.864,1.816,3.998,3.983c0.57,0.525,1.063,0.962,1.484,1.308
		c0.77,0.563,1.341,0.962,1.715,1.194c2.844,1.363,4.861,2.487,6.055,3.372c0.151,0.166,0.18,0.295,0.08,0.389
		c-0.179,0.098-0.323,0.146-0.435,0.145c-0.712,0.09-1.564,0.005-2.563-0.255c-0.876-0.207-1.646-0.487-2.311-0.837
		c-1.059-0.511-2.175-1.169-3.353-1.977l-0.664-0.519c-2.577-2.361-4.892-4.393-6.94-6.092c-2.05-1.701-3.835-3.071-5.358-4.111
		l-0.087-0.058c-0.026,0.011-0.051,0.027-0.075,0.038c-3.905,1.48-6.893,2.222-8.962,2.229
		C755.611,933.718,754.866,933.472,754.639,932.994z M788.621,960.368c-5.465-5.434-9.74-9.941-12.827-13.521l-7.119-6.208
		c-2.773-1.438-4.646-0.796-5.62,1.924l-1.126-6.966c0.801,0.994,1.566,1.762,2.296,2.3c1.587,0.754,3.488,1.887,5.698,3.402
		c4.371,3.113,8.022,5.884,10.955,8.309l7.792,7.995c1.505,2.568,2.57,4.348,3.194,5.338
		C790.271,961.779,789.188,960.921,788.621,960.368z M801.922,971.469c-1.834-1-3.342-1.881-4.523-2.643
		c-0.397-0.229-1.101-0.732-2.11-1.514c-0.344-0.291-0.611-0.554-0.792-0.787c0.004,0.024-0.041,0.013-0.137-0.034
		c-0.083-0.06-0.201-0.179-0.345-0.354c-0.598-0.781-1.153-1.593-1.673-2.433l-0.471-0.754c2.509,1.804,5.151,3.635,7.923,5.487
		c0.216,0.167,0.429,0.34,0.639,0.515c0.632,0.526,1.239,1.091,1.822,1.696l2.947,3.269
		C804.051,973.033,802.957,972.217,801.922,971.469z M805.22,973.936c0.288,0.209,0.862,0.667,1.722,1.376
		c0.622,0.527,1.062,0.939,1.316,1.238c0.129,0.151,0.208,0.272,0.243,0.365c0.07,0.049,0.298,0.306,0.68,0.77
		c0.155,0.198,0.312,0.418,0.473,0.653c0.32,0.474,0.649,1.021,0.987,1.645L805.22,973.936z M816.057,899.505l-0.128,0.055
		l-0.138,0.051l-0.146,0.045l-0.159,0.041l-0.166,0.038l-0.176,0.031l-0.187,0.025l-0.196,0.02l1.408-0.366h0.008L816.057,899.505z
		 M823.249,898.898c-0.027,0.138-0.219,0.168-0.573,0.097c-0.272-0.11-0.602-0.417-0.987-0.92c-0.271-0.417-0.441-0.742-0.511-0.979
		c-0.156-0.421-0.352-1.11-0.592-2.065c-0.235-0.493-0.523-0.896-0.864-1.208c-0.124-0.122-0.268-0.219-0.405-0.327
		c-0.546,0.926-1.129,1.978-1.754,3.173c-1.327,1.394-2.251,2.429-2.814,3.144c0.004,0,0.008,0,0.012,0l-0.015,0.004
		c-0.056,0.071-0.128,0.155-0.176,0.219c-0.746,0.93-1.45,1.883-2.11,2.862c-0.737,0.781-1.404,1.378-1.995,1.792l-0.042,0.105
		c-0.424,0.413-3.354,1.88-8.791,4.403l-9.565,3.155l-1.708,1.086l-0.167,0.131c-0.165,0.108-0.438,0.254-0.818,0.441
		c-1.14,0.558-3.25,1.476-6.33,2.75c0.059,0.016,0.012,0.05-0.141,0.102c-0.339,0.1-0.693,0.19-1.063,0.27
		c0.874-0.625,1.946-1.286,3.221-1.978c1.064-0.581,2.666-1.271,4.806-2.076l2.201-0.726l18.086-11.506
		c-0.415-0.056-0.709-0.225-0.867-0.521c-0.238-0.305-0.34-0.833-0.307-1.586c0.113-1.507,0.696-2.977,1.753-4.412
		c0.765-0.77,1.576-1.281,2.436-1.533c0.807-0.241,1.267-0.364,1.382-0.37c0.549-0.114,1.128-0.149,1.739-0.106
		c0.893-0.336,1.711-0.524,2.451-0.561l0.276-0.007l0.683,0.048l0.157,0.035l1.553-1.464c-0.349,0.433-0.723,0.958-1.119,1.563
		l0.045,0.01l0.587,0.239l0.538,0.333l0.489,0.431c0.312,0.319,0.59,0.699,0.839,1.145c0.563,1.161,0.856,2.038,0.876,2.627
		C823.736,897.697,823.601,898.423,823.249,898.898z M828.442,686.221l-2.325,0.395c-0.368-0.004-0.588-0.107-0.66-0.308
		c-0.084-0.217-0.06-0.506,0.067-0.862l0.033-0.095l1.012-2.063c0.188-0.489,0.284-0.896,0.284-1.22
		c0.005-0.285-0.044-0.537-0.146-0.758l-0.175-0.278c-0.281-0.256-0.474-0.447-0.576-0.574c-0.049-0.055-0.099-0.14-0.149-0.258
		c-0.055-0.118-0.09-0.242-0.11-0.372l-0.005-0.064l0.004-0.307c0.086-0.652,0.509-1.374,1.269-2.166
		c0.556-0.609,1.347-1.082,2.37-1.419l0.298-0.081h0.008L828.442,686.221z M847.628,669.255c0.464-0.421,1.137-0.66,2.021-0.716
		l0.193-0.004c0.828,0.036,1.403,0.13,1.729,0.285c0.657,0.265,1.257,0.76,1.796,1.486c0.81,1.197,1.236,2.822,1.284,4.875
		c-0.193,2.607-0.648,4.823-1.373,6.648c-0.37,0.921-0.778,1.715-1.229,2.379c-0.225,0.333-0.462,0.634-0.706,0.903
		c-0.632,0.616-1.023,0.947-1.176,0.994c-0.021-0.105-0.009-0.224,0.044-0.355c0.565-1.054,0.969-1.877,1.207-2.472
		c0.138-0.291,0.275-0.751,0.411-1.38c0.265-1.145,0.253-2.337-0.033-3.575c-0.316-1.525-0.904-2.921-1.764-4.188
		c-0.587-0.816-1.058-1.396-1.413-1.737c-0.687-0.067-1.134-0.218-1.343-0.45c-0.143-0.117-0.248-0.368-0.321-0.754
		C847.002,670.384,847.227,669.738,847.628,669.255z M843.404,673.974l1.174-1.986l-0.046,1.653c0.349-0.279,0.53-0.356,0.539-0.231
		c0,0.087-0.084,0.271-0.251,0.552c-0.083,0.139-0.188,0.303-0.313,0.491l0.024-0.807h-0.008c-0.198,0.161-0.416,0.342-0.655,0.546
		c-0.102,0.082-0.162,0.126-0.178,0.138c-0.178,0.134-0.313,0.205-0.401,0.217l-0.065-0.03l-0.006-0.106
		C843.253,674.281,843.314,674.136,843.404,673.974z M842.879,719.066c0.661-0.525,1.177-0.896,1.549-1.114
		c0.215-0.127,0.425-0.232,0.631-0.316c0.109-0.069,0.403-0.148,0.88-0.237l0.278-0.017c0.146,0,0.288,0.015,0.425,0.041
		c0.073-0.003,0.274,0.069,0.599,0.214c0.255,0.136,0.495,0.327,0.721,0.572l0.774,5.99c-0.094-0.26-0.197-0.51-0.313-0.748
		c-0.308-0.579-0.509-0.914-0.599-1.004c-0.479-0.642-1.001-1.147-1.565-1.519c-0.534-0.353-1.079-0.554-1.635-0.604
		c-0.456-0.049-0.942,0.022-1.464,0.215c-0.407,0.111-0.935,0.457-1.581,1.038c-0.336,0.347-0.743,0.995-1.221,1.944
		c-0.203,0.558-0.314,1.149-0.333,1.775c0,0.322,0.226,0.875,0.68,1.657c0.031,0.174-0.064,0.266-0.29,0.272
		c-0.244,0.036-0.812-0.133-1.703-0.508c-0.2-0.083-0.42-0.261-0.657-0.531c-0.169-0.275-0.244-0.512-0.229-0.711
		c0.008-0.27,0.142-0.621,0.406-1.053c0.383-0.576,0.654-0.944,0.807-1.109l1.612-1.903
		C841.299,720.636,842.041,719.855,842.879,719.066z"/>
	<path fill="#C8C8C8" d="M324.158,750.673c2.119-12.867,4.221-21.217,6.306-25.048l25.568-37.972
		c12.24-30.748,23.341-52.159,33.301-64.234c3.985-4.484,8.126-7.564,12.421-9.236c7.784-2.107,16.794-3.461,27.031-4.061
		l14.812-0.344c3.326,0.67,8.897,4.021,16.714,10.051c2.909,0.689,5.713,0.532,8.411-0.473c3.704-1.468,6.324-3.995,7.86-7.583
		c-0.306-9.604,0.417-15.528,2.167-17.772c6.419-8.204,11.289-12.723,14.611-13.559l1.283-0.246
		c3.313-0.391,6.573,2.829,9.779,9.655l-0.342,27.158c0.102,1.317,0.559,2.791,1.373,4.417c0.226,0.362,0.477,0.657,0.749,0.905
		c1.307-0.601,2.604-1.176,3.886-1.711c5.942-1.611,11.146-2.176,15.613-1.695c2.038,0.277,3.379,0.611,4.021,1.001
		c5.461,4.646,8.994,6.878,10.604,6.697c1.626,0.407,6.841-0.043,15.646-1.352c2.632-0.688,5.6-2.424,8.906-5.209
		c3.293-6.471,6.285-10.812,8.975-13.021c4.357-3.296,8.506-5.634,12.443-7.013c5.929-3.322,24.374-6.053,55.337-8.19
		c3.944-0.701,11.5-3.592,22.667-8.676c1.322-0.36,2.487-0.56,3.496-0.601l0.369-0.006c1.199-0.076,2.294,0.282,3.287,1.069
		l3.177-0.129c1.689-1.752,3.529-5.011,5.523-9.792l0.563-0.448c-0.728-0.33-1.28-0.938-1.654-1.83
		c0.308-6.353-0.171-10.282-1.429-11.786c-0.766-1.727-3.604-2.692-8.499-2.903c-0.052,0.067-0.093,0.125-0.149,0.196
		c-0.807,0.8-2.128,1.314-3.962,1.541c-3.238,0.024-7.994,0.474-14.272,1.354c-0.664,0.049-2.159,0.103-4.488,0.157
		c-1.014-0.123-1.962-0.233-2.852-0.334c-10.708,1.71-19.836,2.873-27.368,3.486c-5.497,0.433-18.118,0.349-37.869-0.251
		c-8.243,0.132-13.94,0.359-17.091,0.682c-20.099,2.235-31.325,3.59-33.683,4.066c-6.016,0.909-16.714,3.028-32.093,6.355
		c-1.361,0.217-3.408,0.33-6.14,0.336c-2.899,0.146-5.541-0.803-7.925-2.85c-2.936-10.957-6.199-17.044-9.792-18.261
		c-4.698-0.854-12.884-0.874-24.544-0.061c-25.64,15.142-48.878,34.301-69.693,57.514c-43.799,48.844-68.655,106.371-74.606,172.563
		c4.036-5.761,10.09-13.866,18.188-24.345C321.931,756.742,323.053,754.006,324.158,750.673z M545.958,577.424l0.143,0.391
		l0.094,0.384l0.047,0.374c0.03,0.351,0.002,0.728-0.083,1.129c-0.042,0.202-0.099,0.408-0.17,0.622
		c-0.202,0.544-0.341,0.878-0.417,1.002c-0.115,0.205-0.24,0.393-0.373,0.566c-0.133,0.172-0.275,0.329-0.427,0.469l-0.235,0.201
		c-0.3,0.25-0.681,0.438-1.143,0.565c-0.407,0-0.663-0.18-0.771-0.537l-0.045-0.194c-0.023-0.139-0.031-0.297-0.023-0.477
		l0.012-0.134c0.021-0.11,0.069-0.263,0.145-0.458c0.228-0.584,0.696-1.548,1.409-2.891c0.051-0.108,0.096-0.229,0.135-0.362
		l0.052-0.208c0.094-0.437,0.13-0.987,0.104-1.648c-0.038-0.37-0.128-0.758-0.264-1.163l-0.055-0.153
		C545.005,575.792,545.627,576.632,545.958,577.424z M535.188,569.399l0.618-0.012c0.807-0.018,1.711,0.075,2.714,0.28
		c0.904,0.208,1.709,0.539,2.415,0.99c0.352,0.225,0.681,0.481,0.982,0.767l0.437,0.451c0.689,0.87,1.269,1.877,1.735,3.02
		l-1.4-1.27c-0.28-0.247-0.551-0.464-0.811-0.653c-0.262-0.188-0.513-0.347-0.753-0.477c-0.241-0.13-0.473-0.231-0.693-0.302
		l-0.323-0.086l-0.402-0.061l-0.193-0.004c-0.224,0.008-0.563,0.047-1.021,0.118c-0.524,0.209-1.227,0.431-2.107,0.668
		c-0.379,0.103-0.885,0.18-1.518,0.228c-0.392,0.002-0.808-0.04-1.244-0.125c-0.884-0.174-1.61-0.345-2.179-0.51l-1.691-2.043
		C531.712,569.791,533.525,569.464,535.188,569.399z"/>
	<path fill="#C8C8C8" d="M315.471,825.318c-1.744,3.935-3.932,9.289-6.573,16.087c-1.048,1.859-2.129,3.122-3.241,3.79
		c-0.75,0.295-1.629,0.358-2.637,0.186c0.13,1.1,0.268,2.198,0.408,3.292c3.755-2.942,8.506-5.998,14.258-9.169
		C316.621,834.426,315.891,829.707,315.471,825.318z"/>
	<path fill="#C8C8C8" d="M355.945,884.689c-1.06,0.176-2.059,0.275-3.013,0.316c3.878,2.214,7.042,1.95,9.485-0.814
		c5.726-6.25,7.705-13.751,5.942-22.501c-1.188-1.507-2.324-3.048-3.423-4.612c0.375,3.988,0.586,7.394,0.627,10.212
		C366.089,877.662,362.883,883.459,355.945,884.689z"/>
	<path fill="#C8C8C8" d="M327.418,843.392c0.95,7.842,2.672,13.816,5.167,17.921c2.774,4.32,5.387,8.072,7.84,11.281l-10.073-44.786
		C329.715,832.38,328.738,837.572,327.418,843.392z"/>
	<path fill="#C8C8C8" d="M492.693,938.1c-0.02,0.141-0.032,0.292-0.053,0.433c-0.132,0.921-0.279,1.82-0.446,2.699
		c-0.167,0.88-0.351,1.736-0.552,2.574l-0.314,1.239c-0.896,2.737-1.62,4.561-2.17,5.474l-0.262,0.381l-0.231,0.228l-0.203,0.076
		c-0.117,0.027-0.235-0.104-0.354-0.393l2.442-6.63c0.275-0.811,0.472-1.445,0.588-1.903c0.246-0.808,0.577-2.518,0.992-5.107
		c-1.445-2.49-3.22-6.308-5.328-11.458c-1.15-1.921-2.176-3.351-3.074-4.286c-1.3-1.991-7.988-5.812-20.063-11.468
		c-3.105-1.241-5.829-1.349-8.173-0.323l-0.826,0.458l-9.098,7.989c0.137,0.96,0.306,1.832,0.516,2.59l1.821,3.431l12.855,11.859
		c7.404,5.97,14.187,8.995,20.346,9.073c5.417,10.649,10.716,16.23,15.897,16.75c1.178,0.137,2.145,0.039,2.902-0.292
		c1.791-1.355,4.584-2.94,8.373-4.755l-14.867-17.589C493.184,938.844,492.942,938.493,492.693,938.1z"/>
	<path fill="#C8C8C8" d="M663.712,965.508c-26.637-0.025-43.856,2.342-51.659,7.102c-1.754,0.929-3.303,1.83-4.675,2.706
		c11.309-1.184,23.535-2.228,36.69-3.126l10.735,9.458c0.612,0.523,6.427,0.235,17.443-0.861c1.66,0.136,3.191,0.429,4.62,0.844
		C673.687,972.712,669.303,967.328,663.712,965.508z"/>
	<path fill="#C8C8C8" d="M816.284,892.319c-0.698,0.253-1.633,0.711-2.799,1.373c-0.585,0.302-1.204,0.711-1.855,1.225
		c-0.202,0.114-0.492,0.523-0.87,1.232c-0.234,0.563-0.347,0.904-0.338,1.021c-0.082,0.462-0.073,0.934,0.028,1.413
		c0.004,0.086,0.133,0.274,0.381,0.558c0.115,0.106,0.249,0.2,0.399,0.28c0.123,0.065,0.266,0.116,0.413,0.165l6.947-6.558
		C817.929,892.675,817.169,892.429,816.284,892.319z"/>
	<path fill="#9F9F9F" fill-opacity="0.898" d="M655.396,557.626c-4.197,0.745-8.188,1.419-11.985,2.026
		c0.89,0.101,1.838,0.212,2.852,0.334c2.329-0.055,3.824-0.108,4.488-0.157c6.278-0.879,11.034-1.33,14.272-1.354
		c1.834-0.227,3.155-0.74,3.962-1.541c0.057-0.071,0.098-0.129,0.149-0.196c-0.551-0.024-1.12-0.04-1.724-0.045
		C664.396,556.669,660.391,556.98,655.396,557.626z"/>
	<path fill="#9F9F9F" fill-opacity="0.898" d="M706.627,569.025l-8.852,1.393l-16.173,3.096c-0.321-0.045-0.615-0.132-0.887-0.255
		l-0.563,0.448c-1.994,4.781-3.834,8.04-5.523,9.792l14.156-0.576c1.402,0.474,4.189,1.682,8.361,3.622
		c4.61,2.528,6.892,4.178,6.841,4.952c3.241,5.269,5.025,9.286,5.351,12.05c2.854,12.38,1.662,19.243-3.578,20.592
		c-4.814,1.7-8.142,1.499-9.983-0.605c-1.017-8.127-3.316-14.445-6.898-18.95c-1.632-0.831-3.735,0.594-6.31,4.25
		c1.145,0.9,2.33,1.823,3.58,2.787c0.442-0.359,1.948,6.051,4.516,19.232c0.285,1.278,2.919,2.907,7.906,4.885
		c4.366,1.89,9.334,1.624,14.907-0.799c9.65-4.609,18.133-9.118,25.45-13.527c7.987-1.454,14.736-2.1,20.245-1.94
		c3.455,0.182,5.79,1.598,7.008,4.246c1.185,2.455,0.877,6.111-0.921,10.969c0.062,1.1,0.408,1.85,1.036,2.251
		c4.341,2.029,10.738,3.027,19.191,2.994c3.003,0.124,4.961-0.325,5.875-1.349l0.612-2.197l0.754-17.777
		c1.112-1.728,2.475-2.724,4.09-2.988c2.032-0.361,3.99-0.347,5.883,0.042c3.903,0.872,7.057,1.85,9.459,2.935
		c4.299,2.546,9.822,7.138,16.567,13.779c1.454,0.913,2.982,1.679,4.588,2.299c2.647,0.839,4.452,0.72,5.42-0.356
		c0.575-0.495,0.391-1.626-0.563-3.392l-12.737-14.941l-2.992-2.412c-2.85-2.29-4.916-3.871-6.197-4.747
		c-10.478-4.837-15.415-7.34-14.815-7.511c-1.125-0.5-3.203-4.636-6.238-12.41c-0.468-0.774-1.39-1.803-2.762-3.086
		c-0.073-0.501-4.322-2.232-12.754-5.195c-1.374-0.696-2.758-1.709-4.151-3.044c-1.364-1.23-2.259-3.958-2.688-8.161l-52.407-1.508
		C716.694,567.911,712.095,568.283,706.627,569.025z M741.449,590.092l-0.104-0.014c0.217,0.019,0.522,0.053,0.914,0.104
		C741.995,590.158,741.726,590.127,741.449,590.092z M730.502,579.874c0.703-1.611,1.432-2.802,2.183-3.576
		c2.158-1.913,4.603-2.977,7.332-3.189l1.037-0.04c1.442,0.068,3.275,0.434,5.495,1.099l1.354,0.468
		c0.864,0.33,1.657,0.695,2.376,1.098c0.721,0.402,1.367,0.839,1.938,1.314l2.974,2.62c0.195,0.165,0.448,0.453,0.759,0.864
		l0.298,0.882c0.191,0.765-0.032,2.283-0.67,4.548c-0.398,1.333-1.082,2.409-2.049,3.229c-0.484,0.409-1.04,0.756-1.666,1.039
		l-0.993,0.375c-0.845,0.242-1.465,0.372-1.855,0.39c-0.685,0.062-1.274,0.065-1.764,0.015c-1.976-0.369-3.391-0.61-4.246-0.726
		l1.307,1.094c-0.639-0.403-1.303-0.799-1.994-1.188l0.687,0.093l-0.065-0.054c0.391,0.03,0.959,0.023,1.712-0.021l0.921-0.115
		l0.852-0.192c0.545-0.153,1.041-0.358,1.492-0.614c0.9-0.511,1.614-1.228,2.142-2.149c0.071-0.341-0.175-0.691-0.739-1.05
		c-1.007-0.407-3.093-1.449-6.251-3.126c-2.726-0.983-5.093-1.716-7.1-2.203c-0.346-0.077-0.664-0.114-0.964-0.111l-1.617,0.149
		c-0.389,0.058-0.755,0.145-1.098,0.261c-0.343,0.116-0.661,0.262-0.957,0.437c-0.176,0.051-0.567,0.378-1.171,0.981
		C730.064,581.646,730.178,580.778,730.502,579.874z M729.871,583.196l0.191-0.603l0.061-0.075l0.031-0.037
		c0.165,0.973,0.456,1.74,0.871,2.299c0.517,0.633,0.832,0.99,0.944,1.069c0.432,0.417,0.88,0.756,1.342,1.016
		c0.568,0.312,1.194,0.545,1.882,0.701c0.342,0.068,0.551,0.105,0.624,0.109c1.034,0.043,1.928,0.118,2.682,0.228
		c0.371,0.08,0.928,0.236,1.666,0.469c0.322,0.099,0.695,0.252,1.116,0.467l1.657,1.388c-0.234-0.012-0.456-0.026-0.666-0.045
		l0.038,0.003l-0.442-0.238l-0.694-0.327c-0.553-0.187-1.056-0.333-1.51-0.439c-1.889-0.188-3.031-0.318-3.428-0.39
		c-0.627-0.087-1.256-0.209-1.89-0.37c-0.599-0.156-1.367-0.506-2.304-1.046c-0.453-0.301-0.842-0.615-1.159-0.938l-0.426-0.496
		c-0.251-0.336-0.431-0.684-0.545-1.044c-0.111-0.36-0.156-0.732-0.131-1.117L729.871,583.196z"/>
	<path fill="#9F9F9F" fill-opacity="0.898" d="M688.879,604.582c3.582,4.505,5.882,10.822,6.898,18.95
		c1.842,2.104,5.169,2.306,9.983,0.605c5.24-1.349,6.432-8.211,3.578-20.592c-0.325-2.764-2.109-6.781-5.351-12.05
		c0.051-0.774-2.23-2.424-6.841-4.952c-4.172-1.94-6.959-3.147-8.361-3.622l-14.156,0.576l-3.177,0.129
		c-0.993-0.787-2.088-1.145-3.287-1.069l-0.369,0.006c-1.009,0.041-2.174,0.241-3.496,0.601
		c-11.167,5.083-18.723,7.975-22.667,8.676c-30.963,2.137-49.408,4.868-55.337,8.19c-3.938,1.379-8.086,3.716-12.443,7.013
		c-2.689,2.209-5.682,6.549-8.975,13.021c-3.307,2.785-6.274,4.521-8.906,5.209c-8.805,1.309-14.02,1.759-15.646,1.352
		c-1.61,0.181-5.144-2.051-10.604-6.697c-0.642-0.39-1.982-0.724-4.021-1.001c-4.467-0.481-9.671,0.084-15.613,1.695
		c-1.281,0.536-2.579,1.111-3.886,1.711c0.341,0.313,0.715,0.546,1.129,0.678c0.816-1.064,1.481-1.54,1.999-1.421
		c0.704-0.231,3.777-0.344,9.219-0.336l-11.22,1.758c-13.655,12.814-26.461,20.388-38.416,22.722
		c-0.022,0.004-0.049,0.004-0.071,0.009l-6.982,5.967c-4.708,4.419-8.264,8.65-10.672,12.69c-4.273,9.245-5.025,15.404-2.256,18.479
		c3.222,5.346,7.201,8.663,11.941,9.951c1.56,0.358,3.282,0.549,5.17,0.573c12.624-1.098,19.869-1.446,21.735-1.042
		c4.234,1.853,8.332,6.233,12.293,13.142c2.045,1.057,3.952,1.535,5.722,1.431c8.135-1.313,15.923-5.53,23.363-12.656
		c1.46-1.476,3.664-8.126,6.612-19.95c1.227-2.921,3.327-5.824,6.305-8.71c5.358-5.278,12.14-8.268,20.34-8.97
		c1.904-0.009,3.335,0.471,4.291,1.44c1.717,1.793,2.89,3.987,3.52,6.587c0.499,2.25-0.356,7.654-2.562,16.212l0.81,5.126
		c-0.611,0.4,8.175,3.153,26.364,8.259c10.379,2.607,24.717,3.4,43.009,2.381c2.909-0.542,11.352-3.259,25.328-8.149
		c4.567-4.713,8.836-7.384,12.805-8.01c2.863-0.719,7.674,3.029,14.431,11.244l10.215,5.3l3.636,0.977
		c1.55,0.489,7.731,1.294,18.55,2.415c3.021-0.231,5.767-0.591,8.247-1.072l-10.633-27.655c0.745-0.297,1.341-0.463,1.786-0.497
		l0.157-0.006c0.399,0,0.651,0.129,0.76,0.384c0.87,4.07,1.525,6.66,1.96,7.772l2.604,5.312l1.945,4.191
		c1.751,4.103,2.641,6.494,2.675,7.173l1.896,2.612c3.205-0.847,5.857-1.95,7.956-3.307c6.121-4.719,7.63-10.505,4.529-17.358
		c-0.652-1.408-1.508-2.576-2.565-3.5l-19.273-15.183c-3.889-0.637-7.293-0.046-10.211,1.776
		c-5.281,9.702-9.734,15.093-13.361,16.17c-2.563,0.442-4.885,0.042-6.966-1.205c-1.646-0.463-4.434-3.293-8.36-8.493
		c-4.597-6.424-7.622-13.895-9.083-22.413c-0.967-3.737,0.131-9.777,3.299-18.123c-0.982-5.505-1.202-9.907-0.652-13.201
		c1.081-1.971,2.097-3.624,3.05-4.978C685.144,605.176,687.247,603.751,688.879,604.582z M671.432,650.709
		c-0.053,0.323-0.259,0.744-0.613,1.267l-1.127,0.14c0.186-0.552,0.307-1.003,0.365-1.354c0.034-0.219,0.049-0.361,0.049-0.427
		c-0.004-0.071-0.011-0.121-0.021-0.15c-0.023-0.078-0.046-0.138-0.072-0.182l0.003-0.056c0.012-0.04,0.068-0.069,0.172-0.085
		l0.016-0.001c0.108,0,0.31,0.029,0.606,0.085l0.115,0.022l0.214,0.073l0.159,0.11l0.102,0.148l0.037,0.12l0.01,0.136
		L671.432,650.709z"/>
	<path fill="#9F9F9F" fill-opacity="0.898" d="M404.91,1003.801c34.756,9.188,56.356,16.584,64.805,22.187
		c2.942,0.834,12.833,1.012,29.672,0.538c17.144-2.479,28.252-6.166,33.324-11.066c6.791-4.554,13.03-13.146,18.719-25.77
		c5.817-5.797,11.148-8.776,15.996-8.938c11.704-2.059,25.024-3.869,39.952-5.436c1.372-0.876,2.921-1.777,4.675-2.706
		c7.803-4.76,25.022-7.127,51.659-7.102c5.591,1.82,9.975,7.204,13.155,16.122c0.981,0.286,1.923,0.62,2.796,1.038l4.006,3.498
		c8.134,2.429,13.067,3.031,14.794,1.799c-0.842-19.79-2.915-35.235-6.218-46.336c-4.241,0.881-7.502,1.583-9.771,2.104
		l-20.327,6.111l-18.798,3.343c-8.683,2.21-14.855,3.562-18.514,4.048c-3.637,0.56-10.558,1.171-20.763,1.833l-18.555,0.303
		c-0.358-0.004-0.373-0.035-0.043-0.094c1.035-0.194,2.39-0.361,4.066-0.5c6.236-0.247,10.047-0.441,11.428-0.589l33.425-3.527
		c3.34-0.47,9.778-1.844,19.311-4.123c4.588-1.111,9.815-2.596,15.676-4.446l3.732-0.79l8.239-1.528l10.627-2.995
		c-0.679-2.196-1.404-4.232-2.185-6.074c-0.27-1.701,3.353-10.211,10.865-25.528c0.595-1.315,0.685-3.173,0.271-5.575l-16.36-25.439
		c-6.098,2.084-9.822,2.833-11.175,2.243c-10.48-9.559-16.885-14.503-19.216-14.834c-3.255-1.174-8.576-1.374-15.96-0.597
		c-5.199,0.708-9.48,2.323-12.856,4.835l13.28,3.659c15.523,7.59,23.92,11.013,25.197,10.261l-12.259,6.411l-3.551,0.368
		c-1.453,0.069-2.499-0.037-3.142-0.319c-4.557-3.316-12.146-6.965-22.765-10.95c-0.998-0.331-2.057-0.648-3.142-0.958
		c-0.201,1.016-0.197,2.004,0.021,2.962c4.486,8.233,7.034,14.209,7.643,17.933c0.562,4.191-0.684,6.843-3.732,7.958l-59.042-7.633
		c-5.965-0.51-9.815,0.29-11.55,2.402c-2.466,2.147-4.146,5.018-5.045,8.611c0.867,5.828,1.29,10.882,1.271,15.166
		c1.499,2.077,2.429,4.643,2.763,7.718c0.155,9.633-0.914,15.792-3.212,18.479c-2.163,3.305-4.827,5.759-7.995,7.366
		c-2.554,1.184-9.108,1.811-19.667,1.874c-4.641,0.125-7.947-0.45-9.923-1.729l-2.236-2.647c-3.789,1.815-6.582,3.4-8.373,4.755
		c-0.758,0.331-1.725,0.429-2.902,0.292c-5.182-0.52-10.48-6.101-15.897-16.75c-6.159-0.078-12.941-3.103-20.346-9.073
		l-12.855-11.859l-1.821-3.431c-0.21-0.759-0.379-1.63-0.516-2.59l-2.765,2.426l-38.261-10.216
		c9.937-9.743,22.096-15.472,36.477-17.188l0.416-0.002c1.679,0.041,3.449,0.154,5.305,0.333l8.62-24.226l16.404-27.092
		c-1.269-0.654-2.32-1.264-3.132-1.834c-7.502-8.288-13.143-14.027-16.921-17.222l-1.382-1.131c2.062,1.133,4.377,2.308,6.951,3.525
		c1.516,0.849,2.614,1.634,3.293,2.354c0.333,0.337,0.762,0.82,1.289,1.451l9.454,11.856c0.222,0.262,0.427,0.495,0.621,0.71
		l14.32-23.653l2.206-5.345c0.502-1.313,0.685-3.188,0.547-5.624l-4.418-13.179c1.204-11.404,0.22-20.814-2.953-28.23l1.565-17.1
		c-0.348-1.308-0.686-2.497-1.018-3.587c-0.462-0.316-0.892-0.622-1.258-0.904c-1.109-0.922-1.665-1.436-1.666-1.541l-0.278-0.414
		l-0.535-1.07l-0.205-0.516c-0.363-0.992-0.751-2.479-1.166-4.459c-3.896-3.553-10.974-8.539-21.237-14.96
		c-5.297-8.902-9.981-15.645-14.06-20.228c-2.146-1.373-4.19-2.095-6.139-2.166l-5.713,0.186l-3.833,0.878l2.261-0.166l8.032,7.539
		c-5.849-4.883-15.805-4.291-29.866,1.777c-13.208,6.66-28.815,19.98-46.824,39.96c-4.244,13.456-4.667,24.541-1.268,33.255
		c-2.903,4.469-5.166,13.144-6.79,26.014c1.943,4.084,4.789,9.065,8.555,14.961c2.354,13.979,3.933,25.25,4.74,33.822
		c1.099,1.564,2.235,3.105,3.423,4.612c1.763,8.75-0.217,16.251-5.942,22.501c-2.443,2.764-5.607,3.028-9.485,0.814
		c-5.416,0.226-9.107-1.767-11.063-5.992l-1.444-6.42c-2.453-3.208-5.065-6.961-7.84-11.281c-2.495-4.105-4.217-10.079-5.167-17.921
		c1.32-5.82,2.297-11.011,2.934-15.584l-1.502-6.677c-0.902-3.136-1.927-5.08-3.073-5.831c-2.124-1.523-4.396-0.505-6.818,3.052
		c-0.833,1.272-1.998,3.604-3.487,6.967c0.42,4.389,1.15,9.108,2.215,14.186c-5.752,3.171-10.503,6.227-14.258,9.169
		c2.504,19.457,6.794,38.239,12.891,56.337l14.788,36.105c11.44,23.314,25.543,44.664,42.308,64.049
		c1.27,1.456,2.557,2.885,3.845,4.31C388.108,1005.222,397.331,1003.325,404.91,1003.801z M534.192,993.436l0.022-0.08
		c0.048-0.346,0.1-0.662,0.153-0.943c0.054-0.282,0.107-0.53,0.165-0.75c0.117-0.437,0.242-0.743,0.377-0.924l0.102-0.111h0.004
		l0.092,0.403l0.043,0.459l-0.008,0.512l-0.058,0.568l-0.106,0.62l-0.157,0.677l-0.208,0.73l-0.256,0.785l-0.318,0.873
		C534.083,994.676,534.133,993.735,534.192,993.436z M524.468,1000.626c0.786,0.826,1.555,1.396,2.305,1.704
		c0.621,0.21,0.992,0.302,1.112,0.275c0.616-0.128,0.978-0.224,1.082-0.288c0.458-0.181,0.882-0.429,1.275-0.743
		c0.232-0.161,0.757-0.702,1.572-1.621c0.921-1.09,1.597-2.146,2.027-3.174l0.193-0.512l-0.061,3.303l-0.05,0.811
		c-0.054,0.746-0.11,1.3-0.17,1.658c0.022-0.012-0.041,0.217-0.188,0.683c-0.498,1.356-1.597,2.416-3.294,3.182
		c-0.561,0.252-1.18,0.359-1.854,0.322c-0.289,0.024-0.993-0.213-2.111-0.71c-0.293-0.07-0.589-0.102-0.888-0.094
		c-0.392,0.029-0.911,0.142-1.556,0.335c-0.346,0.118-0.639,0.264-0.876,0.436L524.468,1000.626z M449.029,820.964
		c0.23,0.153,0.66,0.474,1.292,0.959c-0.29-0.165-0.552-0.319-0.785-0.46c-0.235-0.143-0.441-0.274-0.618-0.395l-0.245-0.173
		c-0.149-0.107-0.27-0.208-0.363-0.293l-0.118-0.124l-0.076-0.106C448.404,820.545,448.707,820.741,449.029,820.964z
		 M377.857,812.302l-0.028,0.055l-0.053,0.043l-0.078,0.034l-0.104,0.021l-0.129,0.012l-0.09-0.033l-0.081-0.053l-0.07-0.073
		l-0.06-0.09l-0.051-0.108l-0.039-0.127l-0.029-0.146l-0.019-0.164l-0.009-0.183c0.268,0.191,0.499,0.353,0.697,0.485l0.073,0.097
		l0.049,0.088l0.022,0.076L377.857,812.302z M384.183,800.379c-0.988,0.401-1.916,0.917-2.782,1.544
		c-1.261,1.024-2.282,2.445-3.065,4.26c-0.717,1.648-1.156,3.416-1.317,5.305c-0.931-0.678-1.515-1.242-1.754-1.691
		c-0.535-1.08-0.769-2.051-0.699-2.913c0.063-1.489,1.133-3.653,3.21-6.487c1.007-1.16,2.038-2.241,3.089-3.243
		c1.054-1.003,2.127-1.928,3.224-2.774l1.662-1.211c1.119-0.768,2.262-1.458,3.425-2.07c1.164-0.612,2.35-1.146,3.559-1.602
		l0.635-0.121l0.052-0.002c0.143-0.011,0.192,0.039,0.148,0.149c-1.358,0.828-2.289,1.594-2.791,2.298
		c-0.535,0.86-0.703,1.713-0.502,2.561c0.115,0.471,0.338,0.986,0.669,1.549l4.51,0.493c-1.534,0.314-2.564,0.577-3.093,0.792
		c-2.248,1.204-3.579,1.877-3.994,2.02C385.961,799.824,384.565,800.205,384.183,800.379z M399.268,939.546
		c-0.367,0.714-0.683,1.19-0.949,1.429c-0.536,0.542-1.146,0.972-1.829,1.292c-0.492,0.221-0.944,0.375-1.356,0.464
		c-1.823,0.281-3.563,0.628-5.222,1.043c-0.212,0.002-0.4-0.046-0.563-0.145c-0.097-0.091-0.174-0.321-0.228-0.685
		c0.04-0.517,0.264-1.269,0.669-2.253c0.134-0.328,0.372-0.809,0.715-1.444c1.052-1.673,2.074-3.444,3.066-5.312
		c0.298-0.464,0.591-0.713,0.878-0.751h0.014c0.065-0.014,0.244,0.055,0.532,0.203l2.784,2.905l-1.481-0.142
		c-0.208,0.108-0.431,0.265-0.668,0.473c-0.108,0.075-0.142,0.14-0.101,0.198c0.051,0.049,0.227,0.05,0.526,0.005
		c1.33-0.293,2.008-0.425,2.033-0.396c0.338-0.004,0.64,0.049,0.906,0.161c0.139,0.051,0.297,0.19,0.473,0.417
		c0.095,0.056,0.14,0.358,0.135,0.912C399.519,938.829,399.407,939.371,399.268,939.546z"/>
	<path fill="#9F9F9F" fill-opacity="0.898" d="M441.019,893.104c-14.381,1.716-26.54,7.446-36.477,17.188l38.261,10.216l2.765-2.426
		l9.098-7.989l0.826-0.458c2.344-1.025,5.067-0.917,8.173,0.323c12.075,5.656,18.764,9.477,20.063,11.468
		c0.898,0.935,1.924,2.364,3.074,4.286c2.108,5.15,3.883,8.968,5.328,11.458c0.041-0.257,0.082-0.511,0.125-0.787
		c0.637-2.704,0.974-4.278,1.016-4.725l0.014-0.086c0.003,0.232-0.053,1.124-0.17,2.672l-0.133,1.463
		c-0.08,0.814-0.182,1.606-0.288,2.394c0.249,0.393,0.49,0.745,0.718,1.049l14.867,17.589l2.236,2.647
		c1.976,1.279,5.282,1.854,9.923,1.729c10.559-0.063,17.113-0.689,19.667-1.874c3.168-1.607,5.832-4.061,7.995-7.366
		c2.298-2.687,3.367-8.846,3.212-18.479c-0.334-3.075-1.264-5.641-2.763-7.718c-0.77-1.067-1.68-2.013-2.755-2.815
		c-1.111-1.364-5.789-3.277-14.033-5.737c-8.301-1.801-15.381-2.604-21.236-2.405c-2.015-0.296-3.786-0.744-5.314-1.333
		c-2.203-0.857-6.433-3.658-12.675-8.394c0.005,0.077,0.007,0.145,0.011,0.224c0.021,0.519,0.151,2.161,0.395,4.923l0.14,3.216
		c0.174,1.435,0.301,2.734,0.381,3.897c0.012,0.222,0.018,0.402,0.016,0.541l-0.054,2.615c-0.116-1.065-0.566-4.046-1.347-8.948
		c-0.067-0.495-0.13-1.224-0.188-2.184c-0.011-0.216-0.021-0.431-0.029-0.65c-0.012-0.39-0.02-0.807-0.021-1.253
		c-0.002-0.848,0.02-1.807,0.061-2.864c-0.539-0.411-1.088-0.832-1.656-1.271c-2.594-1.442-4.728-2.353-6.401-2.732l-12.377-1.714
		l-18.621-4.575c-0.219-0.035-0.426-0.061-0.643-0.094c-2.919,1.546-5.737,3.083-8.442,4.608c-0.992,0.394-1.618,0.616-1.879,0.667
		c-1.029,0.288-1.55,0.206-1.562-0.247c-0.119-0.28,0.447-0.848,1.698-1.699l6.776-3.79c-0.692-0.082-1.386-0.167-2.054-0.231
		c-1.855-0.179-3.626-0.292-5.305-0.333L441.019,893.104z M493.34,930.121c0.013-0.429,0.022-0.899,0.033-1.408l0.006-0.149
		l0.006-0.309l0.004-0.472c0.002-0.369,0.005-0.845,0.007-1.427c0.003-1.169,0.004-2.764,0.003-4.792l0.023-1.129h0.004
		c0.013,0.095,0.037,0.308,0.075,0.647c0.009,0.076,0.024,0.24,0.046,0.492c0.007,0.06,0.013,0.173,0.02,0.338l0.07,0.747
		l0.055,0.741l0.043,0.733l0.027,0.726l0.016,0.721l0.002,0.715l-0.014,0.707l-0.026,0.7l-0.039,0.695
		c-0.015,0.196-0.033,0.399-0.055,0.611c-0.043,0.425-0.101,0.882-0.172,1.374c-0.095,0.627-0.156,1.014-0.185,1.159
		C493.315,930.939,493.331,930.465,493.34,930.121z"/>
	<path fill="#9B9B9B" fill-opacity="0.898" d="M305.656,845.194c1.112-0.667,2.193-1.93,3.241-3.79
		c2.642-6.798,4.829-12.152,6.573-16.087c1.489-3.363,2.654-5.694,3.487-6.967c2.422-3.557,4.694-4.575,6.818-3.052
		c1.146,0.751,2.171,2.695,3.073,5.831l1.502,6.677l10.073,44.786l1.444,6.42c1.956,4.225,5.647,6.217,11.063,5.992
		c0.954-0.041,1.953-0.141,3.013-0.316c6.938-1.23,10.144-7.027,9.619-17.398c-0.041-2.819-0.252-6.225-0.627-10.212
		c-0.808-8.572-2.387-19.843-4.74-33.822c-3.766-5.896-6.611-10.877-8.555-14.961c-1.702-3.573-2.715-6.461-3.022-8.645
		c-0.702-5.929-0.228-20.21,1.423-42.843c-1.395-15.644-1.896-26.71-1.505-33.2c0.317-5.951,2.333-13.044,6.052-21.28
		c2.251-4.909,8.099-14.627,17.543-29.158c4.023-11.046,6.466-17.183,7.326-18.411c6.52-8.029,14.258-14.044,23.217-18.044
		l11.758-5.517l3.373-0.181c4.056,0.522,10.224,3.136,18.505,7.84l19.37,0.351c6.483,4.807,10.868,6.983,13.161,6.537
		c0.022-0.005,0.049-0.005,0.071-0.009c11.955-2.334,24.761-9.908,38.416-22.722l11.22-1.758c-5.441-0.008-8.515,0.104-9.219,0.336
		c-0.518-0.119-1.183,0.356-1.999,1.421c-0.414-0.132-0.788-0.365-1.129-0.678c-0.272-0.248-0.523-0.543-0.749-0.905
		c-0.814-1.627-1.271-3.1-1.373-4.417l0.342-27.158c-3.206-6.826-6.467-10.046-9.779-9.655l-1.283,0.246
		c-3.322,0.835-8.192,5.355-14.611,13.559c-1.75,2.244-2.473,8.167-2.167,17.772c-1.536,3.587-4.156,6.115-7.86,7.583
		c-2.698,1.005-5.502,1.162-8.411,0.473c-7.816-6.03-13.388-9.381-16.714-10.051l-14.812,0.344
		c-10.237,0.6-19.247,1.954-27.031,4.061c-4.295,1.672-8.436,4.752-12.421,9.236c-9.96,12.076-21.061,33.487-33.301,64.234
		l-25.568,37.972c-2.085,3.831-4.187,12.181-6.306,25.048c-1.105,3.333-2.228,6.069-3.363,8.212
		c-8.099,10.479-14.152,18.584-18.188,24.345c-1.257,13.976-1.689,28.329-1.259,43.077c0.369,6.431,0.931,12.787,1.672,19.074
		C304.027,845.553,304.906,845.49,305.656,845.194z"/>
	<path fill="#9B9B9B" fill-opacity="0.898" d="M644.89,890.189c0.643,0.282,1.688,0.388,3.142,0.319l3.551-0.368l12.259-6.411
		c-1.277,0.752-9.674-2.67-25.197-10.261l-13.28-3.659l-5.081-1.4c-1.353-0.693-1.899-2.157-1.641-4.391l6.128-9.253
		c0.439-1.241,0.461-2.044,0.065-2.408c-0.313-0.607-2.108-1.178-5.389-1.718c-15.517-1.323-23.901-2.375-25.151-3.158
		c-3.316-1.202-8.386-5.684-15.207-13.45c-0.483-2.231-0.442-5.37,0.13-9.416c-1.316-2.559-1.994-4.587-2.031-6.081
		c-0.012-0.794,0.238-1.752,0.744-2.869c1.468-3.23,7.889-10.29,19.262-21.18c2.307-3.511,2.932-5.863,1.874-7.057
		c-2.171-1.501-4.202-1.827-6.097-0.979c-15.335,9.627-23.628,13.968-24.879,13.025c-8.242,0.737-16.43-2.367-24.566-9.314
		c-0.973-1.709-0.615-4.539,1.073-8.487c10.83-14.376,16.28-22.876,16.346-25.503l-6.277-19.071l2.184-26.137
		c-0.197-1.457-1.284-2.282-3.261-2.476l-0.487,0.02c-8.362,2.406-14.089,7.27-17.185,14.592
		c-2.305,3.051-3.483,13.079-3.537,30.086c-0.374,2.239-1.117,3.991-2.231,5.262c-1.036,1.357-3.294,3.06-6.773,5.107
		c-14.627,6.551-23.18,10.807-25.663,12.766c-4.733,3.847-6.377,7.131-4.929,9.852c-0.594,2.415,7.119,7.823,23.143,16.226
		c3.706,1.97,11.426,4.432,23.153,7.388c3.819,1.658,6.068,3.214,6.752,4.672c1.137,2.684,1.145,5.115,0.021,7.295
		c-5.516,7.66-9.515,13.844-12.014,18.577c3.471-2.207,6.223-3.808,8.236-4.788c1.568-0.625,3.037-1.016,4.4-1.175l0.305-0.011
		c0.542,0.023,0.849,0.121,0.921,0.297l-5.578,3.842c-3.977,1.762-7.269,3.473-9.893,5.135c-1.007,2.316-1.513,4.142-1.508,5.477
		c0.247,1.882,0.717,3.019,1.409,3.416c5.6,2.16,8.858,3.878,9.779,5.162c7.77,14.793,12.667,22.903,14.694,24.33
		c2.655,1.49,6.034,1.965,10.138,1.431c19.809-6.446,31.423-9.349,34.846-8.709c6.693,0.957,12.481,2.142,17.395,3.543
		c1.085,0.31,2.144,0.627,3.142,0.958C632.743,883.225,640.333,886.873,644.89,890.189z M581.474,856.309l-0.07,0.014
		c-0.142,0.027-0.285,0.008-0.429-0.063c-0.072-0.021-0.163-0.122-0.272-0.295c-0.147-0.276-0.221-0.705-0.22-1.288
		c0.031-1.356,0.093-2.623,0.179-3.803l0.037-0.474l2.395,5.213L581.474,856.309z"/>
	<path fill="#B2B1B1" fill-opacity="0.898" d="M814.006,986.436l0.507,2.646c-0.327-0.909-0.648-1.769-0.96-2.582
		c-5.002,0.658-10.283,1.017-15.858,1.068c-1.812-0.193-3.328-0.679-4.554-1.46c-1.778-2.918-4.665-5.991-8.656-9.223
		c-1.896-1.356-4.502-2.414-7.818-3.168c-8.177-0.904-21.897-1.577-41.163-2.018l-17.311,8.727l-12.816,3.719l-12.236,10.287
		l-9.471-8.267l-4.006-3.498c-0.873-0.418-1.814-0.752-2.796-1.038c-1.429-0.415-2.96-0.708-4.62-0.844
		c-11.017,1.097-16.831,1.385-17.443,0.861l-10.735-9.458c-13.155,0.898-25.382,1.942-36.69,3.126
		c-14.928,1.566-28.248,3.377-39.952,5.436c-4.848,0.162-10.179,3.142-15.996,8.938c-5.688,12.624-11.928,21.216-18.719,25.77
		c-5.072,4.9-16.181,8.588-33.324,11.066c-16.839,0.474-26.729,0.296-29.672-0.538c-8.448-5.603-30.049-12.998-64.805-22.187
		c-7.579-0.476-16.802,1.421-27.651,5.673c51.731,57.271,117.71,90.049,197.949,98.306c85.933,4.579,159.09-19.27,219.473-71.547
		c8.025-6.999,15.572-14.278,22.675-21.813c-0.021-0.138-0.037-0.347-0.041-0.631c0.086-0.604,0.156-1.232,0.207-1.889l0.063-1.005
		c0.033-0.681,0.048-1.39,0.041-2.123c-0.008-1.468-0.09-3.039-0.246-4.714l-2.858-14.936c0.979,2.707,2.011,5.835,3.096,9.386
		c0.916,3.04,1.473,4.921,1.671,5.642l0.163,1.232c0.188,1.616,0.284,3.113,0.28,4.491c-0.003,0.688-0.029,1.351-0.081,1.98
		l-0.012,0.117c9.791-10.616,18.679-21.761,26.666-33.428l-4.895-0.249C833.519,982.321,824.379,985.031,814.006,986.436z
		 M632.837,1083.346c-1.727,1.032-2.674,1.654-2.84,1.867c-0.627,0.672-1.191,1.613-1.703,2.825
		c-0.34,0.374-0.652,0.622-0.933,0.749c-0.317,0.169-0.677,0.298-1.077,0.388l-6.018,1.2c-0.305,0.062-1.903,0.541-4.796,1.438
		l-2.017,0.485c-0.151,0.053-2.286,0.355-6.409,0.91c-0.057,0.02-0.567,0.043-1.527,0.068c-0.803,0-1.563-0.366-2.287-1.096
		c-0.126,0.045-1.255-1.441-3.39-4.462c-0.091-0.534,0.057-1.001,0.442-1.401c1.012-0.896,2.108-1.627,3.293-2.196
		c1.709-0.908,2.98-1.479,3.817-1.715c0.705-0.216,1.418-0.358,2.132-0.43c0.871-0.06,1.434-0.071,1.682-0.037l0.429,1.745
		l0.628-0.335l-0.605,0.429l0.464,1.896l0.504-0.05c1.308-0.137,2.356-0.338,3.144-0.603l6.409-2.685
		c0.558-0.199,0.891-0.311,1-0.336c0.662-0.194,1.31-0.33,1.948-0.409l1.848-0.033h0.214c0.835,0,1.583,0.02,2.246,0.057
		l0.929,0.068c0.575,0.055,1.064,0.128,1.468,0.222c0.804,0.161,1.267,0.44,1.388,0.838
		C633.217,1082.919,633.09,1083.121,632.837,1083.346z"/>
	<path fill="#B2B1B1" fill-opacity="0.898" d="M471.45,553.214c3.593,1.217,6.856,7.304,9.792,18.261
		c2.384,2.047,5.025,2.996,7.925,2.85c2.731-0.006,4.778-0.119,6.14-0.336c15.379-3.327,26.077-5.446,32.093-6.355
		c2.357-0.476,13.584-1.831,33.683-4.066c3.15-0.323,8.848-0.55,17.091-0.682c19.751,0.6,32.372,0.684,37.869,0.251
		c7.532-0.613,16.66-1.775,27.368-3.486c3.797-0.607,7.788-1.281,11.985-2.026c4.995-0.646,9-0.957,12.015-0.932
		c0.604,0.005,1.173,0.021,1.724,0.045c4.895,0.21,7.733,1.176,8.499,2.903c1.258,1.504,1.736,5.434,1.429,11.786
		c0.374,0.893,0.927,1.5,1.654,1.83c0.271,0.123,0.565,0.21,0.887,0.255l16.173-3.096l8.852-1.393
		c5.468-0.742,10.067-1.114,13.803-1.114l52.407,1.508l3.923,0.112c-54.666-40.629-119.138-59.868-193.421-57.7
		c-51.264,4.091-96.733,17.878-136.433,41.322C458.566,552.341,466.752,552.361,471.45,553.214z"/>
	<path fill="#DFDFDF" fill-opacity="0.898" d="M486.412,748.62c-0.049-0.124-0.113-0.252-0.191-0.388l-0.133-0.208
		c-0.19-0.282-0.445-0.591-0.761-0.924l-0.24-0.142l0.354,3.006c0.642,1.083,1.11,1.896,1.406,2.442l-0.337-3.439
		C486.493,748.859,486.46,748.742,486.412,748.62z"/>
	<path fill="#DFDFDF" fill-opacity="0.898" d="M491.697,775.5c0.008-3.917-0.025-7.273-0.098-10.067
		c-0.037-0.489-0.223-0.996-0.556-1.521c-0.166-0.263-0.369-0.529-0.608-0.802l-1.492-1.546c-0.09-0.303-0.137-0.825-0.141-1.565
		c0.015-1.022,0.036-1.701,0.064-2.036c-0.041-0.424-0.111-0.85-0.212-1.277c-0.211-1.098-0.814-2.522-1.809-4.271l0.12,1.227
		c0.859,1.934,1.314,3.166,1.364,3.698l-0.001,0.167l-0.352,3.96l0.487,4.009c-0.045,0.61-0.081,1.273-0.105,1.988
		c-0.025,0.292-0.039,1.483-0.04,3.575c0.007,0.874,0.023,1.801,0.052,2.78l0.11,3.241l0.028,0.213
		c0.005,0.262,0.347,1.416,1.024,3.463l0.113,4.39c1.46,3.271,2.192,5.246,2.195,5.923l-0.032,0.193
		c0.025,0.211,0.029,0.579,0.012,1.106c-0.017,0.303-0.048,0.612-0.096,0.93c-0.326,2.053-0.741,4.433-1.241,7.14
		c-0.267,1.383-0.479,2.35-0.639,2.9c1.896-2.877,2.95-5.672,3.163-8.384c0.136-2.743,0.138-4.615,0.005-5.614
		c-0.938-4.836-1.432-7.817-1.483-8.945C491.624,779.045,491.679,777.42,491.697,775.5z"/>
	<path fill="#DFDFDF" fill-opacity="0.898" d="M468.231,714.038c-0.422-1.062-0.856-1.802-1.302-2.224
		c-0.165-0.18-0.339-0.351-0.525-0.514c-1.417-0.709-2.66-1.524-3.729-2.445c-1.265-1.013-2.743-2.312-4.438-3.898l-12.047-6.373
		l1.497,0.986c3.961,2.79,7.632,6.853,11.014,12.192c4.596,2.351,7.847,3.987,9.753,4.907
		C468.335,715.705,468.26,714.827,468.231,714.038z"/>
	<path fill="#DFDFDF" fill-opacity="0.898" d="M473.03,723.733l-0.121-0.202l-0.077-0.283l-0.147-0.249l-0.218-0.216l-0.288-0.183
		l-0.358-0.15l-0.43-0.116l-0.499-0.083l-0.57-0.049l-0.64-0.016l-0.255,0c-0.692,0.013-1.487,0.073-2.385,0.183L473.03,723.733z"/>
	<path fill="#DFDFDF" fill-opacity="0.898" d="M478.45,741.18l0.535,1.07l0.278,0.414c0.001,0.105,0.557,0.619,1.666,1.541
		c0.366,0.282,0.796,0.588,1.258,0.904c0.82,0.564,1.775,1.175,2.898,1.848l-0.105-0.896c-0.599-1.177-1.058-2.311-1.379-3.396
		c-0.123-0.286-0.284-1.075-0.487-2.366c-0.056-0.508-0.077-1.005-0.064-1.49l-1.663-3.844l-0.183-3.61l-0.787-3.452
		c-0.047-2.473-0.196-3.93-0.45-4.372c-0.766-1.379-1.767-2.425-3.002-3.139c-1.766-0.551-4.604-1.791-8.51-3.719l0.097,0.638
		c0.272,1.326,0.508,2.12,0.71,2.382c0.076,0.234,0.517,0.771,1.322,1.609c0.629,0.564,1.556,1.16,2.78,1.787
		c1.662,0.797,2.749,1.285,3.261,1.464l-3.594-0.818c0.273,0.467,0.521,0.968,0.744,1.504c0.144,0.226,0.423,1.104,0.84,2.637
		c0.298,1.273,0.499,2.682,0.6,4.227l1.678,3.187c0.063,0.317,0.125,0.622,0.187,0.917c0.415,1.98,0.803,3.467,1.166,4.459
		L478.45,741.18z"/>
	<path fill="#DFDFDF" fill-opacity="0.898" d="M757.422,918.814c1.046-2.475,2.286-5.025,3.724-7.648
		c0.96-1.756,2.009-3.547,3.145-5.372c2.992-4.618,4.891-7.429,5.7-8.435c0.279-0.475,0.531-1.039,0.759-1.683
		c0.393-1.092,0.811-2.923,1.255-5.489c0.445-2.477,0.676-4.359,0.688-5.655c-0.231-4.853-0.688-9.484-1.368-13.893l-7.463,22.353
		c-0.397,1.542-2.243,5.512-5.539,11.907c-0.44,1.194-1.269,4.363-2.484,9.505l-2.099,4.739l0.084,0.026l-0.088-0.016l-0.877,1.983
		c0.394-0.218,0.779-0.428,1.133-0.615C755.301,919.824,756.443,919.255,757.422,918.814z"/>
	<path fill="#DFDFDF" fill-opacity="0.898" d="M767.241,787.658c0.924,5.333,1.927,12.288,3.011,20.861l2.033,8.505
		c0.342,6.031,0.802,9.625,1.378,10.778c0.141,1.186,0.174,3.091,0.099,5.712c-0.917,8.358-1.339,14.622-1.266,18.788
		c-0.899,4.15-1.497,7.421-1.786,9.809c-0.035,2.363-0.014,4.091,0.064,5.188l0.554,3.328l1.871-5.606l0.688-5.534l0.563-5.264
		c0.33-3.422,0.577-6.666,0.74-9.729c0.161-3.063,0.238-5.951,0.232-8.658c-0.007-2.708-0.098-5.236-0.273-7.587l-0.328-3.392
		c-0.131-0.018-0.576-3.343-1.338-9.979l-0.956-10.744c-0.653-8.253-1.344-18.688-2.065-31.304l-0.96-5.59
		c-0.776-4.654-2.492-11.228-5.157-19.72c-1.95-4.352-3.837-8.32-5.66-11.906c-3.647-7.171-7.041-12.809-10.184-16.915
		c-3.815-4.461-6.03-6.677-6.647-6.65l15.722,38.559L767.241,787.658z"/>
	<path fill="#DFDFDF" fill-opacity="0.898" d="M729.637,688.862l-1.945-4.191l-2.604-5.312c-0.435-1.112-1.09-3.702-1.96-7.772
		c-0.108-0.255-0.36-0.384-0.76-0.384l-0.157,0.006c-0.445,0.034-1.041,0.199-1.786,0.497l10.633,27.655l4.376,11.382
		c2.242-0.584,4.381-0.151,6.418,1.301l-2.668-6.542l-4.975-6.854l-1.896-2.612C732.277,695.356,731.388,692.965,729.637,688.862z"
		/>
	<path fill="#DFDFDF" fill-opacity="0.898" d="M800.433,968.952c-0.21-0.175-0.423-0.348-0.639-0.515
		c-2.771-1.853-5.414-3.684-7.923-5.487l0.471,0.754c0.52,0.84,1.075,1.651,1.673,2.433c0.144,0.176,0.262,0.295,0.345,0.354
		c0.096,0.047,0.141,0.059,0.137,0.034c0.181,0.233,0.448,0.496,0.792,0.787c1.01,0.781,1.713,1.285,2.11,1.514
		c1.182,0.762,2.689,1.643,4.523,2.643c1.035,0.748,2.129,1.564,3.28,2.448l-2.947-3.269
		C801.672,970.043,801.064,969.479,800.433,968.952z"/>
	<path fill="#DFDFDF" fill-opacity="0.898" d="M780.878,949.609c-2.933-2.425-6.584-5.195-10.955-8.309
		c-2.21-1.516-4.111-2.648-5.698-3.402c-0.729-0.538-1.495-1.306-2.296-2.3l1.126,6.966c0.975-2.72,2.847-3.361,5.62-1.924
		l7.119,6.208c3.087,3.579,7.362,8.086,12.827,13.521c0.567,0.553,1.65,1.411,3.243,2.574c-0.624-0.99-1.689-2.771-3.194-5.338
		L780.878,949.609z"/>
	<path fill="#DFDFDF" fill-opacity="0.898" d="M809.181,977.685c-0.382-0.464-0.609-0.721-0.68-0.77
		c-0.035-0.093-0.114-0.214-0.243-0.365c-0.255-0.299-0.694-0.711-1.316-1.238c-0.859-0.709-1.434-1.167-1.722-1.376l5.421,6.047
		c-0.338-0.623-0.667-1.171-0.987-1.645C809.492,978.103,809.336,977.883,809.181,977.685z"/>
	<path fill="#DFDFDF" fill-opacity="0.898" d="M819.73,1009.873c0.004-1.378-0.092-2.875-0.28-4.491l-0.163-1.232
		c-0.198-0.721-0.755-2.602-1.671-5.642c-1.085-3.551-2.117-6.679-3.096-9.386l2.858,14.936c0.156,1.675,0.238,3.246,0.246,4.714
		c0.007,0.733-0.008,1.442-0.041,2.123l-0.063,1.005c-0.051,0.656-0.121,1.285-0.207,1.889c0.004,0.284,0.02,0.493,0.041,0.631
		c0.767-0.813,1.527-1.627,2.282-2.448l0.012-0.117C819.701,1011.224,819.728,1010.562,819.73,1009.873z"/>
	<path fill="#DFDFDF" fill-opacity="0.898" d="M814.006,986.436l-0.235-1.225c-0.119-0.361-0.25-0.713-0.393-1.056
		c-0.142-0.342-0.296-0.675-0.463-1c-0.164-0.324-0.342-0.641-0.53-0.946l-0.289-0.452c-0.2-0.295-0.413-0.583-0.635-0.86
		l-0.809-0.896l0.395,0.748c0.782,1.537,1.618,3.455,2.506,5.751c0.312,0.813,0.633,1.673,0.96,2.582L814.006,986.436z"/>
	<path fill="#DFDFDF" fill-opacity="0.898" d="M748.618,934.237c-0.12-0.01-0.238-0.018-0.358-0.023
		c-0.3-0.01-0.482-0.017-0.545-0.013l-0.205,0.003c-0.55,0.007-1.118,0.056-1.703,0.145c-1.132,0.273-2.544,0.603-4.233,0.984
		l7.739-1.014C749.085,934.284,748.853,934.259,748.618,934.237z"/>
	<path fill="#DFDFDF" fill-opacity="0.898" d="M741.557,935.335l-1.403,0.183c-0.913-0.028-2.333,0.09-4.264,0.352
		c-4.255,0.804-8.043,1.468-11.393,1.995c-0.352,0.161-0.7,0.321-1.046,0.483C729.812,937.678,735.858,936.688,741.557,935.335z"/>
	<path fill="#DFDFDF" fill-opacity="0.898" d="M673.112,945.302l-3.732,0.79c-5.86,1.851-11.088,3.335-15.676,4.446
		c-9.532,2.279-15.971,3.653-19.311,4.123l-33.425,3.527c-1.381,0.148-5.191,0.343-11.428,0.589c-1.677,0.139-3.031,0.306-4.066,0.5
		c-0.33,0.059-0.315,0.09,0.043,0.094l18.555-0.303c10.205-0.662,17.126-1.273,20.763-1.833c3.658-0.487,9.831-1.838,18.514-4.048
		l18.798-3.343l20.327-6.111c2.27-0.521,5.53-1.223,9.771-2.104c1.357-0.283,2.81-0.582,4.368-0.9
		c2.431-0.444,4.442-0.754,6.034-0.922c1.488,0.314,3.061,0.691,4.713,1.125c1.469,0.182,2.765,0.204,3.891,0.068l9.1-2.176
		c0.019-0.029,0.026-0.055,0.044-0.084c0.078-0.104,0.161-0.198,0.24-0.295c-1.372,0.191-2.649,0.354-3.83,0.488
		c-0.921,0.136-4.997,0.36-12.235,0.673l-1.924,0.202c-2.298-0.427-4.576-0.462-6.835-0.105l-3.832,1.078l-10.627,2.995
		L673.112,945.302z"/>
	<path fill="#DFDFDF" fill-opacity="0.898" d="M742.548,912.918c-1.613-1.087-3.469-2.306-5.577-3.667
		c-2.602-2.063-5.482-4.482-8.639-7.261l-4.944-4.432c-3.906-5.24-6.974-8.75-9.199-10.529c-1.588-1.567-6.34-4.021-14.255-7.36
		l0.605,0.38c3.363,2.147,5.357,3.623,5.984,4.43l6.349,7.481c1.427,1.613,2.481,2.678,3.167,3.188l17.35,13.168
		c4.531,3.308,7.579,5.346,9.145,6.116c0.218,0.146,0.464,0.337,0.725,0.556c-0.016-0.099-0.033-0.197-0.057-0.279
		C742.964,913.978,742.747,913.388,742.548,912.918z"/>
	<path fill="#DFDFDF" fill-opacity="0.898" d="M694.602,876.603c1.901,1.261,3.133,2.049,3.692,2.364l0.224,0.118l0.117,0.039
		l1.285,0.539c-2.279-1.406-4.389-2.648-6.325-3.731L694.602,876.603z"/>
	<path fill="#DFDFDF" fill-opacity="0.898" d="M749.23,917.77c-0.369-0.314-0.818-0.679-1.353-1.086
		c0.121,0.301,0.211,0.559,0.252,0.753L749.23,917.77z"/>
	<polygon fill="#DFDFDF" fill-opacity="0.898" points="753.738,919.145 749.234,917.774 749.507,917.949 749.839,918.12 
		750.23,918.285 750.681,918.444 751.189,918.6 751.76,918.751 752.388,918.896 753.074,919.035 753.734,919.155 753.822,919.17 	
		"/>
	<path fill="#DFDFDF" fill-opacity="0.898" d="M810.469,900.872c-0.116,0-0.217-0.012-0.317-0.026l-18.086,11.506l9.565-3.155
		c5.438-2.523,8.367-3.99,8.791-4.403l0.042-0.105c0.591-0.413,1.258-1.01,1.995-1.792c0.66-0.979,1.364-1.932,2.11-2.862
		c0.048-0.064,0.12-0.148,0.176-0.219l-3.656,0.957C810.864,900.831,810.658,900.864,810.469,900.872z"/>
	<path fill="#DFDFDF" fill-opacity="0.898" d="M821.407,890.369l-1.553,1.464l0.434,0.098
		C820.685,891.327,821.059,890.802,821.407,890.369z"/>
	<path fill="#DFDFDF" fill-opacity="0.898" d="M811.644,899.585c0.219,0.074,0.457,0.135,0.733,0.172
		c0.871,0.092,1.662,0.11,2.371,0.055c0.563-0.715,1.487-1.75,2.814-3.144c0.625-1.196,1.208-2.247,1.754-3.173
		c-0.225-0.174-0.467-0.331-0.726-0.467L811.644,899.585z"/>
	<path fill="#DFDFDF" fill-opacity="0.898" d="M785.059,915.154c-1.274,0.692-2.347,1.353-3.221,1.978
		c0.37-0.08,0.725-0.169,1.063-0.27c0.152-0.052,0.199-0.086,0.141-0.102c3.08-1.274,5.19-2.192,6.33-2.75
		c0.381-0.187,0.653-0.333,0.818-0.441l0.167-0.131l1.708-1.086l-2.201,0.726C787.725,913.883,786.123,914.573,785.059,915.154z"/>
	<path fill="#DFDFDF" fill-opacity="0.898" d="M779.953,918.785l0.514-0.534c0.383-0.361,0.837-0.732,1.361-1.116l-0.543,0.12
		c-1.583,0.336-4.22,0.845-7.911,1.523c-0.556,0.14-1.166,0.337-1.826,0.591c-0.466,0.158-1.372,0.561-2.715,1.211l10.428,1.057
		c-0.302-0.568-0.3-1.178,0.005-1.834C779.419,919.473,779.647,919.136,779.953,918.785z"/>
	<path fill="#DFDFDF" fill-opacity="0.898" d="M769.9,912.229l-0.159,0.464c-0.071,0.307-0.068,0.613,0.006,0.91l-1.269,3.312
		c4.751-2.53,7.936-4.473,9.561-5.828l6.107-5.627c3.956-3.107,6.291-4.986,7.012-5.64c1.676-1.537,2.621-2.424,2.832-2.658
		c0.786-0.783,1.112-1.19,0.984-1.219l-0.025,0.004c-4.78,3.071-9.752,6.015-14.919,8.826c-1.281,0.766-4.085,2.611-8.408,5.54
		C770.759,910.966,770.186,911.606,769.9,912.229z"/>
	<path fill="#DFDFDF" fill-opacity="0.898" d="M743.246,916.676c-0.152,0.678-0.36,1.228-0.626,1.649l5.073,1.268
		c0.358-1.129,0.515-1.75,0.466-1.857c0.007-0.078-0.004-0.18-0.029-0.299c-0.041-0.194-0.131-0.452-0.252-0.753
		c-0.101-0.25-0.22-0.524-0.376-0.849l-3.526-5.589c-0.336-0.579-1.139-2.323-2.402-5.232c-0.12-0.25-0.395-0.74-0.821-1.466
		c-1.143-1.813-2.144-2.715-2.999-2.711l-0.214,0.031c-0.128,0.043-0.224,0.127-0.287,0.254c-0.063,0.129-0.094,0.297-0.092,0.509
		l0.028,0.351c0.046,0.458,0.266,1.186,0.658,2.183c0.803,2.01,2.274,4.729,4.421,8.157c0.088,0.164,0.182,0.372,0.28,0.597
		c0.199,0.47,0.416,1.06,0.653,1.793c0.023,0.082,0.041,0.18,0.057,0.279C743.329,915.41,743.326,915.968,743.246,916.676z"/>
	<path fill="#DFDFDF" fill-opacity="0.898" d="M720.351,938.824c-0.206,0.362-0.223,0.684-0.029,0.957
		c0.04,0.014,0.245-0.049,0.616-0.184c0.81-0.425,1.651-0.84,2.514-1.25c0.346-0.162,0.694-0.322,1.046-0.483
		c0.824-0.374,1.666-0.744,2.536-1.104c0.743-0.311,1.994-0.773,3.757-1.387c1.837-0.689,6.458-2.002,13.865-3.943
		c1.87-0.573,3.166-1.043,3.884-1.408l-7.47-1.693c-0.266-0.098-0.534-0.176-0.807-0.231c-0.479-0.083-0.826-0.116-1.038-0.103
		l-0.459,0.02c-0.928,0.078-1.89,0.393-2.885,0.942c-0.333,0.185-0.668,0.395-1.009,0.629l-12.597,7.325
		c-0.591,0.4-1.136,0.916-1.641,1.532c-0.079,0.098-0.162,0.191-0.24,0.295C720.377,938.769,720.369,938.794,720.351,938.824z"/>
	<path fill="#DFDFDF" fill-opacity="0.898" d="M751.992,939.288l-0.006,0.022c-0.021,0.078-0.066,0.341-0.137,0.789l0.084-0.042
		h0.006c-0.009,0.094-0.022,0.217-0.039,0.366l0.09-0.392h-0.006l-0.045,0.022c0.021-0.22,0.039-0.421,0.055-0.604
		c0.004-0.068,0.006-0.117,0.006-0.143c0-0.009,0-0.015-0.002-0.019H751.992z"/>
	<path fill="#DFDFDF" fill-opacity="0.898" d="M751.016,944.099c-0.101,0.431-0.362,1.393-0.787,2.888
		c-0.289,0.99-0.635,2.02-1.038,3.089c-0.954,2.594-2.369,5.913-4.241,9.96l-0.145,0.547c-0.064,0.296-0.085,0.438-0.06,0.425
		c0.044,0.168,0.123,0.258,0.239,0.272c0.155,0.092,0.462-0.101,0.922-0.578c0.232-0.258,0.437-0.565,0.611-0.923
		c0.028-0.007,0.318-0.766,0.868-2.281c1.065-2.944,2.035-6.089,2.911-9.437c0.881-3.283,1.411-5.812,1.592-7.583l-0.302,1.287
		L751.016,944.099z"/>
	<path fill="#DFDFDF" fill-opacity="0.898" d="M765.998,931.527c1.523,1.04,3.309,2.411,5.358,4.111
		c2.049,1.699,4.363,3.731,6.94,6.092l0.664,0.519c1.178,0.808,2.294,1.465,3.353,1.977c0.665,0.351,1.435,0.63,2.311,0.837
		c0.998,0.261,1.851,0.345,2.563,0.255c0.111,0.001,0.256-0.047,0.435-0.145c0.1-0.094,0.071-0.224-0.08-0.389
		c-1.193-0.885-3.211-2.009-6.055-3.372c-0.374-0.232-0.945-0.632-1.715-1.194c-0.421-0.346-0.914-0.782-1.484-1.308
		c-2.134-2.167-3.467-3.494-3.998-3.983c-0.813-0.785-1.508-1.405-2.084-1.862c-0.746-0.489-0.979-0.189-0.697,0.9l-5.42-2.591
		c-0.061,0.031-0.117,0.064-0.177,0.094L765.998,931.527z"/>
	<path fill="#DFDFDF" fill-opacity="0.898" d="M489.584,852.65c-3.451-2.613-5.363-4.009-5.738-4.185l-6.028-2.68l0.107,0.113
		c0.295,0.325,0.645,0.854,1.048,1.584l1.271,3.33c0.99,1.854,1.92,3.726,2.787,5.608c0.635,1.292,1.674,3.784,3.12,7.472
		c0.245,0.462,0.643,0.984,1.192,1.566c0.55,0.581,1.251,1.222,2.105,1.922l0.769-15.807
		C490.165,852.412,489.953,852.77,489.584,852.65z"/>
	<path fill="#DFDFDF" fill-opacity="0.898" d="M476.709,844.755c-0.301-0.241-0.617-0.467-0.946-0.677
		c-0.518-0.247-1.009-0.481-1.474-0.707c-0.362-0.174-0.902-0.44-1.619-0.796l0.138,0.131c0.37,0.344,0.755,0.676,1.156,0.987
		l-0.014,0.066l0.096,0.107c0.102,0.085,0.276,0.198,0.525,0.339c0.248,0.141,0.57,0.309,0.965,0.504
		c0.106,0.065,0.866,0.421,2.278,1.071l-0.452-0.453C477.298,845.257,477.079,845.067,476.709,844.755z"/>
	<path fill="#DFDFDF" fill-opacity="0.898" d="M448.31,820.602c0.094,0.086,0.214,0.186,0.363,0.293l0.245,0.173
		c0.177,0.121,0.383,0.252,0.618,0.395c0.233,0.141,0.495,0.296,0.785,0.46c-0.632-0.486-1.062-0.807-1.292-0.959
		c-0.322-0.223-0.625-0.419-0.914-0.592l0.076,0.106L448.31,820.602z"/>
	<path fill="#DFDFDF" fill-opacity="0.898" d="M461.862,829.26c-0.527-0.63-0.956-1.114-1.289-1.451
		c-0.679-0.72-1.777-1.505-3.293-2.354c-2.574-1.218-4.89-2.392-6.951-3.525l1.382,1.131c3.778,3.194,9.419,8.934,16.921,17.222
		c0.812,0.57,1.863,1.18,3.132,1.834c0.293,0.149,0.585,0.3,0.902,0.455c-0.217-0.202-0.462-0.455-0.729-0.744
		c-0.194-0.215-0.399-0.448-0.621-0.71L461.862,829.26z"/>
	<path fill="#DFDFDF" fill-opacity="0.898" d="M490.55,944.18l-2.442,6.63c0.119,0.289,0.237,0.42,0.354,0.393l0.203-0.076
		l0.231-0.228l0.262-0.381c0.55-0.913,1.273-2.737,2.17-5.474l0.314-1.239c0.201-0.837,0.385-1.694,0.552-2.574
		c0.167-0.879,0.314-1.778,0.446-2.699c0.021-0.141,0.033-0.292,0.053-0.433c0.106-0.788,0.208-1.58,0.288-2.394l0.133-1.463
		c0.117-1.548,0.173-2.439,0.17-2.672l-0.014,0.086c-0.042,0.447-0.379,2.021-1.016,4.725c-0.043,0.276-0.084,0.53-0.125,0.787
		c-0.415,2.589-0.746,4.299-0.992,5.107C491.021,942.735,490.825,943.369,490.55,944.18z"/>
	<path fill="#DFDFDF" fill-opacity="0.898" d="M493.428,884.677c-0.002-0.182-0.012-0.34-0.027-0.477l-0.03-0.188
		c-0.024-0.113-0.055-0.203-0.092-0.272c-0.121-0.249-0.35-0.2-0.689,0.147l-0.042-0.634h-0.004l-0.065,0.758l0.111-0.122
		c0.057,0.779,0.117,1.49,0.182,2.136c0.008,0.182,0.012,0.311,0.012,0.389l0.013,1.069c-0.002,0.325-0.034,0.918-0.095,1.783
		c-0.061,0.866-0.149,2.003-0.268,3.408c-0.008,0.088-0.019,0.338-0.036,0.748c-0.019,0.485-0.027,0.945-0.027,1.382
		c0.005,1.256,0.011,2.223,0.017,2.896l0.426-4.962c0.246-2.901,0.42-4.99,0.518-6.266l0.062-0.807l0.033-0.501l0.006-0.195h-0.005
		L493.428,884.677z"/>
	<path fill="#DFDFDF" fill-opacity="0.898" d="M492.505,882.525l0.041,0.703l0.425-4.984h-0.004
		c-0.053,0.151-0.102,0.315-0.148,0.491c-0.046,0.177-0.088,0.368-0.126,0.572l-0.054,0.315l-0.048,0.335l-0.044,0.354l-0.036,0.375
		l-0.033,0.394c-0.002,0.122-0.004,0.241-0.004,0.362c0,0.243,0.004,0.481,0.013,0.723
		C492.49,882.287,492.496,882.407,492.505,882.525z"/>
	<path fill="#DFDFDF" fill-opacity="0.898" d="M493.646,929.009c0.021-0.212,0.04-0.415,0.055-0.611l0.039-0.695l0.026-0.7
		l0.014-0.707l-0.002-0.715l-0.016-0.721l-0.027-0.726l-0.043-0.733l-0.055-0.741l-0.07-0.747c-0.007-0.165-0.013-0.278-0.02-0.338
		c-0.021-0.252-0.037-0.417-0.046-0.492c-0.038-0.339-0.063-0.552-0.075-0.647h-0.004l-0.023,1.129c0.001,2.028,0,3.623-0.003,4.792
		c-0.002,0.582-0.005,1.058-0.007,1.427l-0.004,0.472l-0.006,0.309l-0.006,0.149c-0.011,0.508-0.021,0.979-0.033,1.408
		c-0.009,0.344-0.024,0.818-0.051,1.42c0.028-0.145,0.09-0.532,0.185-1.159C493.545,929.891,493.603,929.434,493.646,929.009z"/>
	<path fill="#DFDFDF" fill-opacity="0.898" d="M491.859,908.629c0.009,0.219,0.019,0.434,0.029,0.65
		c0.058,0.96,0.12,1.689,0.188,2.184c0.78,4.902,1.23,7.883,1.347,8.948l0.054-2.615c0.002-0.139-0.004-0.318-0.016-0.541
		c-0.08-1.163-0.207-2.462-0.381-3.897l-0.14-3.216c-0.243-2.762-0.374-4.404-0.395-4.923c-0.004-0.079-0.006-0.147-0.011-0.224
		c-0.049-1.053-0.08-1.926-0.09-2.605c-0.009-0.476-0.019-1.008-0.026-1.601c-0.021-1.58-0.031-2.596-0.033-3.052h-0.004
		l-0.069,0.814l-0.265,3.05c-0.092,1.582-0.139,2.494-0.144,2.74c-0.002,0.059-0.003,0.11-0.005,0.17
		c-0.041,1.057-0.063,2.017-0.061,2.864C491.84,907.823,491.848,908.239,491.859,908.629z"/>
	<path fill="#DFDFDF" fill-opacity="0.898" d="M442.017,897.456c-1.251,0.852-1.817,1.419-1.698,1.699
		c0.012,0.452,0.532,0.535,1.562,0.247c0.261-0.051,0.887-0.274,1.879-0.667c2.705-1.525,5.523-3.062,8.442-4.608
		c4.055-2.146,8.309-4.309,12.776-6.493c7.412-4.631,11.729-7.108,12.953-7.427c4.055-2.693,6.21-4.074,6.465-4.14
		c0.344-0.214,1.51-0.633,3.5-1.261l0.426,0.115l1.821-0.773l-0.272,0.076l-1.973,0.582c-1.355-0.28-2.735-0.196-4.142,0.254
		c-2.256,0.742-4.992,1.958-8.213,3.647l-26.75,14.959L442.017,897.456z"/>
	<path fill="#DFDFDF" fill-opacity="0.898" d="M547.701,834.655c-0.072-0.176-0.379-0.274-0.921-0.297l-0.305,0.011
		c-1.363,0.159-2.832,0.55-4.4,1.175c-2.014,0.98-4.766,2.582-8.236,4.788c-0.14,0.09-0.273,0.172-0.416,0.264
		c-1.763,1.345-2.899,2.269-3.41,2.771c-1.714,1.525-3.69,3.439-5.933,5.746l-11.703,7.383l-2.028,1.582
		c-0.529,0.422-1.694,1.479-3.496,3.171l-2.077,3.393c0.525-0.756,1.16-1.415,1.905-1.975l5.103-3.606
		c7.681-6.029,13.593-10.545,17.733-13.548c0.805-0.62,1.715-1.247,2.714-1.881c2.624-1.662,5.916-3.373,9.893-5.135
		L547.701,834.655z"/>
	<path fill="#DFDFDF" fill-opacity="0.898" d="M516.073,824.542l0.19-0.358l0.086-0.217l-0.02-0.075h-0.003
		c-0.308,0.129-0.88,0.883-1.714,2.261l-0.33,0.548c-0.353,0.73-0.85,1.718-1.493,2.963c1.806-2.725,2.803-4.265,2.991-4.624
		L516.073,824.542z"/>
	<path fill="#DFDFDF" fill-opacity="0.898" d="M497.247,854.526c2.405-3.089,4.006-5.268,4.801-6.54
		c4.266-6.687,7.841-12.787,10.726-18.295l-0.229,0.34c-2.151,3.23-3.76,5.543-4.824,6.941c-2.347,3.196-5.722,7.631-10.126,13.299
		c-0.742,1.023-1.298,1.862-1.662,2.516c-0.473,0.794-0.966,1.689-1.481,2.686l1.128,1.901
		C495.933,856.624,496.489,855.675,497.247,854.526z"/>
	<path fill="#DFDFDF" fill-opacity="0.898" d="M631.831,1081.905c-0.403-0.094-0.893-0.167-1.468-0.222l-0.929-0.068
		c-0.663-0.037-1.411-0.057-2.246-0.057h-0.214l-1.848,0.033c-0.639,0.079-1.286,0.215-1.948,0.409
		c-0.109,0.025-0.442,0.137-1,0.336l-6.409,2.685c-0.787,0.265-1.836,0.466-3.144,0.603l-0.504,0.05l-0.464-1.896l-1.781,1.267
		c-0.232,0.152-0.438,0.278-0.617,0.373c-0.253,0.13-0.43,0.206-0.537,0.227c-0.121,0.033-0.228,0.03-0.313-0.008l-0.094-0.101
		c-0.025-0.059-0.035-0.125-0.033-0.197c-0.002-0.118,0.053-0.239,0.164-0.365c0.149-0.14,0.337-0.242,0.561-0.307
		c0.118-0.037,0.249-0.068,0.396-0.098l0.227-0.037c0.161-0.023,0.334-0.044,0.523-0.057l1.483-0.791l-0.429-1.745
		c-0.248-0.034-0.811-0.022-1.682,0.037c-0.714,0.071-1.427,0.214-2.132,0.43c-0.837,0.235-2.108,0.807-3.817,1.715
		c-1.185,0.569-2.281,1.301-3.293,2.196c-0.386,0.4-0.533,0.867-0.442,1.401c2.135,3.021,3.264,4.507,3.39,4.462
		c0.724,0.729,1.484,1.096,2.287,1.096c0.96-0.025,1.471-0.049,1.527-0.068c4.123-0.555,6.258-0.857,6.409-0.91l2.017-0.485
		c2.893-0.896,4.491-1.376,4.796-1.438l6.018-1.2c0.4-0.09,0.76-0.219,1.077-0.388c0.28-0.127,0.593-0.375,0.933-0.749
		c0.512-1.212,1.076-2.153,1.703-2.825c0.166-0.213,1.113-0.835,2.84-1.867c0.253-0.225,0.38-0.427,0.382-0.603
		C633.098,1082.346,632.635,1082.066,631.831,1081.905z"/>
	<path fill="#DFDFDF" fill-opacity="0.898" d="M730.458,585.942l0.426,0.496c0.317,0.324,0.706,0.637,1.159,0.938
		c0.937,0.54,1.705,0.89,2.304,1.046c0.634,0.16,1.263,0.282,1.89,0.37c0.396,0.072,1.539,0.202,3.428,0.39
		c0.454,0.106,0.957,0.252,1.51,0.439l0.694,0.327l0.442,0.238l-0.038-0.003c0.21,0.019,0.432,0.033,0.666,0.045l-1.657-1.388
		c-0.421-0.215-0.794-0.369-1.116-0.467c-0.738-0.233-1.295-0.389-1.666-0.469c-0.754-0.109-1.647-0.185-2.682-0.228
		c-0.073-0.004-0.282-0.041-0.624-0.109c-0.688-0.156-1.313-0.39-1.882-0.701c-0.462-0.26-0.91-0.6-1.342-1.016
		c-0.112-0.08-0.428-0.436-0.944-1.069c-0.415-0.56-0.706-1.327-0.871-2.299l-0.031,0.037l-0.061,0.075l-0.191,0.603l-0.089,0.584
		c-0.025,0.385,0.02,0.756,0.131,1.117C730.027,585.258,730.207,585.606,730.458,585.942z"/>
	<path fill="#DFDFDF" fill-opacity="0.898" d="M731.331,581.494c0.296-0.175,0.614-0.32,0.957-0.437
		c0.343-0.117,0.709-0.203,1.098-0.261l1.617-0.149c0.3-0.003,0.618,0.034,0.964,0.111c2.007,0.487,4.374,1.22,7.1,2.203
		c3.158,1.677,5.244,2.719,6.251,3.126c0.564,0.359,0.811,0.709,0.739,1.05c-0.527,0.922-1.241,1.639-2.142,2.149
		c-0.451,0.256-0.947,0.461-1.492,0.614l-0.852,0.192l-0.921,0.115c-0.753,0.044-1.321,0.051-1.712,0.021l0.065,0.054l-0.687-0.093
		c0.691,0.389,1.355,0.784,1.994,1.188l-1.307-1.094c0.855,0.116,2.271,0.356,4.246,0.726c0.489,0.051,1.079,0.047,1.764-0.015
		c0.391-0.018,1.011-0.147,1.855-0.39l0.993-0.375c0.626-0.283,1.182-0.629,1.666-1.039c0.967-0.821,1.65-1.896,2.049-3.229
		c0.638-2.266,0.861-3.783,0.67-4.548l-0.298-0.882c-0.311-0.411-0.563-0.699-0.759-0.864l-2.974-2.62
		c-0.571-0.475-1.218-0.913-1.938-1.314c-0.719-0.403-1.512-0.769-2.376-1.098l-1.354-0.468c-2.22-0.665-4.053-1.031-5.495-1.099
		l-1.037,0.04c-2.729,0.212-5.174,1.276-7.332,3.189c-0.751,0.773-1.479,1.964-2.183,3.576c-0.324,0.905-0.438,1.773-0.342,2.602
		C730.764,581.872,731.155,581.545,731.331,581.494z"/>
	<path fill="#DFDFDF" fill-opacity="0.898" d="M741.449,590.092c0.276,0.036,0.546,0.066,0.811,0.09
		c-0.392-0.05-0.697-0.085-0.914-0.104L741.449,590.092z"/>
	<polygon fill="#DFDFDF" fill-opacity="0.898" points="690.283,788.006 690.619,788.11 688.852,786.538 688.845,786.538 
		688.904,786.784 688.995,787.01 689.124,787.221 689.285,787.414 689.483,787.587 689.715,787.746 689.983,787.884 	"/>
	<path fill="#DFDFDF" fill-opacity="0.898" d="M695.004,790.638c0.497-0.616,0.526-1.371,0.086-2.265l-0.035,0.041
		c-0.099,0.112-0.204,0.228-0.316,0.348c-0.122,0.111-0.297,0.257-0.52,0.44c-0.396,0.34-1.803,1.419-4.223,3.237
		c-0.023,0.022-0.041,0.068-0.054,0.137c0.015,0.12,0.213,0.142,0.592,0.067c0.701-0.155,1.316-0.341,1.847-0.558l0.547-0.219
		c0.347-0.145,0.654-0.286,0.923-0.426C694.391,791.163,694.775,790.895,695.004,790.638z"/>
	<path fill="#DFDFDF" fill-opacity="0.898" d="M688.807,786.279v-0.119l0.013-0.13c0.012-0.092,0.029-0.191,0.058-0.299l0.045-0.165
		c0.032-0.116,0.076-0.239,0.125-0.37h-0.005l-0.96,0.658l0.762,0.679c0-0.021-0.008-0.07-0.028-0.147L688.807,786.279z"/>
	<path fill="#DFDFDF" fill-opacity="0.898" d="M690.484,784.369c0.448-0.103,0.901-0.036,1.363,0.199
		c1.062,0.605,2.144,1.872,3.246,3.799c0.466-0.508,0.763-0.986,0.889-1.433c0.156-0.705,0.225-1.148,0.205-1.331
		c0.016-0.088-0.004-0.271-0.055-0.548l-0.158-0.466c-0.13-0.314-0.319-0.603-0.567-0.862l-0.13-0.128
		c-0.229-0.169-0.448-0.318-0.659-0.45c-0.425-0.262-0.818-0.449-1.18-0.562c-0.182-0.056-0.354-0.094-0.52-0.112l-0.242-0.013
		h-0.032c-0.708-0.005-1.388,0.243-2.04,0.743c-0.782,0.653-1.301,1.315-1.556,1.986l0.928-0.638
		C690.078,784.493,690.246,784.433,690.484,784.369z"/>
	<path fill="#DFDFDF" fill-opacity="0.898" d="M838.23,724.423c-0.265,0.432-0.398,0.783-0.406,1.053
		c-0.015,0.199,0.061,0.437,0.229,0.711c0.237,0.271,0.457,0.448,0.657,0.531c0.892,0.375,1.459,0.544,1.703,0.508
		c0.226-0.007,0.321-0.098,0.29-0.272c-0.454-0.782-0.68-1.335-0.68-1.657c0.019-0.625,0.13-1.217,0.333-1.775
		c0.478-0.949,0.885-1.597,1.221-1.944c0.646-0.581,1.174-0.927,1.581-1.038c0.521-0.193,1.008-0.264,1.464-0.215
		c0.556,0.05,1.101,0.252,1.635,0.604c0.564,0.372,1.087,0.877,1.565,1.519c0.09,0.09,0.291,0.425,0.599,1.004
		c0.116,0.237,0.22,0.487,0.313,0.748l-0.774-5.99c-0.226-0.245-0.466-0.436-0.721-0.572c-0.324-0.146-0.525-0.218-0.599-0.214
		c-0.137-0.026-0.279-0.041-0.425-0.041l-0.278,0.017c-0.477,0.088-0.771,0.168-0.88,0.237c-0.206,0.084-0.416,0.189-0.631,0.316
		c-0.372,0.218-0.888,0.589-1.549,1.114c-0.838,0.789-1.58,1.57-2.229,2.345l-1.612,1.903
		C838.885,723.479,838.613,723.848,838.23,724.423z"/>
	<path fill="#DFDFDF" fill-opacity="0.898" d="M848.618,672.397c0.355,0.341,0.826,0.921,1.413,1.737
		c0.859,1.267,1.447,2.662,1.764,4.188c0.286,1.238,0.298,2.43,0.033,3.575c-0.136,0.629-0.273,1.09-0.411,1.38
		c-0.238,0.595-0.642,1.418-1.207,2.472c-0.053,0.131-0.064,0.25-0.044,0.355c0.152-0.047,0.544-0.378,1.176-0.994
		c0.244-0.269,0.481-0.57,0.706-0.903c0.451-0.665,0.859-1.458,1.229-2.379c0.725-1.825,1.18-4.041,1.373-6.648
		c-0.048-2.053-0.475-3.678-1.284-4.875c-0.539-0.726-1.139-1.221-1.796-1.486c-0.325-0.155-0.9-0.249-1.729-0.285l-0.193,0.004
		c-0.884,0.057-1.557,0.295-2.021,0.716c-0.401,0.483-0.626,1.129-0.674,1.938c0.073,0.386,0.179,0.637,0.321,0.754
		C847.484,672.179,847.932,672.33,848.618,672.397z"/>
	<path fill="#DFDFDF" fill-opacity="0.898" d="M396.439,669.329c-0.454,0.015-0.986,0.015-1.601-0.005l-0.794-0.047l-0.729-0.078
		l-0.663-0.11l-0.596-0.14l-0.532-0.172l-0.465-0.204l-0.397-0.235l-0.335-0.266l0.039,0.075c0.107,0.199,0.23,0.394,0.363,0.583
		c0.229,0.279,0.459,0.527,0.692,0.746l0.352,0.303l0.355,0.257l0.359,0.209l0.364,0.163l0.368,0.116l0.372,0.07l0.376,0.023
		c0.334,0,0.673-0.055,1.015-0.163c0.343-0.109,0.69-0.272,1.043-0.49c0.406-0.244,0.589-0.42,0.548-0.532l-0.024-0.041
		C396.527,669.368,396.49,669.347,396.439,669.329z"/>
	<path fill="#DFDFDF" fill-opacity="0.898" d="M403.174,651.525c-1.531,0.173-3.141,0.861-4.83,2.069
		c-0.563,0.403-1.135,0.862-1.717,1.379c-0.432,0.314-0.845,0.629-1.235,0.948c-0.393,0.319-0.764,0.64-1.113,0.963
		c-0.352,0.324-0.682,0.651-0.991,0.98c-0.738,0.827-1.157,1.327-1.257,1.499c0.727-0.387,1.431-0.603,2.11-0.649l0.21-0.016
		c0.955,0.103,1.8,0.16,2.537,0.171c0.729,0.011,1.351-0.022,1.862-0.1c0.458-0.051,0.878-0.153,1.26-0.303l0.309-0.138
		c0.206-0.102,0.416-0.224,0.631-0.366c0.213-0.142,0.431-0.304,0.652-0.486l0.334-0.287l2.043-5.708h-0.046L403.174,651.525z"/>
	<path fill="#DFDFDF" fill-opacity="0.898" d="M389.883,666.912l-0.118-0.615l-0.053-0.638l0.019-0.662l0.085-0.684l0.155-0.709
		l0.222-0.732c0.247-0.652,0.387-1.007,0.42-1.067c0.178-0.414,0.387-0.824,0.623-1.23c0.117-0.203,0.242-0.406,0.376-0.608
		l0.203-0.3l0.212-0.301l-0.469,0.271c-0.299,0.187-0.573,0.385-0.824,0.594c-0.25,0.209-0.476,0.43-0.676,0.663l-0.283,0.357
		c-0.175,0.244-0.327,0.499-0.452,0.766l-0.172,0.409l-0.12,0.794l-0.063,0.746l-0.005,0.701l0.054,0.654l0.111,0.606l0.169,0.56
		l0.227,0.513l0.285,0.465c0.285,0.358,0.458,0.56,0.516,0.603l-0.254-0.567L389.883,666.912z"/>
	<path fill="#DFDFDF" fill-opacity="0.898" d="M533.623,572.933c0.437,0.085,0.853,0.127,1.244,0.125
		c0.633-0.048,1.139-0.125,1.518-0.228c0.881-0.237,1.583-0.459,2.107-0.668c0.459-0.071,0.798-0.11,1.021-0.118l0.193,0.004
		l0.402,0.061l0.323,0.086c0.221,0.071,0.452,0.172,0.693,0.302c0.24,0.129,0.491,0.289,0.753,0.477
		c0.26,0.189,0.53,0.406,0.811,0.653l1.4,1.27c-0.467-1.143-1.046-2.149-1.735-3.02l-0.437-0.451
		c-0.302-0.286-0.631-0.542-0.982-0.767c-0.706-0.452-1.511-0.782-2.415-0.99c-1.003-0.205-1.907-0.298-2.714-0.28l-0.618,0.012
		c-1.663,0.065-3.477,0.392-5.436,0.98l1.691,2.043C532.013,572.587,532.739,572.758,533.623,572.933z"/>
	<path fill="#DFDFDF" fill-opacity="0.898" d="M544.41,576.218c0.026,0.661-0.01,1.212-0.104,1.648l-0.052,0.208
		c-0.039,0.134-0.084,0.254-0.135,0.362c-0.713,1.343-1.182,2.306-1.409,2.891c-0.075,0.194-0.123,0.347-0.145,0.458l-0.012,0.134
		c-0.008,0.179,0,0.338,0.023,0.477l0.045,0.194c0.107,0.357,0.363,0.537,0.771,0.537c0.462-0.127,0.843-0.315,1.143-0.565
		l0.235-0.201c0.151-0.14,0.294-0.296,0.427-0.469c0.133-0.173,0.258-0.361,0.373-0.566c0.076-0.124,0.215-0.458,0.417-1.002
		c0.071-0.214,0.128-0.42,0.17-0.622c0.085-0.401,0.113-0.778,0.083-1.129l-0.047-0.374l-0.094-0.384l-0.143-0.391
		c-0.331-0.792-0.953-1.632-1.866-2.521l0.055,0.153C544.282,575.46,544.372,575.848,544.41,576.218z"/>
	<path fill="#DFDFDF" fill-opacity="0.898" d="M534.613,994.597l0.208-0.73l0.157-0.677l0.106-0.62l0.058-0.568l0.008-0.512
		l-0.043-0.459l-0.092-0.403h-0.004l-0.102,0.111c-0.135,0.181-0.26,0.487-0.377,0.924c-0.058,0.22-0.111,0.468-0.165,0.75
		c-0.054,0.281-0.105,0.598-0.153,0.943l-0.022,0.08c-0.06,0.3-0.109,1.24-0.153,2.819l0.318-0.873L534.613,994.597z"/>
	<path fill="#DFDFDF" fill-opacity="0.898" d="M525.42,1005.422c0.299-0.008,0.595,0.023,0.888,0.094
		c1.118,0.497,1.822,0.734,2.111,0.71c0.674,0.037,1.293-0.07,1.854-0.322c1.697-0.766,2.796-1.825,3.294-3.182
		c0.147-0.466,0.211-0.694,0.188-0.683c0.06-0.358,0.116-0.912,0.17-1.658l0.05-0.811l0.061-3.303l-0.193,0.512
		c-0.431,1.027-1.106,2.084-2.027,3.174c-0.815,0.919-1.34,1.46-1.572,1.621c-0.394,0.314-0.817,0.563-1.275,0.743
		c-0.104,0.064-0.466,0.16-1.082,0.288c-0.12,0.026-0.491-0.065-1.112-0.275c-0.75-0.308-1.519-0.878-2.305-1.704l-1.479,5.566
		c0.237-0.172,0.53-0.317,0.876-0.436C524.509,1005.563,525.028,1005.451,525.42,1005.422z"/>
	<path fill="#DFDFDF" fill-opacity="0.898" d="M395.453,796.424l-4.51-0.493c-0.331-0.563-0.554-1.078-0.669-1.549
		c-0.201-0.847-0.033-1.701,0.502-2.561c0.502-0.704,1.433-1.471,2.791-2.298c0.044-0.11-0.006-0.16-0.148-0.149l-0.052,0.002
		l-0.635,0.121c-1.209,0.456-2.395,0.99-3.559,1.602c-1.163,0.611-2.306,1.302-3.425,2.07l-1.662,1.211
		c-1.097,0.846-2.17,1.771-3.224,2.774c-1.051,1.002-2.082,2.083-3.089,3.243c-2.077,2.834-3.146,4.998-3.21,6.487
		c-0.069,0.862,0.164,1.833,0.699,2.913c0.239,0.449,0.823,1.013,1.754,1.691c0.161-1.889,0.601-3.657,1.317-5.305
		c0.783-1.815,1.805-3.236,3.065-4.26c0.866-0.627,1.794-1.143,2.782-1.544c0.383-0.175,1.778-0.556,4.184-1.143
		c0.415-0.142,1.746-0.815,3.994-2.02C392.889,797.001,393.919,796.738,395.453,796.424z"/>
	<path fill="#DFDFDF" fill-opacity="0.898" d="M377.788,812.073l-0.073-0.097c-0.198-0.132-0.43-0.293-0.697-0.485l0.009,0.183
		l0.019,0.164l0.029,0.146l0.039,0.127l0.051,0.108l0.06,0.09l0.07,0.073l0.081,0.053l0.09,0.033l0.129-0.012l0.104-0.021
		l0.078-0.034l0.053-0.043l0.028-0.055l0.002-0.065l-0.022-0.076L377.788,812.073z"/>
	<path fill="#DFDFDF" fill-opacity="0.898" d="M822.786,894.089c-0.249-0.446-0.527-0.826-0.839-1.145l-0.489-0.431l-0.538-0.333
		l-0.587-0.239l-0.045-0.01l-0.434-0.098l-0.157-0.035l-0.683-0.048l-0.276,0.007c-0.74,0.037-1.559,0.225-2.451,0.561
		c-0.611-0.043-1.19-0.008-1.739,0.106c-0.115,0.006-0.575,0.129-1.382,0.37c-0.859,0.252-1.671,0.763-2.436,1.533
		c-1.057,1.435-1.64,2.905-1.753,4.412c-0.033,0.752,0.068,1.281,0.307,1.586c0.158,0.296,0.452,0.464,0.867,0.521
		c0.101,0.014,0.201,0.026,0.317,0.026c0.189-0.008,0.396-0.041,0.62-0.098l3.656-0.957l0.015-0.004c-0.004,0-0.008,0-0.012,0
		c-0.709,0.055-1.5,0.037-2.371-0.055c-0.276-0.037-0.515-0.098-0.733-0.172c-0.147-0.049-0.29-0.1-0.413-0.165
		c-0.15-0.08-0.284-0.174-0.399-0.28c-0.248-0.284-0.377-0.471-0.381-0.558c-0.102-0.479-0.11-0.951-0.028-1.413
		c-0.009-0.118,0.104-0.458,0.338-1.021c0.378-0.709,0.668-1.118,0.87-1.232c0.651-0.514,1.271-0.923,1.855-1.225
		c1.166-0.662,2.101-1.12,2.799-1.373c0.885,0.11,1.645,0.356,2.307,0.709c0.259,0.137,0.501,0.293,0.726,0.467
		c0.138,0.108,0.281,0.206,0.405,0.327c0.341,0.312,0.629,0.715,0.864,1.208c0.24,0.956,0.436,1.645,0.592,2.065
		c0.069,0.237,0.239,0.562,0.511,0.979c0.386,0.503,0.715,0.811,0.987,0.92c0.354,0.072,0.546,0.041,0.573-0.097
		c0.352-0.475,0.487-1.201,0.413-2.182C823.643,896.126,823.35,895.25,822.786,894.089z"/>
	<polygon fill="#DFDFDF" fill-opacity="0.898" points="814.761,899.811 814.957,899.791 815.144,899.766 815.319,899.734 
		815.485,899.697 815.645,899.656 815.791,899.611 815.929,899.56 816.057,899.505 816.177,899.445 816.169,899.445 	"/>
	<path fill="#EEEEEE" fill-opacity="0.898" d="M490.104,874.623c-0.171,0.697-0.117,1.242,0.159,1.633
		c0.285,0.237,0.966,0.442,2.04,0.614c0.535,0.28,0.83,0.46,0.888,0.543c0.221-0.008,0.662,0.859,1.32,2.6
		c0.043,0.103,0.285,0.34,0.729,0.71c0.829,0.267,1.755,0.317,2.776,0.151c1.087-0.196,2.191-0.689,3.316-1.476
		c1.489-1.036,3.109-2.586,4.867-4.649c0.887-1.11,1.383-2.124,1.487-3.04c-0.088-3.009-0.11-4.875-0.069-5.598
		c-0.105-0.521-0.206-0.821-0.301-0.895c-0.33-0.241-0.57-0.373-0.72-0.392c-1.655,0.256-2.914,0.256-3.775-0.002
		c-1.409-0.505-2.578-1.179-3.508-2.022l-0.211,2.467c-0.586-0.14-1.198-0.063-1.837,0.227c-0.209,0.098-0.418,0.222-0.628,0.369
		c-0.104,0.043-0.42,0.316-0.945,0.824c-1.658,1.924-2.952,3.547-3.884,4.871C490.877,872.877,490.309,873.901,490.104,874.623z"/>
	<path fill="#EEEEEE" fill-opacity="0.898" d="M538.054,888.048c0.149,0.123,0.374,0.153,0.679,0.086
		c0.171-0.047,0.297-0.094,0.376-0.139c0.109-0.057,0.221-0.125,0.336-0.208l0.173-0.133c0.354-0.288,0.728-0.695,1.127-1.224h0.003
		l0.068,0.256v-0.353l-0.069,0.092l-0.051-0.189l-0.146-0.351l-0.171-0.249l-0.195-0.149l-0.22-0.047l-0.243,0.055l-0.267,0.154
		l-0.129,0.102c-0.13,0.111-0.266,0.25-0.409,0.422c-0.451,0.544-0.745,0.991-0.884,1.343c-0.041,0.12-0.061,0.198-0.061,0.237
		l0.012,0.168L538.054,888.048z"/>
	<path fill="#EEEEEE" fill-opacity="0.898" d="M398.994,936.592c-0.267-0.112-0.568-0.165-0.906-0.161
		c-0.025-0.03-0.703,0.103-2.033,0.396c-0.3,0.045-0.476,0.043-0.526-0.005c-0.041-0.058-0.008-0.123,0.101-0.198
		c0.237-0.208,0.46-0.365,0.668-0.473l1.481,0.142l-2.784-2.905c-0.288-0.148-0.467-0.217-0.532-0.203h-0.014
		c-0.287,0.039-0.58,0.288-0.878,0.751c-0.992,1.868-2.015,3.639-3.066,5.312c-0.343,0.635-0.581,1.116-0.715,1.444
		c-0.405,0.984-0.629,1.736-0.669,2.253c0.054,0.363,0.131,0.593,0.228,0.685c0.163,0.099,0.352,0.147,0.563,0.145
		c1.659-0.415,3.398-0.762,5.222-1.043c0.412-0.088,0.864-0.243,1.356-0.464c0.683-0.32,1.293-0.75,1.829-1.292
		c0.267-0.239,0.582-0.715,0.949-1.429c0.14-0.175,0.251-0.717,0.334-1.625c0.005-0.554-0.04-0.856-0.135-0.912
		C399.291,936.782,399.133,936.643,398.994,936.592z"/>
	<path fill="#EEEEEE" fill-opacity="0.898" d="M765.911,931.47c0.06-0.03,0.116-0.063,0.177-0.094
		c1.719-0.889,2.76-2.159,3.104-3.821c0.122-0.582,0.156-1.212,0.11-1.888c-0.216-0.741-0.452-1.221-0.709-1.439
		c-0.358-0.477-1.023-0.88-1.998-1.206c-0.341-0.112-1.311-0.209-2.909-0.294l-0.215-0.057l-0.607-0.257
		c-0.158-0.094-0.281-0.563-0.374-1.41l1.339-0.494c0.088-0.479,0.05-1.02-0.121-1.623c-0.194-0.571-1.138-0.927-2.828-1.064
		l-0.186,0.001c-0.722,0.018-1.488,0.209-2.305,0.572c-0.302,0.123-0.625,0.263-0.968,0.42c-0.979,0.44-2.121,1.009-3.432,1.708
		c-0.354,0.188-0.739,0.397-1.133,0.615c-1.493,0.82-3.257,1.838-5.32,3.075c-0.421,0.299-0.666,0.647-0.734,1.049
		c-0.1,1.143,0.699,2.259,2.396,3.35c0.402,0.217,1.081,0.432,2.042,0.646c1.368,0.27,2.439,0.391,3.209,0.366
		c0.217,0.032,0.405,0.109,0.561,0.226c0.062,0.021,0.12,0.226,0.175,0.611c-0.613,1.558-0.796,2.403-0.546,2.533
		c0.228,0.478,0.973,0.724,2.235,0.742c2.069-0.006,5.057-0.749,8.962-2.229C765.86,931.497,765.885,931.481,765.911,931.47z"/>
	<path fill="#EEEEEE" fill-opacity="0.898" d="M671.398,650.3l-0.102-0.148l-0.159-0.11l-0.214-0.073l-0.115-0.022
		c-0.297-0.057-0.498-0.085-0.606-0.085l-0.016,0.001c-0.104,0.016-0.16,0.045-0.172,0.085l-0.003,0.056
		c0.026,0.044,0.049,0.104,0.072,0.182c0.011,0.03,0.018,0.079,0.021,0.15c0,0.066-0.015,0.208-0.049,0.427
		c-0.059,0.351-0.18,0.803-0.365,1.354l1.127-0.14c0.354-0.522,0.561-0.944,0.613-1.267l0.014-0.153l-0.01-0.136L671.398,650.3z"/>
	<path fill="#EEEEEE" fill-opacity="0.898" d="M648.479,775.418l-0.165,0.005c-0.443,0.024-0.893,0.148-1.354,0.372
		c-0.661,0.385-1.092,0.67-1.291,0.859l-1.155,1.205l-0.438,0.491c-0.266,0.31-0.483,0.584-0.654,0.825
		c-0.171,0.241-0.295,0.445-0.366,0.617l-0.074,0.23l-0.003,0.178l0.018,0.026c0.053,0.067,0.13,0.101,0.234,0.101
		c0.258,0,0.678-0.214,1.263-0.644c0.837-0.66,1.517-1.242,2.043-1.75c0.299-0.282,0.599-0.574,0.896-0.875
		c0.149-0.139,0.594-0.613,1.331-1.42l-0.071-0.212L648.479,775.418z"/>
	<path fill="#EEEEEE" fill-opacity="0.898" d="M561.322,765.101c-0.196,0.097-0.469,0.286-0.815,0.566
		c-0.139,0.145-0.21,0.256-0.218,0.334c-0.066,0.221,0.149,0.413,0.65,0.577c0.25,0.083,0.527,0.146,0.835,0.197
		c0.267,0.048,0.641,0.082,1.122,0.103c0.248,0.009,0.496,0.01,0.741,0.004l2.615-0.122l-4.861-1.691L561.322,765.101z"/>
	<path fill="#EEEEEE" fill-opacity="0.898" d="M580.661,850.873c-0.086,1.18-0.147,2.447-0.179,3.803
		c-0.001,0.583,0.072,1.012,0.22,1.288c0.109,0.174,0.2,0.274,0.272,0.295c0.144,0.071,0.287,0.09,0.429,0.063l0.07-0.014
		l1.619-0.697l-2.395-5.213L580.661,850.873z"/>
	<path fill="#EEEEEE" fill-opacity="0.898" d="M698.892,723.15l0.024,0.084l0.037,0.081c0.054,0.088,0.103,0.147,0.14,0.18
		c0.063,0.053,0.102,0.084,0.12,0.094c0.029,0.019,0.061,0.038,0.094,0.057l0.43,0.209l-0.171-2.191l-0.049,0.05
		c-0.136,0.146-0.314,0.424-0.538,0.831c-0.03,0.076-0.057,0.15-0.074,0.22l-0.02,0.104l-0.01,0.098l0.002,0.094L698.892,723.15z"/>
	<path fill="#EEEEEE" fill-opacity="0.898" d="M700.989,725.998l0.059-0.144c0.147-0.377,0.221-0.68,0.224-0.911l-0.014-0.177
		c-0.004-0.023-0.01-0.045-0.016-0.067c-0.016-0.058-0.053-0.118-0.113-0.181l-1.393-0.665l0.324,4.15L700.989,725.998z"/>
	<path fill="#EEEEEE" fill-opacity="0.898" d="M609.629,1084.532l-0.227,0.037c-0.146,0.029-0.277,0.061-0.396,0.098
		c-0.224,0.064-0.411,0.167-0.561,0.307c-0.111,0.126-0.166,0.247-0.164,0.365c-0.002,0.072,0.008,0.139,0.033,0.197l0.094,0.101
		c0.086,0.038,0.192,0.041,0.313,0.008c0.107-0.021,0.284-0.097,0.537-0.227c0.18-0.095,0.385-0.221,0.617-0.373l1.781-1.267
		l0.605-0.429l-0.628,0.335l-1.483,0.791C609.963,1084.488,609.79,1084.509,609.629,1084.532z"/>
	<path fill="#EEEEEE" fill-opacity="0.898" d="M823.316,802.755l0.065-0.031h-0.008l-0.571,0.253
		c0.063-0.022,0.167-0.066,0.317-0.132C823.142,802.838,823.206,802.808,823.316,802.755z"/>
	<path fill="#EEEEEE" fill-opacity="0.898" d="M818.373,802.272l0.93,0.166l0.053,0.019c0.163,0.051,0.308,0.161,0.433,0.329
		c0.213,0.325,0.209,0.835-0.013,1.532l2.99-1.324c-0.313,0.114-0.602,0.188-0.863,0.227c-0.288,0.042-0.561,0.037-0.818-0.015
		c-0.191-0.046-0.334-0.095-0.429-0.148c-0.435-0.313-0.838-0.548-1.208-0.707c-0.141-0.062-0.299-0.11-0.479-0.146
		c-0.188-0.034-0.317-0.046-0.387-0.041h-0.041c-0.109,0.003-0.209,0.017-0.303,0.042c0.007,0.016,0.025,0.029,0.047,0.04
		C818.309,802.256,818.338,802.266,818.373,802.272z"/>
	<path fill="#EEEEEE" fill-opacity="0.898" d="M809.747,781.369l0.16-0.053l0.868-0.53l0.339-0.153l0.34-0.098l0.338-0.043
		l0.341,0.011l0.076,0.01c0.152,0.023,0.303,0.063,0.456,0.118c0.148,0.051,0.265,0.1,0.34,0.147
		c0.182,0.099,0.465,0.283,0.854,0.55l0.379,0.171l0.402,0.112l0.422,0.054l0.447-0.003l0.469-0.062l0.492-0.12
		c0.257-0.07,0.606-0.208,1.051-0.416l-7.259-0.917l-0.129,0.195c-0.238,0.355-0.387,0.599-0.447,0.731l-0.05,0.181l0.021,0.094
		L809.747,781.369z"/>
	<path fill="#EEEEEE" fill-opacity="0.898" d="M829.335,675.875c-1.023,0.337-1.814,0.81-2.37,1.419
		c-0.76,0.792-1.183,1.514-1.269,2.166l-0.004,0.307l0.005,0.064c0.021,0.129,0.056,0.254,0.11,0.372
		c0.051,0.118,0.101,0.203,0.149,0.258c0.103,0.126,0.295,0.317,0.576,0.574l0.175,0.278c0.102,0.221,0.15,0.473,0.146,0.758
		c0,0.324-0.097,0.731-0.284,1.22l-1.012,2.063l-0.033,0.095c-0.127,0.355-0.151,0.645-0.067,0.862
		c0.072,0.201,0.292,0.304,0.66,0.308l2.325-0.395l1.198-10.427h-0.008L829.335,675.875z"/>
	<path fill="#EEEEEE" fill-opacity="0.898" d="M843.29,674.547c0.088-0.012,0.224-0.083,0.401-0.217
		c0.016-0.011,0.076-0.056,0.178-0.138c0.239-0.204,0.457-0.385,0.655-0.546h0.008l-0.024,0.807
		c0.125-0.188,0.229-0.353,0.313-0.491c0.167-0.281,0.251-0.465,0.251-0.552c-0.009-0.125-0.19-0.048-0.539,0.231l0.046-1.653
		l-1.174,1.986c-0.09,0.162-0.151,0.308-0.186,0.437l0.006,0.106L843.29,674.547z"/>
</g>
</svg>
