<?xml version="1.0" encoding="utf-8"?>
<!-- Generator: Adobe Illustrator 12.0.0, SVG Export Plug-In . SVG Version: 6.00 Build 51448)  -->
<!DOCTYPE svg PUBLIC "-//W3C//DTD SVG 1.1//EN" "http://www.w3.org/Graphics/SVG/1.1/DTD/svg11.dtd" [
	<!ENTITY ns_svg "http://www.w3.org/2000/svg">
	<!ENTITY ns_xlink "http://www.w3.org/1999/xlink">
]>
<svg  version="1.1" id="Layer_1" xmlns="&ns_svg;" xmlns:xlink="&ns_xlink;" width="300" height="300" viewBox="0 0 300 300"
	 overflow="visible" enable-background="new 0 0 300 300" xml:space="preserve">
   
   <defs>
     <filter id="blur" x="0" y="0">
       <feGaussianBlur stdDeviation="5"/>
     </filter>
     <style type="text/css">
       @keyframes moon_move
       {
         0%  {transform:rotate(0deg);}
         100%{transform:rotate(3600deg);}
       }
       #main
       {
        /* animation: moon_move 10s infinite linear;
         transform-origin: 50% 50%;*/
       }
       
     </style>
   </defs>
   
<g id="main" filter="url(#blur)">
	<path fill="#C8C8C8" d="M249.022,38.598c-3.6-3.228-7.295-6.246-11.084-9.062l-1.957-0.057c0.215,2.098,0.66,3.458,1.342,4.071
		c0.694,0.666,1.386,1.172,2.07,1.52c4.206,1.478,6.326,2.342,6.362,2.592c0.685,0.64,1.146,1.152,1.378,1.54
		c1.514,3.878,2.551,5.941,3.112,6.19c-0.3,0.085,2.164,1.334,7.391,3.747c0.64,0.438,1.671,1.227,3.092,2.368l1.493,1.204
		l6.354,7.454c0.476,0.881,0.567,1.444,0.28,1.691c-0.482,0.537-1.384,0.598-2.703,0.179c-0.802-0.31-1.563-0.691-2.289-1.147
		c-3.365-3.313-6.12-5.604-8.266-6.874c-1.199-0.541-2.771-1.029-4.72-1.464c-0.943-0.194-1.921-0.201-2.935-0.021
		c-0.807,0.132-1.485,0.629-2.04,1.49l-0.376,8.869l-0.307,1.096c-0.456,0.512-1.433,0.735-2.931,0.674
		c-4.218,0.017-7.409-0.481-9.574-1.494c-0.313-0.2-0.486-0.574-0.518-1.123c0.896-2.423,1.051-4.248,0.46-5.473
		c-0.607-1.32-1.772-2.026-3.496-2.117c-2.748-0.08-6.115,0.242-10.102,0.968c-3.649,2.199-7.882,4.449-12.695,6.748
		c-2.78,1.208-5.26,1.341-7.438,0.397c-2.488-0.986-3.803-1.799-3.943-2.437c-1.281-6.576-2.032-9.774-2.254-9.595
		c-0.623-0.48-1.215-0.941-1.785-1.391c-0.477,0.677-0.982,1.5-1.521,2.483c-0.273,1.644-0.165,3.839,0.325,6.585
		c-1.58,4.164-2.128,7.177-1.646,9.041c0.729,4.25,2.238,7.977,4.531,11.182c1.959,2.595,3.351,4.006,4.171,4.237
		c1.038,0.622,2.196,0.822,3.476,0.601c1.81-0.537,4.03-3.227,6.666-8.066c1.456-0.909,3.153-1.204,5.094-0.886l9.615,7.573
		c0.527,0.461,0.955,1.044,1.279,1.747c1.548,3.419,0.794,6.307-2.26,8.66c-1.047,0.677-2.37,1.228-3.969,1.65l2.481,3.419
		l1.33,3.264c-1.017-0.725-2.083-0.941-3.201-0.648l-2.184-5.679c-1.236,0.24-2.606,0.419-4.114,0.535
		c-5.396-0.56-8.48-0.961-9.254-1.205l-1.813-0.487l-5.097-2.645c-3.37-4.098-5.771-5.968-7.198-5.609
		c-1.98,0.313-4.109,1.646-6.389,3.996c-6.973,2.439-11.185,3.794-12.636,4.065c-9.126,0.508-16.278,0.111-21.457-1.188
		c-9.074-2.547-13.458-3.921-13.153-4.121l-0.403-2.557c1.1-4.27,1.526-6.966,1.277-8.088c-0.313-1.297-0.898-2.393-1.756-3.286
		c-0.477-0.483-1.189-0.723-2.141-0.719c-4.091,0.35-7.474,1.842-10.147,4.475c-1.484,1.44-2.533,2.888-3.146,4.345
		c-1.471,5.899-2.57,9.218-3.298,9.953c-3.712,3.556-7.599,5.659-11.656,6.314c-0.883,0.052-1.834-0.188-2.854-0.714
		c-1.977-3.447-4.021-5.632-6.134-6.557c-0.931-0.202-4.545-0.027-10.843,0.521c-0.941-0.012-1.801-0.107-2.579-0.286
		c-2.364-0.644-4.351-2.298-5.958-4.965c-1.381-1.534-1.006-4.606,1.125-9.218c1.201-2.017,2.976-4.127,5.324-6.331l3.483-2.978
		c-1.145,0.223-3.332-0.863-6.566-3.261l-9.664-0.175c-4.131-2.348-7.208-3.651-9.231-3.911l-1.684,0.09l-5.866,2.752
		c-4.469,1.995-8.33,4.996-11.583,9.002c-0.429,0.612-1.646,3.674-3.654,9.186c-4.713,7.249-7.629,12.098-8.752,14.546
		c-1.855,4.108-2.861,7.646-3.02,10.615c-0.195,3.238,0.055,8.76,0.75,16.563c-0.823,11.291-1.06,18.416-0.709,21.374
		c0.153,1.089,0.659,2.53,1.508,4.313c0.811-6.42,1.939-10.748,3.387-12.978c-1.695-4.348-1.484-9.877,0.634-16.59
		c8.983-9.968,16.771-16.613,23.358-19.937c7.016-3.026,11.982-3.321,14.9-0.887L64.119,94.5l-1.128,0.083l1.912-0.438l2.851-0.092
		c0.972,0.035,1.992,0.396,3.062,1.08c2.035,2.287,4.372,5.65,7.015,10.091c5.121,3.204,8.65,5.691,10.595,7.463
		c-0.031-0.146-0.062-0.299-0.093-0.458l-0.837-1.59c-0.05-0.771-0.15-1.473-0.299-2.107c-0.208-0.766-0.348-1.203-0.418-1.315
		c-0.112-0.267-0.235-0.517-0.372-0.75l1.792,0.408c-0.256-0.089-0.798-0.333-1.626-0.73c-0.611-0.313-1.073-0.609-1.388-0.892
		c-0.401-0.418-0.622-0.687-0.66-0.803c-0.101-0.13-0.218-0.527-0.354-1.188l-0.048-0.317c1.949,0.962,3.365,1.581,4.246,1.854
		c0.616,0.356,1.116,0.878,1.498,1.566c0.126,0.221,0.2,0.947,0.225,2.181l0.393,1.722l0.092,1.802l0.83,1.917
		c-0.007,0.241,0.004,0.489,0.031,0.743c0.102,0.645,0.183,1.038,0.243,1.181c0.16,0.542,0.389,1.106,0.688,1.693l0.052,0.447
		c-0.561-0.335-1.037-0.641-1.446-0.922c0.166,0.544,0.334,1.137,0.508,1.79l-0.78,8.531c1.583,3.7,2.073,8.395,1.473,14.083
		l2.204,6.574c0.069,1.216-0.022,2.151-0.272,2.807l-1.101,2.667l-7.144,11.8c0.133,0.146,0.255,0.271,0.362,0.371
		c-0.158-0.077-0.304-0.152-0.45-0.227l-8.184,13.516l-4.301,12.086c0.333,0.032,0.679,0.074,1.023,0.115l13.346-7.463
		c1.606-0.844,2.972-1.449,4.097-1.819c0.702-0.225,1.39-0.267,2.065-0.127l0.984-0.29l0.136-0.038l-0.909,0.386l-0.212-0.058
		c-0.992,0.313-1.574,0.521-1.745,0.629c-0.128,0.033-1.202,0.722-3.227,2.065c-0.61,0.158-2.764,1.395-6.462,3.705
		c-2.229,1.09-4.351,2.169-6.374,3.238c0.108,0.018,0.211,0.029,0.32,0.047l9.29,2.282l6.174,0.855
		c0.835,0.188,1.899,0.644,3.193,1.362c0.283,0.22,0.558,0.43,0.826,0.635c0.001-0.03,0.001-0.057,0.002-0.086
		c0.002-0.123,0.026-0.577,0.071-1.366l0.132-1.521l0.035-0.406h0.002c0.001,0.229,0.006,0.734,0.016,1.522
		c0.005,0.296,0.01,0.562,0.015,0.799c0.005,0.339,0.02,0.774,0.045,1.3c3.114,2.362,5.224,3.761,6.323,4.188
		c0.763,0.294,1.646,0.517,2.65,0.665c2.921-0.101,6.453,0.301,10.595,1.198c4.113,1.229,6.446,2.183,7,2.862
		c0.537,0.4,0.991,0.872,1.375,1.404c0.011-2.138-0.2-4.658-0.634-7.565c0.448-1.793,1.287-3.225,2.518-4.296
		c0.864-1.054,2.786-1.453,5.762-1.198l29.455,3.809c1.521-0.557,2.143-1.879,1.862-3.971c-0.305-1.856-1.574-4.839-3.813-8.945
		c-0.108-0.479-0.111-0.971-0.011-1.479c-2.451-0.698-5.339-1.29-8.678-1.768c-1.708-0.319-7.502,1.129-17.385,4.345
		c-2.047,0.268-3.732,0.029-5.058-0.714c-1.012-0.712-3.455-4.758-7.331-12.138c-0.459-0.642-2.085-1.498-4.878-2.575
		c-0.346-0.198-0.58-0.766-0.703-1.704c-0.002-0.666,0.25-1.577,0.752-2.732c-0.499,0.316-0.953,0.63-1.354,0.938
		c-2.066,1.498-5.016,3.751-8.848,6.759l-2.545,1.799c-0.372,0.279-0.688,0.608-0.949,0.985l1.035-1.692
		c0.899-0.844,1.48-1.371,1.744-1.582l1.013-0.789l5.839-3.684c1.119-1.15,2.104-2.104,2.96-2.866
		c0.255-0.251,0.822-0.712,1.701-1.383c0.07-0.046,0.138-0.087,0.208-0.132c1.248-2.361,3.241-5.446,5.993-9.269
		c0.561-1.088,0.557-2.301-0.011-3.64c-0.341-0.728-1.463-1.504-3.368-2.331c-5.851-1.475-9.701-2.703-11.551-3.686
		c-7.993-4.192-11.841-6.891-11.545-8.096c-0.723-1.356,0.097-2.996,2.459-4.915c1.239-0.978,5.506-3.1,12.802-6.368
		c1.736-1.021,2.863-1.871,3.38-2.549c0.556-0.634,0.927-1.508,1.112-2.625c0.027-8.484,0.615-13.487,1.766-15.01
		c1.544-3.652,4.4-6.08,8.572-7.28l0.243-0.01c0.986,0.097,1.528,0.508,1.626,1.235l-1.089,13.039l3.131,9.514
		c-0.033,1.311-2.751,5.552-8.154,12.723c-0.843,1.971-1.021,3.382-0.535,4.234c4.06,3.465,8.145,5.014,12.256,4.646
		c0.625,0.47,4.762-1.695,12.412-6.498c0.944-0.424,1.959-0.262,3.042,0.487c0.526,0.597,0.216,1.77-0.936,3.521
		c-5.674,5.433-8.877,8.955-9.608,10.565c-0.254,0.559-0.378,1.035-0.371,1.433c0.019,0.745,0.355,1.757,1.013,3.033
		c-0.285,2.019-0.306,3.584-0.064,4.696c3.403,3.874,5.933,6.11,7.586,6.71c0.624,0.392,4.807,0.915,12.548,1.575
		c1.637,0.271,2.531,0.555,2.688,0.857c0.197,0.182,0.188,0.582-0.032,1.201l-3.058,4.615c-0.129,1.114,0.144,1.846,0.818,2.19
		l2.534,0.698c1.686-1.253,3.82-2.06,6.414-2.412c3.685-0.389,6.338-0.288,7.962,0.298c1.163,0.165,4.357,2.632,9.586,7.4
		c0.676,0.294,2.533-0.079,5.575-1.119l8.162,12.69c0.206,1.198,0.161,2.125-0.136,2.781c-3.748,7.642-5.555,11.887-5.42,12.735
		c0.389,0.919,0.751,1.935,1.09,3.029l1.911-0.538c1.127-0.178,2.264-0.159,3.41,0.054l0.96-0.102
		c3.609-0.155,5.645-0.268,6.104-0.336c0.589-0.065,1.228-0.146,1.911-0.243c0.252-0.308,0.523-0.563,0.818-0.765l6.284-3.654
		c0.17-0.116,0.337-0.222,0.503-0.313c0.497-0.274,0.977-0.432,1.438-0.471l0.229-0.011c0.104-0.006,0.277,0.012,0.518,0.053
		c0.136,0.026,0.271,0.065,0.402,0.114l3.727,0.846c-0.357,0.182-1.005,0.416-1.938,0.702c-3.695,0.968-6.001,1.622-6.917,1.967
		c-0.88,0.307-1.504,0.537-1.874,0.691c-0.436,0.181-0.854,0.364-1.267,0.552c1.671-0.264,3.562-0.595,5.685-0.995
		c0.963-0.131,1.672-0.189,2.127-0.177l0.7-0.091c-2.844,0.675-5.859,1.169-9.032,1.503c-0.431,0.204-0.852,0.411-1.254,0.623
		c-0.187,0.067-0.288,0.1-0.309,0.093c-0.097-0.138-0.089-0.298,0.016-0.479l-4.54,1.086c-0.563,0.067-1.208,0.057-1.94-0.034
		c-0.825-0.217-1.608-0.403-2.352-0.562c-0.794,0.084-1.798,0.238-3.011,0.46c-0.777,0.159-1.502,0.309-2.18,0.448
		c1.647,5.538,2.683,13.243,3.103,23.116c-0.861,0.615-3.322,0.314-7.38-0.896l4.725,4.124l6.104-5.132l6.395-1.855l8.636-4.354
		c9.611,0.22,16.457,0.556,20.536,1.007c1.654,0.376,2.954,0.902,3.9,1.58c1.99,1.611,3.431,3.146,4.317,4.602
		c0.611,0.391,1.368,0.632,2.271,0.729c2.78-0.026,5.416-0.205,7.911-0.533c-0.442-1.146-0.859-2.104-1.25-2.869l-0.196-0.373
		l0.403,0.446c0.109,0.139,0.217,0.281,0.315,0.43l0.146,0.227c0.094,0.151,0.183,0.31,0.265,0.472
		c0.083,0.162,0.16,0.328,0.23,0.499s0.137,0.347,0.195,0.525l0.117,0.611c5.175-0.701,9.734-2.053,13.671-4.062l2.442,0.124
		c14.147-20.667,22.633-44.628,25.438-71.892l0.259-20.263C294.972,99.339,278.535,65.062,249.022,38.598z M44.895,78.393
		l-0.143-0.231l-0.113-0.256l-0.084-0.279l-0.056-0.302l-0.026-0.326l0.002-0.35l0.032-0.372l0.06-0.396l0.085-0.204
		c0.063-0.133,0.14-0.261,0.227-0.382l0.141-0.178c0.101-0.116,0.212-0.227,0.337-0.331s0.263-0.203,0.412-0.296l0.234-0.135
		l-0.106,0.149l-0.102,0.15c-0.066,0.101-0.129,0.202-0.188,0.303c-0.117,0.203-0.222,0.407-0.311,0.614
		c-0.016,0.03-0.086,0.207-0.209,0.533l-0.111,0.364l-0.077,0.354l-0.042,0.341l-0.009,0.33l0.026,0.318l0.059,0.307l0.093,0.294
		l0.127,0.283C45.123,78.672,45.037,78.572,44.895,78.393z M47.998,79.64c-0.176,0.108-0.35,0.19-0.521,0.244
		c-0.17,0.055-0.339,0.082-0.506,0.082l-0.188-0.012l-0.187-0.035l-0.184-0.058l-0.183-0.082l-0.18-0.104l-0.177-0.128l-0.175-0.151
		c-0.116-0.108-0.231-0.232-0.346-0.371c-0.066-0.096-0.128-0.192-0.182-0.291l-0.021-0.038l0.168,0.133l0.198,0.117l0.232,0.102
		l0.265,0.086l0.297,0.07l0.331,0.055l0.364,0.039l0.396,0.023c0.306,0.01,0.571,0.01,0.798,0.002
		c0.024,0.009,0.044,0.02,0.056,0.031l0.012,0.021C48.292,79.431,48.201,79.519,47.998,79.64z M50.944,73.267l-0.166,0.144
		c-0.11,0.091-0.22,0.172-0.325,0.243c-0.107,0.07-0.212,0.132-0.315,0.183l-0.154,0.069c-0.189,0.074-0.399,0.125-0.628,0.15
		c-0.255,0.039-0.564,0.056-0.929,0.05c-0.368-0.006-0.789-0.033-1.266-0.085l-0.105,0.009c-0.339,0.022-0.689,0.131-1.052,0.323
		c0.049-0.085,0.258-0.335,0.627-0.748c0.154-0.164,0.319-0.326,0.494-0.488s0.359-0.322,0.555-0.48
		c0.195-0.159,0.401-0.315,0.617-0.473c0.29-0.258,0.576-0.487,0.856-0.688c0.843-0.603,1.646-0.945,2.409-1.032l0.378-0.021h0.023
		L50.944,73.267z M73.77,94.41l-0.747-0.492l6.011,3.179c0.846,0.792,1.583,1.439,2.214,1.945c0.533,0.459,1.152,0.866,1.859,1.22
		c0.094,0.081,0.181,0.167,0.263,0.256c0.222,0.21,0.438,0.58,0.648,1.109c0.015,0.394,0.052,0.832,0.111,1.313
		c-0.951-0.459-2.573-1.275-4.866-2.448C77.577,97.829,75.746,95.801,73.77,94.41z M84.615,105.691h0.127l0.318,0.008l0.285,0.023
		l0.249,0.042l0.214,0.059l0.179,0.074l0.145,0.092l0.109,0.107l0.073,0.125l0.038,0.142l0.062,0.101l-2.987-0.681
		C83.874,105.728,84.27,105.698,84.615,105.691z M118.841,188.174c0.069-0.176,0.216-0.397,0.441-0.67
		c0.071-0.086,0.14-0.155,0.205-0.211l0.063-0.051l0.133-0.077l0.122-0.027l0.109,0.023l0.097,0.074l0.085,0.124l0.073,0.175
		l0.025,0.095l0.035-0.046v0.176l-0.033-0.128h-0.003c-0.198,0.264-0.386,0.467-0.562,0.61l-0.086,0.065
		c-0.057,0.041-0.113,0.075-0.167,0.104c-0.04,0.021-0.104,0.046-0.188,0.068c-0.151,0.033-0.264,0.02-0.339-0.043l-0.036-0.062
		l-0.006-0.084C118.811,188.272,118.819,188.233,118.841,188.174z M92.604,119.55l-0.176-1.5l0.12,0.07
		c0.157,0.167,0.284,0.32,0.379,0.461l0.066,0.104c0.04,0.068,0.07,0.133,0.096,0.193c0.023,0.061,0.041,0.119,0.049,0.174
		l0.168,1.715C93.158,120.496,92.924,120.09,92.604,119.55z M87.663,166.817c-0.197-0.099-0.357-0.183-0.481-0.252
		c-0.124-0.07-0.211-0.128-0.262-0.17l-0.048-0.054l0.007-0.033c-0.2-0.154-0.394-0.319-0.577-0.491l-0.069-0.065
		c0.357,0.178,0.628,0.311,0.809,0.396c0.231,0.112,0.477,0.229,0.734,0.354c0.164,0.104,0.322,0.218,0.473,0.338
		c0.185,0.155,0.293,0.25,0.326,0.286l0.226,0.226C88.095,167.027,87.716,166.85,87.663,166.817z M94.604,178.127
		c-0.426-0.35-0.775-0.669-1.05-0.959c-0.273-0.29-0.472-0.551-0.595-0.781c-0.722-1.84-1.24-3.083-1.558-3.728
		c-0.433-0.939-0.896-1.873-1.391-2.798l-0.634-1.661c-0.202-0.364-0.376-0.628-0.523-0.79l-0.054-0.058l3.007,1.338
		c0.188,0.088,1.142,0.783,2.863,2.088c0.184,0.06,0.29-0.119,0.315-0.537L94.604,178.127z M96.587,186.999l-0.018,0.25
		l-0.029,0.402c-0.049,0.637-0.137,1.679-0.259,3.126l-0.212,2.476c-0.003-0.336-0.006-0.818-0.009-1.445
		c0-0.218,0.004-0.446,0.015-0.688c0.009-0.204,0.014-0.329,0.018-0.373c0.059-0.701,0.104-1.27,0.134-1.7
		c0.03-0.431,0.046-0.729,0.047-0.89l-0.006-0.533c0-0.039-0.002-0.104-0.006-0.194c-0.032-0.322-0.063-0.677-0.091-1.064
		l-0.055,0.061l0.031-0.378h0.002l0.021,0.316c0.169-0.174,0.284-0.197,0.344-0.073c0.02,0.034,0.034,0.079,0.046,0.136l0.016,0.094
		c0.008,0.068,0.013,0.147,0.014,0.238l-0.001,0.146h0.002L96.587,186.999z M96.113,185.143c0-0.061,0.001-0.119,0.002-0.181
		l0.016-0.196l0.018-0.188l0.022-0.177l0.023-0.167l0.027-0.157c0.02-0.103,0.04-0.197,0.063-0.285
		c0.022-0.088,0.047-0.17,0.073-0.245h0.002l-0.212,2.486l-0.021-0.352c-0.004-0.06-0.007-0.118-0.009-0.18
		C96.115,185.383,96.113,185.264,96.113,185.143z M106.993,157.833l0.165-0.273c0.417-0.688,0.702-1.063,0.854-1.128h0.001
		l0.01,0.037l-0.043,0.108l-0.095,0.179l-0.145,0.249c-0.096,0.179-0.593,0.947-1.493,2.307
		C106.569,158.69,106.817,158.197,106.993,157.833z M97.839,170.847c0.182-0.326,0.459-0.744,0.83-1.255
		c2.197-2.828,3.881-5.04,5.052-6.635c0.531-0.697,1.333-1.853,2.407-3.463l0.114-0.17c-1.439,2.748-3.224,5.791-5.352,9.127
		c-0.396,0.635-1.194,1.722-2.395,3.263c-0.378,0.573-0.656,1.047-0.832,1.421l-0.563-0.948
		C97.356,171.688,97.603,171.243,97.839,170.847z M97.719,177.78c0.262-0.253,0.419-0.391,0.472-0.411
		c0.104-0.073,0.209-0.135,0.313-0.185c0.319-0.145,0.625-0.183,0.917-0.112l0.104-1.23c0.464,0.421,1.048,0.757,1.75,1.009
		c0.431,0.129,1.059,0.129,1.885,0.001c0.073,0.011,0.193,0.075,0.357,0.195c0.047,0.037,0.099,0.188,0.15,0.446
		c-0.021,0.36-0.009,1.292,0.034,2.793c-0.053,0.457-0.3,0.963-0.742,1.517c-0.876,1.029-1.686,1.804-2.428,2.319
		c-0.562,0.393-1.112,0.639-1.654,0.736c-0.51,0.083-0.973,0.058-1.385-0.075c-0.222-0.186-0.343-0.304-0.363-0.354
		c-0.329-0.868-0.548-1.301-0.659-1.297c-0.029-0.041-0.176-0.131-0.443-0.271c-0.535-0.086-0.875-0.188-1.018-0.308
		c-0.138-0.194-0.165-0.467-0.079-0.813c0.103-0.36,0.386-0.871,0.852-1.53C96.246,179.55,96.892,178.74,97.719,177.78z
		 M96.383,139.183c0.066,0.499,0.065,1.433-0.002,2.802c-0.106,1.353-0.632,2.747-1.578,4.183c0.08-0.274,0.187-0.757,0.319-1.447
		c0.25-1.351,0.457-2.538,0.619-3.562c0.023-0.158,0.039-0.313,0.048-0.464c0.009-0.264,0.007-0.446-0.006-0.553l0.016-0.096
		c-0.001-0.338-0.367-1.323-1.095-2.955l-0.058-2.189c-0.338-1.021-0.508-1.598-0.511-1.729l-0.014-0.105l-0.056-1.617
		c-0.014-0.488-0.021-0.951-0.025-1.388c0-1.043,0.007-1.638,0.02-1.783c0.013-0.357,0.03-0.688,0.053-0.992l-0.243-2l0.175-1.977
		v-0.083c-0.025-0.266-0.252-0.88-0.681-1.845l-0.061-0.612c0.496,0.872,0.797,1.583,0.902,2.131
		c0.05,0.213,0.085,0.426,0.105,0.637c-0.014,0.167-0.024,0.506-0.031,1.016c0.002,0.37,0.024,0.63,0.069,0.781l0.745,0.771
		c0.12,0.137,0.221,0.27,0.304,0.4c0.166,0.262,0.259,0.515,0.277,0.759c0.036,1.395,0.052,3.068,0.048,5.022
		c-0.009,0.958-0.037,1.769-0.082,2.431C95.669,135.283,95.916,136.77,96.383,139.183z M131.615,127.99
		c-0.122,0.003-0.246,0.002-0.37-0.002c-0.24-0.011-0.428-0.027-0.561-0.052c-0.152-0.024-0.292-0.057-0.417-0.098
		c-0.25-0.082-0.356-0.177-0.323-0.288c0.003-0.039,0.038-0.095,0.107-0.167c0.173-0.14,0.309-0.234,0.407-0.282l0.035-0.017
		l2.425,0.844L131.615,127.99z M173.419,133.067c-0.148,0.149-0.298,0.296-0.447,0.437c-0.263,0.253-0.602,0.544-1.02,0.873
		c-0.291,0.214-0.501,0.321-0.631,0.321c-0.052,0-0.09-0.018-0.115-0.051l-0.01-0.013l0.002-0.089l0.036-0.115
		c0.036-0.085,0.099-0.188,0.184-0.308s0.193-0.257,0.327-0.412l0.218-0.245l0.576-0.601c0.1-0.095,0.313-0.237,0.645-0.43
		c0.229-0.11,0.454-0.173,0.675-0.186l0.082-0.002l0.107,0.004l0.035,0.106C173.715,132.761,173.493,132.998,173.419,133.067z
		 M261.194,145.871h0.004l-0.033,0.016c-0.055,0.026-0.087,0.041-0.099,0.045c-0.074,0.033-0.127,0.056-0.157,0.065L261.194,145.871
		z M258.782,145.591h0.021c0.034-0.002,0.099,0.004,0.192,0.021c0.09,0.018,0.169,0.042,0.238,0.072
		c0.186,0.079,0.387,0.196,0.604,0.354c0.047,0.026,0.118,0.051,0.214,0.074c0.129,0.025,0.265,0.027,0.408,0.007
		c0.131-0.02,0.274-0.056,0.431-0.113l-1.492,0.66c0.111-0.348,0.113-0.602,0.008-0.764c-0.063-0.084-0.136-0.14-0.217-0.164
		l-0.025-0.009l-0.464-0.083c-0.019-0.003-0.032-0.009-0.044-0.014s-0.021-0.012-0.023-0.02
		C258.678,145.6,258.728,145.593,258.782,145.591z M254.364,135.07c0.029-0.066,0.104-0.188,0.224-0.365l0.063-0.097l3.621,0.457
		c-0.222,0.104-0.396,0.172-0.523,0.207l-0.245,0.061l-0.234,0.031l-0.223,0.002l-0.211-0.027l-0.2-0.056l-0.189-0.085
		c-0.193-0.133-0.336-0.226-0.426-0.274c-0.038-0.022-0.096-0.048-0.17-0.073c-0.076-0.026-0.15-0.047-0.228-0.059l-0.038-0.005
		l-0.17-0.006l-0.169,0.021l-0.169,0.049l-0.17,0.076l-0.434,0.266l-0.08,0.025l-0.045-0.01l-0.01-0.047L254.364,135.07z
		 M247.013,192.378l0.013-0.002c0.063,0.015-0.1,0.218-0.49,0.608c-0.105,0.116-0.577,0.56-1.413,1.325
		c-0.359,0.326-1.524,1.265-3.498,2.813l-3.047,2.808c-0.812,0.676-2.399,1.646-4.771,2.907l0.633-1.652
		c-0.037-0.147-0.038-0.301-0.003-0.454l0.079-0.23c0.144-0.311,0.429-0.63,0.859-0.956c2.157-1.461,3.556-2.382,4.193-2.764
		C242.147,195.379,244.628,193.91,247.013,192.378z M239.186,205.194l-5.202-0.527c0.67-0.324,1.122-0.525,1.354-0.604
		c0.329-0.127,0.634-0.226,0.911-0.296c1.842-0.338,3.157-0.592,3.945-0.76l0.271-0.06c-0.262,0.19-0.488,0.377-0.68,0.557
		l-0.256,0.268c-0.152,0.175-0.268,0.344-0.344,0.508C239.036,204.606,239.035,204.911,239.186,205.194z M223.84,103.952
		c1.567,2.048,3.261,4.861,5.08,8.438c0.91,1.789,1.852,3.77,2.824,5.939c1.329,4.237,2.186,7.517,2.571,9.838l0.479,2.789
		c0.36,6.294,0.704,11.5,1.03,15.617l0.477,5.359c0.38,3.312,0.604,4.971,0.668,4.979l0.163,1.692
		c0.088,1.173,0.134,2.435,0.137,3.784c0.004,1.351-0.034,2.791-0.115,4.319s-0.204,3.146-0.369,4.854l-0.28,2.626l-0.343,2.762
		l-0.935,2.797l-0.275-1.66c-0.039-0.547-0.051-1.409-0.032-2.588c0.145-1.191,0.442-2.823,0.891-4.895
		c-0.036-2.077,0.175-5.202,0.632-9.372c0.037-1.309,0.021-2.259-0.049-2.851c-0.288-0.575-0.518-2.368-0.688-5.377l-1.016-4.243
		c-0.541-4.276-1.041-7.747-1.502-10.406l-4.822-18.484l-7.844-19.236C220.831,100.621,221.937,101.726,223.84,103.952z
		 M199.088,106.032l0.01-0.053c0.009-0.034,0.021-0.071,0.037-0.109c0.111-0.203,0.2-0.342,0.269-0.415l0.024-0.025l0.085,1.094
		l0.694,0.331c0.03,0.032,0.049,0.063,0.057,0.091c0.003,0.011,0.006,0.021,0.008,0.032l0.007,0.089c0,0.114-0.037,0.266-0.11,0.454
		l-0.029,0.071l-0.464,1.001l-0.161-2.069l-0.215-0.104c-0.017-0.009-0.032-0.019-0.047-0.028c-0.009-0.005-0.028-0.021-0.061-0.047
		c-0.019-0.016-0.043-0.046-0.068-0.09l-0.02-0.04l-0.013-0.042l-0.007-0.045l-0.001-0.047L199.088,106.032z M194.957,136.133
		c0.325-0.25,0.664-0.373,1.018-0.371h0.017l0.121,0.007c0.081,0.01,0.169,0.028,0.259,0.057c0.181,0.056,0.377,0.148,0.589,0.28
		c0.104,0.064,0.215,0.14,0.329,0.225l0.063,0.063c0.124,0.129,0.219,0.272,0.283,0.43l0.079,0.231
		c0.025,0.139,0.035,0.229,0.027,0.273c0.01,0.091-0.024,0.313-0.104,0.664c-0.063,0.223-0.211,0.461-0.443,0.715
		c-0.55-0.962-1.09-1.594-1.618-1.896c-0.23-0.117-0.457-0.15-0.682-0.101c-0.118,0.032-0.202,0.063-0.253,0.092l-0.463,0.318
		C194.308,136.79,194.566,136.459,194.957,136.133z M193.698,137.455l0.479-0.329h0.003c-0.023,0.065-0.046,0.127-0.063,0.185
		l-0.022,0.083c-0.014,0.055-0.021,0.104-0.028,0.149l-0.007,0.065v0.06l0.005,0.053c0.011,0.039,0.015,0.063,0.015,0.073
		L193.698,137.455z M194.397,138.32l-0.099-0.087l-0.081-0.097l-0.063-0.104l-0.047-0.113l-0.028-0.123h0.003l0.882,0.784
		l-0.167-0.052l-0.15-0.062l-0.134-0.068L194.397,138.32z M195.843,140.563c-0.265,0.108-0.571,0.201-0.921,0.278
		c-0.189,0.037-0.288,0.026-0.296-0.034c0.007-0.033,0.016-0.057,0.026-0.067c1.207-0.907,1.909-1.445,2.106-1.615
		c0.111-0.091,0.198-0.164,0.259-0.219c0.058-0.061,0.109-0.118,0.158-0.174l0.018-0.021c0.221,0.446,0.205,0.823-0.043,1.13
		c-0.113,0.128-0.306,0.262-0.574,0.401c-0.135,0.069-0.287,0.14-0.46,0.212L195.843,140.563z M198.963,183.985l-0.06-0.021
		l-0.11-0.059c-0.279-0.157-0.895-0.552-1.842-1.181l-0.503-0.335c0.967,0.54,2.019,1.16,3.155,1.861L198.963,183.985z
		 M220.863,201.601c-0.781-0.384-2.303-1.399-4.563-3.051l-8.655-6.568c-0.342-0.256-0.868-0.786-1.58-1.592l-3.167-3.731
		c-0.313-0.402-1.308-1.14-2.984-2.21l-0.303-0.189c3.948,1.666,6.319,2.891,7.111,3.672c1.11,0.889,2.642,2.64,4.589,5.253
		l2.468,2.211c1.573,1.387,3.012,2.594,4.31,3.622c1.052,0.68,1.978,1.287,2.782,1.829c-0.049-0.112-0.097-0.216-0.141-0.298
		c-1.069-1.71-1.805-3.066-2.205-4.069c-0.195-0.497-0.306-0.859-0.328-1.089l-0.015-0.175c-0.001-0.104,0.016-0.188,0.046-0.254
		c0.031-0.063,0.079-0.104,0.144-0.127l0.106-0.016c0.428-0.003,0.927,0.447,1.496,1.353c0.213,0.362,0.351,0.606,0.409,0.731
		c0.631,1.45,1.031,2.32,1.199,2.609l1.759,2.788c0.078,0.162,0.138,0.299,0.188,0.424c0.268,0.203,0.491,0.386,0.676,0.542
		l-0.55-0.167c0.014,0.061,0.019,0.11,0.016,0.149c0.023,0.054-0.054,0.363-0.232,0.927l-2.53-0.633
		c0.133-0.21,0.235-0.484,0.313-0.822c0.04-0.354,0.041-0.632,0.006-0.842C221.095,201.77,220.972,201.674,220.863,201.601z
		 M222.496,211.536c0.292-0.044,0.575-0.068,0.85-0.072l0.104-0.001c0.03-0.002,0.122,0.001,0.271,0.006
		c0.062,0.003,0.119,0.007,0.179,0.013c0.117,0.011,0.233,0.022,0.348,0.041l-3.861,0.506
		C221.228,211.837,221.932,211.673,222.496,211.536z M224.735,218.377c-0.438,1.67-0.921,3.239-1.451,4.708
		c-0.274,0.756-0.419,1.135-0.435,1.138c-0.087,0.179-0.188,0.332-0.305,0.461c-0.229,0.238-0.383,0.334-0.46,0.288
		c-0.059-0.007-0.099-0.052-0.119-0.136c-0.013,0.007-0.003-0.063,0.029-0.212l0.071-0.273c0.935-2.019,1.641-3.675,2.116-4.969
		c0.201-0.533,0.373-1.047,0.519-1.541c0.212-0.746,0.343-1.226,0.393-1.439l0.285-1.164l0.149-0.644
		C225.44,215.478,225.176,216.739,224.735,218.377z M225.583,214.081c-0.008,0.091-0.018,0.191-0.027,0.301l0.022-0.011h0.003
		l-0.045,0.194c0.009-0.073,0.015-0.136,0.02-0.183h-0.003l-0.042,0.021c0.035-0.224,0.059-0.354,0.068-0.395l0.003-0.011h0.003
		c0.001,0.002,0.001,0.005,0.001,0.01C225.586,214.022,225.585,214.047,225.583,214.081z M226.903,210.86
		c-0.125-0.064-0.034-0.486,0.271-1.265c-0.027-0.191-0.057-0.294-0.087-0.305c-0.078-0.059-0.172-0.097-0.28-0.113
		c-0.384,0.014-0.918-0.048-1.601-0.183c-0.479-0.106-0.818-0.214-1.02-0.322c-0.847-0.544-1.245-1.101-1.194-1.671
		c0.033-0.2,0.155-0.374,0.365-0.522c1.029-0.617,1.909-1.125,2.654-1.534l0.438-0.989l-0.329-0.061l-0.344-0.068l-0.313-0.072
		l-0.284-0.075l-0.254-0.078l-0.225-0.078l-0.195-0.083l-0.166-0.086l-0.136-0.087l2.247,0.685l1.047-2.364
		c0.605-2.564,1.02-4.146,1.239-4.742c1.645-3.189,2.564-5.171,2.764-5.939l3.723-11.151c0.34,2.199,0.567,4.51,0.684,6.932
		c-0.006,0.646-0.12,1.586-0.344,2.82c-0.222,1.28-0.43,2.193-0.626,2.738c-0.112,0.321-0.238,0.603-0.379,0.84
		c-0.402,0.502-1.351,1.904-2.844,4.208c-0.566,0.91-1.09,1.804-1.568,2.68c-0.717,1.31-1.336,2.581-1.856,3.815
		c0.171-0.078,0.332-0.147,0.481-0.209c0.407-0.181,0.79-0.276,1.15-0.285l0.092-0.001c0.844,0.068,1.314,0.246,1.411,0.531
		c0.085,0.301,0.104,0.57,0.061,0.81l-0.668,0.246c0.047,0.423,0.107,0.657,0.188,0.704l0.303,0.128l0.107,0.028
		c0.798,0.042,1.281,0.091,1.451,0.146c0.485,0.163,0.817,0.364,0.996,0.603c0.129,0.108,0.246,0.349,0.354,0.719
		c0.023,0.337,0.006,0.651-0.055,0.941c-0.172,0.828-0.691,1.463-1.55,1.905l2.704,1.293c-0.141-0.544-0.023-0.692,0.349-0.448
		c0.287,0.228,0.634,0.536,1.039,0.929c0.266,0.244,0.931,0.906,1.995,1.987c0.283,0.262,0.529,0.479,0.739,0.651
		c0.385,0.28,0.669,0.479,0.855,0.596c1.419,0.681,2.426,1.24,3.021,1.683c0.076,0.083,0.091,0.146,0.04,0.194
		c-0.089,0.049-0.161,0.072-0.217,0.071c-0.354,0.045-0.78,0.003-1.278-0.127c-0.437-0.104-0.819-0.243-1.151-0.418
		c-0.528-0.255-1.085-0.583-1.673-0.985l-0.331-0.26c-1.286-1.178-2.44-2.19-3.463-3.039s-1.913-1.531-2.674-2.051l-0.044-0.029
		c-0.013,0.007-0.023,0.015-0.036,0.021c-1.948,0.738-3.438,1.108-4.472,1.111C227.388,211.222,227.016,211.099,226.903,210.86z
		 M243.855,224.517c-2.727-2.711-4.858-4.959-6.398-6.744l-3.552-3.098c-1.384-0.717-2.317-0.396-2.805,0.96l-0.562-3.476
		c0.398,0.496,0.78,0.879,1.146,1.146c0.792,0.376,1.74,0.941,2.844,1.697c2.181,1.554,4.002,2.936,5.465,4.146l3.888,3.988
		c0.751,1.281,1.282,2.169,1.594,2.663C244.679,225.221,244.139,224.792,243.855,224.517z M250.491,230.055
		c-0.915-0.499-1.667-0.938-2.258-1.317c-0.197-0.114-0.549-0.365-1.053-0.756c-0.172-0.146-0.305-0.275-0.396-0.393
		c0.002,0.012-0.021,0.006-0.067-0.018c-0.042-0.029-0.101-0.089-0.173-0.178c-0.298-0.39-0.575-0.795-0.834-1.214l-0.235-0.376
		c1.252,0.9,2.57,1.813,3.953,2.738c0.107,0.083,0.214,0.169,0.318,0.256c0.314,0.264,0.618,0.545,0.909,0.848l1.471,1.631
		C251.553,230.835,251.008,230.428,250.491,230.055z M252.136,231.285c0.146,0.104,0.432,0.333,0.859,0.687
		c0.311,0.264,0.528,0.47,0.656,0.618c0.063,0.075,0.104,0.136,0.121,0.183c0.035,0.023,0.148,0.151,0.34,0.384
		c0.076,0.1,0.154,0.209,0.234,0.326c0.16,0.235,0.324,0.51,0.493,0.819L252.136,231.285z M257.543,194.153l-0.064,0.026
		l-0.067,0.025l-0.073,0.021l-0.079,0.021l-0.083,0.019l-0.088,0.017l-0.093,0.013l-0.099,0.01l0.702-0.183h0.004L257.543,194.153z
		 M261.131,193.851c-0.014,0.068-0.109,0.084-0.286,0.049c-0.136-0.056-0.3-0.209-0.492-0.459c-0.136-0.209-0.221-0.37-0.255-0.488
		c-0.078-0.21-0.176-0.555-0.296-1.03c-0.117-0.246-0.261-0.447-0.431-0.603c-0.063-0.062-0.134-0.109-0.202-0.163
		c-0.272,0.462-0.563,0.985-0.875,1.583c-0.662,0.694-1.123,1.212-1.404,1.567c0.002,0,0.004,0,0.006,0l-0.007,0.002
		c-0.028,0.035-0.063,0.077-0.088,0.109c-0.372,0.464-0.724,0.938-1.053,1.428c-0.368,0.391-0.701,0.688-0.996,0.895l-0.021,0.053
		c-0.211,0.206-1.673,0.938-4.386,2.196l-4.771,1.573l-0.854,0.542l-0.083,0.065c-0.083,0.054-0.219,0.127-0.408,0.22
		c-0.568,0.278-1.622,0.736-3.158,1.372c0.029,0.008,0.007,0.025-0.069,0.051c-0.169,0.05-0.347,0.096-0.53,0.136
		c0.436-0.313,0.971-0.643,1.606-0.987c0.53-0.289,1.329-0.634,2.396-1.035l1.099-0.362l9.022-5.739
		c-0.207-0.028-0.354-0.112-0.433-0.261c-0.119-0.151-0.17-0.416-0.153-0.791c0.057-0.752,0.348-1.484,0.875-2.2
		c0.381-0.385,0.786-0.64,1.215-0.766c0.402-0.12,0.632-0.182,0.689-0.185c0.272-0.058,0.563-0.074,0.866-0.053
		c0.445-0.169,0.854-0.263,1.225-0.28l0.138-0.003l0.34,0.022l0.079,0.019l0.774-0.73c-0.174,0.216-0.36,0.479-0.56,0.779
		l0.022,0.005l0.293,0.119l0.269,0.166l0.244,0.215c0.155,0.159,0.294,0.349,0.418,0.571c0.281,0.579,0.428,1.017,0.438,1.311
		C261.374,193.251,261.306,193.613,261.131,193.851z M263.722,87.75l-1.16,0.197c-0.184-0.002-0.293-0.054-0.328-0.153
		c-0.043-0.107-0.03-0.252,0.032-0.43l0.018-0.047l0.505-1.029c0.094-0.244,0.142-0.447,0.142-0.608
		c0.003-0.142-0.021-0.268-0.071-0.378l-0.088-0.139c-0.141-0.128-0.235-0.223-0.287-0.286c-0.024-0.026-0.05-0.07-0.074-0.129
		c-0.027-0.059-0.045-0.121-0.055-0.185l-0.004-0.032l0.002-0.153c0.044-0.325,0.255-0.686,0.634-1.081
		c0.276-0.304,0.672-0.54,1.183-0.708l0.148-0.04h0.004L263.722,87.75z M273.293,79.286c0.23-0.21,0.567-0.329,1.008-0.357
		l0.097-0.002c0.413,0.019,0.7,0.065,0.862,0.143c0.328,0.132,0.627,0.379,0.896,0.74c0.403,0.598,0.616,1.408,0.641,2.433
		c-0.096,1.301-0.323,2.406-0.685,3.315c-0.186,0.459-0.39,0.855-0.613,1.188c-0.112,0.167-0.23,0.315-0.354,0.451
		c-0.314,0.307-0.511,0.472-0.586,0.496c-0.011-0.054-0.005-0.112,0.021-0.178c0.281-0.525,0.482-0.937,0.603-1.232
		c0.068-0.146,0.138-0.375,0.205-0.688c0.132-0.57,0.126-1.166-0.017-1.784c-0.158-0.761-0.451-1.457-0.88-2.089
		c-0.293-0.406-0.528-0.695-0.705-0.866c-0.344-0.033-0.565-0.108-0.67-0.226c-0.071-0.058-0.124-0.183-0.16-0.376
		C272.98,79.849,273.093,79.527,273.293,79.286z M271.186,81.64l0.586-0.99l-0.022,0.824c0.175-0.139,0.265-0.178,0.27-0.114
		c0,0.043-0.042,0.135-0.125,0.274c-0.042,0.069-0.094,0.151-0.155,0.245l0.012-0.402h-0.004c-0.1,0.08-0.207,0.172-0.326,0.272
		c-0.051,0.041-0.081,0.063-0.089,0.068c-0.089,0.066-0.156,0.103-0.2,0.107l-0.033-0.015l-0.002-0.054
		C271.11,81.793,271.141,81.721,271.186,81.64z M270.924,104.136c0.33-0.262,0.587-0.447,0.772-0.556
		c0.106-0.063,0.212-0.116,0.313-0.158c0.055-0.034,0.201-0.074,0.439-0.118l0.139-0.008c0.072,0,0.144,0.007,0.212,0.021
		c0.037-0.001,0.137,0.033,0.299,0.106c0.127,0.068,0.247,0.163,0.359,0.285l0.387,2.988c-0.047-0.13-0.099-0.255-0.156-0.373
		c-0.153-0.289-0.254-0.456-0.299-0.5c-0.239-0.32-0.5-0.573-0.781-0.759c-0.267-0.176-0.537-0.275-0.814-0.302
		c-0.229-0.023-0.471,0.011-0.73,0.107c-0.203,0.055-0.466,0.228-0.789,0.518c-0.167,0.173-0.369,0.497-0.607,0.97
		c-0.103,0.278-0.157,0.573-0.166,0.886c0,0.161,0.112,0.437,0.339,0.827c0.016,0.087-0.032,0.132-0.146,0.136
		c-0.121,0.018-0.404-0.066-0.85-0.253c-0.101-0.042-0.21-0.13-0.328-0.266c-0.084-0.137-0.122-0.256-0.113-0.354
		c0.004-0.135,0.069-0.31,0.201-0.525c0.191-0.287,0.326-0.471,0.402-0.553l0.805-0.949
		C270.136,104.919,270.506,104.529,270.924,104.136z"/>
	<path fill="#C8C8C8" d="M12.144,119.904c1.058-6.419,2.105-10.585,3.146-12.496l12.755-18.943
		C34.15,73.126,39.688,62.444,44.658,56.42c1.987-2.237,4.054-3.772,6.195-4.607c3.884-1.052,8.378-1.728,13.485-2.026l7.389-0.171
		c1.66,0.334,4.439,2.006,8.338,5.014c1.451,0.344,2.851,0.267,4.196-0.236c1.849-0.731,3.155-1.992,3.921-3.782
		c-0.151-4.792,0.208-7.747,1.081-8.866c3.202-4.092,5.632-6.347,7.289-6.765l0.64-0.122c1.653-0.195,3.279,1.41,4.88,4.816
		l-0.17,13.548c0.05,0.657,0.277,1.393,0.685,2.204c0.113,0.181,0.238,0.328,0.374,0.451c0.652-0.299,1.3-0.586,1.939-0.854
		c2.964-0.804,5.561-1.085,7.788-0.846c1.018,0.139,1.687,0.305,2.007,0.5c2.724,2.318,4.486,3.433,5.291,3.341
		c0.812,0.203,3.413-0.021,7.805-0.674c1.313-0.343,2.793-1.209,4.443-2.599c1.643-3.229,3.136-5.395,4.478-6.496
		c2.173-1.646,4.243-2.811,6.208-3.499c2.958-1.657,12.159-3.021,27.606-4.086c1.968-0.351,5.736-1.792,11.308-4.328
		c0.66-0.18,1.241-0.279,1.744-0.3l0.185-0.003c0.599-0.038,1.146,0.141,1.641,0.534l1.585-0.064c0.843-0.875,1.761-2.5,2.756-4.885
		l0.28-0.224c-0.363-0.165-0.64-0.468-0.825-0.913c0.153-3.169-0.085-5.129-0.713-5.88c-0.382-0.86-1.798-1.343-4.24-1.447
		c-0.025,0.032-0.046,0.063-0.074,0.098c-0.401,0.399-1.062,0.655-1.977,0.769c-1.615,0.013-3.988,0.236-7.12,0.676
		c-0.331,0.024-1.077,0.051-2.239,0.078c-0.506-0.061-0.979-0.115-1.423-0.167c-5.342,0.854-9.896,1.435-13.653,1.739
		c-2.741,0.216-9.039,0.174-18.892-0.125c-4.113,0.066-6.955,0.18-8.527,0.34c-10.025,1.115-15.627,1.791-16.804,2.028
		c-3.001,0.454-8.338,1.511-16.01,3.17c-0.68,0.108-1.7,0.165-3.063,0.167c-1.445,0.073-2.764-0.4-3.954-1.421
		c-1.464-5.466-3.093-8.503-4.885-9.11c-2.344-0.426-6.427-0.436-12.244-0.029C60.59,28.92,48.997,38.478,38.612,50.058
		c-21.851,24.368-34.25,53.067-37.221,86.088c2.015-2.874,5.034-6.917,9.074-12.145C11.032,122.932,11.592,121.566,12.144,119.904z
		 M122.796,33.473l0.071,0.195l0.047,0.191l0.022,0.187c0.016,0.175,0.001,0.363-0.041,0.563c-0.021,0.101-0.049,0.203-0.085,0.31
		c-0.101,0.271-0.17,0.438-0.208,0.5c-0.058,0.102-0.12,0.196-0.186,0.282c-0.066,0.086-0.139,0.164-0.213,0.233l-0.117,0.101
		c-0.15,0.125-0.34,0.218-0.57,0.282c-0.203,0-0.331-0.09-0.385-0.269l-0.022-0.097c-0.011-0.069-0.015-0.148-0.011-0.238
		l0.006-0.067c0.012-0.055,0.035-0.131,0.072-0.229c0.113-0.292,0.347-0.772,0.703-1.442c0.025-0.054,0.048-0.113,0.067-0.181
		l0.025-0.104c0.047-0.218,0.064-0.491,0.052-0.821c-0.02-0.186-0.063-0.378-0.132-0.58l-0.026-0.076
		C122.319,32.659,122.631,33.078,122.796,33.473z M117.423,29.469l0.308-0.006c0.402-0.009,0.854,0.038,1.354,0.14
		c0.451,0.104,0.853,0.27,1.205,0.494c0.176,0.112,0.339,0.24,0.49,0.384l0.218,0.225c0.344,0.434,0.633,0.937,0.866,1.506
		l-0.698-0.633c-0.14-0.123-0.275-0.231-0.405-0.326c-0.13-0.094-0.255-0.173-0.375-0.238c-0.12-0.064-0.234-0.114-0.346-0.15
		l-0.162-0.043l-0.201-0.03l-0.097-0.002c-0.111,0.004-0.281,0.022-0.509,0.059c-0.262,0.104-0.612,0.215-1.053,0.333
		c-0.188,0.053-0.44,0.091-0.756,0.114c-0.195,0.001-0.402-0.02-0.621-0.062c-0.44-0.087-0.803-0.173-1.087-0.255l-0.844-1.02
		C115.688,29.665,116.593,29.502,117.423,29.469z"/>
	<path fill="#C8C8C8" d="M7.809,157.143c-0.87,1.964-1.961,4.635-3.278,8.025c-0.523,0.928-1.063,1.558-1.617,1.891
		c-0.374,0.147-0.813,0.18-1.315,0.094c0.065,0.549,0.133,1.097,0.204,1.643c1.874-1.468,4.244-2.992,7.113-4.574
		C8.383,161.687,8.019,159.332,7.809,157.143z"/>
	<path fill="#C8C8C8" d="M28.002,186.762c-0.529,0.088-1.027,0.139-1.503,0.158c1.935,1.104,3.513,0.973,4.731-0.406
		c2.856-3.118,3.845-6.859,2.964-11.226c-0.592-0.752-1.158-1.521-1.707-2.301c0.188,1.988,0.291,3.688,0.313,5.095
		C33.062,183.256,31.463,186.147,28.002,186.762z"/>
	<path fill="#C8C8C8" d="M13.77,166.159c0.475,3.912,1.333,6.893,2.578,8.939c1.384,2.155,2.688,4.027,3.912,5.628l-5.025-22.343
		C14.916,160.666,14.428,163.256,13.77,166.159z"/>
	<path fill="#C8C8C8" d="M96.223,213.407c-0.01,0.069-0.016,0.146-0.025,0.216c-0.065,0.46-0.141,0.908-0.224,1.347
		c-0.083,0.439-0.175,0.866-0.274,1.284l-0.157,0.618c-0.447,1.365-0.809,2.275-1.083,2.73l-0.13,0.189l-0.116,0.113l-0.103,0.038
		c-0.058,0.014-0.116-0.053-0.177-0.196l1.219-3.309c0.138-0.403,0.235-0.721,0.294-0.948c0.122-0.403,0.287-1.256,0.494-2.548
		c-0.721-1.242-1.605-3.146-2.657-5.717c-0.574-0.959-1.085-1.672-1.534-2.139c-0.649-0.993-3.985-2.898-10.01-5.721
		c-1.55-0.619-2.908-0.673-4.077-0.161l-0.412,0.229l-4.539,3.985c0.067,0.479,0.151,0.914,0.257,1.293l0.909,1.711l6.413,5.916
		c3.693,2.979,7.078,4.487,10.149,4.526c2.702,5.313,5.347,8.098,7.932,8.355c0.587,0.068,1.069,0.021,1.448-0.146
		c0.894-0.676,2.286-1.467,4.177-2.372l-7.417-8.775C96.467,213.779,96.347,213.604,96.223,213.407z"/>
	<path fill="#C8C8C8" d="M181.541,227.081c-13.289-0.013-21.88,1.168-25.772,3.543c-0.875,0.463-1.646,0.913-2.332,1.35
		c5.643-0.591,11.741-1.11,18.306-1.56l5.354,4.719c0.307,0.261,3.206,0.117,8.702-0.43c0.828,0.066,1.592,0.214,2.305,0.421
		C186.517,230.675,184.33,227.989,181.541,227.081z"/>
	<path fill="#C8C8C8" d="M257.656,190.568c-0.35,0.126-0.814,0.354-1.396,0.685c-0.292,0.15-0.601,0.354-0.926,0.611
		c-0.102,0.057-0.245,0.261-0.435,0.613c-0.116,0.281-0.173,0.451-0.169,0.511c-0.041,0.229-0.036,0.466,0.016,0.705
		c0.002,0.043,0.064,0.137,0.188,0.277c0.059,0.054,0.124,0.101,0.199,0.141c0.063,0.032,0.133,0.058,0.206,0.082l3.466-3.271
		C258.477,190.746,258.098,190.623,257.656,190.568z"/>
	<path fill="#9F9F9F" fill-opacity="0.898" d="M177.392,23.596c-2.094,0.372-4.085,0.708-5.979,1.011
		c0.443,0.051,0.917,0.105,1.423,0.166c1.162-0.026,1.908-0.054,2.239-0.078c3.132-0.438,5.505-0.663,7.119-0.676
		c0.915-0.112,1.574-0.369,1.978-0.769c0.028-0.036,0.049-0.065,0.074-0.098c-0.274-0.013-0.56-0.021-0.859-0.022
		C181.882,23.119,179.884,23.274,177.392,23.596z"/>
	<path fill="#9F9F9F" fill-opacity="0.898" d="M202.95,29.283l-4.416,0.694l-8.068,1.545c-0.16-0.022-0.307-0.066-0.442-0.128
		l-0.279,0.224c-0.995,2.385-1.913,4.011-2.757,4.885l7.063-0.287c0.699,0.236,2.09,0.839,4.171,1.808
		c2.301,1.261,3.438,2.084,3.413,2.47c1.617,2.628,2.507,4.633,2.669,6.012c1.424,6.176,0.829,9.6-1.785,10.273
		c-2.4,0.848-4.062,0.748-4.979-0.303c-0.507-4.055-1.654-7.205-3.441-9.453c-0.813-0.415-1.862,0.296-3.146,2.12
		c0.57,0.449,1.162,0.91,1.786,1.391c0.221-0.179,0.972,3.019,2.253,9.595c0.142,0.638,1.456,1.45,3.943,2.438
		c2.179,0.942,4.656,0.81,7.438-0.398c4.813-2.299,9.046-4.549,12.696-6.748c3.984-0.726,7.353-1.048,10.101-0.968
		c1.724,0.091,2.889,0.797,3.496,2.118c0.591,1.225,0.438,3.049-0.46,5.472c0.031,0.549,0.204,0.923,0.518,1.123
		c2.165,1.012,5.356,1.51,9.574,1.494c1.498,0.062,2.475-0.162,2.931-0.673l0.307-1.097l0.376-8.869
		c0.555-0.861,1.233-1.358,2.04-1.49c1.014-0.181,1.99-0.173,2.935,0.021c1.947,0.436,3.521,0.923,4.72,1.464
		c2.146,1.271,4.899,3.562,8.266,6.874c0.726,0.456,1.487,0.838,2.289,1.147c1.319,0.419,2.221,0.358,2.704-0.179
		c0.286-0.246,0.193-0.811-0.281-1.691l-6.354-7.454l-1.493-1.204c-1.421-1.142-2.451-1.931-3.092-2.368
		c-5.227-2.413-7.689-3.662-7.391-3.747c-0.563-0.249-1.6-2.313-3.112-6.19c-0.232-0.386-0.692-0.899-1.378-1.54
		c-0.036-0.25-2.156-1.114-6.362-2.592c-0.686-0.348-1.376-0.854-2.07-1.52c-0.682-0.612-1.127-1.974-1.341-4.07l-26.146-0.752
		C207.973,28.727,205.678,28.913,202.95,29.283z M220.322,39.793l-0.053-0.007c0.108,0.009,0.262,0.026,0.456,0.052
		C220.595,39.826,220.46,39.811,220.322,39.793z M214.86,34.695c0.353-0.805,0.716-1.398,1.091-1.784
		c1.075-0.955,2.296-1.485,3.656-1.591l0.519-0.021c0.72,0.034,1.634,0.217,2.741,0.548l0.676,0.233
		c0.432,0.165,0.827,0.347,1.186,0.548c0.359,0.201,0.683,0.419,0.968,0.656l1.482,1.307c0.098,0.083,0.225,0.226,0.379,0.431
		l0.148,0.44c0.096,0.382-0.017,1.139-0.334,2.269c-0.199,0.665-0.54,1.202-1.022,1.611c-0.241,0.204-0.519,0.377-0.831,0.519
		l-0.494,0.187c-0.423,0.121-0.731,0.186-0.927,0.194c-0.342,0.03-0.636,0.032-0.88,0.007c-0.984-0.185-1.69-0.304-2.118-0.362
		l0.651,0.545c-0.318-0.201-0.649-0.397-0.994-0.592l0.342,0.046l-0.031-0.026c0.193,0.015,0.479,0.012,0.854-0.011l0.46-0.058
		l0.425-0.096c0.271-0.077,0.521-0.18,0.744-0.308c0.449-0.255,0.807-0.611,1.068-1.072c0.036-0.17-0.087-0.345-0.368-0.523
		c-0.503-0.203-1.543-0.723-3.119-1.561c-1.359-0.489-2.54-0.855-3.542-1.099c-0.172-0.039-0.331-0.057-0.479-0.056l-0.808,0.075
		c-0.193,0.028-0.377,0.071-0.548,0.13c-0.171,0.058-0.33,0.13-0.478,0.218c-0.089,0.025-0.283,0.188-0.584,0.49
		C214.643,35.58,214.699,35.147,214.86,34.695z M214.546,36.353l0.096-0.301l0.03-0.038l0.016-0.018
		c0.082,0.484,0.229,0.868,0.436,1.146c0.258,0.316,0.415,0.494,0.471,0.533c0.216,0.208,0.439,0.377,0.67,0.507
		c0.283,0.155,0.597,0.272,0.938,0.351c0.171,0.034,0.274,0.053,0.312,0.055c0.517,0.021,0.962,0.059,1.338,0.113
		c0.187,0.04,0.463,0.118,0.831,0.233c0.161,0.049,0.348,0.126,0.558,0.233l0.827,0.692c-0.117-0.007-0.229-0.014-0.332-0.022
		l0.019,0.001l-0.221-0.119l-0.348-0.164c-0.274-0.093-0.525-0.166-0.753-0.219c-0.941-0.094-1.512-0.159-1.71-0.195
		c-0.313-0.043-0.627-0.104-0.941-0.184c-0.3-0.078-0.684-0.252-1.149-0.522c-0.227-0.149-0.42-0.307-0.578-0.468l-0.213-0.248
		c-0.125-0.167-0.215-0.341-0.271-0.521c-0.057-0.181-0.078-0.365-0.065-0.558L214.546,36.353z"/>
	<path fill="#9F9F9F" fill-opacity="0.898" d="M194.096,47.022c1.787,2.247,2.936,5.398,3.441,9.453
		c0.919,1.051,2.579,1.15,4.979,0.303c2.614-0.674,3.209-4.098,1.785-10.273c-0.162-1.379-1.052-3.383-2.669-6.012
		c0.025-0.387-1.112-1.209-3.413-2.471c-2.081-0.968-3.472-1.569-4.171-1.807l-7.063,0.287l-1.585,0.064
		c-0.495-0.394-1.042-0.571-1.64-0.534l-0.186,0.003c-0.503,0.021-1.084,0.12-1.743,0.3c-5.57,2.536-9.341,3.979-11.309,4.328
		c-15.446,1.065-24.648,2.429-27.605,4.086c-1.966,0.688-4.034,1.854-6.208,3.499c-1.342,1.102-2.835,3.267-4.479,6.496
		c-1.648,1.39-3.13,2.256-4.442,2.599c-4.393,0.653-6.994,0.877-7.806,0.674c-0.803,0.091-2.565-1.022-5.291-3.341
		c-0.319-0.195-0.988-0.361-2.006-0.5c-2.229-0.24-4.825,0.042-7.789,0.846c-0.639,0.268-1.287,0.555-1.938,0.854
		c0.17,0.156,0.356,0.272,0.563,0.338c0.408-0.531,0.74-0.768,0.998-0.709c0.353-0.115,1.884-0.171,4.599-0.167l-5.597,0.877
		c-6.813,6.394-13.201,10.171-19.166,11.335c-0.011,0.002-0.023,0.002-0.035,0.005l-3.482,2.978
		c-2.35,2.205-4.123,4.314-5.324,6.331c-2.132,4.611-2.507,7.685-1.125,9.218c1.607,2.667,3.593,4.322,5.958,4.965
		c0.778,0.178,1.637,0.273,2.579,0.286c6.298-0.548,9.912-0.721,10.843-0.52c2.112,0.924,4.157,3.108,6.133,6.556
		c1.021,0.527,1.973,0.766,2.854,0.714c4.058-0.655,7.942-2.759,11.656-6.314c0.729-0.735,1.827-4.054,3.298-9.952
		c0.611-1.457,1.66-2.905,3.146-4.346c2.673-2.633,6.057-4.125,10.147-4.475c0.949-0.004,1.664,0.235,2.141,0.719
		c0.857,0.896,1.442,1.989,1.756,3.286c0.249,1.122-0.178,3.818-1.277,8.088l0.403,2.558c-0.305,0.199,4.079,1.572,13.153,4.12
		c5.178,1.301,12.331,1.696,21.457,1.188c1.451-0.271,5.663-1.626,12.636-4.065c2.278-2.352,4.407-3.684,6.388-3.995
		c1.43-0.358,3.828,1.511,7.199,5.608l5.096,2.646l1.814,0.486c0.772,0.244,3.856,0.646,9.254,1.205
		c1.507-0.116,2.877-0.295,4.114-0.534l-5.305-13.797c0.372-0.147,0.669-0.23,0.891-0.248l0.079-0.003
		c0.199,0,0.325,0.064,0.379,0.191c0.435,2.031,0.761,3.323,0.979,3.877l1.3,2.65l0.971,2.091c0.873,2.047,1.317,3.24,1.334,3.578
		l0.946,1.303c1.599-0.423,2.922-0.973,3.969-1.65c3.054-2.354,3.807-5.24,2.26-8.66c-0.325-0.702-0.752-1.284-1.28-1.746
		l-9.614-7.574c-1.939-0.318-3.639-0.023-5.095,0.886c-2.635,4.84-4.855,7.53-6.666,8.067c-1.277,0.221-2.437,0.021-3.475-0.602
		c-0.821-0.23-2.212-1.643-4.171-4.236c-2.293-3.205-3.803-6.933-4.531-11.183c-0.481-1.864,0.065-4.877,1.646-9.041
		c-0.49-2.747-0.601-4.941-0.325-6.585c0.539-0.982,1.046-1.808,1.521-2.482C192.232,47.318,193.282,46.607,194.096,47.022z
		 M185.392,70.033c-0.025,0.161-0.129,0.372-0.306,0.632l-0.563,0.07c0.094-0.275,0.153-0.501,0.184-0.677
		c0.017-0.108,0.023-0.18,0.023-0.213c-0.002-0.036-0.006-0.061-0.011-0.075c-0.012-0.039-0.022-0.068-0.036-0.091l0.001-0.027
		c0.006-0.021,0.034-0.035,0.086-0.042h0.008c0.055,0,0.154,0.014,0.304,0.042l0.058,0.011l0.106,0.037l0.078,0.055l0.052,0.074
		l0.019,0.06l0.005,0.068L185.392,70.033z"/>
	<path fill="#9F9F9F" fill-opacity="0.898" d="M52.429,246.185c17.339,4.584,28.115,8.273,32.33,11.068
		c1.468,0.416,6.402,0.505,14.803,0.27c8.554-1.236,14.095-3.076,16.625-5.521c3.388-2.271,6.5-6.559,9.338-12.855
		c2.902-2.893,5.563-4.379,7.979-4.459c5.839-1.027,12.485-1.932,19.932-2.713c0.686-0.437,1.457-0.887,2.332-1.35
		c3.894-2.375,12.483-3.556,25.772-3.543c2.789,0.908,4.976,3.594,6.563,8.043c0.489,0.143,0.959,0.311,1.396,0.518l1.999,1.745
		c4.058,1.212,6.519,1.513,7.38,0.897c-0.42-9.873-1.454-17.578-3.103-23.116c-2.115,0.438-3.742,0.79-4.875,1.05l-10.141,3.049
		l-9.378,1.668c-4.332,1.104-7.411,1.776-9.236,2.021c-1.813,0.279-5.267,0.584-10.357,0.914l-9.256,0.15
		c-0.18-0.002-0.187-0.018-0.021-0.047c0.517-0.097,1.192-0.18,2.028-0.249c3.111-0.123,5.012-0.221,5.701-0.294l16.675-1.76
		c1.666-0.234,4.878-0.92,9.634-2.057c2.289-0.556,4.896-1.296,7.82-2.22l1.861-0.394l4.11-0.763l5.302-1.494
		c-0.339-1.097-0.701-2.111-1.09-3.03c-0.135-0.849,1.672-5.094,5.42-12.735c0.297-0.655,0.342-1.583,0.136-2.78l-8.161-12.691
		c-3.043,1.04-4.9,1.413-5.575,1.119c-5.229-4.769-8.423-7.235-9.586-7.4c-1.624-0.586-4.278-0.686-7.962-0.298
		c-2.595,0.354-4.729,1.159-6.414,2.412l6.625,1.825c7.744,3.787,11.934,5.494,12.569,5.119l-6.114,3.198l-1.771,0.184
		c-0.725,0.034-1.247-0.02-1.567-0.159c-2.272-1.654-6.06-3.475-11.355-5.463c-0.498-0.165-1.026-0.323-1.567-0.478
		c-0.101,0.507-0.099,1,0.012,1.478c2.237,4.107,3.509,7.089,3.813,8.946c0.28,2.091-0.341,3.414-1.862,3.97l-29.455-3.808
		c-2.976-0.256-4.896,0.145-5.762,1.197c-1.229,1.071-2.069,2.503-2.517,4.296c0.433,2.907,0.644,5.43,0.634,7.565
		c0.748,1.036,1.211,2.316,1.378,3.851c0.078,4.807-0.457,7.878-1.604,9.22c-1.078,1.647-2.407,2.873-3.988,3.675
		c-1.274,0.591-4.544,0.903-9.813,0.935c-2.314,0.063-3.965-0.225-4.95-0.862l-1.116-1.32c-1.89,0.905-3.283,1.696-4.177,2.372
		c-0.378,0.165-0.859,0.214-1.448,0.146c-2.585-0.26-5.229-3.045-7.931-8.356c-3.073-0.039-6.457-1.548-10.149-4.526l-6.413-5.916
		l-0.909-1.711c-0.105-0.379-0.189-0.813-0.257-1.293l-1.38,1.211l-19.087-5.097c4.957-4.86,11.023-7.719,18.197-8.575l0.208-0.001
		c0.837,0.021,1.72,0.077,2.646,0.166l4.301-12.086l8.184-13.516c-0.633-0.326-1.158-0.631-1.563-0.915
		c-3.743-4.135-6.558-6.998-8.441-8.592l-0.688-0.564c1.027,0.565,2.184,1.151,3.468,1.759c0.756,0.424,1.304,0.815,1.643,1.175
		c0.166,0.168,0.38,0.409,0.644,0.725l4.716,5.915c0.111,0.131,0.213,0.247,0.31,0.354l7.145-11.8l1.101-2.667
		c0.25-0.655,0.341-1.59,0.272-2.806l-2.204-6.575c0.601-5.689,0.109-10.384-1.473-14.083l0.78-8.531
		c-0.173-0.652-0.342-1.246-0.508-1.79c-0.229-0.158-0.445-0.31-0.627-0.451c-0.554-0.46-0.831-0.716-0.831-0.769l-0.139-0.207
		l-0.268-0.534l-0.103-0.257c-0.182-0.495-0.375-1.237-0.582-2.225c-1.944-1.772-5.476-4.261-10.595-7.463
		c-2.643-4.441-4.979-7.806-7.015-10.092c-1.069-0.685-2.09-1.045-3.062-1.08l-2.852,0.093l-1.912,0.438l1.129-0.083l4.007,3.761
		c-2.918-2.436-7.886-2.14-14.9,0.888c-6.589,3.321-14.375,9.968-23.358,19.936c-2.118,6.713-2.329,12.243-0.634,16.59
		c-1.447,2.229-2.577,6.559-3.387,12.979c0.97,2.037,2.389,4.521,4.269,7.464c1.174,6.974,1.962,12.597,2.364,16.873
		c0.548,0.78,1.116,1.549,1.708,2.301c0.88,4.365-0.107,8.107-2.964,11.226c-1.219,1.38-2.798,1.512-4.731,0.406
		c-2.702,0.112-4.543-0.882-5.52-2.988l-0.721-3.203c-1.225-1.602-2.527-3.474-3.912-5.628c-1.245-2.049-2.104-5.028-2.578-8.94
		c0.659-2.903,1.146-5.493,1.464-7.774l-0.75-3.331c-0.45-1.563-0.961-2.533-1.533-2.908c-1.06-0.761-2.192-0.252-3.4,1.521
		c-0.416,0.635-0.997,1.798-1.74,3.477c0.21,2.188,0.574,4.544,1.105,7.076c-2.869,1.582-5.239,3.106-7.113,4.574
		c1.249,9.707,3.39,19.077,6.431,28.105l7.377,18.013c5.707,11.631,12.743,22.282,21.106,31.952c0.633,0.727,1.274,1.438,1.918,2.15
		C44.048,246.894,48.647,245.947,52.429,246.185z M116.926,241.014l0.011-0.04c0.024-0.173,0.049-0.33,0.076-0.471
		s0.054-0.265,0.083-0.374c0.058-0.218,0.12-0.371,0.188-0.461l0.051-0.056h0.002l0.046,0.2l0.021,0.229l-0.005,0.256l-0.027,0.283
		l-0.055,0.31l-0.077,0.338l-0.104,0.364l-0.127,0.393l-0.159,0.436C116.871,241.632,116.896,241.163,116.926,241.014z
		 M112.075,244.601c0.392,0.412,0.774,0.696,1.148,0.852c0.311,0.104,0.495,0.149,0.555,0.137c0.309-0.063,0.488-0.111,0.54-0.145
		c0.229-0.09,0.44-0.214,0.637-0.37c0.116-0.08,0.377-0.351,0.784-0.81c0.46-0.543,0.797-1.069,1.011-1.583l0.097-0.255l-0.03,1.647
		l-0.024,0.403c-0.026,0.372-0.056,0.648-0.084,0.827c0.011-0.006-0.021,0.108-0.095,0.341c-0.249,0.678-0.796,1.205-1.643,1.588
		c-0.28,0.125-0.588,0.18-0.925,0.16c-0.146,0.013-0.496-0.105-1.055-0.354c-0.146-0.035-0.293-0.051-0.441-0.047
		c-0.196,0.015-0.454,0.069-0.776,0.167c-0.172,0.06-0.317,0.132-0.437,0.218L112.075,244.601z M74.439,154.971
		c0.115,0.076,0.33,0.236,0.646,0.479c-0.146-0.082-0.275-0.159-0.393-0.229c-0.116-0.07-0.22-0.137-0.308-0.196l-0.122-0.087
		c-0.075-0.054-0.135-0.104-0.181-0.146l-0.06-0.063l-0.038-0.053C74.128,154.762,74.278,154.859,74.439,154.971z M38.933,150.649
		l-0.014,0.026l-0.026,0.021l-0.039,0.017l-0.052,0.011l-0.063,0.007l-0.046-0.018l-0.041-0.026l-0.034-0.035l-0.03-0.046
		l-0.025-0.054l-0.02-0.063l-0.016-0.073l-0.009-0.082l-0.004-0.091c0.133,0.096,0.249,0.176,0.349,0.242l0.036,0.048l0.024,0.044
		l0.011,0.038L38.933,150.649z M42.089,144.701c-0.493,0.2-0.956,0.458-1.388,0.771c-0.629,0.512-1.14,1.221-1.529,2.125
		c-0.358,0.822-0.577,1.704-0.657,2.646c-0.464-0.338-0.756-0.62-0.875-0.844c-0.267-0.539-0.384-1.023-0.349-1.453
		c0.031-0.743,0.564-1.822,1.601-3.236c0.502-0.579,1.018-1.118,1.541-1.618c0.525-0.5,1.062-0.962,1.608-1.384l0.829-0.604
		c0.559-0.384,1.128-0.729,1.708-1.033c0.581-0.307,1.172-0.572,1.774-0.799l0.317-0.061l0.024-0.001
		c0.071-0.005,0.097,0.021,0.074,0.074c-0.678,0.413-1.142,0.795-1.393,1.146c-0.268,0.43-0.352,0.855-0.25,1.277
		c0.058,0.235,0.169,0.492,0.334,0.773l2.25,0.245c-0.766,0.157-1.279,0.288-1.543,0.396c-1.121,0.601-1.785,0.937-1.992,1.007
		C42.976,144.424,42.28,144.614,42.089,144.701z M49.614,214.129c-0.184,0.356-0.342,0.594-0.475,0.713
		c-0.268,0.271-0.572,0.485-0.913,0.646c-0.246,0.109-0.471,0.188-0.677,0.23c-0.909,0.142-1.777,0.313-2.605,0.521
		c-0.105,0.001-0.199-0.023-0.28-0.072c-0.049-0.046-0.087-0.16-0.114-0.342c0.02-0.258,0.131-0.633,0.334-1.124
		c0.066-0.163,0.186-0.403,0.356-0.72c0.523-0.836,1.034-1.72,1.529-2.65c0.148-0.231,0.295-0.355,0.438-0.375h0.007
		c0.033-0.007,0.122,0.027,0.266,0.102l1.39,1.449l-0.739-0.07c-0.104,0.055-0.215,0.133-0.333,0.235
		c-0.054,0.037-0.071,0.07-0.05,0.099c0.024,0.024,0.112,0.025,0.263,0.003c0.664-0.146,1.002-0.212,1.015-0.196
		c0.168-0.002,0.319,0.023,0.452,0.08c0.069,0.024,0.148,0.095,0.236,0.208c0.047,0.026,0.069,0.179,0.066,0.455
		C49.739,213.772,49.684,214.042,49.614,214.129z"/>
	<path fill="#9F9F9F" fill-opacity="0.898" d="M70.442,190.96c-7.174,0.856-13.239,3.715-18.196,8.575l19.087,5.097l1.379-1.211
		l4.539-3.985l0.412-0.229c1.169-0.512,2.527-0.458,4.077,0.161c6.023,2.82,9.36,4.728,10.01,5.721
		c0.448,0.467,0.959,1.18,1.534,2.139c1.052,2.569,1.937,4.475,2.658,5.717c0.021-0.128,0.041-0.256,0.063-0.394
		c0.317-1.349,0.486-2.135,0.506-2.356l0.007-0.043c0.001,0.115-0.026,0.561-0.085,1.333l-0.065,0.729
		c-0.041,0.406-0.091,0.802-0.145,1.194c0.125,0.195,0.245,0.372,0.358,0.522l7.417,8.775l1.116,1.319
		c0.984,0.64,2.635,0.927,4.949,0.863c5.269-0.031,8.538-0.344,9.813-0.935c1.581-0.802,2.91-2.026,3.989-3.675
		c1.146-1.342,1.68-4.413,1.603-9.22c-0.167-1.534-0.631-2.813-1.378-3.851c-0.384-0.532-0.838-1.004-1.375-1.404
		c-0.554-0.681-2.888-1.635-7-2.862c-4.142-0.897-7.673-1.299-10.595-1.198c-1.005-0.148-1.889-0.371-2.651-0.665
		c-1.099-0.429-3.208-1.825-6.323-4.188c0.003,0.038,0.004,0.072,0.006,0.111c0.01,0.259,0.075,1.078,0.196,2.456l0.069,1.604
		c0.086,0.717,0.15,1.364,0.19,1.944c0.006,0.11,0.009,0.2,0.008,0.27l-0.027,1.306c-0.058-0.531-0.282-2.02-0.672-4.464
		c-0.033-0.247-0.064-0.61-0.093-1.09c-0.005-0.107-0.012-0.216-0.016-0.324c-0.006-0.194-0.01-0.402-0.01-0.625
		c-0.001-0.423,0.01-0.901,0.03-1.43c-0.27-0.205-0.543-0.414-0.826-0.634c-1.294-0.72-2.359-1.174-3.194-1.362l-6.174-0.855
		l-9.29-2.282c-0.108-0.018-0.212-0.029-0.319-0.047c-1.457,0.771-2.863,1.538-4.212,2.299c-0.495,0.196-0.809,0.309-0.938,0.333
		c-0.513,0.145-0.773,0.104-0.779-0.123c-0.06-0.14,0.224-0.423,0.848-0.848l3.38-1.891c-0.345-0.041-0.691-0.083-1.024-0.115
		c-0.926-0.089-1.809-0.146-2.646-0.166L70.442,190.96z M96.545,209.427c0.006-0.214,0.012-0.447,0.017-0.702l0.003-0.073
		l0.003-0.154l0.003-0.235c0.001-0.184,0.002-0.422,0.003-0.712c0.001-0.583,0.002-1.379,0.001-2.391l0.012-0.563h0.002
		c0.006,0.048,0.019,0.154,0.038,0.323c0.004,0.038,0.012,0.12,0.023,0.245c0.003,0.03,0.006,0.087,0.01,0.169l0.035,0.373
		l0.027,0.369l0.021,0.366l0.014,0.361l0.007,0.359l0.001,0.356l-0.006,0.353l-0.013,0.35l-0.021,0.348
		c-0.007,0.098-0.017,0.198-0.026,0.305c-0.021,0.212-0.05,0.44-0.086,0.687c-0.048,0.313-0.078,0.506-0.093,0.577
		C96.533,209.835,96.541,209.599,96.545,209.427z"/>
	<path fill="#9B9B9B" fill-opacity="0.898" d="M2.913,167.059c0.555-0.333,1.094-0.963,1.617-1.891
		c1.317-3.392,2.408-6.063,3.278-8.025c0.743-1.678,1.325-2.841,1.74-3.476c1.208-1.774,2.342-2.282,3.401-1.522
		c0.571,0.375,1.083,1.346,1.532,2.909l0.75,3.331l5.025,22.343l0.721,3.203c0.977,2.107,2.817,3.103,5.52,2.989
		c0.476-0.021,0.974-0.07,1.503-0.158c3.461-0.612,5.061-3.506,4.799-8.68c-0.021-1.406-0.125-3.105-0.313-5.095
		c-0.403-4.276-1.19-9.899-2.365-16.873c-1.878-2.941-3.298-5.428-4.269-7.464c-0.849-1.783-1.354-3.225-1.508-4.313
		c-0.35-2.958-0.114-10.083,0.709-21.374c-0.694-7.804-0.944-13.325-0.75-16.563c0.158-2.97,1.164-6.508,3.02-10.616
		c1.123-2.449,4.04-7.297,8.752-14.546c2.007-5.512,3.226-8.572,3.654-9.186c3.253-4.006,7.113-7.007,11.583-9.002l5.866-2.752
		l1.684-0.09c2.022,0.26,5.101,1.563,9.231,3.911l9.664,0.175c3.234,2.398,5.422,3.484,6.566,3.261
		c0.011-0.002,0.023-0.002,0.035-0.005c5.964-1.164,12.353-4.942,19.166-11.335l5.597-0.877c-2.714-0.004-4.247,0.052-4.6,0.167
		c-0.258-0.059-0.59,0.178-0.997,0.709c-0.207-0.066-0.394-0.182-0.563-0.338c-0.135-0.124-0.261-0.271-0.374-0.451
		c-0.406-0.812-0.634-1.547-0.685-2.204l0.17-13.548c-1.601-3.406-3.227-5.012-4.88-4.817l-0.64,0.123
		c-1.657,0.417-4.087,2.672-7.289,6.765c-0.873,1.12-1.232,4.075-1.081,8.866c-0.767,1.789-2.074,3.051-3.921,3.782
		c-1.346,0.501-2.745,0.58-4.196,0.236c-3.898-3.008-6.679-4.68-8.338-5.014l-7.389,0.171c-5.107,0.299-9.602,0.975-13.485,2.025
		c-2.143,0.834-4.208,2.371-6.195,4.608c-4.97,6.024-10.507,16.706-16.613,32.045l-12.755,18.943
		c-1.041,1.911-2.089,6.077-3.146,12.496c-0.552,1.663-1.11,3.027-1.678,4.097c-4.04,5.228-7.06,9.271-9.074,12.145
		c-0.627,6.973-0.843,14.134-0.628,21.49c0.185,3.208,0.464,6.379,0.834,9.516C2.101,167.237,2.539,167.206,2.913,167.059z"/>
	<path fill="#9B9B9B" fill-opacity="0.898" d="M172.15,189.506c0.32,0.142,0.844,0.193,1.567,0.159l1.771-0.184l6.114-3.198
		c-0.637,0.375-4.825-1.332-12.569-5.119l-6.625-1.825l-2.535-0.698c-0.675-0.346-0.947-1.075-0.818-2.189l3.059-4.616
		c0.219-0.619,0.229-1.021,0.031-1.201c-0.155-0.303-1.052-0.588-2.688-0.856c-7.741-0.66-11.924-1.186-12.547-1.575
		c-1.654-0.601-4.184-2.836-7.586-6.71c-0.241-1.113-0.221-2.68,0.063-4.697c-0.657-1.276-0.994-2.288-1.013-3.033
		c-0.006-0.396,0.118-0.874,0.371-1.432c0.731-1.611,3.936-5.133,9.608-10.566c1.15-1.751,1.462-2.925,0.936-3.521
		c-1.083-0.749-2.097-0.912-3.042-0.488c-7.65,4.803-11.787,6.968-12.412,6.498c-4.111,0.368-8.196-1.181-12.256-4.646
		c-0.485-0.853-0.308-2.265,0.536-4.233c5.402-7.171,8.121-11.412,8.153-12.724l-3.131-9.514l1.089-13.039
		c-0.099-0.727-0.641-1.139-1.626-1.234l-0.242,0.01c-4.173,1.2-7.029,3.627-8.573,7.28c-1.149,1.521-1.738,6.524-1.766,15.01
		c-0.187,1.117-0.558,1.991-1.112,2.625c-0.518,0.677-1.644,1.525-3.379,2.548c-7.297,3.269-11.563,5.391-12.803,6.369
		c-2.361,1.919-3.182,3.558-2.459,4.915c-0.296,1.205,3.553,3.902,11.545,8.095c1.851,0.982,5.7,2.211,11.552,3.686
		c1.904,0.827,3.026,1.604,3.368,2.331c0.566,1.339,0.57,2.553,0.011,3.641c-2.752,3.82-4.747,6.905-5.994,9.268
		c1.731-1.101,3.104-1.898,4.108-2.389c0.783-0.313,1.516-0.507,2.195-0.586l0.152-0.006c0.271,0.012,0.423,0.061,0.459,0.147
		l-2.783,1.917c-1.984,0.879-3.626,1.732-4.935,2.563c-0.503,1.155-0.756,2.065-0.753,2.731c0.123,0.938,0.357,1.506,0.703,1.704
		c2.793,1.077,4.419,1.936,4.878,2.575c3.876,7.38,6.319,11.426,7.331,12.138c1.325,0.743,3.011,0.98,5.059,0.714
		c9.881-3.216,15.676-4.664,17.384-4.345c3.339,0.479,6.227,1.068,8.678,1.769c0.541,0.153,1.069,0.313,1.567,0.478
		C166.091,186.031,169.877,187.852,172.15,189.506z M140.514,172.604l-0.035,0.007c-0.07,0.014-0.142,0.004-0.214-0.031
		c-0.036-0.011-0.081-0.062-0.136-0.147c-0.073-0.138-0.11-0.352-0.109-0.643c0.017-0.677,0.046-1.309,0.089-1.896l0.019-0.236
		l1.195,2.601L140.514,172.604z"/>
	<path fill="#B2B1B1" fill-opacity="0.898" d="M256.52,237.522l0.253,1.319c-0.163-0.454-0.322-0.883-0.479-1.288
		c-2.495,0.328-5.13,0.507-7.911,0.533c-0.903-0.097-1.66-0.339-2.271-0.729c-0.889-1.457-2.327-2.989-4.318-4.603
		c-0.946-0.677-2.246-1.204-3.9-1.58c-4.079-0.451-10.925-0.787-20.536-1.007l-8.636,4.354l-6.394,1.855l-6.104,5.132l-4.725-4.124
		l-1.999-1.745c-0.437-0.208-0.905-0.375-1.396-0.518c-0.713-0.207-1.477-0.354-2.305-0.421c-5.496,0.547-8.396,0.689-8.702,0.43
		l-5.354-4.719c-6.563,0.448-12.663,0.969-18.306,1.56c-7.446,0.781-14.092,1.686-19.932,2.712
		c-2.418,0.082-5.078,1.567-7.979,4.459c-2.838,6.299-5.95,10.584-9.338,12.856c-2.53,2.444-8.071,4.284-16.625,5.521
		c-8.4,0.236-13.335,0.147-14.803-0.269c-4.215-2.795-14.991-6.484-32.33-11.068c-3.781-0.236-8.382,0.709-13.795,2.83
		c25.808,28.571,58.724,44.924,98.753,49.043c42.871,2.284,79.368-9.612,109.492-35.692c4.003-3.492,7.769-7.123,11.312-10.884
		c-0.011-0.067-0.019-0.173-0.021-0.313c0.043-0.301,0.078-0.615,0.104-0.942l0.031-0.501c0.018-0.34,0.023-0.692,0.021-1.06
		c-0.004-0.732-0.045-1.517-0.123-2.353l-1.427-7.451c0.488,1.352,1.004,2.911,1.545,4.684c0.457,1.517,0.734,2.455,0.834,2.813
		l0.08,0.615c0.096,0.806,0.143,1.553,0.141,2.24c-0.001,0.344-0.016,0.674-0.04,0.987l-0.006,0.06
		c4.885-5.297,9.317-10.856,13.304-16.677l-2.441-0.124C266.254,235.469,261.694,236.82,256.52,237.522z M166.138,285.868
		c-0.861,0.515-1.334,0.824-1.417,0.932c-0.313,0.335-0.595,0.805-0.85,1.409c-0.17,0.187-0.325,0.312-0.465,0.374
		c-0.158,0.084-0.339,0.148-0.538,0.193l-3.002,0.599c-0.151,0.03-0.949,0.271-2.394,0.717l-1.006,0.242
		c-0.075,0.026-1.141,0.178-3.197,0.454c-0.027,0.01-0.283,0.021-0.762,0.034c-0.4,0-0.78-0.184-1.142-0.547
		c-0.063,0.021-0.627-0.72-1.69-2.227c-0.045-0.267,0.028-0.499,0.22-0.698c0.505-0.446,1.052-0.813,1.644-1.097
		c0.853-0.453,1.486-0.737,1.903-0.854c0.353-0.107,0.707-0.18,1.063-0.215c0.435-0.029,0.715-0.035,0.839-0.02l0.214,0.871
		l0.313-0.167l-0.303,0.214l0.231,0.945l0.251-0.024c0.652-0.067,1.176-0.169,1.568-0.301l3.196-1.339
		c0.278-0.101,0.444-0.155,0.499-0.168c0.33-0.098,0.653-0.165,0.973-0.204l0.922-0.017h0.105c0.417,0,0.79,0.01,1.121,0.027
		l0.463,0.034c0.287,0.027,0.531,0.063,0.732,0.11c0.4,0.08,0.632,0.22,0.691,0.418
		C166.327,285.655,166.264,285.756,166.138,285.868z"/>
	<path fill="#B2B1B1" fill-opacity="0.898" d="M85.625,21.395c1.792,0.607,3.421,3.645,4.885,9.11
		c1.189,1.021,2.507,1.495,3.954,1.421c1.363-0.003,2.384-0.059,3.063-0.167c7.673-1.66,13.01-2.717,16.011-3.17
		c1.176-0.237,6.776-0.913,16.804-2.028c1.572-0.16,4.414-0.273,8.527-0.34c9.853,0.299,16.148,0.341,18.892,0.125
		c3.758-0.306,8.313-0.886,13.653-1.739c1.895-0.303,3.886-0.639,5.979-1.01c2.492-0.322,4.49-0.478,5.994-0.465
		c0.301,0.002,0.585,0.01,0.859,0.022c2.441,0.104,3.857,0.587,4.24,1.447c0.628,0.75,0.865,2.71,0.713,5.88
		c0.187,0.445,0.462,0.749,0.824,0.913c0.137,0.063,0.282,0.105,0.442,0.127l8.068-1.544l4.416-0.694
		c2.728-0.37,5.021-0.557,6.886-0.557l26.146,0.752l1.957,0.057C210.666,9.265,178.501-0.332,141.442,0.749
		C115.869,2.79,93.185,9.668,73.38,21.364C79.197,20.959,83.281,20.969,85.625,21.395z"/>
	<path fill="#DFDFDF" fill-opacity="0.898" d="M93.089,118.879c-0.024-0.062-0.056-0.125-0.096-0.193l-0.066-0.104
		c-0.095-0.141-0.222-0.295-0.379-0.461l-0.12-0.07l0.176,1.5c0.32,0.54,0.555,0.946,0.702,1.218l-0.168-1.715
		C93.13,118.999,93.113,118.94,93.089,118.879z"/>
	<path fill="#DFDFDF" fill-opacity="0.898" d="M95.726,132.289c0.004-1.954-0.013-3.628-0.048-5.022
		c-0.019-0.243-0.111-0.496-0.276-0.759c-0.084-0.131-0.185-0.264-0.305-0.399l-0.745-0.771c-0.044-0.15-0.067-0.412-0.069-0.781
		c0.007-0.51,0.018-0.848,0.031-1.016c-0.021-0.211-0.056-0.424-0.105-0.637c-0.105-0.548-0.406-1.258-0.902-2.13l0.061,0.611
		c0.429,0.965,0.655,1.58,0.681,1.845v0.084l-0.175,1.976l0.243,2c-0.022,0.304-0.04,0.635-0.053,0.992
		c-0.013,0.146-0.02,0.739-0.02,1.784c0.003,0.436,0.012,0.897,0.026,1.387l0.055,1.617l0.014,0.105
		c0.003,0.13,0.173,0.707,0.511,1.729l0.058,2.189c0.729,1.633,1.094,2.617,1.095,2.955l-0.016,0.097
		c0.013,0.104,0.015,0.288,0.006,0.552c-0.008,0.15-0.024,0.306-0.048,0.464c-0.163,1.024-0.37,2.211-0.619,3.562
		c-0.133,0.69-0.239,1.173-0.319,1.447c0.946-1.436,1.472-2.83,1.578-4.183c0.068-1.369,0.069-2.302,0.002-2.801
		c-0.468-2.413-0.714-3.9-0.74-4.462C95.688,134.058,95.716,133.248,95.726,132.289z"/>
	<path fill="#DFDFDF" fill-opacity="0.898" d="M84.019,101.627c-0.21-0.529-0.427-0.899-0.648-1.109
		c-0.082-0.09-0.169-0.175-0.263-0.256c-0.706-0.354-1.326-0.761-1.859-1.22c-0.631-0.505-1.369-1.153-2.214-1.945l-6.011-3.179
		l0.747,0.492c1.977,1.392,3.808,3.419,5.494,6.083c2.293,1.173,3.915,1.989,4.866,2.448
		C84.069,102.459,84.033,102.021,84.019,101.627z"/>
	<path fill="#DFDFDF" fill-opacity="0.898" d="M86.413,106.464l-0.062-0.101l-0.038-0.142l-0.073-0.125l-0.109-0.107l-0.144-0.091
		l-0.18-0.075l-0.214-0.059l-0.249-0.042l-0.285-0.023l-0.318-0.008h-0.127c-0.346,0.006-0.742,0.036-1.189,0.091L86.413,106.464z"
		/>
	<path fill="#DFDFDF" fill-opacity="0.898" d="M89.117,115.168l0.267,0.534l0.139,0.207c0,0.052,0.277,0.309,0.831,0.769
		c0.184,0.142,0.397,0.293,0.627,0.451c0.409,0.281,0.887,0.586,1.446,0.922l-0.052-0.447c-0.299-0.587-0.528-1.152-0.688-1.693
		c-0.062-0.144-0.142-0.536-0.242-1.181c-0.028-0.254-0.039-0.501-0.032-0.743l-0.83-1.917l-0.091-1.802l-0.394-1.722
		c-0.022-1.233-0.098-1.96-0.225-2.181c-0.382-0.688-0.881-1.21-1.498-1.566c-0.881-0.275-2.296-0.894-4.246-1.854l0.048,0.317
		c0.136,0.662,0.253,1.059,0.354,1.188c0.038,0.117,0.258,0.384,0.659,0.803c0.314,0.282,0.776,0.579,1.388,0.892
		c0.829,0.398,1.372,0.642,1.626,0.73l-1.792-0.408c0.136,0.233,0.26,0.483,0.372,0.75c0.07,0.113,0.21,0.551,0.418,1.315
		c0.148,0.635,0.249,1.338,0.299,2.107l0.837,1.59c0.031,0.158,0.063,0.311,0.093,0.458c0.207,0.988,0.4,1.729,0.582,2.226
		L89.117,115.168z"/>
	<path fill="#DFDFDF" fill-opacity="0.898" d="M228.291,203.786c0.521-1.234,1.141-2.507,1.856-3.815
		c0.479-0.876,1.002-1.77,1.568-2.68c1.493-2.304,2.44-3.706,2.844-4.208c0.141-0.237,0.267-0.52,0.379-0.84
		c0.196-0.545,0.404-1.458,0.626-2.738c0.224-1.235,0.337-2.175,0.344-2.821c-0.115-2.421-0.344-4.73-0.684-6.931l-3.723,11.151
		c-0.198,0.77-1.119,2.75-2.764,5.939c-0.221,0.597-0.634,2.177-1.239,4.742l-1.047,2.364l0.042,0.013l-0.044-0.008l-0.438,0.989
		c0.196-0.108,0.389-0.213,0.565-0.308C227.232,204.29,227.803,204.006,228.291,203.786z"/>
	<path fill="#DFDFDF" fill-opacity="0.898" d="M233.189,138.354c0.461,2.661,0.961,6.131,1.502,10.407l1.016,4.243
		c0.17,3.009,0.398,4.802,0.688,5.377c0.069,0.592,0.086,1.542,0.05,2.85c-0.457,4.171-0.669,7.296-0.633,9.373
		c-0.447,2.07-0.746,3.702-0.891,4.895c-0.018,1.179-0.007,2.041,0.032,2.588l0.275,1.66l0.935-2.797l0.343-2.762l0.28-2.626
		c0.165-1.706,0.288-3.324,0.369-4.854s0.119-2.969,0.115-4.319c-0.003-1.35-0.049-2.611-0.137-3.785l-0.163-1.691
		c-0.064-0.009-0.288-1.668-0.668-4.979l-0.477-5.359c-0.326-4.117-0.67-9.323-1.03-15.617l-0.479-2.789
		c-0.387-2.322-1.242-5.602-2.571-9.838c-0.974-2.171-1.914-4.151-2.824-5.939c-1.819-3.578-3.513-6.39-5.08-8.438
		c-1.903-2.227-3.009-3.331-3.316-3.317l7.844,19.236L233.189,138.354z"/>
	<path fill="#DFDFDF" fill-opacity="0.898" d="M214.43,89.067l-0.971-2.092l-1.3-2.649c-0.218-0.556-0.543-1.848-0.979-3.877
		c-0.054-0.127-0.18-0.191-0.379-0.191l-0.079,0.003c-0.222,0.018-0.519,0.1-0.891,0.248l5.305,13.796l2.183,5.679
		c1.119-0.293,2.187-0.075,3.202,0.648l-1.331-3.264l-2.48-3.419l-0.946-1.304C215.747,92.307,215.303,91.114,214.43,89.067z"/>
	<path fill="#DFDFDF" fill-opacity="0.898" d="M249.748,228.799c-0.104-0.087-0.211-0.173-0.318-0.256
		c-1.383-0.925-2.701-1.838-3.953-2.738l0.235,0.376c0.259,0.419,0.536,0.824,0.834,1.214c0.072,0.089,0.131,0.147,0.173,0.178
		c0.047,0.022,0.069,0.028,0.067,0.018c0.091,0.116,0.224,0.247,0.396,0.393c0.504,0.391,0.854,0.642,1.053,0.755
		c0.591,0.381,1.343,0.819,2.258,1.318c0.517,0.373,1.062,0.78,1.637,1.223l-1.471-1.632
		C250.366,229.344,250.063,229.062,249.748,228.799z"/>
	<path fill="#DFDFDF" fill-opacity="0.898" d="M239.992,219.149c-1.464-1.211-3.284-2.593-5.466-4.146
		c-1.103-0.756-2.051-1.321-2.843-1.697c-0.364-0.269-0.746-0.65-1.146-1.146l0.562,3.476c0.486-1.356,1.421-1.677,2.804-0.96
		l3.553,3.098c1.54,1.785,3.673,4.033,6.398,6.744c0.283,0.275,0.823,0.704,1.618,1.284c-0.312-0.494-0.843-1.382-1.594-2.663
		L239.992,219.149z"/>
	<path fill="#DFDFDF" fill-opacity="0.898" d="M254.112,233.155c-0.19-0.231-0.305-0.359-0.34-0.385
		c-0.018-0.046-0.058-0.105-0.121-0.182c-0.128-0.148-0.347-0.354-0.656-0.618c-0.43-0.354-0.715-0.582-0.859-0.687l2.705,3.017
		c-0.169-0.311-0.333-0.584-0.493-0.819C254.268,233.364,254.189,233.255,254.112,233.155z"/>
	<path fill="#DFDFDF" fill-opacity="0.898" d="M259.375,249.214c0.002-0.688-0.045-1.435-0.141-2.24l-0.081-0.614
		c-0.099-0.359-0.377-1.298-0.834-2.814c-0.541-1.771-1.056-3.332-1.544-4.683l1.427,7.451c0.078,0.836,0.119,1.619,0.123,2.352
		c0.003,0.366-0.004,0.72-0.021,1.061l-0.031,0.501c-0.024,0.327-0.061,0.642-0.104,0.941c0.002,0.143,0.01,0.246,0.021,0.314
		c0.384-0.405,0.763-0.813,1.14-1.222l0.006-0.059C259.36,249.888,259.374,249.558,259.375,249.214z"/>
	<path fill="#DFDFDF" fill-opacity="0.898" d="M256.52,237.522l-0.116-0.611c-0.061-0.18-0.125-0.355-0.196-0.526
		c-0.07-0.171-0.147-0.337-0.23-0.499c-0.082-0.162-0.171-0.318-0.265-0.472l-0.146-0.226c-0.1-0.147-0.206-0.291-0.315-0.431
		l-0.403-0.446l0.196,0.373c0.391,0.768,0.808,1.725,1.25,2.869c0.156,0.405,0.315,0.834,0.479,1.288L256.52,237.522z"/>
	<path fill="#DFDFDF" fill-opacity="0.898" d="M223.898,211.479c-0.06-0.005-0.117-0.009-0.179-0.012
		c-0.148-0.005-0.24-0.008-0.271-0.006l-0.104,0.001c-0.273,0.004-0.558,0.028-0.85,0.072c-0.564,0.137-1.27,0.301-2.112,0.491
		l3.861-0.506C224.132,211.504,224.016,211.491,223.898,211.479z"/>
	<path fill="#DFDFDF" fill-opacity="0.898" d="M220.376,212.028l-0.7,0.091c-0.455-0.015-1.164,0.045-2.127,0.176
		c-2.123,0.401-4.013,0.732-5.684,0.995c-0.177,0.08-0.351,0.16-0.521,0.241C214.517,213.197,217.533,212.703,220.376,212.028z"/>
	<path fill="#DFDFDF" fill-opacity="0.898" d="M186.23,217.001l-1.861,0.395c-2.925,0.924-5.531,1.663-7.82,2.219
		c-4.756,1.137-7.968,1.822-9.634,2.057l-16.675,1.76c-0.689,0.073-2.591,0.172-5.701,0.294c-0.836,0.069-1.513,0.152-2.028,0.249
		c-0.165,0.029-0.158,0.045,0.021,0.047l9.256-0.15c5.092-0.33,8.544-0.635,10.357-0.914c1.825-0.243,4.904-0.917,9.236-2.02
		l9.378-1.668l10.141-3.05c1.133-0.26,2.76-0.609,4.875-1.05c0.678-0.141,1.401-0.29,2.18-0.449c1.213-0.222,2.217-0.376,3.011-0.46
		c0.742,0.157,1.526,0.346,2.352,0.563c0.732,0.091,1.38,0.102,1.94,0.034l4.54-1.086c0.009-0.016,0.013-0.027,0.021-0.042
		c0.039-0.053,0.08-0.1,0.12-0.147c-0.685,0.096-1.321,0.177-1.911,0.243c-0.459,0.068-2.492,0.18-6.104,0.336l-0.96,0.101
		c-1.146-0.213-2.283-0.229-3.41-0.053l-1.911,0.538l-5.302,1.494L186.23,217.001z"/>
	<path fill="#DFDFDF" fill-opacity="0.898" d="M220.87,200.845c-0.806-0.542-1.73-1.149-2.782-1.829
		c-1.298-1.028-2.735-2.235-4.31-3.622l-2.468-2.211c-1.947-2.613-3.479-4.364-4.589-5.253c-0.792-0.781-3.163-2.006-7.111-3.672
		l0.303,0.189c1.678,1.07,2.673,1.808,2.984,2.21l3.167,3.731c0.712,0.806,1.238,1.336,1.58,1.592l8.655,6.568
		c2.261,1.65,3.781,2.667,4.563,3.051c0.107,0.073,0.23,0.169,0.36,0.277c-0.008-0.049-0.017-0.098-0.027-0.139
		C221.078,201.373,220.97,201.079,220.87,200.845z"/>
	<path fill="#DFDFDF" fill-opacity="0.898" d="M196.951,182.728c0.947,0.63,1.563,1.022,1.842,1.181l0.11,0.059l0.06,0.021
		l0.642,0.269c-1.138-0.701-2.188-1.321-3.155-1.861L196.951,182.728z"/>
	<path fill="#DFDFDF" fill-opacity="0.898" d="M224.204,203.266c-0.185-0.156-0.408-0.339-0.675-0.542
		c0.061,0.149,0.104,0.278,0.126,0.375L224.204,203.266z"/>
	<polygon fill="#DFDFDF" fill-opacity="0.898" points="226.453,203.951 224.206,203.268 224.342,203.354 224.508,203.438 
		224.703,203.522 224.928,203.602 225.182,203.68 225.466,203.755 225.778,203.827 226.122,203.897 226.451,203.956 
		226.495,203.964 	"/>
	<path fill="#DFDFDF" fill-opacity="0.898" d="M254.755,194.835c-0.058,0-0.108-0.006-0.158-0.013l-9.021,5.739l4.771-1.573
		c2.713-1.259,4.175-1.99,4.386-2.196l0.021-0.053c0.295-0.206,0.628-0.504,0.996-0.895c0.329-0.487,0.681-0.964,1.053-1.428
		c0.023-0.032,0.06-0.074,0.088-0.109l-1.824,0.479C254.952,194.813,254.85,194.831,254.755,194.835z"/>
	<path fill="#DFDFDF" fill-opacity="0.898" d="M260.212,189.596l-0.774,0.73l0.217,0.049
		C259.852,190.073,260.038,189.812,260.212,189.596z"/>
	<path fill="#DFDFDF" fill-opacity="0.898" d="M255.341,194.193c0.109,0.036,0.229,0.066,0.366,0.086
		c0.435,0.046,0.829,0.055,1.183,0.026c0.281-0.355,0.742-0.873,1.404-1.567c0.312-0.598,0.603-1.121,0.875-1.583
		c-0.112-0.087-0.233-0.165-0.362-0.233L255.341,194.193z"/>
	<path fill="#DFDFDF" fill-opacity="0.898" d="M242.078,201.96c-0.637,0.346-1.171,0.675-1.606,0.987
		c0.186-0.04,0.361-0.085,0.53-0.136c0.076-0.024,0.1-0.043,0.07-0.051c1.535-0.636,2.589-1.094,3.157-1.372
		c0.189-0.093,0.325-0.166,0.408-0.22l0.083-0.065l0.854-0.542l-1.1,0.362C243.408,201.326,242.61,201.671,242.078,201.96z"/>
	<path fill="#DFDFDF" fill-opacity="0.898" d="M239.531,203.772l0.256-0.268c0.19-0.18,0.418-0.365,0.68-0.557l-0.271,0.06
		c-0.789,0.168-2.104,0.422-3.946,0.76c-0.277,0.07-0.582,0.169-0.911,0.295c-0.232,0.079-0.686,0.28-1.354,0.604l5.202,0.527
		c-0.149-0.283-0.148-0.589,0.003-0.915C239.265,204.115,239.379,203.946,239.531,203.772z"/>
	<path fill="#DFDFDF" fill-opacity="0.898" d="M234.516,200.501l-0.079,0.231c-0.035,0.152-0.033,0.306,0.003,0.453l-0.633,1.652
		c2.37-1.263,3.959-2.231,4.771-2.907l3.047-2.808c1.974-1.55,3.139-2.487,3.498-2.813c0.836-0.767,1.308-1.209,1.413-1.325
		c0.392-0.392,0.555-0.595,0.491-0.608l-0.014,0.002c-2.385,1.532-4.865,3.001-7.442,4.403c-0.64,0.382-2.037,1.303-4.194,2.764
		C234.944,199.871,234.658,200.19,234.516,200.501z"/>
	<path fill="#DFDFDF" fill-opacity="0.898" d="M221.219,202.72c-0.076,0.338-0.18,0.612-0.313,0.822l2.53,0.633
		c0.18-0.563,0.258-0.873,0.232-0.927c0.003-0.039-0.002-0.09-0.016-0.149c-0.021-0.097-0.064-0.226-0.125-0.375
		c-0.051-0.125-0.109-0.262-0.188-0.424l-1.759-2.788c-0.168-0.289-0.568-1.159-1.199-2.609c-0.06-0.125-0.196-0.369-0.409-0.731
		c-0.569-0.904-1.068-1.354-1.496-1.353l-0.106,0.016c-0.063,0.021-0.111,0.063-0.144,0.127c-0.03,0.064-0.047,0.148-0.046,0.254
		l0.015,0.175c0.022,0.229,0.133,0.592,0.328,1.089c0.4,1.003,1.136,2.359,2.205,4.069c0.044,0.082,0.092,0.186,0.141,0.298
		c0.1,0.234,0.208,0.528,0.326,0.896c0.012,0.041,0.021,0.09,0.027,0.139C221.26,202.088,221.259,202.366,221.219,202.72z"/>
	<path fill="#DFDFDF" fill-opacity="0.898" d="M209.797,213.769c-0.104,0.182-0.111,0.342-0.015,0.479
		c0.02,0.007,0.121-0.024,0.308-0.092c0.403-0.212,0.823-0.419,1.254-0.623c0.172-0.081,0.346-0.161,0.521-0.241
		c0.41-0.188,0.831-0.371,1.266-0.551c0.37-0.155,0.994-0.387,1.874-0.692c0.916-0.344,3.222-0.999,6.917-1.967
		c0.933-0.286,1.579-0.521,1.938-0.702l-3.727-0.845c-0.133-0.049-0.267-0.088-0.402-0.115c-0.238-0.041-0.411-0.058-0.518-0.052
		l-0.229,0.01c-0.463,0.039-0.941,0.196-1.438,0.471c-0.166,0.092-0.333,0.196-0.503,0.313l-6.284,3.653
		c-0.295,0.2-0.566,0.457-0.818,0.766c-0.04,0.049-0.081,0.096-0.12,0.146C209.81,213.741,209.806,213.754,209.797,213.769z"/>
	<path fill="#DFDFDF" fill-opacity="0.898" d="M225.582,214l-0.003,0.011c-0.012,0.039-0.033,0.171-0.068,0.395l0.042-0.021h0.003
		c-0.005,0.047-0.011,0.108-0.02,0.184l0.045-0.195h-0.003l-0.022,0.011c0.011-0.108,0.021-0.21,0.027-0.301
		c0.002-0.034,0.003-0.059,0.003-0.071c0-0.005,0-0.008-0.001-0.01L225.582,214L225.582,214z"/>
	<path fill="#DFDFDF" fill-opacity="0.898" d="M225.095,216.4c-0.05,0.215-0.181,0.693-0.393,1.439
		c-0.146,0.494-0.316,1.008-0.519,1.541c-0.477,1.294-1.183,2.95-2.116,4.969l-0.071,0.273c-0.032,0.146-0.042,0.219-0.029,0.212
		c0.021,0.084,0.062,0.129,0.119,0.136c0.077,0.046,0.229-0.05,0.46-0.288c0.116-0.129,0.218-0.281,0.305-0.461
		c0.016-0.003,0.159-0.382,0.435-1.138c0.53-1.469,1.015-3.038,1.452-4.708c0.438-1.638,0.703-2.899,0.794-3.783l-0.15,0.644
		L225.095,216.4z"/>
	<path fill="#DFDFDF" fill-opacity="0.898" d="M232.569,210.129c0.761,0.519,1.65,1.202,2.674,2.051
		c1.021,0.849,2.177,1.861,3.463,3.039l0.331,0.259c0.588,0.403,1.145,0.731,1.673,0.986c0.332,0.175,0.716,0.314,1.151,0.418
		c0.498,0.13,0.925,0.172,1.278,0.127c0.057,0.001,0.128-0.022,0.217-0.072c0.051-0.047,0.036-0.11-0.04-0.193
		c-0.595-0.441-1.602-1.002-3.021-1.683c-0.188-0.115-0.472-0.314-0.855-0.596c-0.21-0.173-0.456-0.391-0.739-0.651
		c-1.064-1.081-1.729-1.743-1.995-1.987c-0.405-0.393-0.752-0.701-1.039-0.929c-0.372-0.244-0.488-0.096-0.349,0.448l-2.703-1.293
		c-0.03,0.017-0.06,0.032-0.09,0.047L232.569,210.129z"/>
	<path fill="#DFDFDF" fill-opacity="0.898" d="M94.672,170.778c-1.722-1.305-2.676-2-2.863-2.088l-3.007-1.338l0.054,0.058
		c0.147,0.162,0.321,0.426,0.523,0.79l0.634,1.661c0.494,0.925,0.958,1.857,1.391,2.798c0.316,0.645,0.836,1.888,1.558,3.728
		c0.123,0.23,0.321,0.491,0.595,0.781c0.274,0.29,0.625,0.609,1.05,0.959l0.384-7.886C94.961,170.659,94.855,170.838,94.672,170.778
		z"/>
	<path fill="#DFDFDF" fill-opacity="0.898" d="M88.249,166.84c-0.15-0.12-0.309-0.232-0.473-0.338
		c-0.258-0.123-0.503-0.24-0.734-0.353c-0.182-0.088-0.45-0.221-0.809-0.397l0.069,0.065c0.185,0.172,0.376,0.337,0.577,0.491
		l-0.007,0.033l0.048,0.054c0.05,0.043,0.138,0.1,0.262,0.17c0.124,0.069,0.285,0.153,0.481,0.252
		c0.053,0.031,0.432,0.21,1.137,0.533l-0.226-0.226C88.542,167.09,88.433,166.995,88.249,166.84z"/>
	<path fill="#DFDFDF" fill-opacity="0.898" d="M74.081,154.79c0.046,0.043,0.105,0.093,0.181,0.146l0.122,0.087
		c0.088,0.061,0.191,0.125,0.308,0.196c0.117,0.07,0.248,0.147,0.393,0.229c-0.315-0.242-0.53-0.402-0.646-0.479
		c-0.16-0.11-0.312-0.209-0.456-0.295l0.038,0.053L74.081,154.79z"/>
	<path fill="#DFDFDF" fill-opacity="0.898" d="M80.842,159.109c-0.263-0.314-0.477-0.557-0.643-0.725
		c-0.339-0.358-0.888-0.751-1.644-1.175c-1.284-0.607-2.438-1.193-3.468-1.759l0.688,0.563c1.886,1.595,4.699,4.457,8.441,8.593
		c0.405,0.283,0.93,0.589,1.563,0.915c0.146,0.073,0.292,0.148,0.449,0.227c-0.107-0.102-0.229-0.227-0.362-0.371
		c-0.098-0.107-0.199-0.224-0.311-0.354L80.842,159.109z"/>
	<path fill="#DFDFDF" fill-opacity="0.898" d="M95.153,216.44l-1.22,3.308c0.061,0.145,0.119,0.21,0.177,0.196l0.103-0.038
		l0.116-0.113l0.13-0.19c0.273-0.454,0.635-1.364,1.083-2.729l0.157-0.618c0.1-0.418,0.191-0.846,0.274-1.284
		c0.083-0.438,0.157-0.887,0.224-1.347c0.01-0.07,0.017-0.146,0.025-0.216c0.054-0.394,0.104-0.788,0.145-1.194l0.065-0.729
		c0.059-0.772,0.086-1.218,0.085-1.333l-0.007,0.043c-0.021,0.223-0.188,1.009-0.506,2.356c-0.021,0.139-0.042,0.266-0.063,0.394
		c-0.207,1.292-0.372,2.145-0.495,2.548C95.389,215.72,95.291,216.036,95.153,216.44z"/>
	<path fill="#DFDFDF" fill-opacity="0.898" d="M96.589,186.756c-0.001-0.091-0.006-0.17-0.014-0.238l-0.016-0.094
		c-0.012-0.057-0.026-0.102-0.046-0.136c-0.06-0.124-0.174-0.1-0.344,0.073l-0.021-0.316h-0.002l-0.031,0.378l0.055-0.061
		c0.028,0.389,0.059,0.743,0.091,1.064c0.004,0.092,0.006,0.155,0.006,0.194l0.006,0.533c-0.001,0.162-0.017,0.458-0.047,0.89
		c-0.029,0.432-0.075,0.999-0.134,1.7c-0.003,0.044-0.009,0.169-0.018,0.373c-0.01,0.242-0.015,0.472-0.015,0.688
		c0.002,0.627,0.005,1.109,0.008,1.445l0.213-2.476c0.122-1.447,0.209-2.489,0.259-3.126l0.029-0.402l0.018-0.25l0.003-0.098h-0.002
		L96.589,186.756z"/>
	<path fill="#DFDFDF" fill-opacity="0.898" d="M96.129,185.683l0.021,0.352l0.213-2.486h-0.003
		c-0.025,0.075-0.051,0.157-0.073,0.245c-0.023,0.088-0.044,0.184-0.063,0.285l-0.026,0.157l-0.024,0.167l-0.022,0.177l-0.018,0.188
		l-0.016,0.196c-0.001,0.061-0.002,0.12-0.002,0.181c0,0.121,0.002,0.24,0.006,0.36C96.122,185.563,96.125,185.623,96.129,185.683z"
		/>
	<path fill="#DFDFDF" fill-opacity="0.898" d="M96.698,208.872c0.011-0.105,0.02-0.207,0.026-0.305l0.021-0.348l0.013-0.35
		l0.006-0.354l-0.001-0.355l-0.007-0.359l-0.014-0.361l-0.021-0.366l-0.028-0.369l-0.034-0.373
		c-0.003-0.082-0.007-0.139-0.011-0.169c-0.011-0.125-0.019-0.207-0.022-0.245c-0.02-0.169-0.031-0.275-0.038-0.323h-0.002
		l-0.012,0.563c0,1.012,0,1.808-0.002,2.391c0,0.29-0.002,0.528-0.003,0.712l-0.002,0.235l-0.003,0.153l-0.003,0.074
		c-0.005,0.254-0.01,0.488-0.017,0.702c-0.004,0.172-0.012,0.408-0.025,0.709c0.014-0.072,0.044-0.266,0.092-0.578
		C96.647,209.313,96.676,209.084,96.698,208.872z"/>
	<path fill="#DFDFDF" fill-opacity="0.898" d="M95.807,198.705c0.004,0.108,0.009,0.217,0.016,0.324
		c0.028,0.479,0.06,0.843,0.093,1.09c0.39,2.444,0.614,3.933,0.672,4.464l0.027-1.305c0.001-0.069-0.002-0.159-0.009-0.271
		c-0.04-0.58-0.104-1.229-0.189-1.944l-0.069-1.604c-0.122-1.378-0.187-2.197-0.197-2.456c-0.002-0.039-0.003-0.073-0.005-0.111
		c-0.024-0.524-0.04-0.961-0.045-1.3c-0.005-0.236-0.01-0.503-0.014-0.799c-0.01-0.788-0.015-1.295-0.016-1.521h-0.003l-0.034,0.405
		l-0.132,1.521c-0.046,0.789-0.069,1.244-0.071,1.367c-0.001,0.028-0.001,0.055-0.002,0.085c-0.021,0.526-0.031,1.006-0.03,1.429
		C95.797,198.303,95.801,198.511,95.807,198.705z"/>
	<path fill="#DFDFDF" fill-opacity="0.898" d="M70.94,193.131c-0.624,0.425-0.906,0.708-0.847,0.849
		c0.006,0.226,0.267,0.267,0.779,0.122c0.13-0.024,0.441-0.137,0.938-0.333c1.35-0.761,2.755-1.526,4.212-2.299
		c2.022-1.069,4.146-2.148,6.374-3.238c3.698-2.312,5.853-3.547,6.462-3.705c2.023-1.345,3.1-2.032,3.227-2.065
		c0.171-0.106,0.753-0.315,1.746-0.629l0.212,0.058l0.909-0.386l-0.137,0.038l-0.983,0.29c-0.677-0.14-1.365-0.099-2.066,0.127
		c-1.125,0.37-2.49,0.977-4.097,1.819l-13.345,7.463L70.94,193.131z"/>
	<path fill="#DFDFDF" fill-opacity="0.898" d="M123.665,161.801c-0.036-0.088-0.189-0.137-0.459-0.147l-0.152,0.006
		c-0.681,0.079-1.413,0.273-2.195,0.586c-1.005,0.489-2.377,1.288-4.108,2.389c-0.07,0.045-0.136,0.086-0.208,0.132
		c-0.879,0.671-1.446,1.132-1.701,1.384c-0.854,0.761-1.841,1.716-2.96,2.865l-5.839,3.685l-1.012,0.789
		c-0.265,0.211-0.846,0.737-1.744,1.582l-1.036,1.691c0.262-0.377,0.578-0.706,0.95-0.984l2.545-1.8
		c3.832-3.008,6.78-5.261,8.847-6.759c0.401-0.31,0.854-0.622,1.354-0.938c1.309-0.829,2.95-1.684,4.935-2.563L123.665,161.801z"/>
	<path fill="#DFDFDF" fill-opacity="0.898" d="M107.886,156.756l0.095-0.179l0.043-0.108l-0.01-0.037h-0.001
		c-0.154,0.064-0.438,0.44-0.854,1.128l-0.165,0.273c-0.175,0.364-0.423,0.857-0.745,1.479c0.901-1.358,1.397-2.128,1.493-2.307
		L107.886,156.756z"/>
	<path fill="#DFDFDF" fill-opacity="0.898" d="M98.494,171.714c1.2-1.541,1.999-2.628,2.395-3.263
		c2.128-3.336,3.912-6.379,5.352-9.127l-0.114,0.17c-1.073,1.61-1.875,2.766-2.407,3.463c-1.171,1.595-2.854,3.807-5.052,6.635
		c-0.371,0.511-0.647,0.929-0.83,1.255c-0.235,0.396-0.481,0.844-0.739,1.34l0.563,0.948
		C97.839,172.761,98.116,172.287,98.494,171.714z"/>
	<path fill="#DFDFDF" fill-opacity="0.898" d="M165.636,285.149c-0.201-0.048-0.445-0.084-0.731-0.11l-0.464-0.034
		c-0.33-0.02-0.703-0.028-1.12-0.028h-0.106l-0.922,0.018c-0.318,0.039-0.643,0.106-0.972,0.204
		c-0.056,0.013-0.222,0.067-0.499,0.168l-3.197,1.339c-0.394,0.132-0.916,0.231-1.568,0.301l-0.251,0.024l-0.23-0.945l-0.89,0.632
		c-0.115,0.076-0.219,0.14-0.309,0.188c-0.126,0.063-0.214,0.103-0.269,0.111c-0.061,0.018-0.112,0.017-0.155-0.004l-0.047-0.05
		c-0.014-0.029-0.019-0.063-0.018-0.099c-0.001-0.06,0.026-0.119,0.082-0.183c0.074-0.069,0.168-0.121,0.279-0.152
		c0.059-0.02,0.124-0.034,0.197-0.049l0.112-0.02c0.08-0.012,0.167-0.021,0.261-0.028l0.74-0.395l-0.214-0.871
		c-0.124-0.017-0.404-0.011-0.839,0.019c-0.356,0.036-0.712,0.107-1.063,0.216c-0.417,0.116-1.052,0.401-1.903,0.854
		c-0.591,0.284-1.139,0.649-1.644,1.096c-0.191,0.2-0.266,0.434-0.22,0.699c1.064,1.507,1.628,2.248,1.69,2.227
		c0.36,0.363,0.74,0.547,1.142,0.547c0.479-0.014,0.733-0.024,0.762-0.034c2.058-0.276,3.122-0.429,3.197-0.454l1.006-0.242
		c1.443-0.447,2.241-0.687,2.394-0.717l3.002-0.6c0.2-0.045,0.38-0.108,0.538-0.192c0.14-0.063,0.295-0.188,0.465-0.374
		c0.255-0.604,0.537-1.074,0.85-1.409c0.083-0.106,0.557-0.417,1.417-0.932c0.126-0.112,0.189-0.214,0.19-0.302
		C166.268,285.369,166.037,285.229,165.636,285.149z"/>
	<path fill="#DFDFDF" fill-opacity="0.898" d="M214.839,37.722l0.213,0.248c0.158,0.162,0.352,0.318,0.578,0.469
		c0.467,0.27,0.851,0.443,1.148,0.521c0.315,0.08,0.631,0.141,0.942,0.184c0.198,0.036,0.769,0.102,1.71,0.195
		c0.228,0.053,0.479,0.126,0.753,0.219l0.348,0.164l0.221,0.119l-0.02-0.001c0.104,0.009,0.216,0.018,0.332,0.022l-0.827-0.692
		c-0.21-0.106-0.396-0.184-0.557-0.233c-0.368-0.115-0.646-0.193-0.831-0.233c-0.376-0.054-0.822-0.092-1.338-0.113
		c-0.036-0.002-0.141-0.021-0.312-0.055c-0.344-0.078-0.655-0.194-0.938-0.351c-0.229-0.13-0.454-0.299-0.67-0.507
		c-0.056-0.04-0.213-0.217-0.471-0.532c-0.207-0.279-0.354-0.662-0.436-1.147l-0.016,0.018l-0.03,0.038l-0.096,0.302l-0.044,0.292
		c-0.014,0.191,0.01,0.377,0.064,0.557C214.624,37.381,214.714,37.555,214.839,37.722z"/>
	<path fill="#DFDFDF" fill-opacity="0.898" d="M215.274,35.503c0.147-0.087,0.308-0.16,0.479-0.218
		c0.171-0.059,0.354-0.103,0.548-0.13l0.807-0.075c0.149-0.001,0.31,0.017,0.48,0.056c1.002,0.243,2.183,0.608,3.542,1.1
		c1.576,0.837,2.616,1.356,3.119,1.56c0.281,0.179,0.404,0.354,0.368,0.524c-0.264,0.46-0.619,0.816-1.068,1.071
		c-0.225,0.128-0.473,0.23-0.744,0.308l-0.425,0.096l-0.46,0.058c-0.375,0.022-0.659,0.025-0.854,0.011l0.032,0.026l-0.342-0.046
		c0.345,0.194,0.676,0.392,0.994,0.592l-0.651-0.545c0.427,0.059,1.133,0.179,2.118,0.362c0.244,0.025,0.538,0.023,0.88-0.007
		c0.194-0.009,0.504-0.074,0.926-0.194l0.495-0.187c0.313-0.142,0.59-0.314,0.831-0.519c0.482-0.41,0.823-0.945,1.022-1.61
		c0.317-1.131,0.43-1.888,0.334-2.27l-0.148-0.439c-0.155-0.205-0.281-0.35-0.379-0.432l-1.483-1.307
		c-0.284-0.237-0.606-0.455-0.967-0.656c-0.357-0.201-0.754-0.383-1.186-0.548l-0.676-0.233c-1.107-0.332-2.021-0.514-2.741-0.548
		l-0.519,0.021c-1.36,0.105-2.581,0.637-3.656,1.591c-0.375,0.386-0.738,0.979-1.091,1.784c-0.161,0.452-0.218,0.885-0.17,1.298
		C214.991,35.692,215.187,35.529,215.274,35.503z"/>
	<path fill="#DFDFDF" fill-opacity="0.898" d="M220.322,39.793c0.138,0.018,0.271,0.033,0.403,0.045
		c-0.194-0.025-0.348-0.042-0.456-0.052L220.322,39.793z"/>
	<polygon fill="#DFDFDF" fill-opacity="0.898" points="194.797,138.528 194.964,138.58 194.082,137.796 194.079,137.796 
		194.108,137.918 194.153,138.032 194.218,138.137 194.299,138.233 194.397,138.32 194.513,138.397 194.646,138.468 	"/>
	<path fill="#DFDFDF" fill-opacity="0.898" d="M197.151,139.841c0.248-0.307,0.264-0.684,0.044-1.13l-0.019,0.021
		c-0.049,0.056-0.102,0.113-0.158,0.174c-0.061,0.055-0.146,0.128-0.259,0.219c-0.197,0.17-0.898,0.708-2.105,1.615
		c-0.013,0.011-0.021,0.034-0.027,0.067c0.008,0.061,0.106,0.071,0.296,0.034c0.35-0.078,0.656-0.17,0.921-0.278l0.273-0.108
		c0.173-0.072,0.326-0.144,0.46-0.212C196.846,140.104,197.037,139.97,197.151,139.841z"/>
	<path fill="#DFDFDF" fill-opacity="0.898" d="M194.06,137.667v-0.06l0.007-0.065c0.007-0.046,0.016-0.095,0.028-0.149l0.022-0.083
		c0.017-0.058,0.038-0.118,0.063-0.185h-0.003l-0.479,0.329l0.38,0.338c0-0.01-0.004-0.035-0.015-0.073L194.06,137.667z"/>
	<path fill="#DFDFDF" fill-opacity="0.898" d="M194.896,136.714c0.225-0.051,0.45-0.018,0.682,0.1
		c0.528,0.303,1.068,0.935,1.619,1.896c0.231-0.254,0.381-0.492,0.442-0.715c0.078-0.353,0.112-0.573,0.104-0.664
		c0.008-0.044-0.002-0.135-0.027-0.273l-0.079-0.231c-0.063-0.157-0.159-0.302-0.283-0.431l-0.063-0.063
		c-0.114-0.084-0.225-0.159-0.329-0.225c-0.212-0.132-0.408-0.225-0.589-0.28c-0.09-0.028-0.177-0.047-0.259-0.057l-0.121-0.007
		h-0.017c-0.354-0.002-0.691,0.121-1.018,0.371c-0.391,0.326-0.649,0.656-0.776,0.991l0.464-0.318
		C194.694,136.776,194.778,136.746,194.896,136.714z"/>
	<path fill="#DFDFDF" fill-opacity="0.898" d="M268.604,106.808c-0.132,0.216-0.197,0.392-0.201,0.525
		c-0.009,0.099,0.029,0.218,0.113,0.355c0.118,0.135,0.229,0.223,0.328,0.265c0.444,0.187,0.729,0.271,0.85,0.253
		c0.112-0.003,0.16-0.049,0.146-0.136c-0.227-0.391-0.339-0.666-0.339-0.827c0.009-0.313,0.063-0.607,0.166-0.885
		c0.238-0.475,0.44-0.798,0.607-0.971c0.323-0.29,0.586-0.462,0.789-0.518c0.261-0.096,0.503-0.132,0.73-0.107
		c0.277,0.025,0.549,0.126,0.814,0.303c0.281,0.185,0.542,0.438,0.781,0.758c0.045,0.045,0.146,0.212,0.299,0.5
		c0.059,0.119,0.109,0.243,0.156,0.373l-0.387-2.988c-0.112-0.122-0.232-0.217-0.359-0.285c-0.162-0.073-0.262-0.107-0.299-0.106
		c-0.068-0.014-0.14-0.021-0.212-0.021l-0.139,0.008c-0.238,0.044-0.386,0.084-0.439,0.118c-0.103,0.042-0.207,0.094-0.313,0.158
		c-0.187,0.109-0.442,0.294-0.772,0.556c-0.418,0.395-0.788,0.783-1.112,1.17l-0.805,0.95
		C268.931,106.337,268.796,106.521,268.604,106.808z"/>
	<path fill="#DFDFDF" fill-opacity="0.898" d="M273.787,80.853c0.177,0.17,0.412,0.459,0.705,0.867
		c0.429,0.632,0.722,1.328,0.88,2.089c0.143,0.618,0.147,1.212,0.017,1.784c-0.067,0.314-0.137,0.543-0.205,0.688
		c-0.119,0.297-0.319,0.708-0.603,1.232c-0.026,0.065-0.032,0.125-0.021,0.177c0.075-0.022,0.271-0.188,0.586-0.495
		c0.122-0.135,0.24-0.284,0.354-0.451c0.225-0.332,0.429-0.729,0.613-1.188c0.36-0.909,0.589-2.016,0.685-3.315
		c-0.023-1.024-0.236-1.835-0.641-2.433c-0.27-0.361-0.567-0.608-0.896-0.74c-0.162-0.077-0.449-0.124-0.862-0.143l-0.097,0.002
		c-0.439,0.028-0.776,0.147-1.008,0.357c-0.2,0.241-0.313,0.563-0.336,0.967c0.036,0.193,0.089,0.318,0.16,0.376
		C273.222,80.745,273.444,80.82,273.787,80.853z"/>
	<path fill="#DFDFDF" fill-opacity="0.898" d="M48.203,79.322c-0.227,0.008-0.492,0.007-0.798-0.002l-0.396-0.023l-0.364-0.039
		l-0.331-0.055l-0.297-0.07l-0.265-0.086l-0.232-0.102l-0.198-0.117l-0.167-0.133l0.02,0.038c0.054,0.099,0.115,0.195,0.182,0.291
		c0.114,0.139,0.229,0.263,0.346,0.371l0.175,0.151l0.177,0.128l0.18,0.104l0.183,0.082l0.184,0.058l0.187,0.035l0.188,0.012
		c0.167,0,0.335-0.027,0.506-0.082c0.171-0.054,0.346-0.136,0.521-0.244c0.203-0.122,0.294-0.209,0.272-0.266l-0.012-0.021
		C48.247,79.342,48.229,79.332,48.203,79.322z"/>
	<path fill="#DFDFDF" fill-opacity="0.898" d="M51.563,70.441c-0.764,0.086-1.566,0.43-2.409,1.031
		c-0.281,0.201-0.566,0.431-0.856,0.688c-0.215,0.157-0.421,0.313-0.617,0.473c-0.195,0.159-0.38,0.319-0.555,0.48
		c-0.175,0.162-0.34,0.324-0.494,0.488c-0.369,0.413-0.578,0.662-0.627,0.748c0.362-0.192,0.713-0.301,1.052-0.323l0.105-0.009
		c0.477,0.052,0.897,0.08,1.266,0.086c0.364,0.005,0.674-0.012,0.929-0.051c0.229-0.025,0.438-0.077,0.628-0.15l0.154-0.069
		c0.104-0.051,0.208-0.112,0.315-0.183c0.105-0.071,0.215-0.152,0.325-0.243l0.166-0.144l1.021-2.848h-0.023L51.563,70.441z"/>
	<path fill="#DFDFDF" fill-opacity="0.898" d="M44.932,78.117l-0.059-0.308l-0.026-0.317l0.009-0.33l0.042-0.341l0.077-0.354
		l0.111-0.365c0.123-0.325,0.192-0.503,0.209-0.532c0.089-0.207,0.193-0.411,0.311-0.614c0.06-0.103,0.121-0.203,0.188-0.303
		l0.102-0.15l0.106-0.15l-0.234,0.136c-0.148,0.093-0.286,0.191-0.412,0.296c-0.125,0.104-0.236,0.214-0.337,0.331l-0.141,0.178
		c-0.087,0.122-0.163,0.249-0.227,0.382l-0.085,0.204l-0.06,0.396l-0.032,0.371l-0.002,0.351l0.026,0.326l0.056,0.302l0.084,0.279
		l0.113,0.256l0.143,0.231c0.143,0.18,0.229,0.279,0.257,0.3l-0.127-0.282L44.932,78.117z"/>
	<path fill="#DFDFDF" fill-opacity="0.898" d="M116.642,31.232c0.219,0.042,0.425,0.063,0.621,0.062
		c0.315-0.023,0.567-0.062,0.756-0.114c0.44-0.118,0.791-0.229,1.053-0.333c0.229-0.035,0.397-0.055,0.509-0.059l0.097,0.002
		l0.201,0.03l0.162,0.043c0.109,0.036,0.226,0.086,0.346,0.15s0.245,0.145,0.375,0.238s0.265,0.203,0.405,0.326l0.698,0.633
		c-0.233-0.57-0.521-1.072-0.866-1.506l-0.219-0.225c-0.15-0.144-0.313-0.271-0.489-0.384c-0.353-0.225-0.753-0.39-1.205-0.494
		c-0.5-0.102-0.952-0.147-1.354-0.14l-0.308,0.006c-0.83,0.033-1.734,0.196-2.712,0.489l0.844,1.02
		C115.839,31.06,116.201,31.145,116.642,31.232z"/>
	<path fill="#DFDFDF" fill-opacity="0.898" d="M122.023,32.871c0.014,0.33-0.005,0.604-0.052,0.822l-0.025,0.104
		c-0.021,0.066-0.042,0.126-0.067,0.181c-0.355,0.671-0.589,1.15-0.703,1.442c-0.038,0.097-0.062,0.173-0.072,0.229l-0.006,0.066
		c-0.004,0.089,0,0.168,0.011,0.238l0.022,0.097c0.054,0.179,0.182,0.269,0.385,0.269c0.23-0.063,0.42-0.157,0.57-0.282l0.117-0.1
		c0.075-0.07,0.146-0.148,0.213-0.234c0.065-0.086,0.128-0.18,0.186-0.282c0.038-0.062,0.107-0.229,0.208-0.5
		c0.036-0.105,0.063-0.209,0.085-0.31c0.042-0.2,0.057-0.389,0.041-0.563l-0.022-0.187l-0.047-0.191l-0.071-0.194
		c-0.165-0.396-0.476-0.814-0.931-1.259l0.026,0.076C121.96,32.493,122.004,32.687,122.023,32.871z"/>
	<path fill="#DFDFDF" fill-opacity="0.898" d="M117.136,241.593l0.104-0.363l0.077-0.339l0.055-0.31l0.027-0.283l0.005-0.256
		l-0.021-0.229l-0.046-0.201h-0.002l-0.051,0.056c-0.067,0.09-0.129,0.243-0.188,0.461c-0.028,0.109-0.056,0.233-0.083,0.374
		c-0.026,0.141-0.052,0.298-0.076,0.471l-0.011,0.04c-0.03,0.149-0.055,0.618-0.076,1.406l0.159-0.436L117.136,241.593z"/>
	<path fill="#DFDFDF" fill-opacity="0.898" d="M112.549,246.993c0.149-0.004,0.296,0.012,0.442,0.047
		c0.558,0.248,0.908,0.366,1.054,0.354c0.336,0.02,0.645-0.035,0.925-0.16c0.847-0.383,1.396-0.91,1.644-1.588
		c0.073-0.231,0.104-0.347,0.094-0.341c0.03-0.179,0.058-0.455,0.084-0.827l0.024-0.403l0.03-1.647l-0.097,0.255
		c-0.214,0.513-0.551,1.04-1.011,1.583c-0.407,0.459-0.668,0.729-0.784,0.81c-0.196,0.156-0.408,0.28-0.636,0.37
		c-0.053,0.032-0.232,0.08-0.54,0.145c-0.061,0.014-0.245-0.032-0.556-0.137c-0.375-0.154-0.757-0.438-1.148-0.852l-0.738,2.777
		c0.119-0.086,0.265-0.158,0.438-0.218C112.095,247.063,112.354,247.008,112.549,246.993z"/>
	<path fill="#DFDFDF" fill-opacity="0.898" d="M47.711,142.728l-2.25-0.245c-0.165-0.281-0.276-0.538-0.334-0.773
		c-0.101-0.422-0.017-0.848,0.25-1.277c0.25-0.351,0.715-0.732,1.393-1.146c0.022-0.055-0.003-0.08-0.073-0.074l-0.025,0.001
		l-0.317,0.061c-0.603,0.228-1.194,0.493-1.774,0.799c-0.581,0.305-1.15,0.648-1.708,1.033l-0.829,0.604
		c-0.547,0.422-1.083,0.884-1.608,1.384c-0.523,0.5-1.039,1.039-1.541,1.618c-1.036,1.414-1.569,2.493-1.601,3.236
		c-0.035,0.43,0.082,0.915,0.349,1.453c0.119,0.224,0.411,0.505,0.875,0.844c0.08-0.942,0.299-1.824,0.657-2.646
		c0.391-0.905,0.9-1.613,1.529-2.125c0.432-0.313,0.895-0.569,1.388-0.771c0.191-0.087,0.887-0.277,2.087-0.57
		c0.207-0.07,0.871-0.407,1.992-1.007C46.432,143.016,46.946,142.885,47.711,142.728z"/>
	<path fill="#DFDFDF" fill-opacity="0.898" d="M38.898,150.535l-0.036-0.048c-0.1-0.066-0.215-0.146-0.349-0.242l0.004,0.091
		l0.009,0.082l0.016,0.073l0.02,0.063l0.025,0.055l0.03,0.045l0.034,0.035l0.041,0.026l0.046,0.018l0.063-0.007l0.052-0.011
		l0.039-0.017l0.026-0.021l0.014-0.026l0.001-0.032l-0.011-0.038L38.898,150.535z"/>
	<path fill="#DFDFDF" fill-opacity="0.898" d="M260.899,191.451c-0.124-0.224-0.263-0.412-0.418-0.571l-0.244-0.215l-0.269-0.166
		l-0.293-0.119l-0.022-0.005l-0.216-0.049l-0.079-0.019l-0.34-0.022l-0.138,0.003c-0.37,0.019-0.778,0.111-1.224,0.28
		c-0.306-0.021-0.595-0.005-0.867,0.053c-0.059,0.003-0.287,0.063-0.689,0.185c-0.429,0.126-0.834,0.381-1.215,0.766
		c-0.527,0.716-0.818,1.448-0.875,2.2c-0.017,0.375,0.034,0.64,0.153,0.791c0.079,0.147,0.226,0.231,0.433,0.261
		c0.05,0.007,0.102,0.013,0.158,0.013c0.095-0.004,0.197-0.021,0.31-0.049l1.824-0.479l0.007-0.002c-0.002,0-0.004,0-0.006,0
		c-0.354,0.027-0.748,0.02-1.183-0.026c-0.139-0.02-0.257-0.05-0.366-0.086c-0.073-0.024-0.146-0.051-0.206-0.082
		c-0.075-0.04-0.142-0.087-0.199-0.141c-0.124-0.142-0.188-0.234-0.188-0.277c-0.052-0.239-0.057-0.476-0.016-0.705
		c-0.004-0.06,0.053-0.229,0.169-0.511c0.188-0.354,0.333-0.558,0.435-0.613c0.325-0.258,0.634-0.461,0.926-0.611
		c0.582-0.33,1.048-0.56,1.396-0.685c0.44,0.055,0.819,0.178,1.149,0.354c0.129,0.068,0.25,0.146,0.362,0.233
		c0.068,0.054,0.141,0.103,0.202,0.163c0.17,0.154,0.313,0.355,0.431,0.603c0.12,0.477,0.218,0.82,0.296,1.03
		c0.034,0.118,0.119,0.279,0.255,0.487c0.192,0.251,0.356,0.404,0.492,0.459c0.177,0.036,0.272,0.021,0.286-0.048
		c0.175-0.236,0.243-0.6,0.206-1.089C261.327,192.468,261.181,192.03,260.899,191.451z"/>
	<polygon fill="#DFDFDF" fill-opacity="0.898" points="256.896,194.306 256.994,194.296 257.087,194.283 257.175,194.268 
		257.258,194.249 257.337,194.229 257.41,194.206 257.479,194.181 257.543,194.153 257.603,194.123 257.599,194.123 	"/>
	<path fill="#EEEEEE" fill-opacity="0.898" d="M94.931,181.74c-0.085,0.348-0.059,0.619,0.079,0.813
		c0.144,0.118,0.482,0.222,1.019,0.308c0.267,0.14,0.413,0.229,0.442,0.271c0.11-0.004,0.33,0.43,0.659,1.297
		c0.021,0.053,0.142,0.17,0.363,0.354c0.414,0.133,0.875,0.158,1.385,0.075c0.542-0.099,1.093-0.345,1.654-0.736
		c0.742-0.518,1.552-1.29,2.428-2.319c0.442-0.554,0.689-1.06,0.742-1.517c-0.043-1.501-0.056-2.432-0.034-2.793
		c-0.053-0.26-0.104-0.409-0.15-0.446c-0.165-0.12-0.284-0.186-0.357-0.195c-0.826,0.128-1.454,0.128-1.885-0.001
		c-0.702-0.252-1.285-0.588-1.75-1.009l-0.104,1.23c-0.292-0.069-0.598-0.031-0.917,0.112c-0.104,0.05-0.208,0.11-0.313,0.185
		c-0.052,0.021-0.209,0.158-0.472,0.411c-0.827,0.96-1.473,1.77-1.938,2.43C95.316,180.869,95.033,181.38,94.931,181.74z"/>
	<path fill="#EEEEEE" fill-opacity="0.898" d="M118.852,188.438c0.075,0.062,0.188,0.075,0.339,0.043
		c0.085-0.023,0.147-0.048,0.188-0.069c0.055-0.028,0.11-0.063,0.167-0.104l0.086-0.065c0.176-0.145,0.362-0.347,0.562-0.61h0.003
		l0.033,0.128v-0.176l-0.035,0.046l-0.025-0.095l-0.073-0.175l-0.085-0.124l-0.097-0.074l-0.109-0.023l-0.122,0.027l-0.133,0.077
		l-0.063,0.051c-0.065,0.057-0.134,0.125-0.205,0.211c-0.226,0.271-0.372,0.494-0.441,0.67c-0.021,0.061-0.03,0.1-0.03,0.118
		l0.006,0.084L118.852,188.438z"/>
	<path fill="#EEEEEE" fill-opacity="0.898" d="M49.478,212.655c-0.133-0.057-0.282-0.082-0.452-0.08
		c-0.013-0.016-0.351,0.051-1.015,0.197c-0.148,0.021-0.237,0.021-0.263-0.004c-0.021-0.027-0.003-0.062,0.05-0.099
		c0.118-0.104,0.229-0.182,0.333-0.235l0.739,0.07l-1.39-1.449c-0.144-0.073-0.232-0.107-0.266-0.102h-0.007
		c-0.144,0.02-0.29,0.144-0.438,0.375c-0.495,0.932-1.005,1.814-1.529,2.65c-0.171,0.315-0.29,0.557-0.356,0.72
		c-0.203,0.491-0.313,0.866-0.334,1.124c0.027,0.182,0.065,0.296,0.114,0.342c0.081,0.049,0.175,0.073,0.281,0.072
		c0.827-0.207,1.695-0.38,2.604-0.521c0.206-0.044,0.431-0.121,0.677-0.23c0.342-0.159,0.646-0.374,0.913-0.646
		c0.133-0.118,0.291-0.355,0.475-0.713c0.068-0.087,0.125-0.356,0.167-0.811c0.002-0.276-0.021-0.428-0.067-0.455
		C49.626,212.75,49.547,212.681,49.478,212.655z"/>
	<path fill="#EEEEEE" fill-opacity="0.898" d="M232.525,210.1c0.03-0.015,0.06-0.03,0.09-0.047c0.856-0.442,1.377-1.077,1.549-1.905
		c0.061-0.29,0.078-0.604,0.055-0.941c-0.106-0.37-0.226-0.609-0.354-0.719c-0.18-0.237-0.512-0.438-0.997-0.603
		c-0.17-0.056-0.653-0.104-1.451-0.146l-0.107-0.028l-0.303-0.128c-0.079-0.047-0.141-0.281-0.188-0.704l0.669-0.246
		c0.044-0.239,0.023-0.509-0.062-0.81c-0.097-0.285-0.566-0.463-1.411-0.531l-0.092,0.001c-0.36,0.009-0.743,0.104-1.15,0.285
		c-0.149,0.062-0.312,0.131-0.481,0.209c-0.488,0.22-1.06,0.504-1.712,0.853c-0.177,0.095-0.369,0.198-0.565,0.308
		c-0.745,0.409-1.625,0.917-2.653,1.534c-0.21,0.148-0.332,0.322-0.366,0.522c-0.05,0.57,0.349,1.127,1.194,1.671
		c0.2,0.108,0.539,0.216,1.02,0.322c0.683,0.135,1.217,0.195,1.601,0.183c0.108,0.018,0.202,0.056,0.28,0.113
		c0.03,0.011,0.06,0.112,0.087,0.305c-0.307,0.777-0.396,1.199-0.271,1.265c0.112,0.237,0.484,0.36,1.114,0.37
		c1.032-0.003,2.522-0.373,4.472-1.111C232.501,210.113,232.513,210.104,232.525,210.1z"/>
	<path fill="#EEEEEE" fill-opacity="0.898" d="M185.375,69.829l-0.051-0.074l-0.079-0.055l-0.106-0.037l-0.058-0.011
		c-0.148-0.028-0.249-0.042-0.303-0.042h-0.009c-0.052,0.008-0.08,0.021-0.086,0.042l-0.001,0.027
		c0.014,0.022,0.024,0.053,0.036,0.092c0.005,0.015,0.009,0.04,0.011,0.074c0,0.033-0.008,0.104-0.023,0.214
		c-0.029,0.175-0.09,0.399-0.184,0.676l0.563-0.07c0.177-0.261,0.279-0.471,0.306-0.632l0.008-0.076l-0.006-0.068L185.375,69.829z"
		/>
	<path fill="#EEEEEE" fill-opacity="0.898" d="M173.94,132.249l-0.082,0.002c-0.221,0.012-0.444,0.074-0.675,0.186
		c-0.33,0.192-0.545,0.334-0.645,0.43l-0.576,0.601l-0.218,0.245c-0.133,0.154-0.242,0.292-0.327,0.412s-0.146,0.222-0.183,0.308
		l-0.037,0.115l-0.001,0.089l0.009,0.014c0.025,0.033,0.063,0.05,0.116,0.05c0.129,0,0.339-0.107,0.63-0.321
		c0.418-0.329,0.757-0.62,1.02-0.873c0.149-0.141,0.299-0.286,0.447-0.437c0.074-0.069,0.296-0.307,0.664-0.708l-0.035-0.106
		L173.94,132.249z"/>
	<path fill="#EEEEEE" fill-opacity="0.898" d="M130.46,127.102c-0.098,0.049-0.233,0.144-0.407,0.282
		c-0.069,0.072-0.104,0.128-0.107,0.167c-0.034,0.11,0.073,0.206,0.323,0.288c0.125,0.041,0.265,0.073,0.417,0.098
		c0.134,0.024,0.319,0.041,0.561,0.052c0.124,0.004,0.248,0.005,0.37,0.002l1.305-0.062l-2.425-0.844L130.46,127.102z"/>
	<path fill="#EEEEEE" fill-opacity="0.898" d="M140.108,169.892c-0.043,0.59-0.073,1.222-0.089,1.897
		c0,0.291,0.036,0.505,0.109,0.643c0.055,0.087,0.1,0.138,0.136,0.147c0.072,0.035,0.145,0.045,0.214,0.031l0.035-0.008l0.808-0.348
		l-1.194-2.601L140.108,169.892z"/>
	<path fill="#EEEEEE" fill-opacity="0.898" d="M199.091,106.173l0.013,0.042l0.02,0.04c0.025,0.044,0.051,0.074,0.068,0.09
		c0.031,0.026,0.052,0.042,0.061,0.047c0.015,0.01,0.03,0.02,0.047,0.028l0.215,0.104l-0.085-1.094l-0.023,0.025
		c-0.068,0.073-0.157,0.211-0.27,0.415c-0.016,0.038-0.028,0.075-0.037,0.11l-0.01,0.052l-0.005,0.049l0.001,0.047L199.091,106.173z
		"/>
	<path fill="#EEEEEE" fill-opacity="0.898" d="M200.138,107.594l0.029-0.071c0.073-0.188,0.109-0.34,0.111-0.454l-0.008-0.089
		c-0.002-0.011-0.005-0.021-0.008-0.032c-0.008-0.029-0.025-0.06-0.057-0.091l-0.694-0.331l0.161,2.069L200.138,107.594z"/>
	<path fill="#EEEEEE" fill-opacity="0.898" d="M154.56,286.46l-0.112,0.02c-0.073,0.015-0.14,0.029-0.197,0.049
		c-0.111,0.031-0.205,0.083-0.279,0.152c-0.056,0.063-0.083,0.123-0.082,0.183c-0.001,0.036,0.004,0.068,0.018,0.099l0.047,0.05
		c0.043,0.021,0.096,0.021,0.155,0.004c0.055-0.01,0.143-0.048,0.269-0.111c0.09-0.048,0.192-0.11,0.309-0.188l0.89-0.632
		l0.302-0.214l-0.313,0.167l-0.739,0.395C154.727,286.438,154.64,286.448,154.56,286.46z"/>
	<path fill="#EEEEEE" fill-opacity="0.898" d="M261.164,145.887l0.033-0.016h-0.005l-0.284,0.126
		c0.03-0.011,0.083-0.033,0.157-0.065C261.077,145.928,261.11,145.913,261.164,145.887z"/>
	<path fill="#EEEEEE" fill-opacity="0.898" d="M258.698,145.646l0.464,0.084l0.025,0.009c0.081,0.024,0.153,0.08,0.216,0.164
		c0.106,0.161,0.104,0.417-0.007,0.764l1.492-0.66c-0.156,0.058-0.3,0.094-0.431,0.113c-0.145,0.021-0.279,0.019-0.408-0.007
		c-0.096-0.023-0.167-0.047-0.214-0.074c-0.217-0.156-0.418-0.273-0.604-0.354c-0.069-0.03-0.148-0.055-0.238-0.072
		c-0.095-0.018-0.158-0.023-0.192-0.021h-0.021c-0.055,0.001-0.104,0.009-0.15,0.021c0.004,0.008,0.013,0.015,0.022,0.02
		C258.666,145.638,258.681,145.642,258.698,145.646z"/>
	<path fill="#EEEEEE" fill-opacity="0.898" d="M254.395,135.217l0.08-0.025l0.435-0.266l0.169-0.076l0.169-0.049l0.169-0.021
		l0.17,0.006l0.038,0.005c0.076,0.011,0.15,0.031,0.228,0.059c0.074,0.025,0.133,0.051,0.17,0.073
		c0.091,0.049,0.231,0.141,0.427,0.274l0.188,0.085l0.2,0.056l0.211,0.027l0.223-0.002l0.234-0.031l0.245-0.06
		c0.128-0.035,0.303-0.104,0.524-0.209l-3.621-0.456l-0.064,0.097c-0.119,0.177-0.193,0.299-0.224,0.365l-0.024,0.09l0.01,0.047
		L254.395,135.217z"/>
	<path fill="#EEEEEE" fill-opacity="0.898" d="M264.167,82.588c-0.511,0.168-0.905,0.404-1.184,0.708
		c-0.379,0.396-0.59,0.755-0.633,1.081l-0.002,0.153l0.003,0.031c0.011,0.064,0.027,0.126,0.056,0.186
		c0.024,0.059,0.05,0.102,0.073,0.129c0.053,0.063,0.147,0.158,0.288,0.286l0.087,0.139c0.052,0.11,0.075,0.236,0.072,0.378
		c0,0.162-0.048,0.365-0.142,0.608l-0.506,1.028l-0.017,0.048c-0.063,0.178-0.075,0.321-0.033,0.43
		c0.036,0.1,0.146,0.151,0.329,0.153l1.16-0.197l0.598-5.202h-0.004L264.167,82.588z"/>
	<path fill="#EEEEEE" fill-opacity="0.898" d="M271.129,81.926c0.044-0.006,0.111-0.042,0.2-0.107
		c0.008-0.005,0.038-0.028,0.089-0.068c0.119-0.102,0.228-0.192,0.326-0.272h0.004l-0.013,0.402
		c0.063-0.094,0.114-0.176,0.156-0.245c0.083-0.14,0.125-0.231,0.125-0.274c-0.005-0.063-0.095-0.024-0.27,0.114l0.022-0.824
		l-0.586,0.99c-0.045,0.081-0.075,0.153-0.092,0.219l0.002,0.053L271.129,81.926z"/>
</g>
</svg>
