<?xml version="1.0" encoding="utf-8"?>
<!-- Generator: Adobe Illustrator 12.0.0, SVG Export Plug-In . SVG Version: 6.00 Build 51448)  -->
<!DOCTYPE svg PUBLIC "-//W3C//DTD SVG 1.1//EN" "http://www.w3.org/Graphics/SVG/1.1/DTD/svg11.dtd" [
	<!ENTITY ns_svg "http://www.w3.org/2000/svg">
	<!ENTITY ns_xlink "http://www.w3.org/1999/xlink">
]>
<svg  version="1.1" xmlns="&ns_svg;" xmlns:xlink="&ns_xlink;" width="283.118" height="283.119" viewBox="0 0 283.118 283.119"
	 overflow="visible" enable-background="new 0 0 283.118 283.119" xml:space="preserve">
<g id="Layer_3">
</g>
<g id="Layer_2">
	<g>
		<path fill="#152A50" d="M72.875,265.358c2.434,1.354,4.907,2.644,7.427,3.855c-2.04-1.802-4.224-3.67-5.822-5.022L72.875,265.358z
			"/>
		<path fill="#152A50" d="M263.056,68.885l-0.86,1.878l-1.378,6.198c0,0-1.377,6.198,0,8.952c1.378,2.755,4.821,13.773,4.821,17.905
			s2.065,11.019,2.065,11.019s-0.688,0.688,0,4.82s2.755,9.641,2.755,9.641s1.377,2.755,1.377,11.707c0,8.953,0,18.594,0,18.594
			s2.066,4.132,0,9.642c-2.065,5.509-6.197,17.904-6.197,17.904l-0.689,6.887v4.132l1.378,4.821c0,0,0.811,0.812,1.848,1.927
			c9.557-19.063,14.943-40.577,14.943-63.353C283.118,114.987,275.791,90.13,263.056,68.885z"/>
		<path fill="#154E6A" d="M264.949,198.164v-4.132l0.689-6.887c0,0,4.132-12.396,6.197-17.904c2.066-5.51,0-9.642,0-9.642
			s0-9.641,0-18.594c0-8.952-1.377-11.707-1.377-11.707s-2.066-5.509-2.755-9.641s0-4.82,0-4.82s-2.065-6.887-2.065-11.019
			s-3.443-15.15-4.821-17.905c-1.377-2.754,0-8.952,0-8.952l1.378-6.198l0.86-1.878c-10.632-17.737-25.034-32.954-42.104-44.539
			c-0.019,6.956,0.394,14.3,1.99,17.494c3.443,6.887,7.575,17.216,7.575,17.216s6.887,5.509,7.575,11.019
			c0.689,5.509,0.689,6.198,1.378,17.216s2.065,17.905,2.754,24.103c0.689,6.198,3.443,16.528,3.443,16.528s2.066,3.443,2.066,8.264
			c0,4.82,0,11.707,0,14.462s-1.377,4.82-2.755,11.019c-1.377,6.197-2.065,9.641-2.065,9.641s0,4.132-0.689,7.575
			c-0.688,3.443,0,11.707-4.82,17.217c-4.82,5.509-10.33,15.839-10.33,15.839s-0.688,6.198-4.132,8.952
			c-3.443,2.755-12.396,6.198-16.527,8.265c-4.132,2.065-2.066-2.066-4.132,2.065c-2.066,4.132-4.132,6.887-4.132,6.887
			l-2.066,2.066v4.82l-1.377,4.132l-8.953,2.755l-3.442,3.443l-1.378,2.065l-4.82,6.198c0,0-4.82,1.377-6.887,3.443
			c-2.065,2.065-4.82,2.065-4.82,2.065l-2.755,0.688l-3.443,2.066l-2.755,2.755l-1.377,7.575l-0.548,0.43
			c50.285-4.21,93.091-34.701,114.646-77.698c-1.037-1.115-1.848-1.927-1.848-1.927L264.949,198.164z"/>
		<path fill="#154E6A" d="M119.644,275.982l-2.755,3.443l-1.307,1.307c5.226,0.969,10.552,1.651,15.962,2.029l-2.26-6.779H119.644z"
			/>
		<path fill="#1C6499" d="M155.453,274.605l2.755-2.755l3.443-2.066l2.755-0.688c0,0,2.755,0,4.82-2.065
			c2.066-2.066,6.887-3.443,6.887-3.443l4.82-6.198l1.378-2.065l3.442-3.443l8.953-2.755l1.377-4.132v-4.82l2.066-2.066
			c0,0,2.065-2.755,4.132-6.887c2.065-4.132,0,0,4.132-2.065c4.132-2.066,13.084-5.51,16.527-8.265
			c3.443-2.754,4.132-8.952,4.132-8.952s5.51-10.33,10.33-15.839c4.82-5.51,4.132-13.773,4.82-17.217
			c0.689-3.443,0.689-7.575,0.689-7.575s0.688-3.443,2.065-9.641c1.378-6.198,2.755-8.264,2.755-11.019s0-9.642,0-14.462
			c0-4.821-2.066-8.264-2.066-8.264s-2.754-10.33-3.443-16.528c-0.688-6.198-2.065-13.084-2.754-24.103s-0.688-11.707-1.378-17.216
			c-0.688-5.509-7.575-11.019-7.575-11.019s-4.132-10.33-7.575-17.216c-1.597-3.194-2.009-10.538-1.99-17.494
			c-10.728-7.28-22.508-13.12-35.063-17.257c0.909,6.315,3.998,10.648,3.998,10.648s2.754,2.755,4.132,4.821
			c1.377,2.066,6.197,8.952,6.197,8.952s2.066,8.953,3.443,11.019c1.378,2.066,6.198,8.264,6.198,8.264s4.82,6.886,6.887,10.33
			c2.065,3.443,5.509,8.264,6.197,14.462c0.689,6.198,2.066,12.396,2.755,17.216s0.688,13.084,1.377,16.528
			c0.689,3.443,0.689,9.641,2.066,13.773s2.066,19.971,2.066,23.415s1.377,11.019-0.689,15.15
			c-2.065,4.132-5.509,12.396-6.197,14.462c-0.688,2.065,0,8.264-3.443,12.396s-7.575,10.33-7.575,10.33l-2.066,6.886
			c0,0-8.264,4.132-9.641,6.198c-1.378,2.066-4.821,4.132-4.821,4.132s-8.264,1.377-11.019,3.443
			c-2.754,2.066-10.329,4.82-10.329,4.82l-4.821,2.755l-2.754,5.51l11.707,4.82c0,0,1.377,3.443-0.688,4.132
			c-2.066,0.688-5.51,3.443-7.575,4.132c-2.066,0.688-11.707,4.132-11.707,4.132s-2.755,0-4.821-0.688
			c-2.065-0.688-9.641-2.755-9.641-2.755l-7.576,0.688c0,0-5.509,6.198-6.886,8.953c-1.377,2.754-0.689,6.197-2.755,8.264
			c-2.066,2.065-13.084,6.198-15.15,8.264c-2.066,2.066-2.066,2.066-2.066,2.066s-13.773-7.575-17.216-8.953
			c-3.443-1.377-17.216-2.754-17.216-2.754l-1.778,1.293c1.598,1.353,3.782,3.221,5.822,5.022
			c11.041,5.308,22.877,9.218,35.28,11.519l1.307-1.307l2.755-3.443h9.641l2.26,6.779c3.309,0.231,6.647,0.357,10.015,0.357
			c4.031,0,8.021-0.178,11.969-0.509l0.548-0.43L155.453,274.605z"/>
		<path fill="#248AB0" d="M112.068,12.228l7.575,0.689c0,0,9.641,0,13.084,2.066s4.132,2.066,6.886,2.754
			c2.755,0.689,4.821,0.689,4.821,0.689s4.82,1.377,8.264,2.066c3.443,0.688,3.443,0.688,3.443,0.688l6.197,4.821l4.821,2.066
			l5.509,0.688h2.755l4.132,7.575l4.82,6.887l4.82,5.509l2.755,2.754c0,0,2.066,3.443,4.132,4.132
			c2.066,0.689,6.198,4.132,6.198,4.132s0.688,6.887,1.377,9.642c0.688,2.754,2.755,6.886,2.755,6.886l5.509,7.575l2.066,1.377
			c0,0,0,0-1.377,4.82c-1.378,4.821-2.066,8.264-2.066,8.264l-1.377,2.754c0,0,2.065,2.755,3.443,5.509
			c1.377,2.755,2.065,2.755,2.754,6.887c0.689,4.132,0.689,4.132,0.689,4.132v3.443c0,0,0.688,6.887,0.688,11.019s0,6.886,0,8.952
			c0,2.066,0,7.575,0,9.642c0,2.065-2.066,7.575-3.443,10.33c-1.378,2.754-2.755,8.264-2.755,8.264s-0.688,0-1.377,3.443
			c-0.689,3.443-1.378,7.575-4.132,11.707c-2.755,4.132-8.265,14.462-8.265,14.462l-3.443,4.82l-4.132,6.197l-4.132,1.378
			l-6.197,4.132l-2.755,3.443l-10.33,6.198l-4.132,3.442l-1.377,3.443l-6.887,6.198l-7.575,6.198l-4.132,2.065l-4.132,0.688
			l7.576-0.688c0,0,7.575,2.066,9.641,2.755c2.066,0.688,4.821,0.688,4.821,0.688s9.641-3.443,11.707-4.132
			c2.065-0.688,5.509-3.443,7.575-4.132c2.065-0.688,0.688-4.132,0.688-4.132l-11.707-4.82l2.754-5.51l4.821-2.755
			c0,0,7.575-2.754,10.329-4.82c2.755-2.066,11.019-3.443,11.019-3.443s3.443-2.065,4.821-4.132
			c1.377-2.066,9.641-6.198,9.641-6.198l2.066-6.886c0,0,4.132-6.198,7.575-10.33s2.755-10.33,3.443-12.396
			c0.688-2.066,4.132-10.33,6.197-14.462c2.066-4.132,0.689-11.707,0.689-15.15s-0.689-19.283-2.066-23.415
			s-1.377-10.33-2.066-13.773c-0.688-3.443-0.688-11.707-1.377-16.528s-2.065-11.019-2.755-17.216
			c-0.688-6.198-4.132-11.019-6.197-14.462c-2.066-3.443-6.887-10.33-6.887-10.33s-4.82-6.198-6.198-8.264
			c-1.377-2.066-3.443-11.019-3.443-11.019s-4.82-6.886-6.197-8.952c-1.378-2.066-4.132-4.821-4.132-4.821
			s-3.089-4.333-3.998-10.648C171.942,2.494,157.043,0,141.56,0c-11.843,0-23.343,1.463-34.338,4.203l2.781,3.893L112.068,12.228z"
			/>
		<path fill="#248AB0" d="M76.258,262.898c0,0,13.773,1.377,17.216,2.754c3.443,1.378,17.216,8.953,17.216,8.953s0,0,2.066-2.066
			c2.066-2.065,13.084-6.198,15.15-8.264c2.066-2.066,1.377-5.51,2.755-8.264c1.377-2.755,6.886-8.953,6.886-8.953l-5.509,2.066
			l-14.461,2.065c0,0-4.821-0.688-6.887,0.689c-2.066,1.377-5.509,1.377-5.509,1.377s6.198,3.443-3.443,0
			c-9.641-3.443-21.348-6.198-21.348-6.198l-4.82-1.377l-3.443-0.688l-4.132,2.755l-4.132,6.197l-4.82-2.755l-5.509-3.442
			l-9.097-3.21c8.546,8.062,18.095,15.068,28.439,20.82l1.604-1.167L76.258,262.898z"/>
		<path fill="#25A4D4" d="M59.042,251.19l4.82,2.755l4.132-6.197l4.132-2.755l3.443,0.688l4.82,1.377c0,0,11.707,2.755,21.348,6.198
			c9.642,3.443,3.443,0,3.443,0s3.443,0,5.509-1.377c2.066-1.378,6.887-0.689,6.887-0.689l14.461-2.065l5.509-2.066l4.132-0.688
			l4.132-2.065l7.575-6.198l6.887-6.198l1.377-3.443l4.132-3.442l10.33-6.198l2.755-3.443l6.197-4.132l4.132-1.378l4.132-6.197
			l3.443-4.82c0,0,5.51-10.33,8.265-14.462c2.754-4.132,3.442-8.264,4.132-11.707c0.688-3.443,1.377-3.443,1.377-3.443
			s1.377-5.51,2.755-8.264c1.377-2.755,3.443-8.265,3.443-10.33c0-2.066,0-7.575,0-9.642c0-2.066,0-4.82,0-8.952
			s-0.688-11.019-0.688-11.019v-3.443c0,0,0,0-0.689-4.132c-0.688-4.132-1.377-4.132-2.754-6.887
			c-1.378-2.754-3.443-5.509-3.443-5.509l1.377-2.754c0,0,0.688-3.443,2.066-8.264c1.377-4.82,1.377-4.82,1.377-4.82l-2.066-1.377
			l-5.509-7.575c0,0-2.066-4.132-2.755-6.886c-0.688-2.755-1.377-9.642-1.377-9.642s-4.132-3.443-6.198-4.132
			c-2.065-0.688-4.132-4.132-4.132-4.132l-2.755-2.754l-4.82-5.509l-4.82-6.887l-4.132-7.575h-2.755l-5.509-0.688l-4.821-2.066
			l-6.197-4.821c0,0,0,0-3.443-0.688c-3.443-0.689-8.264-2.066-8.264-2.066s-2.066,0-4.821-0.689
			c-2.754-0.688-3.443-0.688-6.886-2.754s-13.084-2.066-13.084-2.066l-7.575-0.689l-2.066-4.132l-2.781-3.893
			c-26.427,6.585-49.919,20.588-68.125,39.681c2.516-0.125,7.749-0.866,9.615-2.732c2.066-2.066,4.132-2.755,4.132-2.755
			l7.575-8.264c0,0,6.198,0,8.952,0c2.755,0,5.509,0,7.575,0s5.509-2.755,8.953-3.443s8.264-2.066,14.462-2.066
			c6.198,0,6.198,0,6.198,0s6.198,4.132,9.641,4.82c0,0,9.641,0.689,11.707,0.689s10.33,2.754,10.33,2.754l10.33,4.132l11.707,5.509
			l15.15,7.575l13.772,11.708l4.821,11.707c0,0,0,12.396,0,15.839l-0.689,6.887l-5.509,4.82h6.887l4.132,13.773l6.887,7.575
			l-1.378,19.971c0,0-0.688,9.641-0.688,15.151c0,5.509-2.755,13.084-4.132,16.527s-4.132,6.198-4.132,6.198
			s-6.198,9.641-7.575,11.707c-1.377,2.065-4.82,10.329-6.887,12.396c-2.065,2.066-6.197,10.33-6.197,10.33l-6.887,6.887
			c0,0-4.617,1.154-6.981,1.878c-0.179,0.113-0.373,0.188-0.594,0.188c-2.066,0.688-11.019,3.443-11.707,5.51
			c-0.689,2.065-2.755,2.065-2.755,2.065h-6.887l-6.788-4.525l-1.889,0.944l-1.652,7.713c0,0-5.509,0.688-6.887-3.443
			s-8.264,5.51-8.264,5.51s-11.019,0-22.037,0c-9.208,0-10.24,0-10.33,0c0,0-0.011,0-0.008,0c-0.002,0,0.008,0,0.008,0l-2.754-1.378
			l-5.509-1.377c0,0-5.509,0-7.575,0s-8.264-0.688-8.264-0.688l-8.953-7.575l-3.443-1.377l-9.641-5.51l-2.066,0.688
			c0,0,0,4.821,0,6.887c0,0.887,0,2.919,0,5.164c3.609,4.322,7.471,8.424,11.563,12.286l9.097,3.21L59.042,251.19z"/>
		
			<line fill="none" stroke="#3DC5EB" stroke-width="0" stroke-linecap="round" stroke-linejoin="round" x1="81.079" y1="237.418" x2="81.07" y2="237.418"/>
		<path fill="#3DC5EB" d="M32.873,220.201l2.066-0.688l9.641,5.51l3.443,1.377l8.953,7.575c0,0,6.198,0.688,8.264,0.688
			s7.575,0,7.575,0l5.509,1.377l2.754,1.378c0.09,0,1.122,0,10.33,0c11.019,0,22.037,0,22.037,0s6.886-9.642,8.264-5.51
			s6.887,3.443,6.887,3.443l1.652-7.713l-1.652,0.826h-4.821h-6.198l-6.198,0.689l-3.443,4.132c0,0-5.509,0-8.264,0
			c-2.754,0-3.443-1.378-3.443-1.378l-10.33-4.82l-12.396-4.82h-7.575l-4.132-2.755c0,0,0,0,2.066-1.377
			c2.066-1.378,6.198-4.132,6.198-4.132l-4.132-1.378l-5.509-3.443l-6.198-7.575l-6.886,4.132l-2.066,4.132l8.952,6.887h-6.886
			l-4.132-2.065l-4.132-4.132l-6.886-5.51l-2.066,3.443l-2.066,4.132l-2.066-0.688l-4.132-7.575l-1.377-5.509l2.755-10.33v-9.642
			l-0.689-7.575l-10.33,0.688c0,0-2.066,3.443-4.132,4.821c-0.892,0.595-2.04,1.445-3.057,2.221
			c5.426,19.812,15.044,37.888,27.849,53.215c0-2.245,0-4.277,0-5.164C32.873,225.022,32.873,220.201,32.873,220.201z"/>
		<path fill="#3DC5EB" d="M29.43,70.763h2.066l10.33-0.688l2.066-3.443l7.575-8.264l0.688,4.132l4.132,3.443l2.066-1.377
			l3.443-6.198c0,0,3.443-5.509,5.509-11.708l5.509-3.443l4.132-2.755c0,0,2.066-1.377,4.132-1.377c2.066,0,3.443,0,3.443,0
			l4.821,4.132c0,0,4.132,0,8.953,0c4.82,0,3.443-2.066,3.443-2.066l-1.377-2.755l2.066-4.132l4.82,2.754l8.264,0.689
			c0,0,4.132,0,6.886,0c2.755,0,7.575,1.377,9.641,1.377c2.066,0,3.443,1.377,3.443,1.377l10.33,2.755l11.019,8.264l11.707,8.264
			l-6.887,3.443l-3.443,2.066l-4.132,4.821l-4.132,4.132l-1.377,3.443c0,0,0,6.198,0,8.264s0,4.821,0,4.821l-0.689,4.132
			l2.066-1.377h11.707l8.264,6.198l2.066,6.886l8.952,8.953c0,0,4.82,8.264,4.82,11.019c0,2.754,1.378,6.886,1.378,6.886
			l3.443,8.953v14.461l1.377,11.019c0,0-8.952,10.33-14.462,16.528c-5.509,6.197-0.688,3.443-1.377,6.197
			c-0.688,2.755-2.755,6.887-2.755,6.887s-3.443,4.132-5.509,6.198v6.887v2.754c0,0-1.378,3.443-3.443,4.132
			c-1.845,0.615-2.047,5.062-3.538,6.011c2.364-0.724,6.981-1.878,6.981-1.878l6.887-6.887c0,0,4.132-8.264,6.197-10.33
			c2.066-2.066,5.51-10.33,6.887-12.396c1.377-2.066,7.575-11.707,7.575-11.707s2.755-2.755,4.132-6.198s4.132-11.019,4.132-16.527
			c0-5.51,0.688-15.151,0.688-15.151l1.378-19.971l-6.887-7.575l-4.132-13.773h-6.887l5.509-4.82l0.689-6.887
			c0-3.443,0-15.839,0-15.839l-4.821-11.707l-13.772-11.708l-15.15-7.575l-11.707-5.509l-10.33-4.132c0,0-8.264-2.754-10.33-2.754
			S116.2,29.444,116.2,29.444c-3.443-0.688-9.641-4.82-9.641-4.82s0,0-6.198,0c-6.198,0-11.019,1.377-14.462,2.066
			s-6.887,3.443-8.953,3.443s-4.82,0-7.575,0c-2.754,0-8.952,0-8.952,0l-7.575,8.264c0,0-2.066,0.688-4.132,2.755
			c-1.867,1.867-7.099,2.607-9.615,2.732c-8.075,8.468-15.104,17.941-20.896,28.204l5.72-0.635L29.43,70.763z"/>
		<path fill="#3DC5EB" d="M14.279,90.734l11.707-8.953H14.968l-1.262-1.052c-1.886,3.957-3.599,8.012-5.118,12.161l1.56-0.779
			L14.279,90.734z"/>
		<path fill="#3DC5EB" d="M143.746,223.645c-2.754,0-5.509,0-5.509,0l-6.1,3.05l6.788,4.525h6.887c0,0,2.065,0,2.755-2.065
			c0.688-2.066,9.641-4.821,11.707-5.51c-2.066,0-4.132,0-4.132,0S146.501,223.645,143.746,223.645z"/>
		<path fill="#69CAEB" d="M12.213,171.995l10.33-0.688l0.689,7.575v9.642l-2.755,10.33l1.377,5.509l4.132,7.575l2.066,0.688
			l2.066-4.132l2.066-3.443l6.886,5.51l4.132,4.132l4.132,2.065h6.886l-8.952-6.887l2.066-4.132l6.886-4.132l6.198,7.575
			l5.509,3.443l4.132,1.378c0,0-4.132,2.754-6.198,4.132c-2.066,1.377-2.066,1.377-2.066,1.377l4.132,2.755h7.575l12.396,4.82
			l10.33,4.82c0,0,0.688,1.378,3.443,1.378c2.755,0,8.264,0,8.264,0l3.443-4.132l6.198-0.689h6.198h4.821l1.652-0.826l1.889-0.944
			l6.1-3.05c0,0,2.754,0,5.509,0c2.755,0,12.396,0,12.396,0s2.065,0,4.132,0c0.221,0,0.415-0.074,0.594-0.188
			c1.491-0.949,1.693-5.396,3.538-6.011c2.065-0.688,3.443-4.132,3.443-4.132v-2.754v-6.887c2.065-2.066,5.509-6.198,5.509-6.198
			s2.066-4.132,2.755-6.887c0.688-2.754-4.132,0,1.377-6.197c5.51-6.198,14.462-16.528,14.462-16.528l-1.377-11.019v-14.461
			l-3.443-8.953c0,0-1.378-4.132-1.378-6.886c0-2.755-4.82-11.019-4.82-11.019l-8.952-8.953l-2.066-6.886l-8.264-6.198h-11.707
			l-2.066,1.377l0.689-4.132c0,0,0-2.755,0-4.821s0-8.264,0-8.264l1.377-3.443l4.132-4.132l4.132-4.821l3.443-2.066l6.887-3.443
			l-11.707-8.264l-11.019-8.264l-10.33-2.755c0,0-1.377-1.377-3.443-1.377c-2.066,0-6.886-1.377-9.641-1.377
			c-2.754,0-6.886,0-6.886,0l-8.264-0.689l-4.82-2.754l-2.066,4.132l1.377,2.755c0,0,1.377,2.066-3.443,2.066
			c-4.821,0-8.953,0-8.953,0l-4.821-4.132c0,0-1.377,0-3.443,0c-2.066,0-4.132,1.377-4.132,1.377l-4.132,2.755l-5.509,3.443
			c-2.066,6.198-5.509,11.708-5.509,11.708l-3.443,6.198l-2.066,1.377L52.155,62.5l-0.688-4.132l-7.575,8.264l-2.066,3.443
			l-10.33,0.688H29.43l-5.509,0.689l-5.72,0.635c-1.593,2.823-3.094,5.705-4.495,8.643l1.262,1.052h11.019l-11.707,8.953
			l-4.132,1.377l-1.56,0.779C3.032,108.067,0,124.459,0,141.559c0,12.976,1.755,25.54,5.024,37.478
			c1.017-0.775,2.166-1.626,3.057-2.221C10.147,175.438,12.213,171.995,12.213,171.995z M5.327,122.413l6.887-10.33l2.754-3.443
			l3.443-3.443l1.377-2.755c0,0,5.509-4.82,8.264-6.887c2.755-2.066,3.443-4.132,3.443-4.132l2.755-4.132l4.132-2.066l6.198-4.821
			c0,0,0,0,2.066-3.443l11.707-2.066h2.755l4.82,2.066c0,0,4.821,0.688,7.575,0.688c2.755,0,8.953,0,8.953,0l12.396,2.754
			l2.066-2.066l2.754-4.132l-2.754-1.377l-3.443-3.443l-3.443-3.443l-4.82-4.132l-4.821-2.755h8.264l11.707,2.755l8.264,1.377
			c0,0,2.066,11.019,2.066,13.084s0.689,2.066,0.689,2.066l9.641,6.198l-1.377,6.198h-4.132h-2.755l6.887,5.509l8.953,13.773
			l1.377,2.755l6.887,11.707l3.443,8.952l7.575,3.443l2.066,2.755l-0.688,8.264l-2.066,6.198l-2.754,4.132v4.82v7.575l0.688,5.51
			l-2.066,2.754l-5.509,4.821l-2.066,2.065c0,0-0.688,4.132-0.688,8.952v6.887v4.132l-0.688,3.443h-2.755l-3.443,1.378l-2.066,2.754
			l-6.886,3.443c0,0,0,0-4.132,2.066c-4.132,2.065-4.132,0.688-7.575,1.377c-3.443,0.688-2.066,2.066-5.509,2.066
			c-3.443,0-6.886,0-6.886,0l-7.575-10.33v-3.443l0.688-7.575l1.377-3.443l-2.066,0.688l-6.198,1.378l2.755-6.887
			c0,0,0,0-2.066-0.688s-4.132-1.378-4.132-1.378l-6.198,0.689l-5.509-2.755l-1.377-5.51l-2.755-3.443l-2.066-3.442v-2.066v-2.066
			l4.821-4.132l2.066-4.132l-4.821-3.443c0,0,0,0-2.066,0s-4.132,0-4.132,0s-4.821,0-6.887-1.377l4.132-1.377l3.443-1.378
			c0,0,12.396-4.82,15.15-5.509c2.755-0.688,2.066,0,2.066,0l6.887-2.755c0,0-4.132-0.688-7.575-0.688s-5.509,0.688-7.575,0.688
			s-3.443,0-3.443,0s-5.509,2.066-7.575,2.066s-8.264-1.378-8.264-1.378l4.82-4.132l4.821-0.688l7.575-2.755l11.707-1.377h-2.754
			c0,0-6.198,0-11.019-1.377c-4.821-1.377-4.132,0-9.641,0s-3.443,0-7.575-0.688c-4.132-0.689-3.443-0.689-11.019-4.821
			s-2.755-2.066-2.755-2.066s-2.754-6.198-3.443-8.953c-0.689-2.754-1.377-2.754-1.377-2.754l-4.132-4.132l-2.066,8.264
			l-1.377,2.754l-6.198,8.264c0,0-2.066-4.132-4.132-6.887C5.327,124.479,5.327,122.413,5.327,122.413z"/>
		<path fill="#8CD5EB" d="M17.723,125.855l1.377-2.754l2.066-8.264l4.132,4.132c0,0,0.688,0,1.377,2.754
			c0.688,2.755,3.443,8.953,3.443,8.953s-4.82-2.066,2.755,2.066s6.887,4.132,11.019,4.821c4.132,0.688,2.066,0.688,7.575,0.688
			s4.82-1.377,9.641,0c4.82,1.377,11.019,1.377,11.019,1.377h2.754l-11.707,1.377l-7.575,2.755l-4.821,0.688l-4.82,4.132
			c0,0,6.198,1.378,8.264,1.378s7.575-2.066,7.575-2.066s1.377,0,3.443,0s4.132-0.688,7.575-0.688s7.575,0.688,7.575,0.688
			l-6.887,2.755c0,0,0.689-0.688-2.066,0c-2.754,0.688-15.15,5.509-15.15,5.509l-3.443,1.378l-4.132,1.377
			c2.066,1.377,6.887,1.377,6.887,1.377s2.066,0,4.132,0s2.066,0,2.066,0l4.821,3.443l-2.066,4.132l-4.821,4.132v2.066v2.066
			l2.066,3.442l2.755,3.443l1.377,5.51l5.509,2.755l6.198-0.689c0,0,2.066,0.689,4.132,1.378s2.066,0.688,2.066,0.688l-2.755,6.887
			l6.198-1.378l2.066-0.688l-1.377,3.443l-0.688,7.575v3.443l7.575,10.33c0,0,3.443,0,6.886,0c3.443,0,2.066-1.378,5.509-2.066
			c3.443-0.688,3.443,0.688,7.575-1.377c4.132-2.066,4.132-2.066,4.132-2.066l6.886-3.443l2.066-2.754l3.443-1.378h2.755
			l0.688-3.443v-4.132v-6.887c0-4.82,0.688-8.952,0.688-8.952l2.066-2.065l5.509-4.821l2.066-2.754l-0.688-5.51v-7.575v-4.82
			l2.754-4.132l2.066-6.198l0.688-8.264l-2.066-2.755l-7.575-3.443l-3.443-8.952l-6.887-11.707l-1.377-2.755l-8.953-13.773
			l-6.887-5.509h2.755h4.132l1.377-6.198l-9.641-6.198c0,0-0.689,0-0.689-2.066s-2.066-13.084-2.066-13.084l-8.264-1.377
			l-11.707-2.755H80.39l4.821,2.755l4.82,4.132l3.443,3.443l3.443,3.443l2.754,1.377l-2.754,4.132l-2.066,2.066L82.456,77.65
			c0,0-6.198,0-8.953,0c-2.754,0-7.575-0.688-7.575-0.688l-4.82-2.066h-2.755l-11.707,2.066c-2.066,3.443-2.066,3.443-2.066,3.443
			l-6.198,4.821l-4.132,2.066l-2.755,4.132c0,0-0.688,2.066-3.443,4.132c-2.754,2.066-8.264,6.887-8.264,6.887l-1.377,2.755
			l-3.443,3.443l-2.754,3.443l-6.887,10.33c0,0,0,2.066,2.066,4.82c2.066,2.755,4.132,6.887,4.132,6.887L17.723,125.855z"/>
	</g>
</g>
</svg>
