<?xml version="1.0" encoding="utf-8"?>
<!-- Generator: Adobe Illustrator 12.0.0, SVG Export Plug-In . SVG Version: 6.00 Build 51448)  -->
<!DOCTYPE svg PUBLIC "-//W3C//DTD SVG 1.1//EN" "http://www.w3.org/Graphics/SVG/1.1/DTD/svg11.dtd" [
	<!ENTITY ns_svg "http://www.w3.org/2000/svg">
	<!ENTITY ns_xlink "http://www.w3.org/1999/xlink">
]>
<svg  version="1.1" xmlns="&ns_svg;" xmlns:xlink="&ns_xlink;" width="294.223" height="294.223" viewBox="0 0 294.223 294.223"
	 overflow="visible" enable-background="new 0 0 294.223 294.223" xml:space="preserve">
<g id="Layer_3">
</g>
<g id="Layer_2">
	<g>
		<path fill="#680F13" d="M218.888,21.326c1.056,0,1.056,1.056,1.056,1.056s0,2.11,0,3.166s0.704,1.056,0.704,1.056l1.056,0.704
			c0,0,3.519,0.704,4.926,1.056s2.111,1.407,4.222,2.814c2.111,1.407,3.519,2.111,5.981,3.519c2.464,1.407,3.519,2.463,4.926,3.87
			c0,0,0.704,3.87,1.056,9.148c0.353,5.277,2.464,8.444,3.167,11.611c0.704,3.166,2.463,3.166,3.167,5.629
			c0.703,2.463,3.166,7.037,3.87,10.556c0.703,3.519,2.111,4.222,2.111,6.685c0,2.464,3.519,10.204,4.222,12.314
			c0.704,2.111,5.981,10.556,7.389,14.074s2.463,4.223,3.167,5.981c0.704,1.76,1.407,4.926,1.759,10.204
			c0.353,5.277,1.056,9.5,1.056,12.666c0,3.167,1.056,8.444,1.407,10.907c0.353,2.463,2.814,7.037,4.574,9.147
			c1.76,2.111,4.222,4.574,4.222,4.574l1.76,3.871l3.167,7.74c0,0-1.76,9.5-2.463,11.259c-0.704,1.76-2.111,13.723-2.111,13.723
			l0.802,2.244c6.548-16.66,10.145-34.806,10.145-53.79c0-58.126-33.712-108.376-82.65-132.271c2.243,2.659,4.501,5.43,4.501,5.43
			S217.833,21.326,218.888,21.326z"/>
		<path fill="#680F13" d="M183.352,286.618c-0.771-0.059-1.419-0.098-1.969-0.121c-4.045,1.021-8.786,2.259-11.401,2.585
			c-2.814,0.352-5.981,0.352-5.981,0.352s-1.307,0-3.297-0.022c0.021,0.419,0.181,0.727-0.222,0.727c-1.056,0-5.63,0-8.796,0
			c-3.167,0-1.056,1.407-3.519,0.703c-2.463-0.703-5.277,0-7.741,0c-2.463,0-6.685-0.703-8.444-1.056
			c-1.759-0.352-7.389-2.463-11.61-4.222c-4.223-1.76-2.463,0-6.333-0.704c-3.87-0.703-4.574-0.352-12.667-1.759
			s-4.574-1.76-5.63-2.464c-1.056-0.703-3.518-2.11-6.333-3.87c-2.814-1.759-7.74-2.814-9.5-3.166
			c-1.759-0.353-5.277-3.167-5.277-3.167l-9.139-0.913c23.354,15.603,51.424,24.702,81.619,24.702
			c16.008,0,31.419-2.559,45.846-7.286C189.521,286.896,185.821,286.81,183.352,286.618z"/>
		<path fill="#680F13" d="M6.323,189.903c0.666,2.195,1.382,4.369,2.147,6.521c-0.348-3.418-0.704-4.474-1.747-6.211L6.323,189.903z
			"/>
		<path fill="#9C1C20" d="M161.537,5.493l3.166,1.759l2.464,3.167l5.981,5.63h4.573l3.87-1.056l1.056,6.685
			c0,0,15.13,12.314,19.353,15.833c4.222,3.519,5.98,4.223,5.98,4.223s1.76,1.407,8.093,7.389s9.148,8.796,11.26,10.907
			c2.11,2.111,2.814,3.167,2.814,3.167s1.759,1.759,2.814,3.87c1.056,2.11,3.519,8.092,4.926,10.907
			c1.408,2.814,3.167,6.333,4.574,9.147c1.407,2.815,2.463,5.63,3.87,8.093s0.704,1.76,1.76,4.574s1.056,5.277,1.759,7.74
			c0.704,2.464,2.111,6.686,2.111,7.741s2.111,4.222,2.814,7.037c0.704,2.814,1.76,4.926,2.814,7.037c1.057,2.11,0,6.333,0,6.333
			s0,4.926,0,8.444c0,3.518,0.704,3.87,0.704,5.98c0,2.111,2.814,4.574,2.814,4.574l1.056,3.519c0,0,0,2.814,0,4.222
			c0,1.408,0,4.223,0,5.278s0.353,10.556,0.353,10.556l2.111,8.796l1.055,2.814l2.111,7.389v1.056l-2.463,8.444
			c0,0-0.703,5.278-1.056,6.334c-0.352,1.055-1.056,10.203-1.759,11.259c-0.704,1.056-0.704,4.574-0.704,4.574
			s-2.814,4.222-3.87,5.277s-2.111,5.63-3.519,9.148s-1.407,3.519-1.407,3.519l-4.574,4.222c0,0-1.407,0.704-2.463,1.056
			s-3.519,2.463-3.519,2.463s-7.389,5.63-10.204,7.389c-2.814,1.76-4.925,3.167-6.685,4.574c-1.759,1.407-4.574,3.519-6.686,5.63
			c-2.11,2.111-5.629,2.814-7.74,4.222s-4.223,1.407-6.333,1.407c-2.111,0-2.814,1.76-7.037,2.814
			c-4.223,1.057-11.259,4.574-15.481,5.631c-0.299,0.074-0.604,0.151-0.913,0.229c0.55,0.023,1.198,0.063,1.969,0.121
			c2.47,0.191,6.17,0.278,9.605,0.318c41.688-13.66,75.167-45.443,91.121-86.035l-0.802-2.244c0,0,1.407-11.963,2.111-13.723
			c0.703-1.759,2.463-11.259,2.463-11.259l-3.167-7.74l-1.76-3.871c0,0-2.462-2.463-4.222-4.574c-1.76-2.11-4.222-6.685-4.574-9.147
			c-0.352-2.463-1.407-7.74-1.407-10.907c0-3.166-0.703-7.389-1.056-12.666c-0.352-5.278-1.055-8.444-1.759-10.204
			c-0.704-1.759-1.76-2.463-3.167-5.981s-6.685-11.963-7.389-14.074c-0.703-2.11-4.222-9.851-4.222-12.314
			c0-2.463-1.408-3.166-2.111-6.685c-0.704-3.519-3.167-8.093-3.87-10.556c-0.704-2.463-2.463-2.463-3.167-5.629
			c-0.703-3.167-2.814-6.334-3.167-11.611c-0.352-5.278-1.056-9.148-1.056-9.148c-1.407-1.407-2.462-2.463-4.926-3.87
			c-2.463-1.407-3.87-2.111-5.981-3.519c-2.11-1.407-2.814-2.463-4.222-2.814s-4.926-1.056-4.926-1.056l-1.056-0.704
			c0,0-0.704,0-0.704-1.056s0-3.166,0-3.166s0-1.056-1.056-1.056c-1.055,0-2.814-1.056-2.814-1.056s-2.258-2.771-4.501-5.43
			c-16.966-8.284-35.761-13.399-55.616-14.577l2.767,2.767L161.537,5.493z"/>
		<path fill="#9C1C20" d="M79.908,273.601c1.76,0.352,6.686,1.407,9.5,3.166c2.815,1.76,5.277,3.167,6.333,3.87
			c1.056,0.704-2.463,1.057,5.63,2.464s8.797,1.056,12.667,1.759c3.87,0.704,2.11-1.056,6.333,0.704
			c4.222,1.759,9.852,3.87,11.61,4.222c1.76,0.353,5.981,1.056,8.444,1.056c2.464,0,5.278-0.703,7.741,0
			c2.463,0.704,0.352-0.703,3.519-0.703c3.166,0,7.74,0,8.796,0c0.402,0,0.242-0.308,0.222-0.727
			c-5.944-0.066-17.992-0.33-19.573-1.385c0,0-11.61-2.111-14.777-2.815c-3.167-0.703-8.796-1.759-11.963-2.11
			c-3.167-0.353-7.389-3.871-10.907-5.63s-2.815-2.111-4.927-3.519c-2.11-1.407-7.389-2.111-11.962-3.87
			c-4.574-1.759-7.037-3.166-11.611-5.277s-5.981-2.111-8.444-3.167s-4.926-2.463-6.333-3.167c-1.407-0.703-5.63-6.333-7.037-7.389
			s-3.167-2.463-6.686-5.629c-1.409-1.269-2.027-1.803-2.263-1.987l0.152,0.228c0,0-0.505-0.504-0.152-0.228l-2.663-3.994
			l-4.926-3.871l-2.11-1.759l-3.519-4.223c0,0-2.111-3.166-3.871-5.98c-1.759-2.815-1.759-2.464-3.519-4.223
			c0,0-1.055-1.76-1.759-3.519c-0.704-1.76,0-4.574,0-4.574l-2.463-2.814l-2.463-5.278l-5.278-7.389l-1.407-5.981l-3.519,0.353
			c1.043,1.737,1.399,2.793,1.747,6.211c10.7,30.082,30.914,55.654,57.021,73.097l9.139,0.913
			C74.631,270.434,78.149,273.248,79.908,273.601z"/>
		<path fill="#CC2627" d="M10.242,189.86l1.407,5.981l5.278,7.389l2.463,5.278l2.463,2.814c0,0-0.704,2.814,0,4.574
			c0.704,1.759,1.759,3.519,1.759,3.519c1.76,1.759,1.76,1.407,3.519,4.223c1.76,2.814,3.871,5.98,3.871,5.98l3.519,4.223
			l2.11,1.759l4.926,3.871l2.663,3.994c0.235,0.185,0.854,0.719,2.263,1.987c3.519,3.166,5.278,4.573,6.686,5.629
			s5.63,6.686,7.037,7.389c1.407,0.704,3.87,2.111,6.333,3.167s3.87,1.056,8.444,3.167s7.037,3.519,11.611,5.277
			c4.573,1.759,9.852,2.463,11.962,3.87c2.111,1.407,1.408,1.76,4.927,3.519s7.74,5.277,10.907,5.63
			c3.167,0.352,8.796,1.407,11.963,2.11c3.167,0.704,14.777,2.815,14.777,2.815c1.581,1.055,13.629,1.318,19.573,1.385
			c1.99,0.022,3.297,0.022,3.297,0.022s3.167,0,5.981-0.352c2.615-0.326,7.356-1.564,11.401-2.585
			c0.309-0.078,0.614-0.155,0.913-0.229c4.223-1.057,11.259-4.574,15.481-5.631c4.223-1.055,4.926-2.814,7.037-2.814
			c2.11,0,4.222,0,6.333-1.407s5.63-2.11,7.74-4.222c2.111-2.111,4.927-4.223,6.686-5.63c1.76-1.407,3.87-2.814,6.685-4.574
			c2.815-1.759,10.204-7.389,10.204-7.389s2.463-2.111,3.519-2.463s2.463-1.056,2.463-1.056l4.574-4.222c0,0,0,0,1.407-3.519
			s2.463-8.093,3.519-9.148s3.87-5.277,3.87-5.277s0-3.519,0.704-4.574c0.703-1.056,1.407-10.204,1.759-11.259
			c0.353-1.056,1.056-6.334,1.056-6.334l2.463-8.444v-1.056l-2.111-7.389l-1.055-2.814l-2.111-8.796c0,0-0.353-9.5-0.353-10.556
			s0-3.87,0-5.278c0-1.407,0-4.222,0-4.222l-1.056-3.519c0,0-2.814-2.463-2.814-4.574c0-2.11-0.704-2.463-0.704-5.98
			c0-3.519,0-8.444,0-8.444s1.057-4.223,0-6.333c-1.055-2.111-2.11-4.223-2.814-7.037c-0.703-2.815-2.814-5.981-2.814-7.037
			s-1.407-5.277-2.111-7.741c-0.703-2.463-0.703-4.926-1.759-7.74s-0.353-2.111-1.76-4.574s-2.463-5.277-3.87-8.093
			c-1.407-2.814-3.166-6.333-4.574-9.147c-1.407-2.815-3.87-8.797-4.926-10.907c-1.056-2.111-2.814-3.87-2.814-3.87
			s-0.704-1.056-2.814-3.167c-2.111-2.111-4.927-4.926-11.26-10.907s-8.093-7.389-8.093-7.389s-1.759-0.704-5.98-4.223
			c-4.223-3.519-19.353-15.833-19.353-15.833l-1.056-6.685l-3.87,1.056h-4.573l-5.981-5.63l-2.464-3.167l-3.166-1.759l-2.814-2.463
			l-2.767-2.767C153.029,0.09,150.082,0,147.111,0c-10.646,0-21.028,1.133-31.033,3.281c0.146,0.792-0.281,1.508-0.281,1.508
			l-2.502,2.815h3.558h1.056h-1.056l-2.111,3.518l2.111,1.056l2.111,1.056l3.518-1.407h1.407H126l5.278,0.352h-1.056
			c0,0-2.463,0.704-6.334,2.111c-3.87,1.407-1.055,1.407-1.055,1.407l2.463,1.407l2.111,1.76l-3.167,2.111
			c0,0-2.111,1.407-4.223,1.759c0,0,5.278,0.704,7.037,0.704c1.76,0,2.464,0,2.464,0s5.277-1.056,6.685-1.056
			s5.277-1.056,7.037-1.056c1.759,0,7.389,2.111,10.907,4.222c3.518,2.111,8.092,3.871,8.092,3.871l11.963,4.222l7.389,2.463
			c0,0,3.519,2.463,4.927,3.519c1.407,1.056,4.573,3.167,4.573,3.167s1.76,1.407,4.223,2.463s5.629,3.519,7.389,4.222
			c1.76,0.704,3.167,2.463,4.574,3.871c1.407,1.407,5.277,4.222,5.277,4.222l2.463,3.87l0.353,2.111l1.67,2.339
			c1.043,0.262,1.848,0.476,1.848,0.476s0,0.755-0.041,1.771c0.324,0.224,0.583,0.448,0.745,0.691
			c0.703,1.056,3.519,4.926,3.87,6.686c0.353,1.759,3.871,4.222,4.223,7.389c0.1,0.904,0.26,1.722,0.459,2.512l2.707,5.229
			l1.056,1.056l0.704,1.056l1.407,3.519c0,0,1.407,4.574,1.407,5.981s1.407,3.167,1.407,3.167l0.968,3.388
			c0.307,0.597,0.633,1.496,0.746,2.727c0.313,1.258,0.75,3.183,0.75,4.089c0,1.407,1.055,4.223,2.11,7.037s3.167,6.333,4.222,8.796
			c1.057,2.463,0.704,2.463,0.704,4.574s0,2.814-1.055,4.926c-1.057,2.111-1.408,5.277-1.408,5.277v4.926l0.352,1.407l3.167,2.463
			l0.704,1.408l-0.063,0.43c0.162,0.758,0.177,1.567-0.29,2.033l-2.111,6.685l-1.407,1.76l-0.352,6.333l1.759,4.574
			c0,0,1.408,1.759,2.464,2.814s1.759,2.814,1.759,2.814l2.111,3.519l1.407,3.871l1.407,2.814c0,0-1.759,1.407-3.167,2.463
			c-1.407,1.056,0,3.519,0,3.519s0,1.407,0,2.814s0,4.926,0,4.926l1.057,3.871v4.926c0,0-1.407,3.87-3.167,6.333
			s-2.814,5.277-2.814,5.277v3.519l-3.122,5.763c0.339,1.309,0.658,2.33,0.658,2.33s0.704-0.704,0,1.407
			c-0.703,2.111-3.166,6.685-3.166,6.685s-1.056,3.167-2.111,3.871c-1.056,0.703-5.277,3.518-6.686,5.629
			c-1.407,2.111-4.222,3.87-5.981,5.278c-1.759,1.407-9.852,5.277-9.852,5.277s-9.852,4.574-10.907,4.574
			c-1.055,0-7.389,2.814-8.444,3.167c-1.056,0.352-12.314,1.759-12.314,1.759l-30.259,3.87l-2.463,1.76l-11.611-0.704l-14.777-3.87
			l-14.777-3.167l-10.204-4.926c0,0-8.796-2.463-9.852-2.814c-1.056-0.353-10.203-5.277-10.203-5.277l-1.408-1.407
			c0,0-1.619-1.458-2.881-2.726l-9.434-4.664c0,0-6.333-5.277-7.389-6.333s-5.629-4.926-5.629-4.926l-8.797-7.389l-4.926-3.87
			c0,0-3.87-7.389-3.87-8.445c0-1.055-1.056-4.222-1.407-6.685s-1.056-1.76-1.056-1.76s-1.056-2.462-1.407-3.87
			c-0.353-1.407,0-1.759,0-1.759l1.759-1.76l-3.519-3.166c0,0-1.407-8.797-1.759-11.963c-0.352-3.167-1.056-4.223-1.056-4.223
			l-3.519-4.222l-2.814-6.686h-1.056h-4.574l-1.759-0.352l-2.815-2.814c0,0-1.407-5.981-2.463-7.037s-2.111-4.223-2.111-4.223
			l-0.352-7.037c0,0-2.111-10.555-2.111-11.61s-0.352-1.759-0.352-1.759l-1.407-5.981l-1.187-8.305
			C0.449,133.829,0,140.418,0,147.111c0,14.884,2.213,29.251,6.323,42.792l0.4,0.31L10.242,189.86z"/>
		<path fill="#CC2627" d="M44.372,243.693l-0.152-0.228C43.867,243.189,44.372,243.693,44.372,243.693z"/>
		
			<line fill="none" stroke="#EE2B28" stroke-width="0" stroke-linecap="round" stroke-linejoin="round" x1="116.853" y1="7.604" x2="117.908" y2="7.604"/>
		<path fill="#EE2B28" d="M245.277,161.713c-0.353,1.056-0.704,2.463-1.057,5.63l1.407-1.76l2.111-6.685
			C246.685,159.954,245.628,160.657,245.277,161.713z"/>
		<path fill="#EE2B28" d="M238.592,121.251c0,3.87,1.407,11.259-1.056,15.833s-3.87,9.147-3.87,10.203s0,6.686,0,6.686l0.703,2.463
			c0,0,0,1.759,2.111,2.463c2.111,0.703,9.147-1.76,9.147-1.76l1.76-2.111l-3.167-2.463l-0.352-1.407v-4.926
			c0,0,0.352-3.166,1.408-5.277c1.055-2.111,1.055-2.814,1.055-4.926s0.353-2.111-0.704-4.574c-1.055-2.463-3.166-5.981-4.222-8.796
			s-2.11-5.63-2.11-7.037c0-0.906-0.438-2.831-0.75-4.089c0.027,0.29,0.046,0.595,0.046,0.922
			C238.592,115.621,238.592,117.381,238.592,121.251z"/>
		<path fill="#EE2B28" d="M248.092,156.436l-0.704-1.408c0,0,0.438,0.879,0.642,1.838L248.092,156.436z"/>
		<path fill="#EE2B28" d="M3.909,141.658c0,0,0.352,0.703,0.352,1.759s2.111,11.61,2.111,11.61l0.352,7.037
			c0,0,1.056,3.167,2.111,4.223s2.463,7.037,2.463,7.037l2.815,2.814l1.759,0.352h4.574h1.056l2.814,6.686l3.519,4.222
			c0,0,0.704,1.056,1.056,4.223c0.352,3.166,1.759,11.963,1.759,11.963l3.519,3.166l-1.759,1.76c0,0-0.353,0.352,0,1.759
			c0.352,1.408,1.407,3.87,1.407,3.87s0.704-0.703,1.056,1.76s1.407,5.63,1.407,6.685c0,1.057,3.87,8.445,3.87,8.445l4.926,3.87
			l8.797,7.389c0,0,4.573,3.87,5.629,4.926s7.389,6.333,7.389,6.333l9.434,4.664c-0.597-0.6-1.115-1.158-1.341-1.497
			c-0.703-1.056-4.574-4.574-5.277-5.63c-0.704-1.056-5.278-4.574-5.278-4.574s-3.519-2.11-4.926-2.463
			c-1.407-0.352-3.87-2.814-3.87-2.814l-4.926-3.87l-6.686-5.278l1.76-4.926l4.222-8.444l1.407-1.056l2.815-2.814l2.463-2.814
			l2.463-2.463l3.519-1.056l-2.463-2.463c1.056-0.352,3.166-0.352,3.166-0.352l2.111-0.353l6.333-2.814l-2.11-1.056
			c0,0-1.76-1.056-2.815-1.407s-3.166-1.76-3.166-1.76s-5.981-3.166-7.037-3.166s-4.926-2.463-4.926-2.463l-2.111-0.353
			l-2.463,1.408l-2.111,2.11l4.574,3.871l-2.111,2.462l-6.685-0.352c0,0-4.926-2.814-5.63-3.87
			c-0.703-1.056-2.814-2.814-2.814-2.814s-0.704-8.797-0.704-10.907c0-2.111,0-6.686,0-9.853c0-3.166,0-10.203,0-11.963
			c0-1.759-0.352-3.518,0-6.685s1.056-5.278,2.111-8.093s2.463-7.74,3.519-11.259s1.407-8.796,3.166-11.963
			c1.76-3.166,2.815-5.277,2.815-5.277l2.463-6.333c0,0,0.352-3.87,1.759-4.926c1.408-1.056,2.463-3.519,3.87-5.981
			c1.408-2.463,5.981-9.148,5.981-11.611s0.353-5.277,0.704-8.093c0.352-2.814,1.76-9.499,1.76-9.499s0-2.464,0.703-3.871
			c0.704-1.407,1.407-3.519,4.574-5.981s7.74-4.573,8.796-5.981c1.056-1.407,6.334-4.926,9.148-6.333s8.092-3.519,9.852-4.574
			c1.759-1.056-1.407-0.703,7.74-4.222c9.148-3.519,12.667-5.63,15.481-5.981c2.815-0.352,11.26-1.76,13.371-2.111
			c2.11-0.352,11.61-0.352,13.018-0.352s9.5,0,10.556,0s1.759,2.111,4.926,4.222c3.167,2.111,6.333,3.871,8.093,4.574
			c1.759,0.704,7.74,3.87,13.722,5.63c5.981,1.759,9.852,2.11,9.852,2.11s2.463,0.353,4.223,2.464
			c1.759,2.11,1.759,3.518,7.74,6.685c5.881,3.113,10.395,4.526,12.552,6.245c0.888,0.188,1.95,0.444,2.841,0.668l-1.67-2.339
			l-0.353-2.111l-2.463-3.87c0,0-3.87-2.814-5.277-4.222c-1.407-1.408-2.814-3.167-4.574-3.871c-1.76-0.703-4.926-3.166-7.389-4.222
			s-4.223-2.463-4.223-2.463s-3.166-2.111-4.573-3.167c-1.408-1.056-4.927-3.519-4.927-3.519l-7.389-2.463l-11.963-4.222
			c0,0-4.574-1.76-8.092-3.871c-3.519-2.11-9.148-4.222-10.907-4.222c-1.76,0-5.63,1.056-7.037,1.056s-6.685,1.056-6.685,1.056
			s-0.704,0-2.464,0c-1.759,0-7.037-0.704-7.037-0.704c2.111-0.352,4.223-1.759,4.223-1.759l3.167-2.111l-2.111-1.76l-2.463-1.407
			c0,0-2.815,0,1.055-1.407c3.871-1.407,6.334-2.111,6.334-2.111h1.056L126,11.826h-2.111h-1.407l-3.518,1.407l-2.111-1.056
			l-2.111-1.056l2.111-3.518h-3.558l-0.313,0.352l-2.111,1.759c0,0-2.111,1.407-2.814,2.463c-0.704,1.056-3.52,2.111-3.52,2.111
			s-5.981,2.111-8.443,2.814c-2.463,0.704-1.056,1.056-1.056,1.056v3.871l-3.167,2.814c0,0-4.574,2.814-7.037,3.519
			c-2.463,0.703-3.519,1.056-4.926,1.759c-1.407,0.704-1.056,0.352-2.463,0.704c-1.407,0.352-3.166,2.814-3.166,2.814
			s-5.278,3.167-6.686,4.223c-1.407,1.055-2.814,1.055-2.814,1.055s-3.167,0.704-4.926,3.871c-1.76,3.166-5.63,5.629-5.63,5.629
			s-4.574,2.111-5.63,3.167s-3.167,2.463-3.87,3.519c-0.704,1.056-2.111,5.277-3.519,7.389s-2.111,2.814-3.167,4.223
			c-1.055,1.407-3.518,4.573-4.573,6.333c-1.056,1.759-1.76,3.519-3.871,7.74c-2.11,4.223-5.629,5.63-5.629,5.63
			s-2.815,2.111-5.63,4.926s-2.814,3.519-3.519,4.926c-0.703,1.407-3.519,4.926-5.629,5.63c-2.111,0.703-1.76-0.353-1.76-0.353
			s1.76-1.759,2.463-4.926c0.704-3.166,0.704-1.759,0.704-1.759l3.519-7.389l-0.898-1.383c-5.876,12.873-9.949,26.74-11.899,41.281
			l1.187,8.305L3.909,141.658z"/>
		<path fill="#EE2B28" d="M234.018,99.788c1.407,2.814,1.759,4.223,1.759,4.223l1.408,3.87c0,0,0.295,0.3,0.615,0.925l-0.968-3.388
			c0,0-1.407-1.76-1.407-3.167s-1.407-5.981-1.407-5.981l-1.407-3.519l-0.704-1.056l-1.056-1.056l-2.707-5.229
			c0.497,1.975,1.25,3.771,2.004,6.284C231.203,95.214,232.61,96.974,234.018,99.788z"/>
		<path fill="#EE2B28" d="M245.628,185.99c0.704,3.519,0.704,7.389,0.704,9.148c0,1.759,0,5.629,0,5.629s0,1.407,0,2.815
			c0,1.407,0,3.87,0,5.277s0,4.926,0,4.926v1.056c0,0,1.056,0.704,0,6.686c-1.055,5.981-3.166,9.147-3.519,10.907
			c-0.202,1.01,0.292,3.295,0.749,5.059l3.122-5.763v-3.519c0,0,1.055-2.814,2.814-5.277s3.167-6.333,3.167-6.333v-4.926
			l-1.057-3.871c0,0,0-3.519,0-4.926s0-2.814,0-2.814s-1.407-2.463,0-3.519c1.408-1.056,3.167-2.463,3.167-2.463l-1.407-2.814
			l-1.407-3.871l-2.111-3.519c0,0-0.703-1.759-1.759-2.814s-2.464-2.814-2.464-2.814l-1.759-4.574c0,2.814,0,5.981,0,5.981
			S244.925,182.472,245.628,185.99z"/>
		<path fill="#EE2B28" d="M244.221,167.343c-0.352,3.166-0.352,3.519-0.352,6.333L244.221,167.343z"/>
		<path fill="#D6B0D2" d="M10.595,94.862c0,0,0-1.407-0.704,1.759c-0.703,3.167-2.463,4.926-2.463,4.926s-0.352,1.056,1.76,0.353
			c2.11-0.704,4.926-4.223,5.629-5.63c0.704-1.407,0.704-2.111,3.519-4.926s5.63-4.926,5.63-4.926s3.519-1.407,5.629-5.63
			c2.111-4.222,2.815-5.981,3.871-7.74c1.056-1.76,3.519-4.926,4.573-6.333c1.056-1.408,1.76-2.111,3.167-4.223
			s2.814-6.333,3.519-7.389c0.703-1.056,2.814-2.463,3.87-3.519s5.63-3.167,5.63-3.167s3.87-2.463,5.63-5.629
			c1.759-3.167,4.926-3.871,4.926-3.871s1.407,0,2.814-1.055c1.407-1.056,6.686-4.223,6.686-4.223s1.759-2.463,3.166-2.814
			c1.407-0.353,1.056,0,2.463-0.704c1.407-0.703,2.463-1.056,4.926-1.759c2.463-0.704,7.037-3.519,7.037-3.519l3.167-2.814v-3.871
			c0,0-1.407-0.352,1.056-1.056c2.462-0.703,8.443-2.814,8.443-2.814s2.815-1.056,3.52-2.111c0.703-1.056,2.814-2.463,2.814-2.463
			l2.111-1.759l0.313-0.352l2.502-2.815c0,0,0.427-0.716,0.281-1.508c-1.269,0.272-2.531,0.56-3.787,0.864
			c1.036,0.367,1.747,0.644,1.747,0.644l-1.056,0.704l-1.056,1.056c0,0-2.463,0.703-4.574,2.814s-2.463,2.463-2.463,2.463
			l-5.277,3.519l-3.519,0.704h-2.815c0,0-1.759,1.055-2.463,3.518c-0.703,2.464,0,1.76,0,1.76l-1.056,2.463l-1.055,0.703
			l-5.981,2.111c0,0-2.111,1.408-3.52,1.76l-1.407,0.703l-6.333,4.574l-6.685,3.87l-3.167,2.111l-6.333,4.222l-1.76,1.056
			c0,0-2.463,1.76-3.166,3.167c-0.704,1.407-2.463,1.759-4.574,3.519s0,0-1.407,0.352c-1.407,0.353-2.463,3.87-3.519,5.278
			c-1.056,1.407-1.76,4.926-2.463,6.333c-0.704,1.407-2.463,2.111-3.519,3.167c-1.056,1.055-0.704,1.759-0.704,1.759
			s-1.407,3.167-2.814,4.574s-5.981,8.444-9.5,11.259s-3.519,0-3.519,0l-1.407-1.759v-3.167c0,0,1.056-0.703,1.759-2.111
			c0.704-1.407,0-1.759,0-1.759l-0.065-0.092c-1.942,3.473-3.745,7.033-5.406,10.672l0.898,1.383L10.595,94.862z"/>
		<path fill="#F3D9E9" d="M18.687,77.27c-0.703,1.408-1.759,2.111-1.759,2.111v3.167l1.407,1.759c0,0,0,2.814,3.519,0
			s8.093-9.852,9.5-11.259s2.814-4.574,2.814-4.574s-0.352-0.704,0.704-1.759c1.056-1.056,2.814-1.76,3.519-3.167
			c0.703-1.407,1.407-4.926,2.463-6.333c1.056-1.408,2.111-4.926,3.519-5.278c1.407-0.352-0.704,1.408,1.407-0.352
			s3.87-2.111,4.574-3.519c0.703-1.407,3.166-3.167,3.166-3.167l1.76-1.056l6.333-4.222l3.167-2.111l6.685-3.87l6.333-4.574
			l1.407-0.703c-1.407,0.352-4.222,2.463-7.74,3.166c-3.519,0.704-3.87,1.76-3.87,1.76l-3.87,2.111c0,0-13.019,6.685-14.426,7.74
			s-1.407,3.167-1.407,3.167s-2.464,2.463-3.519,3.166c-1.056,0.704-2.463,2.815-2.463,2.815l-2.111,5.277l-2.111,3.87l-3.87,2.111
			l-2.463,4.574l-7.037,6.333l-3.519-2.111l1.76-2.463l2.463-3.519l-0.567-0.496c-2.061,3.104-4.008,6.289-5.832,9.553l0.065,0.092
			C18.687,75.511,19.391,75.862,18.687,77.27z"/>
		<path fill="#F3D9E9" d="M92.224,14.641l-2.111,1.76c0,0-2.463,1.407-3.87,1.759c-1.408,0.352-2.815,2.111-2.815,2.111l-0.352,1.76
			l1.056,2.11l-1.407,2.463l5.981-2.111l1.055-0.703l1.056-2.463c0,0-0.703,0.704,0-1.76c0.704-2.463,2.463-3.518,2.463-3.518h2.815
			l3.519-0.704l5.277-3.519c0,0,0.352-0.352,2.463-2.463s4.574-2.814,4.574-2.814l1.056-1.056l1.056-0.704
			c0,0-0.711-0.276-1.747-0.644c-7.458,1.811-14.691,4.19-21.656,7.088c1.532,1.12,2.644,2,2.644,2L92.224,14.641z"/>
		<path fill="#F05029" d="M218.536,71.641c-0.352,2.11-2.111,4.222-2.111,4.222l-6.333,1.76l3.167,3.518
			c0,0,3.166,3.871,4.926,4.574l2.11,3.167l1.76,4.222l2.463,1.407v1.056v4.223v2.463l1.056,2.814l-0.704,1.407
			c0,0-3.166,2.111-4.222,3.167c-0.512,0.512-0.941,1.274-1.407,2.362v2.563l-1.76,2.111c-1.407,3.87-1.056,1.759-1.056,1.759
			l-3.519,4.223h-2.11l-6.333-1.76l-3.52-0.703l-2.11-5.277l0.703-1.408l3.167-4.222l-0.352-1.407h-1.056l-2.814,1.407l-3.52,1.759
			l-2.11-2.11l-3.871-4.223l-1.407,0.352c0,0,0,1.76-0.352,3.167s-1.056,2.463-1.056,2.463h-1.407l-2.111-0.703l-0.703-1.408
			l-2.463-1.759l-1.76-1.056l-1.056-2.111l-1.407-1.407l-1.759-2.814c0,0-1.056-0.704-1.407-2.815
			c-0.353-2.111-2.815-0.703-2.815-0.703s-1.407-0.353-2.463-0.353s-4.222-0.352-4.222-0.352s-2.815-2.111-3.519-3.166
			c-0.704-1.056-1.408-3.519-1.408-3.519v-4.574l4.927-2.815l3.519,0.353l7.037-1.407l2.11-1.407l1.407-0.704
			c0,0,0.704-1.407,1.76-2.111s1.056-1.759,1.056-1.759l5.629-2.111h1.056h1.407l4.223,0.704h2.111h3.519h3.166l3.167-3.871
			l1.056-2.463l4.574-1.407c0,0,2.11,0,3.166,0c0.292,0,0.907,0.108,1.645,0.264c-2.157-1.719-6.671-3.132-12.552-6.245
			c-5.981-3.167-5.981-4.574-7.74-6.685c-1.76-2.111-4.223-2.464-4.223-2.464s-3.87-0.352-9.852-2.11
			c-5.981-1.76-11.963-4.926-13.722-5.63c-1.76-0.703-4.926-2.463-8.093-4.574c-3.167-2.11-3.87-4.222-4.926-4.222
			s-9.148,0-10.556,0s-10.907,0-13.018,0.352c-2.111,0.352-10.556,1.76-13.371,2.111c-2.814,0.352-6.333,2.463-15.481,5.981
			c-9.147,3.519-5.981,3.166-7.74,4.222c-1.76,1.056-7.037,3.167-9.852,4.574s-8.093,4.926-9.148,6.333
			c-1.056,1.408-5.629,3.519-8.796,5.981s-3.87,4.574-4.574,5.981c-0.703,1.407-0.703,3.871-0.703,3.871s-1.408,6.685-1.76,9.499
			c-0.352,2.815-0.704,5.63-0.704,8.093s-4.573,9.148-5.981,11.611c-1.407,2.463-2.462,4.926-3.87,5.981
			c-1.407,1.056-1.759,4.926-1.759,4.926l-2.463,6.333c0,0-1.056,2.111-2.815,5.277c-1.759,3.167-2.11,8.444-3.166,11.963
			s-2.463,8.444-3.519,11.259s-1.76,4.926-2.111,8.093s0,4.926,0,6.685c0,1.76,0,8.797,0,11.963c0,3.167,0,7.741,0,9.853
			c0,2.11,0.704,10.907,0.704,10.907s2.111,1.759,2.814,2.814c0.704,1.056,5.63,3.87,5.63,3.87l6.685,0.352l2.111-2.462
			l-4.574-3.871l2.111-2.11l2.463-1.408l2.111,0.353c0,0,3.87,2.463,4.926,2.463s7.037,3.166,7.037,3.166s2.11,1.408,3.166,1.76
			s2.815,1.407,2.815,1.407l2.11,1.056l-6.333,2.814l-2.111,0.353c0,0-2.11,0-3.166,0.352l2.463,2.463l-3.519,1.056l-2.463,2.463
			l-2.463,2.814l-2.815,2.814l-1.407,1.056l-4.222,8.444l-1.76,4.926l6.686,5.278l4.926,3.87c0,0,2.463,2.463,3.87,2.814
			c1.407,0.353,4.926,2.463,4.926,2.463s4.574,3.519,5.278,4.574c0.703,1.056,4.574,4.574,5.277,5.63
			c0.226,0.339,0.744,0.897,1.341,1.497c1.262,1.268,2.881,2.726,2.881,2.726l1.408,1.407c0,0,9.147,4.925,10.203,5.277
			c1.056,0.352,9.852,2.814,9.852,2.814l10.204,4.926l14.777,3.167l14.777,3.87l11.611,0.704l2.463-1.76h-1.76
			c0,0-4.925,0-6.333-0.704c-1.407-0.703-5.277-1.407-6.333-1.407s-1.407,0-2.463,0s-2.11-0.703-5.63-1.055
			c-3.519-0.353-7.036-2.111-7.036-2.111s-1.407-2.111-4.927-3.519c-0.941-0.377-1.729-0.752-2.409-1.109
			c-3.496-0.678-7.915-1.629-9.201-2.058c-2.111-0.703-10.907-3.166-10.907-3.166s-8.093-8.093-9.5-8.797
			c-1.407-0.703-13.37-7.74-13.37-7.74l-3.611-5.523c-0.384-0.288-0.611-0.458-0.611-0.458l-5.981-4.222l-4.222-5.981l-1.76-3.167
			l0.704-4.223l2.195-1.502c0.333-1.396,0.769-3.168,0.972-3.775c0.352-1.056,2.11-3.519,2.11-3.519l3.871-3.87l11.61-13.019
			c0,0,1.407-0.352,1.407-2.814s-3.519-6.686-3.519-6.686l-5.629-4.574c0,0-3.519-2.11-5.278-4.222
			c-1.759-2.111-3.519-3.87-3.519-3.87l-3.518-2.815c0,0-1.056-3.519-2.815-5.277c-1.759-1.76-5.981-6.333-5.981-6.333l-1.056,1.759
			l-2.463,5.278l-1.759,3.518l1.056,2.463l-3.519,2.464l0.352,2.814l1.056,3.167l-4.574,9.147l1.76,1.056l-1.056,3.519l-2.111-1.76
			l-1.407-2.11l2.463-2.111l-2.814-5.277l-0.704-3.167l-1.759-2.814l-0.353-1.056l1.76-6.686l1.759-4.926l4.926-17.593l0.353-6.685
			l4.573-9.147v-5.63v-8.093l6.334-11.61c0,0,2.463-7.389,2.814-9.5s1.759-6.686,1.759-6.686l4.223-10.203l4.222-4.223l1.76-4.926
			l1.056-0.703c0,0,3.166-1.407,4.926-3.167c1.759-1.76,4.222-5.277,4.222-5.277s2.111-1.407,3.167-2.463s1.056-1.76,2.111-2.111
			c1.055-0.352,4.574-3.87,4.574-3.87l1.407-1.76l4.573-2.11c0,0,0.353-2.111,2.815-2.464c2.463-0.352,4.222-1.407,4.222-1.407
			s2.814,1.407,2.814,2.463s-1.407,0,0,1.056c1.408,1.056,7.038,0.353,7.038,0.353l11.259-4.223c0,0-2.815-0.352,1.407-0.352
			c4.222,0,10.907-0.704,10.907-0.704s2.463-0.703,8.444-0.703s9.147-0.353,9.147-0.353s-1.759-1.056,1.056,0
			c2.815,1.056,4.574,1.056,5.63,2.463s9.5,3.519,9.5,3.519s-0.704,0,1.056,0.704c1.759,0.703,4.222,1.056,4.222,1.056l1.76,1.407
			c0,0-1.407,1.056,1.056,1.759c2.463,0.704,4.573,0.704,4.573,0.704l4.927-2.463c0,0,1.407,0.703,0.703,2.814
			c-0.703,2.111-3.166,4.223-3.166,4.223s1.759,3.519,1.759,4.926s0,2.463,0,2.463l-5.277,0.352c0,0-0.704-0.704-1.76-0.704
			s-2.463,0-2.463,0h-1.056v1.76v4.222l-2.463-1.407l-2.463-2.463v-2.111l-2.814,0.353l-1.407-2.111l-0.704-1.759l-4.926-5.981
			l-12.666-0.353l-4.926,3.871l-6.686,3.87l-1.76,1.759l-0.352,4.574l-3.519,5.277c0,0-1.055,1.76-1.055,3.167
			s-0.704,1.76-0.704,2.814c0,1.056,0,2.815,0,2.815v2.11l-1.056,4.223l2.463,3.87c0,0,0,0.352,0,1.407s0,5.981,0,5.981
			l-1.056,3.519v1.76l4.223,1.407h1.759c0,0,0.353-5.63,0.703-6.686c0.353-1.056,1.408-2.814,2.464-2.814s3.166-0.352,3.166-0.352
			l2.111,0.352l2.463,1.056h1.76c0,0,0.352-2.463,0.352-3.519s0-4.574,0-4.574s1.407-0.704,3.519-0.352
			c2.11,0.352,7.389,1.056,7.389,1.056l2.111,1.056c0,0-2.111,1.055,1.055,4.222c3.167,3.167,4.223,4.222,4.223,4.222l1.407,2.111
			l-8.444,1.408c0,0,0.352,3.166-0.352,4.573c-0.704,1.407-2.111,3.87-2.111,3.87l-1.056,1.408c0,0-1.056,0.352-1.056,1.759
			s4.574,7.389,4.574,7.389s0,0,2.111,0c2.11,0,9.147-1.759,9.147-1.759l3.519-0.704l0.704-2.814c0,0,0-2.463,0.703-3.87
			c0.704-1.408,1.056-3.519,1.056-3.519l1.76,3.87v5.629l1.759,1.76c0,0,0-4.222,1.056-5.63c1.056-1.407,3.167-2.814,3.167-2.814
			l1.056-3.519l2.11-3.167l1.056-0.703l5.63,1.407c0,0,0.703,4.574,3.519,6.686c2.814,2.11,3.166,3.87,5.277,5.629
			c2.111,1.76,4.926,2.463,4.926,2.463s0,3.519,0,4.574s0.353,4.223,0.353,4.223l2.11,2.814c0,0,1.76,0.352,3.87,0.352
			c2.111,0,1.408,1.407,2.111,0c0.704-1.407,1.408-2.463,0.353-4.926s-2.111-6.333-2.111-6.333v-1.407c0,0,1.759-2.111,2.814-2.463
			c1.056-0.353,3.871-2.463,4.574-3.519c0.704-1.056,2.463-4.574,2.463-4.574s1.759,0,1.056,2.814
			c-0.704,2.815-3.519,6.333-3.519,6.333l-1.056,0.704l3.167,0.704l2.463,0.703l1.407,0.353l-3.167,2.11l-2.11,0.704
			c-2.111,1.056-3.519,5.63-3.519,5.63v2.814c0,0,0.352,1.407,1.407,2.814s1.407,2.463,2.814,2.463s3.167,0,3.167,0h1.759
			l0.353,2.463l-3.519,1.407l-0.704,2.463c0,0-0.703-1.407,0,1.76c0.704,3.166,1.056,8.444,1.056,8.444c0,3.87,0,6.685,0,6.685
			l0.703,2.111l2.464,2.111c0,0,0.352,1.056,2.814-0.704c2.463-1.759,3.87-2.463,3.87-2.463l0.704-1.056l3.518,5.278l0.353,2.814
			c0,0-2.111-0.704,0.352,1.407s3.167,3.167,3.167,3.167l1.76,18.647v4.574l-2.815,12.667l-0.352,4.222l-0.353,4.574l-2.462,6.685
			l1.407,3.167l-5.278,1.056l2.111,2.463l2.11,0.352c0,0,0,0.99-0.262,1.972c0.968,0.583,2.021,1.899,2.021,1.899l-2.11,2.814
			l-3.167,1.056c0,0-0.353-1.056-2.814,0.703c-2.464,1.76-7.741,5.63-7.741,5.63s-3.87,2.814-6.333,3.519
			c-0.473,0.135-1.063,0.361-1.705,0.638c-0.149,0.322-0.288,0.592-0.406,0.77c-0.704,1.056-1.759,2.111-2.815,2.463
			c-1.055,0.353-8.443,3.87-9.499,4.926s-5.278,1.408-7.037,2.463c-1.76,1.056-10.907,4.223-17.24,4.223c-1.447,0-2.967,0-4.45,0
			l-9.624,5.277l-6.686,1.407l-3.166,1.408l-2.111,1.055l30.259-3.87c0,0,11.259-1.407,12.314-1.759
			c1.056-0.353,7.39-3.167,8.444-3.167c1.056,0,10.907-4.574,10.907-4.574s8.093-3.87,9.852-5.277
			c1.76-1.408,4.574-3.167,5.981-5.278c1.408-2.111,5.63-4.926,6.686-5.629c1.056-0.704,2.111-3.871,2.111-3.871
			s2.463-4.573,3.166-6.685c0.704-2.111,0-1.407,0-1.407s-0.319-1.021-0.658-2.33c-0.457-1.764-0.951-4.049-0.749-5.059
			c0.353-1.76,2.464-4.926,3.519-10.907c1.056-5.981,0-6.686,0-6.686v-1.056c0,0,0-3.519,0-4.926s0-3.87,0-5.277
			c0-1.408,0-2.815,0-2.815s0-3.87,0-5.629c0-1.76,0-5.63-0.704-9.148c-0.703-3.519-1.759-6.333-1.759-6.333s0-3.167,0-5.981
			s0-3.167,0.352-6.333c0.353-3.167,0.704-4.574,1.057-5.63c0.351-1.056,1.407-1.759,2.462-2.814
			c0.467-0.466,0.452-1.275,0.29-2.033c-0.203-0.959-0.642-1.838-0.642-1.838l-1.76,2.111c0,0-7.036,2.463-9.147,1.76
			c-2.111-0.704-2.111-2.463-2.111-2.463l-0.703-2.463c0,0,0-5.63,0-6.686s1.407-5.629,3.87-10.203s1.056-11.963,1.056-15.833
			s0-5.63,0-8.797c0-0.327-0.019-0.632-0.046-0.922c-0.113-1.23-0.439-2.13-0.746-2.727c-0.32-0.625-0.615-0.925-0.615-0.925
			l-1.408-3.87c0,0-0.352-1.408-1.759-4.223s-2.814-4.574-3.87-8.093c-0.754-2.513-1.507-4.31-2.004-6.284
			c-0.199-0.79-0.359-1.607-0.459-2.512c-0.352-3.167-3.87-5.63-4.223-7.389c-0.352-1.76-3.167-5.63-3.87-6.686
			c-0.162-0.243-0.421-0.468-0.745-0.691C218.804,69.202,218.716,70.559,218.536,71.641z M153.093,89.232
			c0,0-3.167,2.111-4.574,2.815c-1.407,0.703-2.111,0.703-2.111,0.703s-3.87,0.704-5.629,0.704c-1.76,0-1.056,0.703-1.056,0.703
			l-2.463,2.463h-4.574v-1.056l-2.815-2.814v-5.277l1.408-4.223c0,0,2.814-8.796,6.333-9.852s2.111-2.463,2.111-2.463l1.759-1.056
			l3.167-1.759l3.167-2.815l1.407-2.814l4.573-0.352h4.927l3.518,4.222v1.76c0,0-2.11,7.74-2.463,10.203
			c-0.352,2.463-1.055,2.463-2.111,4.223c-1.055,1.759-2.814,3.166-3.166,4.222S153.093,89.232,153.093,89.232z"/>
		<path fill="#EE2B28" d="M212.555,64.955c-1.056,0-3.166,0-3.166,0l-4.574,1.407l-1.056,2.463l-3.167,3.871h-3.166h-3.519h-2.111
			l-4.223-0.704h-1.407h-1.056l-5.629,2.111c0,0,0,1.055-1.056,1.759s-1.76,2.111-1.76,2.111l-1.407,0.704l-2.11,1.407l-7.037,1.407
			l-3.519-0.353l-4.927,2.815v4.574c0,0,0.704,2.463,1.408,3.519c0.703,1.055,3.519,3.166,3.519,3.166s3.166,0.352,4.222,0.352
			s2.463,0.353,2.463,0.353s2.463-1.408,2.815,0.703c0.352,2.111,1.407,2.815,1.407,2.815l1.759,2.814l1.407,1.407l1.056,2.111
			l1.76,1.056l2.463,1.759l0.703,1.408l2.111,0.703h1.407c0,0,0.704-1.056,1.056-2.463s0.352-3.167,0.352-3.167l1.407-0.352
			l3.871,4.223l2.11,2.11l3.52-1.759l2.814-1.407h1.056l0.352,1.407l-3.167,4.222l-0.703,1.408l2.11,5.277l3.52,0.703l6.333,1.76
			h2.11l3.519-4.223c0,0-0.352,2.111,1.056-1.759l-3.167,3.167l-2.462-1.76v-2.111l-1.408-2.463l-3.87-4.222l3.87-1.76h5.63
			l3.167,2.464v2.01c0.466-1.088,0.896-1.851,1.407-2.362c1.056-1.056,4.222-3.167,4.222-3.167l0.704-1.407l-1.056-2.814v-2.463
			v-4.223V94.51l-2.463-1.407l-1.76-4.222l-2.11-3.167c-1.76-0.703-4.926-4.574-4.926-4.574l-3.167-3.518l6.333-1.76
			c0,0,1.76-2.111,2.111-4.222c0.18-1.082,0.268-2.438,0.311-3.507c0.041-1.017,0.041-1.771,0.041-1.771s-0.805-0.214-1.848-0.476
			c-0.891-0.224-1.953-0.48-2.841-0.668C213.462,65.063,212.847,64.955,212.555,64.955z M222.759,107.881l-1.76-0.353l-0.352-1.759
			l2.463-1.759L222.759,107.881z M210.796,83.604l0.352,1.056v1.407l0.352,1.759l1.056,1.056l1.408,1.407l2.462,0.704l1.056,0.352
			l1.056,1.056l1.056,2.11l2.814,1.408v2.814v1.407l-1.055,3.167c0,0-1.408,1.056-2.464,1.407c-1.055,0.352-1.407,1.056-2.463,1.056
			c-1.055,0-2.814,0-2.814,0h-3.519l-2.111-1.407v-1.76v-2.111l-3.518,2.111h-1.408l-2.814-0.352l-2.111-0.352l-1.759-0.353
			l-3.87-3.518c0,0-2.815-1.408-3.871-1.408s-3.519-1.759-3.519-1.759l-3.519-3.167l-2.814-0.352l-4.222-4.223l5.277-5.277
			l1.056-3.166l0.352-4.574c0,0,2.463,0,3.519,0s2.111,0,2.111,0l2.463,0.703h1.407h1.407h1.407l2.111,0.704l2.815,0.352h2.462
			l5.63,0.704l0.704,5.629L210.796,83.604z M212.555,75.862l-3.166,0.352l-2.464-1.759l0.704-3.519l1.407-2.814h1.76l2.463,3.166
			l0.352,3.519L212.555,75.862z"/>
		<path fill="#F3712A" d="M206.573,262.693c0,0-2.463,1.407-4.573,2.814c-2.111,1.408-9.148,2.815-12.315,3.87
			c-3.166,1.056-12.314,2.111-12.314,2.111l-1.283,0.704c1.483,0,3.003,0,4.45,0c6.333,0,15.48-3.167,17.24-4.223
			c1.759-1.055,5.981-1.407,7.037-2.463s8.444-4.573,9.499-4.926c1.057-0.352,2.111-1.407,2.815-2.463
			c0.118-0.178,0.257-0.447,0.406-0.77c-2.711,1.164-6.388,3.232-6.388,3.232L206.573,262.693z"/>
		<path fill="#F3712A" d="M148.871,56.862h-3.167h-2.814l-8.093,3.167l-6.334,5.63l-4.222,3.87l-2.463,2.814l-0.352,2.111
			l6.333,3.519l1.056,2.814c0,0,0.352-0.352-0.353,2.815c-0.703,3.166-1.407,7.389-2.463,10.555
			c-1.055,3.167-2.111,6.686-2.111,7.741s-1.759,5.629-2.11,7.389c-0.352,1.759-1.056,2.814-1.056,4.926s-2.814,0.704,0,4.926
			c2.815,4.223,5.981,5.981,7.389,6.333c1.408,0.352-0.352-0.703,2.815,0.352c3.166,1.056,5.629,4.223,5.629,4.223
			s-0.352,1.056,2.111,1.056s3.87-0.352,6.333,0.703c2.463,1.056-2.463,1.408,3.519,1.76s7.74-0.704,7.74-0.704s0-1.056,1.407,0
			c1.408,1.056,6.686,0.704,7.741,2.111c0.727,0.97,0.786,1.271,1.328,1.135l2.19-2.19l1.056-1.056l0.774,1.086
			c1.283-0.902,2.393-1.789,2.393-1.789s-0.353-1.76,1.759,0c2.111,1.759,2.111,1.759,2.111,1.759s2.463,1.76,3.87,1.408
			c1.407-0.353,3.167-0.704,4.222-3.52c1.056-2.814,1.76-4.926,1.76-4.926s2.11-0.703,3.87,0.353s4.926,2.463,4.926,2.463h3.167
			h2.11c0,0,1.057-0.352,1.76,2.463c0.704,2.814,0.704,7.389,2.111,8.093c1.407,0.703,2.463,1.759,2.463,1.759l-4.574-0.352
			l3.167,3.166c0,0,2.814,3.519,3.166,4.574c0.353,1.055,0.353,1.055,0.353,1.055l0.703,1.408l-2.463,9.147
			c0,0-2.111,1.056-3.519,2.111s-4.222,4.223-4.222,4.223l-3.871,2.814l-3.166,1.759l-6.333,3.519l-1.408,0.704l-1.759,2.463
			c0,0,0,1.759-1.056,2.111c-1.056,0.352-3.87,2.463-3.87,2.463l-2.463,2.111l-1.056,1.407l0.703,1.759l0.353,2.815v1.055
			l-1.056,1.408l-2.111,1.407l-1.759,0.352l1.407,3.87l3.166,2.111l1.76,2.111c0,0,0.704,1.407,2.814,1.407c2.111,0,3.519,0,3.519,0
			s1.056-1.056,2.111-2.111s0.352-3.87,0.352-3.87l-2.814-3.519L183,192.323c0,0,2.814-0.703,4.222-0.703s5.981-2.815,7.74-4.574
			c1.76-1.759-0.703,1.759,3.52-4.223c4.222-5.981,3.519-5.981,6.685-8.796c3.167-2.814,3.519-3.166,4.926-4.222
			s2.814-1.76,2.814-1.76s2.111,0,3.519,0c1.408,0,5.981,7.389,5.981,7.389l1.056,1.056c0,0,0,0,1.76,0c1.759,0,4.574,0,4.574,0
			s0.352,1.056,0.352,2.111s0.703,5.277,0.703,5.277s-0.352,2.111,1.056,3.167c1.408,1.056,1.408,2.111,2.463,2.463
			c1.056,0.352,2.463,1.407,2.463,1.407l2.814,3.87l0.704,2.111v4.926c0,0,0,6.686,0,7.741s0,6.333,0,6.333l-1.759,3.167
			l-0.353,1.759l-1.055,4.574c0,0-1.76,4.926-2.463,6.685c-0.704,1.76-1.056,4.223-1.056,4.223l1.056,2.463
			c0,0,3.166,1.759,4.222,2.111c0.142,0.047,0.291,0.121,0.441,0.212c0.262-0.981,0.262-1.972,0.262-1.972l-2.11-0.352l-2.111-2.463
			l5.278-1.056l-1.407-3.167l2.462-6.685l0.353-4.574l0.352-4.222l2.815-12.667v-4.574l-1.76-18.647c0,0-0.704-1.056-3.167-3.167
			s-0.352-1.407-0.352-1.407l-0.353-2.814l-3.518-5.278l-0.704,1.056c0,0-1.407,0.704-3.87,2.463
			c-2.463,1.76-2.814,0.704-2.814,0.704l-2.464-2.111l-0.703-2.111c0,0,0-2.814,0-6.685c0,0-0.352-5.278-1.056-8.444
			c-0.703-3.167,0-1.76,0-1.76l0.704-2.463l3.519-1.407l-0.353-2.463h-1.759c0,0-1.76,0-3.167,0s-1.759-1.056-2.814-2.463
			s-1.407-2.814-1.407-2.814v-2.814c0,0,1.407-4.574,3.519-5.63l2.11-0.704l3.167-2.11l-1.407-0.353l-2.463-0.703l-3.167-0.704
			l1.056-0.704c0,0,2.814-3.518,3.519-6.333c0.703-2.814-1.056-2.814-1.056-2.814s-1.759,3.519-2.463,4.574
			c-0.703,1.056-3.519,3.166-4.574,3.519c-1.056,0.352-2.814,2.463-2.814,2.463v1.407c0,0,1.056,3.87,2.111,6.333
			s0.352,3.519-0.353,4.926c-0.703,1.407,0,0-2.111,0c-2.11,0-3.87-0.352-3.87-0.352l-2.11-2.814c0,0-0.353-3.167-0.353-4.223
			s0-4.574,0-4.574s-2.814-0.703-4.926-2.463c-2.111-1.759-2.463-3.519-5.277-5.629c-2.815-2.111-3.519-6.686-3.519-6.686
			l-5.63-1.407l-1.056,0.703l-2.11,3.167l-1.056,3.519c0,0-2.111,1.407-3.167,2.814c-1.056,1.408-1.056,5.63-1.056,5.63l-1.759-1.76
			v-5.629l-1.76-3.87c0,0-0.352,2.11-1.056,3.519c-0.703,1.407-0.703,3.87-0.703,3.87l-0.704,2.814l-3.519,0.704
			c0,0-7.037,1.759-9.147,1.759c-2.111,0-2.111,0-2.111,0s-4.574-5.981-4.574-7.389s1.056-1.759,1.056-1.759l1.056-1.408
			c0,0,1.407-2.463,2.111-3.87c0.703-1.407,0.352-4.573,0.352-4.573l8.444-1.408l-1.407-2.111c0,0-1.056-1.055-4.223-4.222
			c-3.166-3.167-1.055-4.222-1.055-4.222l-2.111-1.056c0,0-5.278-0.704-7.389-1.056c-2.111-0.353-3.519,0.352-3.519,0.352
			s0,3.519,0,4.574s-0.352,3.519-0.352,3.519h-1.76l-2.463-1.056l-2.111-0.352c0,0-2.11,0.352-3.166,0.352s-2.111,1.759-2.464,2.814
			c-0.351,1.056-0.703,6.686-0.703,6.686h-1.759l-4.223-1.407v-1.76l1.056-3.519c0,0,0-4.926,0-5.981s0-1.407,0-1.407l-2.463-3.87
			l1.056-4.223v-2.11c0,0,0-1.76,0-2.815c0-1.055,0.704-1.407,0.704-2.814s1.055-3.167,1.055-3.167l3.519-5.277l0.352-4.574
			l1.76-1.759l6.686-3.87l4.926-3.871l12.666,0.353l-2.463-0.704L148.871,56.862z"/>
		<path fill="#F3712A" d="M75.687,215.546c0,0,0,1.056,1.407,0s4.222-5.278,4.222-7.037c0-1.76,0-7.037,0-7.037l4.927-5.277
			l-2.815-4.223c0,0,0-1.407,0-3.87s-2.463-4.574-2.463-4.574c-2.111-1.056-3.87-3.519-5.63-4.926
			c-1.759-1.407-6.685-7.389-6.685-7.389l-3.87-1.76l-2.815-4.573l-0.703-3.167l-0.353-2.814v-4.926l-1.407-3.167l-1.056-3.519
			l2.463-7.389l0.252-1.152l2.211-10.106l-0.703-11.611c0,0,0,0.31,0,0.312c0-0.002,0-0.312,0-0.312c0-0.291,0-0.825,0-1.759
			c0-3.167,0-7.037,0-7.037s0-1.056,0-2.111s-0.352-2.463,0.703-3.519c1.056-1.056,5.981-9.5,7.741-11.61
			c1.759-2.111,3.167-5.63,3.167-5.63l4.573-4.223l6.999-5.948c0.012-0.02,0.038-0.033,0.038-0.033l-0.038,0.033
			c-0.048,0.078,0.162,0.25,3.557-0.033c4.223-0.352,5.981-0.703,7.74-2.462c1.76-1.76,8.093-8.797,8.093-8.797l2.463-3.166
			c0,0-0.703-1.056,5.981-3.167c6.686-2.111,20.759-7.389,22.166-7.389c1.408,0,19,1.407,19,1.407s3.519,3.167,5.63,3.519
			s5.981,1.407,5.981,1.407l4.926,3.519l3.87,4.926c0,0,0.352,2.111-1.056,2.111s-5.277-2.111-5.277-2.111l-3.167-0.703
			l-5.277-3.519l4.926,5.981l0.704,1.759l1.407,2.111l2.814-0.353v2.111l2.463,2.463l2.463,1.407v-4.222v-1.76h1.056
			c0,0,1.407,0,2.463,0s1.76,0.704,1.76,0.704l5.277-0.352c0,0,0-1.056,0-2.463s-1.759-4.926-1.759-4.926s2.463-2.111,3.166-4.223
			c0.704-2.111-0.703-2.814-0.703-2.814l-4.927,2.463c0,0-2.11,0-4.573-0.704c-2.463-0.703-1.056-1.759-1.056-1.759l-1.76-1.407
			c0,0-2.463-0.353-4.222-1.056c-1.76-0.704-1.056-0.704-1.056-0.704s-8.444-2.111-9.5-3.519s-2.814-1.407-5.63-2.463
			c-2.814-1.056-1.056,0-1.056,0s-3.166,0.353-9.147,0.353s-8.444,0.703-8.444,0.703s-6.686,0.704-10.907,0.704
			c-4.223,0-1.407,0.352-1.407,0.352l-11.259,4.223c0,0-5.63,0.703-7.038-0.353c-1.407-1.056,0,0,0-1.056s-2.814-2.463-2.814-2.463
			s-1.759,1.056-4.222,1.407c-2.463,0.353-2.815,2.464-2.815,2.464l-4.573,2.11l-1.407,1.76c0,0-3.52,3.519-4.574,3.87
			c-1.056,0.352-1.056,1.056-2.111,2.111s-3.167,2.463-3.167,2.463s-2.463,3.518-4.222,5.277c-1.76,1.76-4.926,3.167-4.926,3.167
			l-1.056,0.703l-1.76,4.926l-4.222,4.223l-4.223,10.203c0,0-1.407,4.574-1.759,6.686s-2.814,9.5-2.814,9.5l-6.334,11.61v8.093v5.63
			l-4.573,9.147l-0.353,6.685l-4.926,17.593l-1.759,4.926l-1.76,6.686l0.353,1.056l1.759,2.814l0.704,3.167l2.814,5.277
			l-2.463,2.111l1.407,2.11l2.111,1.76l1.056-3.519l-1.76-1.056l4.574-9.147l-1.056-3.167l-0.352-2.814l3.519-2.464l-1.056-2.463
			l1.759-3.518l2.463-5.278l1.056-1.759c0,0,4.223,4.573,5.981,6.333c1.76,1.759,2.815,5.277,2.815,5.277l3.518,2.815
			c0,0,1.76,1.759,3.519,3.87c1.76,2.111,5.278,4.222,5.278,4.222l5.629,4.574c0,0,3.519,4.223,3.519,6.686
			s-1.407,2.814-1.407,2.814l-11.61,13.019l-3.871,3.87c0,0-1.759,2.463-2.11,3.519c-0.203,0.607-0.639,2.38-0.972,3.775
			l11.175-7.646L75.687,215.546z"/>
		<path fill="#F3712A" d="M113.686,269.378c-1.407-0.352-5.277-1.407-5.277-1.407c-0.155,0-0.465,0-1.056,0
			c-1.759,0-5.981-2.111-7.389-2.814c-1.408-0.704-7.037-5.63-8.444-6.333c-1.407-0.704-8.444-5.63-11.259-7.741
			c-2.313-1.734-7.474-5.604-9.241-6.931l3.611,5.523c0,0,11.963,7.037,13.37,7.74c1.407,0.704,9.5,8.797,9.5,8.797
			s8.796,2.463,10.907,3.166c1.286,0.429,5.705,1.38,9.201,2.058C115.75,270.461,114.717,269.636,113.686,269.378z"/>
		
			<line fill="none" stroke="#FAA11B" stroke-width="0" stroke-linecap="round" stroke-linejoin="round" x1="62.668" y1="117.028" x2="62.668" y2="117.34"/>
		<path fill="#FAA11B" d="M159.777,278.878l6.686-1.407l9.624-5.277l1.283-0.704c0,0,9.148-1.056,12.314-2.111
			c3.167-1.055,10.204-2.462,12.315-3.87c2.11-1.407,4.573-2.814,4.573-2.814l4.574-2.111c0,0,3.677-2.068,6.388-3.232
			c0.643-0.276,1.232-0.503,1.705-0.638c2.463-0.704,6.333-3.519,6.333-3.519s5.277-3.87,7.741-5.63
			c2.462-1.759,2.814-0.703,2.814-0.703l3.167-1.056l2.11-2.814c0,0-1.054-1.316-2.021-1.899c-0.15-0.091-0.3-0.165-0.441-0.212
			c-1.056-0.353-4.222-2.111-4.222-2.111l-1.056-2.463c0,0,0.352-2.463,1.056-4.223c0.703-1.759,2.463-6.685,2.463-6.685
			l1.055-4.574l0.353-1.759l1.759-3.167c0,0,0-5.277,0-6.333s0-7.741,0-7.741v-4.926l-0.704-2.111l-2.814-3.87
			c0,0-1.407-1.056-2.463-1.407c-1.055-0.352-1.055-1.407-2.463-2.463c-1.407-1.056-1.056-3.167-1.056-3.167
			s-0.703-4.222-0.703-5.277s-0.352-2.111-0.352-2.111s-2.815,0-4.574,0c-1.76,0-1.76,0-1.76,0l-1.056-1.056
			c0,0-4.573-7.389-5.981-7.389c-1.407,0-3.519,0-3.519,0s-1.407,0.704-2.814,1.76s-1.759,1.407-4.926,4.222
			c-3.166,2.814-2.463,2.814-6.685,8.796c-4.223,5.981-1.76,2.464-3.52,4.223c-1.759,1.759-6.333,4.574-7.74,4.574
			S183,192.323,183,192.323l0.352,3.167l2.814,3.519c0,0,0.704,2.814-0.352,3.87s-2.111,2.111-2.111,2.111s-1.407,0-3.519,0
			c-2.11,0-2.814-1.407-2.814-1.407l-1.76-2.111l-3.166-2.111l-1.407-3.87l1.759-0.352l2.111-1.407l1.056-1.408v-1.055l-0.353-2.815
			l-0.703-1.759l1.056-1.407l2.463-2.111c0,0,2.814-2.111,3.87-2.463c1.056-0.353,1.056-2.111,1.056-2.111l1.759-2.463l1.408-0.704
			l6.333-3.519l3.166-1.759l3.871-2.814c0,0,2.814-3.167,4.222-4.223s3.519-2.111,3.519-2.111l2.463-9.147l-0.703-1.408
			c0,0,0,0-0.353-1.055c-0.352-1.056-3.166-4.574-3.166-4.574l-3.167-3.166l4.574,0.352c0,0-1.056-1.056-2.463-1.759
			c-1.407-0.704-1.407-5.278-2.111-8.093c-0.703-2.814-1.76-2.463-1.76-2.463h-2.11h-3.167c0,0-3.166-1.407-4.926-2.463
			s-3.87-0.353-3.87-0.353s-0.704,2.111-1.76,4.926c-1.055,2.815-2.814,3.167-4.222,3.52c-1.407,0.352-3.87-1.408-3.87-1.408
			s0,0-2.111-1.759c-2.111-1.76-1.759,0-1.759,0s-1.109,0.887-2.393,1.789l2.744,3.84l1.407,1.408l0.703,1.056l3.52,1.407
			l3.166-0.353c0.023,0.117,0.045,0.235,0.065,0.353h1.694l5.981,2.11l3.518,0.353l2.815,1.055l3.166,0.704l3.167,2.463v2.814
			l-3.167,5.278l-6.333,2.11l-2.814,4.574L183,163.472h-2.463l-8.797,2.464l1.408,2.814l0.703,3.87
			c1.407,1.407,2.111,2.463,2.111,2.463v2.111l-3.167,3.87l-1.407,2.111l-2.814,7.037v2.11c0,1.76,0,4.574,0,4.574v2.111
			l1.407,2.814l1.056,0.704l3.166,3.167l3.167,0.703c0,0,1.056,0,2.814,0c1.76,0,3.519,0,3.519,0
			c2.111-1.056,2.815-3.519,3.167-4.574s1.407-2.463,1.407-2.463l1.76-2.463l1.407-0.352l3.166-2.111l3.167-0.352l7.389-0.704
			l6.333-5.277l6.686-1.056l2.463-0.352h3.87h3.167l1.759,1.759l3.167,2.815l0.198,2.381l0.153,0.082c0,0,1.407,2.11,1.407,3.166
			s1.056,5.63,1.056,7.741c0,1.613,0.203,3.637-0.171,5.443c0.17,1.996,0.171,3.704,0.171,3.704l1.407,3.167l-1.407,6.333
			l-9.499,11.259l0.351,2.464l-4.573,3.518l-3.519,4.927l-6.686,3.166l-4.574,2.111l-2.462,1.759l-4.927,3.167
			c0,0-2.463,2.111-3.87,2.463s-6.686,3.166-6.686,3.166l-2.768,0.347c-0.931,0.859-2.861,1.413-2.861,1.413
			s-0.362,0.104-0.867,0.23l-0.188,0.121h-0.308c-0.748,0.176-1.627,0.353-2.155,0.353l-4.926,2.463c0,0-2.814,0.704-4.223,1.055
			c-1.407,0.353-9.147,0.353-10.203,0.353s-2.463,0-4.223,0c-1.759,0-8.092-0.353-10.203-0.703
			c-2.111-0.353-11.963-2.111-11.963-2.111l-1.056-0.353l-6.333,2.111l-0.352-2.111l-1.407-3.167c0,0-2.111-3.87-3.167-3.87
			s-4.574-2.111-4.574-2.111l-7.036-6.332c0,0-4.223-3.871-5.631-5.278c-1.407-1.407-6.685-4.926-7.74-5.277
			c-1.056-0.353-5.981-5.278-5.981-5.278l-2.11-5.629l-0.704-4.927l0.352-4.222l2.814-10.907l-0.352-3.87v-4.926v-5.278v-5.277
			v-3.87l-1.759-3.519l-2.814-1.76c0,0-1.408-1.407-2.815-1.759c-1.407-0.353-8.093-3.519-8.093-3.519l-1.407-1.056l-0.352-2.814
			l-1.056-4.223v-5.277l1.056-3.167l-2.815-5.277l-1.407-1.056l-2.11-2.111v-6.333v-3.519l1.056-4.926l1.055-3.519l2.463-2.814
			l1.76-4.926v-1.056l0.704-3.167l1.759-3.87l0.703-1.056l2.463-3.518l0.704-3.52l1.407-3.87l5.278-6.685l3.166-2.815
			c0,0,0.353-1.407,1.407-1.759c1.057-0.352,2.111-1.759,2.111-1.759l1.76-2.464l1.407,3.167l-5.63,3.87l-0.703,2.463l0.352,3.519
			v4.574l-4.222,4.926l1.407,0.353l2.814,1.759h4.222l4.574-0.704l3.87-2.463l4.223-3.519l2.815-2.463l3.518-1.056h2.111
			l0.352,1.056l-1.759,7.741l-4.66,13.359c-0.024,0.583-0.043,1.183-0.057,1.792c1.182,0.076,2.957,0.329,2.957,0.329l3.519,2.815
			l0.704,3.87l3.87,2.815c0,0,3.519,1.407,4.574,2.11c1.056,0.704,5.63,3.519,5.63,3.519l1.407,0.352l5.742,0.522
			c-0.653-1.299-1.168-2.281-1.168-2.281l4.925,1.407l1.76-1.407l5.278,0.704l0.703,0.938l2.814-0.938l5.277-0.353l6.686-1.759
			l2.111-1.76l0.272-0.272c-0.542,0.137-0.602-0.165-1.328-1.135c-1.056-1.407-6.333-1.056-7.741-2.111
			c-1.407-1.056-1.407,0-1.407,0s-1.759,1.056-7.74,0.704s-1.056-0.704-3.519-1.76c-2.463-1.055-3.87-0.703-6.333-0.703
			s-2.111-1.056-2.111-1.056s-2.463-3.167-5.629-4.223c-3.167-1.055-1.407,0-2.815-0.352c-1.407-0.352-4.573-2.11-7.389-6.333
			c-2.814-4.222,0-2.814,0-4.926s0.704-3.167,1.056-4.926c0.352-1.76,2.11-6.333,2.11-7.389s1.057-4.574,2.111-7.741
			c1.056-3.166,1.76-7.389,2.463-10.555c0.704-3.167,0.353-2.815,0.353-2.815l-1.056-2.814l-6.333-3.519l0.352-2.111l2.463-2.814
			l4.222-3.87l6.334-5.63l8.093-3.167h2.814h3.167l9.147,3.167l2.463,0.704l5.277,3.519l3.167,0.703c0,0,3.87,2.111,5.277,2.111
			s1.056-2.111,1.056-2.111l-3.87-4.926l-4.926-3.519c0,0-3.87-1.056-5.981-1.407s-5.63-3.519-5.63-3.519s-17.592-1.407-19-1.407
			c-1.407,0-15.48,5.277-22.166,7.389c-6.685,2.111-5.981,3.167-5.981,3.167l-2.463,3.166c0,0-6.333,7.037-8.093,8.797
			c-1.759,1.759-3.518,2.11-7.74,2.462c-3.395,0.283-3.604,0.111-3.557,0.033l-6.999,5.948l-4.573,4.223c0,0-1.408,3.519-3.167,5.63
			c-1.76,2.11-6.686,10.555-7.741,11.61c-1.055,1.056-0.703,2.463-0.703,3.519s0,2.111,0,2.111s0,3.87,0,7.037
			c0,0.934,0,1.468,0,1.759l0.703,11.611l-2.211,10.106l-0.252,1.152l-2.463,7.389l1.056,3.519l1.407,3.167v4.926l0.353,2.814
			l0.703,3.167l2.815,4.573l3.87,1.76c0,0,4.926,5.981,6.685,7.389c1.76,1.407,3.519,3.87,5.63,4.926c0,0,2.463,2.111,2.463,4.574
			s0,3.87,0,3.87l2.815,4.223l-4.927,5.277c0,0,0,5.277,0,7.037c0,1.759-2.814,5.981-4.222,7.037s-1.407,0-1.407,0l-3.167,1.407
			l-11.175,7.646l-2.195,1.502l-0.704,4.223l1.76,3.167l4.222,5.981l5.981,4.222c0,0,0.228,0.17,0.611,0.458
			c1.768,1.327,6.928,5.196,9.241,6.931c2.814,2.111,9.852,7.037,11.259,7.741c1.407,0.703,7.036,5.629,8.444,6.333
			c1.407,0.703,5.63,2.814,7.389,2.814c0.591,0,0.9,0,1.056,0c0,0,3.87,1.056,5.277,1.407c1.031,0.258,2.064,1.083,3.924,2.058
			c0.681,0.357,1.468,0.732,2.409,1.109c3.52,1.407,4.927,3.519,4.927,3.519s3.518,1.759,7.036,2.111
			c3.52,0.352,4.574,1.055,5.63,1.055s1.407,0,2.463,0s4.926,0.704,6.333,1.407c1.408,0.704,6.333,0.704,6.333,0.704h1.76
			l2.111-1.055L159.777,278.878z"/>
		<path fill="#FAA11B" d="M85.852,75.191l0.038-0.033C85.89,75.158,85.863,75.172,85.852,75.191z"/>
		<polygon fill="#F9DF10" points="168.926,133.917 166.735,136.107 166.463,136.38 164.352,138.14 157.666,139.898 152.389,140.251 
			149.574,141.188 152.037,144.473 152.037,145.528 155.204,148.343 158.019,148.343 161.537,149.046 161.537,150.806 
			161.537,153.973 163.647,154.324 165.056,154.324 167.519,154.676 169.277,154.676 171.037,154.676 171.389,152.564 
			173.852,144.824 177.019,142.714 179.13,141.658 175.61,140.251 174.907,139.195 173.5,137.787 170.756,133.947 169.981,132.861 
					"/>
		<path fill="#F9DF10" d="M173.148,264.805l-3.167,0.352l-2.382,0.298c-0.956,0.229-1.818,0.405-2.192,0.405h-1.056l-0.05-0.034
			c-2.063-0.09-5.932-0.317-5.932-0.317l-7.74-1.759l-7.74-0.353l-7.389-2.462l-7.038-3.871l-3.523-1.913
			c-1.144-0.219-2.303-0.427-3.161-0.55c-1.162-0.166-1.854-1.271-2.261-2.393l-3.369-1.829l-0.239-0.68l-1.871-1.08l-5.981-8.444
			c0,0-2.463-9.5-2.815-11.259c-0.352-1.76-3.519-10.907-3.519-12.314c0-1.408-3.518-16.889-3.518-16.889l-0.353-9.148l-2.111-7.389
			l-1.056-4.926l0.704-3.519l-4.574-6.334l-4.926-4.926v-2.463l-1.407-4.222l-2.463-2.111l-0.352-5.63v-1.407l4.222-7.388
			l1.76-2.464l2.814-3.166l1.76-5.981l-2.815-1.76l5.63-0.703l6.333-3.519l2.463-2.463c0,0,1.056-3.87,2.111-5.277
			c1.056-1.408,2.111-2.464,2.814-3.519c0.704-1.056,2.111-1.056,2.111-1.056h3.519l1.759-7.741l-0.352-1.056h-2.111l-3.518,1.056
			l-2.815,2.463l-4.223,3.519l-3.87,2.463l-4.574,0.704h-4.222l-2.814-1.759l-1.407-0.353l4.222-4.926v-4.574l-0.352-3.519
			l0.703-2.463l5.63-3.87l-1.407-3.167l-1.76,2.464c0,0-1.055,1.407-2.111,1.759c-1.055,0.352-1.407,1.759-1.407,1.759l-3.166,2.815
			l-5.278,6.685l-1.407,3.87l-0.704,3.52l-2.463,3.518l-0.703,1.056l-1.759,3.87l-0.704,3.167v1.056l-1.76,4.926l-2.463,2.814
			l-1.055,3.519l-1.056,4.926v3.519v6.333l2.11,2.111l1.407,1.056l2.815,5.277l-1.056,3.167v5.277l1.056,4.223l0.352,2.814
			l1.407,1.056c0,0,6.686,3.166,8.093,3.519c1.407,0.352,2.815,1.759,2.815,1.759l2.814,1.76l1.759,3.519v3.87v5.277v5.278v4.926
			l0.352,3.87l-2.814,10.907l-0.352,4.222l0.704,4.927l2.11,5.629c0,0,4.926,4.926,5.981,5.278c1.056,0.352,6.333,3.87,7.74,5.277
			c1.408,1.407,5.631,5.278,5.631,5.278l7.036,6.332c0,0,3.519,2.111,4.574,2.111s3.167,3.87,3.167,3.87l1.407,3.167l0.352,2.111
			l6.333-2.111l1.056,0.353c0,0,9.852,1.759,11.963,2.111c2.111,0.351,8.444,0.703,10.203,0.703c1.76,0,3.167,0,4.223,0
			s8.796,0,10.203-0.353c1.408-0.351,4.223-1.055,4.223-1.055l4.926-2.463c-1.056,0-3.167,0.352-3.167,0.352L173.148,264.805z"/>
		<path fill="#F9DF10" d="M234.604,211.906l0.47,8.213c0,0,1.056,1.76,0,1.76s-5.981,7.037-5.981,7.037l-7.74,8.444l-4.223,3.87
			l-4.574,3.519l-1.759,1.056l-7.389,4.926l-7.741,5.981l-5.229,1.131l-0.465,0.522l-1.276,0.729
			c-0.965,0.87-1.882,1.749-2.177,2.191c-0.081,0.121-0.186,0.236-0.306,0.347l2.768-0.347c0,0,5.278-2.814,6.686-3.166
			s3.87-2.463,3.87-2.463l4.927-3.167l2.462-1.759l4.574-2.111l6.686-3.166l3.519-4.927l4.573-3.518l-0.351-2.464l9.499-11.259
			l1.407-6.333l-1.407-3.167c0,0-0.001-1.708-0.171-3.704c-0.115,0.558-0.284,1.096-0.532,1.594
			C234.685,211.748,234.643,211.828,234.604,211.906z"/>
		<path fill="#F9DF10" d="M109.815,137.084l4.574,6.685l6.333,4.223l7.389,0.352l7.74,3.519l-2.11,5.629l5.981,0.353l4.222,3.519
			l3.871,2.463l3.166,2.814l5.277-1.759l-7.388-5.278l-2.815-5.277c0,0-5.277-5.278-5.277-6.333c0-0.672-1.563-3.898-2.702-6.163
			l-5.742-0.522l-1.407-0.352c0,0-4.574-2.814-5.63-3.519c-1.056-0.703-4.574-2.11-4.574-2.11l-3.87-2.815l-0.704-3.87l-3.519-2.815
			c0,0-1.775-0.253-2.957-0.329C109.549,130.949,109.815,137.084,109.815,137.084z"/>
		<path fill="#F9DF10" d="M181.592,146.584c-1.055,1.759-7.389,7.389-7.389,7.389l-4.926,4.573l-3.166,4.574L164,169.453
			l-0.353,3.871l-2.11,11.61v3.87l-1.76,4.223l-1.055,2.111v3.166v2.463l0.352,5.278l4.926,2.463l6.333,1.407h1.76h4.573h5.278
			l3.87-2.111l2.814-0.703l3.167-0.353l0.704-5.981l0.352-1.759l9.148-2.814c0,0-0.353-0.704,2.11-1.056
			c2.463-0.353,9.853-2.815,11.26-3.167s3.518-1.407,3.518-1.407l5.981-1.056h2.464l5.277,1.76l-3.167-2.815l-1.759-1.759h-3.167
			h-3.87l-2.463,0.352l-6.686,1.056l-6.333,5.277l-7.389,0.704l-3.167,0.352l-3.166,2.111l-1.407,0.352l-1.76,2.463
			c0,0-1.056,1.407-1.407,2.463s-1.056,3.519-3.167,4.574c0,0-1.759,0-3.519,0c-1.759,0-2.814,0-2.814,0l-3.167-0.703l-3.166-3.167
			l-1.056-0.704l-1.407-2.814v-2.111c0,0,0-2.814,0-4.574v-2.11l2.814-7.037l1.407-2.111l3.167-3.87v-2.111
			c0,0-0.704-1.056-2.111-2.463l-0.703-3.87l-1.408-2.814l8.797-2.464H183l7.389-0.352l2.814-4.574l6.333-2.11l3.167-5.278v-2.814
			l-3.167-2.463l-3.166-0.704l-2.815-1.055l-3.518-0.353l-5.981-2.11h-1.694C182.643,143.3,182.577,144.941,181.592,146.584z"/>
		<path fill="#F6EA5C" d="M190.437,257.843l5.229-1.131l7.741-5.981l7.389-4.926l1.759-1.056l4.574-3.519l4.223-3.87l7.74-8.444
			c0,0,4.926-7.037,5.981-7.037s0-1.76,0-1.76l-0.47-8.213c-1.109,2.172-3.438,6.139-4.456,7.158
			c-1.056,1.055-1.407,2.11-3.871,4.926c-2.462,2.814-4.222,5.277-4.222,5.277l-2.111,4.574l-2.11,2.463l-3.52,2.814l-5.277,1.76
			l-3.166,0.352l-2.111,3.519l-1.056,2.111l-2.814,2.463l-0.353-3.519v-2.463l-1.055,0.352l-1.408,4.222l-3.519,4.574l-2.11,4.223
			L190.437,257.843z"/>
		<path fill="#F6EA5C" d="M173.852,144.824l-2.463,7.74l-0.352,2.111h-1.76h-1.759l-2.463-0.352h-1.408l-2.11-0.352v-3.167v-1.76
			l-3.519-0.703h-2.814l-3.167-2.814v-1.056l-2.463-3.284l-0.703-0.938l-5.278-0.704l-1.76,1.407l-4.925-1.407
			c0,0,0.515,0.982,1.168,2.281c1.139,2.265,2.702,5.491,2.702,6.163c0,1.055,5.277,6.333,5.277,6.333l2.815,5.277l7.388,5.278
			l-5.277,1.759l-3.166-2.814l-3.871-2.463l-4.222-3.519l-5.981-0.353l2.11-5.629l-7.74-3.519l-7.389-0.352l-6.333-4.223
			l-4.574-6.685c0,0-0.267-6.135-0.143-11.589c0.014-0.609,0.032-1.209,0.057-1.792l-0.618,1.77l-1.759,9.5l-1.759,8.093
			l-3.167,3.166l-1.76-5.277l2.463-10.556l4.574-9.852l3.167-10.203c0,0-1.407,0-2.111,1.056c-0.703,1.055-1.759,2.11-2.814,3.519
			c-1.056,1.407-2.111,5.277-2.111,5.277l-2.463,2.463l-6.333,3.519l-5.63,0.703l2.815,1.76l-1.76,5.981l-2.814,3.166l-1.76,2.464
			l-4.222,7.388v1.407l0.352,5.63l2.463,2.111l1.407,4.222v2.463l4.926,4.926l4.574,6.334l-0.704,3.519l1.056,4.926l2.111,7.389
			l0.353,9.148c0,0,3.518,15.48,3.518,16.889c0,1.407,3.167,10.555,3.519,12.314c0.353,1.759,2.815,11.259,2.815,11.259l5.981,8.444
			l1.871,1.08l-1.871-5.302l-1.76-9.853l1.76-7.389l0.352-7.037v-7.389l-5.63-12.666l-4.223-15.13l-4.222-10.907
			c0,0,6.333-10.907,8.093-11.611c1.76-0.703,10.203-7.389,10.203-7.389l9.852,4.574c0,0,10.556,5.278,12.315,5.981
			c1.759,0.704,8.444,3.87,10.555,4.574c2.111,0.704,6.686,3.87,6.686,3.87s0,9.5-1.76,14.074
			c-1.759,4.574-4.222,10.203-4.222,13.019c0,2.814-1.056,7.74,0,9.5c1.056,1.759,6.686,5.277,10.203,5.277c3.519,0,9.148,0,9.148,0
			l12.667-3.167c0,0,8.092-3.87,9.499-3.87s7.037-3.519,7.037-3.519l-1.407-2.463c0,0-1.056-1.056,1.407-1.407
			s15.481-5.981,15.481-5.981s4.926-0.704,6.333-1.759c1.408-1.056,4.574-3.167,4.574-3.167l5.828,3.085l-0.198-2.381l-5.277-1.76
			h-2.464l-5.981,1.056c0,0-2.11,1.056-3.518,1.407s-8.797,2.814-11.26,3.167c-2.463,0.352-2.11,1.056-2.11,1.056l-9.148,2.814
			l-0.352,1.759l-0.704,5.981l-3.167,0.353l-2.814,0.703l-3.87,2.111h-5.278h-4.573h-1.76L164,208.509l-4.926-2.463l-0.352-5.278
			v-2.463v-3.166l1.055-2.111l1.76-4.223v-3.87l2.11-11.61l0.353-3.871l2.111-6.333l3.166-4.574l4.926-4.573
			c0,0,6.334-5.63,7.389-7.389c0.985-1.643,1.051-3.284,0.77-4.926c-0.021-0.117-0.042-0.235-0.065-0.353l-3.166,0.353l-2.111,1.056
			L173.852,144.824z"/>
		<path fill="#F3EF9C" d="M167.167,265.508l-1.76,0.352c0.374,0,1.236-0.177,2.192-0.405L167.167,265.508z"/>
		<path fill="#F3EF9C" d="M189.972,257.968v0.397l0.465-0.522l1.008-1.131C191.444,256.712,190.799,257.25,189.972,257.968z"/>
		<path fill="#F3EF9C" d="M226.98,190.564c0,0-3.166,2.111-4.574,3.167c-1.407,1.055-6.333,1.759-6.333,1.759
			s-13.019,5.63-15.481,5.981s-1.407,1.407-1.407,1.407l1.407,2.463c0,0-5.63,3.519-7.037,3.519s-9.499,3.87-9.499,3.87
			l-12.667,3.167c0,0-5.63,0-9.148,0c-3.518,0-9.147-3.519-10.203-5.277c-1.056-1.76,0-6.686,0-9.5
			c0-2.815,2.463-8.444,4.222-13.019c1.76-4.574,1.76-14.074,1.76-14.074s-4.574-3.166-6.686-3.87
			c-2.11-0.704-8.796-3.87-10.555-4.574c-1.76-0.703-12.315-5.981-12.315-5.981l-9.852-4.574c0,0-8.443,6.686-10.203,7.389
			c-1.76,0.704-8.093,11.611-8.093,11.611l4.222,10.907l4.223,15.13l5.63,12.666v7.389l-0.352,7.037l-1.76,7.389l1.76,9.853
			l1.871,5.302l0.239,0.68l3.369,1.829c-0.455-1.257-0.554-2.533-0.554-2.533l1.512-6.048l-0.809-2.748l0.642-3.624l0.063-6.228
			l0.352-0.704v-1.407l1.056-4.223l3.167-4.222l4.222-4.574l8.444-1.407l4.926,1.407c0,0,4.926,0.352,6.686,0.704
			c1.759,0.352,7.389,2.11,7.389,2.11l7.74,1.056l4.389,1.729l6.167,0.733c0,0-0.352-1.056,2.463,0.704
			c2.814,1.759,7.389,3.519,7.389,3.519l2.463-3.871l-2.111-0.352l0.353-1.407h2.11h1.407l1.057-1.407l1.055-1.407
			c0,0,3.167-2.463,4.926-2.111l2.464-2.814c0,0,0.044-0.012,0.125-0.033l0.93-1.022H202l3.87-3.167l3.166-1.056l5.63-5.63l2-0.173
			l1.519-1.234l2.314,0.9l2.26-0.196l-0.657,0.82l2.416,0.938c0,0-2.111,2.111-3.519,2.815c-0.704,0.352-0.967,0.88-1.056,1.319
			v0.791v2.815l1.408,1.407l2.463,2.463c0,0-0.591,0-1.408,0c-0.524,0-1.143,0-1.759,0c0,0,0,0-1.056,0c-0.527,0-0.792,0-1.056,0
			s-0.527,0-1.056,0c-1.056,0-3.87,0.704-3.87,0.704s-1.759,2.11-2.814,2.463v2.463h6.685c1.407,0,3.519,0.352,3.519,0.352
			l-2.814,2.463c0,0-0.359,0.179-0.852,0.389l-2.667,2.074l0.352,1.76l2.111-0.353l0.352,2.463l-4.574,0.352h-3.166h-3.87
			l-1.056-4.222c-1.76,0-1.76,0-1.76,0h-3.166l-3.846-1.709l1.03,2.061l-1.759,4.574l-1.76,1.76l-2.463,2.463l1.408,3.519v3.166
			l1.055,6.686v4.222l3.519-4.574l1.408-4.222l1.055-0.352v2.463l0.353,3.519l2.814-2.463l1.056-2.111l2.111-3.519l3.166-0.352
			l5.277-1.76l3.52-2.814l2.11-2.463l2.111-4.574c0,0,1.76-2.463,4.222-5.277c2.464-2.815,2.815-3.871,3.871-4.926
			c1.019-1.02,3.347-4.986,4.456-7.158c0.039-0.078,0.081-0.158,0.118-0.23c0.248-0.498,0.417-1.036,0.532-1.594
			c0.374-1.807,0.171-3.83,0.171-5.443c0-2.111-1.056-6.686-1.056-7.741s-1.407-3.166-1.407-3.166l-0.153-0.082L226.98,190.564z
			 M142.186,195.49c-1.407,0-3.87,0.704-3.87,0.704s-9.148,1.055-10.556,1.055s-5.981-3.166-9.852-5.98
			c-3.87-2.815-3.167-9.853-3.167-9.853l2.463-5.981l6.334-0.703l1.759,1.407l12.314,2.814l5.278-2.111l4.573-1.055
			c0,0,4.926,2.814,6.333,5.277c1.408,2.463-1.759,4.574-1.759,4.574s-5.156,5.155-7.301,6.174
			C143.875,193.681,142.866,195.49,142.186,195.49z"/>
		<polygon fill="#F3EF9C" points="191.218,251.962 191.444,256.712 193.555,252.489 		"/>
		<path fill="#F3EF9C" d="M127.056,255.656c0,0-0.047-0.041-0.126-0.112c-0.612-0.124-1.298-0.26-1.99-0.394l3.523,1.913
			l7.038,3.871l7.389,2.462l7.74,0.353l7.74,1.759c0,0,3.868,0.228,5.932,0.317l-2.413-1.725l-1.759-1.407l-2.111-1.056l1.759-1.056
			l2.815-2.111v-1.056l-0.704-2.111h-1.759v-1.759l0.352-2.463h-6.333l-4.223,2.463l-3.519,0.704c0,0-7.036,2.463-8.092,2.463v3.166
			l-1.407,1.057c0,0-3.519-2.111-6.334-3.52c-2.814-1.407-1.407-1.407-1.407-1.407s-0.812-0.174-1.941-0.404
			C127.114,255.629,127.056,255.656,127.056,255.656z"/>
		<polygon fill="#F2D7CA" points="191.092,218.009 190.037,219.416 191.909,218.734 		"/>
		<path fill="#F2D7CA" d="M210.952,225.214l0.195,0.184h-1.759c-1.76,0-2.815,0.352-4.574,0.352l1.056,4.222h3.87h3.166l4.574-0.352
			l-0.352-2.463l-2.111,0.353l-0.352-1.76l2.667-2.074c-0.707,0.301-1.693,0.667-2.315,0.667
			C214.241,224.342,212.512,224.913,210.952,225.214z"/>
		<path fill="#F2D7CA" d="M191.092,218.009l4.926-2.111C194.259,215.546,191.092,218.009,191.092,218.009z"/>
		<path fill="#F2D7CA" d="M183.352,228.563c0,0,4.574,3.871,5.981,5.63s2.111,7.389,2.111,7.389l-0.353,7.741l0.126,2.639
			l2.337,0.527v-4.222l-1.055-6.686v-3.166l-1.408-3.519l2.463-2.463l1.76-1.76l1.759-4.574l-1.03-2.061l-2.488-1.105l-2.463-0.704
			l-1.055-2.814l-1.057,1.407h-1.407h-2.11l-0.353,1.407l2.111,0.352l-2.463,3.871c0,0-4.574-1.76-7.389-3.519
			c-2.814-1.76-2.463-0.704-2.463-0.704l-6.167-0.733l7.223,2.845L183.352,228.563z"/>
		<path fill="#D5EBD6" d="M213.61,215.546c0,0,2.814-0.704,3.87-0.704c-0.932,0-1.394,0-2.463,0
			C213.61,214.842,213.61,215.546,213.61,215.546z"/>
		<polygon fill="#D5EBD6" points="222.759,201.472 220.499,201.668 222.102,202.292 		"/>
		<path fill="#D5EBD6" d="M199.536,212.027l-0.93,1.022c0.385-0.1,1.646-0.44,3.394-1.022H199.536z"/>
		<path fill="#D5EBD6" d="M209.036,207.805l-3.166,1.056l-3.87,3.167c2.11-0.704,3.518-2.111,3.518-2.111
			S207.98,208.509,209.036,207.805z"/>
		<path fill="#D5EBD6" d="M216.666,202.002l-2,0.173l-5.63,5.63c1.056-0.703,3.519-2.463,3.519-2.463L216.666,202.002z"/>
		<path fill="#D5EBD6" d="M219.943,208.156v-0.791C219.855,207.805,219.943,208.156,219.943,208.156z"/>
		<path fill="#D5EBD6" d="M193.555,222.935l2.488,1.105l3.846,1.709h3.166c0,0,0,0,1.76,0c1.759,0,2.814-0.352,4.574-0.352
			c0,0-4.926-0.352-7.741-0.704c-2.814-0.352-3.166-2.463-3.166-2.463l-2.815-0.703l-1.407-0.704l-2.35-2.089l-1.872,0.682
			l1.055,2.814L193.555,222.935z"/>
		<path fill="#D5EBD6" d="M205.518,220.119l5.435,5.095c1.56-0.301,3.289-0.872,4.065-0.872c0.622,0,1.608-0.366,2.315-0.667
			c0.492-0.21,0.852-0.389,0.852-0.389l2.814-2.463c0,0-2.111-0.352-3.519-0.352h-6.685v-2.463
			C209.74,218.36,205.518,220.119,205.518,220.119z"/>
		<path fill="#D5EBD6" d="M173.148,263.396h-4.927l-2.565-0.81c-0.913,0-1.544,0-1.544,0l0.198-0.425l-2.773-0.877l2.11-3.166
			c0,0-1.713-5.869-3.302-7.819l-1.405-0.625c-1.945,0-5.496,0-5.496,0l-1.056,0.704l-3.518,1.407l-2.111,1.056
			c0,0-4.574,2.462-5.63,2.462s-1.407,0.353-1.407,0.353l-2.814,0.704l-4.223,0.352h-1.056c0,0-1.056,0-2.463-0.704
			c0,0-1.407,0,1.407,1.407c2.815,1.408,6.334,3.52,6.334,3.52l1.407-1.057v-3.166c1.056,0,8.092-2.463,8.092-2.463l3.519-0.704
			l4.223-2.463h6.333l-0.352,2.463v1.759h1.759l0.704,2.111v1.056l-2.815,2.111l-1.759,1.056l2.111,1.056l1.759,1.407l2.413,1.725
			l0.05,0.034h1.056l1.76-0.352l0.433-0.054l2.382-0.298l3.167-0.352l3.518-0.704c0,0,2.111-0.352,3.167-0.352
			c0.528,0,1.407-0.177,2.155-0.353H173.148z"/>
		<path fill="#D5EBD6" d="M186.519,261.285c0.295-0.442,1.212-1.321,2.177-2.191l-0.586,0.335c-0.442,0.534-0.888,0.802-0.888,0.802
			l-4.737,3.045c0.505-0.127,0.867-0.23,0.867-0.23s1.931-0.554,2.861-1.413C186.333,261.521,186.438,261.406,186.519,261.285z"/>
		<path fill="#D5EBD6" d="M121.778,254.601c0.858,0.123,2.018,0.331,3.161,0.55c0.692,0.134,1.378,0.27,1.99,0.394
			c-0.599-0.534-3.246-2.908-4.8-4.462c-1.354-1.354-1.041-3.121-0.824-3.865l-0.117-1.164l-0.713-2.426l-1.512,6.048
			c0,0,0.099,1.276,0.554,2.533C119.925,253.329,120.616,254.435,121.778,254.601z"/>
		<path fill="#D5EBD6" d="M125.648,223.286l1.192-0.099l0.329-0.709h11.61l2.737,0.456h2.075l7.037-0.353l13.37,2.464l0.207,0.071
			h6.766l3.786,3.787l12.111,7.4c0,0,1.579,6.127,2.507,10.251l0.595,1.782v1.138c0.036,0.233,0.06,0.425,0.065,0.551
			c0.011,0.299-0.017,0.647-0.065,1.027v6.914c0.827-0.718,1.473-1.256,1.473-1.256l-0.227-4.75l-0.126-2.639l0.353-7.741
			c0,0-0.704-5.63-2.111-7.389s-5.981-5.63-5.981-5.63l-7.389-4.222l-7.223-2.845l-4.389-1.729l-7.74-1.056
			c0,0-5.63-1.759-7.389-2.11c-1.76-0.353-6.686-0.704-6.686-0.704l-4.926-1.407l-8.444,1.407l-4.222,4.574l-3.167,4.222
			l-1.056,4.223v1.407l2.111-4.223L125.648,223.286z"/>
		<path fill="#D5EBD6" d="M127.226,255.604c1.13,0.23,1.941,0.404,1.941,0.404C128.157,255.503,127.511,255.542,127.226,255.604z"/>
		<path fill="#B9CEB4" d="M187.222,260.23c0,0,0.445-0.268,0.888-0.802l-5.526,3.158c0,0-8.972,0-11.083,0c-1.381,0-4.116,0-5.844,0
			l2.565,0.81h4.927h8.84h0.308l0.188-0.121L187.222,260.23z"/>
		<polygon fill="#B9CEB4" points="126.841,223.188 125.648,223.286 122.834,226.101 120.723,230.323 120.371,231.027 
			120.309,237.255 		"/>
		<polygon fill="#B9CEB4" points="120.309,237.255 119.667,240.879 120.476,243.627 121.188,246.053 		"/>
		<path fill="#B9CEB4" d="M151.446,247.811c0,0-7.389,4.222-8.972,5.276c-1.584,1.057-4.223,0.528-6.333,0.528
			c-2.111,0-6.333-1.056-6.333-1.056l-8.443-4.749l-0.06-0.594c-0.217,0.744-0.53,2.511,0.824,3.865
			c1.554,1.554,4.201,3.928,4.8,4.462c0.079,0.071,0.126,0.112,0.126,0.112s0.059-0.027,0.17-0.053
			c0.285-0.062,0.932-0.101,1.941,0.404c1.407,0.704,2.463,0.704,2.463,0.704h1.056l4.223-0.352l2.814-0.704
			c0,0,0.352-0.353,1.407-0.353s5.63-2.462,5.63-2.462l2.111-1.056l3.518-1.407l1.056-0.704c0,0,3.551,0,5.496,0l-5.383-2.392
			L151.446,247.811z"/>
		<path fill="#B9CEB4" d="M167.806,254.671l-4.749-3.167l-2.711-1.204c1.589,1.95,3.302,7.819,3.302,7.819l-2.11,3.166l2.773,0.877
			L167.806,254.671z"/>
		<path fill="#B9CEB4" d="M174.759,228.904l0.963,0.963l11.083,8.971l2.572,7.718c-0.928-4.124-2.507-10.251-2.507-10.251
			L174.759,228.904z"/>
		<polygon fill="#B9CEB4" points="150.63,222.582 143.593,222.935 141.518,222.935 154.612,225.117 164.207,225.117 164,225.046 		
			"/>
		<path fill="#B9CEB4" d="M189.972,249.476v1.578c0.049-0.38,0.076-0.729,0.065-1.027
			C190.031,249.9,190.008,249.709,189.972,249.476z"/>
		<path fill="#EFEEEE" d="M121.188,246.053l0.117,1.164l0.06,0.594l8.443,4.749c0,0,4.222,1.056,6.333,1.056
			c2.11,0,4.749,0.528,6.333-0.528c1.583-1.055,8.972-5.276,8.972-5.276l2.111-0.527l5.383,2.392l1.405,0.625l2.711,1.204
			l4.749,3.167l-3.495,7.491l-0.198,0.425c0,0,0.631,0,1.544,0c1.728,0,4.463,0,5.844,0c2.111,0,11.083,0,11.083,0l5.526-3.158
			l0.586-0.335l1.276-0.729v-0.397v-6.914v-1.578v-1.138l-0.595-1.782l-2.572-7.718l-11.083-8.971l-0.963-0.963l-3.786-3.787h-6.766
			h-9.595l-13.095-2.183l-2.737-0.456h-11.61l-0.329,0.709l-6.532,14.067L121.188,246.053z"/>
		<path fill="#EFEEEE" d="M194.259,220.823l1.407,0.704l2.815,0.703c0,0,0.352,2.111,3.166,2.463
			c2.815,0.353,7.741,0.704,7.741,0.704h1.759l-0.195-0.184l-5.435-5.095c0,0,4.223-1.759,5.278-2.11
			c1.056-0.353,2.814-2.463,2.814-2.463s0-0.704,1.407-0.704c1.069,0,1.531,0,2.463,0c0.528,0,0.792,0,1.056,0s0.528,0,1.056,0
			c1.056,0,1.056,0,1.056,0c0.616,0,1.234,0,1.759,0c0.817,0,1.408,0,1.408,0l-2.463-2.463l-1.408-1.407v-2.815
			c0,0-0.088-0.352,0-0.791c0.089-0.439,0.352-0.968,1.056-1.319c1.407-0.704,3.519-2.815,3.519-2.815l-2.416-0.938l-1.603-0.624
			l-2.314-0.9l-1.519,1.234l-4.111,3.34c0,0-2.463,1.76-3.519,2.463c-1.056,0.704-3.519,2.111-3.519,2.111s-1.407,1.407-3.518,2.111
			c-1.747,0.582-3.009,0.923-3.394,1.022c-0.081,0.021-0.125,0.033-0.125,0.033l-2.464,2.814l-4.926,2.111l0.817,0.726
			L194.259,220.823z"/>
		<polygon fill="#F3EF9C" points="107.704,120.547 103.13,130.398 100.667,140.954 102.427,146.231 105.594,143.065 
			107.353,134.973 109.111,125.473 109.729,123.703 114.39,110.344 110.871,110.344 		"/>
		<path fill="#F2D7CA" d="M153.796,181.064c-1.407-2.463-6.333-5.277-6.333-5.277l-4.573,1.055l-5.278,2.111l-12.314-2.814
			l-1.759-1.407l-6.334,0.703l-2.463,5.981c0,0-0.703,7.037,3.167,9.853c3.87,2.814,8.444,5.98,9.852,5.98
			s10.556-1.055,10.556-1.055s-2.814-1.056-5.278-2.111c-2.463-1.056-3.167-2.111-3.167-2.111l2.111-4.574l-2.111-1.056l5.278-3.87
			c0,0,2.463-2.463,3.519-2.814s2.111,0,2.111,0l4.573,0.703h2.464v1.967c0.221,0.09,0.352,0.145,0.352,0.145
			s-0.137,0.297-0.352,0.767v2.049l-1.408,2.463c0,0-0.751,2.065-1.671,4.063c2.145-1.019,7.301-6.174,7.301-6.174
			S155.204,183.527,153.796,181.064z"/>
		<path fill="#D5EBD6" d="M138.315,184.583c0,0,1.759-2.814,2.463-3.87c0.606-0.91,5.654,1.056,7.037,1.614v-1.967h-2.464
			l-4.573-0.703c0,0-1.056-0.352-2.111,0s-3.519,2.814-3.519,2.814l2.111-1.056L138.315,184.583z"/>
		<path fill="#D5EBD6" d="M147.815,185.287v-2.049c-0.631,1.379-1.938,4.255-2.464,5.566c-0.703,1.76-4.573,4.927-4.573,4.927
			l-7.741-4.223l2.111-7.037l-5.278,3.87l2.111,1.056l-2.111,4.574c0,0,0.704,1.056,3.167,2.111
			c2.464,1.056,5.278,2.111,5.278,2.111s2.463-0.704,3.87-0.704c0.681,0,1.689-1.81,2.551-3.678c0.92-1.997,1.671-4.063,1.671-4.063
			L147.815,185.287z"/>
		<path fill="#EFEEEE" d="M140.778,193.731c0,0,3.87-3.167,4.573-4.927c0.525-1.312,1.833-4.188,2.464-5.566
			c0.215-0.47,0.352-0.767,0.352-0.767s-0.131-0.055-0.352-0.145c-1.383-0.559-6.431-2.524-7.037-1.614
			c-0.704,1.056-2.463,3.87-2.463,3.87l-1.056-3.167l-2.111,1.056l-2.111,7.037L140.778,193.731z"/>
		<path fill="#EE2B28" d="M159.777,78.325c0.353-2.463,2.463-10.203,2.463-10.203v-1.76l-3.518-4.222h-4.927l-4.573,0.352
			l-1.407,2.814l-3.167,2.815l-3.167,1.759l-1.759,1.056c0,0,1.407,1.407-2.111,2.463s-6.333,9.852-6.333,9.852l-1.408,4.223v5.277
			l2.815,2.814v1.056h4.574l2.463-2.463c0,0-0.704-0.703,1.056-0.703c1.759,0,5.629-0.704,5.629-0.704s0.704,0,2.111-0.703
			c1.407-0.704,4.574-2.815,4.574-2.815s1.056-1.407,1.407-2.463s2.111-2.463,3.166-4.222
			C158.723,80.788,159.426,80.788,159.777,78.325z"/>
		<path fill="#CC2627" d="M206.573,76.566l-5.63-0.704h-2.462l-2.815-0.352l-2.111-0.704h-1.407h-1.407h-1.407l-2.463-0.703
			c0,0-1.056,0-2.111,0s-3.519,0-3.519,0l-0.352,4.574l-1.056,3.166l-5.277,5.277l4.222,4.223l2.814,0.352l3.519,3.167
			c0,0,2.463,1.759,3.519,1.759s3.871,1.408,3.871,1.408l3.87,3.518l1.759,0.353l2.111,0.352l2.814,0.352h1.408l3.518-2.111v2.111
			v1.76l2.111,1.407h3.519c0,0,1.76,0,2.814,0c1.056,0,1.408-0.704,2.463-1.056c1.056-0.352,2.464-1.407,2.464-1.407l1.055-3.167
			v-1.407v-2.814l-2.814-1.408l-1.056-2.11l-1.056-1.056l-1.056-0.352l-2.462-0.704l-1.408-1.407l-1.056-1.056l-0.352-1.759v-1.407
			l-0.352-1.056l-3.519-1.408L206.573,76.566z"/>
		<polygon fill="#CC2627" points="219.24,112.002 219.24,109.992 216.073,107.528 210.443,107.528 206.573,109.288 210.443,113.51 
			211.852,115.973 211.852,118.084 214.313,119.844 217.48,116.677 219.24,114.565 		"/>
		<polygon fill="#CC2627" points="220.999,107.528 222.759,107.881 223.11,104.011 220.647,105.77 		"/>
		<polygon fill="#CC2627" points="210.796,68.122 209.036,68.122 207.629,70.937 206.925,74.455 209.389,76.214 212.555,75.862 
			213.61,74.807 213.259,71.288 		"/>
		<path fill="#EFEEEE" d="M22.558,69.881l-1.76,2.463l3.519,2.111l7.037-6.333l2.463-4.574l3.87-2.111l2.111-3.87l2.111-5.277
			c0,0,1.407-2.111,2.463-2.815c1.055-0.703,3.519-3.166,3.519-3.166s0-2.111,1.407-3.167s14.426-7.74,14.426-7.74l3.87-2.111
			c0,0,0.352-1.056,3.87-1.76c3.519-0.703,6.333-2.814,7.74-3.166c1.408-0.352,3.52-1.76,3.52-1.76l1.407-2.463l-1.056-2.11
			l0.352-1.76c0,0,1.407-1.76,2.815-2.111c1.407-0.352,3.87-1.759,3.87-1.759l2.111-1.76l1.055-1.407c0,0-1.111-0.88-2.644-2
			c-27.116,11.284-50.13,30.447-66.182,54.633l0.567,0.496L22.558,69.881z"/>
	</g>
</g>
</svg>
