<?xml version="1.0" encoding="utf-8"?>
<!-- Generator: Adobe Illustrator 12.0.0, SVG Export Plug-In . SVG Version: 6.00 Build 51448)  -->
<!DOCTYPE svg PUBLIC "-//W3C//DTD SVG 1.1//EN" "http://www.w3.org/Graphics/SVG/1.1/DTD/svg11.dtd" [
	<!ENTITY ns_svg "http://www.w3.org/2000/svg">
	<!ENTITY ns_xlink "http://www.w3.org/1999/xlink">
]>
<svg  version="1.1" xmlns="&ns_svg;" xmlns:xlink="&ns_xlink;" width="283.238" height="283.238" viewBox="0 0 283.238 283.238"
	 overflow="visible" enable-background="new 0 0 283.238 283.238" xml:space="preserve">
<g id="Layer_3">
</g>
<g id="Layer_2">
	<g>
		<path fill="#8FC8B7" d="M166.911,226.41c-1.658-4.976-16.585-8.293-16.585-8.293l-6.634-1.658l-4.976,4.976h4.976l6.634,14.927
			c0,0,6.634-6.634,0,6.634c-2.027,4.056-4.365,7.18-6.634,9.565v3.702l0.604,3.317h11.006l16.585-3.317l1.658-4.976V238.02v-4.139
			C170.409,231.234,167.58,228.417,166.911,226.41z"/>
		<polygon fill="#8FC8B7" points="102.229,50.609 97.254,48.95 85.313,45.966 88.962,48.95 88.962,53.926 88.962,62.219 
			88.962,67.194 87.304,77.145 87.304,87.096 92.279,95.389 108.864,92.072 117.156,79.633 117.156,72.169 107.205,67.194 		"/>
		<path fill="#8FC8B7" d="M77.353,166.704l8.292-1.658l-1.658-9.951l-4.976-3.317c0,0-3.411-4.775-5.857-9.951h-0.776H60.768
			c0,0,0,13.269,0,23.22c0,9.95,1.658,4.976,1.658,4.976l8.293,4.975h4.975C75.693,165.046,77.353,166.704,77.353,166.704z"/>
		<path fill="#8FC8B7" d="M231.593,55.585c0,0,4.976,18.243,9.951,24.877c0.652,0.87,1.305,1.77,1.946,2.674l10.643-4.911
			l-7.613-12.689l-4.976-6.634c0,0-1.658-6.634-1.658-11.609s-13.269-13.268-13.269-13.268s-9.951-3.317-21.561-4.976
			c-11.609-1.659,0,0-8.292,0c0,0,16.585,8.292,26.536,9.951C233.252,40.658,231.593,55.585,231.593,55.585z"/>
		<path fill="#8FC8B7" d="M122.132,50.609l6.635,3.316c0,0,4.975-1.658,11.608-1.658l6.634-4.976l9.951-13.268l11.609-4.976
			l-8.292-3.317l-4.976-3.317l-9.951,4.976L127.107,39l-11.609-8.293l-9.951,3.317l6.634,8.292L122.132,50.609z"/>
		<polygon fill="#8FC8B7" points="259.787,191.582 266.299,187.344 264.763,188.265 		"/>
		<path fill="#8FC8B7" d="M233.252,193.24l6.634-19.902l-5.391-10.78l-6.22-2.487l-6.634-3.317c-8.292,0-19.901-4.976-19.901-4.976
			s-3.517,3.515-8.889,7.229l-9.355,9.356c0,0-3.977,0-9.619,0l-5.308,9.95c0,0-2.585,3.018-5.56,6.634c1.483,0,2.843,0,3.901,0
			c4.976,0,4.976,0,4.976,0l6.634-3.316l4.976-4.977l6.634-3.316l4.976-6.634l11.61-4.976h4.976l9.95,8.293v9.95l-3.317,9.951v4.976
			v4.976l-13.268,6.634v9.951l8.293,8.293h14.926l3.317,4.976l1.786,5.358l1.531-0.383l6.634-9.951c0,0-3.317-6.635-3.317-11.61
			C238.227,208.167,233.252,199.874,233.252,193.24z"/>
		<path fill="#31979C" d="M205.057,206.508l13.268-6.634v-4.976v-4.976l3.317-9.951v-9.95l-9.95-8.293h-4.976l-11.61,4.976
			l-4.976,6.634l-6.634,3.316l-4.976,4.977l-6.634,3.316c0,0,0,0-4.976,0c-1.059,0-2.418,0-3.901,0
			c-2.861,3.479-6.082,7.512-7.708,9.951c-3.317,4.976-11.609,8.293-11.609,8.293s-4.905-0.001-10.649-0.437l0.698,2.095v18.395
			l4.976-1.81l4.976-4.976l6.634,1.658c0,0,14.927,3.317,16.585,8.293c0.669,2.007,3.498,4.824,6.634,7.471v-2.495l9.951-1.658
			h9.951l19.902-4.976l-8.293-8.293V206.508z M196.765,201.533l-19.902,14.926l-9.951-8.292l1.658-14.927h4.976h26.537
			L196.765,201.533z"/>
		<path fill="#31979C" d="M87.304,211.483c0,0-4.663,0-10.265-1.596l-3.004,16.522c0,0,8.293,8.293,18.244,9.951v-4.976
			l6.634-13.269l4.794-5.752c-1.665-0.224-3.313-0.512-4.794-0.882C92.279,209.824,87.304,211.483,87.304,211.483z"/>
		<polygon fill="#31979C" points="228.275,224.752 213.35,224.752 221.642,228.068 228.275,236.361 233.379,235.086 
			231.593,229.728 		"/>
		<path fill="#31979C" d="M261.445,88.755l-4.975-6.634l-2.338-3.896l-10.643,4.911c4.249,5.993,8.004,12.253,8.004,12.253
			l8.293,9.951l13.269,16.585c0,0,4.976,1.658,4.976,9.951c0,0,0,4.975,0,9.95s-4.976,13.269-4.976,13.269l-3.317-9.952
			l-5.479-12.326c-0.425-0.743-0.823-1.604-1.155-2.6l-8.293-13.268l-9.379,10.718c0.244,2.815,0.592,6.385,1.087,10.843
			l8.292,13.268l14.927,16.586l3.317,8.291h-1.475l1.407,6.335l5.072-3.303c3.373-12.113,5.178-24.879,5.178-38.067
			c0-11.362-1.341-22.41-3.867-32.999l-9.633-8.256L261.445,88.755z"/>
		<path fill="#31979C" d="M230.304,156.753c-2.769,0-5.813,0-8.662,0l6.634,3.317l6.22,2.487l-1.638-3.274
			C232.072,158.467,231.206,157.6,230.304,156.753z"/>
		<path fill="#31979C" d="M105.547,121.925c0,0,16.585-8.293,18.243-13.268c1.659-4.977,4.977-4.977,4.977-4.977l6.634-8.292
			l-6.634,3.317c0,0-4.977,0-9.952,0s-6.634-1.659-6.634-1.659l-8.374-0.761l-9.869,9.054v11.609l-0.231,0.809
			c1.896,3.144,4.252,6.528,6.865,9.143C107.205,133.534,105.547,121.925,105.547,121.925z"/>
		<path fill="#31979C" d="M147.009,47.292l-6.634,4.976c6.634,0,9.951-3.317,14.927-6.634l1.658,13.268l6.635,6.634l6.291,9.438
			c1.645-6.493,3.97-14.281,6.977-21.047c6.634-14.926,1.658,4.976,1.658,4.976s5.192,5.192,11.202,9.951h7.042v-6.634l6.634-13.269
			h21.561l6.634,6.635c0,0,1.659-14.927-8.292-16.585c-9.951-1.659-26.536-9.951-26.536-9.951h-9.951h-18.244l-11.609,4.976
			L147.009,47.292z"/>
		<path fill="#31979C" d="M160.277,95.389l6.634-6.634c0,0,0.949-5.693,2.846-13.271c-2.265-0.021-12.32-0.193-21.089-1.655
			l-6.635-6.634c0,0-8.292,0-16.584,0l4.976,9.95l6.634,11.61l4.975-8.293L160.277,95.389z"/>
		<path fill="#31979C" d="M73.153,141.826c-1.368-2.894-2.435-5.913-2.435-8.292c0-1.877,0.664-4.02,1.729-6.202l-1.729-0.432
			l-6.635-6.635l-3.316-6.634V95.389l-1.658-8.293l-4.665-4.664c-2.373,3.409-5.286,6.323-5.286,6.323v4.976v11.609v16.585
			l6.634,14.926l4.976,4.976h11.609H73.153z"/>
		<polygon fill="#31979C" points="117.156,80.462 117.156,79.633 108.864,92.072 		"/>
		<path fill="#174D67" d="M268.08,176.654c0,0,0,0-4.976,0s-6.634-1.658-6.634-1.658s-6.634-1.658-11.61-3.316
			c-4.975-1.658-8.292-8.293-8.292-8.293s-1.55-1.859-3.711-4.104l1.638,3.274l5.391,10.78l-6.634,19.902
			c0,6.634,4.975,14.927,4.975,19.901c0,4.976,3.317,11.61,3.317,11.61l8.293-19.902c0,0,0,0,4.975-8.293l4.976-4.975l4.976-3.317
			l1.536-0.921l6.689-4.354l-1.407-6.335H268.08z"/>
		<path fill="#1D3666" d="M231.593,55.585l-6.634-6.635h-21.561l-6.634,13.269v6.634h6.634l8.293,6.634l4.975,9.951
			c0,0,13.269,19.902,18.244,19.902s6.634,4.976,6.634,4.976l18.243,3.316l13.269,8.293l-13.269-16.585l-8.293-9.951
			c0,0-3.755-6.26-8.004-12.253c-0.642-0.904-1.294-1.804-1.946-2.674C236.568,73.828,231.593,55.585,231.593,55.585z"/>
		<path fill="#1D3666" d="M192.852,159.007c5.372-3.715,8.889-7.229,8.889-7.229l-6.635,4.976L192.852,159.007z"/>
		<path fill="#1D3666" d="M125.449,135.192h8.292l4.976-4.976l14.927-4.975c0,0,0,0,3.316-8.293c3.317-8.292,0-11.609,3.317-21.561
			l-18.244-14.927l-4.975,8.293l-1.658,6.634l-6.634,8.292c0,0-3.317,0-4.977,4.977c-1.658,4.975-18.243,13.268-18.243,13.268
			s1.658,11.609-4.976,4.976c-2.613-2.614-4.969-5.999-6.865-9.143l-3.086,10.801H77.353l-4.905-1.227
			c-1.064,2.183-1.729,4.325-1.729,6.202c0,2.379,1.066,5.398,2.435,8.292c2.446,5.176,5.857,9.951,5.857,9.951l4.976,3.317
			l1.658,9.951l4.976-8.293l8.293,1.659l3.801-2.535c-0.483-4.867-0.484-9.075-0.484-9.075L125.449,135.192z"/>
		<path fill="#1D3666" d="M112.181,188.265h-6.634l-4.976,4.976l-3.317,4.976l-4.975,3.317h-11.61l-3.316,6.634l-0.313,1.721
			c5.602,1.596,10.265,1.596,10.265,1.596s4.976-1.659,11.609,0c1.481,0.37,3.129,0.658,4.794,0.882l3.498-4.198l8.293-9.951
			l5.805-9.951H112.181z"/>
		<path fill="#1D3666" d="M245.433,127.667l9.379-10.718l-9.951,1.658C244.86,118.607,244.86,121.056,245.433,127.667z"/>
		<path fill="#1D3666" d="M264.26,132.816l-1.155-2.6C263.437,131.212,263.835,132.073,264.26,132.816z"/>
		<path fill="#1D3666" d="M273.056,121.925l4.976,9.951C278.031,123.583,273.056,121.925,273.056,121.925z"/>
		<path fill="#1D3666" d="M249.837,145.143c3.316,6.635,4.975,6.635,4.975,6.635l-8.292-13.268
			C248.178,153.436,246.52,138.51,249.837,145.143z"/>
		<path fill="#1D3666" d="M160.277,95.389v4.976c0,0,8.292,14.927,13.268,16.585s8.293-6.634,8.293-6.634l3.316-8.293l-1.658-11.609
			c0,0,0,0-4.976-16.585s-1.658-9.951-1.658-9.951l11.609,4.976h1.251c-6.01-4.759-11.202-9.951-11.202-9.951
			s4.976-19.901-1.658-4.976c-3.007,6.766-5.332,14.554-6.977,21.047l0.343,0.514c0,0-0.166,0-0.472-0.003
			c-1.896,7.578-2.846,13.271-2.846,13.271L160.277,95.389z"/>
		<path fill="#1D3666" d="M263.104,171.68c0,0,0,0-6.634-3.316c-6.634-3.317-9.951-1.659-9.951-1.659l-6.634-9.951
			c0,0-4.289,0-9.582,0c0.902,0.847,1.769,1.714,2.554,2.53c2.161,2.244,3.711,4.104,3.711,4.104s3.317,6.635,8.292,8.293
			c4.977,1.658,11.61,3.316,11.61,3.316s1.658,1.658,6.634,1.658s4.976,0,4.976,0h3.501h1.475l-3.317-8.291l-14.927-16.586
			l6.634,9.951L263.104,171.68z"/>
		<path fill="#31979C" d="M150.326,236.361l-6.634-14.927h-4.976l-4.976,1.81v3.166l4.976,4.976l4.976,8.293v4.976v7.906
			c2.269-2.386,4.606-5.51,6.634-9.565C156.96,229.728,150.326,236.361,150.326,236.361z"/>
		<path fill="#31979C" d="M155.302,259.58h-11.006l2.713,14.927l6.635-1.658l13.268-4.976c0,0,6.634-8.293,6.634-16.586
			l-1.658,4.976L155.302,259.58z"/>
		<path fill="#1D3666" d="M97.254,48.95l4.976,1.659l4.976,16.585l9.951,4.975l8.293-4.975c8.292,0,16.584,0,16.584,0l6.635,6.634
			c8.769,1.462,18.824,1.635,21.089,1.655c0.306,0.003,0.472,0.003,0.472,0.003l-0.343-0.514l-6.291-9.438l-6.635-6.634
			l-1.658-13.268c-4.976,3.316-8.293,6.634-14.927,6.634s-11.608,1.658-11.608,1.658l-6.635-3.316l-9.951-8.293l-6.634-8.292
			c0,0-6.458,4.843-20.965,11.343l0.731,0.599L97.254,48.95z"/>
		<polygon fill="#1D3666" points="168.569,193.24 166.911,208.167 176.862,216.459 196.765,201.533 200.082,193.24 173.545,193.24 
					"/>
		<path fill="#1D3666" d="M155.302,194.898c1.626-2.439,4.847-6.473,7.708-9.951c2.975-3.616,5.56-6.634,5.56-6.634l5.308-9.95
			c-1.646,0-3.434,0-5.308,0c-8.292,0-3.316-4.977-3.316-4.977v-9.951v-6.634l-4.976,3.317l-11.609,6.634l-9.951,8.293l1.658,4.976
			c0,0-1.658,6.633-3.316,11.609c-1.658,4.975-8.292,6.634-8.292,6.634l1.658,6.634l2.618,7.856
			c5.744,0.436,10.649,0.437,10.649,0.437S151.984,199.874,155.302,194.898z"/>
		<polygon fill="#1D3666" points="121.303,188.265 115.498,198.216 128.767,188.265 		"/>
		<path fill="#1D3666" d="M60.768,95.389v18.243l3.316,6.634l6.635,6.635l1.729,0.432l4.905,1.227H90.62l3.086-10.801l0.231-0.809
			V105.34l9.869-9.054l8.374,0.761c0,0,1.658,1.659,6.634,1.659s9.952,0,9.952,0l6.634-3.317l1.658-6.634l-6.634-11.61l-4.976-9.95
			l-8.293,4.975v7.464v0.829l-8.292,11.61l-16.585,3.316l-4.976-8.293v-9.951l1.658-9.95v-4.976v-8.293V48.95l-3.648-2.984
			l-0.731-0.599c-0.197,0.089-0.396,0.178-0.596,0.267c-7.463,3.316-9.536,3.731-9.744,3.316L64.084,60.56
			c0,0-6.634,9.951-6.634,14.927c0,2.026-1.375,4.604-3.006,6.945l4.665,4.664L60.768,95.389z"/>
		<path fill="#071414" d="M278.061,179.687l-5.072,3.303l-6.689,4.354l-6.512,4.238l-4.976,4.975
			c-4.975,8.293-4.975,8.293-4.975,8.293l-8.293,19.902l-6.634,9.951l-1.531,0.383l-5.104,1.275l-6.634-8.293l-8.292-3.316
			l-19.902,4.976h-9.951l-9.951,1.658v2.495v4.139v13.268c0,8.293-6.634,16.586-6.634,16.586l-13.268,4.976l-6.635,1.658
			l-2.713-14.927l-0.604-3.317v-3.702v-7.906v-4.976l-4.976-8.293l-4.976-4.976v-3.166V204.85l-0.698-2.095l-2.618-7.856
			l-1.658-6.634l-13.269,9.951l-8.293,9.951l-3.498,4.198l-4.794,5.752l-6.634,13.269v4.976c-9.951-1.658-18.244-9.951-18.244-9.951
			l3.004-16.522l0.313-1.721l3.316-6.634l-4.976-3.317v-6.634c0,0,0-6.635,0-16.586h-4.975l-8.293-4.975
			c0,0-1.658,4.975-1.658-4.976c0-9.951,0-23.22,0-23.22l-4.976-4.976l-6.634-14.926V105.34V93.73v-4.976
			c0,0,2.913-2.914,5.286-6.323c1.631-2.342,3.006-4.919,3.006-6.945c0-4.976,6.634-14.927,6.634-14.927L74.242,48.95
			c0.208,0.415,2.281,0,9.744-3.316c0.2-0.089,0.398-0.178,0.596-0.267c14.507-6.5,20.965-11.343,20.965-11.343l9.951-3.317
			L127.107,39l18.243-11.61l9.951-4.976l4.976,3.317l8.292,3.317h18.244h9.951c8.292,0-3.317-1.659,8.292,0
			c11.609,1.658,21.561,4.976,21.561,4.976s13.269,8.292,13.269,13.268s1.658,11.609,1.658,11.609l4.976,6.634l7.613,12.689
			l2.338,3.896l4.975,6.634l8.293,11.609l9.633,8.256C264.502,46.322,208.472,0,141.619,0C63.405,0,0,63.405,0,141.619
			s63.405,141.619,141.619,141.619C206.646,283.238,261.433,239.412,278.061,179.687z"/>
		<path fill="#224E90" d="M181.838,153.436l-4.976,8.293c0,0,0-8.293,0-14.927s-9.951-8.292-9.951-8.292l-13.268,8.292
			l-14.927,18.244l9.951-8.293l11.609-6.634l4.976-3.317v6.634v9.951c0,0-4.976,4.977,3.316,4.977c1.874,0,3.661,0,5.308,0
			c5.643,0,9.619,0,9.619,0l9.355-9.356l2.254-2.254l6.635-4.976l-14.927-4.976L181.838,153.436z"/>
		<path fill="#224E90" d="M241.544,110.315c0,0-1.658-4.976-6.634-4.976s-18.244-19.902-18.244-19.902l-4.975-9.951l-8.293-6.634
			h-6.634h-7.042h-1.251l-11.609-4.976c0,0-3.317-6.634,1.658,9.951s4.976,16.585,4.976,16.585l1.658,11.609l-3.316,8.293
			c0,0-3.317,8.292-8.293,6.634s-13.268-16.585-13.268-16.585v-4.976c-3.317,9.951,0,13.269-3.317,21.561
			c-3.316,8.293-3.316,8.293-3.316,8.293h9.951l16.584,11.608l6.635-1.658l9.951-16.585l21.147,14.804l12.022,8.415l-18.243-6.634
			h-4.976l-4.976,4.976l9.951,6.634l1.658,6.634l-11.609-1.658c0,0,11.609,4.976,19.901,4.976c2.849,0,5.894,0,8.662,0
			c5.293,0,9.582,0,9.582,0l6.634,9.951c0,0,3.317-1.658,9.951,1.659c6.634,3.316,6.634,3.316,6.634,3.316l-1.659-9.951
			l-6.634-9.951c0,0-1.658,0-4.975-6.635c-3.317-6.633-1.659,8.293-3.317-6.633c-0.495-4.458-0.843-8.027-1.087-10.843
			c-0.572-6.611-0.572-9.06-0.572-9.06l9.951-1.658l8.293,13.268l1.155,2.6l5.479,12.326l3.317,9.952c0,0,4.976-8.293,4.976-13.269
			s0-9.95,0-9.95l-4.976-9.951l-13.269-8.293L241.544,110.315z"/>
		<path fill="#224E90" d="M137.059,181.631c1.658-4.977,3.316-11.609,3.316-11.609l-1.658-4.976l-8.292,13.268l-8.293-3.317
			c0,0-9.951-1.658-14.927-4.975c-2.688-1.792-3.923-8.424-4.491-14.145l-3.801,2.535l-8.293-1.659l-4.976,8.293l-8.292,1.658
			c0,0-1.659-1.658-1.659,8.292c0,9.951,0,16.586,0,16.586v6.634l4.976,3.317h11.61l4.975-3.317l3.317-4.976l4.976-4.976h6.634
			h9.122h7.464C128.767,188.265,135.4,186.605,137.059,181.631z"/>
		<path fill="#4D70AA" d="M211.691,146.802l-9.951-6.634l4.976-4.976h4.976l18.243,6.634l-12.022-8.415l-21.147-14.804
			l-9.951,16.585l-6.635,1.658l-16.584-11.608h-9.951l-14.927,4.975l-4.976,4.976h-8.292l-23.22,11.609c0,0,0.001,4.208,0.484,9.075
			c0.568,5.721,1.804,12.353,4.491,14.145c4.976,3.316,14.927,4.975,14.927,4.975l8.293,3.317l8.292-13.268l14.927-18.244
			l13.268-8.292c0,0,9.951,1.658,9.951,8.292s0,14.927,0,14.927l4.976-8.293l4.976-6.634l14.927,4.976l11.609,1.658L211.691,146.802
			z"/>
	</g>
</g>
</svg>
