<?xml version="1.0" encoding="utf-8"?>
<!-- Generator: Adobe Illustrator 12.0.0, SVG Export Plug-In . SVG Version: 6.00 Build 51448)  -->
<!DOCTYPE svg PUBLIC "-//W3C//DTD SVG 1.1//EN" "http://www.w3.org/Graphics/SVG/1.1/DTD/svg11.dtd" [
	<!ENTITY ns_svg "http://www.w3.org/2000/svg">
	<!ENTITY ns_xlink "http://www.w3.org/1999/xlink">
]>
<svg  version="1.1" xmlns="&ns_svg;" xmlns:xlink="&ns_xlink;" width="287.691" height="287.693" viewBox="0 0 287.691 287.693"
	 overflow="visible" enable-background="new 0 0 287.691 287.693" xml:space="preserve">
<g id="Layer_3">
</g>
<g id="Layer_2">
	<g>
		<path fill="#F04E28" d="M210.747,100.124c0.229,0,0.435,0.018,0.628,0.043c-0.24-0.29-0.552-0.632-0.961-1.04
			c-1.921-1.922-3.4-1.846-5.845-1.951c0.44,0.749,0.856,1.286,0.856,1.286S207.755,100.124,210.747,100.124z"/>
		<path fill="#F04E28" d="M55.766,84.16c-2.661,0.666-2.328,1.331-4.656,2.329c-2.328,0.997-1.995,2.327-1.995,3.325
			c0,0.813,1.766,1.847,3.14,2.382c0.258-0.381,0.623-0.823,1.184-1.384C55.767,88.484,55.434,87.486,55.766,84.16z"/>
		<path fill="#F04E28" d="M106.983,262.755h-2.328h-0.998c0,0,0-0.665-0.998,0.333c-0.998,0.997-4.323,1.995-4.323,1.995
			l-0.888,0.444c2.165-0.239,4.214-0.444,4.214-0.444l5.986-0.333l1.995,1.996c0,0-0.332,2.66,2.328,1.662
			c0.552-0.207,0.985-0.428,1.337-0.657l-0.006-0.008l-1.996-2.327l-0.333-3.991l-1.995,0.997L106.983,262.755z"/>
		<path fill="#F04E28" d="M183.144,224.842c-0.998-0.333-0.998,0.332-3.326,0.997s-3.325,2.328-4.655,3.658
			s-3.991,1.995-7.317,1.995c-3.325,0-1.662,0-10.975-0.997c-9.313-0.998-0.665-2.661-0.665-2.661v-2.66c0,0,0-2.328,0-3.326
			c0-0.997-1.33-2.993-1.33-2.993s-1.663-0.665-3.659-2.66c-1.995-1.995,0.998-1.663,0.998-1.663l1.33,0.333
			c0,0,0.665,0,3.659-0.333c2.992-0.333,2.66-3.658,1.995-7.316s-1.995,0-1.995,0s-2.328,1.662-3.659,1.995
			c-1.33,0.333-0.997,0.665-3.658,4.323c-2.66,3.658-2.66,2.661-2.66,2.661l-3.326,1.33l-1.662,1.995c0,0,0,3.659-0.666,6.984
			l0.666,3.658l2.66,6.984l1.662,1.33c0,0,3.659,0.333,5.654,0.333s0.998,0,3.658-1.331c2.661-1.33,2.993-0.332,4.989-0.332
			c1.995,0,1.662,0.332,1.662,0.332s0,0.281,0,0.734c2.086-0.545,4.97-1.325,5.986-1.731c1.663-0.666,2.661-0.665,3.991-0.998
			c1.33-0.332,3.991-1.663,3.991-1.663s0.997-1.33,3.658-2.66S184.142,225.174,183.144,224.842z"/>
		<path fill="#F04E28" d="M122.154,231.044l-1.203-1.547l-0.333-3.658l-4.825,1.877c1.461,0.958,4.415,2.864,5.158,3.111
			C121.171,230.901,121.608,230.974,122.154,231.044z"/>
		<path fill="#F04E28" d="M63.083,252.112l-1.995-2.661c0,0-1.33,0-2.661,0c-0.729,0-1.655-0.1-2.346-0.189l-0.647,1.188
			l0.665,0.666c0,0,0.333,0.665,1.331,0.665c0.998,0,0.998,0,0.998,0l-0.666,2.327c1.996,1.331,3.659,1.331,3.659,1.331l0.998,0.997
			l0.998,0.333l2.993,0.333c0,0,1.663,0.332-0.333-1.663C64.081,253.442,63.083,252.112,63.083,252.112z"/>
		<path fill="#F04E28" d="M220.06,115.423c0.666,1.663,5.653,3.991,5.653,3.991s2.033,0,4.275-0.215
			c-2.854-1.386-5.291-3.086-4.275-4.441c1.996-2.661,1.663-1.33,5.654-4.323s-1.33-0.998-1.33-0.998s-1.331,0.665-4.988,0.665
			c-3.658,0-6.319-0.665-6.319-0.665s0-1.663-1.996-5.986c-1.995-4.323,0,0-2.993-0.998c0,0,3.326,7.649,4.656,8.98
			C219.727,112.763,219.395,113.76,220.06,115.423z"/>
		<path fill="#F04E28" d="M39.129,101.04c-0.823,0.05-1.711,0.082-2.651,0.082c-4.324,0-1.664,0.333-1.664,0.333
			s0.666,0.997,1.33,2.66c0.144,0.358,0.318,0.652,0.5,0.907c0.478-0.625,1.009-1.386,1.496-2.237
			C38.552,102.063,38.869,101.502,39.129,101.04z"/>
		<path fill="#F04E28" d="M181.813,278.719h-1.33l-1.996,0.665c0,0-0.332,0.333-0.332,1.663c0,0.736-0.51,1.879-0.964,2.754
			c3.043-0.723,6.05-1.538,9.015-2.45l-1.399-1.635L181.813,278.719z"/>
		<path fill="#F04E28" d="M214.405,96.466c0.666,1.331,5.322,1.996,6.984,1.996c1.663,0,6.319,0,7.316-0.333
			c0,0-1.847-1.039-4.315-2.164c-3.316,0.371-2.079-0.164-5.661-0.164c-3.022,0-2.612-0.954-2.957-2.717
			c-1.31-0.26-2.522-0.41-3.8-0.495C213.144,94.36,214.142,95.938,214.405,96.466z"/>
		<path fill="#F04E28" d="M87.694,60.548v4.988l0.333,1.663l-1.331,2.993v-0.998c0,0,0.188-2.45-0.997-4.229
			c-0.756,1.279-1.759,2.852-2.329,3.231c-0.998,0.665-2.328,3.658-3.659,4.655c-1.331,0.998-2.328,1.664-3.658,1.664
			s0,3.657,0,3.657s2.328,2.661,3.658,3.326c1.33,0.666,2.328,0,3.659-0.997c1.33-0.998,2.328-0.666,5.654-4.657
			c3.326-3.99,1.995-1.662,1.995-1.662s2.993-0.333,5.986-1.331c2.993-0.997,3.659-1.995,3.659-1.995s1.33-1.995,0.998-4.988
			c-0.333-2.993-2.328-2.993-3.658-6.984c-1.331-3.991,1.33-2.328,1.33-2.328s0.572-1.144,0.85-2.277
			c-1.404-0.357-3.08-1.09-3.51-2.379c-0.666-1.995,0,0,3.326-4.323c0.122-0.157,0.231-0.304,0.333-0.443c0-0.729,0-1.22,0-1.22
			l0.949-0.561c-0.06-0.788-2.424,0.561-3.61,0.561c-1.663,0-2.993,1.663-4.656,1.995c2.328,0.333,0,1.663,0,3.326
			c0,1.611-1.873,1.973-3.502,1.993c-0.452,1.145-0.85,2.314-1.154,3.328C87.361,59.883,87.694,60.548,87.694,60.548z"/>
		<path fill="#F04E28" d="M108.195,273.105c0.279,0.164,0.451,0.292,0.451,0.292l1.331,0.665
			C109.977,274.063,109.458,273.29,108.195,273.105z"/>
		<path fill="#F04E28" d="M223.054,259.429c-2.661-5.986-2.994-0.332-5.322-0.997c-2.328-0.666-5.321-1.33-5.321-1.33l-2.66-0.998
			l0.664-4.656l0.666-0.332c0,0,5.321-2.328,7.316-5.322c1.995-2.993,1.995-2.66,1.995-3.658c0-0.997,0.998-2.327,0.998-2.327
			l1.664,0.664l1.662-0.332c0,0,3.326-1.33,4.989-2.328c1.662-0.997,0.997-2.66,0.997-3.658c0-0.997,0.998-2.993,0.998-2.993
			s1.995-0.665,4.323-3.991c2.328-3.325,2.66-3.99,2.66-3.99s1.663,0,2.994,0c1.33,0,0.997,0,1.33-1.995
			c0.333-1.996,0.997-3.659,0.997-3.659s0,0,3.326-0.998c3.325-0.998,0.998-0.332,0.998-0.332s0.665-0.998,0.665-1.995
			c0-0.998,0.665-1.996,0.665-4.656c0-2.661,1.882-1.33,1.882-1.33h-0.22c0,0,0.22,0,0.848,0.125
			c0.466,0.094,1.155,0.256,2.146,0.539c2.328,0.666,4.324,1.663,5.322,1.331c0,0,0-4.657,0-5.654c0-0.998,0-1.33,0-3.325
			s0.997-2.328,0.997-2.328s0.665-3.326,0.665-4.989c0-1.662,0-2.993,0-5.321s0-2.66,0-2.66l1.996-2.328c0,0,0,0,1.995-0.665
			s0.665,0,2.328-0.333c1.663-0.332,0.998,0,1.663-1.663c0.665-1.662,0.998-1.995,1.33-4.655c0.333-2.661,0-1.663,0-1.663
			l0.998-4.656v-2.993l-2.328-5.653c0,0-0.152-0.354-0.375-0.86c-0.624,1.315-3.669,0.92-6.941,1.192
			c-3.991,0.332-1.995,0.665-2.994,0.998c-0.997,0.332,0,2.66,0,2.66s0,1.996,0,3.326s0,2.993-0.665,4.656c0,0,0,1.33,0,4.323
			s-0.332,5.321-0.332,5.321s-1.33,2.328-3.991,4.988c-2.66,2.661-2.661,1.331-5.653,3.326c-2.993,1.995,0.997-0.333,2.327-0.665
			c1.331-0.333,2.994,0.665,2.994,0.665s0,0,0,0.998c0,0.997,0.997,4.988,1.663,5.986c0.664,0.998,1.662,3.325,1.662,3.325
			s0.333,1.663,0,5.321c-0.332,3.658-1.995,0-1.995,0l-2.328-0.332c0,0-2.66,0-5.321-1.331c-2.661-1.329-2.66-1.33-2.66-1.33
			l-2.329-2.66l-1.663,3.99l-0.997,2.994c0,0-2.328,1.995-3.658,2.993c-1.33,0.997-0.665,0.332-0.665,0.332
			s-1.663,0.332-3.658,0.997c-1.995,0.666-1.663,1.996-1.663,1.996s-0.665,1.663-0.665,2.66c0,0.998-0.333,4.324-0.333,4.324
			l-1.995,2.327c0,0-1.663,1.663-3.326,2.994c-1.663,1.33-0.997,4.655-0.997,4.655l-2.661,2.661c0,0-2.328,2.328-3.658,3.325
			c-1.33,0.998-1.996,1.996-1.996,1.996s-0.997,0.997-5.653,3.991c-4.655,2.993-1.663,0.665-8.314,4.323c-6.652,3.658-1.33,0-1.33,0
			l0.332-1.33c0,0,0-1.996,1.331-4.324c1.33-2.327,0.997-1.995,2.66-3.99s1.331-1.33,1.663-2.661
			c0.333-1.331,2.661-2.66,3.658-3.991c0.998-1.33,2.328-0.997,2.328-2.327s-0.333-0.665-0.333-0.665s-2.66-0.999-4.655-2.328
			c-1.995-1.33-1.33-1.663-1.33-1.663s0.664-0.998,1.662-1.33s0.998-0.998,0.998-0.998s2.992,0,5.321-1.33
			c2.328-1.331-0.998-2.993-0.998-2.993l-3.99,1.662l-2.661,2.328c0,0-1.995,1.331-3.326,1.331c-1.33,0-2.328,1.33-7.648,4.988
			c-5.321,3.658-1.33,2.328-1.996,3.325c-0.665,0.998-0.665,1.996-0.665,1.996s-0.998,1.33-2.328,2.993
			c-1.33,1.662-2.328,1.33-3.658,1.33c-1.331,0-1.996,1.33-5.654,5.654c-3.658,4.322-3.325,1.995-4.988,1.995
			s-0.998-0.665-0.998-0.665l-1.662-1.663h-2.993c0,0-1.663,0.333-3.659,0.998c-1.995,0.666-1.33,0.332-1.33,0.332
			s-0.726-0.001-1.699-0.119c-0.205,1.474-1.294,0.119-1.294,0.119s-0.998,0.666-2.328,1.663c-1.33,0.998-2.66,0.333-2.66,0.333
			l-1.996,0.665l-1.995-1.663c0,0-1.995,0.332-3.658,0.332s-2.993,0-7.317-0.664c-4.323-0.665,0-0.666,0-1.663
			c0-0.999,0.999-0.999,0.999-0.999s0.997-1.329,1.662-2.327s0-3.99-0.998-6.651c-0.108-0.292-0.226-0.543-0.348-0.76
			c-0.993-1.764-2.313-1.236-2.313-1.236l-2.661-0.997c0,0-2.993-1.33-3.991-2.328c-0.998-0.998-2.328,0.665-2.328,0.665
			s-1.663,1.477-3.611,2.643c0.268,0.012,0.484,0.018,0.618,0.018c0.998,0,5.321,0,7.316,0c1.995,0,3.991,2.328,3.991,2.328
			l-0.333,3.658h-1.331c0,0-2.993,0-7.649,0c-4.656,0-0.998-0.332-3.326-1.662c-2.328-1.331-1.663,0-5.654-0.333
			c-3.991-0.332-1.995-0.332-1.995-0.332l-1.331-1.663c0,0,0,0-1.663-1.663s-2.328,0-2.328,0l-0.998,2.66c0,0-1.331,0-2.993-0.665
			c-1.663-0.664-2.993-0.997-2.993-0.997l-3.991-2.328l-0.776-0.776l-3.548,0.443l-0.665-1.995l-2.328-0.666
			c0,0-4.989-0.997-10.643-0.997c-5.653,0-3.991-2.661-6.984-2.993c-2.993-0.333-0.665-5.986-0.665-12.638
			c-1.331-0.665-1.331-0.665-4.657-3.658c-0.171-0.154-0.33-0.302-0.485-0.447c-1.25,0.194-2.606,0.447-3.837,0.447
			c-1.996,0-5.986,0-5.986,0s-2.329-4.989-2.994-7.649c-0.665-2.661-2.993-5.987-5.654-9.646c-2.661-3.657-2.328-4.655-2.328-4.655
			l-1.996-2.661c0,0,0-1.663,0-2.993c0-1.242,2.607-7.697,6.469-15.582c-0.172-0.75-0.353-1.524-0.483-2.044
			c-0.263-1.052-1.77-2.725-2.72-4.037c-1.709,0.181-4.081,0.379-6.26,0.379c-3.991,0-5.986,0-6.984,0c-0.998,0-3.326,0-4.324-1.663
			c-0.998-1.664-1.663-2.328-1.995-3.326c-0.333-0.997,0-4.656,0-4.656s0.998-3.991,1.663-5.986c0.665-1.996,1.33-3.991,1.664-4.989
			c0.333-0.997,0-1.995-0.666-3.99c-0.666-1.996-0.665-1.996-0.998-4.656s0.998-3.991,0.998-3.991s0-4.323,0-6.651
			c0-2.02,0-4.288-0.218-6.157c-0.141,0.174-0.288,0.344-0.447,0.504c-1.663,1.662-1.331,1.662-2.66,1.33
			c-1.33-0.333-1.331-1.663-1.331-1.663l-0.665-1.995c0,0-4.324-0.333-5.654-2.328c-1.331-1.996-0.998-6.319-0.998-6.319
			l-0.295-5.321c-0.56,0-1.097,0-1.7,0c-1.331,0-1.995,1.996-1.995,1.996l-2.661,3.325l-2.328,5.321c0,0,0,2.66,1.331,6.651
			c1.33,3.991,1.995,3.991,3.326,8.647s4.656,6.651,5.654,8.647c0.998,1.995,0,2.992-0.998,3.99
			c-0.998,0.998-3.658,2.993-8.646,4.324c-4.989,1.33-2.661,1.662-3.659,1.995c-0.998,0.333,0,2.328,0,2.328
			s0.666,2.328,2.328,3.658c1.663,1.331,3.326,2.993,3.326,2.993s4.323,4.323,5.321,4.323c0.998,0,1.996,1.663,3.991,2.328
			c1.996,0.665-0.332,1.331-0.332,1.331s-1.663,1.662-1.663,3.99s0,0,1.663,3.325c1.663,3.326,0.665,3.659,0.665,4.657
			c0,0.997-1.996,0.665-3.991,0.665s-1.663,0-3.658,0s-2.993-2.328-2.993-2.328l-1.663-3.991c0,0-1.33-3.325-2.661-6.318
			s-0.998-0.666-0.998-0.666s-0.998-1.995-3.991-3.99c-2.994-1.996-3.991,0-6.652,0c-0.072,0-0.146-0.002-0.218-0.002
			c0.234,3.473,0.593,6.911,1.069,10.312h0.813l3.991,0.998c0,0,0.333-0.333,0.333,0.997c0,1.331,0,3.991,0,3.991l1.33,1.996
			c0,0,1.331-0.666,1.664,1.995c0.332,2.66,0.332,3.991,0.332,5.321s2.328,4.323,2.328,4.323l2.661,2.993l1.995,1.663
			c0,0,1.664,3.991,0.333,4.656c-1.331,0.664-5.654,0.998-6.651,1.33c-0.897,0.299-0.455-1.273-1.322,0.339
			c4.65,12.331,10.943,23.854,18.616,34.305v-0.721l4.989-0.333c1.663,0.666,3.659,1.996,3.659,1.996l0.997,0.665
			c1.33,0.997,1.33,4.988,1.33,4.988s-1.995-0.332,0,1.995c1.996,2.329,2.661,2.661,3.991,3.659
			c1.331,0.997,1.995,1.995,1.995,1.995s-0.332-0.666,0.666,0.333c0.998,0.997,0.333,0,2.993,1.995
			c2.661,1.995,3.991,1.995,3.991,1.995l1.663,0.666l0.998-0.399v-1.597v-1.663v-2.328l-0.333-3.325l-1.995-1.995l-1.996-1.331
			l-2.661-1.995l-0.998-0.665c0,0-2.66-2.328-3.658-2.328c-0.998,0-1.995-0.333-1.995-0.333h-0.998l-1.331-0.665
			c0,0,0.333-0.332-0.998-0.665c-1.331-0.332-2.661-1.995-2.661-1.995v-1.331v-2.66v-0.998l-0.998-3.658l-0.998-0.998l-0.666-1.33
			l-3.658-3.991l-1.995-2.66l-1.663-3.326l-0.666-0.665c-1.996-1.33-3.326-2.327-3.326-2.327l-0.666-0.666l-0.665-1.663v-3.325
			l3.991,3.991h1.996h0.998l3.326,1.663l0.665,1.995l1.663,1.995l2.328,0.665l2.994,1.663l1.33,0.998l4.656,2.993
			c0,0,0.998-1.996,0.998,0.332s0,3.658,0,3.658s0,0,0,1.663s1.331,3.326,1.331,3.326l2.328,2.328
			c-0.333,0.997-0.666,0.333-0.998,1.33c-0.333,0.998-0.666,1.995-0.666,1.995l1.663,1.663l2.661,1.663l0.998,1.33l1.663-2.66
			l0.665-0.998c1.331,0,3.659,0.332,4.656,0.665s1.996,0.998,1.996,0.998l0.998,0.997l1.33,0.998h2.993l-0.665,1.663h-1.663h-1.995
			l-1.331-0.665l-1.331,1.33l1.331,1.331l-2.661,0.997l-0.998,0.998l0.665,3.658l2.994,1.995h1.663l1.331,1.331
			c0,0-0.665-0.998,1.996,0c2.66,0.997,2.993,1.663,5.653,2.66c2.661,0.998,8.647,3.991,8.647,3.991l3.325,0.997l1.996,0.665
			c0,0-1.33-0.332,1.663,0.665c2.994,0.999,3.658,0.998,5.654,1.331c1.995,0.332,6.651,1.33,6.651,1.33s-0.998,2.328,0.333,2.328
			c1.331,0,2.661,0,2.661,0l2.993,0.665h0.998h1.33l2.661,0.665l0.333,0.998l3.658,1.663h1.602c0.402-1.021,0.727-1.996,0.727-1.996
			h1.663l3.991-0.332c0,0,0.666-1.33,0.666,0.332c0,1.663,0,2.661,0,2.661s0.333,3.99,2.993,4.988
			c1.314,0.493,2.789,0.741,3.947,0.868c0.111-0.987,0.244-2.203,0.376-3.528l-1.33-0.998c-1.33-0.998,0-2.993,0.665-4.323
			c0.665-1.331,0.998,0,0.998,0s1.995,1.995,4.988,2.993c2.993,0.997,2.661,0,2.661,0s2.661-2.661,3.659-2.993
			c0.997-0.333,1.995,0.665,3.657,1.33c1.663,0.666,1.331,2.993,1.331,2.993s-0.998,1.663-1.996,4.323
			c-0.997,2.661-1.995,3.326-5.321,3.659c-3.326,0.333-2.661,0.997-4.989,0.997c-0.827,0-1.568-0.127-2.183-0.288
			c-1.307,0.962-2.806,1.618-2.806,1.618h-0.639c-0.101,0.223-0.264,0.547-0.51,0.998c2.123,0,2.812,0,2.812,0l1.996,0.333
			l-0.998,1.33l-0.998,0.998l2.661,1.662c0,0-1.331,0,1.33,0.665c2.661,0.666,3.991,0.334,5.321,0.666
			c1.331,0.332,2.328,0.332,2.328,0.332c-2.328-1.33-2.993-1.995-2.993-1.995l-0.998-0.998c1.663-0.332,3.326-0.332,3.326-0.332
			s-0.666,0.332,1.995,0.332s1.33-0.998,1.33-0.998s-1.662-0.665-0.665-1.995c0.998-1.33,2.994-2.328,3.991-2.328
			c0.998,0,1.995,0.998,1.995,0.998l0.998,2.328l-1.995,1.995c0,0-2.328-0.333-1.331,0.998c0.998,1.33-0.332,1.331,1.996,1.663
			s1.33-0.001,3.991,0.332c2.66,0.332,4.323,0.332,4.323,0.332s-0.998-0.332,0.665-2.327c1.662-1.996,2.66-3.325,2.66-3.325
			s-1.33-0.666,1.663-0.666s1.663,0,4.989,0c3.325,0,2.993,0,4.988,0s3.325,0,4.656,0c1.33,0,3.991-0.998,3.991-0.998
			s-0.998-0.665,1.33-0.665c2.327,0-0.333-0.665,3.325,0c3.659,0.665,4.323,1.33,5.322,0.665c0.997-0.665,2.327-1.995,2.327-1.995
			l1.996-2.328l2.327-1.995l1.664-0.333l-2.994,4.324c0,0,0.785,1.777,0.539,3.81c8.861-3.654,17.277-8.164,25.145-13.434
			C223.826,262.296,223.734,260.961,223.054,259.429z M194.451,261.425c-2.328,1.995-4.324,2.993-6.984,3.658
			s-6.318,1.33-7.649,1.663c-1.33,0.333-3.99,0.333-4.988,0.333s-3.658-0.666-3.658-2.662c0-1.995,0-2.992,0-2.992l1.995-0.333
			l1.996-1.995h3.658c1.995-1.663,2.328-2.661,3.325-3.658c0.998-0.998,2.661-2.994,2.661-2.994l0.333-0.997l-0.333-2.66
			l1.995-2.994c0,0,2.994,0.333,3.326,1.996c0.332,1.662,0.333,1.995,1.995,3.658c1.663,1.663,2.993,2.66,3.325,4.656
			C195.781,258.099,196.779,259.429,194.451,261.425z"/>
		<path fill="#F04E28" d="M109.977,275.061c-1.331,0.997-3.658,0.997-3.658,0.997l3.658,0.999l2.661,0.332
			c0,0,0.014-0.004,0.033-0.01c-0.92-1.052-1.754-2.101-2.243-2.729C110.334,274.764,110.194,274.897,109.977,275.061z"/>
		<path fill="#F04E28" d="M113.13,38.346l2.218-1.312C113.875,37.238,113.264,37.743,113.13,38.346z"/>
		<path fill="#F04E28" d="M93.015,266.081c0.467-0.078,1.191-0.174,2.024-0.276c-0.028-0.055-0.029-0.057-0.029-0.057
			c-2.66-0.665-5.986-0.665-5.986-0.665l-0.998,0.333l-1.331,1.33v1.662l1.664,1.664l1.663,0.332l2.903,0.622l-1.906-3.283
			C91.02,267.743,91.02,266.414,93.015,266.081z"/>
		<path fill="#F04E28" d="M252.319,141.364c-0.665-1.663,1.663-1.995,1.663-1.995l5.654-1.996c0,0,3.325-1.33,1.995-3.658
			s-3.658-2.993-7.981-8.647c-4.324-5.653-3.326-1.662-4.989-4.323c-1.227-1.963-2.094-1.029-5-0.004
			c0.006,0.002,0.012,0.004,0.012,0.004s0.55,0.747,1.395,1.916c1.297,0.079,2.28,0.085,3.262,0.412
			c1.995,0.665,6.318,4.656,6.318,4.656l0.666,1.995c0,0-1.663-0.333-0.666,2.993c0.998,3.326,0.998,4.989-0.997,5.654
			c-1.23,0.409-1.954,0.819-2.329,1.308v5.344l1.996,0.665c0,0,2.328,0,3.991,0c1.662,0,1.995,2.328,1.995,2.328
			s4.587,4.418,7.446,7.909c-0.085-0.171-0.129-0.26-0.129-0.26l-1.996-2.993c0,0,0-2.816,0-6.373
			c-1.338-0.542-3.255-1.195-6.984-1.941C247.663,142.362,252.985,143.027,252.319,141.364z"/>
		<polygon fill="#F1635E" points="149.283,124.961 150.884,125.732 153.544,124.07 150.958,119.672 149.886,120.744 		"/>
		<path fill="#F1635E" d="M63.083,122.739l2.661,0.998l2.993-0.665c0,0,2.328,0,3.659,0c1.33,0,4.989,0,4.989,0h1.33l0.998-0.998
			l1.497-0.831l-0.831-0.831l-1.331-5.321v-1.331l-2.993-2.993l-3.326-1.662c0,0-1.33,0.664-2.328,0.664s-5.321,1.664-6.984,2.661
			c-1.664,0.998-2.661-1.996-2.661,1.33s0,6.984,0,6.984s0.208,0.895,0.558,1.931l0.773,0.064H63.083z"/>
		<path fill="#F1635E" d="M94.346,161.319v2.66l-0.751,0.409c0.551,1.651,0.751,2.251,0.751,2.251l0.678,0.813l1.65-2.476
			c1.331-1.663,1.996-2.661,3.659-3.658c1.663-0.998,2.993-1.996,2.993-1.996s2.328-2.327,2.993-4.988s0.665-5.321,0.665-5.321
			l-1.331-0.998c0,0-0.665-0.998-2.66,0c-1.996,0.998-5.322,2.993-5.322,2.993l-2.661,3.326l-0.665,2.993V161.319z"/>
		<path fill="#F1635E" d="M171.034,109.847c-0.598,0.593-1.137,1.159-1.635,1.667l1.438-1.079L171.034,109.847z"/>
		<path fill="#F1635E" d="M174.829,112.763c0,0-0.998,3.99-0.998,4.988c0,0.402-0.217,0.587-0.476,0.665c0.999,0,1.474,0,1.474,0
			s2.604-2.833,4.576-5.653c-0.381,0-2.071,0-3.246,0C174.83,112.763,174.829,112.763,174.829,112.763z"/>
		<path fill="#F1635E" d="M101.281,45.354l-0.949,0.561c0,0,0,0.49,0,1.22C101.036,46.174,101.302,45.631,101.281,45.354z"/>
		<path fill="#F1635E" d="M177.157,108.106c0,0,1.482,1.483,2.768,3.889c1.138-1.74,1.918-3.376,1.556-4.222
			c-0.997-2.327-5.321-5.653-5.321-5.653s-1.996-0.333-2.66,1.995c-0.386,1.351,0.346,1.694,0.381,2.328h0.949L177.157,108.106z"/>
		<path fill="#F1635E" d="M235.025,96.466c1.996-0.665,0.333-2.66-0.665-2.66c-0.997,0-3.658,1.33-8.647,1.995
			c-0.51,0.068-0.944,0.121-1.322,0.164c2.469,1.125,4.315,2.164,4.315,2.164C229.705,97.796,233.03,97.131,235.025,96.466z"/>
		<path fill="#F1635E" d="M243.673,120.744c0,0-0.006-0.002-0.012-0.004c-1.033,0.364-2.322,0.74-3.979,1.002
			c2.366,0.676,4.044,0.836,5.386,0.918C244.223,121.491,243.673,120.744,243.673,120.744z"/>
		<path fill="#F1635E" d="M48.782,152.672c-0.333-0.998-1.996-2.328-2.661-5.654c-0.665-3.325-0.998-4.656-0.998-8.314
			s0-6.318,0-7.316s0-4.323,0-6.319c0-1.995,0-4.323,0-4.323s-0.332-0.332-0.665-1.663c-0.333-1.33-0.333-4.323-0.333-4.323v-1.33
			v-0.665V111.1l-0.666-1.663c0,0-1.33,0.666-1.995-0.998c-0.666-1.662-1.663-1.662-0.666-3.99c0.937-2.186,0.994-3.491,2.924-3.919
			c-0.729,0.125-2.41,0.38-4.595,0.511c-0.26,0.462-0.577,1.023-0.989,1.745c-0.487,0.852-1.018,1.612-1.496,2.237
			c0.662,0.928,1.423,1.304,1.163,2.086c-0.333,0.998-0.333,1.33-0.333,1.33s-0.547,2.174-1.881,3.82
			c0.217,1.869,0.218,4.138,0.218,6.157c0,2.328,0,6.651,0,6.651s-1.33,1.331-0.998,3.991s0.332,2.66,0.998,4.656
			c0.666,1.995,0.999,2.993,0.666,3.99c-0.333,0.998-0.999,2.993-1.664,4.989c-0.665,1.995-1.663,5.986-1.663,5.986
			s-0.333,3.659,0,4.656c0.333,0.998,0.998,1.662,1.995,3.326c0.998,1.663,3.326,1.663,4.324,1.663c0.998,0,2.993,0,6.984,0
			c2.179,0,4.55-0.198,6.26-0.379c-0.251-0.349-0.467-0.673-0.606-0.952C51.443,155.665,49.114,153.67,48.782,152.672z"/>
		<path fill="#F1635E" d="M68.072,202.559c-0.998-0.333-2.661-1.663-2.661-1.663s-1.663-3.99-2.661-4.655
			c-0.998-0.666-5.321-6.652-5.321-6.652l-1.664-3.991c0,0,0-0.332,0-1.33c0-0.997,0-1.995,0-3.658s-0.333-1.995,0-4.323
			c0.333-2.328,0.998-4.656,0.998-4.656v-2.661l-0.333-2.66c0,0-0.247-1.11-0.515-2.279c-3.862,7.885-6.469,14.34-6.469,15.582
			c0,1.33,0,2.993,0,2.993l1.996,2.661c0,0-0.333,0.998,2.328,4.655c2.661,3.658,4.989,6.984,5.654,9.646
			c0.665,2.66,2.994,7.649,2.994,7.649s3.991,0,5.986,0c1.231,0,2.587-0.253,3.837-0.447
			C69.371,204.089,69.018,202.873,68.072,202.559z"/>
		<path fill="#F1635E" d="M220.725,90.146c0,0-0.243-2.441-0.14-4.736c-1.384-1.114,0.042-3.261-0.193-4.907
			c-0.332-2.328-1.329-6.984-2.993-7.65c-1.663-0.665-3.99,1.996-3.99,1.996s0.332,1.995,0.332,2.993
			c0,0.997,2.661,7.649,2.661,7.649L220.725,90.146z"/>
		<path fill="#F1635E" d="M52.441,98.129c3.325-1.995,2.661-2.328,7.649-3.326c4.989-0.997,6.651-1.33,9.645-1.33
			s7.317-0.665,7.317-0.665c1.663,0,5.653,0.001,6.984-0.332s4.989-1.663,4.989-1.663c1.663,0,2.993-0.666,2.993,0.332
			s0,5.321,0,5.321s0,0.333-1.331,1.996c-1.33,1.662-1.995,1.663-4.323,3.99c-2.328,2.328-4.989,3.658-4.989,3.658
			s-1.331,3.658-0.666,4.989c0.666,1.33,0.998,2.661,1.996,4.323c0.998,1.663,1.331,2.328,1.663,3.326
			c0.333,0.997,0.998,1.995,0.998,1.995s0.665,0.665,0.332,1.663c-0.066,0.198-0.119,0.425-0.161,0.658l4.152,2.335l2.993,2.993
			l2.661,4.656l2.892,2.685l1.355,0.718l0.076-0.077l0.333-2.328c0,0,0-1.742,0-3.159l-1.663-1.829l0.756-2.455
			c-1.519-4.427-4.415-11.846-4.415-11.846l-2.993-2.661l-0.332-1.662l2.328-3.326l2.661-2.328c0,0,0.665-1.663,0.665-2.66
			c0-0.998,0.665-4.323,0.998-5.654c0.333-1.33,1.995-3.658,1.995-3.658s-0.333-1.662,4.656-2.328
			c4.988-0.665,6.984-0.665,6.984-0.665s1.331-2.66,1.331,1.33c0,3.991,0,4.989,0,5.986c0,0.998-2.661,2.661-2.661,2.661
			s-0.998-0.333-1.995-0.333s-2.661,0-2.661,0.998s0.998,2.993,0.998,2.993s-1.33,1.331,2.328-0.998
			c3.658-2.328,6.652-3.658,7.317-0.665c0.665,2.993,0.665,2.993,0.665,2.993s0.998,1.663,1.663,2.993
			c0.666,1.331-0.998-0.332,0.666,1.331c1.663,1.662,3.658,2.328,3.658,2.328l4.989,4.322c0,0,0.666,0.333,1.663,1.331
			s4.323,5.986,4.323,5.986c1.663,1.33,0.666,5.986-0.998,6.651c-1.663,0.665-3.991,1.331-3.991,1.331s-0.998,0.332-0.998,1.662
			s0,3.991,0,3.991l-0.998,1.995l-1.996,1.33l-2.328,2.329l-2.66,1.995l-1.331,1.663l-0.998,2.993v0.998
			c2.661,0.997,5.986,0.664,5.986,0.664l1.995-2.66c0,0,0.998,0,0.998-1.33c0-0.991,0-1.611,0-1.864c0-0.087,0-0.132,0-0.132
			c0-0.146,0-0.438,0-0.997c0-1.663-0.665-5.321,2.661-5.321c3.326,0,4.324-0.998,5.986-0.998c1.663,0,2.66-0.665,4.324-0.665
			c0.29,0,0.517-0.042,0.706-0.103c0.177-0.259,0.292-0.556,0.292-0.896c0-1.663-1.663-8.979-1.663-8.979s-1.331-0.998-1.331-1.996
			c0-0.997-0.665-5.32-0.665-5.32l4.323,1.663l4.952,2.39c-1.233-0.927-2.624-1.393-2.624-1.393l1.331-2.66c0,0,0,0,1.33,0
			s2.328-0.333,2.328-0.333s0,0,0.665-1.662c0.665-1.663,0,0,0-1.331c0-1.33-0.997,0-0.997,0s-1.331,0.333-2.994,0.333
			c-1.662,0-1.33,0-2.992-0.666c-1.663-0.665-1.664-0.997-1.664-2.327s0.998-0.665,0.998-0.665s0.666-1.996,0.666-2.994
			c0-0.997,0-1.662,0-1.662s-0.666-1.663-0.666-3.326s0.333-1.663,0.333-1.663s5.653-1.33,7.316-1.33s0,0-0.333,0.998
			c-0.332,0.997,0,1.663,0.998,6.983c0.998,5.321,0.665,0.666,0.665,0.666l0.665,1.33l0.665,0.998c0,0,0.666,1.995,0.998,3.325
			c0.087,0.347,0.127,0.622,0.141,0.846l2.853-1.511l3.658-2.993h0.998l2.328,0.998c0,0,0.665,1.33,0.665,2.327
			c0,0.998,0,0.666,0,1.664c0,0.997-1.662,0.997,3.658,0.997c2.328,0,4.083,0,5.321,0l-2.66-1.995l-1.663-2.328v-1.414
			c-1.081,0.915-1.995,1.247-2.993,0.416c-1.995-1.662-4.323-1.996-3.991-4.323l-0.998,1.663l-0.665,0.332l-3.991-0.998l1.331-1.995
			h0.997l3.326,0.998c0.332-2.328,0.998-5.654,0.998-5.654s1.33,0.001-1.33-0.665c-2.661-0.665-4.324-2.993-4.324-2.993
			s-0.665-4.656-0.665-7.316s0-3.991,0-3.991l1.331-2.993l4.988,1.331c0,0-1.996,1.662,2.328,2.327
			c4.323,0.666,8.979,0.998,8.979,0.998s0.997-1.995,1.33,1.663s-0.332,4.656,0.333,5.653c0.665,0.998-0.333,1.331,2.327,1.996
			c2.661,0.665,3.659,0.997,5.654-0.998c1.996-1.995,1.996-2.66,3.991-2.66s3.658-0.666,3.658-0.666s2.994,1.331,4.323,1.663
			c1.33,0.333,4.988,0.665,4.988,0.665s1.663,1.995-0.665,4.656c-2.327,2.661-2.993,2.993-2.993,2.993l2.328,0.333
			c0,0-0.665,0,0.998,1.33s1.995,1.662,1.995,3.325c0,1.664,0.665,5.654,0.665,6.652s2.661,3.991,2.661,3.991
			s2.328-1.996,2.661,1.662c0.332,3.658-0.333,5.987,1.662,7.317c1.996,1.33,3.659-0.333,6.652,2.66s3.658,3.991,3.658,3.991
			l1.995-6.651l3.326-0.666c0,0-0.333-0.665,1.995,0.333s6.319,1.995,7.316,0.665c0.998-1.33,0.998-1.663,1.33-3.991
			c0.224-1.559,0.594-2.816,0.816-3.479c-0.211,0.032-0.139,0.012,0.012-0.039c0.103-0.303,0.17-0.472,0.17-0.472
			c-0.815-0.163-3.951-1.208-6.7-2.543c-2.242,0.215-4.275,0.215-4.275,0.215s-4.987-2.328-5.653-3.991
			c-0.665-1.663-0.333-2.66-1.663-3.99c-1.33-1.331-4.656-8.98-4.656-8.98c-2.625-0.875-0.646-0.215-2.365-2.285
			c-0.193-0.025-0.399-0.043-0.628-0.043c-2.992,0-5.321-1.662-5.321-1.662s-0.416-0.537-0.856-1.286
			c-1.786-0.077-4.087-0.252-7.457-1.375c-7.982-2.661-1.331-2.66-1.996-4.656c-0.665-1.995-3.326-1.33-3.326-1.33
			s-3.658,0-7.981-0.998s-0.997-4.988-0.333-6.318c0.665-1.33,2.661-1.33,6.984-2.993s2.661,0,2.661,0s3.991,2.993,10.31,3.658
			s2.993,1.995,3.991,2.993c0.602,0.602,2.774,3.742,4.551,6.433c1.277,0.085,2.49,0.235,3.8,0.495
			c-0.11-0.565-0.298-1.213-0.701-1.939c-1.663-2.993-3.991-3.99-3.991-3.99v-0.998c0,0-0.998-2.328-2.661-5.321
			c-1.662-2.993-5.653-3.326-10.31-5.654c0,0-2.328,0-3.99-1.662c-1.663-1.663-4.324-1.331-7.317-3.659s-3.99-0.665-3.99-0.665
			s-3.326,2.328-2.328,2.328c0.997,0,2.66,2.328,5.32,3.658c2.661,1.331-0.664,1.996-0.664,1.996s-4.324,1.995-8.315,3.326
			c-3.99,1.33-1.33-2.329-2.993-8.315c-1.662-5.985-0.665,1.663-0.665,1.663s-6.983,3.326-8.314,1.663
			c-1.33-1.663,0-1.33-1.995-1.995s-2.328,0-4.989-0.998c-2.66-0.998-0.332-3.326,0.998-5.321s2.328-0.665,4.988-2.993
			c2.661-2.328,6.319-0.665,9.978-0.665s5.654,0.665,9.978,0.665s3.991,1.663,6.651,3.326c2.661,1.663,6.652,2.327,6.652,2.327
			s5.653-1.329,5.653-2.66c0-1.33-4.656-4.323-7.981-6.984c-3.326-2.66-6.319-2.328-7.982-3.658c-1.662-1.33-3.99-4.988-5.321-6.651
			c-1.33-1.663-1.663-2.661-2.66-3.991c-0.998-1.33-2.993-1.33-2.993-1.33s-6.651,0.332-11.641,1.33
			c-4.988,0.998-3.325,0-2.993-0.998c0.333-0.997,0-3.658,0-3.658s-3.99-2.66-5.321-2.66c-1.33,0-8.979,1.33-11.973,0.332
			c-2.993-0.997-3.991-1.995-3.991-1.995s0-3.991-1.663-6.318c-1.663-2.328-2.993,3.325-2.993,3.325s-3.326,1.995-4.323,2.328
			c-0.998,0.333-6.652,0.665-13.969,0.665c-0.629,0-1.159,0.036-1.613,0.1l-2.218,1.312c-0.304,1.37,1.835,3.245,1.835,3.245
			l0.665,0.998l1.663,6.318c0,0-2.661,0.998-5.322,1.331c-2.66,0.332-2.66,1.662-2.66,1.662s-6.319,2.661-7.317,2.661
			c-0.353,0-1.042-0.086-1.811-0.282c-0.278,1.134-0.85,2.277-0.85,2.277s-2.661-1.663-1.33,2.328
			c1.33,3.991,3.325,3.991,3.658,6.984c0.333,2.993-0.998,4.988-0.998,4.988s-0.666,0.998-3.659,1.995
			c-2.993,0.998-5.986,1.331-5.986,1.331s1.331-2.328-1.995,1.662c-3.326,3.991-4.324,3.659-5.654,4.657
			c-1.331,0.997-2.329,1.663-3.659,0.997c-1.33-0.665-3.658-3.326-3.658-3.326s-1.331-3.657,0-3.657s2.328-0.666,3.658-1.664
			c1.331-0.997,2.661-3.99,3.659-4.655c0.57-0.38,1.572-1.952,2.329-3.231c-0.389-0.584-0.924-1.096-1.664-1.425
			c-2.993-1.33-1.663,0.665-2.993,0.665c-1.331,0-1.996,4.324-2.993,6.984s-1.996,1.995-2.993,1.995c-0.998,0-2.661,0-6.651-0.665
			c-3.991-0.665-3.326,0.665-4.657,0.665s-1.33,0.665-2.328,0.998s0,3.325,0,3.325l-0.333,3.659c0,0-2.661,2.328-5.322,2.992
			c-0.332,3.326,0.001,4.324-2.328,6.652c-0.561,0.561-0.925,1.003-1.184,1.384c0.312,0.121,0.604,0.217,0.851,0.279
			c1.33,0.333,0.998,1.995,0.998,1.995s-2.328,2.993-6.984,5.321c-0.23,0.115-0.442,0.219-0.643,0.314
			c1.175-0.182,1.973-0.314,1.973-0.314S49.115,100.124,52.441,98.129z M121.949,59.55c0-0.997,1.331-2.328,1.331-2.328l1.663,0.998
			h1.331l2.328-1.663l-1.663-0.997l-1.331-1.664l-0.665-1.329l2.329-1.331c0,0,3.325,2.993,3.658,4.989
			c0.333,1.995-0.333,1.662-0.333,1.662v1.995c0,0,0.666,1.331,2.328,2.329c1.663,0.997,1.663,0.997,3.326,1.662
			c1.664,0.665,1.996,0.998,1.996,0.998s1.331,0.665,3.326,4.323s-1.33,0.998-1.33,0.998l-0.665,0.998l-1.663,1.33l-1.663,2.328
			l0.666,1.995c0,0,0,0,1.33,0c1.331,0,0,0,0.998,0.333c0.998,0.332,3.326,5.321,3.326,5.321l-2.328-0.333l-1.663-0.997
			l-3.658-0.998c0,0-1.663-1.996-3.658-3.658c-1.996-1.663-1.996-1.331-1.996-1.331l-1.331-2.66c0,0,0.998-1.995,0.998-3.326
			c0-1.33,2.993-1.995,2.993-1.995h-1.663l-1.197,0.599l-0.388,0.194l-1.075,0.538l-2.993-1.996l-1.663-2.328l-0.998-1.663
			C121.949,62.543,121.949,60.548,121.949,59.55z"/>
		<path fill="#F1635E" d="M259.304,148.016c0,0-0.333-2.328-1.995-2.328c-1.663,0-3.991,0-3.991,0l-1.996-0.665v-5.344
			c-0.232,0.304-0.332,0.638-0.332,1.02c0,0.998-0.997,2.661-0.997,4.657c0,1.995-0.998,0.664,0,3.325
			c0.997,2.661,2.66,3.326,2.66,3.326s1.662,1.995,1.662,2.993s0,2.328,0,3.991c0,1.662-0.996,2.993-1.329,4.323
			s-0.998,2.327-1.664,4.656c-0.115,0.405-0.305,0.832-0.534,1.259c-0.037,0.311-0.079,0.66-0.131,1.069
			c-0.147,1.188-0.63,1.314-1.323,1.091c-0.867,1.097-1.67,1.902-1.67,1.902l-5.653-0.333h-1.663l5.654,9.645c0,0,0-0.094,0-0.105
			c0,0.012,0,0.105,0,0.105c0,0.157,0,0.525,0,1.331c0,1.995,0.665,4.323-2.328,5.653c-2.994,1.33-7.982,1.33-7.982,1.33
			s0.333-0.665-0.997-0.665s0.997,6.651-2.993-0.665c-3.991-7.316-3.991-11.64-3.991-11.64l2.993-2.329c0,0-8.314-3.325-9.645-4.323
			c-1.33-0.997-7.981-3.658-9.978-4.656c-1.995-0.998-4.656-3.658-5.986-3.658s-3.658,0.998-6.319,1.996
			c-2.66,0.997-4.323,5.653-4.323,5.653l2.598,3.248c0.007-0.099,0.341-0.255,2.391-0.255c0.094,0,0.19-0.005,0.285-0.007
			l-0.617-1.323l3.991,0.665h1.573c1.329-0.197,2.534-0.294,3.415,0c1.995,0.665,3.99-2.661,5.321,0.665
			c0.385,0.962,0.543,1.78,0.596,2.497c0.38,0.314,0.66,0.605,0.734,0.829c0.333,0.998,0.665,2.328,0.665,3.326
			c0,0.997,0,3.325,0,4.655c0,0.659,0,1.236-0.081,2.176l0.081,0.484v2.328c0,0,0.333,3.326-0.665,4.989s-0.665,1.33-1.662,2.66
			c-0.998,1.331-0.001-0.332-1.663,2.328c-1.158,1.852-2.313,1.934-3.021,2.707c-0.108,0.283-0.296,0.764-0.637,1.617
			c-0.333,2.66-0.998,4.988-0.998,4.988l-1.663,3.325c0,0,1.663-0.665-0.665,0.333s-5.654,2.993-5.654,2.993
			s-4.323,0.333-5.321,0.333c-0.997,0-1.663-0.666-1.663-0.666h-2.328h-3.658c0,0-2.993,0.332,0.665-1.995
			c3.659-2.327,3.659-1.663,5.654-3.658c1.996-1.995,4.989-4.988,4.989-4.988l0.665-1.331l3.326-4.655l4.655-5.654l0.998-3.326
			l-1.045-2.926c-0.7-0.844-1.283-1.665-1.283-2.063c-0.91-0.182-2.414,0.136-3.593,0.731c-0.133,0.799-0.966,1.308-1.679,1.601
			c-0.03,0.108-0.05,0.217-0.05,0.328c0,1.664,0.332,4.989-2.328,3.991c-2.66-0.997-4.989-4.988-4.989-4.988
			s0.056-0.463,0.004-1.168c-0.854-0.774-1.001-1.492-1.001-1.492s-3.658-4.324-4.989-5.322c0,0-1.995-2.327-4.988-6.983
			c0,0-4.323-1.663-5.321-1.663s-3.658-0.665-3.658-0.665l-3.991-0.665c0,0-3.325-3.326-5.321-4.323
			c-1.995-0.998-2.993-2.661-4.988-2.993c-1.996-0.333-5.986-1.664-5.986-1.664l-1.996-1.662l-1.995-5.653v-3.326
			c0,0-0.333-0.997-0.998-1.663c-0.243-0.244-0.487-0.487-0.764-0.665h-1.896c-1.33,0.665-1.662,2.328-1.662,2.328l-1.142,1.37
			c-0.299,0.556-0.521,0.958-0.521,0.958s0.665,0.332-0.665,2.328c-1.331,1.995-2.993,3.658-2.993,3.658l-0.333,0.998l0.333,1.662
			c0,0,0.333,1.663-1.663,2.328c-1.995,0.665-5.321,2.328-5.321,2.328s0.665,1.663-0.998,0s-2.661-3.325-2.661-3.325l-1.663-1.996
			l-0.998-1.995l-0.666-0.998l-0.998-0.997l-0.998-0.998l-0.998-0.665h-2.328h-2.328l-0.666,0.997c0,0-0.332-0.997-0.332,0.666
			c0,1.662-0.998,4.322-0.998,4.322l1.33,2.661l1.331,0.998l-0.998,1.995l-1.996,2.328c0,0,0.333,0,0,0.998
			c-0.333,0.997-2.328,4.323-2.328,4.323l-1.996,2.328l-1.995,1.33l-1.996,0.665c0,0-0.338,0.17-0.674,0.466l1.339,1.53
			c0,0-0.333,4.656-2.993,6.984c-1.173,1.025-2.797,1.793-4.248,2.33c-0.188,0.793-0.409,1.891-0.409,2.658
			c0,1.33-0.665,2.327-0.665,2.327l-1.33,0.998l-1.33,1.331v2.328l0.332,0.998c0,0.068-0.059,0.096-0.15,0.101l1.814,3.225
			c0,0,1.662,0.997,0.332,1.33c-1.33,0.333-3.658,0.333-3.658,0.333s-0.665-0.665-0.665,0.997c0,1.663,0,2.994,0,2.994
			s1.331,1.33,0,2.66s-3.991,2.328-3.991,2.328l1.663,2.66c0,0-1.663,2.328-4.324,1.33c-2.66-0.997-2.661,0.333-3.991-1.663
			c-1.33-1.995-2.993-3.99-4.323-4.655c0,6.651-2.328,12.305,0.665,12.638c2.993,0.332,1.331,2.993,6.984,2.993
			c5.654,0,10.643,0.997,10.643,0.997l2.328,0.666l0.665,1.995l3.548-0.443l-2.55-2.55h0.666l5.321,1.996l1.664-0.665
			c0,0,2.993-1.996,4.988-1.996s2.661,0.665,2.661,0.665s0.326,0.218,0.828,0.547l4.825-1.877l0.333,3.658l1.203,1.547
			c1.604,0.204,4.204,0.377,5.496,0.431c1.949-1.166,3.611-2.643,3.611-2.643s1.33-1.663,2.328-0.665
			c0.998,0.998,3.991,2.328,3.991,2.328l2.661,0.997c0,0,1.319-0.527,2.313,1.236c0.122,0.217,0.239,0.468,0.348,0.76
			c0.998,2.661,1.663,5.653,0.998,6.651s-1.662,2.327-1.662,2.327s-0.999,0-0.999,0.999c0,0.997-4.323,0.998,0,1.663
			c4.324,0.664,5.654,0.664,7.317,0.664s3.658-0.332,3.658-0.332l1.995,1.663l1.996-0.665c0,0,1.33,0.665,2.66-0.333
			c1.33-0.997,2.328-1.663,2.328-1.663s1.089,1.354,1.294-0.119c0.974,0.118,1.699,0.119,1.699,0.119s-0.665,0.334,1.33-0.332
			c1.996-0.665,3.659-0.998,3.659-0.998h2.993l1.662,1.663c0,0-0.665,0.665,0.998,0.665s1.33,2.327,4.988-1.995
			c3.658-4.324,4.323-5.654,5.654-5.654c1.33,0,2.328,0.332,3.658-1.33c1.33-1.663,2.328-2.993,2.328-2.993s0-0.998,0.665-1.996
			c0.666-0.997-3.325,0.333,1.996-3.325c5.32-3.658,6.318-4.988,7.648-4.988c1.331,0,3.326-1.331,3.326-1.331l2.661-2.328
			l3.99-1.662c0,0,3.326,1.662,0.998,2.993c-2.329,1.33-5.321,1.33-5.321,1.33s0,0.666-0.998,0.998s-1.662,1.33-1.662,1.33
			s-0.665,0.333,1.33,1.663c1.995,1.329,4.655,2.328,4.655,2.328s0.333-0.665,0.333,0.665s-1.33,0.997-2.328,2.327
			c-0.997,1.331-3.325,2.66-3.658,3.991c-0.332,1.331,0,0.666-1.663,2.661s-1.33,1.663-2.66,3.99
			c-1.331,2.328-1.331,4.324-1.331,4.324l-0.332,1.33c0,0-5.322,3.658,1.33,0c6.651-3.658,3.659-1.33,8.314-4.323
			c4.656-2.994,5.653-3.991,5.653-3.991s0.666-0.998,1.996-1.996c1.33-0.997,3.658-3.325,3.658-3.325l2.661-2.661
			c0,0-0.666-3.325,0.997-4.655c1.663-1.331,3.326-2.994,3.326-2.994l1.995-2.327c0,0,0.333-3.326,0.333-4.324
			c0-0.997,0.665-2.66,0.665-2.66s-0.332-1.33,1.663-1.996c1.995-0.665,3.658-0.997,3.658-0.997s-0.665,0.665,0.665-0.332
			c1.33-0.998,3.658-2.993,3.658-2.993l0.997-2.994l1.663-3.99l2.329,2.66c0,0-0.001,0.001,2.66,1.33
			c2.661,1.331,5.321,1.331,5.321,1.331l2.328,0.332c0,0,1.663,3.658,1.995,0c0.333-3.658,0-5.321,0-5.321s-0.998-2.327-1.662-3.325
			c-0.666-0.998-1.663-4.989-1.663-5.986c0-0.998,0-0.998,0-0.998s-1.663-0.998-2.994-0.665c-1.33,0.332-5.32,2.66-2.327,0.665
			c2.992-1.995,2.993-0.665,5.653-3.326c2.661-2.66,3.991-4.988,3.991-4.988s0.332-2.328,0.332-5.321s0-4.323,0-4.323
			c0.665-1.663,0.665-3.326,0.665-4.656s0-3.326,0-3.326s-0.997-2.328,0-2.66c0.999-0.333-0.997-0.666,2.994-0.998
			c3.272-0.272,6.317,0.123,6.941-1.192c-0.351-0.8-0.881-1.984-1.288-2.799c-0.427-0.853-0.715-1.429-0.868-1.735
			C263.891,152.434,259.304,148.016,259.304,148.016z M103.325,222.513c-0.666,1.663-6.984-1.662-6.984-1.662
			c-2.661,0-4.989-0.666-4.989-0.666l-1.996-1.33l2.993-0.997h1.663l0.998-1.331l1.331-0.332l4.323-2.328c0,0-0.666-2.328,0.998,0
			c1.663,2.328,1.663,4.323,1.663,4.323S103.991,220.85,103.325,222.513z M116.96,205.551l-6.319-0.664c0,0-0.665-1.995-0.665-6.319
			l0.333-0.998l-0.998-1.662c0,0,0.665-3.326,2.328-5.654c1.663-2.327,0.998,0.998,0.998,0.998l0.998,2.327l0.666,4.657l2.993,1.995
			L116.96,205.551z M134.92,167.306l-1.331-1.331h1.331c0,0,1.663,0,4.656,0c2.993,0,2.993,0,2.993,0s3.325,0,4.656,0
			c1.33,0,1.33,0,1.33,0s2.328,0,3.658,0c1.331,0,1.33,1.331,4.323,2.661s1.33,1.33,2.328,1.995s1.33-0.332,3.658-0.332
			s0.666,1.33,0.666,1.33v1.995c0,0-2.328,2.328-3.326,2.661s-1.663,0.665-2.66,0.665c-0.998,0-1.331-0.333-1.331-0.333
			l-2.129-0.798c-1.524,0.649,0.229-0.147-2.527,0.466c-2.992,0.665-3.658,0-5.321,0c-1.662,0-2.66,0.997-2.66,0.997l-1.33,1.663
			v2.66l-0.998,0.998v-3.658l-3.326-2.66l-6.984-8.647l4.669-0.119L134.92,167.306z M148.224,190.586l-0.998-0.666l-6.984-2.992
			h1.663c0,0,4.988,0.997,6.319,0.997c1.33,0,1.995,1.663,1.995,1.663l0.997,1.663l1.996,1.33h0.997l3.991,0.665l-1.663,1.663h-1.33
			c0,0-1.995,0-3.326,0c-1.33,0-2.993-0.665-2.993-0.665v-2.993L148.224,190.586z M140.574,187.925c-0.626,0-1.663,0-1.663,0h-1.663
			h-2.661l-1.663,0.665l-0.998,1.663l-0.333,2.661l-1.995,0.997c0,0-1.33-0.333-2.993-1.995c-1.664-1.663-1.663-1.663-1.663-1.663
			l-2.993-2.661l0.333-2.327h1.663c0,0,1.663,1.33,2.993,2.993s2.661,0,2.661,0l2.328-0.666l3.658-0.664
			C135.585,186.928,138.911,187.925,140.574,187.925c0.285,0,0.486,0,0.464,0C141.06,187.925,140.858,187.925,140.574,187.925z
			 M180.15,231.16c-2.661,1.33-3.658,2.66-3.658,2.66s-2.661,1.331-3.991,1.663c-1.33,0.333-2.328,0.332-3.991,0.998
			c-1.017,0.406-3.9,1.187-5.986,1.731c0-0.453,0-0.734,0-0.734s0.333-0.332-1.662-0.332c-1.996,0-2.328-0.998-4.989,0.332
			c-2.66,1.331-1.663,1.331-3.658,1.331s-5.654-0.333-5.654-0.333l-1.662-1.33l-2.66-6.984l-0.666-3.658
			c0.666-3.325,0.666-6.984,0.666-6.984l1.662-1.995l3.326-1.33c0,0,0,0.997,2.66-2.661c2.661-3.658,2.328-3.99,3.658-4.323
			c1.331-0.333,3.659-1.995,3.659-1.995s1.33-3.658,1.995,0s0.997,6.983-1.995,7.316c-2.994,0.333-3.659,0.333-3.659,0.333
			l-1.33-0.333c0,0-2.993-0.332-0.998,1.663c1.996,1.995,3.659,2.66,3.659,2.66s1.33,1.996,1.33,2.993c0,0.998,0,3.326,0,3.326v2.66
			c0,0-8.647,1.663,0.665,2.661c9.313,0.997,7.649,0.997,10.975,0.997c3.326,0,5.987-0.665,7.317-1.995s2.327-2.993,4.655-3.658
			s2.328-1.33,3.326-0.997C184.142,225.174,182.812,229.83,180.15,231.16z M182.146,189.256l-1.995,0.664c0,0,0,0-0.997,0
			c-0.403,0-0.588,0-0.666,0c0,0-0.047,0-0.053,0c0.006,0,0.053,0,0.053,0l-2.66-2.328l-1.331-3.325l0.666-4.656
			c0,0,2.327-1.662,4.323-1.662c1.995,0,1.995,0.664,3.658,2.66c1.663,1.995,2.328,4.988,2.328,4.988l-1.663,1.663L182.146,189.256z
			 M230.369,199.897l-0.997,5.321h-0.998c0,0-3.991,4.656-6.651,9.978s-1.995,0.665-3.991,0.665c-1.995,0-1.995-1.33-1.995-1.33
			v-0.998c0,0,0.333-2.66,0.665-4.988s0.997-0.332,2.993-1.663c1.995-1.331,4.323-3.658,4.656-4.656h1.33v-1.995v-1.33l-0.665-0.998
			l-0.333-1.33l0.666-1.663l0.997-0.665l1.33,0.998c0,0,2.329,2.327,2.993,3.325C231.034,199.565,230.369,199.897,230.369,199.897z"
			/>
		<path fill="#E33F4C" d="M101.281,45.354c0.021,0.277-0.245,0.82-0.949,1.78c-0.102,0.14-0.211,0.286-0.333,0.443
			c-3.326,4.323-3.991,2.328-3.326,4.323c0.43,1.289,2.106,2.021,3.51,2.379c0.77,0.196,1.458,0.282,1.811,0.282
			c0.998,0,7.317-2.661,7.317-2.661s0-1.33,2.66-1.662c2.661-0.333,5.322-1.331,5.322-1.331l-1.663-6.318l-0.665-0.998
			c0,0-2.14-1.875-1.835-3.245c0.134-0.603,0.745-1.107,2.218-1.312c0.454-0.063,0.983-0.1,1.613-0.1
			c7.317,0,12.971-0.332,13.969-0.665c0.998-0.333,4.323-2.328,4.323-2.328s1.331-5.653,2.993-3.325
			c1.663,2.327,1.663,6.318,1.663,6.318s0.998,0.998,3.991,1.995c2.993,0.998,10.643-0.332,11.973-0.332
			c1.331,0,5.321,2.66,5.321,2.66s0.333,2.661,0,3.658c-0.332,0.998-1.995,1.996,2.993,0.998c4.989-0.998,11.641-1.33,11.641-1.33
			s1.995,0,2.993,1.33c0.997,1.33,1.33,2.328,2.66,3.991c1.331,1.663,3.659,5.321,5.321,6.651c1.663,1.33,4.656,0.998,7.982,3.658
			c3.325,2.661,7.981,5.654,7.981,6.984c0,1.331-5.653,2.66-5.653,2.66s-3.991-0.664-6.652-2.327
			c-2.66-1.663-2.328-3.326-6.651-3.326s-6.319-0.665-9.978-0.665s-7.316-1.663-9.978,0.665c-2.66,2.328-3.658,0.998-4.988,2.993
			s-3.658,4.323-0.998,5.321c2.661,0.998,2.994,0.333,4.989,0.998s0.665,0.332,1.995,1.995c1.331,1.663,8.314-1.663,8.314-1.663
			s-0.997-7.648,0.665-1.663c1.663,5.986-0.997,9.646,2.993,8.315c3.991-1.331,8.315-3.326,8.315-3.326s3.325-0.665,0.664-1.996
			c-2.66-1.33-4.323-3.658-5.32-3.658c-0.998,0,2.328-2.328,2.328-2.328s0.997-1.663,3.99,0.665s5.654,1.996,7.317,3.659
			c1.662,1.662,3.99,1.662,3.99,1.662c4.656,2.328,8.647,2.661,10.31,5.654c1.663,2.993,2.661,5.321,2.661,5.321v0.998
			c0,0,2.328,0.997,3.991,3.99c0.403,0.727,0.591,1.374,0.701,1.939c0.345,1.763-0.065,2.717,2.957,2.717
			c3.582,0,2.345,0.535,5.661,0.164c0.378-0.043,0.813-0.096,1.322-0.164c4.989-0.665,7.65-1.995,8.647-1.995
			c0.998,0,2.661,1.995,0.665,2.66c-1.995,0.665-5.32,1.33-6.319,1.663c-0.997,0.333-5.653,0.333-7.316,0.333
			c-1.662,0-6.318-0.665-6.984-1.996c-0.264-0.527-1.262-2.105-2.433-3.877c-1.776-2.69-3.949-5.831-4.551-6.433
			c-0.998-0.998,2.327-2.328-3.991-2.993s-10.31-3.658-10.31-3.658s1.662-1.663-2.661,0s-6.319,1.663-6.984,2.993
			c-0.664,1.33-3.99,5.32,0.333,6.318s7.981,0.998,7.981,0.998s2.661-0.665,3.326,1.33c0.665,1.996-5.986,1.995,1.996,4.656
			c3.37,1.123,5.671,1.298,7.457,1.375c2.444,0.105,3.924,0.029,5.845,1.951c0.409,0.408,0.721,0.75,0.961,1.04
			c1.72,2.07-0.26,1.41,2.365,2.285c2.993,0.998,0.998-3.325,2.993,0.998c1.996,4.323,1.996,5.986,1.996,5.986
			s2.661,0.665,6.319,0.665c3.657,0,4.988-0.665,4.988-0.665s5.321-1.995,1.33,0.998s-3.658,1.662-5.654,4.323
			c-1.016,1.355,1.421,3.056,4.275,4.441c2.749,1.335,5.885,2.38,6.7,2.543c0,0-1.663-1.331,2.993,0
			c1.657-0.262,2.946-0.638,3.979-1.002c2.906-1.025,3.773-1.959,5,0.004c1.663,2.661,0.665-1.33,4.989,4.323
			c4.323,5.654,6.651,6.319,7.981,8.647s-1.995,3.658-1.995,3.658l-5.654,1.996c0,0-2.328,0.332-1.663,1.995
			c0.666,1.663-4.656,0.998,5.321,2.993c3.729,0.746,5.646,1.399,6.984,1.941c0-0.31,0-0.623,0-0.943
			c0-3.991,0.665-0.998,0.665-0.998s1.663-1.663,1.663-3.659c0-1.246,0-1.584,0-1.662c0,0-1.663-5.653-2.993-7.981
			c-1.33-2.329-0.665-0.998-0.665-3.326c0-0.454,0-0.728,0-0.889c0-0.004,0-0.062,0-0.205c0-0.063,0-0.137,0-0.236
			c0-1.33-0.333-2.661-1.663-3.659c0,0-4.656-0.997-6.318-4.655l5.32-1.996l0.998-0.333c0,0,0.997,0,1.663-0.997
			c0.665-0.998,4.656-1.663,4.656-1.663s0,0-0.333-2.66s-0.333-0.666-1.331-2.328c-0.997-1.663-2.992-3.658-2.992-3.658l-1.33-0.998
			c0,0-2.328-1.33-5.321-3.991c-2.993-2.66,0,0,0-2.993s0.665-2.993,2.327-5.653h-2.66c0,0-3.325,0-4.323,0
			s-2.328,0.332-2.328,0.332s0,0-1.33,0c-1.331,0-2.661,0-3.991,0c-1.331,0-1.663-0.332-1.663-0.332l-1.33-1.663
			c0,0-2.328-1.995-4.323-3.326c-1.996-1.33-1.663,0-1.663,0l-1.663-0.332v-1.995c0,0,0.665-1.996,1.33-3.991
			c0.666-1.996,1.663-1.663,1.663-1.663s0,0,1.331,0c1.33,0,4.988-1.33,4.988-1.33l-0.666-0.998c0,0-1.995-2.661-3.99-6.651
			c-1.996-3.991,0-0.998,0-2.66c0-1.663,2.66-0.666,3.658-0.666s0.998,0.333,2.328,0.666l2.993-1.996c0,0-0.998-0.998-5.321-2.993
			s-0.998-1.331-0.998-1.331l-1.33-0.664c0,0-1.662-1.331-2.66-1.663s-1.663-1.33-1.663-1.33s0,0-0.665-1.663
			s-1.33-1.663-1.33-1.663s-1.663-1.663-2.994-3.658c-1.33-1.996-3.658-3.991-3.658-3.991l-0.998-1.33c0,0,0,0-1.995-1.663
			c-1.995-1.662-2.66-1.662-2.66-1.662l-2.993-0.333c0,0,0,0-0.998-0.333c-0.997-0.333-5.321-1.995-9.978-2.993
			c-4.655-0.998-1.33-0.665-1.33-0.665s-2.328-1.33-4.988-2.66c-2.661-1.33-3.991-2.993-3.991-2.993s-2.993-0.666-4.656-1.663
			c-1.662-0.998-0.665,0-0.665,0s-3.658,0-4.989,0c-1.33,0-1.329-0.665-3.325-2.328c-1.995-1.663-1.663,0-1.663,0
			s-4.323-1.331-7.649-1.663c-3.325-0.333-2.328,0-4.988,0s-2.328,0-4.656,0c-2.327,0-2.328,0-2.328,0l-1.995,0.665l-2.328,0.998
			c0,0-4.656,0.665-5.986,0.665c-1.331,0-2.993,0-2.993,0s-2.328,0.665-5.654,0.665c-1.455,0-2.082,0-2.328,0h-0.141h-3.518
			c0,0-3.326,0.665-4.324,0.665c-0.998,0-2.993,0.333-3.991,0.998c-0.998,0.666-4.989,0.332-4.989,0.332s-2.661,0.333-3.991,0.666
			c-1.331,0.332-1.33,0.665-4.989,1.995c-3.659,1.331-3.325,3.991-3.325,3.991h-1.664l-1.995,0.997c0,0-2.328,0.665-6.651,1.663
			s-1.663,1.331-1.663,1.331l-6.984,3.325h-1.663c0,0-1.663,2.661-1.33,3.658c0.333,0.998,1.33,0,3.658,0.332
			c1.663-0.332,2.993-1.995,4.656-1.995C98.856,45.914,101.221,44.565,101.281,45.354z M213.74,77.842
			c0-0.998-0.332-2.993-0.332-2.993s2.327-2.661,3.99-1.996c1.664,0.666,2.661,5.322,2.993,7.65c0.235,1.646-1.19,3.793,0.193,4.907
			c-0.104,2.295,0.14,4.736,0.14,4.736l-4.323-4.655C216.401,85.491,213.74,78.839,213.74,77.842z"/>
		<path fill="#E33F4C" d="M24.837,108.106c1.33,1.995,5.654,2.328,5.654,2.328l0.665,1.995c0,0,0,1.33,1.331,1.663
			c1.33,0.332,0.998,0.332,2.66-1.33c0.159-0.16,0.306-0.33,0.447-0.504c1.334-1.646,1.881-3.82,1.881-3.82s0-0.332,0.333-1.33
			c0.261-0.782-0.501-1.158-1.163-2.086c-0.182-0.255-0.357-0.549-0.5-0.907c-0.665-1.663-1.33-2.66-1.33-2.66
			s-2.66-0.333,1.664-0.333c0.94,0,1.829-0.032,2.651-0.082c2.185-0.131,3.866-0.386,4.595-0.511
			c0.126-0.027,0.259-0.052,0.402-0.072c0.856-0.122,1.667-0.244,2.35-0.351c0.2-0.096,0.412-0.199,0.643-0.314
			c4.656-2.328,6.984-5.321,6.984-5.321s0.333-1.662-0.998-1.995c-0.247-0.063-0.539-0.158-0.851-0.279
			c-1.374-0.535-3.14-1.569-3.14-2.382c0-0.998-0.333-2.328,1.995-3.325c2.328-0.998,1.995-1.663,4.656-2.329
			c2.661-0.664,5.322-2.992,5.322-2.992l0.333-3.659c0,0-0.998-2.992,0-3.325s0.997-0.998,2.328-0.998s0.666-1.33,4.657-0.665
			c3.991,0.665,5.653,0.665,6.651,0.665c0.998,0,1.996,0.665,2.993-1.995s1.663-6.984,2.993-6.984c1.33,0,0-1.995,2.993-0.665
			c0.739,0.329,1.275,0.841,1.664,1.425c1.185,1.778,0.997,4.229,0.997,4.229v0.998l1.331-2.993l-0.333-1.663v-4.988
			c0,0-0.333-0.665,0.666-3.991c0.304-1.014,0.702-2.184,1.154-3.328c-0.051,0.001-0.104,0.002-0.156,0.002
			c-1.663,0-1.663,0-2.328,1.996c0,0-1.331,1.33-4.656,0.998c-3.325-0.333,0,0,0.998-0.665c0.998-0.665-0.666-2.661-0.666-2.661
			s-1.996,0-5.321,0c-3.326,0-3.991,0-4.989-0.665c-0.998-0.665,1.33-0.665,2.661-2.993c1.33-2.328-1.663-1.331-2.661-3.326
			c-0.998-1.995-2.328,0.333-2.328,0.333l-5.654,0.333c0,0-2.328,0.664-7.649,2.327c-5.322,1.663,0,2.328,0,2.328
			s0.998,1.995,2.328,2.993c1.33,0.998,0,0,0.998,0.998c0.998,0.998-0.998,1.995-0.998,1.995s0,1.996-0.665,2.993
			c-0.665,0.998-1.663,1.996-2.661,3.326c-0.998,1.33-2.66,1.995-4.323,2.661c-1.663,0.664-2.994,1.995-5.322,3.325
			c-2.328,1.331-3.658,0.998-3.658,0.998l-0.333,3.325l-0.665,0.998l-1.996,2.66c0,0,0,3.326,0.665,4.323
			c0.665,0.998,0.665-0.997,2.661-1.329c1.995-0.333,2.328,0.332,4.323,1.329c1.996,0.998-2.66,2.328-2.66,2.328s0,1.996,0,3.991
			s2.993,2.993,2.993,2.993l-0.666,0.333c0,0-5.654,1.995-10.643,2.328c-4.988,0.332,0-1.33-0.665-5.321
			c-0.665-3.991-1.331,0-2.328,0c-0.998,0-3.658,0-5.322,0.998c-1.663,0.997,0,1.33,0,1.33s6.319,2.993,6.319,3.99
			c0,0.998-1.996,1.663-3.991,1.663c-1.995,0-2.66,0-4.323,0c-0.909,0-1.617,0-2.291,0l0.295,5.321
			C23.839,101.787,23.506,106.11,24.837,108.106z"/>
		<path fill="#E33F4C" d="M236.507,122.253c0.004-0.013,0.008-0.026,0.012-0.039C236.368,122.265,236.296,122.285,236.507,122.253z"
			/>
		<path fill="none" stroke="#E66A8C" stroke-width="0" stroke-linecap="round" stroke-linejoin="round" d="M246.001,182.604
			c0,0,0-0.094,0-0.105"/>
		<path fill="#E66A8C" d="M212.743,195.242l-1.663,1.995c0,0-0.998,1.33-1.995,3.658c-0.741,1.73-0.382,0.89-0.693,1.709
			c0.708-0.773,1.863-0.855,3.021-2.707c1.662-2.66,0.665-0.997,1.663-2.328c0.997-1.33,0.664-0.997,1.662-2.66
			s0.665-4.989,0.665-4.989v-2.328l-0.081-0.484c-0.082,0.958-0.247,2.292-0.584,4.476
			C214.073,195.906,212.743,195.242,212.743,195.242z"/>
		<path fill="#E66A8C" d="M193.786,186.595c-0.913-0.343-1.547-0.763-1.992-1.168c0.052,0.705-0.004,1.168-0.004,1.168
			s2.329,3.991,4.989,4.988c2.66,0.998,2.328-2.327,2.328-3.991c0-0.111,0.02-0.22,0.05-0.328c-0.563,0.23-1.048,0.328-1.048,0.328
			S196.446,187.592,193.786,186.595z"/>
		<path fill="#E66A8C" d="M142.569,147.351c-0.211,0.633-0.957,2.067-1.474,3.033l1.142-1.37c0,0,0.332-1.663,1.662-2.328
			C143.899,146.686,142.901,146.354,142.569,147.351z"/>
		<path fill="#E66A8C" d="M207.089,205.551c0,0-2.992,2.994-7.981,3.992l1.663-1.996l1.995-2.66l0.665-1.663
			c0,0,0.666-2.328,1.663-3.99c0.998-1.663,0.332-1.664,0.332-1.664l2.329-2.66c0,0,0.997-1.995,0.997-2.993s0-0.998,0-0.998
			l-0.665-1.33c0,0-1.321-1.322-2.375-2.594l1.045,2.926l-0.998,3.326l-4.655,5.654l-3.326,4.655l-0.665,1.331
			c0,0-2.993,2.993-4.989,4.988c-1.995,1.995-1.995,1.331-5.654,3.658c-3.658,2.327-0.665,1.995-0.665,1.995h3.658h2.328
			c0,0,0.666,0.666,1.663,0.666c0.998,0,5.321-0.333,5.321-0.333s3.326-1.995,5.654-2.993s0.665-0.333,0.665-0.333l1.663-3.325
			c0,0,0.665-2.328,0.998-4.988C206.424,207.548,207.089,205.551,207.089,205.551z"/>
		<path fill="#E66A8C" d="M244.005,170.299c-0.997,0-7.316-0.998-7.316-0.998s0,0-2.993,3.325c-2.993,3.326-3.326,1.996-3.326,1.996
			l-2.66-1.663c0,0-2.328-2.328-3.991-3.326c0,0-5.653-4.323-6.651-5.986c-0.997-1.663-2.661-3.991-2.661-3.991
			s1.331-1.329,2.993-1.329c1.663,0,0.998,1.329,0.998,1.329l3.991-0.664l-0.333-0.998l-2.992-2.66l-2.993-3.326l-4.324-1.331
			c0,0-1.663,0.333-3.99-0.332c0,0,1.662-0.998,2.327-1.995c0.666-0.998,1.663-2.328,1.663-2.328l0.998-2.993l-1.33-0.998
			l-1.996-0.665l-0.332,2.328l-2.993,1.995l-1.33,1.663l-1.663,4.656l-0.666,0.997L201.768,155l-2.328,5.653l-0.998,1.663
			c0,0-3.325,2.328-3.99,3.325c-0.666,0.998-1.33,0.998-2.661,2.994c-1.33,1.995-2.66,2.328-3.658,2.328
			c-0.997,0-1.33,1.33-1.33,1.33l1.996,0.998l1.995,1.662c0,0,1.996,0.998,3.326,2.661c1.33,1.662,1.995,1.33,3.325,2.993
			s2.66,2.328,3.326,4.323c0.089,0.269,0.102,0.51,0.065,0.731c1.179-0.596,2.683-0.913,3.593-0.731
			c0-0.997-0.665-2.993-0.665-3.991c0-0.997-1.331-3.658-2.328-3.658l-1.711-3.665c-0.095,0.002-0.191,0.007-0.285,0.007
			c-2.05,0-2.384,0.156-2.391,0.255l-2.598-3.248c0,0,1.663-4.656,4.323-5.653c2.661-0.998,4.989-1.996,6.319-1.996
			s3.991,2.66,5.986,3.658c1.996,0.998,8.647,3.659,9.978,4.656c1.33,0.998,9.645,4.323,9.645,4.323l-2.993,2.329
			c0,0,0,4.323,3.991,11.64c3.99,7.316,1.663,0.665,2.993,0.665s0.997,0.665,0.997,0.665s4.988,0,7.982-1.33
			c2.993-1.33,2.328-3.658,2.328-5.653c0-0.806,0-1.174,0-1.331l-5.654-9.645h1.663l5.653,0.333c0,0,0.803-0.806,1.67-1.902
			c-0.858-0.278-2.044-1.091-3.332-1.091C243.673,170.299,245.003,170.299,244.005,170.299z M242.342,181.273
			c2.328,0.666,1.331,1.33,1.331,1.33l-0.333,4.324h-2.993h-2.327h-1.664l-1.662-2.328v-4.323l2.328-0.333h1.33
			C238.352,179.943,240.015,180.608,242.342,181.273z"/>
		<path fill="#E66A8C" d="M204.672,172.959h3.415C207.206,172.665,206.001,172.762,204.672,172.959z"/>
		<path fill="#E66A8C" d="M214.004,176.121c-0.053-0.717-0.211-1.535-0.596-2.497c-1.331-3.326-3.326,0-5.321-0.665l1.995,0.665
			C210.082,173.624,212.683,175.026,214.004,176.121z"/>
		<path fill="#E66A8C" d="M236.507,122.253c-0.223,0.663-0.593,1.921-0.816,3.479c-0.332,2.328-0.332,2.661-1.33,3.991
			c-0.997,1.33-4.988,0.333-7.316-0.665s-1.995-0.333-1.995-0.333l-3.326,0.666l-1.995,6.651c0,0-0.665-0.998-3.658-3.991
			s-4.656-1.33-6.652-2.66c-1.995-1.33-1.33-3.659-1.662-7.317c-0.333-3.658-2.661-1.662-2.661-1.662s-2.661-2.993-2.661-3.991
			s-0.665-4.988-0.665-6.652c0-1.663-0.332-1.995-1.995-3.325s-0.998-1.33-0.998-1.33l-2.328-0.333c0,0,0.666-0.332,2.993-2.993
			c2.328-2.661,0.665-4.656,0.665-4.656s-3.658-0.332-4.988-0.665c-1.329-0.332-4.323-1.663-4.323-1.663s-1.663,0.666-3.658,0.666
			s-1.995,0.665-3.991,2.66c-1.995,1.995-2.993,1.663-5.654,0.998c-2.66-0.665-1.662-0.998-2.327-1.996
			c-0.665-0.997,0-1.995-0.333-5.653s-1.33-1.663-1.33-1.663s-4.656-0.332-8.979-0.998c-4.324-0.665-2.328-2.327-2.328-2.327
			l-4.988-1.331l-1.331,2.993c0,0,0,1.331,0,3.991s0.665,7.316,0.665,7.316s1.663,2.328,4.324,2.993
			c2.66,0.666,1.33,0.665,1.33,0.665s-0.666,3.326-0.998,5.654c-0.332,2.327,1.996,2.661,3.991,4.323
			c0.998,0.831,1.912,0.499,2.993-0.416v-0.249l1.222-0.916c0.498-0.508,1.037-1.074,1.635-1.667l0.137-0.41l1.663-2.993h1.046
			c-0.035-0.634-0.767-0.978-0.381-2.328c0.664-2.328,2.66-1.995,2.66-1.995s4.324,3.326,5.321,5.653
			c0.362,0.846-0.418,2.481-1.556,4.222c0.076,0.142,0.151,0.286,0.226,0.435c1.331,2.661-0.665,0.333-0.665,0.333s-0.03,0-0.08,0
			c-1.972,2.82-4.576,5.653-4.576,5.653s-0.475,0-1.474,0c-0.382,0.117-0.854,0-0.854,0c-1.238,0-2.993,0-5.321,0
			c-5.32,0-3.658,0-3.658-0.997c0-0.998,0-0.666,0-1.664c0-0.997-0.665-2.327-0.665-2.327l-2.328-0.998h-0.998l-3.658,2.993
			l-2.853,1.511c0.04,0.633-0.141,0.817-0.141,0.817l-1.921,1.921l2.586,4.398l-2.66,1.662l-1.601-0.771l-0.063,0.439
			c0,0-0.997,0-2.328-1.33c-0.22-0.22-0.458-0.42-0.702-0.604l-4.952-2.39l-4.323-1.663c0,0,0.665,4.323,0.665,5.32
			c0,0.998,1.331,1.996,1.331,1.996s1.663,7.316,1.663,8.979c0,0.34-0.115,0.637-0.292,0.896c0.89-0.282,0.857-0.996,1.956,0.103
			c0.196,0.197,0.401,0.465,0.606,0.77l1.721-1.435h4.323l0.665,0.998c0,0,1.331,0,3.991,0.997c2.661,0.998,0.333,2.66,0,3.991
			l-3.325-2.993l-1.331-0.333h-3.325c0,0-0.697,0.381-1.566,0.837c0.702,1.44,1.233,2.822,1.233,2.822l0.333,1.33l1.33,0.997
			l-0.998,1.996h-0.099c0.276,0.178,0.521,0.421,0.764,0.665c0.665,0.666,0.998,1.663,0.998,1.663v3.326l1.995,5.653l1.996,1.662
			c0,0,3.99,1.331,5.986,1.664c1.995,0.332,2.993,1.995,4.988,2.993c1.996,0.997,5.321,4.323,5.321,4.323l3.991,0.665
			c0,0,2.66,0.665,3.658,0.665s5.321,1.663,5.321,1.663c-2.993-4.657-1.662-3.658-1.662-3.658l3.658,0.665l-0.666-1.996v-2.327
			l-1.995-1.996l-2.993-4.656l-1.33,0.333c0,0-4.324,1.33-5.986,2.328c-1.663,0.998-1.996,1.995-3.658,1.995
			c-1.663,0-3.326-2.328-3.326-2.328l2.328-4.323l2.993-0.665c0,0,2.66-1.663,3.658-2.328c0.998-0.666,3.326-1.33,3.326-1.33
			l3.325-1.663c0,0,2.661-1.995,2.993-3.991h2.328l0.665-2.993l-1.662-0.998c0,0-0.998-0.332-5.654-1.663
			c-4.655-1.33-6.651-1.33-6.651-1.33v2.993l3.658-0.665c0,0-3.658,2.994-5.654,3.991c-1.995,0.998-1.662,0.998-1.662,0.998
			s-1.331,0.665-3.326,2.66c-1.996,1.995-2.328,0.665-3.326,0.665c-0.997,0-1.995-0.997-1.995-0.997v-5.986l0.998-1.996l1.995,1.33
			l2.328,0.333h2.661l1.33-0.333l0.665-0.332l1.33-0.333v-3.326c0,0-1.33,0-4.323-0.997c-2.993-0.998-1.331-0.665-1.331-0.665
			l0.333-2.328l-2.993-2.66l0.332-1.996l0.998-0.665l3.326-0.665c0,0,0,0,1.33-0.665c1.331-0.665,1.33-0.998,1.33-0.998
			s1.331-0.998,1.996-1.995c0.665-0.998,2.328-0.665,4.323-0.998s3.326-1.33,3.326-1.33l2.66-1.663h1.663l0.665,0.665
			c0,0,0.332,1.33,1.33,1.33l2.328-1.33l1.33-0.332v-0.666c0,0,0-1.662,0-2.993c0-1.33-0.332-1.33-0.665-2.66s0.998,0,0.998,0h2.328
			l1.663-0.665l-0.333-2.993l-0.997-1.33l-0.333-1.663v-1.331l2.328,2.328l0.998,0.666l1.662,1.995v0.997v0.998v0.998
			c0,0-0.333,3.991-0.665,4.988c-0.332,0.998-1.995,2.661-1.995,2.661l-0.665,1.663l1.995,0.997c0,0,5.653,2.328,7.649,2.328
			s5.321,1.995,5.321,1.995l2.66,1.663l1.996,1.663l0.332,1.663l1.663,2.328l1.663,5.653l0.997,0.998l2.994,0.998
			c0,0,0.997,0,2.993,0c1.995,0,2.328-0.665,2.328-0.665s0-2.994-0.333-5.322s1.663-2.66,1.663-2.66l4.988,2.328l1.663,0.998h3.658
			l1.995,0.665l1.331-1.331c0,0,2.327-5.986,3.325-5.986s2.661,0.333,2.661,0.333l1.33,2.993v2.993l-0.998,0.333l-0.997,2.993
			l0.332,2.661l1.995,2.66l0.666,0.998l0.665,5.32c0,0-0.998,0-2.328-0.664c-1.33-0.665-2.661-4.324-2.661-4.324v2.328l0.461,0.69
			l1.535,2.303c0,0,1.33,1.33,1.662,2.328c0.333,0.998,3.326,8.979,3.326,10.31c0,1.126-0.001,1.543-0.202,3.255
			c0.229-0.427,0.419-0.854,0.534-1.259c0.666-2.329,1.331-3.326,1.664-4.656s1.329-2.661,1.329-4.323c0-1.663,0-2.993,0-3.991
			s-1.662-2.993-1.662-2.993s-1.663-0.665-2.66-3.326c-0.998-2.661,0-1.33,0-3.325c0-1.996,0.997-3.659,0.997-4.657
			c0-0.382,0.1-0.716,0.332-1.02c0.375-0.488,1.099-0.898,2.329-1.308c1.995-0.665,1.995-2.328,0.997-5.654
			c-0.997-3.326,0.666-2.993,0.666-2.993l-0.666-1.995c0,0-4.323-3.991-6.318-4.656c-0.981-0.327-1.965-0.333-3.262-0.412
			c-1.342-0.082-3.02-0.242-5.386-0.918c-4.656-1.331-2.993,0-2.993,0s-0.067,0.169-0.17,0.472
			C236.515,122.227,236.511,122.24,236.507,122.253z"/>
		<path fill="#E66A8C" d="M93.68,190.586c-0.333,0.997-0.333,5.654-0.333,5.654v0.997l1.18,2.097c0.091-0.005,0.15-0.032,0.15-0.101
			l-0.332-0.998v-2.328l1.33-1.331l1.33-0.998c0,0,0.665-0.997,0.665-2.327c0-0.768,0.221-1.865,0.409-2.658
			c-1.841,0.683-3.402,0.995-3.402,0.995S94.012,189.588,93.68,190.586z"/>
		<path fill="#E66A8C" d="M146.893,144.689l-1.33-0.997l-0.333-1.33c0,0-0.531-1.382-1.233-2.822
			c-1.12,0.589-2.527,1.304-3.09,1.491c-0.998,0.333-2.661,0.998-2.661,0.998l-5.321,1.996l-1.995,1.662l0.333,4.656l-0.333,3.658
			h-5.322l1.331-4.656c0,0,1.331-2.992,1.663-3.99c0.332-0.998,1.33-1.996,1.33-1.996l6.651-4.656l1.331-0.665l4.656-0.333
			l0.274-0.228c-0.205-0.305-0.41-0.572-0.606-0.77c-1.098-1.099-1.066-0.385-1.956-0.103c-0.188,0.061-0.416,0.103-0.706,0.103
			c-1.664,0-2.661,0.665-4.324,0.665c-1.663,0-2.661,0.998-5.986,0.998c-3.325,0-2.661,3.658-2.661,5.321c0,0.559,0,0.851,0,0.997
			c0,0,0,0.045,0,0.132c0,0.253,0,0.873,0,1.864c0,1.33-0.998,1.33-0.998,1.33l-1.995,2.66c0,0-3.326,0.333-5.986-0.664v-0.998
			l0.998-2.993l1.331-1.663l2.66-1.995l2.328-2.329l1.996-1.33l0.998-1.995c0,0,0-2.661,0-3.991s0.998-1.662,0.998-1.662
			s2.328-0.666,3.991-1.331c1.663-0.665,2.661-5.321,0.998-6.651c0,0-3.326-4.988-4.323-5.986s-1.663-1.331-1.663-1.331
			l-4.989-4.322c0,0-1.995-0.666-3.658-2.328c-1.663-1.663,0,0-0.666-1.331c-0.666-1.33-1.663-2.993-1.663-2.993s0,0-0.665-2.993
			c-0.665-2.993-3.659-1.663-7.317,0.665c-3.658,2.329-2.328,0.998-2.328,0.998s-0.998-1.995-0.998-2.993s1.664-0.998,2.661-0.998
			s1.995,0.333,1.995,0.333s2.661-1.663,2.661-2.661c0-0.997,0-1.995,0-5.986c0-3.99-1.331-1.33-1.331-1.33s-1.996,0-6.984,0.665
			c-4.989,0.666-4.656,2.328-4.656,2.328s-1.663,2.328-1.995,3.658c-0.333,1.331-0.998,4.656-0.998,5.654
			c0,0.997-0.665,2.66-0.665,2.66l-2.661,2.328l-2.328,3.326l0.332,1.662l2.993,2.661c0,0,2.896,7.419,4.415,11.846l0.574-1.869
			l-1.33-3.99l-0.666-0.665c0,0-0.332-3.658-0.665-5.321c-0.333-1.663,0-1.33,0-1.33v-3.326v-3.991v-2.328l2.328-1.662l2.994,0.332
			l2.328,1.663l2.328,3.658l0.998,0.998l1.331,0.665l0.998-2.328v-1.33v-1.33h2.661l3.326,2.993l0.332,1.995l0.666,4.988
			l3.325,3.326l1.996,2.993l-3.325,0.998l-1.663,1.995L114.3,125.4l-1.331,1.663l-2.661,2.66l0.665,0.665l1.996-0.997l1.996,0.997
			l-2.661,1.663l-0.333,1.663v0.665l3.991,0.665l0.998-2.66l0.998-2.328l2.66,3.326c0,0,0.666-1.996,0.666-2.994
			c0-0.997-0.333-0.665-1.33-0.997c-0.998-0.332-0.665-0.998-0.665-0.998l-0.998-1.663h1.663c0,0,0.998-0.665,1.663-2.993
			c0.665-2.328,3.991-1.995,3.991-1.995v3.325l-0.998,3.658v1.996l-1.996,3.99l-2.993,2.329c0,0-2.328,2.66-3.325,3.657
			c-0.998,0.998-2.993,1.664-3.991,1.664c-0.998,0-1.331-1.996-1.331-1.996l-0.333-1.33l-1.663-2.661v-3.658c0,0,0,0-0.998-0.332
			c-0.998-0.332-3.326-1.663-3.326-1.663l-2.328,3.325l-0.666-1.33l-1.663-1.829c0,1.417,0,3.159,0,3.159l-0.333,2.328l-0.076,0.077
			l1.74,0.921c0,0,0.998-0.665,0.998,0.665c0,1.331,1.995,3.991-0.333,5.987c-1.095,0.938-2.26,2.169-3.191,3.212l-0.799,1.776
			l-2.994,5.321l2.661-3.326c0,0,3.326-1.995,5.322-2.993c1.995-0.998,2.66,0,2.66,0l1.331,0.998c0,0,0,2.66-0.665,5.321
			s-2.993,4.988-2.993,4.988s-1.331,0.998-2.993,1.996c-1.663,0.997-2.328,1.995-3.659,3.658l-1.65,2.476l0.985,1.183
			c0,0,0,0.16,0.06,0.431l0.938,0.234c0,0,0,0.75,0,1.642c0.26,0.33,0.584,0.674,0.998,1.02c1.995,1.662,4.989,4.655,4.989,4.655
			l0.989,1.131c0.335-0.296,0.674-0.466,0.674-0.466l1.996-0.665l1.995-1.33l1.996-2.328c0,0,1.996-3.326,2.328-4.323
			c0.333-0.998,0-0.998,0-0.998l1.996-2.328l0.998-1.995l-1.331-0.998l-1.33-2.661c0,0,0.998-2.66,0.998-4.322
			c0-1.663,0.332-0.666,0.332-0.666l0.666-0.997h2.328h2.328l0.998,0.665l0.998,0.998l0.998,0.997l0.666,0.998l0.998,1.995
			l1.663,1.996c0,0,0.998,1.662,2.661,3.325s0.998,0,0.998,0s3.326-1.663,5.321-2.328c1.996-0.665,1.663-2.328,1.663-2.328
			l-0.333-1.662l0.333-0.998c0,0,1.663-1.663,2.993-3.658c1.33-1.996,0.665-2.328,0.665-2.328s0.223-0.402,0.521-0.958
			c0.517-0.966,1.263-2.4,1.474-3.033c0.332-0.997,1.33-0.665,1.33-0.665h1.896h0.099L146.893,144.689z"/>
		<path fill="#E66A8C" d="M93.595,164.389l-2.908,1.586l0.333,1.663l1.996,0.665l3.053,0.764c-0.06-0.271-0.06-0.431-0.06-0.431
			l-0.985-1.183l-0.678-0.813C94.346,166.64,94.146,166.04,93.595,164.389z"/>
		<path fill="#E66A8C" d="M81.707,215.528c1.33,1.996,1.331,0.666,3.991,1.663c2.661,0.998,4.324-1.33,4.324-1.33l-1.663-2.66
			l-3.991,0.665l-2.661-2.66l-0.332-1.996l-2.993-2.66l-1.33-0.666l-0.998-1.33l-2.993-1.662l-1.996-3.658l-2.993-3.326
			l-1.663-0.665l-0.666-1.664l-1.33-1.995v-2.327v-2.993l3.326-1.996l0.333-0.997l-0.665-1.996l-0.998-3.325
			c0,0-0.666-5.654-0.998-6.652c-0.332-0.997-2.328-2.66-4.323-3.99c-1.996-1.33-2.994-3.659-2.994-3.659l-1.663-7.316l-3.658-4.323
			l-0.666-5.321l-1.995-6.652v-3.99l4.323-2.328c0,0,0-4.323,0-6.319c0-1.995-2.328-3.658-2.328-3.658l2.994-1.995l2.993,0.665
			l3.218,0.268c-0.35-1.036-0.558-1.931-0.558-1.931s0-3.658,0-6.984s0.998-0.332,2.661-1.33c1.663-0.997,5.986-2.661,6.984-2.661
			s2.328-0.664,2.328-0.664l3.326,1.662l2.993,2.993v1.331l1.331,5.321l0.831,0.831l-1.497,0.831l-0.998,0.998h2.328l1.663-0.333
			l1.663-0.332l1.169,0.658c0.042-0.233,0.095-0.46,0.161-0.658c0.333-0.998-0.332-1.663-0.332-1.663s-0.666-0.998-0.998-1.995
			c-0.332-0.998-0.666-1.663-1.663-3.326c-0.998-1.662-1.33-2.993-1.996-4.323c-0.665-1.331,0.666-4.989,0.666-4.989
			s2.661-1.33,4.989-3.658c2.328-2.327,2.993-2.328,4.323-3.99c1.33-1.663,1.331-1.996,1.331-1.996s0-4.323,0-5.321
			s-1.331-0.332-2.993-0.332c0,0-3.658,1.33-4.989,1.663s-5.321,0.332-6.984,0.332c0,0-4.324,0.665-7.317,0.665
			s-4.656,0.333-9.645,1.33c-4.988,0.998-4.324,1.331-7.649,3.326c-3.326,1.995-3.991,1.663-3.991,1.663s-0.798,0.133-1.973,0.314
			c-0.684,0.106-1.494,0.229-2.35,0.351c-0.143,0.021-0.276,0.045-0.402,0.072c-1.93,0.428-1.987,1.733-2.924,3.919
			c-0.998,2.328,0,2.328,0.666,3.99c0.666,1.664,1.995,0.998,1.995,0.998l0.666,1.663v1.663v0.665v1.33c0,0,0,2.993,0.333,4.323
			c0.333,1.331,0.665,1.663,0.665,1.663s0,2.328,0,4.323c0,1.996,0,5.321,0,6.319s0,3.658,0,7.316s0.333,4.989,0.998,8.314
			c0.665,3.326,2.328,4.656,2.661,5.654c0.332,0.998,2.661,2.993,3.326,4.323c0.14,0.279,0.355,0.604,0.606,0.952
			c0.95,1.313,2.457,2.985,2.72,4.037c0.13,0.52,0.311,1.294,0.483,2.044c0.268,1.169,0.515,2.279,0.515,2.279l0.333,2.66v2.661
			c0,0-0.665,2.328-0.998,4.656c-0.333,2.328,0,2.66,0,4.323s0,2.661,0,3.658c0,0.998,0,1.33,0,1.33l1.664,3.991
			c0,0,4.323,5.986,5.321,6.652c0.998,0.665,2.661,4.655,2.661,4.655s1.663,1.33,2.661,1.663c0.946,0.314,1.299,1.53,4.17,4.209
			c0.156,0.146,0.314,0.293,0.485,0.447c3.326,2.993,3.326,2.993,4.657,3.658C78.714,211.538,80.377,213.533,81.707,215.528z"/>
		<path fill="#E66A8C" d="M98.004,171.962c-0.414-0.346-0.738-0.689-0.998-1.02c0,0.68,0,1.441,0,2.017
			c0,1.331,0.333,1.663,0.333,1.663l0.998,2.66l-0.666,2.661c0,0-2.328,0-3.325-0.333c-0.998-0.333-2.993,0.333-2.993,0.333v3.658
			l1.995,3.99l-3.326,3.659l-1.995,2.66h-3.991v-1.995l2.328-0.998l1.33-0.998l-0.998-1.33l-3.658,0.998l-2.329,0.332l-3.325,0.666
			l-1.664,4.988l0.333,2.328l0.665,3.99l2.993,0.666l1.331-2.328l3.326-2.661h4.323l1.664,3.326l-0.998,1.33
			c0,0-2.993-0.665-4.656-0.665c-1.664,0-2.661,0.332-2.661,0.332v1.331l3.326,3.991l2.993,5.986c0,0,2.66-0.998,3.991-2.328
			s0-2.66,0-2.66s0-1.331,0-2.994c0-1.662,0.665-0.997,0.665-0.997s2.328,0,3.658-0.333c1.33-0.333-0.332-1.33-0.332-1.33
			l-1.814-3.225l-1.18-2.097v-0.997c0,0,0-4.657,0.333-5.654c0.332-0.998,0.998-0.998,0.998-0.998s1.561-0.313,3.402-0.995
			c1.45-0.537,3.075-1.305,4.248-2.33c2.661-2.328,2.993-6.984,2.993-6.984l-1.339-1.53l-0.989-1.131
			C102.993,176.617,99.999,173.624,98.004,171.962z"/>
		<path fill="#E66A8C" d="M99.999,137.373l0.998,4.989l-2.194,4.875c0.931-1.043,2.096-2.273,3.191-3.212
			c2.328-1.996,0.333-4.656,0.333-5.987c0-1.33-0.998-0.665-0.998-0.665l-1.74-0.921l-1.355-0.718L99.999,137.373z"/>
		<path fill="#E33F4C" d="M95.793,265.943c-0.051-0.013-0.106-0.026-0.167-0.042C95.682,265.916,95.738,265.931,95.793,265.943z"/>
		<path fill="#E33F4C" d="M117.293,263.753l2.328,2.993c0,0-0.998,0.333-2.661,1.33c-1.663,0.998-1.663,1.663-1.663,1.663
			l-1.989-1.988c-0.353,0.229-0.785,0.45-1.337,0.657c-2.66,0.998-2.328-1.662-2.328-1.662l-1.995-1.996l-5.986,0.333
			c0,0-2.049,0.205-4.214,0.444l-1.107,0.554l-0.666,0.998c-0.434-0.869-0.584-1.17-0.637-1.274
			c-0.833,0.103-1.557,0.198-2.024,0.276c-1.996,0.333-1.996,1.662-1.996,1.662l1.906,3.283l1.752,0.375c0,0,0-0.997,1.996,0
			c1.995,0.998,2.993,0.998,3.991,0.998c0.998,0,0.998,0,0.998,0h2.661c0,0,0.333,0,1.663,0c0.856,0,1.708,0.412,2.21,0.706
			c1.262,0.185,1.781,0.957,1.781,0.957s0.926,0.003,0.451,0.587c0.489,0.629,1.323,1.678,2.243,2.729
			c0.201-0.057,1.356-0.412,1.962-1.321c0.666-0.997,1.996-1.995,1.996-1.995h2.328c0,0,0.998,0.997,2.993,1.33
			c1.996,0.333,1.996,0.998,5.322,0.998c0.572,0,1.071,0,1.511,0c0.246-0.451,0.409-0.775,0.51-0.998h0.639
			c0,0,1.499-0.656,2.806-1.618c-1.115-0.296-1.808-0.709-1.808-0.709l-0.998-0.998c0,0,0.121-0.967,0.289-2.458
			c-1.158-0.127-2.633-0.375-3.947-0.868c-2.661-0.998-2.993-4.988-2.993-4.988s0-0.998,0-2.661c0-1.662-0.666-0.332-0.666-0.332
			l-3.991,0.332h-1.663c0,0-0.325,0.975-0.727,1.996h0.394L117.293,263.753z"/>
		<path fill="#E02D26" d="M198.109,273.065l2.994-4.324l-1.664,0.333l-2.327,1.995l-1.996,2.328c0,0-1.33,1.33-2.327,1.995
			c-0.999,0.665-1.663,0-5.322-0.665c-3.658-0.665-0.998,0-3.325,0c-2.328,0-1.33,0.665-1.33,0.665s-2.661,0.998-3.991,0.998
			c-1.331,0-2.661,0-4.656,0s-1.663,0-4.988,0c-3.326,0-1.996,0-4.989,0s-1.663,0.666-1.663,0.666s-0.998,1.329-2.66,3.325
			c-1.663,1.995-0.665,2.327-0.665,2.327s-1.663,0-4.323-0.332c-2.661-0.333-1.663,0-3.991-0.332s-0.998-0.333-1.996-1.663
			c-0.997-1.331,1.331-0.998,1.331-0.998l1.995-1.995l-0.998-2.328c0,0-0.997-0.998-1.995-0.998c-0.997,0-2.993,0.998-3.991,2.328
			c-0.997,1.33,0.665,1.995,0.665,1.995s1.331,0.998-1.33,0.998s-1.995-0.332-1.995-0.332s-1.663,0-3.326,0.332l0.998,0.998
			c0,0,0.665,0.665,2.993,1.995c0,0-0.997,0-2.328-0.332c-1.33-0.332-2.661,0-5.321-0.666c-2.661-0.665-1.33-0.665-1.33-0.665
			l-2.661-1.662l0.998-0.998l0.998-1.33l-1.996-0.333c0,0-0.688,0-2.812,0c-0.44,0-0.939,0-1.511,0
			c-3.326,0-3.326-0.665-5.322-0.998c-1.995-0.333-2.993-1.33-2.993-1.33h-2.328c0,0-1.33,0.998-1.996,1.995
			c-0.606,0.909-1.761,1.265-1.962,1.321c-0.019,0.006-0.033,0.01-0.033,0.01l-2.661-0.332l-3.658-0.999c0,0,2.328,0,3.658-0.997
			c0.217-0.163,0.357-0.297,0.451-0.411c0.476-0.584-0.451-0.587-0.451-0.587l-1.331-0.665c0,0-0.172-0.128-0.451-0.292
			c-0.501-0.294-1.354-0.706-2.21-0.706c-1.33,0-1.663,0-1.663,0h-2.661c0,0,0,0-0.998,0c-0.998,0-1.996,0-3.991-0.998
			c-1.996-0.997-1.996,0-1.996,0l-1.752-0.375l-2.903-0.622l-1.663-0.332l-1.664-1.664v-1.662l1.331-1.33l0.998-0.333
			c0,0,3.326,0,5.986,0.665c0,0,0.001,0.002,0.029,0.057c0.052,0.104,0.203,0.405,0.637,1.274l0.666-0.998l1.107-0.554l0.888-0.444
			c0,0,3.326-0.998,4.323-1.995c0.998-0.998,0.998-0.333,0.998-0.333h0.998h2.328l1.996-0.333l1.995-0.997l-0.333-0.998
			l-2.661-0.665h-1.33h-0.998l-2.993-0.665c0,0-1.33,0-2.661,0c-1.331,0-0.333-2.328-0.333-2.328s-4.656-0.998-6.651-1.33
			c-1.996-0.333-2.66-0.332-5.654-1.331c-2.993-0.997-1.663-0.665-1.663-0.665l-1.996-0.665l-3.325-0.997
			c0,0-5.986-2.993-8.647-3.991c-2.661-0.997-2.993-1.663-5.653-2.66c-2.661-0.998-1.996,0-1.996,0l-1.331-1.331h-1.663
			l-2.994-1.995l-0.665-3.658l0.998-0.998l2.661-0.997l-1.331-1.331l1.331-1.33l1.331,0.665h1.995h1.663l0.665-1.663h-2.993
			l-1.33-0.998l-0.998-0.997c0,0-0.998-0.665-1.996-0.998s-3.326-0.665-4.656-0.665l-0.665,0.998l-1.663,2.66l-0.998-1.33
			l-2.661-1.663l-1.663-1.663c0,0,0.333-0.997,0.666-1.995c0.332-0.997,0.665-0.333,0.998-1.33l-2.328-2.328
			c0,0-1.331-1.663-1.331-3.326s0-1.663,0-1.663s0-1.33,0-3.658s-0.998-0.332-0.998-0.332l-4.656-2.993l-1.33-0.998l-2.994-1.663
			l-2.328-0.665l-1.663-1.995l-0.665-1.995l-3.326-1.663h-0.998h-1.996l-3.991-3.991v3.325l0.665,1.663l0.666,0.666
			c0,0,1.33,0.997,3.326,2.327l0.666,0.665l1.663,3.326l1.995,2.66l3.658,3.991l0.666,1.33l0.998,0.998l0.998,3.658v0.998v2.66
			v1.331c0,0,1.33,1.663,2.661,1.995c1.33,0.333,0.998,0.665,0.998,0.665l1.331,0.665h0.998c0,0,0.998,0.333,1.995,0.333
			c0.998,0,3.658,2.328,3.658,2.328l0.998,0.665l2.661,1.995l1.996,1.331l1.995,1.995l0.333,3.325v2.328v1.663v1.597l-0.998,0.399
			l-1.663-0.666c0,0-1.331,0-3.991-1.995c-2.66-1.995-1.995-0.998-2.993-1.995c-0.998-0.999-0.666-0.333-0.666-0.333
			s-0.665-0.998-1.995-1.995c-1.331-0.998-1.996-1.33-3.991-3.659c-1.995-2.327,0-1.995,0-1.995s0-3.991-1.33-4.988l-0.997-0.665
			c0,0-1.996-1.33-3.659-1.996l-4.989,0.333v0.721c26.18,35.655,68.391,58.806,116.016,58.806c11.48,0,22.643-1.353,33.346-3.893
			c0.454-0.875,0.964-2.018,0.964-2.754c0-1.33,0.332-1.663,0.332-1.663l1.996-0.665h1.33l2.993,0.997l1.399,1.635
			c4.235-1.304,8.385-2.803,12.442-4.476C198.895,274.843,198.109,273.065,198.109,273.065z M95.625,265.901
			c0.062,0.016,0.116,0.029,0.167,0.042C95.738,265.931,95.682,265.916,95.625,265.901z M66.409,257.102l-2.993-0.333l-0.998-0.333
			l-0.998-0.997c0,0-1.663,0-3.659-1.331l0.666-2.327c0,0,0,0-0.998,0c-0.998,0-1.331-0.665-1.331-0.665l-0.665-0.666l0.647-1.188
			c0.69,0.09,1.617,0.189,2.346,0.189c1.331,0,2.661,0,2.661,0l1.995,2.661c0,0,0.998,1.33,2.994,3.326
			C68.072,257.434,66.409,257.102,66.409,257.102z"/>
		<path fill="#E02D26" d="M10.536,194.244c0.998-0.332,5.321-0.666,6.651-1.33c1.331-0.665-0.333-4.656-0.333-4.656l-1.995-1.663
			l-2.661-2.993c0,0-2.328-2.993-2.328-4.323s0-2.661-0.332-5.321c-0.333-2.661-1.664-1.995-1.664-1.995l-1.33-1.996
			c0,0,0-2.66,0-3.991c0-1.33-0.333-0.997-0.333-0.997l-3.991-0.998H1.409c1.487,10.617,4.131,20.861,7.805,30.604
			C10.081,192.971,9.639,194.543,10.536,194.244z"/>
		<path fill="#E02D26" d="M272.691,79.842c-1.174,1.712-2.08,2.988-2.08,2.988s-2.328,0-3.658,0s-0.666-0.665-1.663-1.995
			c-0.998-1.331-0.332-0.998-0.332-1.996c0-0.997-0.666-1.662-0.666-1.662l-1.663-0.665c0,0-2.327-2.661-2.992-3.659
			c-0.666-0.997-0.333-0.997-0.998-2.327s-1.995-1.331-2.993-1.995c-0.998-0.666-0.998-1.331-1.995-5.322c-0.998-3.99,0-1.33,0-1.33
			s0-3.658-1.331-3.991c0,0-2.66,1.331-4.656,1.331c-1.995,0-1.33-0.665-1.33-0.665s-0.997-0.998-1.33-1.996
			c-0.332-0.997-1.663-0.332-1.663-0.332h-0.998c0,0-1.995,0-2.993,0c-0.997,0-0.665-2.329-0.665-4.324s0-3.658,0-3.658
			s0-1.33-0.997-1.995c-0.998-0.665-1.331-0.665-1.331-0.665l-6.318-2.993l-3.658-1.331l-1.996-0.664l-0.665-1.996v-2.993
			l-0.664-0.998l-1.331-1.33c0,0-1.663-0.998-2.328-2.66c-0.666-1.663,0,0-0.998-0.333s-1.663,0-1.663,0h-5.986c0,0-0.997,0-2.66,0
			c0,0-2.993-1.663-3.99-1.663c-0.998,0-3.326-0.665-4.989-0.998c-1.662-0.332-4.656-0.997-4.656-0.997l-1.995-0.333
			c0,0-1.663-1.33-1.996-2.993s-1.33-1.663-1.33-1.663h-1.33c0,0-0.998,0-3.326-0.332c0,0,1.33-0.333,0.333-2.66
			c-0.998-2.328-0.665-0.666-2.661-0.666l-0.997-0.332l-3.326-2.993l-0.665-0.665h-2.328c0,0-1.33,0-3.658-1.663
			c-2.327-1.663-1.33-0.665-1.33-0.665s-1.331,0-2.661,0s-1.663,0-1.663,0s-3.325,0.332-4.988,0.665c-1.663,0.332,0,0.997,0,0.997
			v0.998l-3.658,1.331c0,0-3.658,0-5.321,0c-1.664,0-0.998,0-1.996,0c-0.997,0-0.997,1.329-0.997,1.329s-1.996,0.666-4.989,0.998
			c-2.993,0.332-2.993,0.998-4.656,1.996c-1.663,0.997-1.331,0-1.331,0l-2.66,0.665c0,0-2.328,1.33-3.326,2.327
			c0,0-0.998,1.664-3.325,2.328c-2.328,0.666-3.326-0.332-3.326-0.332l0.665-0.998c0,0,0-0.998-1.33-2.993c-1.33-1.995,0,0-1.995,0
			c-1.996,0-1.996,0.998-2.993,1.663c-0.998,0.666-3.991,2.993-5.321,3.658c-1.331,0.665-4.324,3.326-5.322,3.991
			s-3.658,0.665-6.651,0.665s-1.996-0.665-3.658-2.66c-1.663-1.996-1.331-0.998-1.331-0.998s-1.996,0-3.326,0
			c-1.331,0-0.998-0.333-2.328-0.333c-0.333,0-0.541,0-0.666,0c0,0-0.062,0-0.166,0c-0.508,0-2.113,0-3.492,0
			c-1.663,0-0.998,0.665-0.998,0.665s-5.321,3.659-11.308,5.654s-3.991,0.665-7.649,1.995c-3.658,1.331-1.996,1.331-1.996,1.331
			s-0.998,1.995-1.331,3.991c-0.333,1.995-1.663,3.658-3.658,5.653s-3.326-0.333-3.326-0.333l-0.998-0.332l-2.328,0.332
			l-3.659,3.658l-0.665,1.996c0,0-1.331,2.993-2.661,5.986s-1.331,2.993-4.324,4.656c-2.993,1.662-3.326,2.66-6.319,4.323
			s0,2.328,0,2.328l0.333,1.663c0,0-0.333,1.995-1.33,3.991c-0.998,1.995-2.993,0.664-4.989,0.664s-2.328,0-2.328,0l-1.995,5.654
			l-0.333,2.328l-1.663,3.658c0,0-1.996,2.661-2.993,3.991c-0.998,1.329-3.326,2.66-3.326,2.66s-1.663,2.661-2.993,3.991
			c-1.331,1.331-0.998,2.66-0.998,2.66s-0.665,5.322-1.995,9.313c-1.331,3.991-2.993,4.323-3.991,5.654
			c-0.998,1.33-0.666,1.995-0.998,3.325c-0.333,1.331,0,5.654-1.331,8.314s-2.328,7.981-4.656,9.978
			c-0.016,0.014-0.034,0.026-0.051,0.04C0.061,139.101,0,141.466,0,143.847c0,3.302,0.122,6.575,0.34,9.821
			c0.073,0,0.146,0.002,0.218,0.002c2.661,0,3.658-1.996,6.652,0c2.993,1.995,3.991,3.99,3.991,3.99s-0.333-2.327,0.998,0.666
			s2.661,6.318,2.661,6.318l1.663,3.991c0,0,0.998,2.328,2.993,2.328s1.663,0,3.658,0s3.991,0.332,3.991-0.665
			c0-0.998,0.998-1.331-0.665-4.657c-1.663-3.325-1.663-0.997-1.663-3.325s1.663-3.99,1.663-3.99s2.328-0.666,0.332-1.331
			c-1.995-0.665-2.993-2.328-3.991-2.328c-0.998,0-5.321-4.323-5.321-4.323s-1.663-1.662-3.326-2.993
			c-1.663-1.33-2.328-3.658-2.328-3.658s-0.998-1.995,0-2.328c0.998-0.333-1.33-0.665,3.659-1.995
			c4.989-1.331,7.649-3.326,8.646-4.324c0.998-0.998,1.996-1.995,0.998-3.99c-0.998-1.996-4.323-3.991-5.654-8.647
			s-1.996-4.656-3.326-8.647c-1.331-3.991-1.331-6.651-1.331-6.651l2.328-5.321l2.661-3.325c0,0,0.665-1.996,1.995-1.996
			c0.604,0,1.141,0,1.7,0c0.674,0,1.382,0,2.291,0c1.663,0,2.328,0,4.323,0c1.996,0,3.991-0.665,3.991-1.663
			c0-0.997-6.319-3.99-6.319-3.99s-1.663-0.333,0-1.33c1.664-0.998,4.324-0.998,5.322-0.998c0.998,0,1.663-3.991,2.328,0
			c0.665,3.991-4.324,5.653,0.665,5.321c4.989-0.333,10.643-2.328,10.643-2.328l0.666-0.333c0,0-2.993-0.998-2.993-2.993
			s0-3.991,0-3.991s4.656-1.33,2.66-2.328c-1.995-0.997-2.328-1.662-4.323-1.329c-1.996,0.332-1.996,2.327-2.661,1.329
			c-0.665-0.997-0.665-4.323-0.665-4.323l1.996-2.66l0.665-0.998l0.333-3.325c0,0,1.33,0.333,3.658-0.998
			c2.328-1.33,3.659-2.661,5.322-3.325c1.663-0.666,3.325-1.331,4.323-2.661c0.998-1.33,1.996-2.328,2.661-3.326
			c0.665-0.997,0.665-2.993,0.665-2.993s1.996-0.997,0.998-1.995c-0.998-0.998,0.333,0-0.998-0.998
			c-1.331-0.998-2.328-2.993-2.328-2.993s-5.322-0.665,0-2.328c5.321-1.663,7.649-2.327,7.649-2.327l5.654-0.333
			c0,0,1.33-2.328,2.328-0.333c0.998,1.995,3.991,0.998,2.661,3.326c-1.331,2.328-3.659,2.328-2.661,2.993
			c0.998,0.665,1.663,0.665,4.989,0.665c3.325,0,5.321,0,5.321,0s1.663,1.996,0.666,2.661c-0.998,0.665-4.323,0.332-0.998,0.665
			c3.326,0.332,4.656-0.998,4.656-0.998c0.665-1.996,0.666-1.996,2.328-1.996c0.052,0,0.105-0.001,0.156-0.002
			c1.629-0.021,3.502-0.382,3.502-1.993c0-1.663,2.328-2.993,0-3.326c-2.328-0.332-3.326,0.666-3.658-0.332
			c-0.333-0.997,1.33-3.658,1.33-3.658h1.663l6.984-3.325c0,0-2.661-0.333,1.663-1.331s6.651-1.663,6.651-1.663l1.995-0.997h1.664
			c0,0-0.333-2.66,3.325-3.991c3.659-1.33,3.658-1.663,4.989-1.995c1.331-0.333,3.991-0.666,3.991-0.666s3.991,0.334,4.989-0.332
			c0.998-0.665,2.993-0.998,3.991-0.998c0.998,0,4.324-0.665,4.324-0.665h3.518h0.141c0.246,0,0.873,0,2.328,0
			c3.326,0,5.654-0.665,5.654-0.665s1.662,0,2.993,0c1.33,0,5.986-0.665,5.986-0.665l2.328-0.998l1.995-0.665c0,0,0.001,0,2.328,0
			c2.328,0,1.996,0,4.656,0s1.663-0.333,4.988,0c3.326,0.332,7.649,1.663,7.649,1.663s-0.332-1.663,1.663,0
			c1.996,1.663,1.995,2.328,3.325,2.328c1.331,0,4.989,0,4.989,0s-0.997-0.998,0.665,0c1.663,0.997,4.656,1.663,4.656,1.663
			s1.33,1.663,3.991,2.993c2.66,1.33,4.988,2.66,4.988,2.66s-3.325-0.333,1.33,0.665c4.656,0.998,8.98,2.66,9.978,2.993
			c0.998,0.333,0.998,0.333,0.998,0.333l2.993,0.333c0,0,0.665,0,2.66,1.662c1.995,1.663,1.995,1.663,1.995,1.663l0.998,1.33
			c0,0,2.328,1.995,3.658,3.991c1.331,1.995,2.994,3.658,2.994,3.658s0.665,0,1.33,1.663s0.665,1.663,0.665,1.663
			s0.665,0.998,1.663,1.33s2.66,1.663,2.66,1.663l1.33,0.664c0,0-3.325-0.664,0.998,1.331s5.321,2.993,5.321,2.993l-2.993,1.996
			c-1.33-0.333-1.33-0.666-2.328-0.666s-3.658-0.997-3.658,0.666c0,1.662-1.996-1.331,0,2.66c1.995,3.99,3.99,6.651,3.99,6.651
			l0.666,0.998c0,0-3.658,1.33-4.988,1.33c-1.331,0-1.331,0-1.331,0s-0.997-0.333-1.663,1.663c-0.665,1.995-1.33,3.991-1.33,3.991
			v1.995l1.663,0.332c0,0-0.333-1.33,1.663,0c1.995,1.331,4.323,3.326,4.323,3.326l1.33,1.663c0,0,0.332,0.332,1.663,0.332
			c1.33,0,2.66,0,3.991,0c1.33,0,1.33,0,1.33,0s1.33-0.332,2.328-0.332s4.323,0,4.323,0h2.66c-1.662,2.66-2.327,2.66-2.327,5.653
			s-2.993,0.333,0,2.993c2.993,2.661,5.321,3.991,5.321,3.991l1.33,0.998c0,0,1.995,1.995,2.992,3.658
			c0.998,1.662,0.998-0.332,1.331,2.328s0.333,2.66,0.333,2.66s-3.991,0.665-4.656,1.663c-0.666,0.997-1.663,0.997-1.663,0.997
			l-0.998,0.333l-5.32,1.996c1.662,3.658,6.318,4.655,6.318,4.655c1.33,0.998,1.663,2.329,1.663,3.659c0,0.1,0,0.174,0,0.236
			c0,0.144,0,0.201,0,0.205c0,0.161,0,0.435,0,0.889c0,2.328-0.665,0.997,0.665,3.326c1.33,2.328,2.993,7.981,2.993,7.981
			c0,0.078,0,0.416,0,1.662c0,1.996-1.663,3.659-1.663,3.659s-0.665-2.993-0.665,0.998c0,0.32,0,0.634,0,0.943
			c0,3.557,0,6.373,0,6.373l1.996,2.993c0,0,0.044,0.089,0.129,0.26c0.153,0.307,0.441,0.883,0.868,1.735
			c0.407,0.814,0.938,1.999,1.288,2.799c0.223,0.507,0.375,0.86,0.375,0.86l2.328,5.653v2.993l-0.998,4.656c0,0,0.333-0.998,0,1.663
			c-0.332,2.66-0.665,2.993-1.33,4.655c-0.665,1.663,0,1.331-1.663,1.663c-1.663,0.333-0.333-0.332-2.328,0.333
			s-1.995,0.665-1.995,0.665l-1.996,2.328c0,0,0,0.332,0,2.66s0,3.659,0,5.321c0,1.663-0.665,4.989-0.665,4.989
			s-0.997,0.333-0.997,2.328s0,2.327,0,3.325c0,0.997,0,5.654,0,5.654c-0.998,0.332-2.994-0.665-5.322-1.331
			c-0.99-0.283-1.68-0.445-2.146-0.539c-0.628-0.125-0.848-0.125-0.848-0.125h0.22c0,0-1.882-1.331-1.882,1.33
			c0,2.66-0.665,3.658-0.665,4.656c0,0.997-0.665,1.995-0.665,1.995s2.327-0.666-0.998,0.332c-3.326,0.998-3.326,0.998-3.326,0.998
			s-0.664,1.663-0.997,3.659c-0.333,1.995,0,1.995-1.33,1.995c-1.331,0-2.994,0-2.994,0s-0.332,0.665-2.66,3.99
			c-2.328,3.326-4.323,3.991-4.323,3.991s-0.998,1.996-0.998,2.993c0,0.998,0.665,2.661-0.997,3.658
			c-1.663,0.998-4.989,2.328-4.989,2.328l-1.662,0.332l-1.664-0.664c0,0-0.998,1.33-0.998,2.327c0,0.998,0,0.665-1.995,3.658
			c-1.995,2.994-7.316,5.322-7.316,5.322l-0.666,0.332l-0.664,4.656l2.66,0.998c0,0,2.993,0.664,5.321,1.33
			c2.328,0.665,2.661-4.989,5.322,0.997c0.681,1.532,0.772,2.867,0.739,4.013c38.53-25.808,63.898-69.736,63.898-119.595
			C287.691,120.851,282.286,99.12,272.691,79.842z"/>
		<path fill="#A51E22" d="M4.882,126.73c1.331-2.66,0.998-6.983,1.331-8.314c0.333-1.33,0-1.995,0.998-3.325
			c0.998-1.331,2.66-1.663,3.991-5.654c1.331-3.99,1.995-9.313,1.995-9.313s-0.333-1.329,0.998-2.66
			c1.331-1.33,2.993-3.991,2.993-3.991s2.328-1.331,3.326-2.66c0.998-1.33,2.993-3.991,2.993-3.991l1.663-3.658l0.333-2.328
			l1.995-5.654c0,0,0.332,0,2.328,0s3.991,1.331,4.989-0.664c0.998-1.996,1.33-3.991,1.33-3.991l-0.333-1.663
			c0,0-2.993-0.665,0-2.328s3.326-2.661,6.319-4.323c2.993-1.663,2.994-1.663,4.324-4.656s2.661-5.986,2.661-5.986l0.665-1.996
			l3.659-3.658l2.328-0.332l0.998,0.332c0,0,1.33,2.328,3.326,0.333s3.326-3.658,3.658-5.653c0.333-1.996,1.331-3.991,1.331-3.991
			s-1.663,0,1.996-1.331c3.658-1.33,1.663,0,7.649-1.995s11.308-5.654,11.308-5.654s-0.665-0.665,0.998-0.665
			c1.379,0,2.984,0,3.492,0c0.104,0,0.166,0,0.166,0c0.125,0,0.333,0,0.666,0c1.33,0,0.997,0.333,2.328,0.333
			c1.33,0,3.326,0,3.326,0s-0.332-0.998,1.331,0.998c1.663,1.995,0.665,2.66,3.658,2.66s5.654,0,6.651-0.665
			s3.991-3.326,5.322-3.991c1.33-0.665,4.323-2.992,5.321-3.658c0.998-0.665,0.998-1.663,2.993-1.663c1.995,0,0.666-1.995,1.995,0
			c1.33,1.995,1.33,2.993,1.33,2.993l-0.665,0.998c0,0,0.999,0.998,3.326,0.332c2.328-0.664,3.325-2.328,3.325-2.328
			c0.998-0.997,3.326-2.327,3.326-2.327l2.66-0.665c0,0-0.332,0.997,1.331,0c1.663-0.998,1.663-1.664,4.656-1.996
			c2.993-0.332,4.989-0.998,4.989-0.998s0-1.329,0.997-1.329c0.998,0,0.332,0,1.996,0c1.663,0,5.321,0,5.321,0l3.658-1.331v-0.998
			c0,0-1.663-0.665,0-0.997c1.663-0.333,4.988-0.665,4.988-0.665s0.333,0,1.663,0s2.661,0,2.661,0s-0.997-0.998,1.33,0.665
			c2.328,1.663,3.658,1.663,3.658,1.663h2.328l0.665,0.665l3.326,2.993l0.997,0.332c1.996,0,1.663-1.662,2.661,0.666
			c0.997,2.327-0.333,2.66-0.333,2.66c2.328,0.332,3.326,0.332,3.326,0.332h1.33c0,0,0.997,0,1.33,1.663s1.996,2.993,1.996,2.993
			l1.995,0.333c0,0,2.994,0.665,4.656,0.997c1.663,0.333,3.991,0.998,4.989,0.998c0.997,0,3.99,1.663,3.99,1.663
			c1.663,0,2.66,0,2.66,0h5.986c0,0,0.665-0.333,1.663,0s0.332-1.33,0.998,0.333c0.665,1.662,2.328,2.66,2.328,2.66l1.331,1.33
			l0.664,0.998v2.993l0.665,1.996l1.996,0.664l3.658,1.331l6.318,2.993c0,0,0.333,0,1.331,0.665
			c0.997,0.665,0.997,1.995,0.997,1.995s0,1.663,0,3.658s-0.332,4.324,0.665,4.324c0.998,0,2.993,0,2.993,0h0.998
			c0,0,1.331-0.665,1.663,0.332c0.333,0.998,1.33,1.996,1.33,1.996s-0.665,0.665,1.33,0.665c1.996,0,4.656-1.331,4.656-1.331
			c1.331,0.333,1.331,3.991,1.331,3.991s-0.998-2.66,0,1.33c0.997,3.991,0.997,4.656,1.995,5.322
			c0.998,0.664,2.328,0.665,2.993,1.995s0.332,1.33,0.998,2.327c0.665,0.998,2.992,3.659,2.992,3.659l1.663,0.665
			c0,0,0.666,0.665,0.666,1.662c0,0.998-0.666,0.665,0.332,1.996c0.997,1.33,0.333,1.995,1.663,1.995s3.658,0,3.658,0
			s0.906-1.276,2.08-2.988c-17.91-35.983-50.439-63.405-89.822-74.48L181.148,8h-1.663c0,0-3.326,0-6.651,0
			c-3.326,0-1.996,0-5.986-0.665c-3.991-0.665-1.996-0.997-4.989-0.997s-2.993,0-2.993,0s-5.653,0-11.973,0c-6.319,0-2.66,0-6.984,0
			s-1.996,0.665-1.996,0.665l-0.333,1.663l-0.665,0.998l-2.661,0.332c0,0-0.998-1.33-1.996-1.996c-0.998-0.665-1.33,0-2.328,0
			c-0.998,0-1.996,0-3.658,0s-2.661,0-5.654,0c-2.993,0-4.323,0.998-6.984,0.998s-4.323,0.998-6.651,0.998s-2.661,1.663-4.324,1.663
			s-5.321,3.325-8.647,5.986c-3.326,2.661-2.66,1.662-4.323,2.66c-1.664,0.998-5.654,0.333-7.982,0.333c-2.328,0-3.991,0-3.991,0
			s-3.658,2.993-4.989,4.323c-1.33,1.33-2.66,2.993-4.656,5.321c-1.995,2.328-4.656,3.658-7.317,4.656
			c-2.661,0.997-3.991,2.66-6.319,3.658c-2.327,0.998-0.998,0.665-4.656,3.991c-3.659,3.325-3.325,4.988-5.321,6.983
			c-1.996,1.996-5.321,3.991-7.649,5.654s-4.989,5.986-4.989,5.986s-3.658,3.991-5.321,5.986c-1.663,1.995-0.998,1.995-0.998,1.995
			s-1.331,2.993-2.994,7.317c-1.663,4.323-1.663,5.653-3.659,7.981s-6.318,9.645-7.316,11.973c-0.998,2.329-2.328,4.989-3.326,7.982
			s-1.331,4.323-1.996,6.651s-0.333,2.66-1.663,9.313c-1.2,6.001-0.776,6.046-0.682,5.998l0.017-0.012c0,0-0.006,0.006-0.017,0.012
			l-3.055,2.114c-0.288,2.72-0.503,5.461-0.638,8.224c0.017-0.014,0.035-0.026,0.051-0.04C2.554,134.712,3.551,129.391,4.882,126.73
			z"/>
		<path fill="#5A1118" d="M4.55,120.412c1.33-6.652,0.998-6.984,1.663-9.313s0.998-3.658,1.996-6.651s2.328-5.653,3.326-7.982
			c0.998-2.328,5.321-9.645,7.316-11.973s1.996-3.658,3.659-7.981c1.663-4.324,2.994-7.317,2.994-7.317s-0.666,0,0.998-1.995
			c1.663-1.995,5.321-5.986,5.321-5.986s2.661-4.323,4.989-5.986s5.654-3.658,7.649-5.654c1.996-1.995,1.662-3.658,5.321-6.983
			c3.659-3.326,2.329-2.993,4.656-3.991c2.328-0.998,3.658-2.661,6.319-3.658c2.661-0.998,5.322-2.328,7.317-4.656
			c1.996-2.328,3.326-3.991,4.656-5.321c1.331-1.33,4.989-4.323,4.989-4.323s1.663,0,3.991,0c2.329,0,6.319,0.665,7.982-0.333
			c1.663-0.998,0.998,0.001,4.323-2.66c3.326-2.661,6.984-5.986,8.647-5.986s1.996-1.663,4.324-1.663s3.99-0.998,6.651-0.998
			S117.626,8,120.619,8c2.994,0,3.992,0,5.654,0s2.661,0,3.658,0c0.998,0,1.331-0.665,2.328,0c0.998,0.666,1.996,1.996,1.996,1.996
			l2.661-0.332l0.665-0.998l0.333-1.663c0,0-2.328-0.665,1.996-0.665s0.665,0,6.984,0c6.319,0,11.973,0,11.973,0s0,0,2.993,0
			s0.998,0.332,4.989,0.997C170.838,8,169.508,8,172.834,8c3.325,0,6.651,0,6.651,0h1.663l1.721-2.639
			C170.46,1.871,157.372,0,143.846,0C69.578,0,8.463,56.285,0.813,128.524l3.055-2.114C3.773,126.458,3.35,126.413,4.55,120.412z"/>
		<path fill="#5A1118" d="M3.868,126.41c0.01-0.006,0.017-0.012,0.017-0.012L3.868,126.41z"/>
		<path fill="#F04E28" d="M124.61,66.534l2.993,1.996l1.075-0.538l0.388-0.194l1.197-0.599h1.663c0,0-2.993,0.665-2.993,1.995
			c0,1.331-0.998,3.326-0.998,3.326l1.331,2.66c0,0,0-0.332,1.996,1.331c1.996,1.662,3.658,3.658,3.658,3.658l3.658,0.998
			l1.663,0.997l2.328,0.333c0,0-2.328-4.989-3.326-5.321c-0.998-0.333,0.333-0.333-0.998-0.333c-1.33,0-1.33,0-1.33,0l-0.666-1.995
			l1.663-2.328l1.663-1.33l0.665-0.998c0,0,3.325,2.66,1.33-0.998s-3.326-4.323-3.326-4.323s-0.332-0.333-1.996-0.998
			c-1.663-0.665-1.663-0.665-3.326-1.662c-1.663-0.998-2.328-2.329-2.328-2.329v-1.995c0,0,0.666,0.333,0.333-1.662
			c-0.333-1.996-3.658-4.989-3.658-4.989l-2.329,1.331l0.665,1.329l1.331,1.664l1.663,0.997l-2.328,1.663h-1.331l-1.663-0.998
			c0,0-1.331,1.331-1.331,2.328c0,0.998,0,2.993,0,2.993l0.998,1.663L124.61,66.534z"/>
		<path fill="#F04E28" d="M137.58,176.285l3.326,2.66v3.658l0.998-0.998v-2.66l1.33-1.663c0,0,0.998-0.997,2.66-0.997
			c1.663,0,2.329,0.665,5.321,0c2.757-0.613,1.003,0.184,2.527-0.466l-0.531-0.2h-0.665c0,0-2.661-0.332-4.323-0.665
			c-1.663-0.332,0,0-1.331-0.332c-1.33-0.333-4.988-2.66-7.649-4.656l-3.978-2.447l-4.669,0.119L137.58,176.285z"/>
		<path fill="#E33F4C" d="M146.893,174.622c1.331,0.332-0.332,0,1.331,0.332c1.662,0.333,4.323,0.665,4.323,0.665h0.665l0.531,0.2
			l2.129,0.798c0,0,0.333,0.333,1.331,0.333c0.997,0,1.662-0.332,2.66-0.665s3.326-2.661,3.326-2.661v-1.995
			c0,0,1.662-1.33-0.666-1.33s-2.66,0.997-3.658,0.332s0.665-0.665-2.328-1.995s-2.992-2.661-4.323-2.661c-1.33,0-3.658,0-3.658,0
			s0,0-1.33,0c-1.331,0-4.656,0-4.656,0s0,0-2.993,0c-2.994,0-4.656,0-4.656,0h-1.331l1.331,1.331l0.346,0.213l3.978,2.447
			C141.904,171.962,145.563,174.289,146.893,174.622z"/>
		<path fill="#E33F4C" d="M120.952,230.827c-0.743-0.247-3.697-2.153-5.158-3.111c-0.502-0.329-0.828-0.547-0.828-0.547
			s-0.665-0.665-2.661-0.665s-4.988,1.996-4.988,1.996l-1.664,0.665l-5.321-1.996h-0.666l2.55,2.55l0.776,0.776l3.991,2.328
			c0,0,1.331,0.333,2.993,0.997c1.663,0.665,2.993,0.665,2.993,0.665l0.998-2.66c0,0,0.666-1.663,2.328,0s1.663,1.663,1.663,1.663
			l1.331,1.663c0,0-1.996,0,1.995,0.332c3.991,0.333,3.326-0.998,5.654,0.333c2.328,1.33-1.33,1.662,3.326,1.662
			c4.656,0,7.649,0,7.649,0h1.331l0.333-3.658c0,0-1.996-2.328-3.991-2.328c-1.996,0-6.319,0-7.316,0
			c-0.134,0-0.35-0.006-0.618-0.018c-1.292-0.054-3.893-0.227-5.496-0.431C121.608,230.974,121.171,230.901,120.952,230.827z"/>
		<path fill="#F386A4" d="M247.663,155.665c-0.332-0.998-1.662-2.328-1.662-2.328l-1.535-2.303l-0.461-0.69v-2.328
			c0,0,1.331,3.659,2.661,4.324c1.33,0.664,2.328,0.664,2.328,0.664l-0.665-5.32l-0.666-0.998l-1.995-2.66l-0.332-2.661l0.997-2.993
			l0.998-0.333v-2.993l-1.33-2.993c0,0-1.663-0.333-2.661-0.333s-3.325,5.986-3.325,5.986l-1.331,1.331l-1.995-0.665h-3.658
			l-1.663-0.998l-4.988-2.328c0,0-1.996,0.332-1.663,2.66s0.333,5.322,0.333,5.322s-0.333,0.665-2.328,0.665
			c-1.996,0-2.993,0-2.993,0l-2.994-0.998l-0.997-0.998l-1.663-5.653l-1.663-2.328l-0.332-1.663l-1.996-1.663l-2.66-1.663
			c0,0-3.325-1.995-5.321-1.995s-7.649-2.328-7.649-2.328l-1.995-0.997l0.665-1.663c0,0,1.663-1.663,1.995-2.661
			c0.332-0.997,0.665-4.988,0.665-4.988v-0.998v-0.998V111.1l-1.662-1.995l-0.998-0.666l-2.328-2.328v1.331l0.333,1.663l0.997,1.33
			l0.333,2.993l-1.663,0.665h-2.328c0,0-1.331-1.33-0.998,0s0.665,1.33,0.665,2.66c0,1.331,0,2.993,0,2.993v0.666l-1.33,0.332
			l-2.328,1.33c-0.998,0-1.33-1.33-1.33-1.33l-0.665-0.665h-1.663l-2.66,1.663c0,0-1.331,0.997-3.326,1.33s-3.658,0-4.323,0.998
			c-0.665,0.997-1.996,1.995-1.996,1.995s0.001,0.333-1.33,0.998c-1.33,0.665-1.33,0.665-1.33,0.665l-3.326,0.665l-0.998,0.665
			l-0.332,1.996l2.993,2.66l-0.333,2.328c0,0-1.662-0.333,1.331,0.665c2.993,0.997,4.323,0.997,4.323,0.997v3.326l-1.33,0.333
			l-0.665,0.332l-1.33,0.333h-2.661l-2.328-0.333l-1.995-1.33l-0.998,1.996v5.986c0,0,0.998,0.997,1.995,0.997
			c0.998,0,1.33,1.33,3.326-0.665c1.995-1.995,3.326-2.66,3.326-2.66s-0.333,0,1.662-0.998c1.996-0.997,5.654-3.991,5.654-3.991
			l-3.658,0.665v-2.993c0,0,1.996,0,6.651,1.33c4.656,1.331,5.654,1.663,5.654,1.663l1.662,0.998l-0.665,2.993h-2.328
			c-0.332,1.996-2.993,3.991-2.993,3.991l-3.325,1.663c0,0-2.328,0.664-3.326,1.33c-0.998,0.665-3.658,2.328-3.658,2.328
			l-2.993,0.665l-2.328,4.323c0,0,1.663,2.328,3.326,2.328c1.662,0,1.995-0.997,3.658-1.995c1.662-0.998,5.986-2.328,5.986-2.328
			l1.33-0.333l2.993,4.656l1.995,1.996v2.327l0.666,1.996l-3.658-0.665c0,0-1.331-0.999,1.662,3.658
			c2.993,4.656,4.988,6.983,4.988,6.983c1.331,0.998,4.989,5.322,4.989,5.322s0.147,0.718,1.001,1.492
			c0.445,0.405,1.079,0.825,1.992,1.168c2.66,0.997,4.323,0.997,4.323,0.997s0.485-0.098,1.048-0.328
			c0.713-0.293,1.546-0.802,1.679-1.601c0.036-0.222,0.023-0.463-0.065-0.731c-0.666-1.995-1.996-2.66-3.326-4.323
			s-1.995-1.331-3.325-2.993c-1.33-1.663-3.326-2.661-3.326-2.661l-1.995-1.662l-1.996-0.998c0,0,0.333-1.33,1.33-1.33
			c0.998,0,2.328-0.333,3.658-2.328c1.331-1.996,1.995-1.996,2.661-2.994c0.665-0.997,3.99-3.325,3.99-3.325l0.998-1.663
			l2.328-5.653l0.665-1.996l0.666-0.997l1.663-4.656l1.33-1.663l2.993-1.995l0.332-2.328l1.996,0.665l1.33,0.998l-0.998,2.993
			c0,0-0.997,1.33-1.663,2.328c-0.665,0.997-2.327,1.995-2.327,1.995c2.327,0.665,3.99,0.332,3.99,0.332l4.324,1.331l2.993,3.326
			l2.992,2.66l0.333,0.998l-3.991,0.664c0,0,0.665-1.329-0.998-1.329c-1.662,0-2.993,1.329-2.993,1.329s1.664,2.328,2.661,3.991
			c0.998,1.663,6.651,5.986,6.651,5.986c1.663,0.998,3.991,3.326,3.991,3.326l2.66,1.663c0,0,0.333,1.33,3.326-1.996
			c2.993-3.325,2.993-3.325,2.993-3.325s6.319,0.998,7.316,0.998c0.998,0-0.332,0,1.996,0c1.288,0,2.474,0.813,3.332,1.091
			c0.693,0.224,1.176,0.098,1.323-1.091c0.052-0.409,0.094-0.759,0.131-1.069c0.201-1.712,0.202-2.129,0.202-3.255
			C250.989,164.645,247.996,156.663,247.663,155.665z M243.34,160.653l-1.33-0.998l-3.326-3.657l-1.995-1.331
			c0,0-2.66-0.665-3.658-0.665s0.665,3.326,0.665,3.326v5.321l-2.328,1.33l-2.993-2.328v-2.66l-0.665-5.654l0.997-0.333l1.996-0.664
			l2.328-2.328l2.993-0.998l2.66,2.328l2.994,2.993l2.66,3.991L243.34,160.653z"/>
		<path fill="#F386A4" d="M82.04,203.224v-1.331c0,0,0.997-0.332,2.661-0.332c1.663,0,4.656,0.665,4.656,0.665l0.998-1.33
			l-1.664-3.326h-4.323l-3.326,2.661l-1.331,2.328l-2.993-0.666l-0.665-3.99l-0.333-2.328l1.664-4.988l3.325-0.666l2.329-0.332
			l3.658-0.998l0.998,1.33l-1.33,0.998l-2.328,0.998v1.995h3.991l1.995-2.66l3.326-3.659l-1.995-3.99v-3.658
			c0,0,1.995-0.666,2.993-0.333c0.998,0.333,3.325,0.333,3.325,0.333l0.666-2.661l-0.998-2.66c0,0-0.333-0.332-0.333-1.663
			c0-0.575,0-1.337,0-2.017c0-0.892,0-1.642,0-1.642l-0.938-0.234l-3.053-0.764l-1.996-0.665l-0.333-1.663l2.908-1.586l0.751-0.409
			v-2.66v-3.991l0.665-2.993l2.994-5.321l0.799-1.776l2.194-4.875l-0.998-4.989l-1.764-1.639l-2.892-2.685l-2.661-4.656
			l-2.993-2.993l-4.152-2.335l-1.169-0.658l-1.663,0.332l-1.663,0.333h-2.328h-1.33c0,0-3.659,0-4.989,0c-1.331,0-3.659,0-3.659,0
			l-2.993,0.665l-2.661-0.998h-0.998l-0.773-0.064l-3.218-0.268l-2.993-0.665l-2.994,1.995c0,0,2.328,1.663,2.328,3.658
			c0,1.996,0,6.319,0,6.319l-4.323,2.328v3.99l1.995,6.652l0.666,5.321l3.658,4.323l1.663,7.316c0,0,0.998,2.329,2.994,3.659
			c1.995,1.33,3.991,2.993,4.323,3.99c0.333,0.998,0.998,6.652,0.998,6.652l0.998,3.325l0.665,1.996l-0.333,0.997l-3.326,1.996
			v2.993v2.327l1.33,1.995l0.666,1.664l1.663,0.665l2.993,3.326l1.996,3.658l2.993,1.662l0.998,1.33l1.33,0.666l2.993,2.66
			l0.332,1.996l2.661,2.66l3.991-0.665l-2.993-5.986L82.04,203.224z M71.73,178.28c0,0-0.665-1.663-1.33-2.993
			c0,0-1.995-7.981-2.328-8.979c-0.333-0.998-3.658-3.658-3.658-3.658h-0.998l-1.331-3.658l-0.998-0.665l-3.658-6.652l-0.998-2.66
			l-0.666-2.66l-1.995-2.661v-2.661l2.993-3.326l1.663-0.332l1.995-1.33l2.328-3.991l2.661-1.995h2.328l1.995,1.995l-0.665,1.331
			l-1.33,3.99h2.993h1.996h0.998l0.998-0.665v-1.996l3.659-2.66h1.663l3.326,0.665l7.649,0.666l3.991,3.658l1.663,4.655
			l-2.993,4.989l-2.993,5.654c0,0-0.998,4.655-1.663,7.315c-0.665,2.661-1.663,3.991-1.996,6.984
			c-0.333,2.993-1.331,3.991-1.663,5.654c-0.333,1.663,0,4.988,0,4.988s-1.664,1.663-3.326,2.661c-1.663,0.997-3.991,0-4.988,0
			c-0.998,0-2.994-0.665-2.994-0.665L71.73,178.28z"/>
		<path fill="#F1AACB" d="M82.04,179.943c1.663-0.998,3.326-2.661,3.326-2.661s-0.333-3.325,0-4.988
			c0.332-1.663,1.33-2.661,1.663-5.654c0.333-2.993,1.331-4.323,1.996-6.984c0.665-2.66,1.663-7.315,1.663-7.315l2.993-5.654
			l2.993-4.989l-1.663-4.655l-3.991-3.658l-7.649-0.666l-3.326-0.665h-1.663l-3.659,2.66v1.996l-0.998,0.665h-0.998h-1.996h-2.993
			l1.33-3.99l0.665-1.331l-1.995-1.995h-2.328l-2.661,1.995l-2.328,3.991l-1.995,1.33l-1.663,0.332l-2.993,3.326v2.661l1.995,2.661
			l0.666,2.66l0.998,2.66l3.658,6.652l0.998,0.665l1.331,3.658h0.998c0,0,3.326,2.66,3.658,3.658
			c0.333,0.998,2.328,8.979,2.328,8.979c0.665,1.33,1.33,2.993,1.33,2.993l2.328,0.998c0,0,1.996,0.665,2.994,0.665
			C78.049,179.943,80.377,180.94,82.04,179.943z"/>
		<path fill="#F1AACB" d="M238.684,151.342l-2.66-2.328l-2.993,0.998l-2.328,2.328l-1.996,0.664l-0.997,0.333l0.665,5.654v2.66
			l2.993,2.328l2.328-1.33v-5.321c0,0-1.663-3.326-0.665-3.326s3.658,0.665,3.658,0.665l1.995,1.331l3.326,3.657l1.33,0.998
			l0.998-2.327l-2.66-3.991L238.684,151.342z"/>
		<path fill="#F386A4" d="M102.328,134.047l2.328-3.325c0,0,2.328,1.331,3.326,1.663c0.998,0.332,0.998,0.332,0.998,0.332v3.658
			l1.663,2.661l0.333,1.33c0,0,0.333,1.996,1.331,1.996c0.998,0,2.993-0.666,3.991-1.664c0.998-0.997,3.325-3.657,3.325-3.657
			l2.993-2.329l1.996-3.99v-1.996l0.998-3.658v-3.325c0,0-3.326-0.333-3.991,1.995c-0.665,2.328-1.663,2.993-1.663,2.993h-1.663
			l0.998,1.663c0,0-0.333,0.666,0.665,0.998c0.998,0.332,1.33,0,1.33,0.997c0,0.998-0.666,2.994-0.666,2.994l-2.66-3.326
			l-0.998,2.328l-0.998,2.66l-3.991-0.665v-0.665l0.333-1.663l2.661-1.663l-1.996-0.997l-1.996,0.997l-0.665-0.665l2.661-2.66
			l1.331-1.663l3.326-1.663l1.663-1.995l3.325-0.998l-1.996-2.993l-3.325-3.326l-0.666-4.988l-0.332-1.995l-3.326-2.993h-2.661v1.33
			v1.33l-0.998,2.328l-1.331-0.665l-0.998-0.998l-2.328-3.658l-2.328-1.663l-2.994-0.332l-2.328,1.662v2.328v3.991v3.326
			c0,0-0.333-0.333,0,1.33c0.333,1.663,0.665,5.321,0.665,5.321l0.666,0.665l1.33,3.99l-0.574,1.869l-0.756,2.455l1.663,1.829
			l1.663,1.829L102.328,134.047z"/>
		<path fill="#F386A4" d="M137.913,138.038l-1.331,0.665l-6.651,4.656c0,0-0.998,0.998-1.33,1.996
			c-0.333,0.998-1.663,3.99-1.663,3.99l-1.331,4.656h5.322l0.333-3.658l-0.333-4.656l1.995-1.662l5.321-1.996
			c0,0,1.663-0.665,2.661-0.998c0.563-0.188,1.97-0.902,3.09-1.491c0.869-0.456,1.566-0.837,1.566-0.837h3.325l1.331,0.333
			l3.325,2.993c0.333-1.331,2.661-2.993,0-3.991c-2.66-0.997-3.991-0.997-3.991-0.997l-0.665-0.998h-4.323l-1.721,1.435
			l-0.274,0.228L137.913,138.038z"/>
		<path fill="#F386A4" d="M203.764,180.94c0,0.998,0.665,2.994,0.665,3.991c0,0.397,0.583,1.219,1.283,2.063
			c1.054,1.271,2.375,2.594,2.375,2.594l0.665,1.33c0,0,0,0,0,0.998s-0.997,2.993-0.997,2.993l-2.329,2.66
			c0,0,0.666,0.001-0.332,1.664c-0.997,1.662-1.663,3.99-1.663,3.99l-0.665,1.663l-1.995,2.66l-1.663,1.996
			c4.989-0.998,7.981-3.992,7.981-3.992s-0.665,1.997,0.666-1.329c0.341-0.854,0.528-1.334,0.637-1.617
			c0.312-0.819-0.048,0.021,0.693-1.709c0.997-2.328,1.995-3.658,1.995-3.658l1.663-1.995c0,0,1.33,0.664,1.995-3.659
			c0.337-2.184,0.502-3.518,0.584-4.476c0.081-0.939,0.081-1.517,0.081-2.176c0-1.33,0-3.658,0-4.655
			c0-0.998-0.332-2.328-0.665-3.326c-0.074-0.224-0.354-0.515-0.734-0.829c-1.321-1.095-3.922-2.497-3.922-2.497l-1.995-0.665
			h-3.415h-1.573l-3.991-0.665l0.617,1.323l1.711,3.665C202.433,177.282,203.764,179.943,203.764,180.94z"/>
		<path fill="#F386A4" d="M237.021,179.943l-2.328,0.333v4.323l1.662,2.328h1.664h2.327h2.993l0.333-4.324
			c0,0,0.997-0.664-1.331-1.33c-2.327-0.665-3.99-1.33-3.99-1.33H237.021z"/>
		<path fill="none" stroke="#F04E28" stroke-width="0" stroke-linecap="round" stroke-linejoin="round" d="M178.487,189.92
			c0,0-0.047,0-0.053,0"/>
		<path fill="#F04E28" d="M183.144,180.608c-1.663-1.996-1.663-2.66-3.658-2.66c-1.996,0-4.323,1.662-4.323,1.662l-0.666,4.656
			l1.331,3.325l2.66,2.328c0.078,0,0.263,0,0.666,0c0.997,0,0.997,0,0.997,0l1.995-0.664l1.663-1.996l1.663-1.663
			C185.472,185.597,184.807,182.604,183.144,180.608z"/>
		<path fill="none" stroke="#F04E28" stroke-width="0" stroke-linecap="round" stroke-linejoin="round" d="M140.574,187.925
			c0.285,0,0.486,0,0.464,0"/>
		<path fill="#F04E28" d="M131.927,187.592l-2.328,0.666c0,0-1.33,1.663-2.661,0s-2.993-2.993-2.993-2.993h-1.663l-0.333,2.327
			l2.993,2.661c0,0,0,0,1.663,1.663c1.663,1.662,2.993,1.995,2.993,1.995l1.995-0.997l0.333-2.661l0.998-1.663l1.663-0.665h2.661
			h1.663c0,0,1.037,0,1.663,0c-1.663,0-4.989-0.997-4.989-0.997L131.927,187.592z"/>
		<path fill="#F04E28" d="M151.881,194.909c1.331,0,3.326,0,3.326,0h1.33l1.663-1.663l-3.991-0.665h-0.997l-1.996-1.33l-0.997-1.663
			c0,0-0.665-1.663-1.995-1.663c-1.331,0-6.319-0.997-6.319-0.997h-1.663l6.984,2.992l0.998,0.666l0.664,0.665v2.993
			C148.888,194.244,150.551,194.909,151.881,194.909z"/>
		<path fill="#E33F4C" d="M149.221,125.4l0.063-0.439l0.603-4.217l1.072-1.072l1.921-1.921c0,0,0.181-0.185,0.141-0.817
			c-0.014-0.224-0.054-0.499-0.141-0.846c-0.332-1.33-0.998-3.325-0.998-3.325l-0.665-0.998l-0.665-1.33
			c0,0,0.333,4.655-0.665-0.666c-0.998-5.32-1.33-5.986-0.998-6.983c0.333-0.998,1.996-0.998,0.333-0.998s-7.316,1.33-7.316,1.33
			s-0.333,0-0.333,1.663s0.666,3.326,0.666,3.326s0,0.665,0,1.662c0,0.998-0.666,2.994-0.666,2.994s-0.998-0.665-0.998,0.665
			s0,1.662,1.664,2.327c1.662,0.666,1.33,0.666,2.992,0.666c1.663,0,2.994-0.333,2.994-0.333s0.997-1.33,0.997,0
			c0,1.331,0.665-0.332,0,1.331c-0.665,1.662-0.665,1.662-0.665,1.662s-0.998,0.333-2.328,0.333s-1.33,0-1.33,0l-1.331,2.66
			c0,0,1.391,0.466,2.624,1.393c0.244,0.184,0.482,0.384,0.702,0.604C148.224,125.4,149.221,125.4,149.221,125.4z"/>
		<polygon fill="#E33F4C" points="156.87,107.773 155.539,109.769 159.53,110.767 160.195,110.435 161.193,108.771 157.867,107.773 
					"/>
		<path fill="#E33F4C" d="M173.355,118.416c0.259-0.078,0.476-0.263,0.476-0.665c0-0.998,0.998-4.988,0.998-4.988s0.001,0,1.33,0
			c1.175,0,2.865,0,3.246,0c0.05,0,0.08,0,0.08,0s1.996,2.328,0.665-0.333c-0.074-0.148-0.149-0.293-0.226-0.435
			c-1.285-2.405-2.768-3.889-2.768-3.889l-2.328-1.663h-0.949h-1.046l-1.663,2.993l-0.137,0.41l-0.196,0.588l-1.438,1.079
			l-1.222,0.916v0.249v1.414l1.663,2.328l2.66,1.995C172.501,118.416,172.974,118.533,173.355,118.416z"/>
		<path fill="#E02D26" d="M113.303,267.743l0.006,0.008l1.989,1.988c0,0,0-0.665,1.663-1.663c1.663-0.997,2.661-1.33,2.661-1.33
			l-2.328-2.993l-0.666-0.665h-0.394h-1.602l-3.658-1.663l0.333,3.991L113.303,267.743z"/>
		<path fill="#E02D26" d="M130.929,273.065c0,0,0.693,0.413,1.808,0.709c0.615,0.161,1.355,0.288,2.183,0.288
			c2.328,0,1.663-0.664,4.989-0.997c3.326-0.333,4.324-0.998,5.321-3.659c0.998-2.66,1.996-4.323,1.996-4.323
			s0.332-2.327-1.331-2.993c-1.662-0.665-2.66-1.663-3.657-1.33c-0.999,0.332-3.659,2.993-3.659,2.993s0.333,0.997-2.661,0
			c-2.993-0.998-4.988-2.993-4.988-2.993s-0.333-1.331-0.998,0c-0.665,1.33-1.995,3.325-0.665,4.323l1.33,0.998
			c-0.132,1.325-0.265,2.541-0.376,3.528c-0.168,1.491-0.289,2.458-0.289,2.458L130.929,273.065z"/>
		<path fill="#F1635E" d="M192.123,251.447c-1.662-1.663-1.663-1.996-1.995-3.658c-0.332-1.663-3.326-1.996-3.326-1.996
			l-1.995,2.994l0.333,2.66l-0.333,0.997c0,0-1.663,1.996-2.661,2.994c-0.997,0.997-1.33,1.995-3.325,3.658h-3.658l-1.996,1.995
			l-1.995,0.333c0,0,0,0.997,0,2.992c0,1.996,2.66,2.662,3.658,2.662s3.658,0,4.988-0.333c1.331-0.333,4.989-0.998,7.649-1.663
			s4.656-1.663,6.984-3.658c2.328-1.996,1.33-3.326,0.997-5.321C195.116,254.107,193.786,253.11,192.123,251.447z"/>
		<path fill="#E66A8C" d="M101.662,213.866c-1.664-2.328-0.998,0-0.998,0l-4.323,2.328l-1.331,0.332l-0.998,1.331H92.35
			l-2.993,0.997l1.996,1.33c0,0,2.328,0.666,4.989,0.666c0,0,6.318,3.325,6.984,1.662s0-4.323,0-4.323
			S103.325,216.194,101.662,213.866z"/>
		<path fill="#F04E28" d="M227.376,195.242l-1.33-0.998l-0.997,0.665l-0.666,1.663l0.333,1.33l0.665,0.998v1.33v1.995h-1.33
			c-0.333,0.998-2.661,3.325-4.656,4.656c-1.996,1.331-2.661-0.665-2.993,1.663s-0.665,4.988-0.665,4.988v0.998
			c0,0,0,1.33,1.995,1.33c1.996,0,1.331,4.656,3.991-0.665s6.651-9.978,6.651-9.978h0.998l0.997-5.321c0,0,0.665-0.332,0-1.33
			C229.705,197.569,227.376,195.242,227.376,195.242z"/>
		<path fill="#F04E28" d="M113.635,193.578l-0.998-2.327c0,0,0.665-3.325-0.998-0.998c-1.663,2.328-2.328,5.654-2.328,5.654
			l0.998,1.662l-0.333,0.998c0,4.324,0.665,6.319,0.665,6.319l6.319,0.664l0.333-5.32l-2.993-1.995L113.635,193.578z"/>
	</g>
</g>
</svg>
