<?xml version="1.0" encoding="utf-8"?>
<!-- Generator: Adobe Illustrator 12.0.0, SVG Export Plug-In . SVG Version: 6.00 Build 51448)  -->
<!DOCTYPE svg PUBLIC "-//W3C//DTD SVG 1.1//EN" "http://www.w3.org/Graphics/SVG/1.1/DTD/svg11.dtd" [
	<!ENTITY ns_svg "http://www.w3.org/2000/svg">
	<!ENTITY ns_xlink "http://www.w3.org/1999/xlink">
]>
<svg  version="1.1" xmlns="&ns_svg;" xmlns:xlink="&ns_xlink;" width="285.578" height="285.578" viewBox="0 0 285.578 285.578"
	 overflow="visible" enable-background="new 0 0 285.578 285.578" xml:space="preserve">
<g id="Layer_3">
</g>
<g id="Layer_2">
	<g>
		<path fill="#9356A2" d="M1.693,128.135c1.652-4.406,2.204-2.754,3.856-6.059c1.652-3.305,3.306-11.017,3.306-13.221
			s0-8.814,0-8.814s-0.001-1.102,2.754-5.509c2.754-4.407,4.958-3.856,5.509-6.06s2.754-3.305,3.305-6.61
			c0.551-3.306,1.652-6.06,3.306-8.814c1.652-2.755,2.754-4.407,5.509-6.611c2.754-2.204,4.958-4.407,4.958-4.407
			s1.121-1.121,2.533-2.534l-0.33-1.322V55.42l1.652-1.101l0.551-1.653c0,0,0,0,3.306-4.407c3.305-4.407,0.551-2.754,0.551-2.754
			l5.461-9.433C21.225,59.82,3.502,93.433,0.467,131.192C0.877,130.263,1.267,129.272,1.693,128.135z"/>
		<path fill="#9356A2" d="M72.185,18.651c-0.568,0.324-1.134,0.65-1.697,0.982c0.316,0.192,0.617,0.377,0.899,0.554
			C71.626,19.771,71.889,19.268,72.185,18.651z"/>
		<path fill="#9356A2" d="M13.202,202.834c0.877,1.89,1.795,3.757,2.751,5.601c0.952-2.58,1.772-4.787,2.279-6.145
			C16.519,202.478,14.836,202.659,13.202,202.834z"/>
		<path fill="#956AAD" d="M41.907,48.259c-3.306,4.407-3.306,4.407-3.306,4.407l-0.551,1.653l-1.652,1.101v2.755l0.33,1.322
			c1.56-1.558,3.472-3.471,4.628-4.627c2.203-2.204,3.855-4.958,3.855-4.958l1.653-2.203l1.102-3.305l7.161,3.856
			c0,0-3.855,4.958,2.204,0.551s8.263-6.61,8.263-6.61l-2.203-4.958l-2.755-4.407c0,0-6.06,2.754,0-2.204
			c6.06-4.958,6.06-5.508,7.712-7.161c1.245-1.245,1.866-1.24,3.038-3.282c-0.282-0.177-0.583-0.362-0.899-0.554
			c-8.063,4.744-15.619,10.257-22.568,16.438l-5.461,9.433C42.458,45.504,45.212,43.852,41.907,48.259z"/>
		<path fill="#9356A2" d="M68.349,23.47c-1.652,1.653-1.652,2.204-7.712,7.161c-6.06,4.958,0,2.204,0,2.204l2.755,4.407l2.203,4.958
			c0,0-2.203,2.204-8.263,6.61s-2.204-0.551-2.204-0.551l-7.161-3.856l-1.102,3.305l-1.653,2.203c0,0-1.652,2.755-3.855,4.958
			c-1.156,1.156-3.068,3.069-4.628,4.627c-1.412,1.413-2.533,2.534-2.533,2.534s-2.204,2.203-4.958,4.407
			c-2.755,2.204-3.856,3.856-5.509,6.611c-1.653,2.754-2.755,5.508-3.306,8.814c-0.551,3.305-2.754,4.407-3.305,6.61
			s-2.755,1.653-5.509,6.06c-2.755,4.407-2.754,5.509-2.754,5.509s0,6.61,0,8.814s-1.653,9.916-3.306,13.221
			c-1.652,3.305-2.204,1.653-3.856,6.059c-0.427,1.138-0.816,2.128-1.227,3.057C0.159,135.018,0,138.885,0,142.79
			c0,2.017,0.044,4.023,0.127,6.02L6.651,137.5c0,0-0.551-3.306,0-6.061c0.551-2.754,1.102-6.059,2.204-7.711
			c1.101-1.653,4.406-11.568,4.957-13.221c0.551-1.653,2.204-9.916,2.204-9.916s0.551-1.102,2.203-3.856s2.754-6.61,4.958-9.365
			c2.203-2.754,2.203-3.305,5.509-7.161c3.305-3.856,6.06-7.161,7.712-8.263c1.652-1.102,2.203-2.754,4.958-4.958
			c2.754-2.204,4.406-3.305,7.712-7.162c3.306-3.856,7.162-6.61,7.162-6.61s-0.552,1.102,6.059-1.102l3.306-1.102l7.713-3.856
			l5.508-1.102l4.407-3.306l-3.306-4.407l-0.551-1.653c0-3.856,0-6.61,0-6.61v-2.754l1.653-2.203v-4.407V17.41l-1.95-2.438
			c-2.332,1.165-4.628,2.393-6.885,3.679c-0.296,0.617-0.559,1.119-0.798,1.536C70.215,22.229,69.594,22.225,68.349,23.47z"/>
		<path fill="#94478D" d="M18.771,200.85l1.304-0.194l-0.753-2.008l-4.958-8.814v-4.407l-1.102-7.712c0,0-4.406-7.161-4.406-9.916
			c0-2.754,0-10.467,0-10.467v-0.803v-0.85c0-0.383,0-0.916,0-1.652c0-4.407-1.103-6.06,1.652-11.018
			c2.754-4.958,7.161-11.018,7.161-11.018l4.958,1.102l1.102-1.653l-1.652-4.406c0,0,1.102-5.509,2.754-7.162
			c1.652-1.652,6.61-6.06,6.61-6.06l3.856-2.754l4.407-6.611l-3.306-4.407l-1.652-1.653l-2.755-2.203l-2.203-2.204l1.652-5.509
			l4.407-3.856c0,0,1.102-2.203,3.856-4.407c2.754-2.204,7.161-9.916,7.161-9.916l2.754-3.305l3.306-5.509c0,0-1.653,0,2.203-3.305
			c3.856-3.305,7.161-6.06,7.161-6.06c-6.61,2.204-6.059,1.102-6.059,1.102s-3.856,2.754-7.162,6.61
			c-3.306,3.856-4.958,4.958-7.712,7.162c-2.755,2.204-3.306,3.856-4.958,4.958c-1.652,1.102-4.407,4.407-7.712,8.263
			c-3.306,3.856-3.306,4.407-5.509,7.161c-2.204,2.755-3.306,6.611-4.958,9.365s-2.203,3.856-2.203,3.856s-1.653,8.263-2.204,9.916
			c-0.551,1.652-3.856,11.568-4.957,13.221c-1.103,1.652-1.653,4.958-2.204,7.711c-0.551,2.755,0,6.061,0,6.061L0.127,148.81
			c0.797,19.235,5.399,37.487,13.075,54.024c1.634-0.175,3.316-0.356,5.03-0.544C18.572,201.379,18.771,200.85,18.771,200.85z"/>
		<path fill="#94478D" d="M81.02,20.715v4.407l-1.653,2.203v2.754c0,0,0,2.754,0,6.61l0.551,1.653l3.306,4.407l-4.407,3.306h1.994
			h1.312c0.422,0,0.964,0,1.652,0c5.509,0,14.873-2.204,14.873-2.204l3.856-0.55l-6.06-2.204l-3.305-1.653l7.161-0.55l2.203-0.551
			c0,0,3.856-2.204,1.102-2.754c-2.754-0.551-4.958-1.102-4.958-1.102h-1.652c0,0-1.102,0-3.305-1.652
			c-2.204-1.652-7.161-9.365-7.161-9.365l-1.653-2.754l0.551-2.754l4.407-2.754l0.7-0.573c-2.728-0.101-7.861-0.529-7.861-0.529
			l0.949-1.305c-1.532,0.699-3.05,1.423-4.552,2.173l1.95,2.438V20.715z"/>
		<path fill="#8A3481" d="M187.888,113.262c0,0-1.102,6.61-2.203,9.916c-1.102,3.305-2.755,6.06-2.755,6.06l-3.305,4.407
			l-3.856,5.509l-6.06,2.753l-3.305,3.306h3.855l4.407-0.551l4.407-0.551l3.305-1.102l1.652-3.305l1.653-2.203l1.652-2.204
			l3.856-3.305l2.104-0.701l5.251-4.285c-2.863-4.514-1.846,0.578-1.846,0.578s-5.509,1.653-7.712,1.653
			c-2.204,0-2.204-2.203-2.204-2.203l2.204-4.407c0,0,3.305-5.508,3.855-7.161c0.552-1.653,3.305-8.814,3.305-11.018
			c0-2.203-2.753-5.509-2.753-5.509s-3.306,3.305-4.958,3.856c-0.127,0.042-0.232,0.063-0.328,0.076
			c-0.137,2.557-0.224,5.016-0.224,6.535C187.888,113.262,187.888,113.262,187.888,113.262z"/>
		<path fill="#8A3481" d="M170.811,49.36c-0.257-0.387-0.516-0.682-0.83-0.951c-0.603,2.603,0.83,2.604,0.83,2.604l1.103,3.856
			l1.744,2.616l-0.643-4.82l1.063-0.34C172.749,51.321,171.338,50.152,170.811,49.36z"/>
		<path fill="#8A3481" d="M179.625,94.66c4.474-10.586,5.509-18.857,5.509-18.857l2.124,2.478c-0.414-4.45,0.049-2.568-0.472-4.131
			c-0.551-1.653-4.958-6.06-4.958-6.06l-2.203-1.653c0,0,0,8.264,0,12.67C179.625,83.295,179.625,88.481,179.625,94.66z"/>
		<path fill="#8A3481" d="M45.755,178.741l-2.195,0.625l-1.102-12.119l-3.306-1.102L37.5,155.679v-2.203c0,0,0-4.958,0-7.162
			c0-2.203,3.856-5.508,3.856-5.508l1.652-1.653l5.509-5.509c0,0-0.551-2.204,4.407-2.204s8.813-1.652,8.813-1.652
			s2.204-3.305,2.755-4.958s2.754-4.958,2.754-4.958l1.652-2.754l1.653-3.856l3.305-3.305v-2.754V99.49l4.958-1.102h1.653
			c0,0,1.652,0,1.652,1.653c0,1.652,0,4.407,0,6.059c0,1.653,0,1.653,0,1.653l6.06-2.203c0,0,0,0,0.551-1.653
			s3.856-4.407,3.856-4.407l1.652-4.407v-7.712v-1.653l-1.102-2.203c0,0-3.306,0,0-2.204c3.305-2.203,7.712-6.059,7.712-6.059
			l2.754-0.551c0,0,4.958,0,6.61,0c1.653,0,0.001,0,5.509,0c5.509,0,10.467,0,10.467,0h1.653c0,0,1.652,0,3.855,1.102
			c2.204,1.102,4.958,4.407,7.161,5.508c2.203,1.102,3.306,1.103,4.958,2.204c1.652,1.102,3.856,2.754,3.856,2.754l0.21,0.702
			l3.646,0.951c0,0,4.957,11.568,7.16,17.628c0.214,0.585,0.422,1.114,0.625,1.595l1.028,0.057c0,0-0.173,0.471-0.435,1.241
			c1.641,3.307,3.062,3.908,4.842,7.022c0.375,0.656,0.668,1.101,0.9,1.394c0.244-0.27,0.494-0.55,0.752-0.843
			c1.955-2.226,3.711-4.509,5.29-6.802c-3.502,1.508-2.536-0.91-2.536-0.91l-2.203-4.407l-2.754-4.407l-1.103-2.754l-3.305-6.61
			l-3.306-4.408l-3.306-3.305l-7.161-6.06l-4.407-2.754l-3.305-2.204c0,0-8.813-2.203-12.119-3.305
			c-1.518-0.506-3.731-1.127-5.684-1.653h-5.334l-3.305,0.551l-3.856,2.204c0,0-4.407,2.203-11.568,4.407s-7.161,5.509-7.161,5.509
			l-0.551,2.203l-0.551,3.856l-4.958,2.755l-7.161,2.754l-3.856,2.754l-2.754,0.551l-6.611,1.653c0,0-3.855,1.652-5.508,2.754
			c-1.653,1.102-3.856,3.305-3.856,3.305l-2.754,3.306l-1.653,1.101l-2.203,4.408l-3.306,4.958c0,0-2.754,3.305-3.855,4.958
			s-3.306,3.856-3.306,3.856l-3.306,4.407l-5.508,6.61l-2.755-2.204v-4.407l0.551-3.856l2.755-3.856l2.203-2.754
			c0,0,3.856-3.856,6.61-8.814c2.755-4.958,2.755-4.958,2.755-4.958l-4.407,6.611l-3.856,2.754c0,0-4.958,4.407-6.61,6.06
			c-1.652,1.653-2.754,7.162-2.754,7.162l1.652,4.406l-1.102,1.653l-4.958-1.102c0,0-4.407,6.06-7.161,11.018
			c-2.755,4.958-1.652,6.61-1.652,11.018c0,0.736,0,1.27,0,1.652v0.85v0.803c0,0,0,7.713,0,10.467c0,2.755,4.406,9.916,4.406,9.916
			l1.102,7.712v4.407l4.958,8.814l0.753,2.008l2.921-0.438l-2.021-13.139c0,0,1.102,0.551-1.652-2.203s-5.509-9.916-5.509-9.916
			l-1.102-9.915l-2.203-10.467v-4.958l2.754-2.203l8.264-3.306l2.203,9.916l-1.652,8.263c0,0,0,2.204,0,3.856s0,6.61,0,6.61v2.203
			l1.652-3.856l2.203-2.753l3.306,3.305c1.652-1.652,2.203-7.161,2.203-7.161v-6.061l3.856-0.551l-0.551,5.51l-1.653,4.958
			l1.653,4.406c0,0,0-1.653,1.102,0c1.102,1.652,0.551,8.814,0.551,8.814s0,6.61,0,8.263s0,5.509,0,5.509s0,0.015,0,0.028
			l3.856-2.231c0,0,1.652-3.306,3.855-3.306l3.878-0.484c-0.766-1.54-1.433-3.397-1.674-5.575
			C46.12,182.022,45.925,180.273,45.755,178.741z"/>
		<path fill="#8A3481" d="M55.128,58.175c-3.856,3.305-2.203,3.305-2.203,3.305l-3.306,5.509l-2.754,3.305
			c0,0-4.407,7.712-7.161,9.916c-2.755,2.204-3.856,4.407-3.856,4.407l-4.407,3.856l-1.652,5.509l2.203,2.204l2.755,2.203
			l1.652,1.653l3.306,4.407l4.958-5.509l2.754-3.305l-2.754-1.102l5.508-3.305c0,0,1.653-1.102,2.204-3.305
			c0.551-2.204-1.652-1.653-1.652-1.653l-1.103-3.305l2.204-2.754l2.203-4.958l-0.551-2.755l-2.203-0.551l5.509-7.162l7.161-6.059
			l0.551-4.958l3.305-1.652l9.365-3.856c0,0,19.28-1.652,20.934-2.203c1.651-0.551,6.609,0,8.813-0.551
			c2.204-0.551,10.467-2.203,10.467-2.203l12.119-6.06c0,0-14.874-2.204-19.281-2.755c-4.406-0.551-12.67-7.161-12.67-7.161
			l-6.06-12.67c-0.261,0-0.586-0.008-0.952-0.022l-0.7,0.573l-4.407,2.754l-0.551,2.754l1.653,2.754c0,0,4.957,7.712,7.161,9.365
			c2.203,1.653,3.305,1.652,3.305,1.652h1.652c0,0,2.204,0.551,4.958,1.102c2.755,0.551-1.102,2.754-1.102,2.754l-2.203,0.551
			l-7.161,0.55l3.305,1.653l6.06,2.204l-3.856,0.55c0,0-9.364,2.204-14.873,2.204c-0.688,0-1.23,0-1.652,0H80.81h-1.994
			l-5.508,1.102l-7.713,3.856l-3.306,1.102C62.289,52.115,58.984,54.87,55.128,58.175z"/>
		<path fill="#8A3481" d="M108.012,19.613v-6.862c-2.237,0.653-4.915,1.396-7.712,1.905c-0.513,0.093-0.982,0.169-1.42,0.232
			l5.275,5.276L108.012,19.613z"/>
		<path fill="#712970" d="M110.215,34.487c4.407,0.551,19.281,2.755,19.281,2.755l-12.119,6.06c0,0-8.263,1.652-10.467,2.203
			c-2.204,0.551-7.162,0-8.813,0.551c-1.653,0.551-20.934,2.203-20.934,2.203l-9.365,3.856l-3.305,1.652l-0.551,4.958l-7.161,6.059
			l-5.509,7.162l2.203,0.551l0.551,2.755l-2.203,4.958l-2.204,2.754l1.103,3.305c0,0,2.203-0.551,1.652,1.653
			c-0.551,2.204-2.204,3.305-2.204,3.305l-5.508,3.305l2.754,1.102l-2.754,3.305l-4.958,5.509c0,0,0,0-2.755,4.958
			c-2.754,4.958-6.61,8.814-6.61,8.814l-2.203,2.754l-2.755,3.856l-0.551,3.856v4.407l2.755,2.204l5.508-6.61l3.306-4.407
			c0,0,2.204-2.204,3.306-3.856s3.855-4.958,3.855-4.958l3.306-4.958l2.203-4.408l1.653-1.101l2.754-3.306
			c0,0,2.203-2.203,3.856-3.305c1.652-1.102,5.508-2.754,5.508-2.754l6.611-1.653l2.754-0.551l3.856-2.754l7.161-2.754l4.958-2.755
			l0.551-3.856l0.551-2.203c0,0,0-3.305,7.161-5.509s11.568-4.407,11.568-4.407l3.856-2.204l3.305-0.551h5.334
			c-2.298-0.618-4.231-1.102-4.231-1.102l-3.306-0.551h-7.161l-1.103-2.203v-2.204l3.856-4.958l2.755-1.101l2.754-2.755l1.102-2.754
			c0,0,4.958,0,6.61,0c1.653,0,6.061,3.306,6.061,3.306h7.712h3.305h7.161l-5.509-8.814h2.204c0,0,5.509,1.652,9.365,2.754
			c3.855,1.102,8.813,3.305,8.813,3.305s7.161,5.509,8.813,6.611c0.675,0.449,2.451,2.276,4.316,4.281l-0.368-2.766l-1.744-2.616
			l-1.103-3.856c0,0-1.433-0.001-0.83-2.604c-1.028-0.882-2.661-1.474-6.882-4.006c-5.509-3.305-5.509-3.856-5.509-3.856
			l-6.61-3.856l-13.771-3.856l8.813-6.06l4.407-7.162v-2.754l-0.551-6.06c0,0,0.005-0.003,0.563-0.338
			c-1.113,0.198-2.126,0.338-2.766,0.338c-2.204,0-3.856,0-3.856,0l-6.61-1.102h-3.305h-6.611c0,0-12.119,1.653-13.771,1.653
			c-0.89,0-2.898,0.639-5.509,1.4v6.862l-3.856,0.551l-5.275-5.276c-4.741,0.689-5.377-0.232-7.395-0.232l6.06,12.67
			C97.545,27.326,105.809,33.936,110.215,34.487z M81.57,79.108c0,1.652-0.551,2.203-0.551,2.203l-3.856,4.407l-1.102-4.958
			l2.203-1.652l2.204-3.305h2.203C82.672,75.803,81.57,77.455,81.57,79.108z"/>
		<path fill="#8D3254" d="M280.435,154.026c-0.676,0.676-1.092,1.248-1.344,1.716c-0.016,1.826,0.037,3.665,0.242,4.895
			c0.551,3.305-1.652,6.06-1.652,6.06l-0.551,5.509c0,0-2.204,7.712-4.408,12.119c-2.203,4.407-4.406,6.06-6.06,8.814
			c-1.652,2.753-2.203,4.406-2.203,10.466s-0.551,6.61-1.102,8.814c-0.551,2.203-2.754,2.203-2.754,2.203l-9.916-2.203
			c0,0,0-1.653,0-4.407v-5.509c0,0,1.103-2.755,2.203-4.406c1.102-1.653,2.204-4.407,2.204-6.061c0-1.652,0.551-4.407,0.551-4.407
			s1.102-7.161,1.102-8.813s4.958-6.06,4.958-6.06v-3.305v-6.06c0,0,0-4.959-1.102-7.713s-0.551-6.61-1.102-12.67
			s-0.551-4.407-0.551-6.61s-0.552-4.958-0.552-6.611c0-1.653-1.102-7.712-1.102-7.712l-2.755-2.754l-0.551-2.754l-2.753-6.06
			l-2.204-2.204l-6.611-1.102l-0.551-1.652l-1.102-4.407c0,0,0,0,0-2.204l-1.102-4.407l-6.61-3.305l-2.204-0.551h-1.652
			l-5.509,2.203l-3.305,2.204h-3.856c0,0-2.203,1.102-4.407,2.754c-2.202,1.653-6.059,3.856-6.059,3.856l-1.103-1.652l-2.754-4.407
			l-1.653-4.958c0,0,0-2.754,0-5.509c0-2.754,0-2.203-1.652-5.508c-1.652-3.306-1.652-2.204-1.652-2.204l-4.958-8.814l-3.305-2.754
			c0,0-4.407-4.407-6.061-6.06c-1.651-1.652-6.059-5.508-6.059-5.508s-1.349-0.899-2.794-1.993l-1.063,0.34l0.643,4.82l0.368,2.766
			c2.706,2.906,5.6,6.186,5.6,6.186l2.203,1.653c0,0,4.407,4.407,4.958,6.06c0.521,1.563,0.058-0.319,0.472,4.131l4.486,5.234
			c0,0-2.203,7.712-2.754,9.916c-0.335,1.336-0.668,5.505-0.879,9.441c0.096-0.012,0.201-0.034,0.328-0.076
			c1.652-0.551,4.958-3.856,4.958-3.856s2.753,3.306,2.753,5.509c0,2.204-2.753,9.365-3.305,11.018
			c-0.551,1.653-3.855,7.161-3.855,7.161l-2.204,4.407c0,0,0,2.203,2.204,2.203c2.203,0,7.712-1.653,7.712-1.653
			s-1.018-5.092,1.846-0.578l0.385-0.313c1.021-1.714,2.192-4.112,3.278-7.371c2.754-8.263,12.67-7.712,12.67-7.712v1.652
			l0.551,5.509v3.305v11.568l2.755,3.305l1.652,2.754l4.957,8.814l1.653,1.102h1.652l7.713,1.652l2.202-0.551l2.204-4.407
			c0,0,3.856-1.652,5.509-1.652c1.653,0,2.755,3.306,2.755,3.306l7.161,2.754v4.958l-3.855,10.467l-3.306,4.406l-1.653,4.407
			l-1.102,16.526c0,0-10.466,1.102-12.119,2.755c-1.652,1.652-2.755,2.203-2.755,2.203s-3.305,2.754-4.406,4.406
			c-1.102,1.653-4.407,3.856-4.407,3.856h-2.754l-9.365,4.958v4.407c0,0,0,4.958-0.552,7.712l-5.508-8.813l-3.306-1.102
			l-11.017,2.203l-2.204,3.855l-1.652,1.653l-8.263,4.407l-4.958,2.203l0.551,2.203c0,0,0,0-2.204,0
			c-2.203,0-3.306,2.203-5.508,2.203c-2.204,0-2.755,1.103-8.264,2.755c-5.508,1.653-4.957,2.755-11.018,3.306
			c-6.06,0.551-2.203,0-4.958,0c-2.754,0-6.609,0.551-12.118,0.551s-7.713,1.102-20.383,1.102c-8.74,0-10.664,0-11.018,0
			c0,0-0.067,0-0.07,0c0.003,0,0.07,0,0.07,0s-11.017-3.856-13.221-5.509c-2.203-1.652-8.263-6.61-10.467-9.364
			c-2.203-2.755-6.06-6.06-12.119-13.222c-6.06-7.161-3.305-4.958-3.305-4.958l-1.102-2.754c0,0-5.509-7.161-6.61-8.813
			c-0.618-0.927-1.756-2.375-2.733-4.341l-3.878,0.484c-2.203,0-3.855,3.306-3.855,3.306l-3.856,2.231c0,0.291,0,3.408,0,6.031
			c0,2.754,0,2.754,0,2.754l-2.754,2.204l-3.856,1.102l-2.203-0.551l-4.407-5.509l-0.183-1.185l-2.921,0.438l-1.304,0.194
			c0,0-0.198,0.529-0.538,1.44c-0.507,1.357-1.327,3.564-2.279,6.145c13.195,25.441,33.817,46.409,58.998,60.029l3.864-4.264
			l-7.161-6.06l5.509-5.509h1.102c0,0,1.51,0,3.856,0l-2.204-2.203l-6.06-3.856l-2.754-2.203l-8.264-8.813
			c0,0-0.138-0.414-0.826-1.309c-0.401-0.522-0.99-1.208-1.848-2.071c-0.613-0.617-1.364-1.325-2.283-2.13
			c-4.407-3.855,0-6.059,0-6.059l1.652,2.754l9.364,11.018l10.467,4.406l4.407,6.061l7.161,1.652l-1.102-3.306l-2.203-2.203
			l-6.06-3.855l-1.653-2.755l6.06,1.103l12.67,8.813h4.407h2.204l5.508,0.551l5.51,5.509c0,0,5.508,0.551,8.263,0.551
			c2.754,0,6.61,1.102,6.61,1.102l7.712,1.652l4.407,2.754l0.104,1.254l3.752,1.501l0.235,0.189c0.362,0.159,1.282,0.361,3.62,0.361
			c3.856,0,6.61,0,8.263-0.551c1.653-0.551,5.51-2.204,5.51-2.204h3.855l2.754-0.551l-8.813,4.407c0,0,1.103,3.306,4.957,3.306
			c3.856,0,9.366-1.102,9.366-1.102v-3.856l-2.204-2.755h7.712h4.407c0,0,2.755-1.652,5.509-2.754
			c2.755-1.102,7.712-4.407,7.712-4.407s-4.407,1.102,0.551-1.652c4.959-2.754,12.671-6.61,12.671-6.61l1.102-4.406h-3.306
			c0,0-4.406-0.551-3.855-2.204c0.551-1.652,5.508-4.407,5.508-4.407s0-0.551,2.755-1.102s8.263,3.856,8.263,3.856
			c3.306,1.652-1.652,1.652,4.958,1.652c6.611,0,9.364-1.102,9.364-1.102l3.306-1.102l-3.855,7.16l-5.509,2.755l-1.103,3.306v3.855
			c0,0,0.759,1.266,0.39,2.253c31.157-24.62,51.804-61.951,54.114-104.167C283.276,152.98,282.214,152.247,280.435,154.026z"/>
		<path fill="#8D3254" d="M266.662,173.995v-0.138v-3.306c0,0,0-0.469,0-1.201c-2.487,1.861-4.957,3.405-4.957,3.405
			L266.662,173.995z"/>
		<path fill="#8D3254" d="M229.216,256.459c0.249-0.188,0.496-0.379,0.743-0.569c-0.066,0.018-0.133,0.034-0.205,0.048
			C229.53,255.982,229.354,256.164,229.216,256.459z"/>
		<path fill="#8A2D2C" d="M155.938,270.811h2.754l2.204-1.101l6.609-2.204c-3.854,0-4.957-3.306-4.957-3.306l8.813-4.407
			l-2.754,0.551h-3.855c0,0-3.856,1.653-5.51,2.204c-1.652,0.551-4.406,0.551-8.263,0.551c-2.338,0-3.258-0.202-3.62-0.361
			l5.273,4.218L155.938,270.811z"/>
		<path fill="#8A2D2C" d="M112.419,265.854l13.771,3.856l3.856,1.101h2.754h4.958l7.712-3.855l-1.752-1.753l0.1,1.202
			c0,0-4.407,0-6.61-0.551s-1.102,0-1.102,0s-7.161-2.204-12.119-4.407s-2.755,0-5.509,0c-2.755,0-2.755,0-4.407,0s-2.203,0-3.856,0
			c-0.751,0-2.413,0.342-4.002,0.714l0.697,0.388L112.419,265.854z"/>
		<path fill="#8A2D2C" d="M230.855,252.632v-3.855l1.103-3.306l5.509-2.755l3.855-7.16l-3.306,1.102c0,0-2.753,1.102-9.364,1.102
			c-6.61,0-1.652,0-4.958-1.652c0,0-5.508-4.407-8.263-3.856s-2.755,1.102-2.755,1.102s-4.957,2.755-5.508,4.407
			c-0.551,1.653,3.855,2.204,3.855,2.204h3.306l-1.102,4.406c0,0-7.712,3.856-12.671,6.61c-4.958,2.754-0.551,1.652-0.551,1.652
			s-4.957,3.306-7.712,4.407c-2.754,1.102-5.509,2.754-5.509,2.754h-4.407h-7.712l2.204,2.755v3.856c0,0-5.51,1.102-9.366,1.102
			l-1.101,6.61l-2.203,4.958l-1.653-0.551c0,0,0,0-6.06-4.958c-6.06-4.957-1.652,0-1.652,0h-2.203h-4.407h-4.958h-3.306h-4.406
			l-6.61,2.754l-11.568-5.509l-4.958-0.55c0,0-3.856-0.551-6.61-1.652c-2.755-1.103-6.06-3.856-6.06-3.856l-4.407-1.653
			l-2.387-2.387l-2.021-0.919l-2.203-1.101l-4.958-4.407l-1.652-1.653c-2.347,0-3.856,0-3.856,0h-1.102l-5.509,5.509l7.161,6.06
			l-3.864,4.264c20.18,10.916,43.284,17.114,67.838,17.114c32.485,0,62.435-10.849,86.427-29.119
			c0.139-0.295,0.314-0.477,0.538-0.521c0.072-0.014,0.139-0.03,0.205-0.048c0.431-0.332,0.859-0.668,1.286-1.005
			C231.614,253.897,230.855,252.632,230.855,252.632z M229.203,245.471l-8.813,8.264l-6.61,1.652l-8.814,7.161l-1.102,2.755
			c0,0-11.568,7.16-14.873,8.263c-3.306,1.102-7.712,0.551-7.712,0.551l-10.468-2.755l-1.102-1.651l4.407-2.204l5.509-2.203
			l10.467-2.755l9.915-4.407l6.061-0.551l3.855-1.652l1.102-3.856l3.306-3.305l7.712-1.102l1.652-1.103l5.509-6.609l1.652,2.753
			L229.203,245.471z"/>
		<path fill="#8A2D2C" d="M256.747,178.815c0,1.652-1.102,8.813-1.102,8.813s-0.551,2.755-0.551,4.407
			c0,1.653-1.103,4.407-2.204,6.061c-1.101,1.651-2.203,4.406-2.203,4.406v5.509c0,2.754,0,4.407,0,4.407l9.916,2.203
			c0,0,2.203,0,2.754-2.203c0.551-2.204,1.102-2.755,1.102-8.814s0.551-7.713,2.203-10.466c1.653-2.755,3.856-4.407,6.06-8.814
			c2.204-4.407,4.408-12.119,4.408-12.119l0.551-5.509c0,0,2.203-2.755,1.652-6.06c-0.205-1.229-0.258-3.068-0.242-4.895
			c-0.572,1.059-0.309,1.589-0.309,1.589s-3.306,4.407-4.407,7.713c-1.102,3.305-2.204,3.856-2.204,3.856l-5.509,8.263v-3.168
			l-4.957-1.239C261.705,172.756,256.747,177.163,256.747,178.815z"/>
		<path fill="#691D2A" d="M143.719,265.202l1.752,1.753l-7.712,3.855h-4.958h-2.754l-3.856-1.101l-13.771-3.856l-5.509-3.306
			l-0.697-0.388c-1.907,0.447-3.71,0.938-3.71,0.938l-5.509-0.551l-4.039-1.836l2.387,2.387l4.407,1.653c0,0,3.305,2.754,6.06,3.856
			c2.754,1.102,6.61,1.652,6.61,1.652l4.958,0.55l11.568,5.509l6.61-2.754h4.406h3.306h4.958h4.407h2.203c0,0-4.407-4.957,1.652,0
			c6.06,4.958,6.06,4.958,6.06,4.958l1.653,0.551l2.203-4.958l1.101-6.61l-6.609,2.204l-2.204,1.101h-2.754l-3.305-3.855
			l-5.273-4.218l-0.235-0.189l-3.752-1.501L143.719,265.202z"/>
		<path fill="#6F244E" d="M88.731,258.692l2.203,1.101l2.021,0.919l4.039,1.836l5.509,0.551c0,0,1.803-0.491,3.71-0.938
			c1.589-0.372,3.251-0.714,4.002-0.714c1.653,0,2.204,0,3.856,0s1.652,0,4.407,0c2.754,0,0.551-2.203,5.509,0
			s12.119,4.407,12.119,4.407s-1.102-0.551,1.102,0s6.61,0.551,6.61,0.551l-0.1-1.202l-0.347-4.155l-0.104-1.254l-4.407-2.754
			l-7.712-1.652c0,0-3.856-1.102-6.61-1.102c-2.755,0-8.263-0.551-8.263-0.551l-5.51-5.509l-5.508-0.551h-2.204h-4.407l-12.67-8.813
			l-6.06-1.103l1.653,2.755l6.06,3.855l2.203,2.203l1.102,3.306l-7.161-1.652l-4.407-6.061l-10.467-4.406l-9.364-11.018
			l-1.652-2.754c0,0-4.407,2.203,0,6.059c0.919,0.805,1.67,1.513,2.283,2.13c0.857,0.863,1.446,1.549,1.848,2.071
			c0.688,0.895,0.826,1.309,0.826,1.309l8.264,8.813l2.754,2.203l6.06,3.856l2.204,2.203l1.652,1.653L88.731,258.692z"/>
		<path fill="#4E296D" d="M90.533,14.634c0.366,0.014,0.691,0.022,0.952,0.022c2.018,0,2.653,0.922,7.395,0.232
			c0.438-0.063,0.907-0.139,1.42-0.232c2.797-0.509,5.475-1.251,7.712-1.905c2.61-0.761,4.619-1.4,5.509-1.4
			c1.652,0,13.771-1.653,13.771-1.653h6.611h3.305l6.61,1.102c0,0,1.652,0,3.856,0c0.64,0,1.652-0.14,2.766-0.338
			c0.393-0.235,1.056-0.633,2.192-1.315l-4.407-3.856l-10.467-2.754h-3.855l-10.179-1.272C109.6,3.149,96.127,7.098,83.621,12.799
			l-0.949,1.305C82.672,14.104,87.806,14.533,90.533,14.634z"/>
		<path fill="#6F244E" d="M150.429,16.859v2.754l-4.407,7.162l-8.813,6.06l13.771,3.856l6.61,3.856c0,0,0,0.551,5.509,3.856
			c4.221,2.532,5.854,3.125,6.882,4.006c0.314,0.269,0.573,0.564,0.83,0.951c0.527,0.792,1.938,1.96,3.267,2.966
			c1.445,1.094,2.794,1.993,2.794,1.993s4.407,3.856,6.059,5.508c1.653,1.653,6.061,6.06,6.061,6.06l3.305,2.754l4.958,8.814
			c0,0,0-1.102,1.652,2.204c1.652,3.305,1.652,2.754,1.652,5.508c0,2.755,0,5.509,0,5.509l1.653,4.958l2.754,4.407l1.103,1.652
			c0,0,3.856-2.203,6.059-3.856c2.204-1.652,4.407-2.754,4.407-2.754h3.856l3.305-2.204l5.509-2.203h1.652l2.204,0.551l6.61,3.305
			l1.102,4.407c0,2.204,0,2.204,0,2.204l1.102,4.407l0.551,1.652l6.611,1.102l2.204,2.204l2.753,6.06l0.551,2.754l2.755,2.754
			c0,0,1.102,6.059,1.102,7.712c0,1.652,0.552,4.407,0.552,6.611s0,0.551,0.551,6.61s0,9.916,1.102,12.67s1.102,7.713,1.102,7.713
			v6.06v3.305c0,0,2.47-1.544,4.957-3.405c0-2.136,0-6.522,0-8.163c0-2.203,0-7.161,0-8.813c0-1.653,0-7.713,0-11.018
			c0-3.306,0-8.264,0-8.264s0-6.059,0-7.712c0-1.652-2.203-7.712-2.203-7.712s-1.652-3.856-3.855-6.06
			c-2.204-2.204-1.652-3.306-2.204-7.162c-0.551-3.855-1.102-7.712-1.102-11.018c0,0-2.755-2.754-4.407-4.407
			s-5.508-4.958-5.508-4.958l-3.306-8.263c0,0-4.407-0.551-7.161-2.204c-2.755-1.653-2.204-1.653-6.061-4.407
			c-3.855-2.754-4.957-2.755-8.813-5.509c-3.855-2.754-2.754-2.754-4.958-3.856c-2.203-1.102-2.754-0.551-4.958-2.204
			c-2.202-1.652-3.305-3.856-6.609-7.161c-3.306-3.305-2.204-3.856-2.204-3.856l-5.509-7.162c0,0-1.653-1.652-3.305-2.203
			c-1.653-0.551-4.958-0.551-4.958-0.551l-3.856-5.508l-0.335-1.315c-3.189-1.185-6.73-2.963-9.581-4.745
			c-4.407-2.754-6.06-1.102-9.364-3.306c-3.306-2.204-3.306-1.653-8.264-5.508c-4.958-3.856-5.508-7.162-5.508-7.162
			c-1.137,0.682-1.8,1.08-2.192,1.315c-0.558,0.335-0.563,0.338-0.563,0.338L150.429,16.859z"/>
		<path fill="#691D2A" d="M260.053,74.15c-1.653,0-3.306-1.653-3.306-1.653l-3.306-2.204l-3.855-3.305c0,0-2.755-4.958-4.407-7.712
			c-0.969-1.613-1.744-2.278-2.224-2.555l-0.531-0.199l-2.754-3.856c0,0-1.653,1.102-6.06-0.551c0,0-2.203-2.204-6.06-6.06
			c-3.856-3.856-4.958-3.306-4.958-3.306s-3.305-1.102-5.509-1.652c-2.203-0.551-2.754-1.653-2.754-1.653s-4.407-2.754-6.61-3.305
			s-2.203-1.102-2.203-1.102s-3.306-3.305-6.611-3.305s-4.957,0-8.813-0.551c-1.361-0.195-3-0.668-4.742-1.315l0.335,1.315
			l3.856,5.508c0,0,3.305,0,4.958,0.551c1.651,0.551,3.305,2.203,3.305,2.203l5.509,7.162c0,0-1.102,0.551,2.204,3.856
			c3.305,3.305,4.407,5.509,6.609,7.161c2.204,1.653,2.755,1.102,4.958,2.204c2.204,1.102,1.103,1.102,4.958,3.856
			c3.856,2.754,4.958,2.755,8.813,5.509c3.856,2.754,3.306,2.754,6.061,4.407c2.754,1.653,7.161,2.204,7.161,2.204l3.306,8.263
			c0,0,3.855,3.305,5.508,4.958s4.407,4.407,4.407,4.407c0,3.306,0.551,7.162,1.102,11.018c0.552,3.856,0,4.958,2.204,7.162
			c2.203,2.203,3.855,6.06,3.855,6.06s2.203,6.06,2.203,7.712c0,1.653,0,7.712,0,7.712s0,4.958,0,8.264c0,3.305,0,9.364,0,11.018
			c0,1.652,0,6.61,0,8.813c0,1.641,0,6.027,0,8.163c0,0.732,0,1.201,0,1.201v3.306v0.138v3.168l5.509-8.263
			c0,0,1.103-0.552,2.204-3.856c1.102-3.306,4.407-7.713,4.407-7.713s-0.264-0.53,0.309-1.589c0.252-0.468,0.668-1.04,1.344-1.716
			c1.779-1.779,2.842-1.046,4.925-3.309c0.145-2.625,0.219-5.268,0.219-7.928c0-25.563-6.72-49.555-18.484-70.311l-1.532,2.772
			C265.562,75.252,261.705,74.15,260.053,74.15z"/>
		<path fill="#41133C" d="M133.903,2.537h3.855l10.467,2.754l4.407,3.856c0,0,0.55,3.306,5.508,7.162
			c4.958,3.855,4.958,3.305,8.264,5.508c3.305,2.204,4.957,0.551,9.364,3.306c2.851,1.782,6.392,3.56,9.581,4.745
			c1.742,0.647,3.381,1.12,4.742,1.315c3.856,0.551,5.508,0.551,8.813,0.551s6.611,3.305,6.611,3.305s0,0.551,2.203,1.102
			s6.61,3.305,6.61,3.305s0.551,1.102,2.754,1.653c2.204,0.551,5.509,1.652,5.509,1.652s1.102-0.55,4.958,3.306
			c3.856,3.855,6.06,6.06,6.06,6.06c4.406,1.652,6.06,0.551,6.06,0.551l-4.406-3.306l-2.204-3.305c0,0-2.755-1.653-4.958-3.856
			s-4.957-4.407-4.957-4.407l-4.407-3.856l-6.611-1.102c0,0-3.305-2.204-6.609-3.856c-3.306-1.652-3.306-1.652-3.306-1.652
			l-4.407-4.407c0,0-4.406-2.203-4.958-3.856c-0.551-1.652-2.203-1.652-2.203-1.652l-2.755-3.856l-3.305-2.754l-6.61-1.653
			l-5.509-2.204l-2.774-4.413C160.978,0.87,151.984,0,142.789,0c-6.464,0-12.827,0.432-19.064,1.264L133.903,2.537z"/>
		<path fill="#41133C" d="M242.424,56.522l0.531,0.199C242.616,56.525,242.424,56.522,242.424,56.522z"/>
		<path fill="#94478D" d="M143.818,83.515c-1.652-1.101-2.755-1.102-4.958-2.204c-2.203-1.102-4.957-4.407-7.161-5.508
			c-2.203-1.102-3.855-1.102-3.855-1.102h-1.653c0,0-4.958,0-10.467,0c-5.508,0-3.855,0-5.509,0c-1.652,0-6.61,0-6.61,0
			l-2.754,0.551c0,0-4.407,3.856-7.712,6.059c-3.306,2.204,0,2.204,0,2.204l1.102,2.203v1.653v7.712l-1.652,4.407
			c0,0-3.306,2.754-3.856,4.407s-0.551,1.653-0.551,1.653l-6.06,2.203c0,0,0,0,0-1.653c0-1.652,0-4.407,0-6.059
			c0-1.653-1.652-1.653-1.652-1.653h-1.653l-4.958,1.102v7.712v2.754l-3.305,3.305l-1.653,3.856l-1.652,2.754
			c0,0-2.203,3.305-2.754,4.958s-2.755,4.958-2.755,4.958s-3.855,1.652-8.813,1.652s-4.407,2.204-4.407,2.204l-5.509,5.509
			l-1.652,1.653c0,0-3.856,3.305-3.856,5.508c0,2.204,0,7.162,0,7.162v2.203l1.652,10.467l3.306,1.102l1.102,12.119l2.195-0.625
			c-0.313-2.808-0.543-4.884-0.543-4.884l-1.652-14.874l1.652-11.017h5.51l3.305,2.754c0.551-1.652,3.306-3.305,4.958-3.856
			c1.652-0.551,11.018-2.754,11.018-2.754h3.306l4.241-0.386l0.165-0.165c0,0,3.306-0.551,6.61-2.203
			c1.059-0.529,1.721-0.889,2.188-1.169l1.669-4.34l-0.551-3.306l-4.407-3.305l5.509-8.814l1.652,2.204l4.407-2.754l2.754-7.161
			l7.161,1.652v-3.305l1.103-4.958c0,0,0.777,0,1.865,0.022l-2.968-2.226l-2.754-3.856l-6.06-0.551l3.856-2.754l11.017-2.754
			l3.856-0.551l6.61,0.551l3.856,3.856l4.732,5.258c1.28-1.373,2.429-1.953,2.429-1.953s2.755,0,5.509,0
			c0.118,0,0.254,0.014,0.397,0.033l-0.948-9.948l1.652-6.611l9.024,2.354l-0.21-0.702
			C147.675,86.269,145.471,84.616,143.818,83.515z"/>
		<path fill="#94478D" d="M121.783,107.202l-3.848,2.309l4.399,3.2l2.754,1.652c0,0,0.551-2.754,2.203-7.161h-3.305H121.783z"/>
		
			<line fill="none" stroke="#A54A72" stroke-width="0" stroke-linecap="round" stroke-linejoin="round" x1="97.545" y1="238.31" x2="97.475" y2="238.31"/>
		<polygon fill="#A54A72" points="184.031,139.704 182.379,143.009 185.685,137.5 		"/>
		<polygon fill="#A54A72" points="191.193,131.991 187.337,135.296 185.685,137.5 193.297,131.291 		"/>
		<path fill="#A54A72" d="M159.316,107.145c0.201,0.477,0.399,0.906,0.594,1.298c0.262-0.771,0.435-1.241,0.435-1.241
			L159.316,107.145z"/>
		<path fill="#A54A72" d="M179.625,94.66c0,0.323,0,0.646,0,0.975c0,6.61-0.551,8.263-1.102,9.916s-1.652,1.102-6.06,3.305
			c-0.277,0.139-0.534,0.258-0.77,0.359c-1.579,2.293-3.335,4.577-5.29,6.802c0,0,13.221-1.653,16.525,0
			c3.306,1.653,0,7.712,0,7.712s-2.202,3.305-6.059,7.161s-7.162,4.958-9.366,6.06c-2.202,1.102-4.406,3.856-4.957,6.61
			s0,2.754,0,2.754s2.755,7.162,3.306,8.814c0.55,1.653,1.651-0.551,1.651-0.551s7.162-4.958,11.569-7.713
			c4.407-2.753,3.305-3.855,3.305-3.855l-3.305,1.102l-4.407,0.551l-4.407,0.551h-3.855l3.305-3.306l6.06-2.753l3.856-5.509
			l3.305-4.407c0,0,1.653-2.755,2.755-6.06c1.102-3.305,2.203-9.916,2.203-9.916s0,0,0-3.856c0-1.519,0.087-3.978,0.224-6.535
			c0.211-3.936,0.544-8.105,0.879-9.441c0.551-2.203,2.754-9.916,2.754-9.916l-4.486-5.234l-2.124-2.478
			C185.134,75.803,184.099,84.073,179.625,94.66z"/>
		<path fill="#A54A72" d="M166.404,116.016c-0.258,0.293-0.508,0.573-0.752,0.843C166.782,118.288,166.404,116.016,166.404,116.016z
			"/>
		<path fill="#A54A72" d="M206.661,126.222l0.508-0.29c0,0-0.231,3.002-0.394,5.567c0.081,2.529,0.205,4.697,0.394,5.45
			c0.551,2.204-0.551,7.712-0.551,7.712l0.551,1.652v9.365v3.305c0,0-4.407,4.958-6.611,7.162l-3.305,2.755l-3.305,3.305
			l-1.103,1.102l-2.754,1.652v3.856l6.61,3.306l4.958-0.551c0,0,4.958-3.856,6.61-7.162c1.653-3.305,2.203,0,2.203,0l3.306,3.856
			c0,0-7.712,3.306-14.323,8.263c-6.61,4.958-4.406,0.551-8.813,0.551s-8.264,0-13.771,0c-5.51,0-3.856,1.652-3.856,1.652
			s-3.306,6.061-3.856,9.366c-0.551,3.305,0,4.406,0,7.16c0,2.755-5.508,1.653-5.508,1.653s-11.568,1.102-17.078,1.102
			c-5.509,0-7.712-4.958-9.364-6.61c-1.652-1.653-3.856,0-3.856,0l-9.594-0.873l-0.321,0.321l-2.204-0.551l-11.018,0.551
			l3.856,3.306c0,0,4.958,6.61,8.264,8.814c3.305,2.204,3.305,6.06,3.305,8.813s-2.754,1.653-2.754,1.653l-8.814-2.755
			c0,0-2.754,0-6.06,0s-9.365,0-12.119,0s-9.364,0-11.568-0.551c-2.203-0.55-4.958-3.856-4.958-3.856s-2.203-2.203-3.305-5.509
			c-1.103-3.305-7.162-8.813-8.814-9.916c-1.652-1.102-6.06-1.102-6.06-1.102l-4.406-8.813l-11.569-17.077
			c0,0,0.23,2.076,0.543,4.884c0.17,1.532,0.365,3.281,0.56,5.032c0.241,2.178,0.908,4.035,1.674,5.575
			c0.978,1.966,2.115,3.414,2.733,4.341c1.102,1.652,6.61,8.813,6.61,8.813l1.102,2.754c0,0-2.755-2.203,3.305,4.958
			c6.06,7.162,9.916,10.467,12.119,13.222c2.204,2.754,8.264,7.712,10.467,9.364c2.204,1.652,13.221,5.509,13.221,5.509
			c0.354,0,2.277,0,11.018,0c12.67,0,14.874-1.102,20.383-1.102s9.364-0.551,12.118-0.551c2.755,0-1.102,0.551,4.958,0
			c6.061-0.551,5.51-1.652,11.018-3.306c5.509-1.652,6.06-2.755,8.264-2.755c2.202,0,3.305-2.203,5.508-2.203
			c2.204,0,2.204,0,2.204,0l-0.551-2.203l4.958-2.203l8.263-4.407l1.652-1.653l2.204-3.855l11.017-2.203l3.306,1.102l5.508,8.813
			c0.552-2.754,0.552-7.712,0.552-7.712v-4.407l9.365-4.958h2.754c0,0,3.306-2.203,4.407-3.856c1.102-1.652,4.406-4.406,4.406-4.406
			s1.103-0.551,2.755-2.203c1.653-1.653,12.119-2.755,12.119-2.755l1.102-16.526l1.653-4.407l3.306-4.406l3.855-10.467v-4.958
			l-7.161-2.754c0,0-1.102-3.306-2.755-3.306c-1.652,0-5.509,1.652-5.509,1.652l-2.204,4.407l-2.202,0.551l-7.713-1.652h-1.652
			l-1.653-1.102l-4.957-8.814l-1.652-2.754l-2.755-3.305v-11.568v-3.305l-0.551-5.509v-1.652c0,0-9.916-0.551-12.67,7.712
			c-1.086,3.259-2.258,5.657-3.278,7.371l7.686-6.27C206.618,120.423,206.618,123.048,206.661,126.222z M229.754,157.331
			l7.162-3.855l3.855,7.712l-1.653,4.407l-2.753-2.203l-1.653-1.103l-3.856,1.103l-4.406,0.55l-2.755-3.305L229.754,157.331z"/>
		<path fill="#A54A72" d="M70.002,144.11c0,0-9.365,2.203-11.018,2.754c-1.652,0.552-4.407,2.204-4.958,3.856l1.102,1.653h2.204
			h8.813l4.407-1.653l4.406-4.407l2.59-2.589l-4.241,0.386H70.002z"/>
		<path fill="#A54A72" d="M132.25,101.143c0,0-1.148,0.58-2.429,1.953l0.226,0.251v1.653l-2.755,2.203
			c-1.652,4.407-2.203,7.161-2.203,7.161l-2.754-1.652l-4.399-3.2l-1.66,0.997h-2.755l-4.406-3.306l-1.44-1.08
			c-1.088-0.022-1.865-0.022-1.865-0.022l-1.103,4.958v3.305l-7.161-1.652l-2.754,7.161l-4.407,2.754l-1.652-2.204l-5.509,8.814
			l4.407,3.305l0.551,3.306l-1.669,4.34c0.99-0.596,1.097-0.836,2.22-1.585c1.652-1.102,7.712-1.102,9.915-1.102
			c1.281,0,4.426-0.56,7.375-1.244l6.397-4.265h3.775c3.253-2.043,6.691-4.407,6.691-4.407l15.424-24.789l-0.153-1.62
			c-0.144-0.019-0.279-0.033-0.397-0.033C135.005,101.143,132.25,101.143,132.25,101.143z"/>
		<path fill="#6F244E" d="M169.709,55.971c-1.652-1.102-8.813-6.611-8.813-6.611s-4.958-2.203-8.813-3.305
			c-3.856-1.102-9.365-2.754-9.365-2.754h-2.204l5.509,8.814h-7.161h-3.305h-7.712c0,0-4.407-3.306-6.061-3.306
			c-1.652,0-6.61,0-6.61,0l-1.102,2.754l-2.754,2.755l-2.755,1.101l-3.856,4.958v2.204l1.103,2.203h7.161l3.306,0.551
			c0,0,1.934,0.483,4.231,1.102c1.952,0.525,4.166,1.147,5.684,1.653c3.306,1.102,12.119,3.305,12.119,3.305l3.305,2.204
			l4.407,2.754l7.161,6.06l3.306,3.305l3.306,4.408l3.305,6.61l1.103,2.754l2.754,4.407l2.203,4.407c0,0-0.966,2.418,2.536,0.91
			c0.235-0.101,0.492-0.22,0.77-0.359c4.407-2.204,5.509-1.652,6.06-3.305s1.102-3.306,1.102-9.916c0-0.329,0-0.652,0-0.975
			c0-6.178,0-11.364,0-15.552c0-4.407,0-12.67,0-12.67s-2.894-3.279-5.6-6.186C172.16,58.247,170.384,56.42,169.709,55.971z
			 M169.709,83.515h-4.406v-2.204v-3.305l3.855-2.754l2.755,2.203L169.709,83.515z"/>
		<path fill="#B2528D" d="M185.685,137.5l-3.306,5.508c0,0,1.103,1.103-3.305,3.855c-4.407,2.755-11.569,7.713-11.569,7.713
			s-1.102,2.204-1.651,0.551c-0.551-1.652-3.306-8.814-3.306-8.814s-0.551,0,0-2.754s2.755-5.509,4.957-6.61
			c2.204-1.102,5.51-2.204,9.366-6.06s6.059-7.161,6.059-7.161s3.306-6.06,0-7.712c-3.305-1.653-16.525,0-16.525,0
			s0.378,2.272-0.752,0.843c-0.232-0.293-0.525-0.738-0.9-1.394c-1.78-3.114-3.201-3.715-4.842-7.022
			c-0.194-0.392-0.393-0.822-0.594-1.298c-0.203-0.481-0.411-1.01-0.625-1.595c-2.203-6.06-7.16-17.628-7.16-17.628l-3.646-0.951
			l-9.024-2.354l-1.652,6.611l0.948,9.948l0.153,1.62l-15.424,24.789c0,0-3.438,2.364-6.691,4.407h0.081l-3.306,6.06h3.306
			l8.263-1.652l1.102,0.551l1.102,5.508l3.306-2.202c0,0,6.06-2.204,8.813-4.958s4.958-3.856,4.958-3.856s4.958-9.364,6.06-12.119
			c1.102-2.754,4.958-2.754,4.958-2.754l3.855,3.305l2.755,2.754l1.652,3.856v7.161l-0.551,2.754c0,0-7.161,6.059-10.466,8.813
			c-3.306,2.755-7.162,3.856-9.916,6.06c-2.755,2.204-6.61,2.204-12.119,3.306s-7.712,2.754-11.018,3.305s-6.06,3.306-12.119,6.06
			s-6.61,0.552-8.264,0.552c-1.652,0-4.406-2.204-4.406-2.204l-1.652-0.551l-4.407-1.102l-6.61,2.203l-7.713,5.51l-2.754,4.406
			l1.652,2.203l2.203,4.958c0,0,0,4.958-0.551,7.712h-3.305h-1.102l-3.856-2.203l-1.102,3.856l-1.652-1.653l-3.306-3.305v-1.652
			l1.102-5.509l1.102-5.509l-7.161-2.203l0.551-2.204l6.06-4.407c0,0,3.306-2.203,4.958-2.754c1.653-0.551,2.203-0.551,2.203-0.551
			s0,0,1.103-1.653c1.102-1.652,6.61-1.102,6.61-1.102s4.958-3.855,7.161-4.957c2.203-1.103,3.306-0.552,3.306-0.552l1.652-0.551
			l2.203-1.102l1.653-1.652l1.102-2.755l2.203-2.755c0,0,2.204-1.651,2.204-3.304l7.712-2.754l0.213-0.142
			c-2.949,0.685-6.094,1.244-7.375,1.244c-2.203,0-8.263,0-9.915,1.102c-1.123,0.749-1.229,0.989-2.22,1.585
			c-0.467,0.28-1.129,0.64-2.188,1.169c-3.305,1.652-6.61,2.203-6.61,2.203l-0.165,0.165l-2.59,2.589l-4.406,4.407l-4.407,1.653
			h-8.813h-2.204l-1.102-1.653l-3.305-2.754h-5.51l-1.652,11.017l1.652,14.874l11.569,17.077l4.406,8.813c0,0,4.407,0,6.06,1.102
			c1.652,1.103,7.712,6.611,8.814,9.916c1.102,3.306,3.305,5.509,3.305,5.509s2.755,3.307,4.958,3.856
			c2.204,0.551,8.814,0.551,11.568,0.551s8.813,0,12.119,0s6.06,0,6.06,0l8.814,2.755c0,0,2.754,1.101,2.754-1.653
			s0-6.609-3.305-8.813c-3.306-2.204-8.264-8.814-8.264-8.814l-3.856-3.306l11.018-0.551l-3.305-1.651l-12.67-6.061l-1.103-4.406
			l0.551-6.61l5.509-0.552h3.306l1.102,0.552l2.755,6.61l2.754,3.855h5.509l2.204,1.653v4.407h-1.653l-2.433,2.432l9.594,0.873
			c0,0,2.204-1.653,3.856,0c1.652,1.652,3.855,6.61,9.364,6.61c5.51,0,17.078-1.102,17.078-1.102s5.508,1.102,5.508-1.653
			c0-2.754-0.551-3.855,0-7.16c0.551-3.306,3.856-9.366,3.856-9.366s-1.653-1.652,3.856-1.652c5.508,0,9.364,0,13.771,0
			s2.203,4.407,8.813-0.551c6.611-4.957,14.323-8.263,14.323-8.263l-3.306-3.856c0,0-0.55-3.305-2.203,0
			c-1.652,3.306-6.61,7.162-6.61,7.162l-4.958,0.551l-6.61-3.306v-3.856l2.754-1.652l1.103-1.102l3.305-3.305l3.305-2.755
			c2.204-2.204,6.611-7.162,6.611-7.162v-3.305v-9.365l-0.551-1.652l-0.551,3.306l-9.365,8.263l-8.263,0.551l-1.653,1.102
			l3.856,2.755h3.856v2.203l-3.306,3.856c0,0,0,0-1.652,0.551c-1.653,0.551-4.407,2.204-4.407,2.204s-1.652,1.101-3.306,1.651
			c-1.652,0.552-2.203,2.204-4.957,3.306c-2.755,1.102-3.306,2.204-3.306,2.204s-3.856,1.652-5.509,1.652s-6.61,0-12.119,0
			s-1.653,0-4.406,0c-2.755,0-2.204,0-4.959-1.102c-2.754-1.102-2.203-2.755-2.203-2.755l-4.958-3.856l0.551-3.305h3.856h3.306
			l1.652-0.551l2.203-0.551h2.754c0,0,6.611,0,10.468,0c3.855,0,5.508,0,5.508,0l1.652-1.102l5.51-3.856l2.754-3.856l2.754-7.161
			l4.407-3.856l2.755-4.407c0,0,3.305-3.855,3.305-5.508c0-1.653,2.755-3.306,2.755-3.306l3.855-2.754l7.205-4.117
			c-0.043-3.174-0.043-5.799-0.043-5.799l-7.686,6.27l-0.385,0.313l-5.251,4.285L185.685,137.5z M92.037,184.324v1.652v3.856
			l0.551,5.509c0,0-3.306-2.203-4.958-3.306c-1.653-1.102-3.856-5.509-3.856-5.509l-0.551-3.855l5.509-0.551L92.037,184.324z
			 M121.783,171.103l-5.508-1.101l-1.103-1.102l-0.551-4.959l2.755-2.754h7.712l4.958,0.551v3.306c0,0,0,0-1.102,1.652
			c-1.102,1.653-2.204,2.204-2.204,2.204l-3.305,2.202H121.783z M139.962,181.57l1.652-2.204h3.856l3.306,1.102l3.856,2.204
			l-2.755,2.754l-3.306,6.06l-1.652,0.551l-1.652-3.306l-1.653-2.203l-1.652-2.754V181.57z"/>
		<path fill="#B2528D" d="M207.169,136.949c-0.188-0.753-0.313-2.921-0.394-5.45c-0.09,1.397-0.157,2.664-0.157,3.247
			c0,1.652,0,9.916,0,9.916S207.72,139.153,207.169,136.949z"/>
		<path fill="#BB6698" d="M106.021,136.256l-0.213,0.142l-7.712,2.754c0,1.653-2.204,3.304-2.204,3.304l-2.203,2.755l-1.102,2.755
			l-1.653,1.652l-2.203,1.102l-1.652,0.551c0,0-1.103-0.551-3.306,0.552c-2.203,1.102-7.161,4.957-7.161,4.957
			s-5.509-0.551-6.61,1.102c-1.103,1.653-1.103,1.653-1.103,1.653s-0.55,0-2.203,0.551c-1.652,0.551-4.958,2.754-4.958,2.754
			l-6.06,4.407l-0.551,2.204l7.161,2.203l-1.102,5.509l-1.102,5.509v1.652l3.306,3.305l1.652,1.653l1.102-3.856l3.856,2.203h1.102
			h3.305c0.551-2.754,0.551-7.712,0.551-7.712l-2.203-4.958l-1.652-2.203l2.754-4.406l7.713-5.51l6.61-2.203l4.407,1.102
			l1.652,0.551c0,0,2.754,2.204,4.406,2.204c1.653,0,2.204,2.202,8.264-0.552s8.813-5.509,12.119-6.06s5.509-2.203,11.018-3.305
			s9.364-1.102,12.119-3.306c2.754-2.203,6.61-3.305,9.916-6.06c3.305-2.755,10.466-8.813,10.466-8.813l0.551-2.754v-7.161
			l-1.652-3.856l-2.755-2.754l-3.855-3.305c0,0-3.856,0-4.958,2.754c-1.102,2.754-6.06,12.119-6.06,12.119s-2.204,1.102-4.958,3.856
			s-8.813,4.958-8.813,4.958l-3.306,2.202l-1.102-5.508l-1.102-0.551l-8.263,1.652h-3.306l3.306-6.06h-0.081h-3.775L106.021,136.256
			z"/>
		<path fill="#BB6698" d="M83.223,182.672l0.551,3.855c0,0,2.203,4.407,3.856,5.509c1.652,1.103,4.958,3.306,4.958,3.306
			l-0.551-5.509v-3.856v-1.652l-3.306-2.203L83.223,182.672z"/>
		<polygon fill="#BB6698" points="123.758,200.528 126.19,198.097 127.844,198.097 127.844,193.689 125.64,192.036 120.131,192.036 
			117.377,188.181 114.622,181.57 113.521,181.019 110.215,181.019 104.706,181.57 104.155,188.181 105.258,192.587 
			117.928,198.647 121.232,200.299 123.437,200.85 		"/>
		<path fill="#BB6698" d="M126.741,168.9c0,0,1.103-0.551,2.204-2.204c1.102-1.652,1.102-1.652,1.102-1.652v-3.306l-4.958-0.551
			h-7.712l-2.755,2.754l0.551,4.959l1.103,1.102l5.508,1.101h1.653L126.741,168.9z"/>
		<polygon fill="#BB6698" points="143.268,188.73 144.92,192.036 146.572,191.485 149.878,185.426 152.633,182.672 148.776,180.468 
			145.471,179.366 141.614,179.366 139.962,181.57 139.962,183.773 141.614,186.527 		"/>
		<path fill="#BB6698" d="M206.775,131.499c0.162-2.565,0.394-5.567,0.394-5.567l-0.508,0.29l-7.205,4.117l-3.855,2.754
			c0,0-2.755,1.653-2.755,3.306c0,1.652-3.305,5.508-3.305,5.508l-2.755,4.407l-4.407,3.856l-2.754,7.161l-2.754,3.856l-5.51,3.856
			l-1.652,1.102c0,0-1.652,0-5.508,0c-3.856,0-10.468,0-10.468,0h-2.754l-2.203,0.551l-1.652,0.551h-3.306h-3.856l-0.551,3.305
			l4.958,3.856c0,0-0.551,1.653,2.203,2.755c2.755,1.102,2.204,1.102,4.959,1.102c2.753,0-1.103,0,4.406,0s10.467,0,12.119,0
			s5.509-1.652,5.509-1.652s0.551-1.103,3.306-2.204c2.754-1.102,3.305-2.754,4.957-3.306c1.653-0.551,3.306-1.651,3.306-1.651
			s2.754-1.653,4.407-2.204c1.652-0.551,1.652-0.551,1.652-0.551l3.306-3.856v-2.203h-3.856l-3.856-2.755l1.653-1.102l8.263-0.551
			l9.365-8.263l0.551-3.306c0,0,0-8.264,0-9.916C206.618,134.163,206.686,132.896,206.775,131.499z"/>
		<polygon fill="#B2528D" points="230.855,163.392 234.712,162.289 236.365,163.392 239.118,165.595 240.771,161.188 
			236.916,153.476 229.754,157.331 223.694,160.637 226.449,163.941 		"/>
		<polygon fill="#712970" points="169.158,75.252 165.303,78.006 165.303,81.311 165.303,83.515 169.709,83.515 171.913,77.455 		
			"/>
		<path fill="#6F244E" d="M78.265,79.108l-2.203,1.652l1.102,4.958l3.856-4.407c0,0,0.551-0.551,0.551-2.203
			c0-1.653,1.102-3.305,1.102-3.305h-2.203L78.265,79.108z"/>
		<polygon fill="#8A3481" points="113.521,110.508 116.275,110.508 117.936,109.511 121.783,107.202 123.987,107.202 
			127.292,107.202 130.047,104.999 130.047,103.346 129.821,103.095 125.089,97.837 121.232,93.981 114.622,93.43 110.766,93.981 
			99.749,96.736 95.893,99.49 101.952,100.041 104.706,103.897 107.674,106.123 109.114,107.202 		"/>
		<path fill="#311425" d="M177.973,9.147l6.61,1.653l3.305,2.754l2.755,3.856c0,0,1.652,0,2.203,1.652
			c0.552,1.653,4.958,3.856,4.958,3.856l4.407,4.407c0,0,0,0,3.306,1.652c3.305,1.653,6.609,3.856,6.609,3.856l6.611,1.102
			l4.407,3.856c0,0,2.754,2.203,4.957,4.407s4.958,3.856,4.958,3.856l2.204,3.305l4.406,3.306l2.754,3.856
			c0,0,0.192,0.003,0.531,0.199c0.479,0.277,1.255,0.942,2.224,2.555c1.652,2.754,4.407,7.712,4.407,7.712l3.855,3.305l3.306,2.204
			c0,0,1.652,1.653,3.306,1.653c1.652,0,5.509,1.102,5.509,1.102l1.532-2.772c-20.298-35.81-55.621-61.983-97.404-69.949
			l2.774,4.413L177.973,9.147z"/>
		<path fill="#712970" d="M36.398,189.833c0-1.652,0-8.263,0-8.263s0.551-7.162-0.551-8.814c-1.102-1.653-1.102,0-1.102,0
			l-1.653-4.406l1.653-4.958l0.551-5.51l-3.856,0.551v6.061c0,0-0.551,5.509-2.203,7.161l-3.306-3.305l-2.203,2.753l-1.652,3.856
			v-2.203c0,0,0-4.958,0-6.61s0-3.856,0-3.856l1.652-8.263l-2.203-9.916l-8.264,3.306l-2.754,2.203v4.958l2.203,10.467l1.102,9.915
			c0,0,2.755,7.162,5.509,9.916s1.652,2.203,1.652,2.203l2.021,13.139l0.183,1.185l4.407,5.509l2.203,0.551l3.856-1.102l2.754-2.204
			c0,0,0,0,0-2.754c0-2.623,0-5.74,0-6.031c0-0.014,0-0.028,0-0.028S36.398,191.485,36.398,189.833z"/>
		<path fill="#691D2A" d="M229.203,239.963l-5.509,6.609l-1.652,1.103l-7.712,1.102l-3.306,3.305l-1.102,3.856l-3.855,1.652
			l-6.061,0.551l-9.915,4.407l-10.467,2.755l-5.509,2.203l-4.407,2.204l1.102,1.651l10.468,2.755c0,0,4.406,0.551,7.712-0.551
			c3.305-1.103,14.873-8.263,14.873-8.263l1.102-2.755l8.814-7.161l6.61-1.652l8.813-8.264l1.652-2.755L229.203,239.963z"/>
	</g>
</g>
</svg>
