<?xml version="1.0" encoding="utf-8"?>
<!-- Generator: Adobe Illustrator 12.0.0, SVG Export Plug-In . SVG Version: 6.00 Build 51448)  -->
<!DOCTYPE svg PUBLIC "-//W3C//DTD SVG 1.1//EN" "http://www.w3.org/Graphics/SVG/1.1/DTD/svg11.dtd" [
	<!ENTITY ns_svg "http://www.w3.org/2000/svg">
	<!ENTITY ns_xlink "http://www.w3.org/1999/xlink">
]>
<svg  version="1.1" xmlns="&ns_svg;" xmlns:xlink="&ns_xlink;" width="293.215" height="293.215" viewBox="0 0 293.215 293.215"
	 overflow="visible" enable-background="new 0 0 293.215 293.215" xml:space="preserve">
<g id="Layer_3">
</g>
<g id="Layer_2">
	<g>
		<path fill="#FDE611" d="M106.252,75.69c-0.018-0.02-0.036-0.042-0.06-0.07C106.215,75.646,106.234,75.669,106.252,75.69z"/>
		<path fill="#FDE611" d="M97.42,173.093l3.026-2.018l4.036-0.505c0,0,5.045,3.531,1.514,6.559s-6.559,5.549-6.559,5.549
			s-1.514,2.019-1.009,3.532c0.504,1.514,0.504,6.558,0.504,6.558l2.522,4.541h2.019l8.576-1.514l0.505-4.036l4.035-0.505
			c0,0-0.049,0-0.055,0c0.006,0,0.055,0,0.055,0c0.127,0,0.505,0,1.514,0c2.018,0,4.54,0,4.54,0h4.036h2.522l3.531,5.55
			c0,0,2.019,2.522,3.531,2.522c1.514,0,4.541,0,4.541,0s2.522,1.009,2.522-0.505c0-1.513,0-1.513,0-1.513l1.513-1.514h2.019
			c0,0,1.01,1.514,1.01,3.026c0,1.514,1.009,6.055,1.009,6.055l1.009,2.018l0.504,6.559c0,0,1.514,2.522,3.532,0.504
			c2.018-2.018,0-2.521,2.018-4.036c2.018-1.513,0.505-3.026,3.027-3.026s2.522,0,2.522,0l2.521-0.505l-5.044,6.559
			c1.009,2.018,1.009,2.018,1.009,2.018h3.026h4.541l-4.036-3.53c4.036-1.01,4.036-1.01,4.036-1.01l2.018-1.009c0,0-0.193,0-0.199,0
			c0.006,0,0.199,0,0.199,0c0.223,0,0.666,0,1.514,0c2.522,0,0,0,2.522,0c0.868,0,3.173-0.599,5.82-1.382l-2.289-3.663v-2.019
			l-2.522-0.504h-1.514c0,0-3.531-1.009-3.026-2.522c0.504-1.514,1.009-4.54,3.531-4.035c2.522,0.504,4.035,0.504,4.035,0.504h3.027
			c0,0,1.009,0,1.009-2.522s0-4.54,0-4.54s-1.009-4.036-1.513-5.55c-0.505-1.514-1.514-3.026-1.514-3.026l-3.027,2.018v5.55
			l-2.018,2.521c0,0-1.009,0-1.009-2.521c0-2.523,0-5.046,0-5.046v-3.026h-3.027c0,0-1.514-1.514,0-2.522s-1.009-1.009,1.514-1.009
			s4.54-6.055,4.54-6.055s0.505-1.009-1.513-0.504c-2.019,0.504-2.019,0.504-2.019,0.504l-2.522,0.505v-3.026l-4.54-4.541
			l-9.081,3.532c-1.009,2.521,0,3.53,2.522,3.53s4.036,0,4.036,0s2.018-1.009,2.018,2.019s0,4.54,0,4.54
			c0,3.027-0.505,5.045-0.505,7.063c0,2.018,0,4.54,0,4.54s0.505,2.018,0,3.531c-0.504,1.514-2.521,4.036-2.521,4.036l-1.514,1.514
			l-3.496-3.496c-0.358-0.005-0.54-0.54-0.54-0.54l0.54,0.54c0.243,0.004,0.566-0.23,0.974-1.045c1.009-2.018,1.009-4.54,1.009-4.54
			l-1.514-0.504c0,0-2.522,1.009-3.531,2.521c-1.009,1.514-1.009,1.514-1.009,1.514s-1.514,2.522-1.514,0.505c0-2.019,0-4.54,0-4.54
			c-2.018-1.514-4.541-2.523-4.541-4.036c0-1.514,2.019-7.567,2.019-7.567l-3.027-0.505h-1.514l-6.559-3.531l-2.018-6.054
			c0,0,3.531,0,5.045,0.505c1.514,0.504,4.54,2.521,6.054,3.026c1.515,0.504,4.036-0.505,4.036-0.505s-1.513-3.026,1.01-3.531
			c2.522-0.504,6.054-2.018,6.054-2.018l2.018-4.54c-4.036-2.523-3.026,1.009-4.036-2.523c-1.009-3.531-1.009-6.558-1.009-6.558
			l-3.026-3.027l-5.046,5.045l-2.522,2.019h-4.035l-0.505-1.514v-1.514l-1.009-2.018c0,0,0.504-1.01-1.514-1.514
			c-2.018-0.505-5.549-0.505-5.549-0.505h-1.514c0,0-0.505,0-3.531,0c-3.027,0-3.027,0-3.027,0h-2.018c0,0,1.009,0-1.01,1.514
			c-2.018,1.514-3.026-2.018-3.026-2.018l-3.027,1.009h-2.522h-4.54l1.009,5.045l1.514,1.514l0.505,2.018
			c-1.514,1.009-8.072-0.505-8.072-0.505s2.522,2.019-2.018,0.505c0,0-0.678,0.137-1.541,0.407c0.625,1.099,3.054,3.124,3.054,3.124
			l-1.513,2.018l-5.045,5.046l-2.019,3.026v3.531H97.42z M129.202,154.932h2.019l-2.019,2.018l-2.522-2.018H129.202z"/>
		<path fill="#FDE611" d="M206.389,151.4l2.019-1.01c0,0,5.549-0.504,0.504-3.531c-5.044-3.027-5.044-3.027-5.044-3.027
			s-3.532,1.009-3.532,2.522s-3.026,4.541-3.026,4.541h-1.514l-0.504,1.514l1.009,2.018l3.026,3.027c1.065,0,2.941-0.9,4.752-1.941
			C204.782,153.013,206.389,151.4,206.389,151.4z"/>
		<path fill="#FDE611" d="M110.032,95.402c1.513,0.504,4.035,0.504,4.035,0.504s-2.145-0.805-4.154-1.93
			C109.59,94.231,108.786,94.987,110.032,95.402z"/>
		<path fill="#FDE611" d="M271.973,215.975l2.018-3.027l7.063-17.152l3.027-3.531v-6.559c0,0,2.018-1.009,3.531-3.027
			c1.514-2.018,1.009-11.099,1.009-11.099l-0.504-4.035l0.504-5.045h1.514l2.645-4.512c0.289-3.755,0.437-7.551,0.437-11.38
			c0-0.13-0.005-0.259-0.005-0.389l-4.59-1.377v-2.522l2.019-7.063l-2.522-2.018c0,0-1.514-4.036-1.514-6.054
			c0-2.018,1.009-11.604,1.009-11.604v-3.027c0,0-0.363-3.294-0.16-6.765c-0.608-2.097-1.255-4.179-1.951-6.238
			c-2.087-2.116-4.951-3.646-4.951-3.646l2.322-3.484c-0.836-2.1-1.715-4.179-2.645-6.23l-2.201-0.88c0,0-3.026,1.513-3.53,0
			c-0.505-1.514-0.505-6.559-0.505-6.559l-2.522-2.522l-3.027-3.027l-4.035-4.036l4.694-3.129c-0.909-1.379-1.834-2.747-2.788-4.092
			c-0.729,1.949-3.42,4.194-3.42,4.194h-2.522c0,0-0.505-1.513-2.018-1.513c-1.514,0,2.521,6.054-1.514,0
			c-4.036-6.054-5.045-10.594-5.045-10.594s-2.019-1.514,1.009-3.531c1.837-1.225,2.556-1.704,2.84-1.894
			c-0.02-0.021-0.038-0.043-0.059-0.065c-1.184,0.297-6.313,1.687-6.313,3.472c0,2.018,0,2.018,0,2.018h-5.045l-1.514,0.505
			c-2.018,0.504-3.026,0-5.045-2.019c-2.018-2.018-6.558-4.54-6.558-4.54l-1.01-2.018l-2.521-1.514l-4.541-1.009l-0.505,1.513v4.036
			l-2.521,0.504l-1.009-5.045l-0.506-4.54c0,0-3.026-1.009-5.044-1.009s-9.081-2.018-9.081-2.018l3.531-8.071l-4.54-1.514
			l-2.522,3.027l-1.514,0.504l-1.009,5.549l-1.009,2.018l-0.505,1.514c0,0,0.505,2.018-1.009,4.036
			c-1.514,2.018-3.531,3.027-3.531,3.027l-5.045,1.513l-4.54,3.531c0,0-2.019,2.018-5.046,2.523
			c-3.026,0.504-3.026,0.504-3.026,0.504l-1.009-2.523c0,0-3.531-4.54-4.036-6.054s3.027-4.036,3.027-4.036l2.018,1.009v1.513
			l3.026,6.054c0,0,1.01,1.513,2.523,0c1.513-1.514,3.531-3.027,3.531-3.027l1.513-4.036v-2.522c0,0-5.044-0.505-6.558-0.505
			s-5.045,0.505-6.559-0.504c-1.514-1.009-4.54-1.009-6.054-1.009s-4.036,0-4.036,0s-2.018,1.513-3.531,1.513
			s-4.54,0.505-4.54,0.505c-0.505-3.027,2.018-6.054,2.018-6.054c-2.018,0-2.018,0-2.018,0l-2.522,2.018l-5.046,5.549l-4.036-5.549
			c-4.035,0.504-4.035,0.504-4.035,0.504l-1.01,3.532c0,0,0.505,1.009-0.504,2.522c-1.009,1.514-4.036,4.541-4.036,4.541
			l-1.513,1.009c0,0-1.514,3.027-1.514-0.504c0-2.592,0.815-6.27,1.249-8.043l-2.259-4.065l-6.558,10.595c0,0,0.504,2.018,0,4.036
			c-0.505,2.018-2.522,2.522-2.522,2.522l-4.541-2.522l-3.531,3.532v2.018c0,0,1.01,0.504-0.504,3.027s-7.567,6.559-7.567,6.559
			l4.54,1.009l3.027,1.009l-0.505,3.027l-1.009,2.522l-1.009,3.532c0,0-2.522,3.531-3.027,0c-0.504-3.532-0.504-3.532-0.504-3.532
			c-3.027-3.531-3.027-3.531-3.027-3.531l-1.009-3.027l-2.522-1.514l-3.531,5.55c-2.522,0-8.072,0-8.072,0H81.78l-1.009,2.522v2.523
			l-2.522,2.522l-3.026,3.027l1.513,1.513l-3.026,1.009l-6.054-5.045l6.054-0.504c-1.514-1.009-4.541-2.018-4.541-2.018h-5.045
			l10.09,12.612l3.027,0.504l-1.009,3.027l-1.009,2.522l-1.514,6.054v2.018v2.522v4.036l3.026,0.504h1.514
			c0,0-3.026-4.036-3.026-6.558s1.009-5.045,1.009-5.045l3.531-1.009l1.514,2.018c0,0-0.505,1.009,1.514,1.009
			c2.018,0,5.044-0.505,5.044-0.505l1.514-2.018l-1.009-2.018c0,0-0.505-1.514-0.505-3.531c0-2.018,0-4.541,0-4.541
			c2.019-0.504,2.019-0.504,3.532-0.504c1.513,0,3.026,0,3.026,0l0.367,1.651l2.155-2.156l2.018-2.522l0.505,3.531l9.351,4.453
			c-1.401-0.92-2.482-1.966-2.288-2.939c0.505-2.523-2.018-1.009,0.505-2.523c2.522-1.513,6.054-1.009,6.054-1.009l3.027,3.027
			l-1.01,3.531c0,0-5.549-0.504,1.514,0.504c0.471,0.067,0.888,0.11,1.265,0.136c1.095-1.379,1.998-1.838,2.688-1.894
			c-0.333-0.675-0.926-1.269-0.926-1.269V87.33l-2.018-2.018h2.018l4.036-1.514l3.026,1.514c0,0,2.018,0.504,4.036,0.504
			c2.018,0,2.018,0,2.018,0l1.514,3.027l-2.018,4.036v3.026l1.009,2.523l5.549-6.054v-3.531l2.019-0.504h1.513l4.525-1.81
			l0.521-0.208c0,0,3.531,1.513,1.009-2.018c-2.522-3.532-2.019-1.514-2.522-3.532c-0.505-2.018-0.505-2.018,2.522-2.018
			s5.55-0.504,5.55-0.504h2.522l-2.522,5.549l-0.505,3.027l-4.54,1.009c0,0-5.046,3.027-5.046,4.541c0,1.514,0,5.045,0,5.045
			c0.981,0.164,1.219,0.379,1.249,0.512c0.161-0.192,0.701-0.642,2.283-1.521c4.54-2.522,8.071-4.036,8.071-4.036l2.019-1.009
			l5.045,2.522v2.018c3.026-1.009,2.522-2.522,5.045-3.026c2.522-0.505,4.54-0.505,4.54-0.505s-2.018-1.009,1.514-1.009
			s14.126,0,14.126,0l1.009,3.531v3.532l1.513,3.027c0,0,1.01,0,2.522,0c1.514,0,4.036,0,4.036,0
			c0.505,1.513-5.549,5.549-5.549,5.549l-1.01-1.514h-8.071l-3.027,1.514l-0.504,1.513h-3.531l2.018-3.531l2.522-3.027
			c-2.019-1.009-8.072-1.514-8.072-1.514c1.01,2.522,1.01,5.045,1.01,5.045l0.504,4.541l-0.504,4.541l2.018,1.513h1.514h3.026
			l0.418-0.975l1.096-2.557v6.559l5.045-3.532l2.019,0.504l2.018,2.018l-2.077,4.452l0.563,5.638l-2.456-0.578
			c-0.142,0.346-0.325,0.714-0.571,1.083c-0.311,0.466-0.718,1.413-1.132,2.499l-0.381,3.051l-0.874,0.524
			c-0.38,1.152-0.64,1.998-0.64,1.998s0.555,0.221,1.299,0.456l0.215-0.456l0.343,0.624c0.729,0.207,1.543,0.385,2.18,0.385
			c1.514,0,5.045,8.072,5.045,8.072v1.514l5.045,0.504h1.513l1.514-5.044c0.374-0.467,0.678-0.882,0.935-1.249
			c1.135-1.613,1.363-2.283,2.598-2.283c1.513,0,5.044-1.009,5.044-1.009l0.505,6.054l2.522-1.009c0,0,1.009-3.027,2.522,0
			c1.513,3.027,2.018,5.045,2.018,5.045s0.505-0.505,0,1.514c-0.505,2.018-2.018,4.036-3.026,6.054s-1.514,3.027-3.027,3.027
			c-0.688,0-1.998,0.103-3.178-0.067l-0.858,2.085v2.522l3.531,0.504c3.532-4.54,5.045-6.054,5.045-6.054l2.522-3.026h2.018
			l1.01,4.036l-2.019,4.035l-4.035,2.522l-3.026,3.531l-4.037,11.604v2.018c0,2.481,0.366,3.741,0.738,4.382
			c1.588,0.525,3.803,0.159,3.803,0.159l0.505,6.559l4.035,3.026l2.018,1.009l1.009,2.522c0,0,1.01,1.009-0.504,1.514
			c-1.514,0.504-1.514,0.504-1.514,0.504l-4.035,2.019c-1.009,3.027-1.514,5.045-1.514,5.045l-2.019,0.504l-2.522,3.532
			l-3.026,2.522l-2.019,2.018c0,0,0,0-1.513,0c-1.514,0-3.027-1.009-3.027-1.009l-3.271,1.453c-0.09,1.097-0.07,2.141,0.245,3.087
			c1.009,3.027,1.514,6.054,1.514,6.054h3.026l2.018,1.01l1.009,4.54l0.505,4.036l-3.531,6.054l-2.522,1.513
			c0,0,1.009,2.523,1.009,4.541s2.018,5.045-1.513,6.054c-3.532,1.009-6.559,1.514-6.559,1.514l-1.009,1.514
			c0,0-4.036,3.026-1.01,3.026c3.027,0,7.063,0,7.063,0l2.522,0.504l-2.019,7.063l-1.514,2.018c0,0-0.504-5.549-4.035-6.054
			c-3.532-0.504,5.045-7.063-5.045-0.504c-2.521,1.638-4.57,2.931-6.225,3.947c-0.707,0.434-1.34,0.816-1.909,1.156
			c-3.435,2.046-4.479,2.464-4.479,2.464s-1.009,1.009-2.019,2.522c-1.009,1.513-1.009,1.513-1.009,1.513l4.541,1.514
			c0,0,2.018,1.514,3.026-0.505c1.009-2.018,8.072-4.54,8.072-4.54l2.522,3.027l2.205,5.293l4.857-2.267l2.522-2.018v-3.531v-2.522
			l3.026-2.522c2.522-1.009,7.063-1.009,7.063-1.009h1.514l-1.514,3.531l2.522,3.026c0,0,2.522,2.522,0.504,3.027
			c-2.018,0.504-3.026,0.504-5.549,1.009c-2.522,0.504-5.045,2.018-5.045,2.018s5.55-1.009-2.018,0.505
			c-3.402,0.681-5.88,1.155-7.584,1.474l0.017,0.04c0,0,0.654,2.26,1.024,5.199c35.574-10.939,65.378-35.051,83.72-66.644
			L271.973,215.975z M199.326,49.494l-1.009,2.018v-4.036l1.514-0.504L199.326,49.494z M200.335,60.593l1.009-5.045l2.019-0.504
			l1.009,1.513l1.514,3.531l-2.018,2.522L200.335,60.593z M211.938,129.707c0,0-1.513,0-5.55-1.513
			c-4.035-1.514-1.009-3.027-1.009-3.027l9.081,0.504L211.938,129.707z M229.596,168.048c1.514-0.504,2.522,0,2.522,2.018
			c0,2.019-2.522,6.055-2.522,6.055l-2.523-1.009l-3.026-0.505l2.018-4.036C226.063,170.57,228.082,168.553,229.596,168.048z
			 M223.037,145.851l2.522,2.018c0,0-1.009,2.019-4.54,3.532C217.487,152.913,223.037,145.851,223.037,145.851z M226.063,265.414
			c-3.531,0.505-5.044,1.514-5.044,1.514l1.513-1.009l1.514-0.505C224.046,265.414,229.596,264.909,226.063,265.414z
			 M228.082,259.36l-2.522-2.522l0.504-1.514l3.532,0.505h3.026C228.082,259.36,228.082,259.36,228.082,259.36z M241.198,250.784
			c-2.521,1.513-2.521,1.513-2.521,1.513l-3.532-3.531l5.045-0.504h2.522l2.019-1.009
			C244.73,247.253,243.721,249.271,241.198,250.784z"/>
		<path fill="#FDE611" d="M99.438,100.447h3.531l-3.531-4.036c0,0,1.009-0.505-2.522-0.505c-1.21,0-2.238-0.298-3.072-0.688
			l-0.459,0.688c0,0-1.911,2.732-1.512,3.974l1.512,0.566C96.915,99.942,99.438,100.447,99.438,100.447z"/>
		<path fill="#FDE611" d="M106.321,75.771c-0.006-0.007-0.014-0.017-0.025-0.03C106.307,75.754,106.315,75.764,106.321,75.771z"/>
		<path fill="#FDE611" d="M105.811,75.174c-0.036-0.042-0.073-0.084-0.113-0.131C105.735,75.086,105.772,75.13,105.811,75.174z"/>
		<path fill="#FDE611" d="M105.434,74.734c-0.021-0.023-0.043-0.049-0.064-0.074C105.391,74.685,105.412,74.709,105.434,74.734z"/>
		<path fill="#FDE611" d="M105.689,75.033c-0.04-0.046-0.084-0.098-0.128-0.149C105.604,74.934,105.646,74.983,105.689,75.033z"/>
		<path fill="#FDE611" d="M105.025,74.259c-0.003-0.003-0.005-0.006-0.008-0.01C105.02,74.252,105.022,74.255,105.025,74.259z"/>
		<path fill="#FDE611" d="M105.923,75.306c0.036,0.042,0.07,0.082,0.104,0.12C105.995,75.389,105.96,75.349,105.923,75.306z"/>
		<path fill="#FDE611" d="M105.308,74.588c-0.038-0.044-0.076-0.089-0.117-0.136C105.227,74.494,105.266,74.539,105.308,74.588z"/>
		<path fill="#FDE611" d="M106.155,75.576c-0.013-0.015-0.023-0.027-0.038-0.044C106.131,75.548,106.143,75.562,106.155,75.576z"/>
		<path fill="#FDE611" d="M105.149,74.403c-0.019-0.023-0.039-0.045-0.059-0.068C105.108,74.355,105.129,74.378,105.149,74.403z"/>
		<path fill="none" stroke="#F5A21E" stroke-width="0" stroke-linecap="round" stroke-linejoin="round" d="M116.535,191.254
			c0.006,0,0.055,0,0.055,0"/>
		<path fill="none" stroke="#F5A21E" stroke-width="0" stroke-linecap="round" stroke-linejoin="round" d="M169.362,209.416
			c0.006,0,0.199,0,0.199,0"/>
		<path fill="#F5A21E" d="M107.005,262.387l-0.357,0.293c0.121-0.039,0.24-0.079,0.357-0.119V262.387z"/>
		<path fill="#F5A21E" d="M24.039,169.549l0.771,0.665l-0.204-0.818C24.421,169.466,24.232,169.518,24.039,169.549z"/>
		<path fill="#F5A21E" d="M207.902,187.724l2.523,9.08l-1.515,1.009c0,0-5.044,2.522-8.071,5.55
			c-1.851,1.85-0.873,2.946,0.396,4.095c0.808,0.73,1.734,1.483,2.126,2.463c1.009,2.523-1.514,5.045-1.514,5.045l-5.045,2.019
			c0,0,1.514,1.009,3.027,1.009c1.513,0,1.513,0,1.513,0l2.019-2.018l3.026-2.522l2.522-3.532l2.019-0.504
			c0,0,0.505-2.018,1.514-5.045l4.035-2.019c0,0,0,0,1.514-0.504c1.514-0.505,0.504-1.514,0.504-1.514l-1.009-2.522l-2.018-1.009
			l-4.035-3.026l-0.505-6.559c0,0-2.215,0.366-3.803-0.159C207.512,187.722,207.902,187.724,207.902,187.724z"/>
		<path fill="#F5A21E" d="M188.716,281.518c-2.087,0.391-3.011,0.545-3.011,0.545l2.71-1.266l-2.205-5.293l-2.522-3.027
			c0,0-7.063,2.522-8.072,4.54c-1.009,2.019-3.026,0.505-3.026,0.505l-4.541-1.514c0,0,0,0,1.009-1.513
			c1.01-1.514,2.019-2.522,2.019-2.522s1.044-0.418,4.479-2.464c0.569-0.34,1.202-0.723,1.909-1.156
			c1.654-1.017,3.703-2.31,6.225-3.947c10.09-6.559,1.513,0,5.045,0.504c3.531,0.505,4.035,6.054,4.035,6.054l1.514-2.018
			l2.019-7.063l-2.522-0.504c0,0-4.036,0-7.063,0c-3.026,0,1.01-3.026,1.01-3.026l1.009-1.514c0,0,3.026-0.505,6.559-1.514
			c3.53-1.009,1.513-4.036,1.513-6.054s-1.009-4.541-1.009-4.541l2.522-1.513l3.531-6.054l-0.505-4.036l-1.009-4.54l-2.018-1.01
			h-3.026c0,0-0.505-3.026-1.514-6.054l1.514,10.595c0,0-11.1,4.54-13.117,4.035c-2.018-0.504-3.531-0.504-3.531-0.504l-7.567-3.531
			l-4.765,0.794l-0.232,2.417c0.69-0.026,1.466,0.38,1.466,2.338c0,1.675-1.022,3.118-2.097,4.179l-0.232,2.397l-0.193,2.001
			c0,0-8.072,0-11.099,0c-1.67,0-4.105,0.306-5.955,0.582l4.441,3.453c0,0,2.018,3.026,0,3.026c0,0,7.063,4.036,7.567,1.515
			c0.504-2.523,11.603-12.613,11.603-10.595s-2.018,7.567-2.018,7.567l-5.55,5.549c0,0,5.045,2.522,4.036,6.559
			s-4.036,8.072-4.036,8.072l-6.558,1.009l-2.522,1.514c0,0-3.531,2.521-5.55,3.026c-2.018,0.504-2.522-0.505-5.55,1.009
			c-3.026,1.514-8.071,3.532-8.071,3.532h-2.522c0,0,1.009-1.01-3.027,1.513c-4.035,2.522-7.567,4.54-7.567,4.54
			s0.604,0.305,0.644,3.246c7.596,1.214,15.383,1.854,23.319,1.854c15.02,0,29.508-2.263,43.15-6.458
			c-0.37-2.939-1.024-5.199-1.024-5.199L188.716,281.518z"/>
		<path fill="#F5A21E" d="M93.888,268.44v-3.045c-6.013,4.491-8.167,6.386-9.08,4.559c-1.009-2.018-2.018-4.54-2.018-7.567
			c0-1.332-0.098-2.566-0.208-3.531c-0.269,0-0.557,0-0.862,0c-0.384,1.192-0.998,2.888-1.957,5.045
			c-1.468,3.302-2.932,7.93-3.817,11.184c1.087,0.6,2.182,1.187,3.286,1.759c4.331-1.56,14.152-4.366,14.152-4.366L93.888,268.44z"
			/>
		<path fill="#F5A21E" d="M108.519,287.106c1.009-2.018,4.036-7.063,5.549-10.09c0.227-0.452,0.224-0.938,0.062-1.438
			c-1.105,0.691-2.915,1.034-5.663-0.5c-1.464,0.012-2.47-0.079-2.47-0.079l-1.514-2.018c0,0,0.037-0.053,0.102-0.142
			c-2.871-1.394-5.513-2.153-6.587-3.083l-2.091,1.711c0,0,0,0.505-1.009,2.522c-1.01,2.018-0.505,4.54-0.505,4.54
			s0.197,2.378-1.517,4.525c5.03,1.982,10.202,3.685,15.486,5.109C108.346,287.721,108.393,287.358,108.519,287.106z"/>
		<polygon fill="#F5A21E" points="168.553,141.311 170.57,137.779 174.606,132.734 165.525,137.274 165.525,142.067 		"/>
		<path fill="#F5A21E" d="M179.562,146.063c-1.57,0.582-3.586,1.446-4.45,2.311c-1.514,1.514-1.514,4.036-1.514,4.036l5.549-3.027
			L179.562,146.063z"/>
		<path fill="#F5A21E" d="M156.48,193.813l-0.54-0.54C155.94,193.272,156.122,193.808,156.48,193.813z"/>
		<path fill="#F5A21E" d="M101.455,159.472c0,0-2.429-2.025-3.054-3.124c-0.624,0.196-1.342,0.462-1.974,0.799l-2.687,3.07
			c-0.229,0.451-0.357,0.769-0.357,0.769s-0.505,1.514,0.504,3.531c1.01,2.019,1.01,2.019,1.01,2.019l5.045-5.046L101.455,159.472z"
			/>
		<path fill="#F5A21E" d="M70.289,264.704c0.783-0.671,1.558-1.244,2.41-1.813c3.027-2.019,5.55-1.514,5.55-4.036
			c-1.573,0-2.983,0-3.531,0C73.224,258.855,73.202,259.352,70.289,264.704z"/>
		<polygon fill="#F5A21E" points="159.977,136.266 160.087,137.702 163.508,137.274 163.003,133.743 		"/>
		<path fill="#F5A21E" d="M181.911,140.543l1.562-3.317c-0.744-0.235-1.299-0.456-1.299-0.456s0.26-0.846,0.64-1.998l-4.171,2.502
			L181.911,140.543z"/>
		<path fill="#F5A21E" d="M177.633,129.707l6.559,0.504l-0.123,0.985c0.414-1.085,0.821-2.032,1.132-2.499
			c0.246-0.369,0.43-0.736,0.571-1.083l-6.12-1.44L177.633,129.707z"/>
		<path fill="#F5A21E" d="M130.716,37.386l4.988-9.585c-5.082,0-6.502,0-6.502,0s0.505-1.009-1.514,0.504
			c-2.018,1.514-8.071,6.559-8.071,6.559s1.139,0,1.147,0c-0.009,0-1.147,0-1.147,0c-0.646,0-1.61,0-3.027,0
			c-7.063,0-9.081-0.504-9.081-0.504l-0.504,5.549v6.054c0,0-3.531,7.063-5.045,7.063s-4.036,0-4.036,0s-0.504,1.009-3.026,1.009
			s1.009,0.505-2.522,0c-3.531-0.504-5.55-2.522-5.55-2.522l-2.018-7.567l-2.522-6.558c0,0-2.522,0.504-2.522,2.522s0,5.044,0,5.044
			s0,2.523-5.045,2.523s-5.045,0-5.045,0l-4.036,9.585c0,0,3.531,1.009-1.514,1.009c-5.044,0-7.566,0.505-9.08,0.505
			s-3.027,1.513-4.541,3.027c-1.513,1.514-4.035,3.531-4.035,3.531s-2.019,1.514-3.027,3.532c-1.009,2.018-1.514,4.036-1.514,4.036
			l3.027,4.036c0,0,2.522,1.009-1.514,2.522c-4.035,1.514-6.054,1.514-6.054,1.514s-1.009,2.522-1.009,4.036
			c0,1.513,3.027,1.009,0,4.036s-4.54,5.549-4.54,5.549l3.531,3.532v2.522l-0.505,4.541l-1.514,4.54l-1.009,2.019
			c0,3.027,0,7.567,0,7.567l1.514,1.009l0.504,5.045l-4.035,6.558c0,0,0.504,6.054,0.504,8.072s0,3.531,0,3.531s0,6.559,0,9.585
			c0,3.027-0.504,3.531-0.504,6.055c0,2.521-1.01,4.035-1.01,4.035s-0.77,2.154-2.055,3.999l2.56,2.56l2.725,4.54
			c1.671,0,3.972,0,6.861,0c6.558,0,8.576,0,8.576,0l7.32-2.994c-0.149-0.606-0.258-1.042-0.258-1.042h2.803l1.233-0.504
			c0,0-1.514-0.505,1.513-4.036c3.027-3.531,6.559-6.054,6.559-6.054l-7.063-6.054c0,0-0.505-1.514-0.505-3.531
			c0-2.019,1.009-7.567,1.009-7.567l1.514-1.513l-0.801-5.075l-0.713-0.475l0.577-0.384l-0.577-3.651l-0.62-1.241
			c-7.346-0.777-9.47-0.777-9.47-0.777l-1.009-6.559c0,0,4.541-5.549,7.567-5.549c3.027,0,10.595,0,10.595,0
			s5.044,7.063,5.549,9.081s2.019,11.603,2.019,11.603l1.621,2.838c0.396-2.386,0.396-5.36,0.396-5.36s0.953-3.173,2.103-4.737
			c-0.397-2.807-3.283-7.857,4.456-4.848c9.08,3.531,9.08,9.081,9.08,12.107c0,3.027,0,13.117,0,13.117s-1.861,2.608-0.46,3.661
			c0.896-0.661,1.469-1.139,1.469-1.139l2.523-3.531l4.54-2.522c0,0,1.009,2.018,1.009,4.54s-2.018,4.036-2.018,4.036
			c4.54,1.514,2.018-0.505,2.018-0.505s6.559,1.514,8.072,0.505l-0.505-2.018l-1.514-1.514l-1.009-5.045h4.54h2.522l3.027-1.009
			c0,0,1.009,3.532,3.026,2.018c2.019-1.514,1.01-1.514,1.01-1.514h2.018c0,0,0,0,3.027,0c3.026,0,3.531,0,3.531,0h1.514
			c0,0,3.531,0,5.549,0.505c2.018,0.504,1.514,1.514,1.514,1.514l1.009,2.018v1.514l0.505,1.514h4.035l2.522-2.019l5.046-5.045
			l3.026,3.027c0,0,0,3.026,1.009,6.558c1.01,3.532,0,0,4.036,2.523l-2.018,4.54c0,0-3.531,1.514-6.054,2.018
			c-2.522,0.505-1.01,3.531-1.01,3.531s-2.521,1.009-4.036,0.505c-1.514-0.505-4.54-2.522-6.054-3.026
			c-1.514-0.505-5.045-0.505-5.045-0.505l2.018,6.054l6.559,3.531h1.514l3.027,0.505c0,0-2.019,6.054-2.019,7.567
			c0,1.513,2.523,2.522,4.541,4.036c0,0,0,2.521,0,4.54c0,2.018,1.514-0.505,1.514-0.505s0,0,1.009-1.514
			c1.009-1.513,3.531-2.521,3.531-2.521l1.514,0.504c0,0,0,2.522-1.009,4.54c-0.407,0.814-0.73,1.049-0.974,1.045l3.496,3.496
			l1.514-1.514c0,0,2.018-2.522,2.521-4.036c0.505-1.514,0-3.531,0-3.531s0-2.522,0-4.54c0-2.019,0.505-4.036,0.505-7.063
			c0,0,0-1.513,0-4.54s-2.018-2.019-2.018-2.019s-1.514,0-4.036,0s-3.531-1.009-2.522-3.53l9.081-3.532l4.54,4.541v3.026
			l2.522-0.505c0,0,0,0,2.019-0.504c2.018-0.505,1.513,0.504,1.513,0.504s-2.018,6.055-4.54,6.055s0,0-1.514,1.009s0,2.522,0,2.522
			h3.027v3.026c0,0,0,2.522,0,5.046c0,2.521,1.009,2.521,1.009,2.521l2.018-2.521v-5.55l3.027-2.018c0,0,1.009,1.513,1.514,3.026
			c0.504,1.514,1.513,5.55,1.513,5.55s0,2.018,0,4.54s-1.009,2.522-1.009,2.522h-3.027c0,0-1.513,0-4.035-0.504
			c-2.522-0.505-3.027,2.521-3.531,4.035c-0.505,1.514,3.026,2.522,3.026,2.522h1.514l2.522,0.504v2.019l2.289,3.663
			c-2.647,0.783-4.952,1.382-5.82,1.382c-2.522,0,0,0-2.522,0c-0.848,0-1.291,0-1.514,0l-2.018,1.009c0,0,0,0-4.036,1.01l4.036,3.53
			h-4.541h-3.026c0,0,0,0-1.009-2.018l5.044-6.559l-2.521,0.505c0,0,0,0-2.522,0s-1.01,1.514-3.027,3.026
			c-2.018,1.515,0,2.019-2.018,4.036c-2.019,2.019-3.532-0.504-3.532-0.504l-0.504-6.559l-1.009-2.018c0,0-1.009-4.541-1.009-6.055
			c0-1.513-1.01-3.026-1.01-3.026h-2.019l-1.513,1.514c0,0,0,0,0,1.513c0,1.514-2.522,0.505-2.522,0.505s-3.027,0-4.541,0
			c-1.513,0-3.531-2.522-3.531-2.522l-3.531-5.55h-2.522h-4.036c0,0-2.522,0-4.54,0c-1.009,0-1.387,0-1.514,0l-4.035,0.505
			l-0.505,4.036l-8.576,1.514h-2.019l-2.522-4.541c0,0,0-5.044-0.504-6.558c-0.505-1.514,1.009-3.532,1.009-3.532
			s3.027-2.521,6.559-5.549s-1.514-6.559-1.514-6.559l-4.036,0.505l-3.026,2.018h-4.541v-3.531l-8.017-2.807
			c-2.185,0.283-4.091,0.284-4.091,0.284s-2.522,0-0.505,1.514c2.019,1.513,10.09,1.009,11.1,3.026
			c1.009,2.019,3.026,2.522,3.026,6.054c0,3.532,2.019,1.514,0,5.045c-2.018,3.532,5.55,2.019-2.018,3.532s-11.604,4.54-11.604,4.54
			l4.54,1.009l2.019,1.009c0,0,0.504-1.009,0,1.514c-0.505,2.522,0,3.531-3.027,3.531c-3.026,0-5.045-8.071-5.045-8.071
			s-1.514-5.55,1.009-5.55c2.523,0,9.081-1.514,9.081-1.514l0.505-2.521H87.33c0,0-5.045,1.513-6.559-0.505
			c-1.29-1.721-2.579-8.57-2.933-10.554c-0.059,0.587-0.095,0.968-0.095,0.968s0.505,2.019-2.018,2.523
			c-1.227,0.245-2.213,0.37-3.079,0.435l-0.452,1.583c0,0-0.505,3.531-0.505,6.054s10.09,25.225,10.09,25.225
			s1.01,2.522,3.027,5.044c2.018,2.523,2.522,3.532,3.026,5.55c0.505,2.018,0.505,5.55,0.505,5.55l9.585-0.505
			c0,0,0.505-10.089,2.522-0.504c2.019,9.585,3.532,13.116,3.532,13.116l4.54-16.144c0,0,0.504,2.522,2.522,2.019
			c2.018-0.506,5.045-4.541,5.045-4.541l-5.55-1.009l-1.009-7.567l7.567,0.505l2.018,2.018v4.036l6.559-4.036l0.505,5.549
			l5.045-1.513h5.044c0,0-5.549,5.549-8.576,5.549c-3.026,0,4.036-1.009-3.026,0c-7.063,1.01-9.081,3.027-9.081,3.027
			s-10.594,0-0.505,4.035c5.964,2.386,14.041,3.89,19.65,4.722c1.614-2.057,1.128-3.063,5.123-2.579l-0.968-2.257
			c-4.934-1.397-0.599-1.398-0.599-1.398l0.599,1.398c0.645,0.182,1.438,0.387,2.428,0.619c1.829,0.431,3.818,0.86,5.817,1.271
			c1.263-1.14,6.772-5.992,10.327-7.325c4.036-1.514,0.504,2.018,0.504,2.018l7.567,0.505l2.019,0.505h3.026
			c0,0,5.55-1.01,11.099-2.522c5.55-1.515,0,0,4.541-4.541c4.54-4.54-1.01-1.514-1.01-1.514l-7.063-3.53
			c0,0,6.054-7.063,8.576-9.586s8.072-0.505,8.072-0.505l-4.036,10.091l-1.009,1.513c0,0,1.514,0,3.531,0
			c2.019,0,3.531-0.504,5.045-1.513c1.514-1.01,0.504-1.515,1.009-3.027c0.505-1.514-1.514-8.576-1.514-8.576l2.522-0.505
			l1.514-2.522l4.036-8.576l-4.541,4.036c0,0-2.018,1.514-4.035,2.018c-0.762,0.19-2.674-0.554-4.759-1.554
			c-3.438-1.649-7.35-3.995-7.35-3.995l7.567-3.027l6.054-2.018l-2.018-1.514c0,0-5.045-1.514-3.531-4.036s0,0,1.514-1.514
			c1.514-1.513,1.009-3.531,1.009-3.531s0,0,0-1.514s-0.504-2.522-0.504-2.522l-6.559-1.513l-15.135-15.135l-2.019-1.009
			l-0.504-4.036l-2.522-1.009l-3.027-3.027v0.504l-2.522,1.009l-2.536-2.198l0.014,0.18c0,0-6.558-2.018-7.063-3.531
			c-0.504-1.514,0-2.018,0-2.018s3.531-3.531,5.045-5.045s-1.009-3.531-1.009-3.531h-2.522l-5.55,3.027c0,0-1.891-1.894-2.905-3.502
			c-0.076-0.018-0.122-0.029-0.122-0.029l-2.018-4.036l-3.639,3.639c0.54,0.44,0.973,1.05,1.116,1.911v2.522v2.522l-5.045,4.541
			c0,0-1.009-3.531-2.522-3.531s-3.026-0.505-3.026-0.505h-1.514c0,0-1.514,0-3.531,0c-2.019,0-2.522-0.504-2.522-0.504
			l-0.505-2.018l2.018-0.505l3.027-1.009l-0.505-3.027h-1.513l-3.532-2.018l-1.009-3.027c0,0-4.54-3.531-5.549-0.505l-3.027,4.036
			l-3.531,6.054v1.513l10.09,2.522l-1.514,2.522l-2.018-1.009c0,0-6.559-4.036-8.072-4.036s-2.522,0-2.522,0l-5.549-1.513h-5.55
			l4.036-1.009c0,0,1.514-0.504,2.018-2.018c0.505-1.513,6.054-0.504,6.054-0.504h3.027l1.009-6.054l-2.522-2.522l-2.018-2.018
			l-3.531-0.504l-2.522-5.045c0,0-1.514,1.009-3.531,1.514c-2.019,0.504,5.044,5.549,5.044,5.549l4.036,4.036h-2.522
			c0,0-6.558-2.522-8.071,0s-4.541,1.009-6.054,1.009c-1.514,0-5.55-2.018-5.55-2.018L82.79,117.6l5.044,1.009l3.027-0.504
			l-1.009-5.045l-2.522,0.504l-0.836-1.215c-1.373-0.456-2.746-1.181-3.2-2.316v-2.339l-1.514-2.201h5.55v-1.513l2.018-5.045
			l-1.514,2.018c0,0-3.026,0.505-5.044,0.505c-2.019,0-1.514-1.009-1.514-1.009l-1.514-2.018l-3.531,1.009
			c0,0-1.009,2.522-1.009,5.045s3.026,6.558,3.026,6.558h-1.514l-3.026-0.504v-4.036c0,0-1.514,4.036-2.522,7.567
			c-1.009,3.532-13.621-2.018-13.621-2.018l11.603-0.504h-7.566l0.504-3.027c0,0,1.514,0,4.036,0c1.448,0,1.896,0,2.018,0v-1.513
			c0,0,1.514-2.522,3.027-5.045c1.513-2.522,0-3.027,0-3.027l-6.054,3.027l7.063-8.576l1.514,13.117v-2.522v-2.018l1.514-6.054
			l1.009-2.522l1.009-3.027l-3.027-0.504l-10.09-12.612h5.045c0,0,3.027,1.009,4.541,2.018l-6.054,0.504l6.054,5.045l3.026-1.009
			l-1.513-1.513l3.026-3.027l2.522-2.522v-2.523l1.009-2.522h5.045c0,0,5.55,0,8.072,0l3.531-5.55l2.522,1.514l1.009,3.027
			c0,0,0,0,3.027,3.531c0,0,0,0,0.504,3.532c0.505,3.531,3.027,0,3.027,0l1.009-3.532l1.009-2.522l0.505-3.027l-3.027-1.009
			l-4.54-1.009c0,0,6.054-4.036,7.567-6.559s0.504-3.027,0.504-3.027v-2.018l3.531-3.532l4.541,2.522c0,0,2.018-0.504,2.522-2.522
			c0.504-2.018,0-4.036,0-4.036l6.558-10.595l2.259,4.065c0.156-0.643,0.265-1.038,0.265-1.038L130.716,37.386z M52.521,135.761
			c0,0,1.009-1.514,1.009,3.531c0,5.044,0,3.027-2.018,7.063c-2.019,4.036-5.55,5.045-5.55,5.045
			c4.54,4.035,9.081,4.035,9.081,4.035s4.54,4.036,1.514,5.55c-3.027,1.514-7.567,1.514-7.567,1.514l-4.036,1.513
			c0,0-1.009,0.505-1.514,2.523c-0.505,2.018-1.514,3.53-1.514,3.53l-1.513,0.505c0,0-5.045-1.514-6.055-4.035
			c-1.009-2.523-1.513-6.055-1.513-6.055h4.54c0,0,1.514-1.009,3.027-1.009c1.513,0,1.513,0,1.513,0l3.532-0.504
			c0,0,2.018-5.045-1.01-5.045c-3.026,0-7.063,0-7.063,0l-1.514,2.521l-2.018,0.505c0,0-0.505-3.026-0.505-4.54s0-4.541,0-4.541
			l3.531-4.036c0,0,0.505-1.009,2.523,0c2.018,1.009,2.018,3.027,2.018,3.027l1.009,2.522l5.55-2.018l-2.019-4.036
			c0,0-1.514,0-3.531-1.009s-6.559-4.541-6.559-4.541l-2.018-6.558l3.531-1.514l2.522-1.513c0,0-1.514-1.009,0-3.027
			s1.514-2.018,1.514-2.018s3.531-1.009,4.036,1.513c0.504,2.523,0.504,4.541,0.504,4.541l-1.514,3.027l-1.009,2.522l0.505,4.541
			l2.018,1.009h1.514h0.683l-3.205-4.54l2.522,0.504L52.521,135.761z M46.467,110.032l-2.019-6.054l-1.514,3.531l2.019,3.027
			l-1.514,2.522l1.009,5.045l-7.063-6.558l2.019-9.081l-1.01-3.027l5.55,1.513h5.045l1.513,1.514l1.514,7.063L46.467,110.032z
			 M52.521,100.447l-5.55-2.018l-7.063-3.532l2.522-3.027l4.54-5.045l-1.513-4.54c0,0,6.054-0.505,7.063,2.018
			c1.009,2.522,1.009,10.594,1.009,10.594l5.045,4.036l2.018,6.558L52.521,100.447z M105.018,74.249
			c0.003,0.003,0.005,0.006,0.008,0.01C105.022,74.255,105.02,74.252,105.018,74.249z M105.091,74.335
			c0.02,0.023,0.04,0.045,0.059,0.068C105.129,74.378,105.108,74.355,105.091,74.335z M105.19,74.452
			c0.041,0.047,0.079,0.092,0.117,0.136C105.266,74.539,105.227,74.494,105.19,74.452z M105.369,74.66
			c0.021,0.025,0.044,0.051,0.064,0.074C105.412,74.709,105.391,74.685,105.369,74.66z M105.923,75.306
			c0.037,0.043,0.072,0.083,0.104,0.12C105.993,75.388,105.959,75.347,105.923,75.306z M105.562,74.884
			c0.044,0.051,0.088,0.104,0.128,0.149C105.646,74.983,105.604,74.934,105.562,74.884z M105.697,75.042
			c0.04,0.047,0.077,0.089,0.113,0.131C105.772,75.13,105.735,75.086,105.697,75.042z M106.117,75.532
			c0.015,0.017,0.025,0.03,0.038,0.044C106.143,75.562,106.131,75.548,106.117,75.532z M106.192,75.62
			c0.023,0.027,0.042,0.05,0.06,0.07C106.234,75.669,106.215,75.646,106.192,75.62z M106.296,75.74
			c0.012,0.014,0.02,0.023,0.025,0.03C106.315,75.764,106.307,75.754,106.296,75.74z"/>
		<path fill="#F5A21E" d="M190.245,154.427h2.522l6.559,3.027l-3.026-3.027l-1.009-2.018l0.504-1.514h1.514
			c0,0,3.026-3.027,3.026-4.541s3.532-2.522,3.532-2.522s0,0,5.044,3.027c5.045,3.027-0.504,3.531-0.504,3.531l-2.019,1.01
			c0,0-1.606,1.612-2.311,4.112c-1.811,1.041-3.687,1.941-4.752,1.941h2.522l4.54,8.576v7.063c0,0,0,3.392,0,7.567l4.037-11.604
			l3.026-3.531l4.035-2.522l2.019-4.035l-1.01-4.036h-2.018l-2.522,3.026c0,0-1.513,1.514-5.045,6.054l-3.531-0.504v-2.522
			l0.858-2.085c1.18,0.17,2.49,0.067,3.178,0.067c1.514,0,2.019-1.01,3.027-3.027s2.521-4.036,3.026-6.054
			c0.505-2.019,0-1.514,0-1.514s-0.505-2.018-2.018-5.045c-1.514-3.027-2.522,0-2.522,0l-2.522,1.009l-0.505-6.054
			c0,0-3.531,1.009-5.044,1.009c-1.234,0-1.463,0.67-2.598,2.283c-0.257,0.367-0.561,0.782-0.935,1.249l-1.514,5.044H196.3
			l-5.045-0.504v-1.514c0,0-3.531-8.072-5.045-8.072c-0.637,0-1.45-0.178-2.18-0.385l5.206,9.466L190.245,154.427z"/>
		<path fill="#F5A21E" d="M160.48,102.969l6.559,7.063h6.054l-0.504-4.541c0,0,0-2.522-1.01-5.045l-5.044-0.504L160.48,102.969z"/>
		<path fill="#F5A21E" d="M193.777,221.523c-0.315-0.946-0.335-1.99-0.245-3.087l-1.269,0.564L193.777,221.523z"/>
		<path fill="#F5A21E" d="M140.301,103.979l-3.531-5.549l6.559,0.504l3.026,1.513v3.027v2.523l-4.036,3.026l-2.018,2.523
			l3.027,3.531l2.522,0.504l2.355,0.643c0.104-0.405,0.167-0.643,0.167-0.643l5.045,2.018l5.045-3.532l-3.027,9.585
			c0,0,2.522-0.504,4.036-1.514c1.514-1.009,5.55-10.089,5.55-10.089l-6.559-4.036h-1.514l-4.54-3.531l-2.522-8.072l6.054,2.018
			l1.009,7.063l2.019-5.549l11.603-2.522l10.09-4.036l-9.081,7.063c0,0,6.054,0.504,8.072,1.514l-2.522,3.027l-2.018,3.531h3.531
			l0.504-1.513l3.027-1.514h8.071l1.01,1.514c0,0,6.054-4.036,5.549-5.549c0,0-2.522,0-4.036,0c-1.513,0-2.522,0-2.522,0
			l-1.513-3.027v-3.532l-1.009-3.531c0,0-10.595,0-14.126,0s-1.514,1.009-1.514,1.009s-2.018,0-4.54,0.505
			c-2.522,0.504-2.019,2.018-5.045,3.026v-2.018l-5.045-2.522l-2.019,1.009c0,0-3.531,1.514-8.071,4.036
			c-1.582,0.879-2.122,1.328-2.283,1.521c-0.03-0.132-0.268-0.348-1.249-0.512c0,0,0-3.531,0-5.045c0-1.513,5.046-4.541,5.046-4.541
			l4.54-1.009l0.505-3.027l2.522-5.549h-2.522c0,0-2.522,0.504-5.55,0.504s-3.027,0-2.522,2.018c0.504,2.018,0,0,2.522,3.532
			c2.522,3.531-1.009,2.018-1.009,2.018l-0.521,0.208l-4.525,1.81h-1.513l-2.019,0.504v3.531l-5.549,6.054l-1.009-2.523V92.88
			l-0.505,7.567L140.301,103.979z"/>
		<polygon fill="#F5A21E" points="168.048,115.582 177.633,125.167 187.219,118.104 187.664,122.556 189.741,118.104 
			187.724,116.086 185.705,115.582 180.66,119.113 180.66,112.555 179.564,115.111 179.146,116.086 176.12,116.086 174.606,116.086 
			172.589,114.573 173.093,110.032 171.075,112.555 		"/>
		<path fill="#F5A21E" d="M138.396,126.805c1.505-1.925,3.83-5.17,2.41-5.17c-2.019,0-3.532,5.045-3.532,5.045
			S137.753,126.683,138.396,126.805z"/>
		<path fill="#F5A21E" d="M93.384,95.906l0.459-0.688c0.834,0.39,1.862,0.688,3.072,0.688c3.531,0,2.522,0.505,2.522,0.505
			l3.531,4.036h-3.531c0,0-2.522-0.504-6.054,0l4.036,2.522l3.531,1.514l4.54,0.504l7.567-3.027c0,0,0,0,3.531-6.054
			c0.446-0.764,0.868-1.383,1.265-1.882c-0.377-0.025-0.794-0.069-1.265-0.136c-7.063-1.009-1.514-0.504-1.514-0.504l1.01-3.531
			l-3.027-3.027c0,0-3.531-0.504-6.054,1.009c-2.522,1.514,0,0-0.505,2.523c-0.194,0.973,0.887,2.019,2.288,2.939l-9.351-4.453
			l-0.505-3.531l-2.018,2.522L94.76,89.99l-0.367-1.651c0,0-1.514,0-3.026,0c-1.514,0-1.514,0-3.532,0.504c0,0,0,2.522,0,4.541
			c0,2.018,0.505,3.531,0.505,3.531l1.009,2.018l2.524,0.947C91.473,98.639,93.384,95.906,93.384,95.906z M114.067,95.906
			c0,0-2.522,0-4.035-0.504c-1.246-0.415-0.442-1.171-0.119-1.426C111.923,95.102,114.067,95.906,114.067,95.906z"/>
		<path fill="#F5A21E" d="M122.14,92.88l4.54,0.504l3.027,1.513l2.522-2.018l2.018-4.036l-1.514-3.027c0,0,0,0-2.018,0
			c-2.019,0-4.036-0.504-4.036-0.504l-3.026-1.514l-4.036,1.514H117.6l2.018,2.018v3.532c0,0,0.593,0.594,0.926,1.269
			C121.582,92.047,122.14,92.88,122.14,92.88z"/>
		<path fill="#F5A21E" d="M288.62,162.499l-0.504,5.045l0.504,4.035c0,0,0.505,9.081-1.009,11.099
			c-1.514,2.019-3.531,3.027-3.531,3.027v6.559l-3.027,3.531l-7.063,17.152l-2.018,3.027l1.504,4.139
			c10.754-18.521,17.573-39.61,19.302-62.126l-2.645,4.512H288.62z"/>
		<path fill="#F5A21E" d="M268.44,73.205l3.027,3.027l2.522,2.522c0,0,0,5.045,0.505,6.559c0.504,1.513,3.53,0,3.53,0l2.201,0.88
			c-3.187-7.033-6.917-13.765-11.127-20.153l-4.694,3.129L268.44,73.205z"/>
		<path fill="#F5A21E" d="M251.793,54.034c0,0,1.009,4.541,5.045,10.594c4.035,6.054,0,0,1.514,0c1.513,0,2.018,1.513,2.018,1.513
			h2.522c0,0,2.691-2.245,3.42-4.194c-3.298-4.655-6.864-9.107-10.67-13.338c-0.284,0.19-1.003,0.669-2.84,1.894
			C249.774,52.521,251.793,54.034,251.793,54.034z"/>
		<path fill="#F5A21E" d="M287.611,112.555v3.027c0,0-1.009,9.585-1.009,11.604c0,2.018,1.514,6.054,1.514,6.054l2.522,2.018
			l-2.019,7.063v2.522l4.59,1.377c-0.036-14.027-2.046-27.589-5.759-40.429C287.248,109.261,287.611,112.555,287.611,112.555z"/>
		<path fill="#F5A21E" d="M223.542,37.891c-2.522,0-0.505,4.036-2.522,0c-2.018-4.036-2.523-7.567-2.523-7.567
			s-9.08-3.531-11.603-3.531s-4.035-2.018-4.035-2.018l0.504-7.063c0,0-1.009,3.027-2.522,4.036s-6.559,2.522-6.559,2.522
			s-1.514,0-2.018,2.522c-0.505,2.522,2.522,4.036-1.009,6.054s-7.567,2.018-7.567,2.018l-1.514-5.045l-8.576-1.514
			c0,0,1.514,4.036-0.505,4.036c-2.018,0-6.558-2.522-6.558-2.522l-0.505-4.541l-1.009-1.513l-6.054-5.045
			c0,0,2.522-0.504-3.027-1.514c-5.55-1.009-7.063-0.504-7.063-0.504s-2.523,3.027-6.055,6.054c-3.531,3.027-4.54,4.541-4.54,4.541
			s3.531,0.504-2.019,0.504c-0.195,0-0.374,0-0.561,0l-4.988,9.585l0.505,2.522c0,0-0.108,0.395-0.265,1.038
			c-0.434,1.773-1.249,5.451-1.249,8.043c0,3.531,1.514,0.504,1.514,0.504l1.513-1.009c0,0,3.027-3.027,4.036-4.541
			c1.009-1.513,0.504-2.522,0.504-2.522l1.01-3.532c0,0,0,0,4.035-0.504l4.036,5.549l5.046-5.549l2.522-2.018c0,0,0,0,2.018,0
			c0,0-2.522,3.027-2.018,6.054c0,0,3.026-0.505,4.54-0.505s3.531-1.513,3.531-1.513s2.522,0,4.036,0s4.54,0,6.054,1.009
			c1.514,1.009,5.045,0.504,6.559,0.504s6.558,0.505,6.558,0.505v2.522l-1.513,4.036c0,0-2.019,1.513-3.531,3.027
			c-1.514,1.513-2.523,0-2.523,0l-3.026-6.054V43.44l-2.018-1.009c0,0-3.532,2.522-3.027,4.036s4.036,6.054,4.036,6.054l1.009,2.523
			c0,0,0,0,3.026-0.504c3.027-0.505,5.046-2.523,5.046-2.523l4.54-3.531l5.045-1.513c0,0,2.018-1.009,3.531-3.027
			c1.514-2.018,1.009-4.036,1.009-4.036l0.505-1.514l1.009-2.018l1.009-5.549l1.514-0.504l2.522-3.027l4.54,1.514l-3.531,8.071
			c0,0,7.063,2.018,9.081,2.018s5.044,1.009,5.044,1.009l0.506,4.54l1.009,5.045l2.521-0.504v-4.036l0.505-1.513l4.541,1.009
			l2.521,1.514l-0.504-5.549C229.596,40.413,226.063,37.891,223.542,37.891z"/>
		<path fill="#F5A21E" d="M285.5,99.552c-0.815-2.406-1.695-4.782-2.629-7.13l-2.322,3.484
			C280.549,95.906,283.413,97.436,285.5,99.552z"/>
		<path fill="#F5A21E" d="M230.1,45.962l1.01,2.018c0,0,4.54,2.522,6.558,4.54c2.019,2.019,3.027,2.523,5.045,2.019l1.514-0.505
			h5.045c0,0,0,0,0-2.018c0-1.785,5.129-3.174,6.313-3.472c-0.407-0.453-0.819-0.901-1.233-1.35c-4.048,0.408-8.105,1.29-8.105,1.29
			L230.1,45.962z"/>
		<path fill="#DB6E27" d="M87.33,113.563l2.522-0.504c0,0-1.68-0.154-3.358-0.71L87.33,113.563z"/>
		<path fill="#DB6E27" d="M87.33,105.492h-5.55l1.514,2.201v-1.696l7.567,0.504l7.063,1.513l-5.045,10.594l1.514-6.054l-4.54,0.504
			l1.009,5.045l-3.027,0.504L82.79,117.6l0.504,5.549c0,0,4.036,2.018,5.55,2.018c1.513,0,4.54,1.513,6.054-1.009s8.071,0,8.071,0
			h2.522l-4.036-4.036c0,0-7.063-5.045-5.044-5.549c2.018-0.505,3.531-1.514,3.531-1.514l2.522,5.045l3.531,0.504l2.018,2.018
			l2.522,2.522l-1.009,6.054H106.5c0,0-5.549-1.009-6.054,0.504c-0.504,1.514-2.018,2.018-2.018,2.018l-4.036,1.009h5.55
			l5.549,1.513c0,0,1.009,0,2.522,0s8.072,4.036,8.072,4.036l2.018,1.009l1.514-2.522l-10.09-2.522v-1.513l3.531-6.054l3.027-4.036
			c1.009-3.026,5.549,0.505,5.549,0.505l1.009,3.027l3.532,2.018h1.513l0.505,3.027l-3.027,1.009l-2.018,0.505l0.505,2.018
			c0,0,0.504,0.504,2.522,0.504c2.018,0,3.531,0,3.531,0h1.514c0,0,1.513,0.505,3.026,0.505s2.522,3.531,2.522,3.531l5.045-4.541
			v-2.522v-2.522c-0.144-0.86-0.576-1.47-1.116-1.911l3.639-3.639l2.018,4.036c0,0,0.046,0.011,0.122,0.029
			c-0.369-0.588-0.626-1.138-0.626-1.543c0-1.275,1.792-8.285,2.355-10.456l-2.355-0.643l-2.522-0.504l-3.027-3.531l2.018-2.523
			l4.036-3.026v-2.523v-3.027l-3.026-1.513l-6.559-0.504l3.531,5.549l-8.576-3.532l0.505-7.567l-2.522,2.018l-3.027-1.513
			l-4.54-0.504c0,0-0.558-0.833-1.597-0.75c-0.69,0.056-1.594,0.515-2.688,1.894c-0.396,0.499-0.818,1.118-1.265,1.882
			c-3.531,6.054-3.531,6.054-3.531,6.054l-7.567,3.027l-4.54-0.504l-3.531-1.514l-4.036-2.522l-1.512-0.566l-2.524-0.947
			l-2.018,5.045V105.492z M140.806,121.635c1.42,0-0.905,3.245-2.41,5.17c-0.643-0.122-1.122-0.125-1.122-0.125
			S138.787,121.635,140.806,121.635z M127.185,99.942h2.018l6.054,2.018l3.531,3.531v7.567l-1.009,5.045v2.522l-0.505,3.531
			l-6.558-0.504l-4.54-1.009l2.521-2.018c0,0,4.036-4.541,5.55-6.054c1.514-1.514,1.009-3.532,1.009-3.532s-6.054-6.558-9.08-7.063
			l-3.532-4.036H127.185z M108.519,103.979l8.071-3.532l-1.514,4.541v2.018l4.036-2.018l2.019,2.522l-1.514,4.036l10.594,1.009
			l-6.558,6.559l-8.072,1.513l-1.009-8.072c0,0-6.054-6.054-7.567-6.558L108.519,103.979z"/>
		<path fill="#DB6E27" d="M170.57,97.42l-11.603,2.522l-2.019,5.549l-1.009-7.063l-6.054-2.018l2.522,8.072l4.54,3.531h1.514
			l6.559,4.036c0,0-4.036,9.081-5.55,10.089c-1.514,1.009-4.036,1.514-4.036,1.514l3.027-9.585l-5.045,3.532l-5.045-2.018
			c0,0-0.063,0.238-0.167,0.643c-0.563,2.171-2.355,9.181-2.355,10.456c0,0.405,0.257,0.955,0.626,1.543
			c1.015,1.608,2.905,3.502,2.905,3.502l5.55-3.027h2.522c0,0,2.522,2.018,1.009,3.531s-5.045,5.045-5.045,5.045
			s-0.504,0.504,0,2.018c0.505,1.514,7.063,3.531,7.063,3.531l-0.014-0.18l2.536,2.198l2.522-1.009v-0.504l3.027,3.027l2.522,1.009
			l0.504,4.036l2.019,1.009c0,0,0-2.522,1.514-4.036c0.864-0.864,2.88-1.729,4.45-2.311l0.09-0.716l2.26-4.803l-3.269-3.269
			l4.171-2.502l0.874-0.524l0.381-3.051l0.123-0.985l-6.559-0.504l2.019-3.531l6.12,1.44l2.456,0.578l-0.563-5.638l-0.445-4.452
			l-9.586,7.063l-9.585-9.585l3.027-3.027l2.018-2.522h-6.054l-6.559-7.063l6.055-3.027l5.044,0.504l9.081-7.063L170.57,97.42z
			 M160.087,137.702l-0.11-1.437l3.026-2.522l0.505,3.531L160.087,137.702z M174.606,132.734l-4.036,5.044l-2.018,3.532
			l-3.027,0.756v-4.792L174.606,132.734z"/>
		<path fill="#DB6E27" d="M92.879,150.896c0,0,0-10.089,0-13.117c0-3.027,0-8.576-9.08-12.107c-7.739-3.01-4.854,2.041-4.456,4.848
			c0.299-0.408,0.611-0.708,0.924-0.812c1.514-0.504,0-1.009,3.027-1.009c3.026,0,5.55,0,5.55,0l1.513,1.513
			c0,0,1.514,2.523,1.514,4.036c0,1.514-1.514,3.531-1.514,3.531l-4.036-4.036c0,0,3.027-0.504,0-1.514
			c-3.026-1.009-3.53,7.567-3.53,7.567l5.549,4.54c0,0-4.036,3.531-4.036,5.045s0,6.054,0,6.054s-3.531,3.027,0,3.027
			c2.445,0,6.099-2.418,8.116-3.906C91.018,153.504,92.879,150.896,92.879,150.896z"/>
		<path fill="#DB6E27" d="M146.859,228.082c0,0,0.096-0.088,0.268-0.242c-1.999-0.411-3.988-0.841-5.817-1.271
			c-0.989-0.232-1.783-0.438-2.428-0.619l0.968,2.257c0.684,0.083,1.491,0.208,2.469,0.381c8.577,1.513,11.1,6.558,11.1,6.558
			c6.054,1.009,11.604,0.505,11.604,0.505s0.5-0.3,1.057-0.32l0.232-2.417l-10.37,1.728L146.859,228.082z"/>
		<path fill="#DB6E27" d="M73.204,151.904c2.019,0,4.036,0,4.036,0h3.531c0,0,1.009-4.036-1.009-4.036c-2.019,0-8.072,0-8.072,0
			l-0.067,4.186C72.171,151.964,72.717,151.904,73.204,151.904z"/>
		<path fill="#DB6E27" d="M87.33,180.156h2.522l-0.505,2.521c0,0-6.558,1.514-9.081,1.514c-2.522,0-1.009,5.55-1.009,5.55
			s2.019,8.071,5.045,8.071c3.027,0,2.522-1.009,3.027-3.531c0.504-2.522,0-1.514,0-1.514l-2.019-1.009l-4.54-1.009
			c0,0,4.036-3.026,11.604-4.54s0,0,2.018-3.532c2.019-3.531,0-1.513,0-5.045c0-3.531-2.018-4.035-3.026-6.054
			c-1.01-2.018-9.081-1.514-11.1-3.026c-2.018-1.514,0.505-1.514,0.505-1.514s1.906-0.001,4.091-0.284l-2.072-0.725l-1.514-3.027
			c0,0-2.019-1.514-2.522,0c-0.373,1.118-0.745,4.436-0.915,6.095c0.354,1.983,1.643,8.833,2.933,10.554
			C82.285,181.669,87.33,180.156,87.33,180.156z"/>
		<path fill="#DB6E27" d="M70.289,264.704c2.913-5.353,2.935-5.849,4.429-5.849c0.548,0,1.958,0,3.531,0c0-2.522,0-5.55,0-5.55
			l-1.009-2.018c0,0-0.505,0-2.018,0c-1.514,0-3.027,0-3.027,0l-7.063-2.018v-4.036l0.504-1.514l-0.504-3.531l-1.514-1.513
			l-4.54-0.505l-3.027,5.045l-3.026,4.54l-3.532,3.027c0,0-1.503,1.5-5.505,0.514c6.758,6.626,14.154,12.601,22.089,17.826
			C67.753,267.113,69.036,265.776,70.289,264.704z"/>
		<path fill="#DB6E27" d="M159.472,245.234l-3.026-4.036c-3.027-1.513-8.576-1.513-8.576-1.513l-8.072-4.036l-3.532,3.027
			l-0.504,2.521v4.036c0,0,2.018,1.01,0,2.522c-2.019,1.514-2.522,3.027-2.522,3.027l2.018,3.026l7.161-5.704l0.911-2.367
			l2.018-0.505l2.523,1.514l0.099,0.078c1.85-0.276,4.285-0.582,5.955-0.582c3.026,0,11.099,0,11.099,0l0.193-2.001l0.232-2.397
			c-1.19,1.174-2.444,1.875-2.444,1.875L159.472,245.234z"/>
		<path fill="#DB6E27" d="M73.204,126.176c-0.505-2.018-5.549-9.081-5.549-9.081s-7.567,0-10.595,0
			c-3.026,0-7.567,5.549-7.567,5.549h1.514h5.55l0.504-3.531l4.036,4.036l9.081,4.541c0,0,1.513-1.514,1.513,1.009
			s-2.018,7.063-2.018,7.063s-3.026,1.513,1.009,4.036c4.036,2.522,4.541,5.045,5.55,3.027c0.271-0.541,0.467-1.335,0.612-2.207
			l-1.621-2.838C75.223,137.779,73.709,128.194,73.204,126.176z"/>
		<path fill="#DB6E27" d="M127.688,239.686c0,0-2.018,0.504,0-2.019c2.019-2.522,2.019-2.522,2.019-2.522s-3.027,2.019,2.522-2.018
			c1.213-0.883,1.969-1.669,2.497-2.342c-5.609-0.832-13.687-2.336-19.65-4.722c-10.089-4.035,0.505-4.035,0.505-4.035
			s2.019-2.018,9.081-3.027c7.063-1.009,0,0,3.026,0c3.027,0,8.576-5.549,8.576-5.549h-5.044l-5.045,1.513l-0.505-5.549
			l-6.559,4.036v-4.036l-2.018-2.018l-7.567-0.505l1.009,7.567l5.55,1.009c0,0-3.027,4.035-5.045,4.541
			c-2.019,0.504-2.522-2.019-2.522-2.019l-4.54,16.144c0,0-1.514-3.531-3.532-13.116c-2.018-9.585-2.522,0.504-2.522,0.504
			l-9.585,0.505c0,0,0-3.532-0.505-5.55c-0.504-2.018-1.009-3.026-3.026-5.55c-2.018-2.521-3.027-5.044-3.027-5.044
			s-10.09-22.702-10.09-25.225s0.505-6.054,0.505-6.054l0.452-1.583c-0.485,0.036-0.935,0.054-1.363,0.063l-0.098,6.061v8.072
			l-1.009,2.522l3.026,4.54c0,0-0.505-2.522,2.019,0.505c2.521,3.026,7.063,14.63,7.063,14.63l0.505,4.036
			c0,0-3.027,2.522-3.027,4.035c0,1.514,0.504,6.055,1.514,8.072c1.009,2.018,5.549,7.063,5.549,7.063s-0.505,0.505,1.514,1.009
			c2.018,0.505,4.54,0.505,4.54,0.505s3.027-0.505,3.027,2.018c0,2.523,1.009,9.586,1.009,9.586l1.009,2.018
			c0.849,0,1.58,0.173,2.181,0.4c0.511-0.242,1.123-0.677,1.855-1.409c3.027-3.027,4.036-6.054,6.054-6.054
			c2.019,0,4.036-4.036,4.541-0.505c0.504,3.531,0,7.567,0,7.567l14.125-6.559L127.688,239.686z"/>
		<path fill="#DB6E27" d="M61.169,134.872l2.45-1.633c0,0,7.567-2.018-1.514-3.027c-0.757-0.084-1.465-0.16-2.134-0.231l0.62,1.241
			L61.169,134.872z"/>
		<path fill="#DB6E27" d="M52.016,223.542v-2.522l-4.035,1.513c0,0-0.584,0.584-1.509,1.388c1.243,1.028,2.384,1.593,4.271,1.947
			C51.317,224.593,52.016,223.542,52.016,223.542z"/>
		<path fill="#DB6E27" d="M81.72,258.855c0.306,0,0.594,0,0.862,0c-0.139-1.227-0.297-2.018-0.297-2.018
			S82.144,257.539,81.72,258.855z"/>
		<path fill="#DB6E27" d="M31.371,208.445c0.16,0.4,0.316,0.853,0.466,1.339v-0.873L31.371,208.445z"/>
		<path fill="#DB6E27" d="M43.944,235.145c2.522-0.505,2.522-0.505,2.522-0.505l2.522-2.521l-0.505-2.019l-5.55-1.009
			c0,0-1.296-0.003-2.897-0.427c-0.389,0.263-0.633,0.427-0.633,0.427h-2.019l-6.054-2.019l-2.019-2.018
			c0,0-3.531-3.531-3.531-6.559c0-3.026,1.514-6.053,1.514-6.053l1.009-2.523l-1.009-1.513h-6.559l-3.259-5.796l-0.776-0.259
			l-0.505-2.018l1.281,2.276l12.088,4.03l-1.262-1.262c0,0,1.009-5.045,4.541-4.54c3.531,0.504,5.045,2.522,7.063,5.549
			c2.018,3.027,3.026,12.107,3.026,12.107s-2.018,0,1.01,3.027l1.514-0.504c0,0,1.482,0.37,2.86-1.113
			c0.229-0.247,0.455-0.545,0.671-0.905c1.513-2.522,4.54-9.585,4.54-9.585s1.514-2.522,3.027-2.522
			c1.513,0,7.566,4.035,7.566,4.035l-5.549,5.55l-4.54,3.532v3.531l1.431,2.146c1.732-0.351,3.875-0.903,6.14-1.544l0.501-0.602
			l0.545,0.302c7.163-2.075,15.094-4.843,15.094-4.843l-0.504-2.522l2.522-7.567l-14.63-7.567l-7.063-8.576l-3.026-1.009
			l5.045-7.063l8.071-3.531l-12.612,1.009l-6.558,6.054l-4.541,0.505L26.287,176.12l-1.477-5.906l-0.771-0.665
			c-0.253,0.041-0.513,0.051-0.779,0.013c-0.418-0.061-0.982-0.156-1.651-0.28c-0.146,0.163-0.273,0.413-0.366,0.784
			c-0.505,2.019-0.505,2.019-0.505,2.019v3.027l2.522,1.513l2.522,1.514l2.522,4.036l1.626,1.281l1.906-0.272h2.521l3.233,3.952
			l1.308,1.598l1.514,2.521c0,0,1.513,3.027,4.035,3.532s4.541,0.505,4.541,0.505l1.513,2.521h3.027l1.514,2.522l-4.036,1.009
			l-2.018-2.522h-5.55l-5.045-1.513c0,0,0-2.018,0-4.036s-4.036-8.072-4.036-8.072c-2.521,0-6.054,1.514-6.054,1.514l-3.026,1.01
			l-2.019-1.514l-1.514-2.019l-5.044,2.522v2.522c0,0,1.009,1.009-0.505,2.018c-1.514,1.01-1.514,1.01-1.514,1.01l-3.026,2.018
			l-2.754,2.754c6.194,16.909,15.415,32.358,27.005,45.694c2.249-2.068,4.02-3.007,7.827-3.04
			C43.031,238.007,42.279,235.478,43.944,235.145z"/>
		<path fill="#DB6E27" d="M122.644,288.115c0,0,3.532-2.018,7.567-4.54c4.036-2.522,3.027-1.513,3.027-1.513h2.522
			c0,0,5.045-2.019,8.071-3.532c3.027-1.514,3.532-0.505,5.55-1.009c2.019-0.505,5.55-3.026,5.55-3.026l2.522-1.514l6.558-1.009
			c0,0,3.027-4.036,4.036-8.072s-4.036-6.559-4.036-6.559l5.55-5.549c0,0,2.018-5.549,2.018-7.567s-11.099,8.071-11.603,10.595
			c-0.505,2.521-7.567-1.515-7.567-1.515c-0.483,0-0.706,0-0.799,0c-0.041,0-0.06,0-0.063,0c-0.114,0-0.419,0-1.157,0
			c-2.521,0-10.594-1.009-10.594,1.515c0,2.521,0,0,0,2.521c0,2.522-3.027,3.531-3.027,3.531l-3.027,2.523l0.505,6.558l-1.009,4.036
			c0,0,2.018,1.514-1.514,1.514s-12.612-0.505-12.612-0.505l-3.531-1.009c0,0-0.422,0.943-1.452,1.588
			c0.162,0.5,0.165,0.986-0.062,1.438c-1.513,3.027-4.54,8.072-5.549,10.09c-0.126,0.252-0.173,0.614-0.156,1.059
			c4.88,1.314,9.858,2.386,14.925,3.196C123.247,288.42,122.644,288.115,122.644,288.115z"/>
		<path fill="#DB6E27" d="M95.906,157.454c-0.979,0.652-1.745,1.936-2.165,2.763l2.687-3.07
			C96.245,157.244,96.069,157.346,95.906,157.454z"/>
		<path fill="#DB6E27" d="M138.882,225.949l-0.599-1.398C138.283,224.551,133.948,224.552,138.882,225.949z"/>
		<path fill="#DB6E27" d="M39.404,174.102c-2.89,0-5.19,0-6.861,0l0.303,0.505l1.009,2.522l1.009,1.514h3.027h2.018
			c0,0,15.639-5.55,16.144-4.036c0.369,1.108-0.343-1.841-0.751-3.499l-7.32,2.994C47.98,174.102,45.962,174.102,39.404,174.102z"/>
		<polygon fill="#DB6E27" points="71.522,158.294 71.458,162.295 73.204,160.985 		"/>
		<path fill="#DB6E27" d="M60.592,142.319c0,0-1.009,5.549-1.009,7.567c0,2.018,0.505,3.531,0.505,3.531l7.063,6.054
			c0,0-3.531,2.522-6.559,6.054c-3.026,3.531-1.513,4.036-1.513,4.036l-1.233,0.504h3.251c0,0-0.505,4.541,3.026-1.513
			c3.532-6.054,4.541-8.072,4.541-8.072v-2.523v-3.53l-3.531,1.514l-4.036-4.036v-2.522l5.045-1.009l3.026-1.514l-0.504-7.567
			l-3.854-1.778l-2.705-1.249l-0.801-0.534l0.801,5.075L60.592,142.319z"/>
		<path fill="#DB6E27" d="M94.393,278.53c0,0-0.505-2.522,0.505-4.54c1.009-2.018,1.009-2.522,1.009-2.522l2.091-1.711
			c-0.829-0.718-0.727-1.537,0.936-2.829c4.541-3.531,1.01-3.027,4.541-3.531c1.063-0.152,2.171-0.396,3.174-0.717l0.357-0.293
			v0.174c2.148-0.748,3.695-1.863,3.027-3.2c-1.01-2.019-7.063-3.531-7.063-3.531s-4.54-1.514-5.549,0
			c-1.009,1.513-1.514,5.044-1.514,5.044s7.567-2.521,0,3.027c-0.717,0.526-1.389,1.024-2.019,1.495v3.045l-0.504,4.036
			c0,0-9.821,2.807-14.152,4.366c4.422,2.292,8.973,4.372,13.645,6.213C94.59,280.908,94.393,278.53,94.393,278.53z"/>
		<path fill="none" stroke="#DB6E27" stroke-width="0" stroke-linecap="round" stroke-linejoin="round" d="M119.617,34.864
			c0,0,1.139,0,1.147,0"/>
		<path fill="#DB6E27" d="M23.765,166.03l-0.505,3.531c0.267,0.038,0.526,0.028,0.779-0.013c0.193-0.031,0.382-0.083,0.567-0.153
			L23.765,166.03z"/>
		<path fill="#DB6E27" d="M89.348,17.207l-5.045,0.505c0,0,0-1.514-1.513,0c-1.514,1.513-1.514,4.54-1.514,4.54v4.036l-5.55,4.036
			l-1.514,3.027c0,0-3.531,1.009-5.045,3.026c-1.513,2.018-11.099,2.522-11.099,2.522h-2.522c0,0,1.01,3.027-1.009,5.045
			c-2.018,2.018-8.576,3.532-8.576,3.532l0.505,3.531l-1.009,4.036l-4.541,1.513l-2.018,5.045l-0.505,5.045l-0.504,3.531
			L35.368,72.7l2.522,3.027l-2.019-0.504l-5.045-0.504l-0.504,5.549v2.522l-3.531,5.549v4.541v5.549l-2.019,5.549v2.522v2.018
			c0,0-2.018-2.018,1.009,2.522c3.027,4.541,3.027,6.559,3.027,6.559l-5.55,1.009l-2.522,1.514l2.661,2.365l1.88,1.671l3.531,6.558
			v5.55l-1.009,3.027l-1.009,3.027c0,0-0.505,3.027-0.505,4.54c0,1.514-1.514,8.072-1.514,8.072v5.549l1.514,5.55l0.972,0.972
			c1.285-1.845,2.055-3.999,2.055-3.999s1.01-1.514,1.01-4.035c0-2.523,0.504-3.027,0.504-6.055c0-3.026,0-9.585,0-9.585
			s0-1.513,0-3.531s-0.504-8.072-0.504-8.072l4.035-6.558l-0.504-5.045l-1.514-1.009c0,0,0-4.541,0-7.567l1.009-2.019l1.514-4.54
			l0.505-4.541v-2.522l-3.531-3.532c0,0,1.513-2.522,4.54-5.549s0-2.522,0-4.036c0-1.514,1.009-4.036,1.009-4.036
			s2.019,0,6.054-1.514c4.036-1.513,1.514-2.522,1.514-2.522L41.926,72.7c0,0,0.505-2.018,1.514-4.036
			c1.009-2.018,3.027-3.532,3.027-3.532s2.522-2.018,4.035-3.531c1.514-1.514,3.027-3.027,4.541-3.027s4.036-0.505,9.08-0.505
			c5.045,0,1.514-1.009,1.514-1.009l4.036-9.585c0,0,0,0,5.045,0s5.045-2.523,5.045-2.523s0-3.026,0-5.044s2.522-2.522,2.522-2.522
			l2.522,6.558l2.018,7.567c0,0,2.019,2.018,5.55,2.522c3.531,0.505,0,0,2.522,0s3.026-1.009,3.026-1.009s2.522,0,4.036,0
			s5.045-7.063,5.045-7.063v-6.054l0.504-5.549c0,0,2.019,0.504,9.081,0.504c1.417,0,2.381,0,3.027,0c0,0,6.054-5.045,8.071-6.559
			c2.019-1.513,1.514-0.504,1.514-0.504s1.42,0,6.502,0c0.187,0,0.365,0,0.561,0c5.55,0,2.019-0.504,2.019-0.504
			s1.009-1.513,4.54-4.541c3.531-3.027,6.055-6.054,6.055-6.054s1.513-0.504,7.063,0.504c5.55,1.009,3.027,1.514,3.027,1.514
			l6.054,5.045l1.009,1.513l0.505,4.541c0,0,4.54,2.522,6.558,2.522c2.019,0,0.505-4.036,0.505-4.036l8.576,1.514l1.514,5.045
			c0,0,4.036,0,7.567-2.018s0.504-3.531,1.009-6.054c0.504-2.522,2.018-2.522,2.018-2.522s5.045-1.514,6.559-2.522
			s2.522-4.036,2.522-4.036l-0.504,7.063c0,0,1.513,2.018,4.035,2.018s11.603,3.531,11.603,3.531s0.506,3.532,2.523,7.567
			c2.018,4.036,0,0,2.522,0c2.521,0,6.054,2.522,6.054,2.522l0.504,5.549l16.145,2.522c0,0,4.058-0.882,8.105-1.29
			c-2.607-2.824-5.323-5.544-8.144-8.156l-0.972,0.87h-3.027l-1.513-2.018l-2.522,1.514h-1.514l-8.071-4.541l-4.036-5.045
			l-5.549-4.036l-3.027-3.532l-6.559-3.027l-8.072-3.027l-3.026-2.522l-3.531,2.522l-1.514,0.504c0,0,3.531-1.514-2.522,0
			s-12.612-0.504-12.612-0.504l-8.071-3.531h-2.522l-3.532-3.532l-1.513-0.504l-1.514-2.522c0,0-2.018,2.522-3.531,2.522
			s-5.045,2.522-5.045,2.522h-4.54h-5.046l-5.045-2.018l-3.026-1.009h-2.019l-0.504,2.018l-6.559,3.531l-2.018,1.513l-3.532-3.531
			l-4.035,4.036l-3.531-0.505c-2.522,0-5.55,0-5.55,0s-1.009-1.009-3.026-1.009c-2.019,0-7.567,0-7.567,0l-2.019-2.522l-2.221-1.211
			c-1.451,0.58-2.89,1.188-4.318,1.813l-0.523,1.92L89.348,17.207z"/>
		<polygon fill="#DB6E27" points="18.216,150.896 18.216,156.949 17.206,158.968 16.702,160.48 21.242,165.021 23.765,166.03 
			20.233,149.887 		"/>
		<path fill="#DB6E27" d="M21.608,169.281c0.669,0.124,1.233,0.22,1.651,0.28C23.26,169.562,22.253,168.556,21.608,169.281z"/>
		<path fill="#AD5026" d="M81.72,258.855c0.424-1.316,0.565-2.018,0.565-2.018s0.158,0.791,0.297,2.018
			c0.11,0.965,0.208,2.199,0.208,3.531c0,3.027,1.009,5.55,2.018,7.567c0.913,1.827,3.067-0.067,9.08-4.559
			c0.63-0.471,1.302-0.969,2.019-1.495c7.567-5.549,0-3.027,0-3.027s0.505-3.531,1.514-5.044c1.009-1.514,5.549,0,5.549,0
			s6.054,1.513,7.063,3.531c0.668,1.337-0.879,2.452-3.027,3.2c-0.117,0.04-0.236,0.08-0.357,0.119
			c-1.003,0.32-2.11,0.564-3.174,0.717c-3.531,0.504,0,0-4.541,3.531c-1.662,1.292-1.765,2.111-0.936,2.829
			c1.074,0.93,3.716,1.689,6.587,3.083c0.494-0.676,2.772-3.741,5.448-6.417l7.063-1.009l3.026-3.027l-5.549-6.054l-6.054-1.513
			l4.036-7.063c0,0,0.504-4.036,0-7.567c-0.505-3.531-2.522,0.505-4.541,0.505c-2.018,0-3.026,3.026-6.054,6.054
			c-0.732,0.732-1.345,1.167-1.855,1.409c1.186,0.448,1.855,1.113,1.855,1.113l-2.522,4.54l-6.054,3.027l-1.514-2.018h-6.054h-5.045
			v-1.515c0,0,0-3.026-1.009-4.54c-1.009-1.513-9.081-3.026-9.081-3.026l-3.026-10.09l-3.027-3.027l-5.045-6.054l2.021-2.425
			c-2.265,0.641-4.407,1.193-6.14,1.544l0.587,0.881l-0.505,5.55l-5.045,6.054l-1.513,1.514l-4.541,1.513
			c0,0-0.35-0.642-0.713-1.509c-3.808,0.033-5.578,0.972-7.827,3.04c2.577,2.965,5.276,5.819,8.08,8.568
			c4.002,0.986,5.505-0.514,5.505-0.514l3.532-3.027l3.026-4.54l3.027-5.045l4.54,0.505l1.514,1.513l0.504,3.531l-0.504,1.514v4.036
			l7.063,2.018c0,0,1.514,0,3.027,0c1.513,0,2.018,0,2.018,0l1.009,2.018c0,0,0,3.027,0,5.55s-2.522,2.018-5.55,4.036
			c-0.853,0.568-1.627,1.142-2.41,1.813c-1.253,1.072-2.536,2.409-4.212,4.42c3.204,2.11,6.494,4.101,9.868,5.96
			c0.886-3.254,2.35-7.882,3.817-11.184C80.722,261.743,81.336,260.048,81.72,258.855z"/>
		<path fill="#AD5026" d="M108.466,275.078c2.748,1.534,4.558,1.191,5.663,0.5c1.03-0.645,1.452-1.588,1.452-1.588
			C113.262,274.86,110.444,275.063,108.466,275.078z"/>
		<path fill="#AD5026" d="M49.998,228.587c0-0.83,0.342-1.829,0.744-2.72c-1.887-0.354-3.027-0.919-4.271-1.947
			c-0.564,0.491-1.258,1.065-2.023,1.64c-1.45,1.088-3.417,2.433-4.411,3.104c1.602,0.424,2.897,0.427,2.897,0.427l5.55,1.009
			l0.505,2.019l1.009-1.009C49.998,231.109,49.998,230.604,49.998,228.587z"/>
		<path fill="#AD5026" d="M153.418,235.145c0,0-2.522-5.045-11.1-6.558c-0.978-0.173-1.785-0.298-2.469-0.381
			c-3.995-0.484-3.509,0.522-5.123,2.579c-0.528,0.673-1.284,1.459-2.497,2.342c-5.55,4.036-2.522,2.018-2.522,2.018
			s0,0-2.019,2.522c-2.018,2.522,0,2.019,0,2.019l-1.009,1.513l-14.125,6.559l6.558-2.522l6.559,4.54l8.071,6.055
			c0,0,0,3.531,0,7.567l3.027-2.523c0,0,3.027-1.009,3.027-3.531c0-2.521,0,0,0-2.521c0-2.523,8.072-1.515,10.594-1.515
			c0.738,0,1.043,0,1.157,0c0.003,0,0.021,0,0.063,0c0.093,0,0.315,0,0.799,0c2.018,0,0-3.026,0-3.026l-4.441-3.453l-0.099-0.078
			l-2.523-1.514l-2.018,0.505l-0.911,2.367l-7.161,5.704l-2.018-3.026c0,0,0.504-1.514,2.522-3.027c2.018-1.513,0-2.522,0-2.522
			v-4.036l0.504-2.521l3.532-3.027l8.072,4.036c0,0,5.549,0,8.576,1.513l3.026,4.036l3.531-1.514c0,0,1.254-0.701,2.444-1.875
			c1.074-1.061,2.097-2.504,2.097-4.179c0-1.958-0.775-2.364-1.466-2.338c-0.557,0.021-1.057,0.32-1.057,0.32
			S159.472,236.153,153.418,235.145z"/>
		<path fill="#AD5026" d="M31.371,208.445l0.466,0.466v0.873c0.868,2.827,1.513,6.694,1.513,6.694l6.559-1.009
			c0.505,6.054,0.505,6.054,0.505,6.054h3.531c-3.027-3.027-1.01-3.027-1.01-3.027s-1.009-9.08-3.026-12.107
			c-2.018-3.026-3.531-5.045-7.063-5.549c-3.532-0.505-4.541,4.54-4.541,4.54l1.262,1.262l0.757,0.252
			C30.68,207.013,31.034,207.608,31.371,208.445z"/>
		<path fill="#AD5026" d="M127.185,267.432l-1.586,0.951c-1.204,1.169-2.45,2.076-2.45,2.076l-1.177,0.235
			c-1.807,1.112-4.241,2.489-6.391,3.296l3.531,1.009c0,0,9.081,0.505,12.612,0.505s1.514-1.514,1.514-1.514l1.009-4.036
			l-0.505-6.558C133.742,267.432,127.185,267.432,127.185,267.432z"/>
		<path fill="#AD5026" d="M96.411,14.18c0,0,5.549,0,7.567,0c2.018,0,3.026,1.009,3.026,1.009s3.027,0,5.55,0l3.531,0.505
			l4.035-4.036l3.532,3.531l2.018-1.513l6.559-3.531l0.504-2.018h2.019l3.026,1.009l5.045,2.018h5.046h4.54
			c0,0,3.531-2.522,5.045-2.522s3.531-2.522,3.531-2.522l1.514,2.522l1.513,0.504l3.532,3.532h2.522l8.071,3.531
			c0,0,6.559,2.018,12.612,0.504s2.522,0,2.522,0l1.514-0.504l3.531-2.522l3.026,2.522l8.072,3.027l6.559,3.027l3.027,3.532
			l5.549,4.036l4.036,5.045l8.071,4.541h1.514l2.522-1.514l1.513,2.018h3.027l0.972-0.87C220.057,14.814,185.064,0,146.606,0
			c-19.235,0-37.604,3.711-54.435,10.446l2.221,1.211L96.411,14.18z"/>
		<path fill="#AD5026" d="M31.837,68.16c-1.01,2.018-3.532,5.549-3.532,5.549l-5.045-0.504l1.01,5.549l-2.523,4.036l-2.018,3.531
			l-2.018,6.559l-0.505,3.026l0.505,9.081v1.514v6.558l-1.009,3.027c0,0-1.514,1.514-3.532,3.532
			c-2.018,2.018-2.018,2.018-2.018,2.018l4.036,8.576l2.018,0.504l4.54,3.027l-4.035,4.036l2.018,4.036l2.522,2.522l2.019,3.027
			l-4.036,2.522l3.531,16.144l0.842,3.365l0.204,0.818l1.477,5.906l18.161,12.612l4.541-0.505l6.558-6.054l12.612-1.009
			l-8.071,3.531l-5.045,7.063l3.026,1.009l7.063,8.576l14.63,7.567l-2.522,7.567l0.504,2.522c0,0-7.931,2.768-15.094,4.843
			l3.996,2.22l4.035-0.504c0,0,3.027-1.514,5.55-1.514s5.045,2.018,6.054,3.531s1.514,2.019,1.514,2.019l3.026,4.54l2.522,2.522
			l-0.504,1.514l3.531,7.567c0,0,3.026,2.018,5.549,2.018l-1.009-2.018c0,0-1.009-7.063-1.009-9.586
			c0-2.522-3.027-2.018-3.027-2.018s-2.522,0-4.54-0.505c-2.019-0.504-1.514-1.009-1.514-1.009s-4.54-5.045-5.549-7.063
			c-1.01-2.018-1.514-6.559-1.514-8.072c0-1.513,3.027-4.035,3.027-4.035l-0.505-4.036c0,0-4.541-11.604-7.063-14.63
			c-2.523-3.027-2.019-0.505-2.019-0.505l-3.026-4.54l1.009-2.522v-8.072l0.098-6.061c0.429-0.009,0.878-0.026,1.363-0.063
			c0.866-0.064,1.853-0.189,3.079-0.435c2.522-0.505,2.018-2.523,2.018-2.523s0.036-0.381,0.095-0.968
			c0.17-1.659,0.542-4.977,0.915-6.095c0.504-1.514,2.522,0,2.522,0l1.514,3.027l2.072,0.725l8.017,2.807l2.019-3.026
			c0,0,0,0-1.01-2.019c-1.009-2.018-0.504-3.531-0.504-3.531s0.128-0.317,0.357-0.769c0.42-0.827,1.186-2.11,2.165-2.763
			c0.163-0.108,0.339-0.21,0.521-0.308c0.632-0.337,1.35-0.603,1.974-0.799c0.863-0.271,1.541-0.407,1.541-0.407
			s2.018-1.514,2.018-4.036s-1.009-4.54-1.009-4.54l-4.54,2.522l-2.523,3.531c0,0-0.573,0.478-1.469,1.139
			c-2.018,1.488-5.671,3.906-8.116,3.906c-3.531,0,0-3.027,0-3.027s0-4.54,0-6.054s4.036-5.045,4.036-5.045l-5.549-4.54
			c0,0,0.504-8.576,3.53-7.567c3.027,1.009,0,1.514,0,1.514l4.036,4.036c0,0,1.514-2.018,1.514-3.531
			c0-1.513-1.514-4.036-1.514-4.036l-1.513-1.513c0,0-2.523,0-5.55,0c-3.027,0-1.514,0.504-3.027,1.009
			c-0.313,0.104-0.625,0.404-0.924,0.812c-1.149,1.564-2.103,4.737-2.103,4.737s-0.001,2.975-0.396,5.36
			c-0.146,0.872-0.342,1.667-0.612,2.207c-1.009,2.018-1.514-0.504-5.55-3.027c-4.035-2.522-1.009-4.036-1.009-4.036
			s2.018-4.541,2.018-7.063s-1.513-1.009-1.513-1.009l-9.081-4.541l-4.036-4.036l-0.504,3.531h-5.55h-1.514l1.009,6.559
			c0,0,2.124,0,9.47,0.777c0.669,0.071,1.377,0.147,2.134,0.231c9.081,1.009,1.514,3.027,1.514,3.027l-2.45,1.633l-0.577,0.384
			l0.713,0.475l0.801,0.534l2.705,1.249l3.854,1.778l0.504,7.567l-3.026,1.514l-5.045,1.009v2.522l4.036,4.036l3.531-1.514v3.53
			v2.523c0,0-1.009,2.019-4.541,8.072c-3.531,6.054-3.026,1.513-3.026,1.513h-3.251h-2.803c0,0,0.108,0.436,0.258,1.042
			c0.408,1.658,1.12,4.607,0.751,3.499c-0.505-1.514-16.144,4.036-16.144,4.036h-2.018h-3.027l-1.009-1.514l-1.009-2.522
			l-0.303-0.505l-2.725-4.54l-2.56-2.56l-0.972-0.972l-1.514-5.55v-5.549c0,0,1.514-6.559,1.514-8.072
			c0-1.513,0.505-4.54,0.505-4.54l1.009-3.027l1.009-3.027v-5.55l-3.531-6.558l-1.88-1.671l-2.661-2.365l2.522-1.514l5.55-1.009
			c0,0,0-2.018-3.027-6.559c-3.026-4.54-1.009-2.522-1.009-2.522v-2.018v-2.522l2.019-5.549V92.88v-4.541l3.531-5.549v-2.522
			l0.504-5.549l5.045,0.504l2.019,0.504L35.368,72.7l2.522-2.522l0.504-3.531l0.505-5.045l2.018-5.045l4.541-1.513l1.009-4.036
			l-0.505-3.531c0,0,6.559-1.514,8.576-3.532c2.019-2.018,1.009-5.045,1.009-5.045h2.522c0,0,9.586-0.504,11.099-2.522
			c1.514-2.018,5.045-3.026,5.045-3.026l1.514-3.027l5.55-4.036v-4.036c0,0,0-3.027,1.514-4.54c1.513-1.514,1.513,0,1.513,0
			l5.045-0.505L87.33,14.18l0.523-1.92c-21.803,9.549-40.833,24.246-55.556,42.558l-0.461,8.298
			C31.837,63.115,32.846,66.142,31.837,68.16z M71.522,158.294l1.682,2.691l-1.746,1.31L71.522,158.294z M79.763,147.868
			c2.018,0,1.009,4.036,1.009,4.036H77.24c0,0-2.018,0-4.036,0c-0.487,0-1.033,0.06-1.581,0.149l0.067-4.186
			C71.69,147.868,77.744,147.868,79.763,147.868z"/>
		<path fill="#652A13" d="M54.034,220.011l4.54-3.532l5.549-5.55c0,0-6.054-4.035-7.566-4.035c-1.514,0-3.027,2.522-3.027,2.522
			s-3.027,7.063-4.54,9.585c-0.216,0.36-0.442,0.658-0.671,0.905c-1.378,1.483-2.86,1.113-2.86,1.113l-1.514,0.504h-3.531
			c0,0,0,0-0.505-6.054l-6.559,1.009c0,0-0.645-3.867-1.513-6.694c-0.149-0.486-0.306-0.938-0.466-1.339
			c-0.337-0.837-0.691-1.433-1.048-1.552l-0.757-0.252l-12.088-4.03l3.259,5.796h6.559l1.009,1.513l-1.009,2.523
			c0,0-1.514,3.026-1.514,6.053c0,3.027,3.531,6.559,3.531,6.559l2.019,2.018l6.054,2.019h2.019c0,0,0.244-0.164,0.633-0.427
			c0.994-0.672,2.961-2.017,4.411-3.104c0.766-0.574,1.459-1.148,2.023-1.64c0.925-0.804,1.509-1.388,1.509-1.388l4.035-1.513v2.522
			c0,0-0.698,1.051-1.273,2.325c-0.402,0.891-0.744,1.89-0.744,2.72c0,2.018,0,2.522,0,2.522l-1.009,1.009l-2.522,2.521
			c0,0,0,0-2.522,0.505c-1.665,0.333-0.913,2.862-0.209,4.545c0.363,0.867,0.713,1.509,0.713,1.509l4.541-1.513l1.513-1.514
			l5.045-6.054l0.505-5.55l-0.587-0.881l-1.431-2.146V220.011z"/>
		<polygon fill="#652A13" points="16.702,202.353 17.479,202.611 16.197,200.335 		"/>
		<path fill="#652A13" d="M92.375,245.739l-3.531-7.567l0.504-1.514l-2.522-2.522l-3.026-4.54c0,0-0.505-0.505-1.514-2.019
			s-3.531-3.531-6.054-3.531s-5.55,1.514-5.55,1.514l-4.035,0.504l-3.996-2.22l-0.545-0.302l-0.501,0.602l-2.021,2.425l5.045,6.054
			l3.027,3.027l3.026,10.09c0,0,8.072,1.514,9.081,3.026c1.009,1.514,1.009,4.54,1.009,4.54v1.515h5.045h6.054l1.514,2.018
			l6.054-3.027l2.522-4.54c0,0-0.67-0.665-1.855-1.113c-0.601-0.228-1.332-0.4-2.181-0.4
			C95.401,247.757,92.375,245.739,92.375,245.739z"/>
		<path fill="#652A13" d="M125.671,249.774l-6.559-4.54l-6.558,2.522l-4.036,7.063l6.054,1.513l-4.036-2.018l3.027-3.531
			l5.045,0.504c0,0,1.009,0,3.026,1.009c2.019,1.009,2.522,1.009,2.522,2.523c0,1.513,0,3.531,0,3.531v1.513l2.522,3.027
			l0.815-2.095l2.716-6.986l2.522,3.531c0,0-6.054,5.045-5.045,7.063c0.531,1.061-0.753,2.681-2.09,3.978l1.586-0.951
			c0,0,6.558,0,6.558-4.035c0-4.036,0-7.567,0-7.567L125.671,249.774z"/>
		<path fill="#652A13" d="M120.626,270.963c0,0-3.026,0-4.54,0s-7.063,3.027-7.063,3.027l-1.514,0.505l3.532-3.027l1.514-0.505
			c0,0,0.504-1.009,2.018-0.504c1.514,0.504,3.531-2.019,3.531-2.019l4.036-4.035v-2.523l-2.522-2.018l-5.045-3.531l5.549,6.054
			l-3.026,3.027l-7.063,1.009c-2.676,2.676-4.954,5.741-5.448,6.417c-0.064,0.089-0.102,0.142-0.102,0.142l1.514,2.018
			c0,0,1.006,0.091,2.47,0.079c1.979-0.015,4.796-0.218,7.115-1.088c2.149-0.807,4.584-2.184,6.391-3.296L120.626,270.963z"/>
		<path fill="#3D1F13" d="M122.14,261.882v2.523l-4.036,4.035c0,0-2.018,2.522-3.531,2.019c-1.514-0.505-2.018,0.504-2.018,0.504
			l-1.514,0.505l-3.532,3.027l1.514-0.505c0,0,5.55-3.027,7.063-3.027s4.54,0,4.54,0l1.346-0.269l1.177-0.235
			c0,0,1.246-0.907,2.45-2.076c1.337-1.297,2.621-2.917,2.09-3.978c-1.009-2.019,5.045-7.063,5.045-7.063l-2.522-3.531l-2.716,6.986
			l-0.815,2.095l-2.522-3.027v-1.513c0,0,0-2.019,0-3.531c0-1.515-0.504-1.515-2.522-2.523c-2.018-1.009-3.026-1.009-3.026-1.009
			l-5.045-0.504l-3.027,3.531l4.036,2.018l5.045,3.531L122.14,261.882z"/>
		<path fill="#652A13" d="M14.684,192.264c0,0,0,0,1.514-1.01c1.514-1.009,0.505-2.018,0.505-2.018v-2.522l5.044-2.522l1.514,2.019
			l2.019,1.514l3.026-1.01c0,0,3.532-1.514,6.054-1.514c0,0,4.036,6.054,4.036,8.072s0,4.036,0,4.036l5.045,1.513h5.55l2.018,2.522
			l4.036-1.009l-1.514-2.522h-3.027l-1.513-2.521c0,0-2.019,0-4.541-0.505s-4.035-3.532-4.035-3.532l-1.514-2.521l-1.308-1.598
			l-3.233-3.952h-2.521l-1.906,0.272l-1.626-1.281l-2.522-4.036l-2.522-1.514l-2.522-1.513v-3.027c0,0,0,0,0.505-2.019
			c0.093-0.371,0.22-0.621,0.366-0.784c0.645-0.726,1.651,0.28,1.651,0.28l0.505-3.531l-2.522-1.009l-4.54-4.541l0.504-1.513
			l1.01-2.019v-6.054l2.018-1.009l4.036-2.522l-2.019-3.027l-2.522-2.522l-2.018-4.036l4.035-4.036l-4.54-3.027l-2.018-0.504
			l-4.036-8.576c0,0,0,0,2.018-2.018c2.019-2.018,3.532-3.532,3.532-3.532l1.009-3.027v-6.558v-1.514l-0.505-9.081l0.505-3.026
			l2.018-6.559l2.018-3.531l2.523-4.036l-1.01-5.549l5.045,0.504c0,0,2.522-3.531,3.532-5.549c1.009-2.019,0-5.045,0-5.045
			l-6.559,5.045l-4.468,3.127c-0.194,0.324-0.385,0.65-0.577,0.976v5.482c-2.018,4.541-0.505,2.522-2.018,4.541
			c-1.514,2.018-3.027,6.054-3.027,6.054l-0.505,5.549c0,0,0,0.504,0,2.018c0,1.514,0,1.514,0,4.036s1.009,3.027-0.504,5.549
			c-1.514,2.522-3.027,3.531-3.027,3.531v5.55l-3.531,9.585c0,0,0-1.514-1.514,1.009c-1.514,2.522-3.531,3.531-3.531,3.531v6.558
			H4.09l4.54,3.027l1.514,2.018l1.009,2.018l-3.027,0.504H4.594l-4.584,4.584c0.011,1.877,0.058,3.745,0.138,5.604l2.429,0.405
			l3.027,1.514l6.558-1.009c0.505,2.018-1.009,4.035-1.009,4.035H8.63l-1.514,5.55l0.505,3.531H6.107l-4.035-3.027l-1.008,0.275
			c0.183,1.518,0.381,3.031,0.608,4.534c0.806,0.519,1.506,0.974,1.912,1.244c1.514,1.01,1.514,1.01,1.514,1.01l4.036,4.54
			l-1.01,5.045l-1.513,1.009c0,0-1.034,0.069-2.362,0.08c1.281,5.208,2.832,10.313,4.653,15.286l2.754-2.754L14.684,192.264z"/>
		<path fill="#652A13" d="M32.298,54.817c-1.171,1.456-2.319,2.932-3.435,4.432l2.974,3.866L32.298,54.817z"/>
		<path fill="#3D1F13" d="M6.107,167.039h1.514l-0.505-3.531l1.514-5.55h2.522c0,0,1.514-2.018,1.009-4.035l-6.558,1.009
			l-3.027-1.514l-2.429-0.405c0.163,3.798,0.47,7.558,0.917,11.274l1.008-0.275L6.107,167.039z"/>
		<path fill="#3D1F13" d="M8.125,180.66l1.01-5.045l-4.036-4.54c0,0,0,0-1.514-1.01c-0.406-0.271-1.106-0.726-1.912-1.244
			c0.666,4.377,1.533,8.687,2.577,12.928c1.328-0.011,2.362-0.08,2.362-0.08L8.125,180.66z"/>
		<path fill="#3D1F13" d="M8.125,142.824l3.027-0.504l-1.009-2.018l-1.514-2.018l-4.54-3.027H2.576v-6.558
			c0,0,2.018-1.009,3.531-3.531c1.514-2.523,1.514-1.009,1.514-1.009l3.531-9.585v-5.55c0,0,1.514-1.009,3.027-3.531
			c1.513-2.522,0.504-3.027,0.504-5.549s0-2.522,0-4.036c0-1.513,0-2.018,0-2.018l0.505-5.549c0,0,1.514-4.036,3.027-6.054
			c1.513-2.018,0,0,2.018-4.541v-5.482C7.382,94.062,0,119.471,0,146.607c0,0.268,0.009,0.533,0.01,0.801l4.584-4.584H8.125z"/>
		<path fill="#3D1F13" d="M31.837,63.115l-2.974-3.866c-2.876,3.871-5.563,7.888-8.053,12.038l4.468-3.127L31.837,63.115z"/>
		<path fill="#AD5026" d="M92.879,118.608l5.045-10.594l-7.063-1.513l-7.567-0.504v1.696v2.339c0.454,1.135,1.827,1.86,3.2,2.316
			c1.679,0.557,3.358,0.71,3.358,0.71l4.54-0.504L92.879,118.608z"/>
		<path fill="#AD5026" d="M115.581,120.626l8.072-1.513l6.558-6.559l-10.594-1.009l1.514-4.036l-2.019-2.522l-4.036,2.018v-2.018
			l1.514-4.541l-8.071,3.532l-1.514,2.018c1.514,0.504,7.567,6.558,7.567,6.558L115.581,120.626z"/>
		<path fill="#AD5026" d="M135.256,111.041c0,0,0.505,2.018-1.009,3.532c-1.514,1.513-5.55,6.054-5.55,6.054l-2.521,2.018
			l4.54,1.009l6.558,0.504l0.505-3.531v-2.522l1.009-5.045v-7.567l-3.531-3.531l-6.054-2.018h-2.018h-4.541l3.532,4.036
			C129.202,104.483,135.256,111.041,135.256,111.041z"/>
		<path fill="#DB6E27" d="M179.651,145.346l-0.09,0.716l-0.415,3.319l-5.549,3.027l15.135,15.135l6.559,1.513
			c0,0,0.504,1.009,0.504,2.522s0,1.514,0,1.514s0.505,2.019-1.009,3.531c-1.514,1.514,0-1.009-1.514,1.514s3.531,4.036,3.531,4.036
			l2.018,1.514l-6.054,2.018l-7.567,3.027c0,0,3.911,2.346,7.35,3.995c2.085,1,3.997,1.744,4.759,1.554
			c2.018-0.504,4.035-2.018,4.035-2.018l4.541-4.036l-4.036,8.576l-1.514,2.522l-2.522,0.505c0,0,2.019,7.063,1.514,8.576
			c-0.505,1.513,0.505,2.018-1.009,3.027c-1.514,1.009-3.026,1.513-5.045,1.513c-2.018,0-3.531,0-3.531,0l1.009-1.513l4.036-10.091
			c0,0-5.55-2.018-8.072,0.505s-8.576,9.586-8.576,9.586l7.063,3.53c0,0,5.55-3.026,1.01,1.514
			c-4.541,4.541,1.009,3.026-4.541,4.541c-5.549,1.513-11.099,2.522-11.099,2.522h-3.026l-2.019-0.505l-7.567-0.505
			c0,0,3.532-3.531-0.504-2.018c-3.555,1.333-9.064,6.186-10.327,7.325c-0.172,0.154-0.268,0.242-0.268,0.242l9.081,6.558
			l10.37-1.728l4.765-0.794l7.567,3.531c0,0,1.514,0,3.531,0.504c2.018,0.505,13.117-4.035,13.117-4.035l-1.514-10.595l-1.514-2.522
			l1.269-0.564l3.271-1.453l5.045-2.019c0,0,2.522-2.521,1.514-5.045c-0.392-0.979-1.318-1.732-2.126-2.463
			c-1.27-1.148-2.247-2.245-0.396-4.095c3.027-3.027,8.071-5.55,8.071-5.55l1.515-1.009l-2.523-9.08c0,0-0.391-0.002-0.775-0.664
			c-0.372-0.641-0.738-1.9-0.738-4.382v-2.018c0-4.176,0-7.567,0-7.567v-7.063l-4.54-8.576h-2.522l-6.559-3.027h-2.522l-1.009-7.567
			l-5.206-9.466l-0.343-0.624l-0.215,0.456l-1.562,3.317L179.651,145.346z"/>
		<path fill="#DB6E27" d="M65.133,101.96l6.054-3.027c0,0,1.513,0.504,0,3.027c-1.514,2.522-3.027,5.045-3.027,5.045v1.513
			c-0.121,0-0.569,0-2.018,0c-2.522,0-4.036,0-4.036,0l-0.504,3.027h7.566l-11.603,0.504c0,0,12.612,5.549,13.621,2.018
			c1.009-3.531,2.522-7.567,2.522-7.567l-1.514-13.117L65.133,101.96z"/>
		<path fill="#FDE611" d="M53.529,94.897c0,0,0-8.072-1.009-10.594c-1.009-2.523-7.063-2.018-7.063-2.018l1.513,4.54l-4.54,5.045
			l-2.522,3.027l7.063,3.532l5.55,2.018l8.071,5.045l-2.018-6.558L53.529,94.897z"/>
		<polygon fill="#FDE611" points="48.989,100.951 43.944,100.951 38.395,99.438 39.404,102.465 37.386,111.546 44.448,118.104 
			43.439,113.059 44.953,110.537 42.935,107.51 44.448,103.979 46.467,110.032 52.016,109.527 50.502,102.465 		"/>
		<path fill="#F5A21E" d="M188.716,281.518c1.704-0.318,4.182-0.793,7.584-1.474c7.567-1.514,2.018-0.505,2.018-0.505
			s2.522-1.514,5.045-2.018c2.522-0.505,3.531-0.505,5.549-1.009c2.019-0.505-0.504-3.027-0.504-3.027l-2.522-3.026l1.514-3.531
			h-1.514c0,0-4.541,0-7.063,1.009l-3.026,2.522v2.522v3.531l-2.522,2.018l-4.857,2.267l-2.71,1.266
			C185.705,282.063,186.629,281.908,188.716,281.518z"/>
		<path fill="#FDE611" d="M44.953,135.761l3.205,4.54h-0.683h-1.514l-2.018-1.009l-0.505-4.541l1.009-2.522l1.514-3.027
			c0,0,0-2.018-0.504-4.541c-0.505-2.522-4.036-1.513-4.036-1.513s0,0-1.514,2.018s0,3.027,0,3.027l-2.522,1.513l-3.531,1.514
			l2.018,6.558c0,0,4.541,3.532,6.559,4.541s3.531,1.009,3.531,1.009l2.019,4.036l-5.55,2.018l-1.009-2.522c0,0,0-2.018-2.018-3.027
			c-2.019-1.009-2.523,0-2.523,0l-3.531,4.036c0,0,0,3.027,0,4.541s0.505,4.54,0.505,4.54l2.018-0.505l1.514-2.521
			c0,0,4.036,0,7.063,0c3.027,0,1.01,5.045,1.01,5.045l-3.532,0.504c0,0,0,0-1.513,0c-1.514,0-3.027,1.009-3.027,1.009h-4.54
			c0,0,0.504,3.531,1.513,6.055c1.01,2.521,6.055,4.035,6.055,4.035l1.513-0.505c0,0,1.009-1.513,1.514-3.53
			c0.505-2.019,1.514-2.523,1.514-2.523l4.036-1.513c0,0,4.54,0,7.567-1.514c3.026-1.514-1.514-5.55-1.514-5.55
			s-4.541,0-9.081-4.035c0,0,3.531-1.01,5.55-5.045c2.018-4.036,2.018-2.018,2.018-7.063c0-5.045-1.009-3.531-1.009-3.531
			l-5.045,0.504L44.953,135.761z"/>
		<path fill="#F5A21E" d="M227.072,175.111l2.523,1.009c0,0,2.522-4.036,2.522-6.055c0-2.018-1.009-2.521-2.522-2.018
			c-1.514,0.505-3.532,2.522-3.532,2.522l-2.018,4.036L227.072,175.111z"/>
		<path fill="#F5A21E" d="M225.56,147.868l-2.522-2.018c0,0-5.55,7.063-2.018,5.55C224.551,149.887,225.56,147.868,225.56,147.868z"
			/>
		<polygon fill="#F5A21E" points="131.221,154.932 129.202,154.932 126.68,154.932 129.202,156.949 		"/>
		<path fill="#F5A21E" d="M206.389,128.194c4.037,1.513,5.55,1.513,5.55,1.513l2.522-4.036l-9.081-0.504
			C205.38,125.167,202.354,126.68,206.389,128.194z"/>
		<polygon fill="#F5A21E" points="204.371,56.557 203.362,55.043 201.344,55.548 200.335,60.593 203.867,62.61 205.885,60.088 		"/>
		<polygon fill="#F5A21E" points="198.317,51.512 199.326,49.494 199.831,46.972 198.317,47.476 		"/>
		<path fill="#F5A21E" d="M224.046,265.414l-1.514,0.505l-1.513,1.009c0,0,1.513-1.009,5.044-1.514
			C229.596,264.909,224.046,265.414,224.046,265.414z"/>
		<path fill="#F5A21E" d="M226.063,255.324l-0.504,1.514l2.522,2.522c0,0,0,0,4.54-3.531h-3.026L226.063,255.324z"/>
		<path fill="#F5A21E" d="M240.189,248.262l-5.045,0.504l3.532,3.531c0,0,0,0,2.521-1.513c2.522-1.514,3.532-3.531,3.532-3.531
			l-2.019,1.009H240.189z"/>
	</g>
</g>
</svg>
