<?xml version="1.0" encoding="utf-8"?>
<!-- Generator: Adobe Illustrator 12.0.0, SVG Export Plug-In . SVG Version: 6.00 Build 51448)  -->
<!DOCTYPE svg PUBLIC "-//W3C//DTD SVG 1.1//EN" "http://www.w3.org/Graphics/SVG/1.1/DTD/svg11.dtd" [
	<!ENTITY ns_svg "http://www.w3.org/2000/svg">
	<!ENTITY ns_xlink "http://www.w3.org/1999/xlink">
]>
<svg  version="1.1" xmlns="&ns_svg;" xmlns:xlink="&ns_xlink;" width="291.873" height="291.873" viewBox="0 0 291.873 291.873"
	 overflow="visible" enable-background="new 0 0 291.873 291.873" xml:space="preserve">
      <defs>
    <filter id="f1" x="0" y="0">
      <feGaussianBlur  stdDeviation="4" />
    </filter>
  </defs>
<g id="Layer_3">
</g>
<g id="Layer_2" filter="url(#f1)">
	<g>
		<path fill="none" d="M206.956,13.334c0.291,0.134,0.579,0.267,0.87,0.402C207.535,13.601,207.247,13.468,206.956,13.334z"/>
		<path fill="none" d="M208.536,14.073c0.291,0.139,0.581,0.276,0.872,0.417C209.117,14.35,208.827,14.212,208.536,14.073z"/>
		<path fill="none" d="M205.366,12.612c0.289,0.129,0.578,0.258,0.865,0.389C205.944,12.87,205.655,12.741,205.366,12.612z"/>
		<path fill="none" d="M203.766,11.909c0.287,0.124,0.576,0.248,0.862,0.375C204.342,12.157,204.053,12.033,203.766,11.909z"/>
		<path fill="none" d="M202.153,11.225c0.287,0.119,0.575,0.239,0.86,0.361C202.729,11.464,202.44,11.344,202.153,11.225z"/>
		<path fill="none" d="M210.099,14.828c0.295,0.145,0.589,0.289,0.884,0.436C210.688,15.117,210.394,14.973,210.099,14.828z"/>
		<path fill="none" d="M211.649,15.601c0.299,0.15,0.598,0.301,0.894,0.453C212.247,15.901,211.948,15.751,211.649,15.601z"/>
		<path fill="none" d="M200.533,10.559c0.285,0.115,0.57,0.23,0.854,0.347C201.104,10.789,200.818,10.674,200.533,10.559z"/>
		<path fill="none" d="M216.202,18.001c0.321,0.178,0.645,0.354,0.964,0.534C216.847,18.355,216.523,18.179,216.202,18.001z"/>
		<path fill="none" d="M217.681,18.827c0.335,0.189,0.669,0.378,1.002,0.57C218.35,19.205,218.016,19.017,217.681,18.827z"/>
		<path fill="none" d="M213.188,16.389c0.305,0.158,0.606,0.314,0.909,0.475C213.794,16.703,213.492,16.547,213.188,16.389z"/>
		<path fill="none" d="M214.704,17.188c0.313,0.167,0.624,0.333,0.934,0.502C215.328,17.521,215.017,17.355,214.704,17.188z"/>
		<path fill="none" d="M219.127,19.655c0.354,0.206,0.709,0.413,1.065,0.623C219.836,20.068,219.48,19.861,219.127,19.655z"/>
		<path fill="none" d="M188.893,6.427c0.287,0.088,0.571,0.177,0.856,0.267C189.464,6.604,189.18,6.515,188.893,6.427z"/>
		<path fill="none" d="M198.897,9.91c0.287,0.111,0.572,0.223,0.855,0.336C199.47,10.133,199.185,10.021,198.897,9.91z"/>
		<path fill="none" d="M183.765,4.953c0.286,0.076,0.571,0.154,0.858,0.232C184.336,5.107,184.051,5.029,183.765,4.953z"/>
		<path fill="none" d="M185.482,5.424c0.286,0.08,0.573,0.162,0.858,0.244C186.056,5.586,185.769,5.504,185.482,5.424z"/>
		<path fill="none" d="M180.301,4.071c0.288,0.069,0.575,0.14,0.862,0.212C180.876,4.211,180.589,4.141,180.301,4.071z"/>
		<path fill="none" d="M178.56,3.662c0.287,0.066,0.574,0.133,0.861,0.2C179.134,3.795,178.847,3.729,178.56,3.662z"/>
		<path fill="none" d="M187.192,5.915c0.284,0.084,0.569,0.169,0.854,0.255C187.762,6.084,187.477,5.999,187.192,5.915z"/>
		<path fill="none" d="M190.583,6.958c0.285,0.092,0.57,0.185,0.855,0.277C191.153,7.143,190.868,7.05,190.583,6.958z"/>
		<path fill="none" d="M195.601,8.671c0.286,0.104,0.571,0.208,0.856,0.313C196.172,8.879,195.887,8.774,195.601,8.671z"/>
		<path fill="none" d="M197.255,9.28c0.285,0.108,0.57,0.216,0.856,0.325C197.825,9.496,197.54,9.389,197.255,9.28z"/>
		<path fill="none" d="M192.267,7.511c0.285,0.095,0.569,0.191,0.854,0.288C192.836,7.702,192.552,7.605,192.267,7.511z"/>
		<path fill="none" d="M193.938,8.08c0.284,0.101,0.569,0.2,0.854,0.301C194.508,8.28,194.223,8.181,193.938,8.08z"/>
		<path fill="none" d="M182.039,4.502c0.285,0.073,0.572,0.147,0.856,0.222C182.611,4.649,182.324,4.575,182.039,4.502z"/>
		<path fill="none" d="M291.617,137.267c0.034,0.585,0.064,1.17,0.092,1.758C291.682,138.437,291.651,137.852,291.617,137.267z"/>
		<path fill="none" d="M291.498,135.457c0.042,0.577,0.08,1.155,0.115,1.734C291.578,136.612,291.54,136.034,291.498,135.457z"/>
		<path fill="none" d="M291.785,140.888c0.024,0.768,0.044,1.535,0.06,2.305C291.831,142.422,291.81,141.655,291.785,140.888z"/>
		<path fill="none" d="M291.712,139.083c0.027,0.593,0.052,1.188,0.071,1.782C291.764,140.271,291.739,139.676,291.712,139.083z"/>
		<path fill="none" d="M291.198,131.849c0.053,0.563,0.104,1.128,0.152,1.693C291.303,132.977,291.253,132.412,291.198,131.849z"/>
		<path fill="none" d="M290.81,128.256c0.067,0.555,0.13,1.11,0.191,1.667C290.939,129.366,290.877,128.811,290.81,128.256z"/>
		<path fill="none" d="M291.36,133.653c0.048,0.569,0.092,1.14,0.132,1.711C291.452,134.793,291.408,134.223,291.36,133.653z"/>
		<path fill="none" d="M48.456,37.334c-0.097,0.087-0.193,0.173-0.29,0.26l0.003,0.002C48.265,37.509,48.359,37.421,48.456,37.334z"
			/>
		<path fill="none" d="M291.85,143.547c0.014,0.795,0.023,1.592,0.023,2.39C291.873,145.139,291.863,144.342,291.85,143.547z"/>
		<path fill="none" d="M229.501,26.281c-2.526-1.768-5.108-3.457-7.748-5.065C224.393,22.824,226.975,24.515,229.501,26.281
			L229.501,26.281z"/>
		<path fill="none" d="M277.489,82.688c0.002,0.001,0.002,0.001,0.004,0.001c-1.104-2.289-2.265-4.543-3.481-6.763
			c0,0.001,0,0.002-0.002,0.003C275.227,78.148,276.388,80.401,277.489,82.688z"/>
		<path fill="none" d="M287.132,108.91c-1.384-5.286-3.055-10.455-4.996-15.488c0,0.001,0,0.002,0,0.003
			C284.077,98.458,285.748,103.625,287.132,108.91z"/>
		<path fill="none" d="M290.333,124.683c0.081,0.549,0.157,1.099,0.231,1.649C290.49,125.781,290.414,125.231,290.333,124.683z"/>
		<path fill="none" d="M288.39,114.111c0.123,0.549,0.241,1.1,0.356,1.651C288.631,115.211,288.513,114.66,288.39,114.111z"/>
		<path fill="none" d="M290.582,126.467c0.072,0.552,0.144,1.104,0.21,1.656C290.726,127.57,290.654,127.019,290.582,126.467z"/>
		<path fill="none" d="M288.767,115.856c0.115,0.548,0.226,1.096,0.335,1.645C288.992,116.952,288.882,116.404,288.767,115.856z"/>
		<path fill="none" d="M287.573,110.646c0.138,0.555,0.273,1.111,0.405,1.67C287.847,111.757,287.711,111.2,287.573,110.646z"/>
		<path fill="none" d="M287.135,108.923c0.147,0.56,0.289,1.121,0.429,1.684C287.424,110.044,287.28,109.482,287.135,108.923z"/>
		<path fill="none" d="M287.992,112.375c0.13,0.552,0.256,1.105,0.381,1.66C288.248,113.48,288.122,112.927,287.992,112.375z"/>
		<path fill="none" d="M290.062,122.904c0.088,0.548,0.171,1.096,0.253,1.646C290.232,124,290.149,123.452,290.062,122.904z"/>
		<path fill="none" d="M220.502,20.464c0.396,0.235,0.792,0.472,1.186,0.712C221.294,20.936,220.897,20.699,220.502,20.464z"/>
		<path fill="none" d="M289.457,119.368c0.1,0.545,0.197,1.091,0.291,1.638C289.654,120.459,289.557,119.913,289.457,119.368z"/>
		<path fill="none" d="M289.123,117.609c0.106,0.546,0.21,1.092,0.312,1.641C289.333,118.701,289.229,118.155,289.123,117.609z"/>
		<path fill="none" d="M289.771,121.135c0.094,0.545,0.185,1.093,0.271,1.64C289.955,122.228,289.864,121.68,289.771,121.135z"/>
		<path fill="none" d="M291.015,130.049c0.061,0.559,0.118,1.119,0.172,1.68C291.133,131.168,291.075,130.607,291.015,130.049z"/>
		<path fill="none" d="M110.039,4.45c0.809-0.204,1.62-0.401,2.434-0.593C111.659,4.049,110.848,4.246,110.039,4.45z"/>
		<path fill="none" d="M112.792,3.781c0.854-0.198,1.712-0.388,2.571-0.571C114.504,3.394,113.646,3.583,112.792,3.781z"/>
		<path fill="none" d="M115.884,3.101c0.862-0.181,1.728-0.355,2.595-0.521C117.611,2.745,116.746,2.92,115.884,3.101z"/>
		<path fill="none" d="M127.701,1.13c0.847-0.105,1.697-0.202,2.549-0.294C129.398,0.928,128.548,1.024,127.701,1.13z"/>
		<path fill="none" d="M118.786,2.523c0.822-0.155,1.647-0.302,2.475-0.443C120.434,2.222,119.608,2.368,118.786,2.523z"/>
		<path fill="none" d="M104.125,6.079c0.842-0.252,1.688-0.494,2.537-0.73C105.813,5.585,104.967,5.827,104.125,6.079z"/>
		<path fill="none" d="M71.901,20.147c0.775-0.457,1.557-0.905,2.341-1.349C73.458,19.242,72.677,19.69,71.901,20.147z"/>
		<path fill="none" d="M121.659,2.012c0.867-0.146,1.736-0.281,2.608-0.411C123.396,1.73,122.526,1.866,121.659,2.012z"/>
		<path fill="none" d="M107.154,5.212c0.842-0.231,1.687-0.457,2.533-0.673C108.841,4.755,107.996,4.98,107.154,5.212z"/>
		<path fill="none" d="M77.164,17.19c1.579-0.845,3.175-1.661,4.788-2.449C80.339,15.529,78.743,16.346,77.164,17.19z"/>
		<path fill="none" d="M85.022,13.285c1.622-0.746,3.261-1.464,4.914-2.151C88.283,11.821,86.645,12.539,85.022,13.285z"/>
		<path fill="none" d="M82.296,14.573c0.784-0.381,1.571-0.755,2.362-1.121C83.867,13.818,83.08,14.192,82.296,14.573z"/>
		<path fill="none" d="M74.513,18.645c0.764-0.43,1.533-0.853,2.307-1.269C76.046,17.792,75.276,18.215,74.513,18.645z"/>
		<path fill="none" d="M93.138,9.847c0.811-0.314,1.625-0.624,2.443-0.925C94.763,9.223,93.948,9.532,93.138,9.847z"/>
		<path fill="none" d="M95.674,8.888c0.832-0.306,1.668-0.602,2.508-0.893C97.342,8.286,96.506,8.582,95.674,8.888z"/>
		<path fill="none" d="M98.635,7.839c0.821-0.281,1.646-0.556,2.475-0.823C100.281,7.283,99.456,7.558,98.635,7.839z"/>
		<path fill="none" d="M90.343,10.965c0.803-0.331,1.607-0.654,2.417-0.972C91.95,10.311,91.146,10.634,90.343,10.965z"/>
		<path fill="none" d="M124.804,1.521c0.884-0.128,1.77-0.25,2.658-0.362C126.573,1.271,125.688,1.394,124.804,1.521z"/>
		<path fill="none" d="M158.88,0.567c0.283,0.024,0.566,0.053,0.848,0.079C159.446,0.62,159.163,0.592,158.88,0.567z"/>
		<path fill="none" d="M160.706,0.739c0.283,0.028,0.568,0.06,0.852,0.09C161.272,0.799,160.989,0.768,160.706,0.739z"/>
		<path fill="none" d="M167.933,1.648c0.291,0.044,0.58,0.09,0.868,0.135C168.513,1.738,168.224,1.692,167.933,1.648z"/>
		<path fill="none" d="M157.048,0.418c0.283,0.021,0.565,0.045,0.849,0.068C157.613,0.463,157.331,0.438,157.048,0.418z"/>
		<path fill="none" d="M166.137,1.388c0.289,0.04,0.578,0.082,0.866,0.125C166.715,1.47,166.426,1.428,166.137,1.388z"/>
		<path fill="none" d="M130.71,0.787c0.879-0.092,1.76-0.174,2.644-0.25C132.47,0.613,131.589,0.695,130.71,0.787z"/>
		<path fill="none" d="M164.331,1.149c0.291,0.037,0.58,0.075,0.868,0.113C164.911,1.225,164.622,1.187,164.331,1.149z"/>
		<path fill="none" d="M162.521,0.934c0.289,0.032,0.576,0.067,0.865,0.102C163.098,1.001,162.811,0.966,162.521,0.934z"/>
		<path fill="none" d="M155.211,0.29c0.281,0.019,0.563,0.039,0.844,0.059C155.773,0.329,155.492,0.309,155.211,0.29z"/>
		<path fill="none" d="M139.923,0.124c0.892-0.036,1.787-0.064,2.683-0.085C141.71,0.06,140.814,0.088,139.923,0.124z"/>
		<path fill="none" d="M136.765,0.285c0.882-0.055,1.766-0.1,2.651-0.139C138.53,0.186,137.646,0.23,136.765,0.285z"/>
		<path fill="none" d="M133.897,0.493c0.905-0.074,1.812-0.143,2.723-0.2C135.709,0.351,134.803,0.419,133.897,0.493z"/>
		<path fill="none" d="M153.369,0.187c0.273,0.014,0.547,0.031,0.82,0.046C153.916,0.218,153.643,0.2,153.369,0.187z"/>
		<path fill="none" d="M143.143,0.029C144.072,0.012,145.002,0,145.937,0C145.002,0,144.072,0.012,143.143,0.029z"/>
		<path fill="none" d="M151.52,0.105c0.265,0.01,0.528,0.022,0.792,0.034C152.048,0.128,151.784,0.115,151.52,0.105z"/>
		<path fill="none" d="M149.664,0.047c0.245,0.007,0.488,0.016,0.733,0.022C150.152,0.063,149.909,0.054,149.664,0.047z"/>
		<path fill="none" d="M147.801,0.012c0.215,0.003,0.425,0.009,0.64,0.013C148.226,0.021,148.016,0.015,147.801,0.012z"/>
		<path fill="none" d="M101.481,6.897c0.805-0.257,1.611-0.508,2.422-0.751C103.093,6.39,102.286,6.641,101.481,6.897z"/>
		<path fill="none" d="M48.642,37.168c0.679-0.609,1.364-1.212,2.056-1.808C50.006,35.956,49.32,36.559,48.642,37.168z"/>
		<path fill="none" d="M169.723,1.931c0.289,0.047,0.578,0.097,0.865,0.146C170.299,2.027,170.012,1.978,169.723,1.931z"/>
		<path fill="none" d="M50.788,35.282c1.402-1.206,2.827-2.387,4.276-3.54C53.615,32.896,52.19,34.076,50.788,35.282z"/>
		<path fill="none" d="M69.576,21.551c0.768-0.472,1.538-0.938,2.314-1.396C71.114,20.612,70.344,21.079,69.576,21.551z"/>
		<path fill="none" d="M175.046,2.905c0.291,0.06,0.58,0.119,0.868,0.18C175.626,3.024,175.337,2.965,175.046,2.905z"/>
		<path fill="none" d="M176.806,3.273c0.289,0.062,0.576,0.125,0.863,0.189C177.382,3.398,177.095,3.335,176.806,3.273z"/>
		<path fill="none" d="M171.506,2.234c0.289,0.051,0.577,0.104,0.864,0.156C172.083,2.338,171.795,2.285,171.506,2.234z"/>
		<path fill="none" d="M173.28,2.559c0.289,0.056,0.578,0.111,0.867,0.169C173.858,2.67,173.569,2.614,173.28,2.559z"/>
		<path fill="none" d="M62.282,26.345c0.738-0.518,1.481-1.03,2.229-1.534C63.764,25.314,63.021,25.827,62.282,26.345z"/>
		<path fill="none" d="M59.814,28.111c0.725-0.531,1.455-1.055,2.19-1.572C61.27,27.057,60.539,27.58,59.814,28.111z"/>
		<path fill="none" d="M55.297,31.557c0.709-0.563,1.424-1.121,2.145-1.671C56.721,30.436,56.006,30.993,55.297,31.557z"/>
		<path fill="none" d="M57.521,29.824c0.727-0.554,1.459-1.102,2.195-1.642C58.979,28.723,58.248,29.271,57.521,29.824z"/>
		<path fill="none" d="M67.013,23.164c0.745-0.48,1.496-0.953,2.25-1.42C68.509,22.211,67.758,22.684,67.013,23.164z"/>
		<path fill="none" d="M64.567,24.773c0.747-0.503,1.5-0.998,2.258-1.487C66.067,23.775,65.314,24.271,64.567,24.773z"/>
		<path fill="#9A2F8E" d="M270.563,122.546l3.598,0.847c0,0-1.543-4.631-3.085-4.631c-0.122,0-0.277,0.004-0.455,0.009
			c-0.036,1.346-0.06,2.566-0.06,3.593C270.562,122.424,270.563,122.485,270.563,122.546z"/>
		<path fill="#9A2F8E" d="M285.109,130.923c-0.884-1.242-1.73-2.471-2.307-3.853c-0.633-1.264-1.555-2.814-2.502-4.124
			c-0.066,0.216-0.094,1.025,1.578,3.533c0.704,1.054,0.025,1.027-1.17,0.537l2.714,2.036
			C283.423,129.053,284.144,129.828,285.109,130.923z"/>
		<path fill="#9A2F8E" d="M18.491,109.889l1.504-0.902l-0.036-0.181c-0.157-0.026-0.314-0.052-0.471-0.08
			C19.151,109.117,18.819,109.506,18.491,109.889z"/>
		<path fill="#9A2F8E" d="M121.341,289.808c7.996,1.355,16.213,2.065,24.596,2.065c4.623,0,9.194-0.218,13.708-0.639
			L121.341,289.808z"/>
		<path fill="#9A2F8E" d="M241.748,207.256c-1.471-1.26-2.943-1.662-4.169-1.696c-1.067,1.689-2.439,3.386-3.549,3.755
			c-1.543,0.515-5.659,2.058-5.659,2.058l2.058,2.573l4.631-2.571l9.428-1.371C243.682,209.153,242.805,208.163,241.748,207.256z"/>
		<path fill="#9A2F8E" d="M290.111,140.152c0,3.257,0,8.45,0,8.45v1.544l-2.572,8.232c0,0,0,6.174,0,10.805s0,5.66,0,7.203
			c0,1.544-1.544,2.573-1.544,2.573s-7.716,1.543-9.26,2.058c-1.545,0.515-2.06,3.087-3.604,3.602
			c-1.543,0.515-2.056,1.544-3.6,3.602c-1.543,2.059-3.604,5.66-6.174,7.718c-2.573,2.059-3.087,0-5.146-0.515
			c-2.058-0.514-4.116-1.028-4.116-1.028l2.573,3.602c0,0-1.714,5.481-4.302,9.735c1.361-1.89,2.943-3.911,4.302-4.591
			c2.058-1.028,2.572-2.572,6.174-4.115c3.6-1.544,8.747-1.544,8.747-1.544l7.201-0.515l2.941,2.521
			c6.544-16.582,10.14-34.647,10.14-53.553c0-0.798-0.01-1.595-0.023-2.39c-0.001-0.118-0.003-0.237-0.005-0.354
			c-0.016-0.77-0.035-1.537-0.06-2.305c0-0.004-0.002-0.008-0.002-0.014c-0.021-0.028-0.042-0.055-0.063-0.083
			C291.382,140.452,290.708,140.281,290.111,140.152z"/>
		<path fill="#5D649E" d="M19.959,108.806l-0.102-0.512c-0.124,0.145-0.247,0.288-0.369,0.432
			C19.645,108.754,19.802,108.779,19.959,108.806z"/>
		<path fill="#5D649E" d="M49.837,38.498h1.028l2.059,2.059v3.602v2.393c0.924-0.569,1.952-1.197,3.087-1.878
			c1.063-0.638,2.808-1.275,4.904-1.886l0.241-1.201l1.543-4.116c0,0,3.594-2.487,6.729-4.424c0.442-1.653,0.989-3.294,0.989-3.294
			s2.572-1.029,9.262-1.029c2.058,0,7.717-5.145,7.717-5.145l2.059-1.543c0,0-0.515-0.001,2.058-2.573s5.66-4.116,5.66-4.116
			l5.145,2.059l3.087,2.572c0,0-0.514,1.028,2.572,0.514c0.814-0.135,1.627-0.485,2.384-0.928c0.13-0.932,0.469-1.784,1.219-2.158
			c1.459-0.729,2.4-1.204,3.191-2.15l-5.765,1.121c0,0-2.572-0.515-2.572-2.572c0-2.059,4.116-6.689,4.116-6.689l4.116,0.515
			c0,0,0.746,2.683,1.835,4.759c1.038-1.659,2.28-3.215,2.28-3.215l2.059-1.544l1.543,4.116v0.443
			c2.096-1.49,4.116-2.501,4.116-2.501s0.516-0.515,2.059-0.515s3.086-1.029,3.086-1.029s1.029-3.601,2.573-3.601s7.718,0,7.718,0
			l2.058,2.058c0,0,4.116,0.514,5.146-1.029s3.087-3.602,3.087-3.602s0-0.515,1.544-0.515c1.543,0,5.145,1.543,5.145,1.543
			l3.602,1.545L166.63,6.6h6.175l5.659,0.514c0,0,5.146,3.088,7.718,4.116c2.573,1.029,8.232,2.573,8.232,2.573l2.573,2.572
			l2.056,6.688l-2.57,7.203l-6.706,1.612c2.237,2.454,4.133,5.076,4.133,5.076s-2.035,1.162-5.447,1.74
			c-0.124,1.034-0.212,1.925-0.212,2.376c0,1.199-4.35,1.777-6.289,1.976c0.204,0.677,0.417,1.396,0.629,2.141
			c1.029,3.602,3.088,4.116,4.631,5.659c1.544,1.544,0.515,4.631,0.515,4.631s-0.082,0.349-0.235,0.913
			c1.037,0.962,1.779,1.917,1.779,2.688c0,0.411-0.067,0.849-0.203,1.313l0.203,0.23c0,0,10.803-2.059,10.803-3.602
			s-1.544-9.261-1.544-9.261s0-6.174,0-7.718s0-5.659,0-7.203c0-1.543-0.515-0.515,0-4.116s4.633-6.174,4.633-6.174h3.6
			c0,0,3.602-1.028,6.175,0c2.572,1.029,7.718-0.515,11.319,8.231c1.908,4.635,2.66,8.979,3.101,13.188l2.044-2.897
			c0,0,7.204,23.667,8.747,25.211c0.309,0.309,1.234,1.008,2.516,1.928c3.781,0.753,7.044,1.674,7.775,1.674
			c1.543,0,11.834,8.231,11.834,8.231s1.094,1.917,2.561,4.551l1.041,0.595l6.174-0.514c0,0,5.361-0.715,7.442-0.059
			c-1.102-2.287-2.263-4.54-3.479-6.759c-0.229,0.736-0.363,1.157-0.363,1.157l-3.6,0.515h-2.572c0,0-3.087-1.544-6.175-3.603
			c-0.772-0.514-1.254-0.836-1.543-1.028l0,0c0,0-0.341-0.226-0.383-0.254c-0.002-0.002-0.004-0.003-0.004-0.003
			s0.002,0.001,0.004,0.003c0.021,0.014,0.126,0.083,0.383,0.254l-0.515-2.572l-2.059-6.688v1.543l0.515,4.116c0,0-3.602,0-5.659,0
			l-3.602-1.029l-3.088-1.028l-3.602-2.059l-1.543-3.602c0,0,0,0,0.515-2.058l3.087-2.573l2.058-0.515l7.203-2.571l-1.543-3.603
			l-1.544-1.543l-3.087-3.087l-7.203-3.088c0,0-2.059-1.028-4.116-3.087c-2.059-2.058-1.029-2.058-1.029-2.058
			s-2.572-3.602-4.631-5.659c-2.058-2.059-1.543-4.116-1.543-4.116l1.13-1.412c-2.526-1.768-5.108-3.458-7.748-5.066
			c-0.023-0.014-0.044-0.027-0.065-0.04c-0.394-0.24-0.79-0.477-1.186-0.712c-0.104-0.062-0.207-0.125-0.31-0.186
			c-0.356-0.21-0.712-0.417-1.065-0.623c-0.149-0.086-0.295-0.173-0.444-0.258c-0.333-0.192-0.667-0.381-1.002-0.57
			c-0.172-0.098-0.343-0.195-0.515-0.292c-0.319-0.18-0.643-0.356-0.964-0.534c-0.189-0.103-0.377-0.208-0.564-0.311
			c-0.31-0.169-0.621-0.335-0.934-0.502c-0.202-0.108-0.405-0.218-0.607-0.325c-0.303-0.16-0.604-0.316-0.909-0.475
			c-0.214-0.111-0.429-0.224-0.645-0.335c-0.296-0.152-0.595-0.303-0.894-0.453c-0.222-0.112-0.443-0.226-0.667-0.337
			c-0.295-0.146-0.589-0.291-0.884-0.436c-0.229-0.113-0.459-0.227-0.69-0.338c-0.291-0.141-0.581-0.278-0.872-0.417
			c-0.237-0.112-0.473-0.226-0.71-0.337c-0.291-0.136-0.579-0.269-0.87-0.402c-0.241-0.111-0.482-0.223-0.725-0.333
			c-0.287-0.131-0.576-0.26-0.865-0.389c-0.246-0.109-0.491-0.22-0.738-0.328c-0.286-0.127-0.575-0.251-0.862-0.375
			c-0.251-0.108-0.501-0.217-0.752-0.323c-0.285-0.122-0.573-0.242-0.86-0.361c-0.255-0.106-0.509-0.214-0.766-0.319
			c-0.284-0.116-0.569-0.231-0.854-0.347c-0.26-0.104-0.519-0.21-0.78-0.313c-0.283-0.113-0.568-0.225-0.855-0.336
			c-0.262-0.103-0.523-0.204-0.786-0.305c-0.286-0.109-0.571-0.217-0.856-0.325c-0.266-0.099-0.532-0.198-0.798-0.297
			c-0.285-0.104-0.57-0.209-0.856-0.313c-0.269-0.097-0.538-0.194-0.808-0.29c-0.285-0.101-0.57-0.2-0.854-0.301
			c-0.272-0.094-0.546-0.188-0.817-0.281c-0.285-0.097-0.569-0.193-0.854-0.288c-0.275-0.093-0.551-0.185-0.828-0.275
			c-0.285-0.093-0.57-0.186-0.855-0.277c-0.279-0.089-0.555-0.177-0.834-0.265c-0.285-0.09-0.569-0.179-0.856-0.267
			c-0.281-0.086-0.563-0.172-0.846-0.257c-0.285-0.086-0.57-0.171-0.854-0.255c-0.283-0.083-0.568-0.166-0.852-0.247
			c-0.285-0.082-0.572-0.164-0.858-0.244c-0.287-0.08-0.572-0.16-0.859-0.238s-0.572-0.156-0.858-0.232
			c-0.289-0.078-0.578-0.154-0.869-0.229c-0.284-0.074-0.571-0.148-0.856-0.222c-0.293-0.074-0.583-0.146-0.876-0.219
			c-0.287-0.072-0.574-0.143-0.862-0.212c-0.293-0.07-0.586-0.141-0.88-0.209c-0.287-0.067-0.574-0.134-0.861-0.2
			c-0.296-0.067-0.593-0.134-0.891-0.199c-0.287-0.064-0.574-0.128-0.863-0.189c-0.296-0.064-0.595-0.127-0.892-0.188
			c-0.288-0.061-0.577-0.12-0.868-0.18c-0.298-0.061-0.599-0.119-0.898-0.178c-0.289-0.058-0.578-0.113-0.867-0.169
			c-0.304-0.057-0.605-0.112-0.91-0.168c-0.287-0.053-0.575-0.105-0.864-0.156c-0.305-0.054-0.61-0.106-0.918-0.158
			c-0.287-0.049-0.576-0.099-0.865-0.146c-0.308-0.05-0.615-0.099-0.922-0.147c-0.288-0.045-0.577-0.091-0.868-0.135
			c-0.31-0.047-0.619-0.091-0.93-0.136c-0.288-0.043-0.577-0.085-0.866-0.125c-0.312-0.043-0.623-0.083-0.938-0.125
			c-0.288-0.038-0.577-0.076-0.868-0.113c-0.313-0.039-0.631-0.076-0.944-0.114c-0.289-0.034-0.576-0.069-0.865-0.102
			c-0.321-0.037-0.643-0.07-0.964-0.104c-0.283-0.03-0.568-0.062-0.852-0.09c-0.326-0.033-0.651-0.063-0.979-0.093
			c-0.281-0.026-0.564-0.055-0.848-0.079c-0.327-0.028-0.656-0.055-0.983-0.081c-0.283-0.023-0.565-0.048-0.849-0.068
			c-0.329-0.025-0.662-0.047-0.993-0.069c-0.281-0.02-0.563-0.04-0.844-0.059c-0.34-0.021-0.681-0.039-1.021-0.058
			c-0.273-0.015-0.547-0.032-0.82-0.046c-0.352-0.018-0.706-0.031-1.058-0.047c-0.264-0.012-0.527-0.024-0.792-0.034
			c-0.375-0.015-0.748-0.024-1.122-0.036c-0.245-0.007-0.488-0.016-0.733-0.022c-0.407-0.01-0.816-0.016-1.224-0.022
			c-0.215-0.004-0.425-0.01-0.64-0.013C147.182,0.004,146.56,0,145.937,0c-0.935,0-1.864,0.012-2.794,0.029
			c-0.179,0.004-0.358,0.006-0.537,0.01c-0.896,0.021-1.791,0.049-2.683,0.085c-0.169,0.007-0.337,0.015-0.507,0.022
			c-0.886,0.039-1.77,0.084-2.651,0.139c-0.049,0.003-0.097,0.005-0.145,0.008c-0.911,0.058-1.817,0.126-2.723,0.2
			c-0.182,0.015-0.362,0.028-0.544,0.044c-0.884,0.076-1.765,0.158-2.644,0.25c-0.154,0.016-0.307,0.033-0.46,0.049
			c-0.852,0.092-1.702,0.188-2.549,0.294c-0.08,0.011-0.159,0.019-0.239,0.029c-0.889,0.112-1.774,0.234-2.658,0.362
			c-0.179,0.026-0.357,0.053-0.536,0.079c-0.872,0.13-1.741,0.266-2.608,0.411c-0.133,0.022-0.265,0.046-0.398,0.068
			c-0.827,0.142-1.652,0.288-2.475,0.443c-0.103,0.02-0.205,0.037-0.308,0.057c-0.867,0.165-1.732,0.34-2.595,0.521
			c-0.173,0.036-0.347,0.073-0.521,0.109c-0.859,0.184-1.718,0.373-2.571,0.571c-0.106,0.025-0.213,0.051-0.319,0.076
			c-0.813,0.191-1.625,0.389-2.434,0.593c-0.117,0.03-0.234,0.059-0.352,0.089c-0.847,0.216-1.691,0.441-2.533,0.673
			c-0.164,0.045-0.328,0.091-0.492,0.137c-0.849,0.236-1.695,0.479-2.537,0.73c-0.074,0.021-0.148,0.045-0.222,0.067
			c-0.811,0.243-1.617,0.494-2.422,0.751c-0.124,0.04-0.248,0.078-0.372,0.118c-0.828,0.268-1.653,0.542-2.475,0.823
			c-0.151,0.052-0.302,0.104-0.453,0.156c-0.84,0.291-1.676,0.587-2.508,0.893c-0.031,0.011-0.063,0.022-0.093,0.034
			c-0.818,0.301-1.633,0.61-2.443,0.925c-0.126,0.05-0.253,0.098-0.378,0.146c-0.81,0.317-1.614,0.641-2.417,0.972
			c-0.135,0.056-0.271,0.112-0.406,0.169c-1.653,0.688-3.292,1.405-4.914,2.151c-0.121,0.056-0.243,0.11-0.364,0.167
			c-0.791,0.366-1.578,0.74-2.362,1.121c-0.115,0.056-0.229,0.112-0.344,0.168c-1.613,0.788-3.209,1.604-4.788,2.449
			c-0.115,0.063-0.23,0.124-0.345,0.186c-0.773,0.416-1.543,0.839-2.307,1.269c-0.091,0.051-0.181,0.104-0.271,0.154
			c-0.784,0.443-1.565,0.892-2.341,1.349c-0.003,0.002-0.007,0.004-0.011,0.007c-0.776,0.458-1.547,0.925-2.314,1.396
			c-0.104,0.064-0.209,0.129-0.313,0.193c-0.754,0.467-1.505,0.939-2.25,1.42c-0.063,0.04-0.125,0.081-0.188,0.122
			c-0.758,0.489-1.511,0.984-2.258,1.487c-0.019,0.013-0.037,0.025-0.056,0.037c-0.748,0.504-1.491,1.017-2.229,1.534
			c-0.093,0.064-0.186,0.13-0.277,0.194c-0.735,0.518-1.466,1.041-2.19,1.572c-0.032,0.023-0.065,0.048-0.098,0.071
			c-0.736,0.54-1.469,1.088-2.195,1.642c-0.026,0.021-0.053,0.041-0.08,0.062c-0.721,0.55-1.436,1.107-2.145,1.671
			c-0.078,0.062-0.155,0.123-0.232,0.186c-1.449,1.153-2.874,2.334-4.276,3.54c-0.03,0.026-0.062,0.052-0.091,0.078
			c-0.691,0.596-1.377,1.198-2.056,1.808c-0.063,0.056-0.125,0.11-0.186,0.166c-0.097,0.087-0.191,0.175-0.287,0.262L49.837,38.498z
			"/>
		<path fill="#5D649E" d="M280.85,100.239c-0.514,2.573-3.6,6.175-3.6,9.262s3.086,13.377,3.086,13.377s-0.018,0.019-0.035,0.068
			c0.947,1.31,1.869,2.86,2.502,4.124c0.576,1.382,1.423,2.61,2.307,3.853c1.981,2.245,5.002,5.838,5.002,6.875
			c0,0.389,0,1.263,0,2.354c0.597,0.129,1.271,0.3,1.608,0.639c0.021,0.028,0.042,0.055,0.063,0.083c0-0.003,0-0.006,0-0.009
			c-0.02-0.595-0.044-1.189-0.071-1.782c-0.001-0.02-0.001-0.04-0.003-0.059c-0.027-0.588-0.058-1.173-0.092-1.758
			c-0.002-0.024-0.004-0.05-0.004-0.075c-0.035-0.579-0.073-1.157-0.115-1.734c-0.002-0.031-0.004-0.062-0.006-0.093
			c-0.04-0.571-0.084-1.142-0.132-1.711c-0.004-0.037-0.006-0.074-0.01-0.111c-0.048-0.565-0.1-1.13-0.152-1.693
			c-0.004-0.04-0.008-0.08-0.012-0.12c-0.054-0.561-0.111-1.121-0.172-1.68c-0.004-0.042-0.01-0.084-0.014-0.126
			c-0.062-0.557-0.124-1.112-0.191-1.667c-0.006-0.044-0.012-0.088-0.018-0.133c-0.066-0.553-0.138-1.104-0.21-1.656
			c-0.006-0.045-0.012-0.09-0.018-0.135c-0.074-0.551-0.15-1.101-0.231-1.649c-0.008-0.045-0.013-0.089-0.019-0.133
			c-0.082-0.55-0.165-1.098-0.253-1.646c-0.006-0.043-0.014-0.087-0.021-0.13c-0.086-0.547-0.177-1.095-0.271-1.64
			c-0.007-0.043-0.015-0.086-0.022-0.129c-0.094-0.547-0.191-1.093-0.291-1.638c-0.008-0.04-0.015-0.079-0.022-0.118
			c-0.102-0.549-0.205-1.095-0.312-1.641c-0.008-0.036-0.016-0.072-0.021-0.108c-0.109-0.549-0.22-1.097-0.335-1.645
			c-0.008-0.03-0.013-0.063-0.021-0.094c-0.115-0.552-0.233-1.103-0.356-1.651c-0.006-0.025-0.011-0.051-0.017-0.076
			c-0.125-0.555-0.251-1.108-0.381-1.66c-0.004-0.021-0.01-0.04-0.014-0.06c-0.132-0.559-0.268-1.115-0.405-1.67
			c-0.002-0.014-0.006-0.026-0.01-0.039c-0.14-0.563-0.281-1.124-0.429-1.684c-0.001-0.004-0.001-0.009-0.003-0.013
			c-1.384-5.285-3.055-10.452-4.996-15.485C281.795,95.273,281.202,98.479,280.85,100.239z"/>
		<path fill="#CA73AE" d="M119.073,145.265c-1.215-2.491-2.614-5.157-3.38-5.923c-1.543-1.544-6.174-7.202-7.718-7.202
			c-1.543,0-10.289,0-11.833,1.543s-3.087,5.145,0.515,6.688c3.601,1.543,12.862,4.116,12.862,4.116l6.538,2.397l1.694-1.884
			l0.845,0.739C118.746,145.592,118.906,145.433,119.073,145.265z"/>
		<path fill="#CA73AE" d="M180.239,37.086l0.283,1.412c0,0,0.648,1.946,1.429,4.549c1.939-0.198,6.289-0.776,6.289-1.976
			c0-0.451,0.088-1.342,0.212-2.376c-1.128,0.19-2.408,0.317-3.813,0.317C179.218,39.013,181.817,38.069,180.239,37.086z"/>
		<path fill="#CA73AE" d="M59.098,108.986c-2.058-1.029-3.087,0-3.087,0s-5.146,3.602-7.717,5.145
			c-2.573,1.544-6.175,2.573-6.175,2.573l-2.46,1.142l1.431,1.431c0,0,0,0.515,5.66-1.544c5.659-2.058,12.862-4.63,12.862-4.63
			s2.059-1.029,4.631-1.029c0.483,0,1.001,0,1.543,0C65.786,112.073,61.156,110.015,59.098,108.986z"/>
		<path fill="#CA73AE" d="M46.219,90.577c0.003-0.072,0.017-0.113,0.017-0.113l3.087-1.544l3.087,1.544l2.18-0.168
			c0.143-0.581-0.122-1.375-0.122-1.375s4.631-1.029,7.204-1.544c0.361-0.072,0.806-0.165,1.3-0.271l0.243-0.243
			c0,0,5.145-1.544,7.718-1.544c0,0,3.602-4.63,0.515-7.203c-3.088-2.572-5.146-1.028-5.146-1.028s-0.915-0.428-2.178-1.029h-1.424
			c0,0-3.602,0-5.145-0.515c-0.286-0.095-0.643-0.278-1.033-0.515h-2.055v-1.43c-1.121-0.854-2.058-1.657-2.058-1.657l-0.097-0.486
			c-0.561-0.027-0.933-0.028-0.933-0.028l-1.83-2.44c-2.657,3.994-4.968,7.714-5.372,9.129c-0.282,0.986-3.11,4.711-7.066,9.599
			l6.552,3.779C43.663,91.493,44.744,91.002,46.219,90.577z"/>
		<path fill="#CA73AE" d="M60.642,44.93v-0.771l0.273-1.371c-2.097,0.61-3.841,1.248-4.904,1.886
			c-1.135,0.681-2.163,1.309-3.087,1.878v0.694l2.771,3.563l2.375-3.563L60.642,44.93z"/>
		<path fill="#CA73AE" d="M85.853,64.738c-5.66,5.66,0,2.573,0,2.573l4.63,8.746v2.572l2.059,2.059l0.515,3.602h-2.116
			c1.287,0.776,2.861,1.367,4.234,1.438c-0.037-0.378-0.061-0.695-0.061-0.923c0-1.544-0.515-4.116,2.059-5.146
			c0.431-0.173,0.789-0.301,1.111-0.4c0.488-1.904,1.677-4.147,3.004-6.803c2.573-5.145,5.146-4.631,7.718-6.174
			c2.573-1.544,11.834,0.514,11.834,0.514l4.631-4.115c0,0-5.761-5.421-8.481-8.29c-0.09,0.02-0.173,0.036-0.266,0.058
			c-6.688,1.544-7.718,2.058-16.979,2.572c-3.638,0.202-5.288,0.245-6.235,0.192c-0.163,0.111-0.315,0.219-0.453,0.322
			C90.997,59.079,91.512,59.079,85.853,64.738z"/>
		<path fill="#CA73AE" d="M30.286,102.813l-2.573,2.058l-2.572,1.029l-3.087,3.087l2.196,4.941c0.87-0.272,1.733-0.592,2.491-0.956
			c0.856-0.687,1.486-0.898,1.486-0.898l5.145-4.631c0,0,0.538-0.23,1.35-0.564c0.741-0.593,1.224-0.979,1.224-0.979
			s0.054,0.164,0.136,0.427c2.214-0.884,5.122-1.971,6.038-1.971c1.544,0,13.892,1.544,13.892,1.544s11.834,0,13.378,0
			c1.543,0,18.522,5.145,18.522,5.145l3.286,0.429c1.621-0.248,2.887-0.429,2.887-0.429l3.603-1.029l3.086,0.515l4.631,8.232
			l11.319,13.892l4.631,5.145v5.087c2.143-2.331,4.371-5.07,4.63-6.63c0.515-3.087,2.573-5.146,2.573-5.146l5.145,2.573l8.232,5.145
			l7.616-0.662l1.13-2.425v-9.775l4.304,1.684l3.414-6.828l4.631-3.088v2.573v4.116l-0.515,3.087l-2.572,1.544h-1.371l3.943,1.543
			c0,0,2.573,3.602,4.631-0.515c2.059-4.116,3.602-5.146,1.029-9.775c-1.97-3.547-4.543-7.693-5.641-9.443
			c-1.398,1.29-3.869,1.822-7.844,2.931c-0.406,2.77-0.408,4.969-0.408,4.969l-5.659-3.087c0,0-1.029-1.029-2.058-2.572
			c-0.22-0.328-0.341-0.68-0.403-1.029c-1.851,0-4.309,0-5.771,0c-2.572,0-5.659-1.029-5.659-1.029l-3.088-3.087l-5.466-2.733
			c-0.735-0.026-1.377,0.039-1.859,0.24l-0.419,3.77l3.629,1.296l1.242,4.72c0.515,0.523,0.977,1.012,1.33,1.455
			c1.979,2.473,1.103,5.413-0.339,5.638l-0.689,4.138c0,0,0,0-2.573,0c-1.271,0-3.421-2.638-5.271-5.308
			c-2.059-0.635-2.902-2.124-7.591-4.468c-5.146-2.573-1.544-6.689-1.544-9.262c0-0.263,0.04-0.498,0.107-0.71
			c-1.521,0.105-3.144,0.196-4.224,0.196c-2.571,0-6.688-1.029-8.231-2.059c-1.544-1.029-4.631-6.174-4.631-6.174l-0.515-1.544
			l-0.276-1.013c-0.08-0.01-0.16-0.017-0.238-0.017c-1.122,0-0.866-1.224-0.403-2.337l-0.625-2.293l-3.088-3.602l-5.659,1.544
			c0,0-3.602,0.514-15.436,1.028c-1.957,0.085-3.419,0.213-4.5,0.366c-0.301,0.594-0.787,1.389-1.493,2.08
			c0.195,0.08,0.334,0.127,0.334,0.127l2.058,2.058c0,0,2.573,3.602,2.573,5.145c0,1.544-1.029,0.515-1.029,0.515s-3.087,0-4.63,0
			c-1.544,0-7.204-0.515-12.349-2.572c-5.146-2.058-5.659-1.029-7.718-1.544c-1.046-0.262-4.484-2.916-7.613-5.733
			c-2.321,2.822-4.88,5.879-7.462,8.938c1.293,0.422,2.604,0.768,3.756,0.911C34.916,101.269,30.286,102.813,30.286,102.813z"/>
		<path fill="#CA73AE" d="M185.668,71.941l-2.059,1.544h-4.116l-1.557,0.778c0.008,0.078,0.013,0.16,0.013,0.25
			c0,2.573,0.515,4.631,0.515,4.631s-6.922,7.844-12.899,13.045c-0.476,0.765-0.99,1.566-1.507,2.342c0,3.487,0,5.998,0,11.368
			c2.572-0.515,5.146-1.029,5.146-1.029s6.174-7.203,6.174-8.746c0-1.544,0-8.232,0-8.232s0.515-5.145,2.572-6.174
			c2.059-1.029,12.349-15.95,13.891-15.95c1.544,0,8.232,1.544,9.776,2.572c1.545,1.029,3.602,3.087,3.602,3.087
			s-2.057,2.059,3.087,2.059c5.146,0,12.349-2.572,12.349-2.572l-4.116-5.66l-2.573-7.203l4.631-1.544l4.631-6.688l4.13-5.85
			c-0.44-4.209-1.192-8.554-3.101-13.188c-3.602-8.746-8.747-7.202-11.319-8.231c-2.573-1.028-6.175,0-6.175,0h-3.6
			c0,0-4.118,2.572-4.633,6.174s0,2.573,0,4.116c0,1.544,0,5.659,0,7.203s0,7.718,0,7.718s1.544,7.718,1.544,9.261
			s-10.803,3.602-10.803,3.602l-0.203-0.23c-0.421,1.437-1.511,3.126-3.398,5.068V71.941z"/>
		<path fill="#CA73AE" d="M124.44,89.949c-12.349,5.146-11.319,0-18.522-3.087c-7.718,0-4.116-0.515-4.116-0.515s0,0-2.572-2.572
			c-0.625-0.626-0.976-1.312-1.112-2.066c-0.173,0.585-0.324,1.124-0.431,1.552c-0.515,2.059,2.058,0.515-0.515,2.059
			c-0.552,0.33-1.244,0.447-1.998,0.408c0.172,1.7,0.661,4.641,0.871,6.279h0.098l6.174,4.631l3.602,2.573l-1.467,2.933
			c1.769,0.994,3.524,1.697,3.524,1.697l5.226,1.633l-0.08-0.089l-5.146-6.174h2.573l2.058-2.059l1.544-1.544
			c0,0,6.688-1.543,8.231-1.543c1.544,0,2.573,0,4.631,0c2.059,0,3.602,0,3.602,0l12.349-0.515l-3.602,3.087l-2.71,1.479
			c0.458,0.014,0.895,0.026,1.308,0.036c1.15-0.295,2.384-0.615,3.641-0.949c0.031-0.357,0.135-0.565,0.334-0.565
			c0.22,0,0.502,0.096,0.824,0.257c1.177-0.317,2.352-0.642,3.477-0.963c0.819-0.532,1.624-1.085,2.392-1.643l1.024-1.253
			l3.784-7.775c-0.102-0.891-0.182-1.867-0.215-2.94l-0.481-0.604l0.475-0.662c0.002-0.235,0.005-0.474,0.013-0.718
			c-0.479-3.469-0.992-7.167-1.281-9.26c-0.407-0.299-0.75-0.164-0.75-0.164s-1.519,2.729-4.086,4.696
			c0.507,0.924,1.02,1.934,1.514,3.021c2.572,5.66-6.688,5.145-6.688,5.145h-4.116c0,0-0.175,0-0.554,0
			c-0.873,0.329-1.893,0.627-3.057,0.9C131.692,86.408,128.554,88.235,124.44,89.949z"/>
		<path fill="#CA73AE" d="M144.492,108.071c-0.074,0.068-0.146,0.135-0.219,0.202c0.144,0.446,0.232,0.713,0.232,0.713l1.767,1.324
			c0.131-0.485,0.292-0.811,0.292-0.811C145.847,108.604,145.191,108.208,144.492,108.071z"/>
		<path fill="#826EB0" d="M86.234,28.488l0.132-0.794l3.088-0.515c0,0,3.087-1.028,4.63-2.059c1.544-1.028,4.116-3.601,4.116-3.601
			l4.631,1.028c0,0,1.544,0.515,4.631,0.515s3.087,0,3.087,0s-0.415-1.873-0.189-3.501c-0.757,0.442-1.569,0.793-2.384,0.928
			c-3.086,0.515-2.572-0.514-2.572-0.514l-3.087-2.572l-5.145-2.059c0,0-3.088,1.544-5.66,4.116s-2.058,2.573-2.058,2.573
			l-2.059,1.543c0,0-5.659,5.145-7.717,5.145c0.438,0,0.872,0,1.304,0C82.416,28.56,84.185,28.528,86.234,28.488z"/>
		<path fill="#826EB0" d="M123.926,16.89c1.544,0.515-0.515,0.515,3.602,0.515c1.066,0,1.89,0.173,2.598,0.375
			c2.042-0.943,4.12-1.934,6.149-2.948c1.477-0.738,2.888-1.292,4.217-1.704c2.311-2.341,4.015-4.47,4.015-4.47s0-1.029,2.059-1.029
			c2.058,0,5.659,0,5.659,0s4.631-0.515,6.174-0.515c1.544,0,5.146,0,5.146,0s-0.515-1.028,1.029,0.515
			c1.543,1.544-7.718,5.146-7.718,5.146l3.474,1.736l8.36,0.836c0,0-4.386,0-6.688,0l2.058,1.029c0,0-1.484-0.432-3.588-1.029
			c-0.83,0-1.739,0-3.101,0l0,0l-2.456,1.811c-0.275,0.814-0.53,1.711-0.73,2.661c0.858,1.447,2.7,3.365,5.244,6.333
			c0.186,0.216,0.357,0.404,0.522,0.57c0.527,0.332,1.002,0.664,1.361,0.98c1.201,0.367,1.203-1.551,1.203-1.551l2.059-2.572
			l5.146-3.088l13.377-0.514c0,0,0,2.66-0.663,5.659c1.381,0,2.687,0,3.75,0c0.938,0-0.024,1.33-0.924,2.373
			c1.345,0.648,3.003,2.218,4.509,3.87l6.706-1.612l2.57-7.203l-2.056-6.688l-2.573-2.572c0,0-5.659-1.544-8.232-2.573
			c-2.572-1.028-7.718-4.116-7.718-4.116L172.805,6.6h-6.175l-4.116-2.058l-3.602-1.545c0,0-3.602-1.543-5.145-1.543
			c-1.544,0-1.544,0.515-1.544,0.515s-2.058,2.059-3.087,3.602S143.991,6.6,143.991,6.6l-2.058-2.058c0,0-6.174,0-7.718,0
			s-2.573,3.601-2.573,3.601s-1.543,1.029-3.086,1.029s-2.059,0.515-2.059,0.515s-2.021,1.011-4.116,2.501v2.644
			C122.382,14.831,122.382,16.375,123.926,16.89z"/>
		<path fill="#826EB0" d="M116.5,12.387c-1.089-2.076-1.835-4.759-1.835-4.759l-4.116-0.515c0,0-4.116,4.631-4.116,6.689
			c0,2.058,2.572,2.572,2.572,2.572l5.765-1.121c0.324-0.388,0.625-0.854,0.924-1.451C115.923,13.345,116.203,12.862,116.5,12.387z"
			/>
		<path fill="#6A348C" d="M6.618,112.588l5.581,1.743l-1.465-5.859c0,0,0-2.058,0-3.602c0-0.699,1.795-1.503,3.758-2.175l1.658-2.32
			l2.302-3.223h2.058c0,0,3.204,1.602,6.534,2.69c2.582-3.06,5.141-6.116,7.462-8.938c-3.026-2.725-5.764-5.603-5.764-6.614
			c0-2.059,1.544-0.515,1.544-0.515l6.825,3.938c3.956-4.888,6.784-8.612,7.066-9.599c0.404-1.415,2.715-5.135,5.372-9.129
			l-2.8-3.733v-2.058l0.515-2.059l7.717-9.261l0.713-1.068l-2.771-3.563v-0.694v-2.393v-3.602l-2.059-2.059h-1.028l-1.668-0.902
			l-0.003-0.002C27.771,56.01,12.603,80.102,5.149,107.38L6.618,112.588z"/>
		<path fill="#6A348C" d="M17.423,110.529l1.068-0.641c0.328-0.383,0.66-0.771,0.997-1.163c0.122-0.144,0.245-0.287,0.369-0.432
			l-0.377-1.88l-1.543-0.515l-1.052-0.351c-1.057,1.852-2.035,3.757-2.035,4.466C14.851,111.559,17.423,110.529,17.423,110.529z"/>
		<path fill="#6A348C" d="M273.646,138.313c0,2.059,0,5.66,0,5.66s0,4.115,0,6.688c0,2.572,0,19.552,0,22.124
			c0,2.573-2.056,6.175-4.114,11.319c-2.058,5.146-7.718,6.689-12.349,8.232c-4.63,1.544-5.145,0-5.145,0s-5.66,0.515-9.776,0.515
			s-2.572,8.747-3.602,10.803c-0.291,0.582-0.664,1.242-1.082,1.905c1.226,0.034,2.698,0.437,4.169,1.696
			c1.057,0.907,1.934,1.897,2.739,2.747l6.987-1.018c0.281-0.397,0.583-0.822,0.894-1.253c2.588-4.254,4.302-9.735,4.302-9.735
			l-2.573-3.602c0,0,2.059,0.515,4.116,1.028c2.059,0.515,2.572,2.573,5.146,0.515c2.57-2.058,4.631-5.659,6.174-7.718
			c1.544-2.058,2.057-3.087,3.6-3.602c1.544-0.515,2.059-3.087,3.604-3.602c1.544-0.515,9.26-2.058,9.26-2.058
			s1.544-1.029,1.544-2.573c0-1.543,0-2.572,0-7.203s0-10.805,0-10.805l2.572-8.232v-1.544c0,0,0-5.193,0-8.45
			c0-1.092,0-1.966,0-2.354c0-1.037-3.021-4.63-5.002-6.875c-0.966-1.095-1.687-1.87-1.687-1.87l-2.714-2.036
			c-2.308-0.946-6.548-3.624-6.548-3.624l-3.598-0.847C270.617,129.183,273.646,136.273,273.646,138.313z"/>
		
			<line fill="none" stroke="#8995AF" stroke-width="0" stroke-linecap="round" stroke-linejoin="round" x1="259.37" y1="72.714" x2="259.374" y2="72.717"/>
		<path fill="#8995AF" d="M228.371,27.694c0,0-0.515,2.058,1.543,4.116c2.059,2.058,4.631,5.659,4.631,5.659s-1.029,0,1.029,2.058
			c2.058,2.059,4.116,3.087,4.116,3.087l7.203,3.088l3.087,3.087l1.544,1.543l1.543,3.603l-7.203,2.571l-2.058,0.515l-3.087,2.573
			c-0.515,2.058-0.515,2.058-0.515,2.058l1.543,3.602l3.602,2.059l3.088,1.028l3.602,1.029c2.058,0,5.659,0,5.659,0l-0.515-4.116
			V63.71l2.059,6.688l0.515,2.572c0.289,0.192,0.771,0.515,1.543,1.028c3.088,2.059,6.175,3.603,6.175,3.603h2.572l3.6-0.515
			c0,0,0.134-0.421,0.363-1.157c0.002-0.001,0.002-0.002,0.002-0.003c-10.837-19.782-26.122-36.779-44.511-49.646v0.001
			L228.371,27.694z"/>
		<path fill="#8995AF" d="M259.757,72.971L259.757,72.971c-0.257-0.171-0.361-0.24-0.383-0.254
			C259.416,72.745,259.757,72.971,259.757,72.971z"/>
		<path fill="#8995AF" d="M110.549,23.063c0,0,0,0-3.087,0s-4.631-0.515-4.631-0.515L98.2,21.521c0,0-2.572,2.572-4.116,3.601
			c-1.543,1.03-4.63,2.059-4.63,2.059l-3.088,0.515l-0.132,0.794c2.021-0.039,4.312-0.087,6.821-0.279
			c3.475-0.268,8.059-0.674,12.096-1.22c3.07-1.474,7.026-2.131,9.992-2.756c0.342-0.106,0.708-0.21,1.102-0.313
			c3.273-1.445,8.443-3.629,13.88-6.142c-0.708-0.202-1.531-0.375-2.598-0.375c-4.116,0-2.058,0-3.602-0.515
			s-1.544-2.059-1.544-2.059v-2.644v-0.443l-1.543-4.116l-2.059,1.544c0,0-1.242,1.556-2.28,3.215
			c-0.297,0.476-0.577,0.958-0.807,1.416c-0.299,0.598-0.6,1.063-0.924,1.451c-0.791,0.946-1.732,1.421-3.191,2.15
			c-0.75,0.374-1.089,1.227-1.219,2.158C110.134,21.19,110.549,23.063,110.549,23.063z"/>
		<path fill="#8995AF" d="M164.572,7.628c-1.544-1.543-1.029-0.515-1.029-0.515s-3.602,0-5.146,0c-1.543,0-6.174,0.515-6.174,0.515
			s-3.602,0-5.659,0c-2.059,0-2.059,1.029-2.059,1.029s-1.704,2.129-4.015,4.47c1.874-0.58,3.583-0.875,5.083-0.995
			c0.411-0.242,0.755-0.388,0.99-0.388c0.26,0,0.933,0.133,1.87,0.353c2.393,0.143,3.789,0.677,3.789,0.677l4.084,1.021
			c0.325-0.648,0.547-1.021,0.547-1.021S166.115,9.172,164.572,7.628z"/>
		<path fill="#8995AF" d="M157.369,15.346L157.369,15.346c-0.517,0-1.104,0-1.773,0c-0.226,0.539-0.461,1.147-0.683,1.811
			L157.369,15.346z"/>
		<path fill="#9A2F8E" d="M2.28,137.275c1.791-2.605,2.97-4.107,3.309-4.107c2.573,0,5.146,5.145,5.146,5.145l5.146,1.029
			c0,0,3.086-1.029,4.63-2.572c-1.544,1.543-4.115-0.515-4.115-0.515l-7.204-2.058l1.544-1.029c0,0,0,0,0-1.544
			c0-1.543,2.058-1.543,2.058-1.543v-2.572c0,0,0-3.087,0-5.146c0-2.058,0-3.602,0-3.602v-1.543l-0.515-2.573l-0.078-0.314
			l-5.581-1.743l-1.469-5.208c-2.532,9.268-4.173,18.902-4.827,28.808L2.28,137.275z"/>
		<path fill="#9A2F8E" d="M43.148,177.416c1.319,2.638,0.762,3.026,3.142,7.259c1.313,1.316,3.137,3.271,4.614,4.879
			c0.19-0.87-0.039-2.361-0.039-2.361s10.291-3.088,12.863-3.603c2.572-0.514,14.921-2.572,14.921-2.572s5.659-6.688,5.659-9.775
			c0-3.088,0-7.204-0.514-10.806c-0.515-3.602-2.573-3.087-5.146-5.659c-2.573-2.573-4.116-2.573-4.116-2.573l-1.544-6.688
			c0,0,1.544-1.543,5.146-3.602c3.602-2.058,10.29-2.058,10.29-2.058l1.356,2.17l2.76-1.655l2.572,1.028c0,0,2.059,1.544,0,3.602
			c-0.598,0.6-1.106,1.021-1.543,1.386v4.274v2.402c1.48-0.149,3.763-0.345,5.659-0.345c2.08,0,4.858,0,6.451,0l0.237-1.543
			l5.182-0.74l3.488-1.919l1.47-1.632l-6.538-2.397c0,0-9.262-2.573-12.862-4.116c-3.602-1.544-2.059-5.146-0.515-6.688
			s10.29-1.543,11.833-1.543c1.544,0,6.175,5.658,7.718,7.202c0.766,0.766,2.165,3.432,3.38,5.923
			c0.675-0.679,1.471-1.499,2.28-2.38v-5.087l-4.631-5.145l-11.319-13.892l-4.631-8.232l-3.086-0.515l-3.603,1.029
			c0,0-1.266,0.181-2.887,0.429l8.547,1.115l3.602,5.145c0,0-8.232,0-11.319-0.514c-3.087-0.515-5.146-0.515-5.146-0.515
			s-4.63-2.059-6.688-3.088c-2.058-1.028-8.746-0.514-8.746-0.514l-5.66-1.029c-0.542,0-1.06,0-1.543,0
			c-2.572,0-4.631,1.029-4.631,1.029s-7.203,2.572-12.862,4.63c-5.66,2.059-5.66,1.544-5.66,1.544l-1.431-1.431l-11.33,5.261
			l1.957,4.402l-1.544,3.601c0,0-6.688,4.116-8.232,5.66c1.544-1.544,11.319-6.174,11.319-6.174l2.572,2.572
			c0,0,1.029,9.775,1.029,13.891c0,4.117-0.515,5.146-2.573,6.175c-2.058,1.029-0.514,6.688-0.514,6.688s3.602,6.175,5.146,7.718
			c0.578,0.58,1.303,1.666,2.063,2.959l1.023,0.129L43.148,177.416z M45.721,153.233c0,0,2.059,7.718,2.573,9.776
			c0.514,2.058,2.058,6.688,2.058,8.232c0,1.543,3.087,3.602,3.087,3.602l8.232,5.145l-5.146,2.573l-3.087-1.544l-1.029-5.146
			c0,0-2.572-1.543-4.63-3.087c-2.059-1.543-2.059-8.232-2.059-8.232V153.233z"/>
		<path fill="#9A2F8E" d="M270.047,82.747l-6.174,0.514l-1.041-0.595c2.554,4.589,6.233,11.357,7.215,13.972
			c1.307,3.484,0.77,14.712,0.574,22.133c0.178-0.005,0.333-0.009,0.455-0.009c1.542,0,3.085,4.631,3.085,4.631
			s4.24,2.678,6.548,3.624c1.195,0.49,1.874,0.517,1.17-0.537c-1.672-2.508-1.645-3.317-1.578-3.533
			c0.018-0.05,0.035-0.068,0.035-0.068s-3.086-10.29-3.086-13.377s3.086-6.688,3.6-9.262c0.353-1.761,0.945-4.966,1.286-6.814
			c0-0.001,0-0.002,0-0.003c-1.408-3.65-2.957-7.23-4.643-10.732c-0.002,0-0.002,0-0.004-0.001
			C275.408,82.032,270.047,82.747,270.047,82.747z"/>
		<path fill="#9A2F8E" d="M26.741,112.972c-0.758,0.364-1.621,0.684-2.491,0.956l0.601,1.352c0.068-0.247,0.162-0.463,0.29-0.634
			C25.698,113.901,26.256,113.361,26.741,112.972z"/>
		<path fill="#9A2F8E" d="M35.945,105.899c0,0-0.482,0.386-1.224,0.979c0.397-0.164,0.86-0.353,1.359-0.552
			C35.999,106.063,35.945,105.899,35.945,105.899z"/>
		<path fill="#9A2F8E" d="M218.595,56.506l-4.631,1.544l2.573,7.203l4.116,5.66c0,0-7.203,2.572-12.349,2.572
			c-5.144,0-3.087-2.059-3.087-2.059s-2.057-2.058-3.602-3.087c-1.544-1.028-8.232-2.572-9.776-2.572
			c-1.542,0-11.832,14.921-13.891,15.95c-2.058,1.029-2.572,6.174-2.572,6.174s0,6.688,0,8.232c0,1.543-6.174,8.746-6.174,8.746
			s-2.573,0.515-5.146,1.029c0,2.52-0.443,3.968-1.524,4.963c1.098,1.75,3.671,5.896,5.641,9.443
			c2.572,4.63,1.029,5.659-1.029,9.775c-2.058,4.116-4.631,0.515-4.631,0.515l-3.943-1.543h-0.687l-3.088-1.029l0.188-0.375
			l-4.304-1.684v9.775l-1.13,2.425l4.218-0.367l2.572,3.602l3.087,5.146l6.688,7.203c0,0,6.418,0.916,8.868,1.02
			c0.749-1.852,1.435-3.077,1.938-3.077c1.259,0,4.629-1.345,7.06-2.392c0.05-0.062,0.1-0.122,0.144-0.182
			c1.544-2.059,3.087-5.145,4.116-8.231c1.029-3.088,0-2.059,0-3.602c0-1.544-3.602-5.66-6.175-7.718l-3.602-1.028l-0.767-1.862
			l-0.262-0.196c0,0,0.055-0.019,0.156-0.06l-2.729-6.629l-3.087-4.631v-4.116c0,0,8.232-4.115,9.776-3.087
			c0.73,0.488,4.354,4.563,7.964,8.712c2.025-0.05,5.021-0.174,7.472-0.479c4.114-0.515,0,0,0-1.544c0-1.543,0-3.602-1.544-7.203
			s-1.029-5.659-2.06-7.203c-0.517-0.775-1.293-1.681-2.458-3.106l-0.628-0.495l-0.059-0.349c-1.06-1.315-2.39-3.018-4.058-5.311
			c-4.116-5.659-1.543-3.602-1.543-3.602l20.066-13.892v3.087c0,0-1.28,2.559-2.215,5.33c1.409,0.957,2.646,4.565,1.7,5.989
			c-0.448,0.67-1.091,1.341-1.672,1.886c1.729,4.949,5.271,11.491,5.271,11.491h2.572c0,0,6.175,0,7.718,0c1.544,0,2.573,0,2.573,0
			l4.064-6.322c-0.13-0.989-0.507-2.17-0.909-3.339l-1.612-2.687l-6.688-13.378l2.058-0.515c0,0,6.175-5.145,11.32-7.203
			c2.712-1.084,7.564-0.454,11.776,0.385c-1.281-0.92-2.207-1.619-2.516-1.928c-1.543-1.544-8.747-25.211-8.747-25.211l-2.044,2.897
			l-4.13,5.85L218.595,56.506z"/>
		<path fill="#BA6798" d="M153.213,81.055l0.096-0.134c-0.027-0.194-0.056-0.389-0.083-0.584
			C153.218,80.581,153.215,80.819,153.213,81.055z"/>
		<path fill="#BA6798" d="M124.44,89.949c4.113-1.714,7.252-3.541,9.767-5.274c-3.815,0.898-9.171,1.543-15.941,2.188
			c-2.202,0.21-3.698,0.334-4.75,0.399c-0.888,0.28-1.738,0.511-2.452,0.629l-0.545-0.725c-0.62-0.134-1.459-0.304-4.601-0.304
			C113.121,89.949,112.092,95.095,124.44,89.949z"/>
		<path fill="#BA6798" d="M146.234,95.932c-1.125,0.321-2.3,0.646-3.477,0.963c0.295,0.146,0.623,0.349,0.967,0.587
			C144.557,96.994,145.402,96.474,146.234,95.932z"/>
		<path fill="#BA6798" d="M151.194,70.913c0,0,0.343-0.135,0.75,0.164c-0.146-1.059-0.235-1.708-0.235-1.708
			s-2.835-2.834-5.039-4.855c-0.01,0.005-0.021,0.01-0.031,0.016l-2.099,3.242c0.26,1.962,2.024,4.17,2.024,4.17l0.291,3.213
			c0.085,0.149,0.169,0.3,0.253,0.455C149.676,73.643,151.194,70.913,151.194,70.913z"/>
		<path fill="#BA6798" d="M180.239,37.086c-0.071-0.044-0.146-0.087-0.231-0.131c-1.079-0.539-2.014,0.051-2.66,0.734l-0.941,2.353
			c0,0.84,0,2.365,0,5.146c0,6.174,4.631,6.688,4.631,6.688s4.033,2.271,6.453,4.515c0.153-0.564,0.235-0.913,0.235-0.913
			s1.029-3.087-0.515-4.631c-1.543-1.543-3.602-2.058-4.631-5.659c-0.212-0.744-0.425-1.464-0.629-2.141
			c-0.78-2.603-1.429-4.549-1.429-4.549L180.239,37.086z"/>
		<path fill="#BA6798" d="M148.622,49.304l2.572-2.059c0,0,2.573-4.116,5.146-9.775c1.289-2.835,3.481-4.25,5.35-4.956l-1.18-1.516
			c-1.291,1.997-5.134,7.564-9.315,10.073c-5.145,3.087,0,0-1.544,1.029c-0.732,0.489-2.982,1.678-6.188,3.286
			C143.134,49.799,148.622,49.304,148.622,49.304z"/>
		<path fill="#BA6798" d="M153.806,84.498c-0.079-0.552-0.159-1.141-0.245-1.753l-0.341-0.425c0.033,1.073,0.113,2.05,0.215,2.94
			L153.806,84.498z"/>
		<path fill="#BA6798" d="M141.6,97.203c-1.257,0.334-2.49,0.654-3.641,0.949c0.742,0.019,1.4,0.029,1.916,0.029
			c0.656,0,1.243,0.017,1.766,0.045C141.593,97.816,141.576,97.469,141.6,97.203z"/>
		<path fill="#BA6798" d="M144.492,108.071c0.699,0.137,1.354,0.532,2.072,1.429l2.379-2.379l-0.475-3.33
			C147.256,105.241,145.886,106.761,144.492,108.071z"/>
		<path fill="#BA6798" d="M141.641,98.227c0.015,0.126,0.032,0.256,0.052,0.393c0.211-0.112,0.424-0.228,0.64-0.347
			C142.115,98.256,141.887,98.24,141.641,98.227z"/>
		<path fill="#BA6798" d="M176.249,29.138c1.005-0.343,1.825-0.669,2.215-0.929c-1.543,0-2.572,0-2.572,0L176.249,29.138z"/>
		<path fill="#BA6798" d="M161.979,28.57l4.137-3.449l3.603-0.515c0,0,8.746,1.029,10.805,1.029c0.641,0,1.281,0,1.909,0
			c0.663-2.999,0.663-5.659,0.663-5.659l-13.377,0.514l-5.146,3.088l-2.059,2.572c0,0-0.002,1.918-1.203,1.551
			C161.665,28.014,161.906,28.31,161.979,28.57z"/>
		<path fill="#BA6798" d="M153.768,23.578c0,5.659,1.028,0.515,1.028,0.515s3.022,1.296,5.153,2.628
			c-0.165-0.166-0.337-0.354-0.522-0.57c-2.544-2.968-4.386-4.886-5.244-6.333C153.932,21.007,153.768,22.278,153.768,23.578z"/>
		<path fill="#BA6798" d="M174.361,29.737c0.247-0.073,0.49-0.148,0.727-0.223c0.5-0.812,0.804-1.306,0.804-1.306L174.361,29.737z"
			/>
		<path fill="#BA6798" d="M105.151,26.989c2.329-0.314,4.474-0.675,6.119-1.081c1.071-0.559,2.177-1.145,3.873-1.675
			C112.178,24.858,108.222,25.516,105.151,26.989z"/>
		<path fill="#BA6798" d="M164.058,105.899c0-5.37,0-7.881,0-11.368c-1.219,1.831-2.431,3.509-3.087,4.165
			c-0.469,0.467-1.173,1.313-2.013,2.351l0.469,0.736l-1.543,3.087c0,0-2.573,5.145-3.088,8.232
			c-0.038,0.232-0.074,0.463-0.106,0.69c3.975-1.108,6.445-1.641,7.844-2.931C163.614,109.867,164.058,108.419,164.058,105.899z"/>
		<path fill="#BA6798" d="M80.192,60.622c-1.028-1.543-6.174-2.572-6.174-2.572h-5.66l-6.688,7.718l2.572,2.058
			c2.058,0,4.115,1.544,6.174,1.544c0.4,0,0.938,0,1.544,0v-0.515l6.174,0.515l5.146-4.116
			C83.28,65.253,81.222,62.166,80.192,60.622z"/>
		<path fill="#BA6798" d="M97.172,85.319c2.572-1.544,0,0,0.515-2.059c0.106-0.428,0.258-0.967,0.431-1.552
			c-0.136-0.747-0.062-1.563,0.166-2.45c-0.322,0.1-0.681,0.228-1.111,0.4c-2.573,1.029-2.059,3.602-2.059,5.146
			c0,0.228,0.023,0.545,0.061,0.923C95.928,85.767,96.62,85.649,97.172,85.319z"/>
		<path fill="#BA6798" d="M113.227,105.501l-0.025-0.027l-5.226-1.633c0,0-1.756-0.703-3.524-1.697l-1.105,2.212l-2.059-0.515
			l-2.058-4.116c0,0-2.857-3.332-4.907-3.585l0.276,1.013l0.515,1.544c0,0,3.087,5.145,4.631,6.174
			c1.543,1.029,5.66,2.059,8.231,2.059c1.08,0,2.703-0.091,4.224-0.196C112.379,106.169,112.769,105.775,113.227,105.501z"/>
		<path fill="#BA6798" d="M52.313,71.455l-0.933-4.658c0,0,0,0,1.029-2.059c1.029-2.058,1.029-1.028,1.029-1.028l1.543-3.603
			l1.029-5.659l1.029-1.028l4.624-3.524l-1.022-0.077v-1.545V44.93l-2.572,2.315l-2.375,3.563l-0.713,1.068l-7.717,9.261
			l-0.515,2.059v2.058l2.8,3.733l1.83,2.44C51.38,71.427,51.752,71.428,52.313,71.455z"/>
		<path fill="#BA6798" d="M96.045,92.007c-0.21-1.639-0.699-4.579-0.871-6.279c-1.373-0.07-2.947-0.661-4.234-1.438h-3.544h-2.572
			c0,0-2.058,0-4.631,1.029c-2.572,1.028-4.63-1.029-4.63-1.029s0-2.572,0-5.146c0-0.526-0.153-1.032-0.394-1.503
			c-0.711-0.237-1.311-0.437-1.665-0.555c-1.007-0.336-2.451-0.891-3.762-1.378l0.161,0.349h-2.059h-3.722
			c1.263,0.602,2.178,1.029,2.178,1.029s2.058-1.544,5.146,1.028c3.087,2.573-0.515,7.203-0.515,7.203
			c2.572,0,6.688,3.602,6.688,3.602s-3.087,0-5.659,0c-0.859,0-1.315,0-1.544,0h-0.203h-1.341l-4.116,1.029
			c0,0-0.123,0.365-0.384,0.881c1.081-0.153,2.543-0.281,4.5-0.366c11.834-0.515,15.436-1.028,15.436-1.028l5.659-1.544l3.088,3.602
			l0.625,2.293c0.387-0.928,0.918-1.779,0.918-1.779H96.045z"/>
		<path fill="#BA6798" d="M49.837,98.182c5.145,2.058,10.805,2.572,12.349,2.572c1.543,0,4.63,0,4.63,0s1.029,1.029,1.029-0.515
			c0-1.543-2.573-5.145-2.573-5.145l-2.058-2.058c0,0-0.139-0.047-0.334-0.127c-0.474,0.465-1.043,0.883-1.724,1.155
			c-2.573,1.029-6.175,0-10.805-1.029c-3.881-0.862-4.147-2.085-4.133-2.459c-1.475,0.425-2.556,0.916-2.556,0.916l-6.552-3.779
			l-6.825-3.938c0,0-1.544-1.544-1.544,0.515c0,1.012,2.737,3.89,5.764,6.614c3.129,2.817,6.567,5.472,7.613,5.733
			C44.178,97.152,44.691,96.124,49.837,98.182z"/>
		<path fill="#BA6798" d="M61.156,88.92l1.814-1.814c-0.494,0.106-0.938,0.199-1.3,0.271c-2.573,0.515-7.204,1.544-7.204,1.544
			s0.265,0.794,0.122,1.375l4.509-0.347L61.156,88.92z"/>
		<path fill="#CA73AE" d="M78.649,29.237c0.628-0.251,1.412-0.409,2.333-0.515c-0.432,0-0.865,0-1.304,0
			c-6.689,0-9.262,1.029-9.262,1.029s-0.547,1.641-0.989,3.294c1.142-0.706,2.224-1.339,3.047-1.75
			C75.563,29.752,76.077,30.267,78.649,29.237z"/>
		<path fill="#CA73AE" d="M129.761,122.342c1.441-0.225,2.317-3.165,0.339-5.638c-0.354-0.443-0.815-0.932-1.33-1.455l1.33,5.056
			L129.761,122.342z"/>
		<path fill="#CA73AE" d="M119.295,116.189l-5.145-6.689l1.139-1.707l-2.063-2.292c-0.458,0.274-0.848,0.668-1.027,1.231
			c-0.067,0.212-0.107,0.447-0.107,0.71c0,2.572-3.602,6.688,1.544,9.262c4.688,2.344,5.532,3.833,7.591,4.468
			c-1.895-2.731-3.475-5.497-3.475-5.497L119.295,116.189z"/>
		<polygon fill="#CA73AE" points="120.324,117.218 121.619,117.074 119.295,116.189 		"/>
		<path fill="#CA73AE" d="M109.005,66.282c-2.572,1.543-5.145,1.029-7.718,6.174c-1.327,2.655-2.516,4.898-3.004,6.803
			c-0.228,0.888-0.302,1.703-0.166,2.45c0.137,0.755,0.487,1.44,1.112,2.066c2.572,2.572,2.572,2.572,2.572,2.572
			s-3.602,0.515,4.116,0.515c3.142,0,3.98,0.17,4.601,0.304l-2.543-3.392v-4.63c0,0,0-0.751,0.034-1.749
			c-0.708-1.128-1.063-2.367-1.063-2.367l1.178,0.28c0.075-0.934,0.191-1.813,0.365-2.338c0.515-1.544,1.544-4.116,1.544-4.116
			l3.602-0.982v-1.591h1.029l6.174,0.515C120.839,66.796,111.578,64.738,109.005,66.282z"/>
		<path fill="#CA73AE" d="M124.317,105.464c0.482-0.201,1.124-0.267,1.859-0.24l-1.736-0.868L124.317,105.464z"/>
		<path fill="#CA73AE" d="M125.47,62.681l-4.631,4.115h4.631l11.834-5.145l6.173-8.747l13.378,4.631l3.795-0.948l-1.223-2.139
			c0,0,2.311-2.31,4.118-3.902c0.312-0.717,0.629-1.443,0.939-2.147L162,44.673l1.028-2.059l3.602-3.087l3.516-1.893
			c1.813-3.007,3.849-6.334,4.942-8.12c-0.236,0.074-0.479,0.149-0.727,0.223l-5.158,5.159c0,0-4.116,0-5.66,0l-1.854-2.383
			c-1.868,0.706-4.061,2.121-5.35,4.956c-2.572,5.659-5.146,9.775-5.146,9.775l-2.572,2.059c0,0-5.488,0.495-5.159-3.917
			c-3.536,1.774-8.236,4.061-13.363,6.489c-9.641,4.566-6.778,1.131-13.111,2.515C119.709,57.26,125.47,62.681,125.47,62.681z"/>
		<path fill="#CA73AE" d="M167.659,88.405c-0.203,0.61-1.05,2.105-2.095,3.784c5.978-5.201,12.899-13.045,12.899-13.045
			s-0.515-2.058-0.515-4.631c0-0.09-0.005-0.172-0.013-0.25l-4.617,2.309C173.319,76.572,168.174,86.862,167.659,88.405z"/>
		<path fill="#CA73AE" d="M185.258,28.009c-0.581,0.674-1.134,1.229-1.134,1.229l-1.544-1.028c0,0-2.572,0-4.116,0
			c-0.39,0.26-1.21,0.586-2.215,0.929l2.215,5.759l-1.116,2.793c0.646-0.684,1.581-1.273,2.66-0.734
			c0.086,0.044,0.16,0.087,0.231,0.131c1.578,0.983-1.021,1.927,4.399,1.927c1.405,0,2.686-0.127,3.813-0.317
			c3.412-0.578,5.447-1.74,5.447-1.74s-1.896-2.622-4.133-5.076C188.261,30.227,186.603,28.657,185.258,28.009z"/>
		<path fill="#CA73AE" d="M162,15.346c-0.429,0-0.786,0-1.029,0c-0.167,0-0.333,0-0.501,0c2.104,0.598,3.588,1.029,3.588,1.029
			L162,15.346z"/>
		<path fill="#CA73AE" d="M156.308,13.794l2.09,0.523l1.931,0.192l-3.474-1.736C156.854,12.773,156.633,13.146,156.308,13.794z"/>
		<path fill="#CA73AE" d="M145.574,12.132c1.064-0.086,2.022-0.085,2.86-0.035c-0.938-0.22-1.61-0.353-1.87-0.353
			C146.329,11.744,145.985,11.89,145.574,12.132z"/>
		<path fill="#CA73AE" d="M176.406,45.188c0-2.78,0-4.306,0-5.146l-3.087,7.718c0,3.061,0,7.203,0,7.203l-3.602,4.116
			c0,0-0.347,0-0.919-0.021l-1.654,4.137l9.776-11.318l7.303,6.014c0.567,0.083,0.96,0.461,1.226,1.01l0.219,0.18v0.396
			c0.633,2.173,0,5.777,0,5.777v0.207c1.888-1.942,2.978-3.632,3.398-5.068c0.136-0.464,0.203-0.901,0.203-1.313
			c0-0.771-0.742-1.727-1.779-2.688c-2.42-2.244-6.453-4.515-6.453-4.515S176.406,51.361,176.406,45.188z"/>
		<path fill="#CA73AE" d="M154.243,83.598l-0.683-0.853c0.086,0.612,0.166,1.201,0.245,1.753L154.243,83.598z"/>
		<path fill="#CA73AE" d="M151.944,71.077c0.289,2.093,0.802,5.791,1.281,9.26c0.027,0.195,0.056,0.39,0.083,0.584l2.002-2.806
			c0,0,0,0,0.515-3.602s0-4.116,0-4.116l-3.087-4.116c0,0-3.602-2.058-5.146-2.058c-0.249,0-0.566,0.109-0.923,0.29
			c2.204,2.021,5.039,4.855,5.039,4.855S151.799,70.019,151.944,71.077z"/>
		<path fill="#CA73AE" d="M145.132,98.56l3.494-4.271c-0.768,0.558-1.572,1.11-2.392,1.643c-0.832,0.542-1.678,1.063-2.51,1.55
			C144.178,97.795,144.66,98.169,145.132,98.56z"/>
		<path fill="#CA73AE" d="M148.469,103.791l-0.361-2.522c0,0-1.437-1.436-2.976-2.709l-0.111,0.137c0,0-0.832-0.275-2.688-0.424
			c-0.216,0.119-0.429,0.234-0.64,0.347c0.42,2.809,1.986,7.811,2.581,9.654c0.073-0.067,0.145-0.134,0.219-0.202
			C145.886,106.761,147.256,105.241,148.469,103.791z"/>
		<path fill="#CA73AE" d="M113.516,87.262c1.052-0.065,2.548-0.189,4.75-0.399c6.771-0.645,12.126-1.289,15.941-2.188
			c1.164-0.273,2.184-0.571,3.057-0.9c-0.76,0-2.357,0-5.106,0c-3.605,0-4.053,0-7.567-1.037l-4.78,2.066
			C119.81,84.804,116.465,86.324,113.516,87.262z"/>
		<path fill="#CA73AE" d="M144.54,67.771l-1.273,1.97c0.607,0.765,2.048,2.674,3.589,5.413l-0.291-3.213
			C146.564,71.941,144.8,69.733,144.54,67.771z"/>
		<path fill="#CA73AE" d="M161.311,27.701c-0.359-0.316-0.834-0.648-1.361-0.98c-2.131-1.332-5.153-2.628-5.153-2.628
			s-1.028,5.145-1.028-0.515c0-1.3,0.164-2.571,0.415-3.761c0.2-0.95,0.455-1.847,0.73-2.661c0.222-0.663,0.457-1.271,0.683-1.811
			c-0.549,0-1.151,0-1.828,0c-4.117,0-6.689,4.631-7.718,6.688c-1.029,2.059,5.145,4.631,5.145,4.631s3.602,0.515,5.146,0.515
			s2.572,0.515,2.572,0.515l1.647,2.058l1.419-1.182C161.906,28.31,161.665,28.014,161.311,27.701z"/>
		<path fill="#CA73AE" d="M111.271,25.908c0.994-0.245,1.807-0.508,2.365-0.787c0.609-0.305,1.503-0.71,2.609-1.2
			c-0.394,0.103-0.76,0.206-1.102,0.313C113.447,24.764,112.342,25.35,111.271,25.908z"/>
		<path fill="#CA73AE" d="M71.961,69.369c2.504,0,6.174,0,6.174,0l-6.174-0.515V69.369z"/>
		<path fill="#CA73AE" d="M54.467,68.34c0,0,1.544-1.029,3.088-1.029c1.543,0,4.631,0.515,6.688,0.515l-2.572-2.058l6.688-7.718
			h5.66c0,0,5.146,1.029,6.174,2.572c1.029,1.544,3.088,4.631,3.088,4.631l-5.146,4.116l10.29,5.145l-0.514,5.146h-6.689
			c0,0-3.665-1.222-6.053-2.018c0.24,0.471,0.394,0.977,0.394,1.503c0,2.573,0,5.146,0,5.146s2.058,2.058,4.63,1.029
			c2.573-1.029,4.631-1.029,4.631-1.029h2.572h3.544h2.116l-0.515-3.602l-2.059-2.059v-2.572l-4.63-8.746c0,0-5.66,3.087,0-2.573
			c5.659-5.659,5.145-5.659,7.203-7.203c0.138-0.104,0.29-0.211,0.453-0.322c-1.463-0.082-1.243-0.395-4.055-0.707
			c-4.631-0.514-9.775-7.718-9.775-7.718l-5.66-2.572l-6.688,4.116l-5.666-0.437L57.04,53.42l-1.029,1.028l-1.029,5.659
			l-1.543,3.603c0,0,0-1.029-1.029,1.028c-1.029,2.059-1.029,2.059-1.029,2.059l0.933,4.658l0.097,0.486
			c0,0,0.937,0.803,2.058,1.657V68.34z"/>
		<path fill="#CA73AE" d="M69.903,76.058l-0.161-0.349c-0.699-0.26-1.361-0.502-1.897-0.681c-1.544-0.515-3.088,0-5.146,0h-6.178
			c0.391,0.236,0.747,0.42,1.033,0.515c1.543,0.515,5.145,0.515,5.145,0.515h1.424h3.722H69.903z"/>
		<path fill="#501346" d="M271.591,197.482c0,0-5.147,0-8.747,1.544c-3.602,1.543-4.116,3.087-6.174,4.115
			c-1.358,0.68-2.94,2.701-4.302,4.591c-0.311,0.431-0.612,0.855-0.894,1.253l11.884-1.728l9.225,11.239
			c3.487-6.074,6.552-12.425,9.15-19.008l-2.941-2.521L271.591,197.482z"/>
		<path fill="#501346" d="M2.28,137.275l-1.958-1.088c-0.095,1.441-0.169,2.889-0.222,4.341C0.9,139.311,1.63,138.221,2.28,137.275z
			"/>
		<path fill="#501346" d="M50.904,189.554c-1.478-1.608-3.302-3.563-4.614-4.879c0.404,0.719,0.892,1.546,1.489,2.518
			C49.95,190.721,50.689,190.525,50.904,189.554z"/>
		<path fill="#501346" d="M183.98,149.299c-2.431,1.047-5.801,2.392-7.06,2.392c-0.503,0-1.188,1.226-1.938,3.077
			c0.146,0.006,0.279,0.01,0.394,0.01C177.376,154.777,182.286,151.38,183.98,149.299z"/>
		<path fill="#70256D" d="M201.616,130.596c2.06-2.058,3.089-6.174,3.089-6.174l4.114,1.028l-11.832-12.348c0,0,0,0,0-2.059
			c0-2.058,3.085-6.688,3.085-6.688l-9.146-7.223c1.165,1.426,1.941,2.331,2.458,3.106c1.03,1.544,0.516,3.602,2.06,7.203
			s1.544,5.66,1.544,7.203c0,1.544,4.114,1.029,0,1.544c-2.45,0.306-5.446,0.43-7.472,0.479c4.002,4.602,7.986,9.296,7.986,9.296
			C199.558,125.965,201.616,130.596,201.616,130.596z"/>
		<path fill="#70256D" d="M89.781,142.026l-1.356-2.17c0,0-6.688,0-10.29,2.058c-3.602,2.059-5.146,3.602-5.146,3.602l1.544,6.688
			c0,0,1.543,0,4.116,2.573c2.572,2.572,4.631,2.058,5.146,5.659c0.514,3.602,0.514,7.718,0.514,10.806
			c0,3.087-5.659,9.775-5.659,9.775s-12.349,2.059-14.921,2.572c-2.572,0.515-12.863,3.603-12.863,3.603s0.229,1.491,0.039,2.361
			c-0.215,0.972-0.954,1.167-3.125-2.361c-0.598-0.972-1.085-1.799-1.489-2.518c-2.38-4.232-1.822-4.621-3.142-7.259
			c0,0,0.515,6.688,0.515,9.776c0,3.087,4.116,11.834,6.688,12.348c2.572,0.515,16.979,0.515,16.979,0.515l-2.059-7.718
			c0,0-1.028-2.058,1.544-3.602c2.573-1.543,9.775-4.116,9.775-4.116s5.66,0,7.204,0c1.543,0,3.086,0,3.086,0v2.573l3.602,3.087
			l-2.633-22.381l-1.483-2.831l-4.63-12.863l-1.029-0.514c0,0-2.572-2.573,1.029-4.117c0.433-0.186,0.842-0.386,1.229-0.595
			l0.829-3.521l3.153,0.498c0.292-0.305,0.447-0.498,0.447-0.498L89.781,142.026z"/>
		<path fill="#70256D" d="M93.57,153.063v2.054c3.271,6.488,9.261,16.125,9.261,16.125l2.85-18.523c-1.593,0-4.371,0-6.451,0
			C97.333,152.719,95.051,152.914,93.57,153.063z"/>
		<polygon fill="#70256D" points="113.121,150.146 114.588,148.517 111.1,150.436 		"/>
		<path fill="#70256D" d="M158.176,152.222c7.462,1.993,27.718,5.876,39.588,8.095c0.126-2.412,0.252-5.042,0.252-6.054
			c0-2.059-1.543-8.747-1.543-8.747s-1.029-0.515-2.573-2.058c-1.545-1.544-3.087-2.572-3.087-2.572l-0.515-2.059
			c-1.028-1.543-5.659-7.203-5.659-7.203l-2.573-2.058c2.573,2.058,6.175,6.174,6.175,7.718c0,1.543,1.029,0.514,0,3.602
			c-1.029,3.087-2.572,6.173-4.116,8.231c-0.044,0.06-0.094,0.12-0.144,0.182c-1.694,2.081-6.604,5.479-8.604,5.479
			c-0.114,0-0.248-0.004-0.394-0.01c-2.45-0.104-8.868-1.02-8.868-1.02l-6.688-7.203l-3.087-5.146l-2.572-3.602l-4.218,0.367
			l-7.616,0.662l-8.232-5.145l-5.145-2.573c0,0-2.059,2.059-2.573,5.146c-0.259,1.56-2.487,4.299-4.63,6.63
			c-0.81,0.881-1.605,1.701-2.28,2.38c-0.167,0.168-0.327,0.327-0.477,0.476l3.271,2.862l4.631-5.145l0.515-2.059l3.087-1.028
			l2.014,0.604l1.073-0.09l1.677,0.915l0.382,0.113l4.63-1.028h1.544c0,0,0,0,2.572,0c2.573,0,5.146,1.028,5.146,1.028l4.631,6.688
			c0,0,1.028,1.029,1.543,2.573c0.008,0.024,0.029,0.052,0.062,0.078l1.482-0.593C156.854,150.661,157.371,151.28,158.176,152.222z"
			/>
		<path fill="#70256D" d="M191.327,85.833c0,0,3.087-3.086,4.631-3.601s4.631-1.029,6.172-0.515c0.121,0.04,0.241,0.104,0.36,0.185
			c0.935-2.771,2.215-5.33,2.215-5.33v-3.087l-20.066,13.892c0,0-2.573-2.058,1.543,3.602c1.668,2.293,2.998,3.995,4.058,5.311
			l-0.456-2.738L191.327,85.833z"/>
		<path fill="#70256D" d="M201.102,95.095c2.574,2.058,4.63,6.174,4.63,6.174l3.088,3.087h3.602l3.087-1.028
			c0,0,2.058,0.514,3.602,0c1.544-0.515,6.175-2.573,6.175-2.573s1.028,2.059,1.028-0.515c0-2.572-1.543-2.058-1.543-4.63
			c0-0.208-0.021-0.432-0.052-0.663l-4.064,6.322c0,0-1.029,0-2.573,0c-1.543,0-7.718,0-7.718,0h-2.572
			c0,0-3.542-6.542-5.271-11.491c-0.758,0.707-1.417,1.201-1.417,1.201S198.53,93.037,201.102,95.095z"/>
		<path fill="#70256D" d="M235.574,232.982c-3.602,2.058-1.029,0.515-5.146,0.515c-0.369,0-0.692,0.004-0.976,0.012l-5.713,2.561
			l-6.688-4.116l-2.638-2.309c-1.945,2.728-3.986,5.561-5.934,8.25c0.509,0.746,0.854,1.262,0.854,1.262l1.028,3.088
			c0,0-0.515-3.602,2.059,3.087c0.88,2.285,1.58,3.852,2.119,4.921c0.295-0.078,0.616-0.174,0.968-0.29
			c0.226-0.075,0.438-0.149,0.648-0.223l0.381-8.01l3.087-2.573l8.747,3.602l0.15,0.188c0.271-0.066,0.561-0.13,0.878-0.188
			c5.66-1.028,9.262-2.572,9.262-2.572l1.281-1.425c-0.535-2.129-0.902-5.268-1.102-7.318
			C238.009,231.791,236.941,232.202,235.574,232.982z"/>
		<polygon fill="#70256D" points="15.497,184.002 14.116,180.277 13.821,182.047 		"/>
		<path fill="#70256D" d="M252.153,246.008l-23.029,19.849C237.479,260.049,245.197,253.391,252.153,246.008z"/>
		<path fill="#70256D" d="M251.475,208.985l-6.987,1.018l-9.428,1.371l-4.631,2.571l-2.058-2.573c0,0,4.116-1.543,5.659-2.058
			c1.109-0.369,2.481-2.065,3.549-3.755c0.418-0.663,0.791-1.323,1.082-1.905c1.029-2.056-0.515-10.803,3.602-10.803
			s9.776-0.515,9.776-0.515s0.515,1.544,5.145,0c4.631-1.543,10.291-3.087,12.349-8.232c2.059-5.145,4.114-8.746,4.114-11.319
			c0-2.572,0-19.552,0-22.124c0-2.573,0-6.688,0-6.688s0-3.602,0-5.66c0-2.039-3.029-9.13-3.083-15.767
			c0-0.061-0.002-0.122-0.002-0.183c0-1.026,0.023-2.247,0.06-3.593c0.195-7.421,0.732-18.648-0.574-22.133
			c-0.981-2.614-4.661-9.383-7.215-13.972c-1.467-2.634-2.561-4.551-2.561-4.551s-10.291-8.231-11.834-8.231
			c-0.731,0-3.994-0.921-7.775-1.674c-4.212-0.839-9.064-1.469-11.776-0.385c-5.146,2.059-11.32,7.203-11.32,7.203l-2.058,0.515
			l6.688,13.378l1.612,2.687c-0.669-1.95-1.392-3.858-1.098-4.745c0.515-1.543-3.602-3.087,3.602-3.087s10.805-1.029,13.378,0
			c2.572,1.029,4.631,1.029,4.631,1.029h5.659c0,0,2.573-0.515,3.602,1.028c1.029,1.544,4.116,5.66,4.116,8.232
			s-0.515,9.775-0.515,9.775s1.544,3.088,1.544,5.146s0,7.718,0,7.718l-3.087,6.174c0,0-1.544,1.544-1.544,3.602
			c0,2.059,0,8.746,0,13.377s0,16.979,0,16.979v4.116l0.515,5.146l-4.631,2.572c0,0-4.631,7.718-5.659,9.262
			c-1.029,1.543-3.088,3.602-4.631,4.116c-1.544,0.515-9.262,5.146-9.262,5.146l-1.029,1.543c0,0,0,3.602,0,5.146
			c0,1.543,2.059,4.631,2.059,4.631s2.058,2.058,1.544,3.602c-0.515,1.541-5.146,7.201-5.146,7.201s-1.396,1.4-2.544,3.37
			c2.372,0.897,5.138,1.775,6.146,1.775c1.544,0,8.232,1.543,8.232,1.543l2.572,2.573v1.543l1.029,1.544c0,0-2.059,0,3.087,1.029
			c5.146,1.028,12.863-3.088,12.863-3.088l1.714,0.859l2.402-2.402l4.116,7.718l-1.81,3.615c2.46-3.521,4.771-7.158,6.918-10.897
			l-9.225-11.239L251.475,208.985z"/>
		<path fill="#70256D" d="M2.905,150.049l-0.918-2.476l14.921-2.058c0,0-1.544-3.087,0.515-3.087c2.058,0,7.718-3.087,7.718-3.087
			h4.116l-2.572,11.834l-2.059,3.602l-5.66,4.631l6.689,11.319c0,0,0.515-0.515,3.087-0.515s7.718,0,7.718,0l3.092,0.386
			c-0.76-1.293-1.484-2.379-2.063-2.959c-1.544-1.543-5.146-7.718-5.146-7.718s-1.544-5.659,0.514-6.688
			c2.059-1.029,2.573-2.058,2.573-6.175c0-4.115-1.029-13.891-1.029-13.891l-2.572-2.572c0,0-9.775,4.63-11.319,6.174
			c-1.544,1.543-4.63,2.572-4.63,2.572l-5.146-1.029c0,0-2.572-5.145-5.146-5.145c-0.339,0-1.518,1.502-3.309,4.107
			c-0.65,0.945-1.38,2.035-2.18,3.253C0.034,142.323,0,144.125,0,145.937c0,1.319,0.019,2.634,0.054,3.945L2.905,150.049z"/>
		<path fill="#681951" d="M95.113,141.399l-2.572-1.028l-2.76,1.655l-2.386,1.432c0,0-0.155,0.193-0.447,0.498l6.622,1.045v1.386
			c0.437-0.365,0.945-0.786,1.543-1.386C97.172,142.943,95.113,141.399,95.113,141.399z"/>
		<polygon fill="#681951" points="130.1,140.371 127.013,141.399 132.113,140.976 		"/>
		<path fill="#681951" d="M93.57,155.117v3.434l1.028,0.343l2.573,3.087c0,0,3.086,7.203,5.659,9.262
			C102.831,171.242,96.841,161.605,93.57,155.117z"/>
		<path fill="#681951" d="M80.707,151.69l1.029,0.514l1.229-5.226c-0.388,0.209-0.797,0.409-1.229,0.595
			C78.135,149.117,80.707,151.69,80.707,151.69z"/>
		<path fill="#681951" d="M158.176,152.222c2.32,2.706,7.061,8.099,8.969,9.244c2.573,1.544,6.689,2.572,10.291,3.087
			s6.174,0.515,9.775,0.515s10.291,0,10.291,0s0.132-2.259,0.262-4.751C185.894,158.098,165.638,154.215,158.176,152.222z"/>
		<path fill="#681951" d="M224.77,95.609c0,2.572,1.543,2.058,1.543,4.63c0,2.573-1.028,0.515-1.028,0.515s-4.631,2.059-6.175,2.573
			c-1.544,0.514-3.602,0-3.602,0l-3.087,1.028h-3.602l-3.088-3.087c0,0-2.056-4.116-4.63-6.174c-2.571-2.058,0-4.116,0-4.116
			s0.659-0.494,1.417-1.201c0.581-0.545,1.224-1.216,1.672-1.886c0.946-1.424-0.291-5.032-1.7-5.989
			c-0.119-0.081-0.239-0.145-0.36-0.185c-1.541-0.515-4.628,0-6.172,0.515s-4.631,3.601-4.631,3.601l-1.544,7.718l0.456,2.738
			l0.059,0.349l0.628,0.495l9.146,7.223c0,0-3.085,4.631-3.085,6.688c0,2.059,0,2.059,0,2.059l11.832,12.348l-4.114-1.028
			c0,0-1.029,4.116-3.089,6.174l8.231,7.202l6.689,7.203l4.116,4.116c1.589,0,3.602,0,3.602,0s3.602,0.515,4.631-2.059
			c1.028-2.571,2.572,0,2.572-4.63c0-4.631,0-10.289,0-10.289l-2.059-4.631l-3.602-5.66c0,0-1.028-0.515-1.028-2.058
			c0-1.544-2.059-2.059,2.058-4.116c4.116-2.059,7.718-2.572,7.718-2.572l5.146,3.602l2.058,3.602l2.573,3.602l1.028,5.146v2.571
			c0,0-0.514,3.088-0.514,5.146s0,2.572,0,4.116c0,1.543,0,6.173,0,6.173s0,4.405,0,6.055c0,0.042,0,0.084,0,0.12
			c0,0.291,0,0.398,0,0.407c0,0.257,0,0.622,0,1.137c0,3.602-1.029,4.631-2.059,6.688c-1.029,2.059-6.688,4.116-6.688,4.116
			l-2.573,4.116c0,0-0.514,0.515-3.087,5.146c-2.572,4.63-5.145,10.805-5.145,10.805s-3.088,3.602-3.603,5.146
			c-0.514,1.543-7.203,10.805-7.203,10.805l2.059,5.144c0,0,3.602,3.602,5.659,4.63c0.714,0.358,1.859,0.838,3.116,1.313
			c1.147-1.97,2.544-3.37,2.544-3.37s4.631-5.66,5.146-7.201c0.514-1.544-1.544-3.602-1.544-3.602s-2.059-3.088-2.059-4.631
			c0-1.544,0-5.146,0-5.146l1.029-1.543c0,0,7.718-4.631,9.262-5.146c1.543-0.515,3.602-2.573,4.631-4.116
			c1.028-1.544,5.659-9.262,5.659-9.262l4.631-2.572l-0.515-5.146v-4.116c0,0,0-12.348,0-16.979s0-11.318,0-13.377
			c0-2.058,1.544-3.602,1.544-3.602l3.087-6.174c0,0,0-5.66,0-7.718s-1.544-5.146-1.544-5.146s0.515-7.203,0.515-9.775
			s-3.087-6.688-4.116-8.232c-1.028-1.543-3.602-1.028-3.602-1.028h-5.659c0,0-2.059,0-4.631-1.029c-2.573-1.029-6.175,0-13.378,0
			s-3.087,1.544-3.602,3.087c-0.294,0.887,0.429,2.795,1.098,4.745c0.402,1.169,0.779,2.35,0.909,3.339
			C224.748,95.178,224.77,95.401,224.77,95.609z"/>
		<path fill="#681951" d="M211.906,224.75l-5.146,1.544c0,0-3.6-8.232-4.631-9.776c-1.028-1.543-2.058-7.203-2.058-7.203v-1.544
			l-11.832,1.544c0,0,0,0.515,0,3.602s0,7.203,0,7.203l7.203,4.631l5.658,4.116c0,0,3.087,3.087,4.63,5.146
			c0.915,1.218,2.009,2.796,2.749,3.883c1.947-2.689,3.988-5.522,5.934-8.25l-1.479-1.293L211.906,224.75z"/>
		<path fill="#681951" d="M99.229,206.229c0,0,2.572-2.575,0.515-4.631c-2.058-2.059-5.146-5.146-5.66-7.203
			c-0.514-2.059-0.514-8.232-0.514-8.232l-1.544-10.291l-4.177-7.974l2.633,22.381l-3.602-3.087v-2.573c0,0-1.543,0-3.086,0
			c-1.544,0-7.204,0-7.204,0s-7.202,2.573-9.775,4.116c-2.572,1.544-1.544,3.602-1.544,3.602l2.059,7.718c0,0-14.406,0-16.979-0.515
			c-2.572-0.514-6.688-9.261-6.688-12.348c0-3.088-0.515-9.776-0.515-9.776l-2.573-6.688l-1.023-0.129l-3.092-0.386
			c0,0-5.146,0-7.718,0s-3.087,0.515-3.087,0.515l-6.689-11.319l5.66-4.631l2.059-3.602l2.572-11.834h-4.116
			c0,0-5.66,3.087-7.718,3.087c-2.059,0-0.515,3.087-0.515,3.087l-14.921,2.058l0.918,2.476l1.654,0.098c0,0,0.516,3.428,1.544,6.92
			v-3.833l0.515-3.087l2.572,6.688l3.087,2.059l3.603-1.029l1.543,3.087v6.688c0,0,0.515,0.515,2.058,1.544
			c1.544,1.029,2.573,3.087,2.573,3.087s2.058,1.029-0.515,1.544c-2.573,0.515-6.688,2.058-6.688,2.058l-0.734,4.405l1.381,3.725
			l1.411,1.646l3.602,2.572l5.146,5.66l1.543,2.058v3.088l0.515,3.087l2.573,2.056l3.601,5.146l2.573-1.544l3.087-1.026h2.572
			l2.572-1.546h1.544h1.544h7.202c0,0,3.602,1.544,4.631,3.087c1.029,1.544,3.602,3.087,3.602,3.087l5.659,2.059
			c0,0,1.544,0,4.116,0c2.573,0,5.146-2.572,5.146-2.572s0,0,2.058,0c1.549,0,5.718,0,7.688,0c1.21-0.794,2.421-2.059,3.632-2.059
			c0.438,0,1.127,0,1.887,0l2.229-1.029L99.229,206.229z"/>
		<path fill="#681951" d="M174.348,234.012h-4.63l-2.059-4.631l4.116-3.602l4.631-1.029h2.058l1.029-7.203
			c-0.515-3.087-0.515-7.718-0.515-7.718l-11.834,1.543h-1.029h-4.63c0,0-1.544,0-3.088,0c-1.543,0-5.659-3.087-5.659-3.087
			l-2.512,0.229l1.997,1.829v2.572v5.146l-2.573,4.631l-1.028-0.515l-4.116-5.146v-4.631l0.515-2.058l0.251-1.379l-3.853,0.35
			l-4.115,8.747c0,0-3.603,0.515-5.146,0.515c-1.543,0-10.804,3.087-10.804,3.087l-5.146,2.572c0,0-0.515,1.029-3.087,2.059
			c-2.572,1.028-4.631,7.718-4.631,7.718s1.029,4.631,4.631,5.145c3.602,0.515,7.203,0.515,7.203,0.515l4.631-3.087l5.145-5.146
			c0,0-1.029-5.659,2.058-6.174c3.088-0.515,7.718-3.087,7.718-3.087l6.689,2.058l2.572,2.573l0.514,6.174l3.088,4.631v3.602
			l-1.029,3.602v2.058l4.631,2.059l1.836,3.458c0.266-1.058,0.606-2.422,0.918-3.669c0.456-1.82,0.848-3.391,0.848-3.391
			s-3.087-1.544,1.544-2.573c1.616-0.359,3.67-1.533,5.659-2.909v-1.721l0.8,1.155C171.343,236.827,174.348,234.012,174.348,234.012
			z"/>
		<path fill="#681951" d="M116.723,164.553l-3.087-3.602l6.688,1.544c0,0,2.572,4.631,4.116,6.174
			c1.543,1.544,5.659,7.718,5.659,7.718l0.515,3.602l2.058,2.573l2.059,1.028c0,0,1.029-1.543,2.059,0
			c1.028,1.544,2.572,2.573,2.572,2.573c0-1.544,0.514-8.232,0.514-8.232l2.059-2.572l2.058-2.573h1.544h3.602l1.543,2.059
			l1.029,4.63l2.059,4.116l3.087,1.544l4.116,1.029l3.602-0.515l1.543-7.718l-1.635-3.434l-2.995-1.197l1.415-2.123l-1.93-4.051
			l-0.515-6.175l-6.175-9.261l1.091-0.437c-0.032-0.026-0.054-0.054-0.062-0.078c-0.515-1.544-1.543-2.573-1.543-2.573l-4.631-6.688
			c0,0-2.572-1.028-5.146-1.028c-2.572,0-2.572,0-2.572,0h-1.544l-4.63,1.028l-0.382-0.113l3.983,2.172l1.028,4.115l6.689,8.232
			c0,0,5.145,3.088,5.145,4.631c0,1.544-7.203,1.544-7.203,1.544l-2.572-5.146l-1.544-1.544h-4.63l4.115,10.806l-1.543-3.602
			c0,0-5.146-7.718-5.66-9.262s-3.601-9.261-3.601-9.261l-2.059-3.088l-0.515,2.059l-4.631,5.145l-3.271-2.862l-0.845-0.739
			l-1.694,1.884l-1.47,1.632l-1.467,1.63l-2.021,0.289l-5.182,0.74l-0.237,1.543l-2.85,18.523
			c2.572,2.058,0.515,11.319,0.515,11.319v7.718c0.857,2.572,4.569,7.641,5.785,9.261c0.305-0.376,0.753-0.88,1.418-1.543
			c2.058-2.059,5.659-4.631,6.688-6.689c1.028-2.058,3.087-7.203,3.602-8.746c0.515-1.544,1.543-4.116,1.543-4.116l-1.543-7.203
			L116.723,164.553z"/>
		<polygon fill="#681951" points="145.021,210.344 144.506,212.401 144.506,217.032 148.622,222.178 149.65,222.692 
			152.224,218.062 152.224,212.916 152.224,210.344 150.227,208.515 145.271,208.965 		"/>
		<path fill="#470E2E" d="M132.113,140.976l-5.101,0.424l2.059,3.088c0,0,3.086,7.717,3.601,9.261s5.66,9.262,5.66,9.262
			l1.543,3.602l-4.115-10.806h4.63l1.544,1.544l2.572,5.146c0,0,7.203,0,7.203-1.544c0-1.543-5.145-4.631-5.145-4.631l-6.689-8.232
			l-1.028-4.115l-3.983-2.172l-1.677-0.915L132.113,140.976z"/>
		<path fill="#470E2E" d="M179.493,122.878l-3.602-2.058l-2.572-5.66l3.087-0.515l7.203,3.087l6.174,4.631
			c0,0,5.66,3.602,7.719,3.602c0,0-3.984-4.694-7.986-9.296c-3.609-4.149-7.233-8.224-7.964-8.712
			c-1.544-1.028-9.776,3.087-9.776,3.087v4.116l3.087,4.631l2.729,6.629c0.429-0.174,1.68-0.748,2.931-1.998
			C182.065,122.878,179.493,122.878,179.493,122.878z"/>
		<polygon fill="#470E2E" points="177.697,126.676 178.464,128.538 182.065,129.566 179.493,128.023 		"/>
		<path fill="#470E2E" d="M190.298,138.827v-5.659l-6.174-3.087l-2.059-0.515l2.573,2.058
			C184.639,131.624,189.27,137.284,190.298,138.827z"/>
		<path fill="#470E2E" d="M219.624,239.156l-3.087,2.573l-0.381,8.01c4.128-1.419,5.627-2.375,7.584-2.865
			c1.943-0.485,0.222-2.804,4.781-3.929l-0.15-0.188L219.624,239.156z"/>
		<path fill="#470E2E" d="M224.255,234.012l-2.059-0.515l-2.572-2.573l-1.544-2.058l-4.63-2.058l-1.544-2.059l1.029,3.602
			l1.479,1.293l2.638,2.309l6.688,4.116l5.713-2.561c-2.886,0.076-1.734,0.503-3.141,0.503
			C224.77,234.012,224.255,234.012,224.255,234.012z"/>
		<path fill="#470E2E" d="M246.379,222.692c-5.146-1.029-3.087-1.029-3.087-1.029l-1.029-1.544v1.029c0,0-0.515,5.146-1.029,7.718
			c-0.319,1.597-1.036,2.005-2.393,2.576c0.199,2.051,0.566,5.189,1.102,7.318l3.35-3.721c0,0,0.515,0.515,2.058-1.543
			c1.544-2.059,2.573-5.66,2.573-5.66l3.087-2.572l3.602-0.515l5.66-3.602l0.685-0.685l-1.714-0.859
			C259.242,219.604,251.524,223.721,246.379,222.692z"/>
		<path fill="#470E2E" d="M210.362,242.244l-1.028-3.088c0,0-0.345-0.516-0.854-1.262c-0.74-1.087-1.834-2.665-2.749-3.883
			c-1.543-2.059-4.63-5.146-4.63-5.146l-5.658-4.116l-7.203-4.631c0,0,0-4.116,0-7.203s0-3.602,0-3.602l11.832-1.544v1.544
			c0,0,1.029,5.66,2.058,7.203c1.031,1.544,4.631,9.776,4.631,9.776l5.146-1.544l1.544-4.631l0.514-2.572c0,0,0-3.602,0-5.146
			c0-1.543,0-3.602,0-3.602l2.573-2.058l-2.059-5.144c0,0,6.689-9.262,7.203-10.805c0.515-1.544,3.603-5.146,3.603-5.146
			s2.572-6.175,5.145-10.805c2.573-4.631,3.087-5.146,3.087-5.146l2.573-4.116c0,0,5.659-2.058,6.688-4.116
			c1.029-2.058,2.059-3.087,2.059-6.688c0-0.515,0-0.88,0-1.137c0-0.009,0-0.116,0-0.407c0-0.036,0-0.078,0-0.12
			c0-1.649,0-6.055,0-6.055s0-4.63,0-6.173c0-1.544,0-2.059,0-4.116s0.514-5.146,0.514-5.146v-2.571l-1.028-5.146l-2.573-3.602
			l-2.058-3.602l-5.146-3.602c0,0-3.602,0.514-7.718,2.572c-4.116,2.058-2.058,2.572-2.058,4.116c0,1.543,1.028,2.058,1.028,2.058
			l3.602,5.66l2.059,4.631c0,0,0,5.658,0,10.289c0,4.63-1.544,2.059-2.572,4.63c-1.029,2.573-4.631,2.059-4.631,2.059
			s-2.013,0-3.602,0l2.572,2.573l4.631,5.659c0,0,2.058,7.203,1.543,8.747c-0.514,1.543-1.543,2.058-3.087,3.087
			c-1.543,1.029-1.028,3.602-1.028,3.602l-1.544,7.203l-3.602,6.175c0,0-4.116,4.631-5.146,6.174
			c-1.029,1.544-3.087,2.573-4.116,4.116c-1.029,1.544-1.543,2.059-3.602,5.66c-2.058,3.6-2.57,3.085-2.57,3.085h-1.029
			c0,0-4.633,0-6.688,0c-2.059,0-2.573,0.515-7.204,2.058c-4.63,1.544-2.058,0.515-7.203,1.029c-5.145,0.515-5.145,0-8.232-0.515
			c-3.087-0.515-1.028-2.058-1.028-2.058l-1.029-6.173l-4.631-5.659v-2.059c0,0,0-2.058,1.029-3.602
			c1.029-1.543,0.515-2.058,0.515-2.058s0-4.116-1.029-6.175c-1.029-2.058-0.515-2.058-0.515-2.058l-1.029-2.572l-2.149-0.861
			l1.635,3.434l-1.543,7.718l-3.602,0.515l-4.116-1.029l-3.087-1.544l-2.059-4.116l-1.029-4.63l-1.543-2.059h-3.602h-1.544
			l-2.058,2.573l-2.059,2.572c0,0-0.514,6.688-0.514,8.232c0,0-1.544-1.029-2.572-2.573c-1.029-1.543-2.059,0-2.059,0l-2.059-1.028
			l-2.058-2.573l-0.515-3.602c0,0-4.116-6.174-5.659-7.718c-1.544-1.543-4.116-6.174-4.116-6.174l-6.688-1.544l3.087,3.602
			l4.116,6.689l1.543,7.203c0,0,5.146,0,6.689,4.631c1.543,4.63,2.571,14.406,2.571,14.406l1.544,3.085l1.544,3.087v4.116
			c0,0-1.544,2.059-2.573,3.602c-1.028,1.544-4.63,2.573-6.688,3.088c-2.059,0.515-7.718,1.028-7.718,1.028
			s-4.631,1.544-7.203,3.088c-2.573,1.543-12.862,5.145-12.862,5.145h-4.631c0,0,3.601,2.059-3.602-0.515
			c-7.203-2.572-10.29-2.572-10.29-2.572c-4.631,1.029-10.291,4.631-10.291,4.631s5.66,4.631,8.232,6.174
			c2.573,1.544,8.232,1.544,8.232,1.544h4.63h2.059l2.572,3.087l1.029,2.573l1.544,2.058c0,0,1.028,0,8.231,0s12.862,0,12.862,0
			h3.602c0,0,3.088-1.029,4.116,1.029c1.029,2.058,4.116,5.145,4.116,5.145l2.572,2.573l1.029,1.029l2.059,4.115l1.544,1.544
			l3.086-2.572c0,0,0-0.515,0-2.059c0-1.543,0-5.145,0-5.145v-5.146l-6.688-5.66l-3.602-4.116l-5.145,5.146l-4.631,3.087
			c0,0-3.602,0-7.203-0.515c-3.602-0.514-4.631-5.145-4.631-5.145s2.059-6.689,4.631-7.718c2.572-1.029,3.087-2.059,3.087-2.059
			l5.146-2.572c0,0,9.261-3.087,10.804-3.087c1.544,0,5.146-0.515,5.146-0.515l4.115-8.747l3.853-0.35l4.955-0.45l2.512-0.229
			c0,0,4.116,3.087,5.659,3.087c1.544,0,3.088,0,3.088,0h4.63h1.029l11.834-1.543c0,0,0,4.631,0.515,7.718l-1.029,7.203h-2.058
			l-4.631,1.029l-4.116,3.602l2.059,4.631h4.63c0,0-3.005,2.815-6.403,5.271l3.831,5.533l1.029,2.572l1.543-5.659l1.029-4.116
			v-2.059c0,0-1.029,0,0.515-1.543c1.544-1.544,2.058-2.573,3.602-2.573s-1.544-1.543,3.602-1.543s9.774,0,9.774,0l3.604,0.515
			c0,0,2.056,1.543,4.114,3.602c2.058,2.058,7.203,12.862,7.203,12.862l3.602,2.573c0,0-0.435,1.754,3.148,0.805
			c-0.539-1.069-1.239-2.636-2.119-4.921C209.848,238.643,210.362,242.244,210.362,242.244z"/>
		<path fill="#470E2E" d="M167.659,170.728l5.146,1.028l3.602,3.088l3.602-0.515l8.747-3.087l11.317-3.088l3.604-2.572
			c0,0,2.056-2.058,3.085-3.602s1.544-4.116,1.544-4.116l0.515-1.544l-3.088-8.747l-0.514-2.572l-3.088-5.145l-3.087-1.544
			l-1.027,2.059l-1.543,5.145c0,0,1.543,6.688,1.543,8.747c0,1.012-0.126,3.642-0.252,6.054c-0.13,2.492-0.262,4.751-0.262,4.751
			s-6.689,0-10.291,0s-6.174,0-9.775-0.515s-7.718-1.543-10.291-3.087c-1.908-1.146-6.648-6.538-8.969-9.244
			c-0.805-0.941-1.321-1.561-1.321-1.561l-1.482,0.593l-1.091,0.437l6.175,9.261l0.515,6.175l1.93,4.051l0.643-0.964
			L167.659,170.728z"/>
		<path fill="#470E2E" d="M159.941,245.331c0,0-0.392,1.57-0.848,3.391c-0.312,1.247-0.652,2.611-0.918,3.669l-1.836-3.458
			l-4.631-2.059v-2.058l1.029-3.602v-3.602l-3.088-4.631l-0.514-6.174l-2.572-2.573l-6.689-2.058c0,0-4.63,2.572-7.718,3.087
			c-3.087,0.515-2.058,6.174-2.058,6.174c9.262-0.515,16.465-0.515,16.465-0.515l1.543,4.116l1.029,4.116c0,0,0,0.515,0,3.088
			c0,2.572-1.029,4.116-1.029,4.116l-3.087,1.543l1.544,3.602l4.115,5.66l1.544,3.087c0,0,0,4.116,2.058,0.515
			c2.059-3.602,4.116-3.087,4.116-4.631s1.029-5.146,1.029-5.146l3.087,0.515l5.66,1.029h1.029v-4.116l-2.059-4.631v-3.938
			c-1.989,1.376-4.043,2.55-5.659,2.909C156.854,243.787,159.941,245.331,159.941,245.331z"/>
		<path fill="#470E2E" d="M78.135,210.858c0,0-2.572,2.572-5.146,2.572c-2.572,0-4.116,0-4.116,0l-5.659-2.059
			c0,0-2.572-1.543-3.602-3.087c-1.029-1.543-4.631-3.087-4.631-3.087h-7.202h-1.544h-1.544l-2.572,1.546h-2.572l-3.087,1.026
			l-2.573,1.544l-3.601-5.146l-2.573-2.056l-0.515-3.087v-3.088l-1.543-2.058l-5.146-5.66l-3.602-2.572l-1.411-1.646l-1.676-1.955
			l0.295-1.77l0.734-4.405c0,0,4.115-1.543,6.688-2.058c2.572-0.515,0.515-1.544,0.515-1.544s-1.029-2.058-2.573-3.087
			c-1.543-1.029-2.058-1.544-2.058-1.544v-6.688l-1.543-3.087l-3.603,1.029l-3.087-2.059l-2.572-6.688l-0.515,3.087v3.833
			c0.753,2.56,1.782,5.153,3.087,6.458c3.087,3.087,4.631,7.718,4.631,9.775c0,2.059,0,6.688,0,6.688l-2.059,5.146v5.146
			l4.632,3.602l6.174,4.116l3.087,8.23c0,0-2.322-3.25,0.546,2.183c0.804,0.162,1.81,0.438,3.056,0.904
			c4.115,1.544,8.746,3.087,10.29,3.087c1.543,0,4.63,0,6.688,0s7.718,0,9.261,0c1.544,0,1.029-1.029,3.602,0
			c2.573,1.029,5.659,2.059,5.659,2.059l5.146,2.058h4.63c0,0,2.572-1.029,4.116-1.029c1.543,0,6.688-3.602,8.231-4.116
			c0.334-0.11,0.666-0.294,0.999-0.514c-1.97,0-6.139,0-7.688,0C78.135,210.858,78.135,210.858,78.135,210.858z"/>
		<path fill="#470E2E" d="M103.346,197.482l-2.573,0.515l-2.058-0.515l-1.543-3.087c0,0,0-4.116-0.515-8.747
			s-2.573-8.747-4.631-15.436c-2.059-6.688-3.602-8.232-3.602-8.232l1.543-4.631l3.603,1.201v-3.434v-2.054v-2.402v-4.274v-1.386
			l-6.622-1.045l-3.153-0.498l-0.829,3.521l-1.229,5.226l4.63,12.863l1.483,2.831l4.177,7.974l1.544,10.291c0,0,0,6.174,0.514,8.232
			c0.515,2.058,3.603,5.145,5.66,7.203c2.058,2.056-0.515,4.631-0.515,4.631l-3.602,1.541l-2.229,1.029c1.915,0,4.288,0,4.288,0
			s2.058,0,4.115,0c2.059,0,4.631-2.058,4.631-2.058l2.058-6.175c0,0,0.003-0.237,0.641-1.027c-1.216-1.62-4.928-6.688-5.785-9.261
			V197.482z"/>
		<path fill="#2B1226" d="M229.124,265.856l23.029-19.849c4.896-5.192,9.415-10.745,13.512-16.613l1.81-3.615l-4.116-7.718
			l-2.402,2.402l-0.685,0.685l-5.66,3.602l-3.602,0.515l-3.087,2.572c0,0-1.029,3.602-2.573,5.66
			c-1.543,2.058-2.058,1.543-2.058,1.543l-3.35,3.721l-1.281,1.425c0,0-3.602,1.544-9.262,2.572
			c-0.317,0.058-0.607,0.121-0.878,0.188c-4.56,1.125-2.838,3.443-4.781,3.929c-1.957,0.49-3.456,1.446-7.584,2.865
			c-0.21,0.073-0.423,0.147-0.648,0.223c-0.352,0.116-0.673,0.212-0.968,0.29c-3.583,0.949-3.148-0.805-3.148-0.805l-3.602-2.573
			c0,0-5.146-10.805-7.203-12.862c-2.059-2.059-4.114-3.602-4.114-3.602l-3.604-0.515c0,0-4.629,0-9.774,0s-2.058,1.543-3.602,1.543
			s-2.058,1.029-3.602,2.573c-1.544,1.543-0.515,1.543-0.515,1.543v2.059l-1.029,4.116l-1.543,5.659l-1.029-2.572l-3.831-5.533
			l-0.8-1.155v1.721v3.938l2.059,4.631v4.116h-1.029l-5.66-1.029l-3.087-0.515c0,0-1.029,3.602-1.029,5.146
			s-2.058,1.029-4.116,4.631c-2.058,3.602-2.058-0.515-2.058-0.515l-1.544-3.087l-4.115-5.66l-1.544-3.602l3.087-1.543
			c0,0,1.029-1.544,1.029-4.116c0-2.573,0-3.088,0-3.088l-1.029-4.116l-1.543-4.116c0,0-7.203,0-16.465,0.515l3.602,4.116
			l6.688,5.66v5.146c0,0,0,3.602,0,5.145c0,1.544,0,2.059,0,2.059l-3.086,2.572l-1.544-1.544l-2.059-4.115l-1.029-1.029
			l-2.572-2.573c0,0-3.087-3.087-4.116-5.145c-1.028-2.059-4.116-1.029-4.116-1.029h-3.602c0,0-5.659,0-12.862,0s-8.231,0-8.231,0
			l-1.544-2.058l-1.029-2.573l-2.572-3.087h-2.059h-4.63c0,0-5.659,0-8.232-1.544c-2.572-1.543-8.232-6.174-8.232-6.174
			s5.66-3.602,10.291-4.631c0,0,3.087,0,10.29,2.572c7.202,2.573,3.602,0.515,3.602,0.515h4.631c0,0,10.289-3.602,12.862-5.145
			c2.572-1.544,7.203-3.088,7.203-3.088s5.659-0.514,7.718-1.028c2.058-0.515,5.659-1.544,6.688-3.088
			c1.029-1.543,2.573-3.602,2.573-3.602v-4.116l-1.544-3.087l-1.544-3.085c0,0-1.028-9.776-2.571-14.406
			c-1.544-4.631-6.689-4.631-6.689-4.631s-1.028,2.572-1.543,4.116c-0.515,1.543-2.573,6.688-3.602,8.746
			c-1.029,2.059-4.631,4.631-6.688,6.689c-0.665,0.663-1.113,1.167-1.418,1.543c-0.638,0.79-0.641,1.027-0.641,1.027l-2.058,6.175
			c0,0-2.572,2.058-4.631,2.058c-2.058,0-4.115,0-4.115,0s-2.373,0-4.288,0c-0.76,0-1.448,0-1.887,0
			c-1.211,0-2.422,1.265-3.632,2.059c-0.333,0.22-0.665,0.403-0.999,0.514c-1.543,0.515-6.688,4.116-8.231,4.116
			c-1.544,0-4.116,1.029-4.116,1.029h-4.63l-5.146-2.058c0,0-3.086-1.029-5.659-2.059c-2.572-1.029-2.058,0-3.602,0
			c-1.543,0-7.202,0-9.261,0s-5.146,0-6.688,0c-1.544,0-6.175-1.543-10.29-3.087c-1.246-0.467-2.252-0.742-3.056-0.904
			c0.148,0.28,0.306,0.577,0.483,0.904c3.602,6.688,8.231,14.406,8.231,14.406l6.174,12.349c0,0,1.544,1.029,1.544,2.573
			c0,1.543,5.146,7.718,5.146,7.718v3.087l-4.878-0.163c20.895,20.832,48.07,35.368,78.439,40.523l38.304,1.427
			C185.313,288.844,209.055,279.806,229.124,265.856z M180.522,238.643l4.631-1.544h2.058l7.203,2.572l-0.515,4.116l-0.516,3.602
			l-4.629-0.515l-5.146-4.116L180.522,238.643z"/>
		<path fill="#CE8BB9" d="M146.272,110.311l-1.767-1.324c0,0-0.089-0.267-0.232-0.713c-0.595-1.844-2.161-6.846-2.581-9.654
			c-0.02-0.137-0.037-0.267-0.052-0.393c-0.522-0.028-1.109-0.045-1.766-0.045c-0.516,0-1.174-0.011-1.916-0.029
			c-0.413-0.01-0.85-0.022-1.308-0.036l-2.95,1.608c0,0-4.63,2.573-9.261,4.631l1.736,0.868l5.466,2.733l3.088,3.087
			c0,0,3.087,1.029,5.659,1.029c1.463,0,3.921,0,5.771,0C146.046,111.429,146.143,110.791,146.272,110.311z"/>
		<path fill="#CE8BB9" d="M183.609,68.854c0,0-2.572,1.543-4.116,1.543s-7.718,1.029-12.349,2.573
			c-4.631,1.543-4.631,4.116-4.631,4.116s-2.572,2.572-3.602,5.145c-1.028,2.573-1.028,4.631-1.028,4.631l-3.088,4.631v3.602
			l1.029,1.028l3.133,4.924c0.84-1.037,1.544-1.884,2.013-2.351c0.656-0.656,1.868-2.334,3.087-4.165
			c0.517-0.775,1.031-1.577,1.507-2.342c1.045-1.679,1.892-3.174,2.095-3.784c0.515-1.543,5.66-11.833,5.66-11.833l4.617-2.309
			l1.557-0.778h4.116l2.059-1.544V65.46v-0.207L183.609,68.854z"/>
		<polygon fill="#CE8BB9" points="153.435,85.261 149.65,93.036 152.738,89.435 154.796,84.289 154.243,83.598 153.806,84.498 		"/>
		<path fill="#CE8BB9" d="M146.639,64.529c-1.846,0.952-4.705,3.811-4.705,3.811l1.029,1.029c0,0,0.109,0.127,0.304,0.372
			l1.273-1.97L146.639,64.529z"/>
		<path fill="#CE8BB9" d="M175.088,29.515c-1.094,1.786-3.129,5.113-4.942,8.12l3.174-1.709v5.146c0,0,0,3.087,0,6.174
			c0,0.167,0,0.339,0,0.515l3.087-7.718l0.941-2.353l1.116-2.793l-2.215-5.759l-0.357-0.929
			C175.892,28.209,175.588,28.703,175.088,29.515z"/>
		<path fill="#CE8BB9" d="M119.81,106.413l0.515,1.544l3.574,1.276l0.419-3.77l0.123-1.108
			C119.81,106.413,119.81,106.413,119.81,106.413z"/>
		<path fill="#CE8BB9" d="M145.132,98.56c1.539,1.273,2.976,2.709,2.976,2.709l0.361,2.522l0.475,3.33l0.707-0.708l6.175-4.63
			l-3.602-5.66l-1.544-1.543l-1.029-1.544l-1.024,1.253L145.132,98.56z"/>
		<polygon fill="#CE8BB9" points="119.295,116.189 121.619,117.074 124.955,116.704 121.867,113.616 117.752,110.529 
			115.289,107.793 114.15,109.5 		"/>
		<path fill="#CE8BB9" d="M107.976,83.774l2.543,3.392l0.545,0.725c0.714-0.118,1.564-0.349,2.452-0.629
			c2.949-0.938,6.294-2.458,6.294-2.458l4.78-2.066c-0.497-0.146-1.056-0.314-1.693-0.506c-5.145-1.543-3.602,0-5.145-0.515
			c-1.544-0.514-5.66-2.058-7.718-2.572c-0.851-0.212-1.525-0.953-2.024-1.749c-0.034,0.998-0.034,1.749-0.034,1.749V83.774z"/>
		<path fill="#CE8BB9" d="M164.484,48.398c-0.311,0.704-0.628,1.431-0.939,2.147c0.604-0.532,1.155-0.984,1.542-1.242
			L164.484,48.398z"/>
		<path fill="#CE8BB9" d="M160.649,56.587l-3.795,0.948l-13.378-4.631l-6.173,8.747l-11.834,5.145l9.775-1.028l4.116-3.088
			l2.058-3.601l6.174-2.573l5.146,4.116c0,0,8.232,6.688,9.775,7.203c1.544,0.515,4.631,0,4.631,0l4.631-0.515
			c0,0,7.203-7.717,11.319-9.261c0.438-0.164,0.81-0.206,1.129-0.16l-7.303-6.014l-9.776,11.318l1.654-4.137
			c-1.529-0.056-4.693-0.259-7.313-1.008L160.649,56.587z"/>
		<path fill="#CE8BB9" d="M185.668,59.079l-0.219-0.18c0.084,0.177,0.157,0.37,0.219,0.576V59.079z"/>
		<path fill="#CE8BB9" d="M145.021,98.696l0.111-0.137c-0.472-0.391-0.954-0.765-1.407-1.078c-0.344-0.238-0.672-0.44-0.967-0.587
			c-0.322-0.161-0.604-0.257-0.824-0.257c-0.199,0-0.303,0.208-0.334,0.565c-0.023,0.266-0.007,0.613,0.041,1.023
			c0.246,0.014,0.475,0.029,0.691,0.046C144.188,98.421,145.021,98.696,145.021,98.696z"/>
		<path fill="#CE8BB9" d="M110.034,68.854c0,0-1.029,2.572-1.544,4.116c-0.174,0.524-0.29,1.404-0.365,2.338l9.627,2.293
			l12.862-1.544c0,0-2.572,0-4.116,0c-1.543,0-4.116-0.515-6.688-2.572c-2.572-2.059-6.174-2.573-6.174-2.573v-3.04L110.034,68.854z
			"/>
		<path fill="#CE8BB9" d="M60.642,44.93v3.344v1.545l1.022,0.077l5.666,0.437l6.688-4.116l5.66,2.572c0,0,5.145,7.204,9.775,7.718
			c2.812,0.313,2.592,0.625,4.055,0.707c0.947,0.053,2.598,0.01,6.235-0.192c9.261-0.515,10.29-1.028,16.979-2.572
			c0.093-0.021,0.176-0.038,0.266-0.058c6.333-1.384,3.471,2.052,13.111-2.515c5.127-2.429,9.827-4.715,13.363-6.489
			c3.205-1.608,5.455-2.797,6.188-3.286c1.544-1.029-3.601,2.058,1.544-1.029c4.182-2.509,8.024-8.076,9.315-10.073l-0.568-0.731
			l0.618-0.515l-1.647-2.058c0,0-1.028-0.515-2.572-0.515s-5.146-0.515-5.146-0.515s-6.174-2.572-5.145-4.631
			c1.028-2.058,3.601-6.688,7.718-6.688c0.677,0,1.279,0,1.828,0c0.67,0,1.257,0,1.773,0c1.361,0,2.271,0,3.101,0
			c0.168,0,0.334,0,0.501,0c0.243,0,0.601,0,1.029,0c2.303,0,6.688,0,6.688,0l-8.36-0.836l-1.931-0.192l-2.09-0.523l-4.084-1.021
			c0,0-1.396-0.534-3.789-0.677c-0.838-0.05-1.796-0.051-2.86,0.035c-1.5,0.12-3.209,0.415-5.083,0.995
			c-1.329,0.412-2.74,0.966-4.217,1.704c-2.029,1.015-4.107,2.005-6.149,2.948c-5.437,2.513-10.606,4.696-13.88,6.142
			c-1.106,0.49-2,0.896-2.609,1.2c-0.559,0.279-1.371,0.542-2.365,0.787c-1.646,0.406-3.79,0.767-6.119,1.081
			c-4.037,0.546-8.621,0.952-12.096,1.22c-2.51,0.192-4.801,0.24-6.821,0.279c-2.05,0.04-3.818,0.071-5.252,0.234
			c-0.921,0.105-1.705,0.264-2.333,0.515c-2.572,1.029-3.087,0.515-6.175,2.059c-0.823,0.411-1.905,1.044-3.047,1.75
			c-3.135,1.937-6.729,4.424-6.729,4.424l-1.543,4.116l-0.241,1.201l-0.273,1.371V44.93z"/>
		<polygon fill="#250D0F" points="193.384,247.389 193.899,243.787 194.414,239.671 187.211,237.099 185.153,237.099 
			180.522,238.643 183.609,242.758 188.755,246.874 		"/>
		<path fill="#250D0F" d="M97.172,161.98l-2.573-3.087l-1.028-0.343l-3.603-1.201l-1.543,4.631c0,0,1.543,1.544,3.602,8.232
			c2.058,6.688,4.116,10.805,4.631,15.436s0.515,8.747,0.515,8.747l1.543,3.087l2.058,0.515l2.573-0.515v-7.203v-7.718
			c0,0,2.058-9.262-0.515-11.319C100.258,169.184,97.172,161.98,97.172,161.98z"/>
		<path fill="#250D0F" d="M47.779,249.447v-3.087c0,0-5.146-6.175-5.146-7.718c0-1.544-1.544-2.573-1.544-2.573l-6.174-12.349
			c0,0-4.63-7.718-8.231-14.406c-0.178-0.327-0.335-0.624-0.483-0.904c-2.868-5.433-0.546-2.183-0.546-2.183l-3.087-8.23
			l-6.174-4.116l-4.632-3.602v-5.146l2.059-5.146c0,0,0-4.63,0-6.688c0-2.058-1.544-6.688-4.631-9.775
			c-1.305-1.305-2.334-3.898-3.087-6.458c-1.028-3.492-1.544-6.92-1.544-6.92l-1.654-0.098l-2.852-0.167
			c1.029,38.81,17.212,73.845,42.848,99.402L47.779,249.447z"/>
		<path fill="#CEA2CB" d="M120.324,107.957l-0.515-1.544c0,0,0,0,4.631-2.058s9.261-4.631,9.261-4.631l2.95-1.608l2.71-1.479
			l3.602-3.087l-12.349,0.515c0,0-1.543,0-3.602,0c-2.058,0-3.087,0-4.631,0c-1.543,0-8.231,1.543-8.231,1.543l-1.544,1.544
			l-2.058,2.059h-2.573l5.146,6.174l0.08,0.089l0.025,0.027l2.063,2.292l2.463,2.736l4.115,3.087l3.088,3.088l-3.336,0.37
			l-1.295,0.144l-1.029-1.028l-1.543-0.515c0,0,1.58,2.766,3.475,5.497c1.851,2.67,4.001,5.308,5.271,5.308c2.573,0,2.573,0,2.573,0
			l0.689-4.138l0.339-2.037l-1.33-5.056l-1.242-4.72l-3.629-1.296L120.324,107.957z"/>
		<path fill="#CEA2CB" d="M99.229,99.725l2.058,4.116l2.059,0.515l1.105-2.212l1.467-2.933l-3.602-2.573l-6.174-4.631h-0.098h-1.446
			c0,0-0.531,0.852-0.918,1.779c-0.463,1.113-0.719,2.337,0.403,2.337c0.078,0,0.158,0.007,0.238,0.017
			C96.372,96.393,99.229,99.725,99.229,99.725z"/>
		<path fill="#CEA2CB" d="M68.873,88.92h1.341h0.203c0.229,0,0.685,0,1.544,0c2.572,0,5.659,0,5.659,0s-4.116-3.602-6.688-3.602
			c-2.573,0-7.718,1.544-7.718,1.544l-0.243,0.243l-1.814,1.814l-2.059,1.029l-4.509,0.347l-2.18,0.168l-3.087-1.544l-3.087,1.544
			c0,0-0.014,0.041-0.017,0.113c-0.015,0.374,0.252,1.597,4.133,2.459c4.63,1.029,8.231,2.059,10.805,1.029
			c0.681-0.272,1.25-0.69,1.724-1.155c0.706-0.691,1.192-1.486,1.493-2.08c0.261-0.516,0.384-0.881,0.384-0.881L68.873,88.92z"/>
		<path fill="#CEA2CB" d="M157.884,104.87l1.543-3.087l-0.469-0.736l-3.133-4.924l-1.029-1.028v-3.602l3.088-4.631
			c0,0,0-2.058,1.028-4.631c1.029-2.572,3.602-5.145,3.602-5.145s0-2.573,4.631-4.116c4.631-1.544,10.805-2.573,12.349-2.573
			s4.116-1.543,4.116-1.543l2.059-3.602c0,0,0.633-3.604,0-5.777c-0.062-0.206-0.135-0.399-0.219-0.576
			c-0.266-0.549-0.658-0.927-1.226-1.01c-0.319-0.046-0.69-0.004-1.129,0.16c-4.116,1.544-11.319,9.261-11.319,9.261l-4.631,0.515
			c0,0-3.087,0.515-4.631,0c-1.543-0.515-9.775-7.203-9.775-7.203l-5.146-4.116l-6.174,2.573l-2.058,3.601l-4.116,3.088
			l-9.775,1.028h-4.631l-6.174-0.515h-1.029v1.591v3.04c0,0,3.602,0.515,6.174,2.573c2.572,2.058,5.146,2.572,6.688,2.572
			c1.544,0,4.116,0,4.116,0l-12.862,1.544l-9.627-2.293l-1.178-0.28c0,0,0.354,1.239,1.063,2.367
			c0.499,0.796,1.174,1.537,2.024,1.749c2.058,0.515,6.174,2.059,7.718,2.572c1.543,0.515,0-1.028,5.145,0.515
			c0.638,0.191,1.196,0.359,1.693,0.506c3.515,1.037,3.962,1.037,7.567,1.037c2.749,0,4.347,0,5.106,0c0.379,0,0.554,0,0.554,0
			h4.116c0,0,9.261,0.516,6.688-5.145c-0.494-1.087-1.007-2.097-1.514-3.021c-0.084-0.155-0.168-0.306-0.253-0.455
			c-1.541-2.739-2.981-4.648-3.589-5.413c-0.194-0.245-0.304-0.372-0.304-0.372l-1.029-1.029c0,0,2.859-2.858,4.705-3.811
			c0.011-0.006,0.021-0.011,0.031-0.016c0.356-0.181,0.674-0.29,0.923-0.29c1.544,0,5.146,2.058,5.146,2.058l3.087,4.116
			c0,0,0.515,0.515,0,4.116s-0.515,3.602-0.515,3.602l-2.002,2.806l-0.096,0.134l-0.475,0.662l0.481,0.604l0.341,0.425l0.683,0.853
			l0.553,0.691l-2.058,5.146l-3.088,3.602l1.029,1.544l1.544,1.543l3.602,5.66l-6.175,4.63l-0.707,0.708l-2.379,2.379
			c0,0-0.161,0.325-0.292,0.811c-0.13,0.48-0.227,1.118-0.111,1.763c0.063,0.35,0.184,0.701,0.403,1.029
			c1.028,1.543,2.058,2.572,2.058,2.572l5.659,3.087c0,0,0.002-2.199,0.408-4.969c0.032-0.228,0.068-0.458,0.106-0.69
			C155.311,110.015,157.884,104.87,157.884,104.87z"/>
		<path fill="#CEA2CB" d="M173.319,41.071v-5.146l-3.174,1.709l-3.516,1.893l-3.602,3.087L162,44.673l2.484,3.726l0.603,0.905
			c-0.387,0.258-0.938,0.71-1.542,1.242c-1.808,1.593-4.118,3.902-4.118,3.902l1.223,2.139l0.836,1.463
			c2.62,0.749,5.784,0.952,7.313,1.008c0.572,0.021,0.919,0.021,0.919,0.021l3.602-4.116c0,0,0-4.143,0-7.203
			c0-0.176,0-0.348,0-0.515C173.319,44.158,173.319,41.071,173.319,41.071z"/>
		<path fill="#CEA2CB" d="M163.543,34.896c1.544,0,5.66,0,5.66,0l5.158-5.159l1.53-1.528c0,0,1.029,0,2.572,0
			c1.544,0,4.116,0,4.116,0l1.544,1.028c0,0,0.553-0.555,1.134-1.229c0.899-1.043,1.861-2.373,0.924-2.373c-1.063,0-2.369,0-3.75,0
			c-0.628,0-1.269,0-1.909,0c-2.059,0-10.805-1.029-10.805-1.029l-3.603,0.515l-4.137,3.449l-1.419,1.182l-0.618,0.515l0.568,0.731
			l1.18,1.516L163.543,34.896z"/>
		<path fill="#CE8BB9" d="M62.699,75.028c2.058,0,3.602-0.515,5.146,0c0.536,0.179,1.198,0.421,1.897,0.681
			c1.311,0.487,2.755,1.042,3.762,1.378c0.354,0.118,0.954,0.317,1.665,0.555c2.388,0.796,6.053,2.018,6.053,2.018h6.689
			l0.514-5.146l-10.29-5.145c0,0-3.67,0-6.174,0c-0.605,0-1.144,0-1.544,0c-2.059,0-4.116-1.544-6.174-1.544
			s-5.146-0.515-6.688-0.515c-1.544,0-3.088,1.029-3.088,1.029v5.259v1.43h2.055H62.699z"/>
		<path fill="#2B1226" d="M209.848,137.798l-8.231-7.202c0,0-2.059-4.631-4.114-4.631c-2.059,0-7.719-3.602-7.719-3.602
			l-6.174-4.631l-7.203-3.087l-3.087,0.515l2.572,5.66l3.602,2.058c0,0,2.572,0,1.029,1.544c-1.251,1.25-2.502,1.824-2.931,1.998
			c-0.102,0.041-0.156,0.06-0.156,0.06l0.262,0.196l1.796,1.348l2.572,1.543l2.059,0.515l6.174,3.087v5.659l0.515,2.059
			c0,0,1.542,1.028,3.087,2.572c1.544,1.543,2.573,2.058,2.573,2.058l1.543-5.145l1.027-2.059l3.087,1.544l3.088,5.145l0.514,2.572
			l3.088,8.747l-0.515,1.544c0,0-0.515,2.572-1.544,4.116s-3.085,3.602-3.085,3.602l-3.604,2.572l-11.317,3.088l-8.747,3.087
			l-3.602,0.515l-3.602-3.088l-5.146-1.028l-4.116-0.515l-0.643,0.964l-1.415,2.123l2.995,1.197l2.149,0.861l1.029,2.572
			c0,0-0.515,0,0.515,2.058c1.029,2.059,1.029,6.175,1.029,6.175s0.515,0.515-0.515,2.058c-1.029,1.544-1.029,3.602-1.029,3.602
			v2.059l4.631,5.659l1.029,6.173c0,0-2.059,1.543,1.028,2.058c3.088,0.515,3.088,1.029,8.232,0.515
			c5.146-0.515,2.573,0.515,7.203-1.029c4.631-1.543,5.146-2.058,7.204-2.058c2.056,0,6.688,0,6.688,0h1.029
			c0,0,0.513,0.515,2.57-3.085c2.059-3.602,2.572-4.116,3.602-5.66c1.029-1.543,3.087-2.572,4.116-4.116
			c1.029-1.543,5.146-6.174,5.146-6.174l3.602-6.175l1.544-7.203c0,0-0.515-2.572,1.028-3.602c1.544-1.029,2.573-1.544,3.087-3.087
			c0.515-1.544-1.543-8.747-1.543-8.747l-4.631-5.659l-2.572-2.573l-4.116-4.116L209.848,137.798z"/>
		<path fill="#2B1226" d="M222.196,211.372c-2.058-1.028-5.659-4.63-5.659-4.63l-2.573,2.058c0,0,0,2.059,0,3.602
			c0,1.544,0,5.146,0,5.146l-0.514,2.572l-1.544,4.631l1.544,2.059l4.63,2.058l1.544,2.058l2.572,2.573l2.059,0.515
			c0,0,0.515,0,2.058,0c1.406,0,0.255-0.427,3.141-0.503c0.283-0.008,0.606-0.012,0.976-0.012c4.116,0,1.544,1.543,5.146-0.515
			c1.367-0.78,2.435-1.191,3.267-1.54c1.356-0.571,2.073-0.979,2.393-2.576c0.515-2.572,1.029-7.718,1.029-7.718v-1.029v-1.543
			l-2.572-2.573c0,0-6.688-1.543-8.232-1.543c-1.008,0-3.773-0.878-6.146-1.775C224.056,212.21,222.91,211.73,222.196,211.372z"/>
		<path fill="#9A2F8E" d="M69.389,105.899c-1.544,0-13.378,0-13.378,0s-12.348-1.544-13.892-1.544c-0.916,0-3.824,1.087-6.038,1.971
			c-0.499,0.199-0.962,0.388-1.359,0.552c-0.812,0.334-1.35,0.564-1.35,0.564l-5.145,4.631c0,0-0.63,0.212-1.486,0.898
			c-0.485,0.39-1.043,0.93-1.601,1.674c-0.128,0.171-0.222,0.387-0.29,0.634l3.479,7.827l11.33-5.261l2.46-1.142
			c0,0,3.602-1.029,6.175-2.573c2.571-1.543,7.717-5.145,7.717-5.145s1.029-1.029,3.087,0c2.059,1.028,6.688,3.087,6.688,3.087
			l5.66,1.029c0,0,6.688-0.515,8.746,0.514c2.059,1.029,6.688,3.088,6.688,3.088s2.059,0,5.146,0.515
			c3.087,0.514,11.319,0.514,11.319,0.514l-3.602-5.145l-8.547-1.115l-3.286-0.429C87.911,111.044,70.932,105.899,69.389,105.899z"
			/>
		<path fill="#924894" d="M30.286,127.509l-1.957-4.402l-3.479-7.827l-0.601-1.352l-2.196-4.941l3.087-3.087l2.572-1.029
			l2.573-2.058c0,0,4.63-1.544,0.514-2.059c-1.151-0.144-2.463-0.489-3.756-0.911c-3.33-1.089-6.534-2.69-6.534-2.69h-2.058
			l-2.302,3.223l-1.658,2.32c-1.963,0.672-3.758,1.476-3.758,2.175c0,1.544,0,3.602,0,3.602l1.465,5.859l0.078,0.314l0.515,2.573
			v1.543c0,0,0,1.544,0,3.602c0,2.059,0,5.146,0,5.146v2.572c0,0-2.058,0-2.058,1.543c0,1.544,0,1.544,0,1.544l-1.544,1.029
			l7.204,2.058c0,0,2.571,2.058,4.115,0.515c1.544-1.544,8.232-5.66,8.232-5.66L30.286,127.509z M16.886,105.549l1.052,0.351
			l1.543,0.515l0.377,1.88l0.102,0.512l0.036,0.181l-1.504,0.902l-1.068,0.641c0,0-2.572,1.029-2.572-0.515
			C14.851,109.306,15.829,107.4,16.886,105.549z"/>
		<path fill="#924894" d="M47.779,172.785c2.058,1.544,4.63,3.087,4.63,3.087l1.029,5.146l3.087,1.544l5.146-2.573l-8.232-5.145
			c0,0-3.087-2.059-3.087-3.602c0-1.544-1.544-6.175-2.058-8.232c-0.515-2.059-2.573-9.776-2.573-9.776v11.319
			C45.721,164.553,45.721,171.242,47.779,172.785z"/>
		<polygon fill="#924894" points="157.884,129.053 158.57,129.053 159.941,129.053 162.514,127.509 163.028,124.422 
			163.028,120.306 163.028,117.732 158.397,120.82 154.983,127.648 154.796,128.023 		"/>
	</g>
</g>
</svg>
