<?xml version="1.0" encoding="utf-8"?>
<!-- Generator: Adobe Illustrator 12.0.0, SVG Export Plug-In . SVG Version: 6.00 Build 51448)  -->
<!DOCTYPE svg PUBLIC "-//W3C//DTD SVG 1.1//EN" "http://www.w3.org/Graphics/SVG/1.1/DTD/svg11.dtd" [
	<!ENTITY ns_svg "http://www.w3.org/2000/svg">
	<!ENTITY ns_xlink "http://www.w3.org/1999/xlink">
]>
<svg  version="1.1" xmlns="&ns_svg;" xmlns:xlink="&ns_xlink;" width="281.549" height="281.549" viewBox="0 0 281.549 281.549"
	 overflow="visible" enable-background="new 0 0 281.549 281.549" xml:space="preserve">
<g id="Layer_3">
</g>
<g id="Layer_2">
	<g>
		<path fill="#F0F9FB" d="M234.026,53.627c-2.526-1.895-0.632-1.895-0.632-1.895s-3.157-2.526-4.421-4.42
			c-1.263-1.895-3.157-2.526-3.157-2.526s-0.142-0.107-0.374-0.293c0.467,1.391,0.842,2.633,1.006,3.451
			C227.079,51.102,234.026,53.627,234.026,53.627z"/>
		<path fill="#F0F9FB" d="M242.867,85.834c4.421-3.158,0,0,3.157-2.526c3.158-2.526,0.632-8.841,0.632-8.841l-4.421-3.789
			l-6.946-6.315l-1.715-1.286c0.686,2.02,1.083,3.812,1.083,3.812h-2.525h-2.526h-3.157l-3.157-2.526l-8.21-0.631l-1.895-2.526
			l-2.526-3.158l-5.683,0.631c0,0-1.896,2.526-2.526,5.052c-0.632,2.526,1.263,3.157,1.263,3.157s3.789,2.526,6.946,5.684
			c3.158,3.158-0.631,8.841-0.631,8.841l2.526-3.158l5.052-1.895l5.052-1.263h6.946h5.052l1.895,3.158c0,0,0,1.263,0,5.052
			s1.264,3.789,0,6.315C238.446,87.097,238.446,88.991,242.867,85.834z"/>
		<path fill="#F0F9FB" d="M247.919,89.623l-5.052,3.157c0,0-0.13,0.259-0.409,0.631h8.619l4.42-3.157V88.36l-3.789-11.367v10.104
			L247.919,89.623z"/>
		<path fill="#F0F9FB" d="M240.973,61.206l2.526,1.894l-2.497-5.825l-0.029,0.142c0,0-4.421-1.895-6.946-3.789l4.42,5.052
			L240.973,61.206z"/>
		<path fill="#F0F9FB" d="M254.866,154.667c-1.264-1.894-1.264-4.42-1.264-4.42v-4.42c0,0,0-4.421,0-8.21s0-6.315,0-6.315
			l-1.895-5.052l-0.297-1.781c-1.573,0.303-2.86,0.518-2.86,0.518l-7.578,5.052l-0.632,1.895l-2.525,2.526l3.617,3.101l5.224-1.206
			h2.526l1.895,0.632c0,0-1.264,5.052-1.895,6.946c-0.449,1.348-1.218,3.014-1.851,4.545c-0.258,0.623-0.493,1.223-0.676,1.771
			c-0.632,1.895-1.895,7.578-1.895,7.578l-1.196,4.487l1.196,1.195h2.526c0,0,4.006,0,7.115-1.09
			c1.047-1.258,1.922-2.738,2.755-4.312c-0.305-0.456-0.873-1.31-1.518-2.276C255.39,155.454,255.128,155.061,254.866,154.667z"/>
		<path fill="#F0F9FB" d="M259.918,100.99c-2.526,0-2.526,1.895-2.526,1.895l2.526,4.42c0,0,0.204,0.263,0.524,0.718
			c2.437-0.717,3.896-0.718,3.896-0.718l6.947,6.315v2.526c0,0,3.789-1.263,0,2.526s-6.947,5.052-9.474,5.052
			c-2.525,0-4.42-0.632-6.945,0c-0.553,0.138-1.165,0.276-1.785,0.407l1.785,1.487l1.894,1.263c0,0,0.632,7.578,0.632,10.104
			c0,2.526,0,4.42,0,4.42s0,3.157,0,6.314c0,2.534,0,7.912,0,9.938c0.827-1.592,1.625-3.265,2.526-4.886
			c1.605-2.891,2.231-4.964,2.791-6.886l-0.265-1.324v-7.578v-4.421l1.894-5.052l0.632-1.263l1.438,8.144l0.457-1.829l2.525-5.052
			l3.158-2.526l5.052-6.315l-8.21-6.946l2.685-5.368l-0.789-1.579l-1.896-2.525l-2.363-1.839c-0.482,0.358-0.793,0.576-0.793,0.576
			S262.444,100.99,259.918,100.99z"/>
		<path fill="#F0F9FB" d="M59.732,146.458c-6.713-1.033-11.738-2.065-20.943-3.789c-1.155,0-1.16,0-1.16,0H24.368l4.42,8.841
			c0,0,3.157,2.526,8.209,2.526s18.945,0.631,18.945,0.631l1.895,8.21c3.158,0.631,11.367-2.525,11.367-2.525s5.052,1.263,7.578,0
			c2.526-1.264,3.789-4.421,6.315-6.315c-2.526-0.632-7.578-5.684-7.578-5.684S67.941,147.721,59.732,146.458z"/>
		<path fill="#F0F9FB" d="M92.908,141.779l3.001-3.82l-1.445,0.289C94.464,138.249,93.453,139.262,92.908,141.779z"/>
		<path fill="#F0F9FB" d="M101.573,121.036c1.732-3.065,2.996-6.153,2.996-6.153l1.263-10.735c0,0-2.297-1.722-6.341-4.619
			l-6.92-1.064h-2.526c0,0-8.841-1.895-11.367-2.526s-2.526,0-7.578-3.789c-5.052-3.789-5.052-4.42-5.052-4.42
			s-4.421-5.684-6.946-8.209c-2.526-2.526-6.947-15.788-8.21-20.84c-1.263-5.052-5.684,0-10.735,0s-1.263,6.947-1.263,6.947
			s0,8.209,0,15.788c0,7.578,5.052,6.315,8.841,6.946c3.789,0.632,7.578,7.578,7.578,7.578s-5.684,6.315-13.894,17.051
			c-8.209,10.735-5.684,1.263-5.684,1.263l-3.789-0.631c0,0-4.42-6.946-4.42-9.473c0-2.526,0-3.789-1.895-6.947l-7.578,0.632
			c0,0,0,10.735,0,12.63c0,1.894,0,3.789,0,3.789l-8.841,4.42v1.895l1.074,1.381l0.82-0.749l7.578,5.052l0,0h2.526l4.421-1.895
			l3.789-3.789l-1.895,3.158l-3.008,1.641l-3.939,2.148l4.42,4.42c0,0,4.421,0,7.578,0c3.158,0,5.052-2.526,5.052-2.526l7.578-3.158
			c0,0,11.367,0.631,17.051,1.895c5.683,1.263,4.42,1.895,9.473,2.526c5.052,0.631,3.157-1.895,3.157-1.895l-7.578-4.42v-1.895
			h5.684c0,0,7.578,0,9.473,0s8.841,2.526,12.63,4.42c0.769,0.385,1.615,0.119,2.476-0.548l1.944-3.241
			C99.516,123.092,100.366,122.242,101.573,121.036z"/>
		<path fill="#F0F9FB" d="M86.683,149.392c-1.876,0.544-3.585,0.855-3.585,0.855h3.157L86.683,149.392z"/>
		<polygon fill="#F0F9FB" points="249.813,71.309 249.077,70.678 251.708,76.993 		"/>
		<path fill="#F0F9FB" d="M143.722,176.139c0,0,6.314,1.263,13.262,0c6.946-1.263,12.63-3.157,17.05-6.315
			c4.421-3.157,6.947-5.052,6.947-5.052l-0.632-3.789l-3.789-3.157v-1.895c0,0-1.264-1.895-2.526-4.421
			c-1.263-2.525-2.525-5.052-2.525-5.052l-1.264-3.157c0,0-0.631-1.895-1.263-8.209l-4.06-1.354l-11.728,7.037l1.263-1.895
			l1.895-6.315l0.598-0.598c-1.276,0.055-3.202,0.203-4.387,0.598c-1.895,0.632-10.104,6.315-10.104,6.315s-2.331,2.915-4.42,5.972
			v8.553l-5.684,6.947l-1.184,3.552l2.447,12.235H143.722z"/>
		<path fill="#F0F9FB" d="M205.608,107.305c0,0,0.728-0.909,1.597-2.044c-0.111,0.062-0.222,0.112-0.334,0.15
			C204.978,106.042,205.608,107.305,205.608,107.305z"/>
		<path fill="#F0F9FB" d="M199.267,113.927c3.072-3.055,6.342-6.622,6.342-6.622l-2.526,1.895
			C203.082,109.2,201.052,111.231,199.267,113.927z"/>
		<path fill="#F0F9FB" d="M238.446,211.503c-4.42,0-5.684,0-8.209-0.632c-2.526-0.631-5.052,0-10.735,0c-1.883,0-2.931,0-3.495,0
			c2.476,1.588,4.482,2.526,6.021,2.526c2.526,0,10.104,0,10.104,0s0,0,5.052,0c1.325,0,2.91-0.087,4.529-0.215
			C240.981,212.638,240.687,211.503,238.446,211.503z"/>
		<path fill="#F0F9FB" d="M247.288,211.503c-1.113,0.649-1.993,1.106-2.701,1.416c1.144-0.117,2.232-0.241,3.181-0.355
			c0.047-0.479,0.095-0.96,0.146-1.426C247.709,211.257,247.501,211.378,247.288,211.503z"/>
		<path fill="#F0F9FB" d="M137.906,72.572c-0.378-0.138-0.758-0.287-1.131-0.448v0.448
			C137.195,72.572,137.575,72.572,137.906,72.572z"/>
		<path fill="#F0F9FB" d="M144.353,88.36c0-1.243,0-3.171,0-5.052c-2.149,0-4.42,0-4.42,0h-5.684l-1.97-1.182
			c-0.436,0.624-0.843,1.239-1.188,1.813c-1.895,3.158-5.052,1.263-6.947,1.263s-4.42,0-6.314-0.631s-4.421-1.895-4.421-1.895
			s-1.895-2.525-5.684-5.684c-3.789-3.157-2.526-3.157-2.526-3.157s-1.895-3.789-1.895-5.684s0-5.052,0-5.052s0-3.789-1.263-10.735
			c-1.263-6.946-4.42-4.42-4.42-4.42l-1.263-2.526v-3.789c0,0,3.789-5.052,5.684-7.578c0.676-0.902,1.354-1.805,2.059-2.765
			c-1.728,0.842-3.445,1.502-4.585,1.502c-3.157,0-3.157-1.264-6.946,1.263s-5.684,3.789-5.684,3.789s-1.894,0-3.789,3.158
			c-1.895,3.157-2.526,5.052-2.526,6.946s0,10.104,0,10.104s-1.895,6.315,0.632,10.736c0.676,1.182,1.306,2.727,1.867,4.354
			c1.926,2.696,3.574,4.875,4.448,5.749c2.328,2.328,11.523,6.03,19.483,8.826c0.756,0.015,1.45,0.015,1.987,0.015
			c1.895,0,4.42,0,4.42,0l8.21,1.263h1.895l6.314,3.158c0,0-0.631,1.263,2.526,1.895c1.938,0.388,4.113,0.537,5.504,0.595
			l4.599-1.227l-3.157,1.264c0,0-0.566,0-1.442-0.037l-4.873,1.299l-3.158,1.895l-3.157,0.632l-1.895,0.631l-0.632,1.894
			c0,0,0.188,1.602,0.311,3.639c1.441-1.821,2.909-2.698,3.479,0.15c1.263,6.315,1.263,22.103,1.263,22.103l6.947-9.472
			c0,0-0.632-5.052,1.895-6.946c2.526-1.895,5.052-1.895,7.578-4.42c1.711-1.711,3.42-5.158,4.346-7.206l-1.188-4.161
			C148.773,94.675,144.353,91.518,144.353,88.36z"/>
		<path fill="#F0F9FB" d="M179.085,59.942c0,0-0.025,0.052-0.071,0.164l0.083-0.153C179.093,59.95,179.09,59.946,179.085,59.942z"/>
		<path fill="#F0F9FB" d="M108.357,19.526l-1.379-0.157l1.933,4.938C110.456,21.509,108.357,21.83,108.357,19.526z"/>
		<path fill="#F0F9FB" d="M210.029,86.044c0-2.14,0-4.631,0-4.631l-3.717,1.327L210.029,86.044z"/>
		<path fill="#F0F9FB" d="M190.66,121.374c-0.207,0.455-0.208,0.456-0.208,0.456S190.576,121.457,190.66,121.374
			c0.307-0.674,1.065-2.345,2.95-6.491c3.157-6.946,1.263-2.526,1.895-6.946c0.631-4.42,2.525-5.683,3.157-8.841s0-5.684,0-5.684
			c-1.895-1.894-3.157-3.157-3.157-3.157s-2.526-5.684-4.421-6.946c-1.486-0.991-1.806-0.816-1.874-0.695l-0.021,0.063
			c0,0,0.001-0.029,0.021-0.063l1.457-4.555l-9.957-6.164c0.664,1.293,1.118,2.731,0.901,4.467
			c-0.631,5.052-0.631,4.421,1.263,11.999c1.896,7.578,3.789,10.736,3.789,14.525s0,5.683,0,8.841c0,2.784,0,8.019,0,9.22
			l3.086,6.787c0.209-1.138,0.456-2.524,0.703-4.008C190.804,121.616,190.765,121.268,190.66,121.374z"/>
		<path fill="#F0F9FB" d="M200.557,200.136c0,0,0-0.634,0-1.624l-1.895,3.519l-0.172,0.516c0.751,0.155,1.451,0.396,2.066,0.747
			C199.925,201.398,200.557,200.136,200.557,200.136z"/>
		<path fill="#F0F9FB" d="M4.16,123.092l-2.764-2.211c-0.474,3.348-0.828,6.733-1.062,10.151l6.5-5.935L4.16,123.092z"/>
		<path fill="#F0F9FB" d="M223.291,156.563l-0.632-6.315c0,0-3.789-3.157-6.946-0.632c-3.157,2.526-5.053,3.789-7.578,5.684
			c-2.228,1.671-0.529,1.868-1.827,1.892c1.409,1.364,2.23,2.507,2.696,3.429l0.51,0.307c0.758-0.373,5.104-2.47,6.83-2.47
			C218.238,158.456,223.291,156.563,223.291,156.563z"/>
		<path fill="#75C0EA" d="M244.224,236.248l-0.094-0.748l0.475-2.526c-3.839,1.592-12.181,4.505-14.367,5.052
			c-2.526,0.632-7.578,1.264-11.999,1.264c-4.42,0-18.945-9.473-22.733-10.104l-5.684,9.473c0,0,0,0,0,2.526
			c0,2.525,5.052,6.946,5.052,6.946s8.209,2.526,11.367,2.526c3.157,0,7.578,0,9.473,0s6.314,0,6.314,0l5.052,1.263l0.043,0.042
			C233.247,247.198,238.968,241.94,244.224,236.248z"/>
		<path fill="#D8F0F9" d="M246.024,225.396l1.264-6.946c0,0,0.196-2.949,0.479-5.886c-0.948,0.114-2.037,0.238-3.181,0.355
			c-1.67,0.731-2.375,0.636-2.874,0.264c-1.619,0.128-3.204,0.215-4.529,0.215c-5.052,0-5.052,0-5.052,0s-7.578,0-10.104,0
			c-1.538,0-3.545-0.938-6.021-2.526c-0.117,0-0.216,0-0.294,0c0,0-0.106,0-0.303,0c-1.078,0-4.898,0-9.17,0
			c-5.053,0-3.789-1.895-3.789-1.895s-1.263-3.789-1.895-5.684c-0.615-0.352-1.315-0.592-2.066-0.747l-1.091,3.273l-1.263,13.893
			l-0.632,9.473c3.788,0.632,18.313,10.104,22.733,10.104c4.421,0,9.473-0.632,11.999-1.264c2.187-0.547,10.528-3.46,14.367-5.052
			L246.024,225.396z"/>
		<path fill="#F0F9FB" d="M194.293,205.482c0.744,2.585,2.233,7.753,2.233,7.753s-1.489,2.584,4.468,2.584c5.038,0,9.542,0,10.813,0
			c0.231,0,0.356,0,0.356,0c0.093,0,0.209,0,0.348,0c0.666,0,1.901,0,4.121,0c6.702,0,9.681-0.861,12.659,0
			c2.979,0.862,4.468,0.862,9.68,0.862c2.643,0,2.989,1.548,3.852,2.29c0.589,0.508,1.421,0.639,3.39-0.358
			c0.835-0.423,1.873-1.047,3.185-1.932c0.252-0.17,0.496-0.336,0.738-0.499c0.229-2.446,0.49-4.625,0.752-5.531
			c0.744-2.584,0-4.308,0-4.308s2.978-10.336,2.978-13.782c0-3.445,3.724-5.168,3.724-5.168l2.234-4.308l0.62-1.579
			c-1.611,0.482-3.309,1.008-5.089,1.579c-13.403,4.308-18.616,9.476-20.85,9.476c-2.234,0-19.361,0-28.298,0
			c-3.895,0-6.374-0.654-8.241-1.607l-0.694,1.607l-2.979,6.399c0,1.35,0,2.215,0,2.215S193.548,202.898,194.293,205.482z"/>
		<path fill="#D8F0F9" d="M189.21,82.613c0.068-0.122,0.388-0.296,1.874,0.695c1.895,1.263,4.421,6.946,4.421,6.946
			s1.263,1.263,3.157,3.157c0,0,0-1.894,0-5.052c0-1.557,0-3.574-0.151-5.446l-7.844-4.855L189.21,82.613z"/>
		<path fill="#D8F0F9" d="M189.21,82.613c-0.02,0.034-0.021,0.063-0.021,0.063L189.21,82.613z"/>
		<path fill="#D8F0F9" d="M210.66,72.572c-3.157-3.157-6.946-5.684-6.946-5.684s-1.895-0.631-1.263-3.157
			c0.631-2.526,2.526-5.052,2.526-5.052l5.683-0.631l2.526,3.158l1.895,2.526l8.21,0.631l3.157,2.526h3.157h2.526h2.525
			c0,0-0.397-1.792-1.083-3.812l-0.812-0.608l-5.052-3.157c0,0-5.684-2.526-7.578-3.158s-5.052-1.263-5.052-1.263
			s-2.525-2.526-5.684-3.789c-3.157-1.263-5.052-2.526-5.052-2.526s-4.421-3.789-6.946-4.421c-0.48-0.12-0.869-0.286-1.185-0.476
			l-0.71,4.265c0,0,0,11.367,0,13.262c0,1.894-5.053,4.42-5.053,4.42h-0.291l1.555,2.526h1.895c0,0,0,0,2.526,0l3.156,2.526
			l1.896,2.526c0,0,0,0,1.894,1.263c1.896,1.263,0.632,1.263,0.632,1.263v4.421l2.526,2.525l0.072,0.064l3.717-1.327
			C210.029,81.414,213.818,75.73,210.66,72.572z"/>
		<path fill="#D8F0F9" d="M179.097,59.954l-0.083,0.153c-0.182,0.446-0.687,1.86-1.191,4.888c-0.414,2.486,1.619,4.429,2.888,6.899
			l9.957,6.164l7.844,4.855c-0.156-1.925-0.472-3.697-1.111-4.658c-1.264-1.895-3.158-3.158-3.158-3.158l-2.525-3.789l-2.526-1.263
			l-2.526-1.895l-0.631-2.526l-3.158-1.895C182.874,63.731,182.874,63.731,179.097,59.954z"/>
		<path fill="#D8F0F9" d="M251.708,126.25l1.895,5.052c0,0,0,2.526,0,6.315s0,8.21,0,8.21v4.42c0,0,0,2.526,1.264,4.42
			c0.262,0.394,0.523,0.787,0.774,1.163c0.645,0.967,1.213,1.82,1.518,2.276c0.078-0.148,0.155-0.298,0.233-0.447
			c0-2.026,0-7.404,0-9.938c0-3.157,0-6.314,0-6.314s0-1.895,0-4.42c0-2.526-0.632-10.104-0.632-10.104l-1.894-1.263l-1.785-1.487
			c-0.563,0.12-1.133,0.233-1.67,0.337L251.708,126.25z"/>
		<path fill="#D8F0F9" d="M240.973,130.039l7.578-5.052c0,0,1.287-0.215,2.86-0.518c0.537-0.104,1.106-0.218,1.67-0.337
			c0.62-0.131,1.232-0.27,1.785-0.407c2.525-0.632,4.42,0,6.945,0c2.526,0,5.685-1.263,9.474-5.052s0-2.526,0-2.526v-2.526
			l-6.947-6.315c0,0-1.459,0.001-3.896,0.718c1.171,1.666,3.896,5.914,3.896,9.386c0,4.42-1.263,2.526-3.789,3.157
			c-2.525,0.632-3.789,0-6.314,0c-2.526,0-3.789-1.263-3.789-1.263h-3.157c0,0-2.867,3.686-6.622,7.43l-0.325,5.201L240.973,130.039
			z"/>
		<path fill="#D8F0F9" d="M219.502,166.034l5.052-1.263l4.42-6.315h5.684l0.76,2.658l2.006-1.242l2.287-4.573l1.263-11.367h-3.789
			h-4.421h-6.314c0,0-6.315,0-9.473-0.631c-3.157-0.632-9.473-1.263-9.473-1.263h-7.578l-1.263-4.421c0,0,3.789-3.789,5.684-6.947
			s1.895-3.789,3.157-6.315c1.264-2.526,2.526-5.052,2.526-6.946c0-1.895,0.631-1.263,0.631-1.263s3.789-5.683,9.473-10.104
			c5.684-4.421,2.526-1.895,4.421-3.789v-5.053c0,0,2.525-0.631,4.42-1.263s5.684-3.789,7.578-6.315c1.264-2.526,0-2.526,0-6.315
			s0-5.052,0-5.052l-1.895-3.158h-5.052h-6.946l-5.052,1.263l-5.052,1.895l-2.526,3.158c0,0,0,2.491,0,4.631l1.895,1.684h2.525
			l2.526-2.526l2.526-3.157l2.525,0.631l3.789,4.421v2.526c0,0-2.525,1.895-6.314,4.42s-3.158,1.895-5.684,3.157l-3.158,3.158
			c0,0-1.678,3.916-3.455,4.902c-0.869,1.135-1.597,2.044-1.597,2.044s-3.27,3.567-6.342,6.622c-0.206,0.311-0.409,0.63-0.604,0.956
			c-0.829,1.382-1.174,1.917-1.301,2.083l-0.594,2.97l-1.263,3.157l-2.526,5.684c0,0-0.001,0.002-1.661,2.769l2.293,8.598
			c0,0,2.526,7.578,3.789,9.472c0.055,0.082,0.123,0.174,0.198,0.27c1.598,1.565,3.236,2.996,4.854,4.151
			c1.621,1.158,2.88,2.209,3.856,3.154c1.298-0.023-0.4-0.221,1.827-1.892c2.525-1.895,4.421-3.157,7.578-5.684
			c3.157-2.525,6.946,0.632,6.946,0.632l0.632,6.315c0,0-5.053,1.894-6.947,1.894c-1.726,0-6.072,2.097-6.83,2.47l4.305,2.582v3.158
			h5.639L219.502,166.034z"/>
		<polygon fill="#D8F0F9" points="234.026,137.617 224.554,135.723 217.607,137.617 227.711,138.88 231.5,140.143 238.446,138.249 
			241.433,137.56 237.815,134.459 		"/>
		<path fill="#D8F0F9" d="M244.762,163.508l-1.196-1.195l-1.232,4.622c1.982-0.188,4.063-0.469,6.218-0.9
			c2.544-0.509,4.371-1.839,5.853-3.616c-3.109,1.09-7.115,1.09-7.115,1.09H244.762z"/>
		<path fill="#D8F0F9" d="M234.657,193.82c1.895,0,6.315-3.788,17.683-6.946c1.509-0.419,2.948-0.804,4.315-1.157l2.631-5.789
			l1.263-1.895c-5.683-1.263-5.683,1.263-10.735,1.263c-5.052,0-3.157-0.631-8.209-2.525c-2.586-0.97-7.489,0.212-13.015,1.766
			c-2.229,1.433-4.604,2.654-5.931,2.654c-0.873,0-1.368-0.227-1.644-0.522c-2.929,0.782-5.823,1.456-8.46,1.785
			c-1.376,0.173-2.632,0.297-3.779,0.384c-1.457,2.51-3.799,7.194-3.799,7.194l-1.306,2.611c1.583,0.698,3.686,1.178,6.988,1.178
			C218.238,193.82,232.763,193.82,234.657,193.82z"/>
		<path fill="#D8F0F9" d="M219.411,167.298l0.046-0.632h-5.639v0.475c0.772,0.075,1.263,0.157,1.263,0.157
			S216.906,167.298,219.411,167.298z"/>
		<polygon fill="#D8F0F9" points="237.423,159.872 235.417,161.114 235.921,162.877 		"/>
		<path fill="#D8F0F9" d="M257.392,157.659c-0.078,0.149-0.155,0.299-0.233,0.447c-0.833,1.573-1.708,3.054-2.755,4.312
			c-1.481,1.777-3.309,3.107-5.853,3.616c-2.155,0.432-4.235,0.713-6.218,0.9l-0.098,0.363c0,0-6.946,5.684-8.841,7.578
			c-0.898,0.898-2.793,2.366-4.805,3.66c5.525-1.554,10.429-2.735,13.015-1.766c5.052,1.895,3.157,2.525,8.209,2.525
			c5.053,0,5.053-2.525,10.735-1.263c0,0-0.631-3.789,1.263-8.841v-5.685l0.102-0.253c-0.553-1.459-1.364-2.272-1.364-2.272v-5.052
			c0,0,2.063-3.303,2.854-6.57l-0.694-3.473c-0.56,1.922-1.186,3.995-2.791,6.886C259.017,154.395,258.219,156.067,257.392,157.659z
			"/>
		<path fill="#D8F0F9" d="M221.016,180.668c-0.521-0.561-0.251-1.372-0.251-1.372l-1.895-4.42l0.541-7.578c-2.505,0-4.33,0-4.33,0
			s-0.49-0.082-1.263-0.157v5.209c0,0-3.158,7.578-4.421,9.473c-0.175,0.262-0.387,0.611-0.621,1.015
			c1.147-0.087,2.403-0.211,3.779-0.384C215.192,182.124,218.087,181.45,221.016,180.668z"/>
		<path fill="#D8F0F9" d="M95.728,197.609c3.157,2.526,1.895,4.421,8.209,3.789c6.315-0.631,14.524-13.893,14.524-13.893
			c3.158-4.421,5.683-8.841,5.683-8.841l2.659-5.85l0.499-1.098c0,0-0.631-6.314,0.631-9.473c1.263-3.157,1.895-7.578,1.895-7.578
			l1.263-8.84l1.895-4.421l4.42-5.052l8.21-2.526l4.42-3.158l4.421-5.052c0,0,1.263-1.263,3.789-1.895
			c2.526-0.632,11.367-7.578,11.367-7.578l-2.488-3.732c-1.707,0.572-2.563,0.575-2.563,0.575s0.814-0.652,1.864-1.624l-1.864-2.797
			c0,0-7.578,6.946-8.21,8.841c-0.632,1.894-5.684,6.946-8.21,6.946c-2.525,0-6.314,1.263-6.314-0.631s0-10.735,5.052-11.367
			c5.052-0.631,6.315-1.894,8.841-1.894c2.526,0,7.578-5.684,7.578-5.684l-8.209-3.157l-3.789,1.895l-1.338-4.68
			c-0.926,2.048-2.635,5.495-4.346,7.206c-2.526,2.525-5.052,2.525-7.578,4.42c-2.526,1.894-1.895,6.946-1.895,6.946l-6.947,9.472
			c0,0,0-15.788-1.263-22.103c-0.569-2.848-2.038-1.971-3.479-0.15c0.194,3.24,0.221,7.584-0.941,8.36
			c-1.895,1.263-3.789,3.789-5.052,5.683s-2.526,5.052-2.526,5.052l5.052,3.789l1.895,8.841c0,0,0,1.895,0,6.947
			c0,5.052,0,7.578,0,7.578l-10.104,11.998l-13.893,9.473l-6.946,3.157c0,0-8.209,0-10.104,0s-9.473-3.157-9.473-3.157
			l-19.577,5.684h-4.42l-5.684,0.632l-9.473-1.264l-0.631-6.314v-3.157l-0.631-2.526h-6.947h-1.895h-2.526l-2.526,2.526
			c1.263,1.894,1.263-0.001,3.789,5.683s5.684,8.841,5.684,8.841s-0.632,0.001,1.895,2.526c2.526,2.526-1.895,4.421,5.683,5.684
			c1.85,0.309,3.36,0.541,4.633,0.718l7.997-3.875c0,0,1.894-3.789,4.42-4.421c2.526-0.632,4.42-0.632,4.42-0.632l6.315-0.631
			l5.683-3.157l0.165-0.056l1.099-2.471c0,0,1.423,0.407,2.654,1.221l3.661-1.221c0,0,3.158-0.632,3.158,1.895s0,2.526,0,2.526
			s1.894,1.894,3.157,3.789c1.263,1.894,1.263,1.894,1.263,1.894l1.263,3.789c1.135,0,1.894,0,1.894,0l3.789,4.421l-0.173,0.578
			l2.068,1.316C92.57,196.347,92.57,195.084,95.728,197.609z"/>
		<path fill="#D8F0F9" d="M190.452,176.139c-1.263-2.526-1.263-2.526-1.263-2.526s-2.526,0-4.42-0.631l-1.264-3.158l-3.157-3.157
			l0.632-1.895c0,0-2.526,1.895-6.947,5.052c-4.42,3.158-10.104,5.053-17.05,6.315c-6.947,1.263-13.262,0-13.262,0h-10.104
			l-2.447-12.235l-0.71,2.131l-3.789,15.156v5.052l-1.263,6.947l-1.263,4.42v3.158l2.526,3.157l2.526,0.631c0,0,0,0,5.052,0
			c5.052,0,4.42,0,7.578,0c3.157,0,4.42-1.263,6.314-1.263s1.264-1.895,3.789-1.895c2.526,0,0.632,0,6.315-1.895
			s6.314-3.157,8.841-4.42c2.526-1.264,8.209-6.315,8.209-6.315l1.896-1.263c0,0,1.894-0.632,4.42-0.632
			c1.067,0,3.036,1.465,4.954,3.157h0.098l5.685-6.314c0,0,1.229-1.564,2.699-3.518c-0.713-0.266-1.451-0.729-3.331-1.534
			C187.295,176.771,191.716,178.665,190.452,176.139z"/>
		<path fill="#D8F0F9" d="M148.773,94.675l5.684-0.632l4.42-5.684l-0.631-4.42l-3.789-0.631c0,0-5.052,0-6.946,0
			c-0.697,0-1.907,0-3.158,0c0,1.881,0,3.809,0,5.052C144.353,91.518,148.773,94.675,148.773,94.675z"/>
		<path fill="#D8F0F9" d="M140.774,140.774l-2.736,3.157v0.92c2.089-3.057,4.42-5.972,4.42-5.972L140.774,140.774z"/>
		<path fill="#D8F0F9" d="M9.488,165.521l6.039-3.907h3.789l7.578-2.526c0,0,6.315,2.526,8.209,3.157
			c1.895,0.632,4.42,2.526,4.42,2.526l1.263,1.895l4.42,4.421c0,0,1.263-0.632,0,1.263c-1.263,1.895-6.946,3.789-6.946,3.789h6.315
			h3.158c0,0,1.894,0,4.42,0c2.526,0,5.052,0,5.052,0l2.526-1.263l1.603-2.005l0.923-1.153l3.157-3.157h3.159h4.419l6.947,0.632
			l8.841,1.895h3.789l2.526-8.21l6.315-7.578c0,0,5.684-6.314,7.578-7.578c1.895-1.263,6.315-5.052,6.315-5.052l0.632-4.42
			l-0.501-2.838l-1.394-7.897l-1.799-2.249c-0.444,0.232-0.728,0.354-0.728,0.354l-8.209,5.684
			c-1.895,3.157-5.683,6.315-5.683,6.315l-1.713,0.342l-3.001,3.82c-0.2,0.927-0.338,2.056-0.338,3.416c0,5.052,0,6.946,0,6.946
			s-0.631,1.895-2.526,2.525c-1.895,0.632-3.158,1.896-3.158,1.896s-1.263-1.895-3.789-2.526c-2.526,1.895-3.789,5.052-6.315,6.315
			c-2.526,1.263-7.578,0-7.578,0s-8.209,3.156-11.367,2.525l-1.895-8.21c0,0-13.893-0.631-18.945-0.631s-8.209-2.526-8.209-2.526
			l-4.42-8.841l-3.789-4.42l-1.263-1.895L13,134.459h-1.895H0.371H0.142C0.05,136.553,0,138.658,0,140.774
			c0,7.74,0.627,15.333,1.828,22.733h2.963L9.488,165.521z"/>
		<path fill="#D8F0F9" d="M186.663,102.885c0-3.789-1.894-6.947-3.789-14.525c-1.894-7.578-1.894-6.946-1.263-11.999
			c0.217-1.736-0.237-3.174-0.901-4.467c-1.269-2.47-3.302-4.413-2.888-6.899c0.505-3.028,1.01-4.442,1.191-4.888
			c0.046-0.112,0.071-0.164,0.071-0.164c-3.789-3.789-0.631-1.895-0.631-4.42s0-6.946,0-6.946s1.263-4.421,0-13.262
			c-1.263-8.841-3.158,1.895-3.158,1.895s-3.157,3.158-6.314,8.841s-2.526,7.578-4.42,10.104c-1.896,2.526-0.632-1.895-0.632-1.895
			v-3.157l-1.264-4.421l-7.577,0.632l-2.526,3.789l-3.157,2.526l-6.315,5.684l-2.526,5.684l-2.526,2.526l-1.263,3.157v1.446
			c0.373,0.161,0.752,0.311,1.131,0.448c0.866,0,1.395,0,1.395,0l3.157-0.631l4.421-1.895l6.315-2.526h3.157l2.394,1.276
			l0.132-0.013l6.315,1.263l0.811,2.633l2.979,1.787l0.632,1.895v1.421l3.157-0.79c0,0,5.052-6.315,5.684-4.42
			c0.631,1.895,2.526,8.841,2.526,8.841l2.525,10.735c0,0,0-1.895,1.264,3.789c1.263,5.684,1.263,17.682,1.263,17.682v5.937
			l0.631,1.389c0-1.201,0-6.436,0-9.22C186.663,108.568,186.663,106.674,186.663,102.885z"/>
		<polygon fill="#D8F0F9" points="10.286,121.947 13.632,126.25 15.527,126.25 18.684,126.25 11.106,121.198 		"/>
		<path fill="#D8F0F9" d="M18.053,110.463c0-1.895,0-12.63,0-12.63l7.578-0.632c1.895,3.158,1.895,4.421,1.895,6.947
			c0,2.526,4.42,9.473,4.42,9.473l3.789,0.631c0,0-2.526,9.473,5.684-1.263c8.21-10.735,13.894-17.051,13.894-17.051
			s-3.789-6.946-7.578-7.578c-3.789-0.631-8.841,0.631-8.841-6.946c0-7.578,0-15.788,0-15.788s-3.789-6.947,1.263-6.947
			s9.473-5.052,10.735,0c1.263,5.052,5.684,18.313,8.21,20.84c2.525,2.526,6.946,8.209,6.946,8.209s0,0.631,5.052,4.42
			c5.052,3.789,5.052,3.158,7.578,3.789s11.367,2.526,11.367,2.526h2.526l6.92,1.064c-0.198-0.142-0.399-0.286-0.605-0.433
			c-4.42-3.158-5.052-2.526-6.946-3.158s-8.209-2.526-8.209-2.526s-1.895,0-3.789-0.631s-1.895-1.894-6.315-4.42
			c-4.421-2.526-2.526-1.895-3.789-3.789c-0.978-1.467-1.577-4.075-2.091-7.813l-2.961-3.553l-5.683-11.999l-2.965-5.083
			c-0.87-1.09-1.721-2.311-2.529-3.57L50.052,49c-1.627,0.114-3.245,0.207-4.213,0.207c-2.526,0-6.315,1.263-6.315,1.263
			l-5.683,4.42l-1.895,1.263l-2.526,3.158c0,0-1.895,3.157-3.158,6.315c-1.263,3.158-0.631,4.42-0.631,6.946s0,4.42,0,4.42v6.315
			l-4.421,3.789l-2.526,4.42l-2.526,1.894l-3.789,1.895l-3.789,4.42v3l1.895,0.158v3.158c0,0-0.631,5.051-1.263,6.946
			c-0.632,1.894,0,3.157,0,3.157v2.526l8.841-4.42C18.053,114.251,18.053,112.357,18.053,110.463z"/>
		<path fill="#D8F0F9" d="M75.52,148.353l-4.421-3.789l-4.42-0.632h-5.052c0,0,0,0-1.894,0c-1.895,0-10.736-1.263-10.736-1.263
			H46.47c0,0-0.632,0-2.526,0c-1.895,0-2.526,0-4.421,0c-0.288,0-0.527,0-0.734,0c9.205,1.724,14.229,2.756,20.943,3.789
			C67.941,147.721,75.52,148.353,75.52,148.353z"/>
		<path fill="#D8F0F9" d="M101.573,121.036c0.874-0.874,1.935-1.935,2.996-2.996c0.767-0.767,1.474-1.474,2.089-2.089l-0.194-0.438
			l-0.631-11.367l-1.263,10.735C104.568,114.883,103.305,117.971,101.573,121.036z"/>
		<path fill="#D8F0F9" d="M89.413,84.571c0,0,1.894,2.526,5.052,2.526s5.052-0.632,6.946,0c1.357,0.452,3.683,0.58,5.591,0.616
			c-7.96-2.796-17.155-6.498-19.483-8.826c-0.874-0.874-2.521-3.053-4.448-5.749c1.537,4.457,2.553,9.538,2.553,9.538L89.413,84.571
			z"/>
		<path fill="#D8F0F9" d="M4.16,133.197l2.884-0.456l9.114-1.439l8.209,6.315l3.789,0.631c0,0,3.79,0,5.684,0
			s10.104,0.631,10.104,0.631h7.578h3.157l13.893,0.632c0,0,0.631-1.895,3.158,0c2.526,1.895,6.315,6.946,6.315,6.946l5.052,3.789
			c0,0,1.708-0.312,3.585-0.855l0.835-1.671l-1.263-6.314l-3.789-3.789l-4.42-1.895c0,0,0.631-0.631,4.42-1.895
			s3.789-1.263,5.684-1.263s7.578-3.157,7.578-3.157l1.844-3.074c-0.861,0.667-1.708,0.933-2.476,0.548
			c-3.789-1.895-10.735-4.42-12.63-4.42s-9.473,0-9.473,0H67.31v1.895l7.578,4.42c0,0,1.895,2.526-3.157,1.895
			c-5.052-0.631-3.79-1.263-9.473-2.526c-5.684-1.263-17.051-1.895-17.051-1.895l-7.578,3.158c0,0-1.894,2.526-5.052,2.526
			c-3.157,0-7.578,0-7.578,0l-4.42-4.42c0,0-2.526,0-4.42,0s-6.946-0.632-6.946-0.632l-2.378-1.783l-6.5,5.935
			c-0.078,1.139-0.142,2.281-0.192,3.427h0.229L4.16,133.197z"/>
		<path fill="#75C0EA" d="M277.6,112.357c-1.263-1.894-2.525-1.263-2.525-1.263s0,0-2.526-3.789l-0.474-0.947l-2.685,5.368
			l8.21,6.946l-5.052,6.315l-3.158,2.526l-2.525,5.052l-0.457,1.829l0.457,2.592v5.052v4.42v7.578l2.525-12.63l6.315,8.841
			l1.895,1.895l3.459,0.433c0.323-3.891,0.49-7.826,0.49-11.8c0-9.911-1.026-19.583-2.975-28.916
			C278.097,112.399,277.757,112.592,277.6,112.357z"/>
		<path fill="#75C0EA" d="M256.655,185.717l-0.526,1.157l-1.895,3.157c0,0-3.157,1.264-3.157,3.789
			c0,2.526-2.526,10.104-2.526,10.104s0.632,1.263,0,3.157c-0.222,0.665-0.442,2.262-0.638,4.056
			c-0.051,0.466-0.099,0.946-0.146,1.426c-0.283,2.937-0.479,5.886-0.479,5.886l-1.264,6.946l3.789-8.841
			c0,0-2.525,3.789,1.264-4.421c3.789-8.209,8.841-18.944,8.841-18.944l0.631-7.578v-3.789v-3.789l-1.263,1.895L256.655,185.717z"/>
		<path fill="#75C0EA" d="M260.549,155.931v5.052c0,0,0.812,0.813,1.364,2.272l1.162-2.903l0.632-2.526c0-0.158,0-0.632,0-1.895
			c0-2.526,0-5.052,0-5.052l-0.304-1.519C262.612,152.628,260.549,155.931,260.549,155.931z"/>
		<path fill="#75C0EA" d="M260.549,178.033l1.263-3.789v-5.052C259.918,174.244,260.549,178.033,260.549,178.033z"/>
		<path fill="#75C0EA" d="M243.499,63.1L243.499,63.1l5.052,6.315l0.526,1.263l0.736,0.631l1.895,5.684l3.789,11.367v1.895
			l-4.42,3.157h-8.619c-0.594,0.792-1.864,2.097-4.012,2.526c-3.157,0.631-3.789,3.158-3.789,3.158l-2.597,2.968
			c0.436,0.11,0.702,0.19,0.702,0.19l8.21,6.946l3.157,5.683l-0.631,1.895l-2.526,5.052l-0.307,4.903
			c3.755-3.744,6.622-7.43,6.622-7.43h3.157c0,0,1.263,1.263,3.789,1.263c2.525,0,3.789,0.632,6.314,0
			c2.526-0.631,3.789,1.263,3.789-3.157c0-3.472-2.725-7.72-3.896-9.386c-0.32-0.455-0.524-0.718-0.524-0.718l-2.526-4.42
			c0,0,0-1.895,2.526-1.895s6.315,0,6.315,0s0.311-0.218,0.793-0.576l-3.319-2.582c0,0-1.896-8.841-1.896-12.63
			s-0.631-1.894-0.631-1.894l-1.895-5.052l-1.895-5.684l-1.895-1.895l-4.42-4.42c0,0-1.895-2.526-3.158-4.42
			c-1.263-1.895-1.895-4.42-1.895-4.42l-2.525-2.526l-1.655-1.655l-0.842,4.04L243.499,63.1z"/>
		<path fill="#75C0EA" d="M232.061,102.063l2.597-2.968c0,0,0.632-2.526,3.789-3.158c2.147-0.429,3.418-1.734,4.012-2.526
			c0.279-0.372,0.409-0.631,0.409-0.631l5.052-3.157l3.789-2.526V76.993l-2.631-6.315l-0.526-1.263l-5.052-6.315l0,0l-2.526-1.894
			l-2.526-2.526l-4.42-5.052c0,0-6.947-2.526-7.578-5.684c-0.164-0.818-0.539-2.06-1.006-3.451c-0.75-0.604-2.45-2.049-3.415-3.496
			c-1.263-1.895-0.631-3.158-2.525-4.42c-1.895-1.263-3.789-0.632-7.578-0.632s-3.789,5.052-3.789,5.052s2.525,1.895,4.421,1.895
			c1.894,0,6.946,1.263,6.946,1.263l4.42,6.315l3.789,1.263c0,0-3.789-1.263-8.209-1.263c-4.421,0-5.684-0.631-8.842-2.526
			c-3.157-1.895-5.052-5.052-6.314-8.841s-6.946-1.263-6.946-1.263l-0.632,2.526l-0.553,3.313c0.315,0.19,0.704,0.355,1.185,0.476
			c2.525,0.632,6.946,4.421,6.946,4.421s1.895,1.263,5.052,2.526c3.158,1.263,5.684,3.789,5.684,3.789s3.157,0.631,5.052,1.263
			s7.578,3.158,7.578,3.158l5.052,3.157l0.812,0.608l1.715,1.286l6.946,6.315l4.421,3.789c0,0,2.526,6.315-0.632,8.841
			c-3.157,2.526,1.264-0.632-3.157,2.526c-4.421,3.157-4.421,1.263-6.315,3.789s-5.684,5.684-7.578,6.315s-4.42,1.263-4.42,1.263
			v5.053C226.061,100.746,230.364,101.637,232.061,102.063z"/>
		<path fill="#75C0EA" d="M167.719,133.197h-1.895l-0.902,0.541l4.06,1.354C168.35,128.776,167.719,133.197,167.719,133.197z"/>
		<path fill="#75C0EA" d="M134.249,83.308h5.684c0,0,2.271,0,4.42,0c1.251,0,2.461,0,3.158,0c1.895,0,6.946,0,6.946,0l3.789,0.631
			l0.631,4.42l-4.42,5.684l-5.684,0.632l1.188,4.161l1.338,4.68l3.789-1.895l8.209,3.157c0,0-5.052,5.684-7.578,5.684
			c-2.525,0-3.789,1.263-8.841,1.894c-5.052,0.632-5.052,9.473-5.052,11.367s3.789,0.631,6.314,0.631
			c2.526,0,7.578-5.052,8.21-6.946c0.632-1.895,8.21-8.841,8.21-8.841l1.864,2.797c1.017-0.942,2.255-2.185,3.188-3.428
			c1.895-2.526,0-1.894,0-1.894s0-5.053,0-8.21s-3.158-5.684-3.158-3.789s-3.157,3.157-3.157,3.157l-3.157-1.263
			c0,0,1.263-1.895,2.525-3.789c0.912-1.368,2.526-15.085,2.526-15.788c0-2.526-10.735-3.789-10.735-3.789l-3.789,0.632
			l-4.421,1.894l-6.314,0.632l-3.158,0.631c0,0-2.536,2.959-4.496,5.765L134.249,83.308z"/>
		<path fill="#75C0EA" d="M82.466,184.349c-1.263-1.896-3.157-3.789-3.157-3.789s0,0,0-2.526s-3.158-1.895-3.158-1.895l-3.661,1.221
			c0.938,0.619,1.766,1.476,1.766,2.568c0,2.525,0,5.684,0,7.578s-1.263,2.525,1.895,2.525c2.159,0,6.384,0,8.841,0l-1.263-3.789
			C83.729,186.242,83.729,186.242,82.466,184.349z"/>
		<polygon fill="#75C0EA" points="166.003,72.68 165.192,70.046 158.877,68.784 158.745,68.797 165.824,72.572 		"/>
		<path fill="#75C0EA" d="M167.125,112.414l2.488,3.732c0,0-8.841,6.946-11.367,7.578c-2.526,0.631-3.789,1.895-3.789,1.895
			l-4.421,5.052l-4.42,3.158l-8.21,2.526l-4.42,5.052l-1.895,4.421l-1.263,8.84c0,0-0.631,4.421-1.895,7.578
			c-1.263,3.158-0.631,9.473-0.631,9.473l-0.499,1.098l-2.659,5.85c0,0-2.525,4.42-5.683,8.841c0,0-8.209,13.262-14.524,13.893
			c-6.315,0.632-5.052-1.263-8.209-3.789c-3.157-2.525-3.158-1.263-3.158-1.263l-2.068-1.316l-1.721,5.737l-1.895,1.263
			l-7.578-0.632c0,0-1.895-1.263-4.421,0c-2.526,1.264-4.42,0.632-5.052,2.526c-0.632,1.895-0.632,5.684-0.632,5.684
			s-0.631,4.421,0,6.314c0.632,1.895,3.789,4.421,3.789,4.421h1.895l8.841,5.684l2.526,2.526c0,0,0,6.946,1.263-1.896
			c1.263-8.841,1.263-10.735,1.263-10.735l4.42-4.42c0,0,2.526-2.526,2.526,4.42s0.631,5.684,0,11.367
			c-0.632,5.684-3.789,7.578-3.789,10.104c0,2.525,0,5.052,0,5.052s0.631,2.525,3.157,5.052s3.789,5.052,3.789,5.052l2.526,3.158
			c0,0,1.263,1.263,3.789-0.632s4.42-4.42,4.42-4.42s1.263-2.526,0-5.053c-1.263-2.525-2.526-3.789-4.42-5.684
			s-3.789-3.157-3.789-6.314c0-3.158,0-13.262,0-13.262l0.632-3.157l6.946-2.526c0,0,0.567-0.113,1.363-0.195
			c0.303-1.011,0.532-1.699,0.532-1.699h3.789c0,0,6.947,0,10.104,0c3.158,0,4.42,0,4.42,0l5.684,0.632l3.789-2.526h4.42
			c0,0,6.946,0,11.367-0.631l9.473-1.264c0,0,7.578-11.367,9.473-11.998c1.894-0.632,2.525-2.526,8.841-6.947h4.322
			c-1.918-1.692-3.887-3.157-4.954-3.157c-2.526,0-4.42,0.632-4.42,0.632l-1.896,1.263c0,0-5.683,5.052-8.209,6.315
			c-2.526,1.263-3.157,2.525-8.841,4.42s-3.789,1.895-6.315,1.895c-2.525,0-1.895,1.895-3.789,1.895s-3.157,1.263-6.314,1.263
			c-3.158,0-2.526,0-7.578,0c-5.052,0-5.052,0-5.052,0l-2.526-0.631l-2.526-3.157v-3.158l1.263-4.42l1.263-6.947v-5.052
			l3.789-15.156l0.71-2.131l1.184-3.552l5.684-6.947v-8.553v-0.92l2.736-3.157l1.684-1.895c0,0,8.21-5.683,10.104-6.315
			c1.185-0.395,3.11-0.543,4.387-0.598l3.191-3.191h3.157h6.315l5.052-1.895v-4.42l1.407-4.826
			c-0.381-0.917-0.662-1.664-0.776-2.121c-0.631-2.525-2.525-3.157-2.525-3.157l0.161-2.732c-0.755,0.477-1.647,0.95-2.688,1.469
			C168.998,111.717,167.961,112.132,167.125,112.414z"/>
		<path fill="#75C0EA" d="M114.672,234.236c0,3.158,0,6.315,0,6.315l1.263,9.473l6.315,6.946l5.683,5.052l4.421,1.895h4.102
			c0.511-2.19,0.95,0,0.95,0l3.789-5.683c0,0-1.263-3.789-3.789-4.421c-2.526-0.632-5.684-1.264-5.684-1.264
			s-5.052-3.789-5.684-5.683c-0.631-1.896,0-1.264,0-1.264l0.632-5.684l3.789-1.263l1.895-2.525l-2.526-4.421l-5.052-1.895
			l-4.42-1.895l-5.684,5.052C114.672,233.256,114.672,233.662,114.672,234.236z"/>
		<path fill="#75C0EA" d="M184.77,95.938c-1.264-5.684-1.264-3.789-1.264-3.789l-2.525-10.735c0,0-1.896-6.947-2.526-8.841
			c-0.632-1.895-5.684,4.42-5.684,4.42l-3.157,0.79v2.368v1.894c0,0,0.631,8.841,3.157,13.893c1.526,3.053,2.36,4.492,2.782,5.849
			l6.059,0.466l1.895,6.946l1.264,7.578l1.263,2.779v-5.937C186.032,113.62,186.032,101.622,184.77,95.938z"/>
		<path fill="#75C0EA" d="M62.89,181.822l-6.315,0.631c0,0-1.895,0-4.42,0.632c-2.526,0.632-4.42,4.421-4.42,4.421l-7.997,3.875
			c3.943,0.545,5.61,0.545,7.997,0.545c3.157,0,11.999-5.684,11.999-5.684l4.42-0.631l3.157-3.789l1.428-3.213l-0.165,0.056
			L62.89,181.822z"/>
		<path fill="#75C0EA" d="M132.354,94.043c-3.158-0.632-2.526-1.895-2.526-1.895l-6.314-3.158h-1.895l-8.21-1.263
			c0,0-2.526,0-4.42,0c-0.538,0-1.231,0-1.987-0.015c-1.908-0.036-4.234-0.165-5.591-0.616c-1.895-0.632-3.789,0-6.946,0
			s-5.052-2.526-5.052-2.526l-3.789-1.895c0,0-1.017-5.081-2.553-9.538c-0.561-1.627-1.191-3.172-1.867-4.354
			c-2.526-4.421-0.632-10.736-0.632-10.736s0-8.209,0-10.104s0.632-3.789,2.526-6.946c1.895-3.158,3.789-3.158,3.789-3.158
			s1.895-1.263,5.684-3.789s3.789-1.263,6.946-1.263c1.14,0,2.857-0.66,4.585-1.502c1.27-1.728,2.632-3.64,4.256-6.076
			c0.223-0.334,0.404-0.632,0.553-0.902l-1.933-4.938l-11.727-1.332c-1.04,2.01-2.342,4.307-3.313,5.278
			c-1.895,1.895-4.42,4.42-6.947,8.841c-2.526,4.421-2.526,3.158-3.789,5.684c-1.263,2.526-3.158,8.841-5.684,10.736
			c-2.526,1.894-1.263,6.314-1.263,10.104s0,5.052,0,6.947s1.263,6.946,1.263,6.946s1.895,3.789,5.052,5.684
			c3.157,1.895,7.578,7.578,9.473,9.473s4.42,1.895,4.42,1.895s3.789,0,6.315,0s5.052,0,8.209,0c3.158,0,1.895,3.157,1.895,3.157
			l3.158,0.631c0,0,0,0,1.895,0c1.894,0,8.841,0.632,12.63,0.632s4.42,1.895,4.42,1.895l4.873-1.299
			C136.467,94.581,134.292,94.431,132.354,94.043z"/>
		<path fill="#75C0EA" d="M142.458,93.412l-4.599,1.227c0.875,0.036,1.442,0.037,1.442,0.037L142.458,93.412z"/>
		<path fill="#75C0EA" d="M23.104,165.403h1.895h6.947l0.631,2.526v3.157l0.631,6.314l9.473,1.264l5.684-0.632h4.42l19.577-5.684
			c0,0,7.578,3.157,9.473,3.157s10.104,0,10.104,0l6.946-3.157l13.893-9.473l10.104-11.998c0,0,0-2.526,0-7.578
			c0-5.052,0-6.947,0-6.947l-1.895-8.841l-5.052-3.789c0,0,1.263-3.158,2.526-5.052s3.158-4.42,5.052-5.683
			c1.163-0.775,1.136-5.12,0.941-8.36c-0.122-2.038-0.311-3.639-0.311-3.639l0.632-1.894l1.895-0.631l3.157-0.632l3.158-1.895
			h-2.526c0,0,0,0-8.209,0s-5.684,1.263-5.684,1.263l3.158,3.158c0,0,3.157,5.052,3.789,6.947c0,0-1.895-1.895-4.421-1.895
			l-4.42-3.157l-3.158-0.632l-0.631,5.052l-3.158-1.263l-1.894-1.263l0.631,11.367l0.194,0.438c1.411-1.411,2.332-2.332,2.332-2.332
			l2.526-3.157l1.895,5.051l3.158,3.158c0,0,1.895-1.263,0.631,1.895c-0.943,2.358-3.647,4.012-4.956,4.698l1.799,2.249l1.394,7.897
			l0.501,2.838l-0.632,4.42c0,0-4.42,3.789-6.315,5.052c-1.895,1.264-7.578,7.578-7.578,7.578l-6.315,7.578l-2.526,8.21h-3.789
			l-8.841-1.895l-6.947-0.632h-4.419h-3.159l-3.157,3.157l-0.923,1.153l-1.603,2.005l-2.526,1.263c0,0-2.526,0-5.052,0
			c-2.526,0-4.42,0-4.42,0h-3.158h-6.315c0,0,5.684-1.895,6.946-3.789c1.263-1.895,0-1.263,0-1.263l-4.42-4.421l-1.263-1.895
			c0,0-2.526-1.895-4.42-2.526c-1.895-0.631-8.209-3.157-8.209-3.157l-7.578,2.526h-3.789l-6.039,3.907l4.144,1.776
			c0,0,3.158-1.264,4.42,0.632l2.526-2.526H23.104z"/>
		<path fill="#75C0EA" d="M51.419,48.899c-0.447,0.034-0.908,0.068-1.368,0.101l3.554,3.553
			C52.828,51.342,52.091,50.096,51.419,48.899z"/>
		<path fill="#75C0EA" d="M67.038,69.628c-1.031-1.568-4.884-7.264-9.201-11.581c-0.57-0.57-1.14-1.22-1.702-1.925l2.965,5.083
			l5.683,11.999l2.961,3.553c-0.15-1.089-0.293-2.271-0.436-3.553C67.055,70.91,67.006,69.953,67.038,69.628z"/>
		<path fill="#283A8B" d="M242.235,167.298l0.098-0.363l1.232-4.622l1.196-4.487c0,0,1.263-5.684,1.895-7.578
			c0.183-0.548,0.418-1.147,0.676-1.771c0.633-1.531,1.401-3.197,1.851-4.545c0.631-1.894,1.895-6.946,1.895-6.946l-1.895-0.632
			h-2.526l-5.224,1.206l-2.986,0.688l-6.946,1.895l-3.789-1.263l-10.104-1.263l6.946-1.895l9.473,1.895l3.789-3.158l2.525-2.526
			l0.325-5.201l0.307-4.903l2.526-5.052l0.631-1.895l-3.157-5.683l-8.21-6.946c0,0-0.267-0.08-0.702-0.19
			c-1.696-0.427-6-1.318-7.507,0.19c-1.895,1.894,1.263-0.632-4.421,3.789c-5.684,4.42-9.473,10.104-9.473,10.104
			s-0.631-0.632-0.631,1.263c0,1.894-1.263,4.42-2.526,6.946c-1.263,2.526-1.263,3.157-3.157,6.315s-5.684,6.947-5.684,6.947
			l1.263,4.421h7.578c0,0,6.315,0.631,9.473,1.263c3.157,0.631,9.473,0.631,9.473,0.631h6.314h4.421h3.789l-1.263,11.367
			l-2.287,4.573l-1.502,3.005l-0.504-1.763l-0.76-2.658h-5.684l-4.42,6.315l-5.052,1.263l-0.045,0.632l-0.046,0.632l-0.541,7.578
			l1.895,4.42c0,0-0.271,0.812,0.251,1.372c0.275,0.296,0.771,0.522,1.644,0.522c1.327,0,3.701-1.222,5.931-2.654
			c2.012-1.294,3.906-2.762,4.805-3.66C235.289,172.981,242.235,167.298,242.235,167.298z"/>
		<path fill="#283A8B" d="M206.308,157.19c-0.977-0.945-2.235-1.996-3.856-3.154c-1.617-1.155-3.256-2.586-4.854-4.151
			c1.657,2.11,8.011,7.309,8.011,7.309l1.895,2.526l1.501,0.899C208.538,159.697,207.717,158.555,206.308,157.19z"/>
		<path fill="#283A8B" d="M174.665,126.881l-5.052,1.895h-6.315h-3.157l-3.191,3.191l-0.598,0.598l-1.895,6.315l-1.263,1.895
			l11.728-7.037l0.902-0.541h1.895c0,0,0.631-4.421,1.263,1.895c0.632,6.315,1.263,8.209,1.263,8.209l1.264,3.157
			c0,0,1.263,2.526,2.525,5.052c1.263,2.526,2.526,4.421,2.526,4.421v1.895l3.789,3.157l0.632,3.789l-0.632,1.895l3.157,3.157
			l1.264,3.158c1.894,0.631,4.42,0.631,4.42,0.631s0,0,1.263,2.526c1.264,2.526-3.157,0.632,1.264,2.526
			c1.88,0.806,2.618,1.269,3.331,1.534c2.026-2.69,4.512-6.12,4.878-7.218c0.123-0.367,0.388-0.71,0.734-1.039l-1.997-0.855
			l-4.421-4.421l-2.525-3.158l-5.053-2.525l3.789,0.632c0,0,0,0,5.053,3.157c5.052,3.158,5.684,3.158,5.684,3.158l1.887,2.264
			c1.026-0.704,1.902-1.422,1.902-2.264c0-1.896-1.896-6.315-1.896-6.315s-5.683-5.052-8.841-8.21
			c-3.157-3.157-4.42-3.789-4.42-3.789s-1.263-3.157-3.158-6.314c-1.894-3.158-0.631-4.421-2.525-10.104
			c-1.895-5.684-2.526-3.789-2.526-3.789s-3.812-7.625-5.539-11.772l-1.407,4.826V126.881z"/>
		<path fill="#283A8B" d="M190.452,121.83c0,0,0.001-0.001,0.208-0.456C190.576,121.457,190.452,121.83,190.452,121.83z"/>
		<path fill="#283A8B" d="M195.505,123.092l1.263-3.157l0.594-2.97c0.127-0.165,0.472-0.7,1.301-2.083
			c0.195-0.326,0.398-0.645,0.604-0.956c1.785-2.696,3.815-4.728,3.815-4.728l2.526-1.895c0,0-0.631-1.263,1.263-1.895
			c0.112-0.038,0.223-0.088,0.334-0.15c1.777-0.987,3.455-4.902,3.455-4.902l3.158-3.158c2.525-1.263,1.895-0.631,5.684-3.157
			s6.314-4.42,6.314-4.42v-2.526l-3.789-4.421l-2.525-0.631l-2.526,3.157l-2.526,2.526h-2.525l-1.895-1.684l-3.717-3.304
			l-0.072-0.064l-2.526-2.525V75.73c0,0,1.264,0-0.632-1.263c-1.894-1.263-1.894-1.263-1.894-1.263l-1.896-2.526l-3.156-2.526
			c-2.526,0-2.526,0-2.526,0h-1.895l-1.555-2.526h-4.129l0.631,2.526l2.526,1.895l2.526,1.263l2.525,3.789
			c0,0,1.895,1.263,3.158,3.158c0.64,0.96,0.955,2.732,1.111,4.658c0.151,1.872,0.151,3.889,0.151,5.446c0,3.158,0,5.052,0,5.052
			s0.632,2.526,0,5.684s-2.526,4.42-3.157,8.841c-0.632,4.42,1.263,0-1.895,6.946c-1.885,4.146-2.644,5.816-2.95,6.491
			c0.104-0.106,0.144,0.242-0.208,2.351c-0.247,1.484-0.494,2.87-0.703,4.008l1.335,2.938l0.233,0.875
			c1.66-2.767,1.661-2.769,1.661-2.769L195.505,123.092z"/>
		<path fill="#283A8B" d="M222.027,250.656c0,0-4.42,0-6.314,0s-6.315,0-9.473,0c-3.158,0-11.367-2.526-11.367-2.526
			s-5.052-4.421-5.052-6.946c0-2.526,0-2.526,0-2.526l5.684-9.473l0.632-9.473l1.263-13.893l1.091-3.273l0.172-0.516l1.895-3.519
			l2.525-4.691l0.59-1.178l1.306-2.611c0,0,2.342-4.685,3.799-7.194c0.234-0.403,0.446-0.753,0.621-1.015
			c1.263-1.895,4.421-9.473,4.421-9.473v-5.209v-0.475v-3.158l-4.305-2.582l-0.51-0.307l-1.501-0.899l-1.895-2.526
			c0,0-6.354-5.198-8.011-7.309c-0.075-0.096-0.144-0.188-0.198-0.27c-1.263-1.895-3.789-9.472-3.789-9.472l-2.293-8.598
			l-0.233-0.875l-1.335-2.938l-3.086-6.787l-0.631-1.389l-1.263-2.779l-1.264-7.578l-1.895-6.946l-6.059-0.466
			c0.275,0.888,0.375,1.742,0.375,2.992c0,2.291-1.002,3.584-2.996,4.846l-0.161,2.732c0,0,1.895,0.632,2.525,3.157
			c0.114,0.458,0.396,1.205,0.776,2.121c1.728,4.147,5.539,11.772,5.539,11.772s0.632-1.895,2.526,3.789
			c1.895,5.683,0.632,6.946,2.525,10.104c1.896,3.157,3.158,6.314,3.158,6.314s1.263,0.632,4.42,3.789
			c3.158,3.158,8.841,8.21,8.841,8.21s1.896,4.42,1.896,6.315c0,0.842-0.876,1.56-1.902,2.264l1.271,1.524l1.263,1.264h-2.526
			l-2.423-1.039c-0.347,0.329-0.611,0.672-0.734,1.039c-0.366,1.098-2.852,4.527-4.878,7.218c-1.471,1.953-2.699,3.518-2.699,3.518
			l-5.685,6.314h-0.098h-4.322c-6.315,4.421-6.947,6.315-8.841,6.947c-1.895,0.631-9.473,11.998-9.473,11.998l-9.473,1.264
			c-4.421,0.631-11.367,0.631-11.367,0.631h-4.42l-3.789,2.526l-5.684-0.632c0,0-1.263,0-4.42,0c-3.157,0-10.104,0-10.104,0h-3.789
			c0,0-0.229,0.688-0.532,1.699c1.085-0.113,2.597-0.169,3.689,0.195c1.895,0.631,5.052,1.895,5.052,1.895l3.789,5.684l-2.526,5.684
			l4.42,1.895l5.052,1.895l2.526,4.421l-1.895,2.525l-3.789,1.263l-0.632,5.684c0,0-0.631-0.632,0,1.264
			c0.632,1.894,5.684,5.683,5.684,5.683s3.158,0.632,5.684,1.264c2.526,0.632,3.789,4.421,3.789,4.421l-3.789,5.683l3.158,1.895
			l0.741,2.688c0.388-0.105,0.756-0.161,1.153-0.161c1.895,0,0.001-1.263,4.421-1.263c4.421,0,5.684,0,8.841,0s1.895,3.157,5.053,0
			c3.157-3.158,2.525-4.421,5.683-6.315c3.158-1.895,2.526-3.789,5.053-5.052c2.525-1.263,11.366-5.052,11.366-5.052
			s3.158,0,3.158,2.525c0,2.526,0,2.526,0,2.526l0.631,2.526c0,0,1.896,1.894,3.789,2.525c1.896,0.632-4.42,0.632,1.896,0.632
			c6.314,0,6.314,0,8.841,0c2.525,0-1.264-1.264,5.683-1.264c4.661,0,7.329,0,8.582,0c4.032-2.527,7.926-5.255,11.669-8.167
			l-0.043-0.042L222.027,250.656z M180.349,226.658c-4.421-3.157-4.421-3.157-4.421-3.157l-6.946-3.157l-2.273,1.137l-5.305,2.652
			l-9.473,2.525l-8.209,1.264l-7.578-3.789l5.684,0.632h4.42l2.526-1.896l7.578-4.42l15.156-12.63l4.21-3.368l-1.053-1.053
			c0,0-1.263-4.42,0.631-4.42c0.443,0,1.06,0.138,1.743,0.35c1.109,0.344,2.396,0.881,3.413,1.335l3.686-2.948l3.157,0.632
			l1.895,3.789v3.789h-1.895l-1.895-0.632l-3.157-3.789c0,0-0.756-0.377-1.791-0.841l-4.734,3.788l2.736,2.736
			c0,0,5.684,1.264,7.578,1.264s3.789,3.789,3.789,3.789l-1.263,3.789c0,0-1.264-1.264-3.158-3.158s-5.684-1.895-5.684-1.895h-4.421
			l-8.209,4.421l-1.895,1.263l-7.578,6.946l4.421-0.631c0,0,14.524-8.21,15.787-10.104c1.264-1.895,2.526,1.895,2.526,1.895
			l1.895,7.578c0,0,5.684,5.684,6.946,8.21c1.263,2.525-0.631,1.894-0.631,1.894S184.77,229.816,180.349,226.658z"/>
		<path fill="#283A8B" d="M136.457,263.917h0.95C137.406,263.917,136.968,261.727,136.457,263.917z"/>
		<path fill="#283A8B" d="M64.152,252.55l3.157,0.632l5.684,3.789l6.315,6.315c5.683,1.263,13.261,1.263,15.156,1.263
			s5.052,0,5.052,0l6.315,5.684c0,0-5.684-2.526,0.631,1.263s4.42,3.789,10.735,3.789c6.315,0,3.789,0.632,8.841-1.263
			c5.052-1.895,1.895-0.632,7.578-2.526c4.494-1.498,6.224-2.601,7.688-2.996l-0.741-2.688l-3.158-1.895h-0.95h-4.102l-4.421-1.895
			l-5.683-5.052l-6.315-6.946l-1.263-9.473c0,0,0-3.157,0-6.315c0-0.574,0-0.98,0-1.263l5.684-5.052l2.526-5.684l-3.789-5.684
			c0,0-3.157-1.264-5.052-1.895c-1.093-0.364-2.604-0.309-3.689-0.195c-0.796,0.082-1.363,0.195-1.363,0.195l-6.946,2.526
			l-0.632,3.157c0,0,0,10.104,0,13.262c0,3.157,1.895,4.42,3.789,6.314s3.158,3.158,4.42,5.684c1.263,2.526,0,5.053,0,5.053
			s-1.895,2.525-4.42,4.42s-3.789,0.632-3.789,0.632l-2.526-3.158c0,0-1.263-2.525-3.789-5.052s-3.157-5.052-3.157-5.052
			s0-2.526,0-5.052c0-2.526,3.157-4.421,3.789-10.104c0.631-5.684,0-4.421,0-11.367s-2.526-4.42-2.526-4.42l-4.42,4.42
			c0,0,0,1.895-1.263,10.735c-1.263,8.842-1.263,1.896-1.263,1.896l-2.526-2.526l-8.841-5.684h-1.895c0,0-3.157-2.526-3.789-4.421
			c-0.631-1.894,0-6.314,0-6.314s0-3.789,0.632-5.684c0.631-1.895,2.526-1.263,5.052-2.526c2.526-1.263,4.421,0,4.421,0l7.578,0.632
			l1.895-1.263l1.721-5.737l0.173-0.578l-3.789-4.421c0,0-0.759,0-1.894,0c-2.457,0-6.682,0-8.841,0
			c-3.158,0-1.895-0.631-1.895-2.525s0-5.053,0-7.578c0-1.093-0.828-1.949-1.766-2.568c-1.231-0.813-2.654-1.221-2.654-1.221
			l-1.099,2.471l-1.428,3.213l-3.157,3.789l-4.42,0.631c0,0-8.841,5.684-11.999,5.684c-2.387,0-4.054,0-7.997-0.545
			c-1.273-0.177-2.783-0.409-4.633-0.718c-7.578-1.263-3.157-3.157-5.683-5.684c-2.526-2.525-1.895-2.526-1.895-2.526
			s-3.158-3.157-5.684-8.841s-2.526-3.789-3.789-5.683c-1.263-1.896-4.42-0.632-4.42-0.632l-4.144-1.776l-4.697-2.014H1.828
			c5.873,36.168,25.524,67.713,53.395,89.071l1.983-0.66L64.152,252.55z M49.628,224.133l-2.526-0.632l-3.157-5.684v-4.42
			l-2.526-3.789h-1.895h-3.789l-3.157-2.526l2.526-3.789h3.158h5.684l2.526-2.525l8.841-5.053l7.578-4.42l1.263-1.264l1.895-1.895
			l3.157-5.684h1.895l-1.263,3.158l-5.052,6.946c0,0-4.42,3.789-6.315,4.421c-1.894,0.632,0,3.789,0,3.789l2.526,1.263l4.42-1.263
			l3.158-0.632l2.518-3.146c0.005-0.007,0.008-0.011,0.008-0.011l-0.008,0.011c-0.157,0.196-2.58,3.229-4.412,5.673
			c-1.894,2.525-1.895,1.894-3.158,3.789c-1.263,1.894-1.895,3.789-1.895,9.472c0,5.684-3.789,4.421-3.789,4.421l-5.684,3.789
			H49.628z"/>
		<path fill="#283A8B" d="M169.613,82.045v-1.894v-2.368v-1.421l-0.632-1.895l-2.979-1.787l-0.179-0.107l-7.079-3.775l-2.394-1.276
			h-3.157l-6.315,2.526l-4.421,1.895l-3.157,0.631c0,0-0.529,0-1.395,0c-0.331,0-0.71,0-1.131,0v3.789l3.158-0.631l6.314-0.632
			l4.421-1.894l3.789-0.632c0,0,10.735,1.263,10.735,3.789c0,0.703-1.614,14.42-2.526,15.788c-1.263,1.895-2.525,3.789-2.525,3.789
			l3.157,1.263c0,0,3.157-1.263,3.157-3.157s3.158,0.632,3.158,3.789s0,8.21,0,8.21s1.895-0.632,0,1.894
			c-0.933,1.244-2.171,2.486-3.188,3.428c-1.05,0.972-1.864,1.624-1.864,1.624s0.856-0.003,2.563-0.575
			c0.836-0.281,1.873-0.696,3.119-1.32c1.04-0.52,1.933-0.993,2.688-1.469c1.994-1.261,2.996-2.555,2.996-4.846
			c0-1.25-0.1-2.104-0.375-2.992c-0.422-1.357-1.256-2.796-2.782-5.849C170.244,90.886,169.613,82.045,169.613,82.045z"/>
		<path fill="#283A8B" d="M106.978,19.369l1.379,0.157c0,2.304,2.099,1.983,0.553,4.781c-0.149,0.271-0.331,0.568-0.553,0.902
			c-1.624,2.436-2.986,4.349-4.256,6.076c-0.705,0.959-1.382,1.863-2.059,2.765c-1.895,2.526-5.684,7.578-5.684,7.578v3.789
			l1.263,2.526c0,0,3.157-2.526,4.42,4.42c1.263,6.947,1.263,10.735,1.263,10.735s0,3.158,0,5.052s1.895,5.684,1.895,5.684
			s-1.263,0,2.526,3.157c3.789,3.158,5.684,5.684,5.684,5.684s2.526,1.263,4.421,1.895s4.42,0.631,6.314,0.631
			s5.052,1.895,6.947-1.263c0.345-0.574,0.752-1.19,1.188-1.813c1.96-2.805,4.496-5.765,4.496-5.765v-3.789v-0.448v-1.446
			l1.263-3.157l2.526-2.526l2.526-5.684l6.315-5.684l3.157-2.526l2.526-3.789l7.577-0.632l1.264,4.421v3.157
			c0,0-1.264,4.42,0.632,1.895c1.894-2.526,1.263-4.421,4.42-10.104s6.314-8.841,6.314-8.841s1.896-10.736,3.158-1.895
			c1.263,8.841,0,13.262,0,13.262s0,4.42,0,6.946s-3.158,0.631,0.631,4.42c0.005,0.004,0.008,0.007,0.012,0.011
			c3.777,3.777,3.777,3.778,3.777,3.778l3.158,1.895h4.129h0.291c0,0,5.053-2.526,5.053-4.42c0-1.895,0-13.262,0-13.262l0.71-4.265
			l0.553-3.313l0.632-2.526c0,0,5.684-2.526,6.946,1.263s3.157,6.946,6.314,8.841c3.158,1.895,4.421,2.526,8.842,2.526
			c4.42,0,8.209,1.263,8.209,1.263l-3.789-1.263l-4.42-6.315c0,0-5.053-1.263-6.946-1.263c-1.896,0-4.421-1.895-4.421-1.895
			s0-5.052,3.789-5.052s5.684-0.631,7.578,0.632c1.895,1.263,1.263,2.526,2.525,4.42c0.965,1.447,2.665,2.892,3.415,3.496
			c0.232,0.186,0.374,0.293,0.374,0.293s1.895,0.631,3.157,2.526c1.264,1.895,4.421,4.42,4.421,4.42s-1.895,0,0.632,1.895
			c2.525,1.895,6.946,3.789,6.946,3.789l0.029-0.142l0.842-4.04l-0.239-0.239c0,0-6.315-2.526-8.21-5.684s1.263-1.895,1.263-1.895
			s0,0,1.264-2.526c1.263-2.526,0-1.263,0-1.263s-2.526-2.526-3.789-5.052c-1.264-2.526-3.158-1.895-3.158-1.895
			s-4.42-4.421-8.209-7.578s-1.895-0.632-3.789-1.895c-1.895-1.263-8.209-1.895-8.209-1.895l-3.789-1.895l-4.421-1.263h-4.42
			c0,0-1.896,0-5.053,0s-3.789,0-7.578-0.632s-5.052,0-10.735-2.526s-6.315-1.895-8.841-1.895c-2.526,0-10.735,2.526-14.524,2.526
			s-13.262,1.895-16.419,1.895c-3.157,0-5.052-1.895-5.052-1.895s-3.157,0-6.314,0c-3.158,0-8.21,0-11.999,0
			c-3.699,0-9.199-0.003-13.572-1.178c-0.236,0.481-0.507,1.021-0.797,1.583L106.978,19.369z"/>
		<path fill="#283A8B" d="M56.135,56.123c0.563,0.705,1.132,1.355,1.702,1.925c4.316,4.317,8.169,10.013,9.201,11.581
			c-0.032,0.325,0.017,1.281,0.271,3.576c0.143,1.283,0.286,2.464,0.436,3.553c0.514,3.739,1.113,6.347,2.091,7.813
			c1.263,1.895-0.632,1.263,3.789,3.789c4.42,2.526,4.42,3.789,6.315,4.42s3.789,0.631,3.789,0.631s6.315,1.895,8.209,2.526
			s2.526,0,6.946,3.158c0.207,0.147,0.407,0.291,0.605,0.433c4.044,2.896,6.341,4.619,6.341,4.619l1.894,1.263l3.158,1.263
			l0.631-5.052l3.158,0.632l4.42,3.157c2.526,0,4.421,1.895,4.421,1.895c-0.632-1.895-3.789-6.947-3.789-6.947l-3.158-3.158
			c0,0-2.526-1.263,5.684-1.263s8.209,0,8.209,0h2.526c0,0-0.631-1.895-4.42-1.895s-10.736-0.632-12.63-0.632
			c-1.895,0-1.895,0-1.895,0l-3.158-0.631c0,0,1.263-3.157-1.895-3.157c-3.157,0-5.684,0-8.209,0s-6.315,0-6.315,0
			s-2.526,0-4.42-1.895s-6.315-7.578-9.473-9.473c-3.157-1.895-5.052-5.684-5.052-5.684s-1.263-5.052-1.263-6.946s0-3.158,0-6.947
			s-1.263-8.209,1.263-10.104c2.526-1.895,4.42-8.21,5.684-10.736c1.263-2.526,1.263-1.263,3.789-5.684
			c2.526-4.42,5.052-6.946,6.947-8.841c0.971-0.971,2.273-3.269,3.313-5.278c0.291-0.562,0.561-1.102,0.797-1.583
			c-0.106-0.029-0.216-0.055-0.321-0.084c-4.42-1.263-5.052-0.632-5.052-0.632s0,0-6.946,0c-6.947,0-10.104,3.157-10.736,5.684
			c-0.631,2.526,0,4.42,0,6.315s-0.631,5.052-0.631,5.052h-2.526H67.31c0,0-3.157,0-5.684,0c-2.525,0-1.894,0.631-1.894,0.631
			l1.263,1.895l5.683,1.895l-4.42,6.315l-3.157,2.526l-3.789,2.526c0,0-1.796,0.163-3.892,0.323
			c0.672,1.197,1.409,2.443,2.187,3.654C54.414,53.812,55.266,55.033,56.135,56.123z"/>
		<path fill="#283A8B" d="M6.834,125.098l2.378,1.783c0,0,5.052,0.632,6.946,0.632s4.42,0,4.42,0l3.939-2.148l3.008-1.641
			l1.895-3.158l-3.789,3.789l-4.421,1.895h-2.526l0,0h-3.157h-1.895l-3.347-4.303l-1.074-1.381v-1.895v-2.526
			c0,0-0.632-1.263,0-3.157c0.631-1.895,1.263-6.946,1.263-6.946v-3.158l-1.895-0.158v3.316l-4.434,0.689
			c-1.15,4.63-2.072,9.351-2.75,14.15l2.764,2.211L6.834,125.098z"/>
		<path fill="#283A8B" d="M117.198,120.566c1.263-3.157-0.631-1.895-0.631-1.895l-3.158-3.158l-1.895-5.051l-2.526,3.157
			c0,0-0.92,0.92-2.332,2.332c-0.615,0.615-1.322,1.322-2.089,2.089c-1.061,1.061-2.122,2.122-2.996,2.996
			c-1.207,1.206-2.057,2.056-2.057,2.056l-1.944,3.241l-1.844,3.074c0,0-5.684,3.157-7.578,3.157s-1.895,0-5.684,1.263
			s-4.42,1.895-4.42,1.895l4.42,1.895l3.789,3.789l1.263,6.314l-0.835,1.671l-0.428,0.855h-3.157l-5.052-3.789
			c0,0-3.789-5.052-6.315-6.946c-2.526-1.895-3.158,0-3.158,0L54.68,138.88h-3.157h-7.578c0,0-8.21-0.631-10.104-0.631
			s-5.684,0-5.684,0l-3.789-0.631l-8.209-6.315l-9.114,1.439l-2.884,0.456l-3.789,1.263h10.735H13l6.315,1.895l1.263,1.895
			l3.789,4.42h13.261c0,0,0.005,0,1.16,0c0.207,0,0.447,0,0.734,0c1.895,0,2.526,0,4.421,0c1.894,0,2.526,0,2.526,0h2.526
			c0,0,8.841,1.263,10.736,1.263c1.894,0,1.894,0,1.894,0h5.052l4.42,0.632l4.421,3.789c0,0,5.052,5.052,7.578,5.684
			c2.526,0.632,3.789,2.526,3.789,2.526s1.263-1.264,3.158-1.896c1.895-0.631,2.526-2.525,2.526-2.525s0-1.895,0-6.946
			c0-1.36,0.138-2.489,0.338-3.416c0.545-2.517,1.556-3.531,1.556-3.531l1.445-0.289l1.713-0.342c0,0,3.789-3.158,5.683-6.315
			l8.209-5.684c0,0,0.284-0.122,0.728-0.354C113.551,124.578,116.255,122.925,117.198,120.566z"/>
		<path fill="#121212" d="M8.58,102.727v-3l3.789-4.42l3.789-1.895l2.526-1.894l2.526-4.42l4.421-3.789v-6.315c0,0,0-1.895,0-4.42
			S25,68.784,26.262,65.626c1.263-3.158,3.158-6.315,3.158-6.315l2.526-3.158l1.895-1.263l5.683-4.42c0,0,3.789-1.263,6.315-1.263
			c0.968,0,2.586-0.093,4.213-0.207c0.46-0.033,0.92-0.067,1.368-0.101c2.096-0.161,3.892-0.323,3.892-0.323l3.789-2.526
			l3.157-2.526l4.42-6.315l-5.683-1.895l-1.263-1.895c0,0-0.631-0.631,1.894-0.631c2.526,0,5.684,0,5.684,0h2.526h2.526
			c0,0,0.631-3.158,0.631-5.052s-0.631-3.789,0-6.315c0.632-2.526,3.789-5.684,10.736-5.684c6.946,0,6.946,0,6.946,0
			s0.632-0.631,5.052,0.632c0.105,0.03,0.214,0.056,0.321,0.084c4.373,1.175,9.873,1.178,13.572,1.178c3.789,0,8.841,0,11.999,0
			c3.157,0,6.314,0,6.314,0s1.895,1.895,5.052,1.895c3.158,0,12.63-1.895,16.419-1.895s11.998-2.526,14.524-2.526
			c2.525,0,3.157-0.631,8.841,1.895s6.946,1.894,10.735,2.526s4.421,0.632,7.578,0.632s5.053,0,5.053,0h4.42l4.421,1.263
			l3.789,1.895c0,0,6.314,0.631,8.209,1.895c1.895,1.263,0-1.263,3.789,1.895s8.209,7.578,8.209,7.578s1.895-0.632,3.158,1.895
			c1.263,2.526,3.789,5.052,3.789,5.052s1.263-1.263,0,1.263c-1.264,2.526-1.264,2.526-1.264,2.526s-3.157-1.263-1.263,1.895
			s8.21,5.684,8.21,5.684l0.239,0.239l1.655,1.655l2.525,2.526c0,0,0.632,2.526,1.895,4.42c1.264,1.895,3.158,4.42,3.158,4.42
			l4.42,4.42l1.895,1.895l1.895,5.684l1.895,5.052c0,0,0.631-1.895,0.631,1.894s1.896,12.63,1.896,12.63l3.319,2.582l2.363,1.839
			l1.896,2.525l0.789,1.579l0.474,0.947c2.526,3.789,2.526,3.789,2.526,3.789s1.263-0.631,2.525,1.263
			c0.157,0.235,0.497,0.042,0.975-0.498C265.238,47.982,208.611,0,140.774,0C74.766,0,19.37,45.432,4.146,106.731l4.434-0.689
			V102.727z"/>
		<path fill="#121212" d="M71.09,196.989l0.008-0.011C71.099,196.979,71.096,196.982,71.09,196.989z"/>
		<path fill="#121212" d="M61.626,215.923c0-5.683,0.632-7.578,1.895-9.472c1.263-1.896,1.264-1.264,3.158-3.789
			c1.832-2.443,4.255-5.477,4.412-5.673l-2.518,3.146l-3.158,0.632l-4.42,1.263l-2.526-1.263c0,0-1.894-3.157,0-3.789
			c1.895-0.632,6.315-4.421,6.315-4.421l5.052-6.946l1.263-3.158h-1.895l-3.157,5.684l-1.895,1.895l-1.263,1.264l-7.578,4.42
			l-8.841,5.053l-2.526,2.525h-5.684h-3.158l-2.526,3.789l3.157,2.526h3.789h1.895l2.526,3.789v4.42l3.157,5.684l2.526,0.632h2.526
			l5.684-3.789C57.837,220.344,61.626,221.606,61.626,215.923z"/>
		<path fill="#121212" d="M188.559,230.447c0,0,1.894,0.632,0.631-1.894c-1.263-2.526-6.946-8.21-6.946-8.21l-1.895-7.578
			c0,0-1.263-3.789-2.526-1.895c-1.263,1.895-15.787,10.104-15.787,10.104l-4.421,0.631l7.578-6.946l1.895-1.263l8.209-4.421h4.421
			c0,0,3.789,0,5.684,1.895s3.158,3.158,3.158,3.158l1.263-3.789c0,0-1.895-3.789-3.789-3.789s-7.578-1.264-7.578-1.264
			l-2.736-2.736l-4.21,3.368l-15.156,12.63l-7.578,4.42l-2.526,1.896h-4.42l-5.684-0.632l7.578,3.789l8.209-1.264l9.473-2.525
			l5.305-2.652l2.273-1.137l6.946,3.157c0,0,0,0,4.421,3.157C184.77,229.816,188.559,230.447,188.559,230.447z"/>
		<path fill="#121212" d="M177.039,197.328c-0.684-0.212-1.3-0.35-1.743-0.35c-1.894,0-0.631,4.42-0.631,4.42l1.053,1.053
			l4.734-3.788C179.436,198.209,178.148,197.672,177.039,197.328z"/>
		<path fill="#121212" d="M185.4,203.293l1.895,0.632h1.895v-3.789l-1.895-3.789l-3.157-0.632l-3.686,2.948
			c1.035,0.464,1.791,0.841,1.791,0.841L185.4,203.293z"/>
		<path fill="#121212" d="M201.188,167.93c0,0-0.632,0-5.684-3.158c-5.053-3.157-5.053-3.157-5.053-3.157l-3.789-0.632l5.053,2.525
			l2.525,3.158l4.421,4.421l1.997,0.855l2.423,1.039h2.526l-1.263-1.264l-1.271-1.524L201.188,167.93z"/>
		<path fill="#121212" d="M201.188,261.392c-2.526,0-2.526,0-8.841,0c-6.315,0,0,0-1.896-0.632
			c-1.894-0.632-3.789-2.525-3.789-2.525l-0.631-2.526c0,0,0,0,0-2.526c0-2.525-3.158-2.525-3.158-2.525s-8.841,3.789-11.366,5.052
			c-2.526,1.263-1.895,3.157-5.053,5.052c-3.157,1.895-2.525,3.157-5.683,6.315c-3.158,3.157-1.896,0-5.053,0s-4.42,0-8.841,0
			c-4.42,0-2.526,1.263-4.421,1.263c-0.396,0-0.765,0.056-1.153,0.161c-1.464,0.396-3.194,1.498-7.688,2.996
			c-5.684,1.895-2.526,0.632-7.578,2.526c-5.052,1.895-2.525,1.263-8.841,1.263c-6.315,0-4.42,0-10.735-3.789
			s-0.631-1.263-0.631-1.263l-6.315-5.684c0,0-3.157,0-5.052,0s-9.473,0-15.156-1.263l-6.315-6.315l-5.684-3.789l-3.157-0.632
			l-6.946-0.631l-1.983,0.66c23.711,18.171,53.37,28.97,85.551,28.97c27.434,0,53.033-7.849,74.679-21.421c-1.253,0-3.921,0-8.582,0
			C199.925,260.128,203.714,261.392,201.188,261.392z"/>
		<path fill="#283A8B" d="M275.705,150.247l-6.315-8.841l-2.525,12.63v-7.578v-4.42v-5.052l-0.457-2.592l-1.438-8.144l-0.632,1.263
			l-1.894,5.052v4.421v7.578l0.265,1.324l0.694,3.473l0.304,1.519c0,0,0,2.525,0,5.052c0,1.263,0,1.736,0,1.895l-0.632,2.526
			l-1.162,2.903l-0.102,0.253v5.685v5.052l-1.263,3.789v3.789v3.789l-0.631,7.578c0,0-5.052,10.735-8.841,18.944
			c-3.789,8.21-1.264,4.421-1.264,4.421l-3.789,8.841l-1.42,7.578l-0.475,2.526l0.094,0.748
			c20.67-22.385,34.164-51.493,36.835-83.674l-3.459-0.433L275.705,150.247z"/>
	</g>
</g>
</svg>
