<?xml version="1.0" encoding="utf-8"?>
<!-- Generator: Adobe Illustrator 12.0.0, SVG Export Plug-In . SVG Version: 6.00 Build 51448)  -->
<!DOCTYPE svg PUBLIC "-//W3C//DTD SVG 1.1//EN" "http://www.w3.org/Graphics/SVG/1.1/DTD/svg11.dtd" [
	<!ENTITY ns_svg "http://www.w3.org/2000/svg">
	<!ENTITY ns_xlink "http://www.w3.org/1999/xlink">
]>
<svg  version="1.1" xmlns="&ns_svg;" xmlns:xlink="&ns_xlink;" width="297.333" height="297.333" viewBox="0 0 297.333 297.333"
	 overflow="visible" enable-background="new 0 0 297.333 297.333" xml:space="preserve">
<g id="Layer_3">
</g>
<g id="Layer_2">
	<g>
		<path fill="#E0A164" d="M120.355,99.159c2.178,0,4.355,0,5.662,0.436s3.484,0.436,3.484,0.436s-5.227-0.871-7.404-2.178
			s-3.92,0-5.662,0s-2.613,0.871-2.613,0.871s-0.259,0.173-0.653,0.436h3.267C116.436,99.159,118.178,99.159,120.355,99.159z"/>
		<path fill="#E0A164" d="M114.468,84.787c-0.111,0-0.22,0-0.331,0c0.1,0.09,0.2,0.179,0.308,0.271
			C114.453,84.967,114.459,84.879,114.468,84.787z"/>
		<path fill="#E0A164" d="M216.612,179.299c0,0-0.381,0.688-0.822,1.642l-0.049,0.536l-0.307,0.262c-0.512,1.212-1,2.629-1,3.658
			c0,2.178-0.436,3.92-0.436,3.92l-2.178,5.444v1.524l-1.018,1.018l-0.289,0.725l-4.355,5.662c0,0-6.098,3.484-6.969,5.662
			c-0.61,1.524-0.366,5.387-0.165,7.573c0.053-1.45,0.165-2.347,0.165-2.347s3.92-5.227,6.969-8.275s3.049-3.484,6.533-8.275
			s4.355-6.533,4.355-6.533l2.178-2.613l7.84-8.275l-0.436-1.307c0,0-4.791-4.791-6.098-5.662l3.92,4.355L216.612,179.299z"/>
		<path fill="#E0A164" d="M199.19,107.435c0.105,0.018,0.229,0.065,0.351,0.106c-0.155-0.099-0.288-0.182-0.387-0.244
			C199.176,107.384,199.19,107.435,199.19,107.435z"/>
		<path fill="#E0A164" d="M199.154,107.297c-0.18-0.672-1.083-3.842-3.013-7.703c-2.178-4.355-2.178-1.742-4.791-4.791
			c-1.337-1.558-2.101-2.544-2.531-3.14c-0.543-0.364-1.148-0.808-1.824-1.36c-3.193-2.613,0,0-3.193-1.452
			c-3.195-1.452-1.742-1.161-3.775-2.032s-2.322-1.742-4.936-2.613s-1.742-0.871-3.195-1.161c-1.451-0.29-2.031-0.291-6.678-1.452
			s-6.098-1.742-9.582-1.742c-1.572,0-2.254,0-2.613,0v1.428c1.692,0.516,4.607,1.33,6.098,1.33c2.178,0,3.484,0.871,3.484,0.871
			l-2.613,1.307c0,0-2.613,0.871-6.533,2.613c-3.92,1.742-5.663,2.178-9.583,2.178c-2.216,0-3.736,0-5.662,0
			c0,0-0.871,2.613-1.307,4.355s-1.307,5.227-1.307,5.227l-1.702,2.127l1.702,0.486l2.178,0.436c0,0,3.484,4.355,4.791,5.227
			c0.611,0.408,1.41,1.574,2.089,2.703c2.212,0.061,4.569,0.167,6.187,0.346c3.92,0.436,6.969,1.742,8.275,1.742
			s5.662,3.049,6.969,4.791s6.969,9.146,6.969,9.146s2.613,1.307,4.791,3.049s5.662,3.92,9.146,4.791s3.484,6.533,3.484,6.533
			l-2.613-0.436c0,0-2.613-0.871-3.92-1.742s-3.484-1.307-6.098-3.049s-3.92-3.92-4.791-5.227s-4.355-1.742-7.84-3.049
			s-1.742,0-6.969-1.307c-4.885-1.221-9.007-1.302-11.66-3.084c-0.598,0.954-1.519,1.932-2.714,2.649
			c-2.178,1.307-1.742,1.307-1.742,1.307s-3.484,0-5.662,0s-5.662,3.484-5.662,3.484l2.613,2.178l0.75,5.254
			c2.163,0.096,4.041,0.408,4.041,0.408s0.007,0.02,0.018,0.048c0.941,0.164,1.724,0.387,1.724,0.387l-1.186,1.187
			c0.51,1.556,1.186,3.826,1.186,4.911c0,1.742,0,3.049,0,3.049s-0.871,4.791-2.613,9.146s-3.049,0-3.049,0l-3.386-1.504
			l-0.534,1.068c0,0,0,0-1.307-1.307s-3.049-3.484-3.049-3.484l-1.307,4.791c0,0,0,1.307,0,2.613s-1.742,2.178-1.742,2.178
			l-2.613,0.436l-2.178-2.613l-2.613,0.871l3.484,1.742l6.098,0.871c0,0,0,1.742-0.436,4.791s0,0,0,1.307s-3.484,3.484-3.484,3.484
			l-2.613-3.049l-1.665-1.497l-0.078,0.626h-3.049h-3.92l-4.499,0.644l-3.777,5.454l-1.742,5.227v5.662l-1.307,1.742h-1.742
			l-2.178,2.178v1.307l6.969,9.146c0,0,4.791,7.404,6.533,9.582s5.227,6.533,6.098,7.84s3.92,7.84,3.92,7.84
			s1.742,6.969,3.049,10.018s3.92,6.969,6.098,9.582s2.613,2.178,2.613,2.178h2.613c0,0,5.227,0,6.533,0s3.484,0,3.484,0
			l1.307,0.436c0,0,2.613,2.178,5.662,4.791h3.485v2.178c3.049,0,1.742-1.307,1.742-1.307s3.484-1.307,5.662-1.742
			s5.227-3.049,5.227-3.049s5.662-3.049,7.84-3.92s5.227-1.742,5.227-1.742s2.178-2.613,5.662-6.969s0.871-3.92,0.871-3.92
			s-2.613,2.613-3.92,3.484s-2.613,2.178-4.791,3.92s-6.969,2.613-8.711,3.484s-6.969,0-6.969,0l-2.613-1.307l0.871-1.742l3.92-7.84
			l2.613-9.146l0.871-4.355l3.049-2.613l2.613-3.92v-3.484c0,0,0-8.275,0-10.018s0-6.098,0-9.146s-0.436-6.098-0.436-7.84
			s2.613-8.711,2.613-8.711v-1.887l-1.307-2.469l1.307-0.58v-8.566l0.871-4.355c0,0,3.049-2.613,3.92-3.92
			c0.871-1.306,3.049,0,4.791,0s3.049,1.742,3.049,1.742l-0.436,3.92l-2.613,3.92c0,0,0.871,3.049,3.92,6.098
			s4.791,6.533,5.662,8.711s3.049,3.484,4.355,6.098s3.92,5.662,3.92,5.662l2.787,6.77c-0.025-0.527-0.077-1.057-0.174-1.543
			c-0.436-2.178,0-3.484,0-3.484l-3.049-5.227l-1.307-2.613l-3.92-2.178v-7.404l2.613-4.791l3.484-0.436l14.373,5.662
			c0,0,0,0-2.178-1.307s-6.098-3.92-7.404-4.791s-2.178-0.436-2.178-0.436l-3.484-5.227l1.742-2.613l1.742-0.436v-2.613v-2.178
			c0,0-1.307-3.048-2.613-4.355s-2.613-3.484-2.613-3.484s-1.307-2.613-3.049-3.92s-2.613-2.613-5.662-5.227
			s-3.049-4.791-4.791-7.404s-5.227-5.662-8.711-10.018s-4.791-4.791-6.533-6.533s-2.613-3.049-3.92-4.791s-5.662-3.049-7.84-3.92
			s-6.098-2.613-7.404-5.662s0-3.049,0-3.049s3.484-2.613,5.227-3.484s3.049-1.307,3.049-1.307s4.791,0,7.404,0.436
			s2.178,0.871,2.178,0.871s8.711,5.662,11.324,7.404s9.582,5.662,9.582,5.662s6.098,4.355,8.711,4.791
			C199.19,107.435,198.353,106.807,199.154,107.297z M144.746,132.261h1.742h3.92l3.92,0.871l7.84,1.742v3.049c0,0,0,0-2.613,2.613
			s-3.049,2.613-3.049,2.613l-0.436,1.742l-0.436,4.791l-3.049-3.048l-2.178-3.049l3.049-3.484l-2.178-3.484l-2.178-1.307h-3.484
			l-1.742-0.436L144.746,132.261z M148.666,172.331l1.743-4.791l4.355,3.92c0,0,0.871,2.613,0.871,4.355s0,3.049,0,4.355
			s-0.436,4.791-0.436,4.791l-6.098,0.436c0,0,0-3.92,0-6.969S148.666,172.331,148.666,172.331z M163.911,198.028
			c0,0-2.178,8.711-3.484,10.889s-0.871,3.049-1.307,6.533s-1.742,1.742-4.355,6.098s-1.742,2.178-5.663,6.533
			c-3.92,4.355-3.049,1.742-3.049,1.742s-3.484,0-9.146-0.436s-0.871-2.178-0.871-2.178l-1.307-2.178l-3.92-1.307l-6.098-6.098
			l-4.355-8.275l2.178-7.404l6.969,2.178l3.484,6.098l3.484-3.484c0,0,0,0,0.436-1.307s1.742-3.049,3.484-3.92
			s3.484-3.049,4.355-4.355s1.742-0.436,1.742-0.436l1.307,2.178l8.711,5.662c0,0,0-2.178,0-3.92s0-8.711,0-8.711l5.662-3.92
			c0,0,1.742,3.92,1.742,5.227S163.911,198.028,163.911,198.028z"/>
		<path fill="#E0A164" d="M260.167,238.534c0-1.719-1.354-2.35-1.926-2.54c-0.084-0.023-0.163-0.048-0.252-0.073l-3.049-1.307
			c0,0-6.533,1.307-8.711,2.613c0,0.859,0,1.518-0.004,2.042c0.429,0.469,0.875,1.046,0.875,1.878c0,2.178,2.613,5.662,3.92,7.404
			c1.014,1.353,2.286,3.493,2.603,5.401c3.308-3.299,6.459-6.752,9.446-10.348c-0.699-0.326-1.506-0.702-2.467-1.151
			C260.602,242.454,260.167,240.711,260.167,238.534z"/>
		<path fill="#E0A164" d="M197.012,206.303c-2.613,2.613-4.355,5.662-5.227,8.275c3.049-3.049,2.178-2.178,3.92-4.355
			s1.742-1.742,2.613-3.049s0.871-1.307,0.871-1.307l2.613-3.049l2.613-3.484v-2.613c0,0,0.14-0.979,0.182-2.226
			c-0.374,1.162-1.16,3.447-2.359,6.146C200.497,204.561,199.625,203.69,197.012,206.303z"/>
		<path fill="#E0A164" d="M244.051,133.567c0-2.178,1.307,0,1.307,0s1.742,0,4.791,0s2.178,0,3.484,0s3.92,0,7.84-0.436
			s-1.307-4.355-1.307-4.355l-2.613-0.436l-5.662-2.178c0,0,0,0-2.613-0.871s-2.613-0.436-6.533-0.871s-4.791-1.307-4.791-1.307
			s-3.484-1.742-8.275-3.92s-2.613-2.178-2.613-2.178s-2.613-3.049-5.662-4.791s-2.178,0-2.178,0s1.742,1.307,2.613,3.92
			s0,1.742,0,1.742l-5.951,1.859c3.126,1.946,5.41,3.45,6.822,3.803c1.742,0.436,11.76,5.662,11.76,5.662l6.969,4.355
			c0,0,0.607,0.81,1.382,1.842C243.499,134.783,244.051,134.145,244.051,133.567z"/>
		<path fill="#E0A164" d="M249.713,256.391c-2.613,0.436-5.227,0-7.84-0.871s-2.178-0.436-6.098-2.178
			c-1.792-0.796-3.583-0.769-5.334-0.342c-1.664,1.179-2.545,1.848-4.321,1.686c-0.566,0.279-1.123,0.562-1.669,0.834
			c-3.484,1.742,0,2.613,0,4.791s-3.484,2.178-5.227,1.307s-3.92-0.436-6.098-2.613s-4.355-3.484-6.533-6.969
			s-1.742-3.484-2.178-5.227s-1.742-4.355-2.613-9.582c-0.495-2.964-1.125-5.923-1.66-8.728c0.125,4.078,0.354,11.749,0.354,13.954
			c0,3.049,1.742,7.84,1.742,7.84v5.227l2.279,7.979c0.607,0.837,1.242,1.605,1.845,2.278c1.465,0.411,5.102,2.087,7.636,3.1
			c2.904,1.162,5.227,4.646,6.678,5.227c1.451,0.582,2.324,0.291,2.324,0.291l4.064-1.451c0,0,2.079-0.916,4.727-2.067l-0.807-4.032
			l-0.436-4.355l5.662-7.404l11.821,4.154c1.055-0.949,2.101-1.907,3.127-2.885C250.748,256.308,250.271,256.299,249.713,256.391z"
			/>
		<path fill="#E0A164" d="M287.066,126.025l-0.111,1.559c0.521-0.001,1.087-0.115,1.087-0.115s1.742,6.098,1.742,7.404
			s-1.307,2.613-1.307,2.613s0,0-1.742-0.436s-3.049,0-5.227,0s-1.742,0-3.92,0s-2.613,0-4.791,0s-5.227,1.307-6.533,1.742
			s-7.404,0-10.889,0s-1.742,0-3.049,0c-1.155,0-1.979,0-6.969,0c1.307,1.742,2.613,5.227,3.92,7.404s3.484,0.871,3.484,0.871
			s6.533,1.742,9.146,2.178c2.613,0.435,7.404,0.435,9.146,0.435s10.018,3.484,11.76,6.098l-3.484,3.049l-1.307,1.742l1.742,1.742
			l1.307,0.871l6.098,3.049c0,0,2.613-4.791,3.92-6.533c1.066-1.422,4.163-5.745,6.213-8.707c0.013-0.774,0.029-1.548,0.029-2.326
			c0-9.277-0.857-18.352-2.482-27.158c-1.531,0.65-4.085,1.875-6.809,3.783C287.647,125.567,287.327,125.81,287.066,126.025z"/>
		<path fill="#EA9228" d="M135.6,146.634l-1.307,2.613l-1.742,2.613l-1.644,3.287l3.386,1.504c0,0,1.307,4.355,3.049,0
			s2.613-9.146,2.613-9.146s0-1.307,0-3.049c0-1.085-0.676-3.355-1.186-4.911l-0.121,0.12L135.6,146.634z"/>
		<path fill="#EA9228" d="M135.6,137.923c0.645-0.215,1.713-0.111,2.631,0.048c-0.011-0.029-0.018-0.048-0.018-0.048
			s-1.877-0.312-4.041-0.408l0.121,0.843C134.293,138.358,134.293,138.358,135.6,137.923z"/>
		<path fill="#EA9228" d="M147.359,116.146c0,0,0,3.049,0,4.355c0,0.589-0.278,1.358-0.771,2.142
			c2.652,1.782,6.775,1.864,11.66,3.084c5.227,1.307,3.484,0,6.969,1.307s6.969,1.742,7.84,3.049s2.178,3.484,4.791,5.227
			s4.791,2.178,6.098,3.049s3.92,1.742,3.92,1.742l2.613,0.436c0,0,0-5.662-3.484-6.533s-6.969-3.049-9.146-4.791
			s-4.791-3.049-4.791-3.049s-5.662-7.404-6.969-9.146s-5.662-4.791-6.969-4.791s-4.355-1.307-8.275-1.742
			c-1.618-0.18-3.974-0.285-6.187-0.346c0.775,1.287,1.395,2.524,1.395,2.524L147.359,116.146z"/>
		<path fill="#EA9228" d="M117.307,164.491l-0.358,2.858l1.665,1.497l2.613,3.049c0,0,3.484-2.178,3.484-3.484s-0.436,1.742,0-1.307
			s0.436-4.791,0.436-4.791l-6.098-0.871l-3.484-1.742l0.436,4.355L117.307,164.491z"/>
		<path fill="#D36628" d="M215.79,180.941c-0.117,0.25-0.236,0.518-0.355,0.798l0.307-0.262L215.79,180.941z"/>
		<polygon fill="#D36628" points="211.821,194.761 210.803,197.303 211.821,196.286 		"/>
		<path fill="#D0764B" d="M104.235,105.326c0.118,0.016,0.22,0.029,0.306,0.039c0.18-0.112,0.366-0.214,0.555-0.304L104.235,105.326
			z"/>
		<path fill="#D0764B" d="M120.355,87.835c3.484,0.436,2.613,0,2.613,0h1.742h3.484h4.355c0,0,2.613,0,5.662,0s0,1.742,0,1.742
			c1.926,0,3.446,0,5.662,0c3.92,0,5.662-0.436,9.583-2.178c3.92-1.742,6.533-2.613,6.533-2.613l2.613-1.307
			c0,0-1.307-0.871-3.484-0.871c-1.49,0-4.405-0.814-6.098-1.33v0.604h-3.485c0,0-5.517,0.581-10.743,0.871
			s-4.355,1.162-8.421,2.033c-4.064,0.871-5.517,0-8.42,0c-2.408,0-5.009,0-7.485,0c-0.008,0.092-0.015,0.18-0.023,0.271
			C115.865,86.262,118.009,87.542,120.355,87.835z"/>
		<path fill="#D0764B" d="M287.461,120.502l-0.396,5.523c0.261-0.215,0.581-0.458,0.976-0.733c2.724-1.907,5.277-3.132,6.809-3.783
			c-0.259-1.403-0.541-2.797-0.839-4.187c-1.041,0.46-2.016,0.87-2.776,1.146C288.042,119.63,287.461,120.502,287.461,120.502z"/>
		<path fill="#D0764B" d="M199.19,107.435c0,0-0.014-0.05-0.036-0.137C198.353,106.807,199.19,107.435,199.19,107.435z"/>
		<path fill="#D0764B" d="M132.551,101.337l-3.049-1.307c0,0-2.178,0-3.484-0.436s-3.484-0.436-5.662-0.436s-3.92,0-3.92,0h-3.267
			c-0.861,0.574-2.371,1.581-3.267,2.178c-1.307,0.871-2.613,3.049-2.613,3.049l4.355,0.436h3.92h3.049l1.307-0.436l4.355-1.307
			l2.613,0.436c0,0,3.484,3.049,5.662,3.92s3.92,1.742,3.92,1.742l-1.742,3.484c0,0-2.613,2.178-4.791,3.049
			s-5.227,0.871-8.275,0.871s-3.484,3.049-3.484,3.049s-3.484,2.613-4.791,4.355s-2.178,1.742-3.92,2.613
			c-0.821,0.411-1.747,0.926-2.762,1.53l-4.207,6.31l-0.837,1.046c0.168,1.191,0.401,2.468,0.401,3.745
			c0,3.484,0.871,5.662,0.871,5.662s1.742,3.92,1.742,6.533c0,2.613-1.307,0-1.307,0s-3.049,0-6.533,0s-3.92,0-6.533,0
			c-1.228,0-3.512,0.289-5.816,0.596l-0.801,1.201c1.396,0.239,2.702,0.296,4.004,0.816c2.178,0.871,0,0,3.484,0.436
			s4.791,2.178,4.791,2.178h-1.742l0.436,4.355h2.178c0,0,4.355,0,5.662,0s3.484,0.436,3.484,0.436l2.178,3.484l-2.613,3.484
			l-0.143,0.208l4.499-0.644h3.92h3.049l0.078-0.626l0.358-2.858L116,164.055l-0.436-4.355l2.613-0.871l2.178,2.613l2.613-0.436
			c0,0,1.742-0.871,1.742-2.178s0-2.613,0-2.613l1.307-4.791c0,0,1.742,2.178,3.049,3.484s1.307,1.307,1.307,1.307l0.534-1.068
			l1.644-3.287l1.742-2.613l1.307-2.613l3.049-6.969l0.121-0.12l1.186-1.187c0,0-0.783-0.224-1.724-0.387
			c-0.918-0.16-1.986-0.264-2.631-0.048c-1.307,0.436-1.307,0.436-1.307,0.436l-0.121-0.843l-0.75-5.254l-2.613-2.178
			c0,0,3.484-3.484,5.662-3.484s5.662,0,5.662,0s-0.436,0,1.742-1.307c1.195-0.717,2.116-1.695,2.714-2.649
			c0.492-0.784,0.771-1.553,0.771-2.142c0-1.307,0-4.355,0-4.355l-1.307-3.484c0,0-0.62-1.237-1.395-2.524
			c-0.68-1.129-1.479-2.295-2.089-2.703c-1.307-0.871-4.791-5.227-4.791-5.227l-2.178-0.436l-1.702-0.486l-0.041,0.05H132.551z
			 M115.564,140.972l-2.613,5.227l-4.355-4.355l1.307-2.613h5.662V140.972z"/>
		<path fill="#D0764B" d="M198.754,165.797l-2.613,4.791v7.404l3.92,2.178l1.307,2.613l3.049,5.227c0,0-0.436,1.307,0,3.484
			c0.097,0.486,0.148,1.016,0.174,1.543l0.262,0.635c0,0-0.085,0.298-0.254,0.823c-0.042,1.246-0.182,2.226-0.182,2.226v2.613
			l-2.613,3.484l-2.613,3.049c0,0,0,0-0.871,1.307s-0.871,0.871-2.613,3.049s-0.871,1.307-3.92,4.355
			c-0.871,2.613-1.742,3.92-3.484,9.582s-3.049,6.969-3.049,6.969s2.613-0.436-0.871,3.92s-5.662,6.969-5.662,6.969
			s-3.049,0.871-5.227,1.742s-7.84,3.92-7.84,3.92s-3.049,2.613-5.227,3.049s-5.662,1.742-5.662,1.742s1.307,1.307-1.742,1.307
			v1.307c0,0-0.197,3.932-0.458,7.042c2.872-0.553,5.685-0.944,5.685-0.944l3.484-4.791c0,0,3.049-2.178,5.227-3.049
			c0.165-0.064,0.321-0.124,0.479-0.186c1.096-0.452,3.811-1.77,5.183-4.17c1.742-3.049,4.355-2.178,4.355-2.178
			s3.484-2.613,5.662-4.355s2.613-3.049,2.613-4.355s3.049-3.049,3.92-4.355s1.742-1.307,1.742-1.307l2.613-7.404
			c0,0,0.871,3.484,2.613,6.969s1.742,7.84,1.742,10.018s0,4.355,0,4.355s2.178,8.711,2.178,10.453s2.178,3.484,4.355,6.533
			c0.034,0.048,0.068,0.092,0.102,0.14l-2.279-7.979v-5.227c0,0-1.742-4.791-1.742-7.84c0-2.205-0.229-9.876-0.354-13.954
			c-0.41-2.141-0.766-4.196-0.953-6.081c-0.215-2.148-0.218-4.083-0.165-5.493c-0.201-2.187-0.445-6.049,0.165-7.573
			c0.871-2.178,6.969-5.662,6.969-5.662l4.355-5.662l0.289-0.725l1.018-2.542l2.178-5.444c0,0,0.436-1.742,0.436-3.92
			c0-1.029,0.488-2.446,1-3.658c0.119-0.28,0.238-0.548,0.355-0.798c0.441-0.954,0.822-1.642,0.822-1.642l7.84-1.307l-3.92-4.355
			l-3.92-2.613l-14.373-5.662L198.754,165.797z"/>
		<path fill="#D0764B" d="M281.653,83.916l-2.322-1.162c0,0-1.451-1.161-2.322-2.322s-3.484-2.033-3.484-2.033l-5.518,6.679
			c0,0,3.193,4.355,4.355,5.517s6.678,3.194,6.678,3.194h7.831c-1.233-3.106-2.57-6.16-4.005-9.159
			C282.013,84.803,281.653,83.916,281.653,83.916z"/>
		<path fill="#D0764B" d="M213.418,96.691l-2.324-0.29c0,0-1.451-0.871-2.322-1.452s-2.322-1.161-2.322-1.161l-0.871-0.871
			l-2.613-3.484c0,0-2.904-1.452-4.646-1.742s0,0-1.451,0c-1.453,0-3.484,0-3.484,0l-0.871,1.452v0.871v0.871l-0.582,2.322
			c0,0-1.087-0.186-3.111-1.543c0.431,0.595,1.194,1.582,2.531,3.14c2.613,3.049,2.613,0.436,4.791,4.791
			c1.93,3.86,2.833,7.031,3.013,7.703c0.099,0.062,0.231,0.145,0.387,0.244c2.865,0.97,9.842,8.273,14.022,10.782
			c0.827,0.496,1.591,0.969,2.324,1.424l5.951-1.859c0,0,0.871,0.871,0-1.742s-2.613-3.92-2.613-3.92s-0.871-1.742,2.178,0
			s5.662,4.791,5.662,4.791s-2.178,0,2.613,2.178s8.275,3.92,8.275,3.92s0.871,0.871,4.791,1.307s3.92,0,6.533,0.871
			s2.613,0.871,2.613,0.871l5.662,2.178l2.613,0.436c0,0,5.227,3.92,1.307,4.355s-6.533,0.436-7.84,0.436s-0.436,0-3.484,0
			s-4.791,0-4.791,0s-1.307-2.178-1.307,0c0,0.578-0.553,1.216-1.231,1.842c0.833,1.112,1.861,2.481,2.538,3.385
			c4.99,0,5.813,0,6.969,0c1.307,0-0.436,0,3.049,0s9.582,0.436,10.889,0s4.355-1.742,6.533-1.742s2.613,0,4.791,0s1.742,0,3.92,0
			s3.484-0.436,5.227,0s1.742,0.436,1.742,0.436s1.307-1.307,1.307-2.613s-1.742-7.404-1.742-7.404s-0.566,0.113-1.087,0.115
			l-0.075,1.047l-4.936-2.323l-4.355-0.871l-10.246-2.927c-0.901-0.061-1.788-0.267-4.127-0.267c-4.791,0-4.355-0.436-4.791-1.742
			s-3.049-2.613-6.969-5.227s-6.969-4.355-14.373-8.711s-5.227-2.613-8.275-5.227s-3.484-0.871-8.275-4.355
			s-1.307-1.307-5.227-5.227l-0.145,1.162L213.418,96.691z"/>
		<path fill="#AC8C3B" d="M107.289,104.386c0,0,1.307-2.178,2.613-3.049c0.896-0.597,2.406-1.604,3.267-2.178
			c0.395-0.263,0.653-0.436,0.653-0.436s0.871-0.871,2.613-0.871s3.484-1.307,5.662,0s7.404,2.178,7.404,2.178l3.049,1.307h1.307
			l0.041-0.05l1.702-2.127c0,0,0.871-3.484,1.307-5.227s1.307-4.355,1.307-4.355s3.049-1.742,0-1.742s-5.662,0-5.662,0h-4.355
			h-3.484h-1.742c0,0,0.871,0.436-2.613,0c-2.346-0.293-4.491-1.573-5.911-2.777c-0.107-0.091-0.208-0.181-0.308-0.271
			c-0.396,0-0.799,0-1.186,0c-2.903,0-2.322,0-5.227,0c-2.903,0-4.355,0-5.517,0s-4.065,0-4.065,0s-5.227,2.032-6.388,2.322
			s-1.161,3.484-1.161,4.646s0.871,5.517,0.871,6.388s4.064,5.227,5.517,5.808s1.742,0.871,2.613,0.871
			c0.674,0,3.425,0.346,4.641,0.503l0.861-0.265C106.172,104.548,107.289,104.386,107.289,104.386z"/>
		<path fill="#AC8C3B" d="M108.16,164.926l-2.178-3.484c0,0-2.178-0.436-3.484-0.436s-5.662,0-5.662,0h-2.178l-0.436-4.355h1.742
			c0,0-1.307-1.742-4.791-2.178s-1.307,0.436-3.484-0.436c-1.302-0.521-2.608-0.577-4.004-0.816l-2.384,3.576l2.032,4.646v4.355
			c0,0-0.871,4.645-1.451,6.098c-0.581,1.451-2.323,6.387-2.323,11.324c0,4.936,0.581,5.227,0.581,5.227s5.227,4.645,7.259,6.387
			c2.033,1.742,5.517,6.389,6.969,7.84c1.452,1.453,4.065,5.809,4.065,5.809s0.124,0.134,0.339,0.367
			c1.175,1.057,2.226,2.144,3.002,3.197c0.766,0.805,1.542,1.607,2.175,2.242c2.032,2.031,1.452,2.322,3.484,5.227
			c2.032,2.902,3.774,8.131,4.065,9.291c0.29,1.162,2.322,5.518,2.613,7.551c0.29,2.033,1.451,6.969,2.322,8.711
			s4.065,6.969,6.679,11.033s3.194,2.904,3.194,2.904s6.098,4.645,6.969,4.936c0.871,0.289,8.42,1.162,8.42,1.162
			s4.355-1.453,7.84-2.324c0.929-0.231,1.983-0.452,3.027-0.653c0.261-3.11,0.458-7.042,0.458-7.042v-1.307V251.6h-3.485
			c-3.049-2.613-5.662-4.791-5.662-4.791l-1.307-0.436c0,0-2.178,0-3.484,0s-6.533,0-6.533,0h-2.613c0,0-0.436,0.436-2.613-2.178
			s-4.791-6.533-6.098-9.582s-3.049-10.018-3.049-10.018s-3.049-6.533-3.92-7.84s-4.355-5.662-6.098-7.84s-6.533-9.582-6.533-9.582
			l-6.969-9.146v-1.307l2.178-2.178h1.742l1.307-1.742v-5.662l1.742-5.227l3.777-5.454l0.143-0.208L108.16,164.926z"/>
		<polygon fill="#D36628" points="108.596,141.843 112.951,146.198 115.564,140.972 115.564,139.229 109.902,139.229 		"/>
		<path fill="#D36628" d="M104.24,116.146l0.871,5.227l1.742,6.533l-0.149,0.224c1.015-0.604,1.941-1.12,2.762-1.53
			c1.742-0.871,2.613-0.871,3.92-2.613s4.791-4.355,4.791-4.355s0.436-3.049,3.484-3.049s6.098,0,8.275-0.871
			s4.791-3.049,4.791-3.049l1.742-3.484c0,0-1.742-0.871-3.92-1.742s-5.662-3.92-5.662-3.92l-2.613-0.436l-4.355,1.307l-1.307,0.436
			h-3.049h-3.92l-4.355-0.436c0,0-1.117,0.163-2.192,0.675c-0.189,0.09-0.375,0.192-0.555,0.304c0.172,0.023,0.28,0.038,0.28,0.038
			s2.032,3.484,0,4.355s-2.613,0.291-2.613,0.291s-0.628,0.209-1.507,0.512c1.069,0.202,1.797,0.358,1.797,0.358L104.24,116.146z"/>
		<path fill="#D36628" d="M84.786,151.571l-0.299,0.449c2.304-0.307,4.588-0.596,5.816-0.596c2.613,0,3.049,0,6.533,0
			s6.533,0,6.533,0s1.307,2.613,1.307,0c0-2.613-1.742-6.533-1.742-6.533s-0.871-2.178-0.871-5.662c0-1.277-0.233-2.554-0.401-3.745
			l-2.647,3.309c0,0-7.404,3.484-9.146,3.92c-0.735,0.184-2.71,0.678-4.748,1.187c-0.026,0.425-0.043,0.701-0.043,0.701
			L84.786,151.571z"/>
		<path fill="#D36628" d="M200.061,256.827c0-1.742-2.178-10.453-2.178-10.453s0-2.178,0-4.355s0-6.533-1.742-10.018
			s-2.613-6.969-2.613-6.969l-2.613,7.404c0,0-0.871,0-1.742,1.307s-3.92,3.049-3.92,4.355s-0.436,2.613-2.613,4.355
			s-5.662,4.355-5.662,4.355s-2.613-0.871-4.355,2.178c-1.372,2.4-4.087,3.718-5.183,4.17c1.945-0.743,3.44-1.121,3.44-1.121
			l9.146-4.791c0,0,6.098-2.178,7.84-2.613s4.791,0.871,4.791,0.871l2.178,3.92c0,0,2.178,7.84,3.049,10.889
			c0.204,0.715,0.432,1.429,0.674,2.154c0.803,0.445,1.583,0.885,2.084,1.186c1.451,0.871,4.355,2.033,5.227,2.033
			c0.112,0,0.281,0.034,0.495,0.094c-0.603-0.673-1.237-1.441-1.845-2.278c-0.033-0.048-0.067-0.092-0.102-0.14
			C202.239,260.311,200.061,258.569,200.061,256.827z"/>
		<path fill="#956754" d="M231.792,270.876c-2.647,1.151-4.727,2.067-4.727,2.067L223,274.395c0,0-0.873,0.291-2.324-0.291
			c-1.451-0.58-3.773-4.064-6.678-5.227c-2.534-1.013-6.171-2.688-7.636-3.1c-0.214-0.06-0.383-0.094-0.495-0.094
			c-0.871,0-3.775-1.162-5.227-2.033c-0.501-0.301-1.281-0.74-2.084-1.186c0.786,2.371,1.708,4.862,2.375,7.863
			c0.871,3.92,0.871,4.355,0.871,4.355l4.355,1.307l16.942,1.39c3.013-1.747,5.96-3.593,8.834-5.539l-0.079-0.642L231.792,270.876z"
			/>
		<path fill="#956754" d="M256.102,46.168l4.064,4.646v3.774v5.227c0,0-1.453,0.58-2.904,1.161s-3.193,0.581-4.645,0.581
			c-1.453,0-5.518-1.452-5.518-1.452s-3.193-1.451-4.064-1.451s0.871-0.58-0.871,0s-2.033,0.581-2.613,1.742
			c-0.582,1.161-1.162,2.322-1.162,2.322s-0.146,2.47-2.033,0.291c-0.548-0.633-1.014-1.133-1.411-1.56
			c-0.292-0.161-0.409-0.359-0.45-0.488c-0.679-0.742-1.041-1.212-1.041-1.727c0-0.871-0.582-2.613-0.582-2.613l-0.289-2.322h-1.742
			l-2.033-0.291h-1.742l-1.742-0.29l-2.613-2.032v-3.484c0,0,0.871-0.581,0.871-1.452s0-2.032,0-2.032l-3.484,0.58
			c0,0-1.451,0-2.613,0c-0.502,0-1.39-0.273-2.37-0.581c-1.133,0-2.226,0-2.856,0c-1.096,0-2.534-1.032-3.452-1.799
			c-1.822-0.942-3.826-2.265-4.388-2.265c-0.871,0-6.969-4.355-6.969-4.355s-2.904-0.871-4.064-0.871c-1.162,0-4.646,0-4.646,0
			s-3.484,0-5.227,0s-9.291,0-9.291,0h-3.195l-3.193,0.581l-0.871,0.58l-0.764,0.127c-0.721,0.347-1.474,0.696-2.285,1.034
			c-5.227,2.178,1.307,1.307,1.307,1.307s1.742,0,3.92,0s13.502,4.355,13.502,4.355s7.84,3.049,9.146,3.049s3.049,1.742,3.484,3.049
			s6.533,3.049,9.582,3.92s8.275,2.613,10.453,3.484s10.453,2.613,13.066,2.613s2.178,2.178,2.178,2.178l-3.92-0.871
			c0,0-5.662,0.871-6.969,0.871s-2.178,0.436-2.178,1.742s0,1.307,0,1.307s1.307,3.049,1.742,4.355s4.791,3.92,6.098,5.227
			s6.969,5.662,6.969,5.662l3.484,3.049l5.227,5.662l1.307,1.742l2.178,0.871l9.146,4.791c0,0,4.355,3.049,6.098,3.92
			s4.355,1.742,5.662,1.742s4.791,0,7.404-0.436s3.484,0,6.098-0.871s7.404-2.178,7.404-2.178h2.272
			c-0.544-1.512-1.108-3.012-1.701-4.5h-7.831c0,0-5.516-2.033-6.678-3.194s-4.355-5.517-4.355-5.517l5.518-6.679
			c0,0,2.613,0.872,3.484,2.033s2.322,2.322,2.322,2.322l2.322,1.162c0,0,0.36,0.887,1.213,0.713
			c-7.565-15.83-17.854-30.105-30.253-42.235c-0.041,0.054-0.089,0.11-0.125,0.163L256.102,46.168z M265.973,89.143h-1.16
			l-0.871-0.581L262.2,87.98c0,0-1.162-0.29-2.324-0.58s-2.031-0.871-4.064-1.742s-2.322-1.162-2.322-1.162l-0.871-1.451
			c0,0-0.291-1.742-0.582-2.613s-2.902-3.194-4.355-4.065c-1.451-0.871-1.16-2.323-1.16-2.323v-0.58h-0.871l-0.291-0.871
			l0.291-4.065l-1.162-1.742l1.162-0.29l2.902,0.58l4.066,2.613l5.227,2.323l3.773,2.903c0,0,2.033,1.742,2.613,2.904
			s0,2.903,0,3.774s0.291,1.161,0.291,1.161l0.291,1.162l-0.103,0.907c0.126,0.08,0.254,0.163,0.392,0.254
			c1.742,1.161,1.162,1.161,1.453,2.032C266.844,87.98,265.973,89.143,265.973,89.143z"/>
		<path fill="#956754" d="M281.073,117.888c-5.662,1.742-1.307,1.307-1.307,1.307s-2.613,1.307-7.84,2.613
			c-2.675,0.668-3.638,0.766-4.584,0.703l10.246,2.927l4.355,0.871l4.936,2.323l0.075-1.047l0.111-1.559l0.396-5.523
			c0,0,0.58-0.872,3.773-2.033c0.761-0.276,1.735-0.686,2.776-1.146c-0.358-1.671-0.743-3.334-1.156-4.985
			c-1.407,1.019-2.805,2.051-3.942,2.937C284.993,118.323,286.735,116.146,281.073,117.888z"/>
		<path fill="#956754" d="M259.1,78.535c-0.104-0.276-0.222-0.483-0.343-0.627C258.864,78.107,258.979,78.317,259.1,78.535z"/>
		<path fill="#956754" d="M80.285,91.319l-5.359,4.594c0.859,4.062,1.875,9.025,1.875,9.779c0,1.307,4.355,3.484,4.355,3.484
			s9.146,0.436,12.195,0.436c2.001,0,5.308,0.562,7.349,0.949c0.879-0.303,1.507-0.512,1.507-0.512s0.581,0.58,2.613-0.291
			s0-4.355,0-4.355s-0.108-0.015-0.28-0.038c-0.086-0.01-0.188-0.023-0.306-0.039c-1.216-0.157-3.967-0.503-4.641-0.503
			c-0.871,0-1.161-0.29-2.613-0.871s-5.517-4.937-5.517-5.808s-0.871-5.226-0.871-6.388s0-4.356,1.161-4.646
			s6.388-2.322,6.388-2.322s2.904,0,4.065,0s2.613,0,5.517,0c2.904,0,2.323,0,5.227,0c0.387,0,0.791,0,1.186,0
			c0.11,0,0.219,0,0.331,0c2.477,0,5.077,0,7.485,0c2.903,0,4.355,0.871,8.42,0c4.065-0.871,3.194-1.743,8.421-2.033
			s10.743-0.871,10.743-0.871h3.485v-0.604v-1.428c0.359,0,1.041,0,2.613,0c3.484,0,4.936,0.581,9.582,1.742
			s5.227,1.162,6.678,1.452c1.453,0.29,0.582,0.29,3.195,1.161s2.902,1.742,4.936,2.613s0.58,0.58,3.775,2.032
			c3.193,1.452,0-1.161,3.193,1.452c0.676,0.553,1.281,0.996,1.824,1.36c2.024,1.357,3.111,1.543,3.111,1.543l0.582-2.322v-0.871
			v-0.871l0.871-1.452c0,0,2.031,0,3.484,0c1.451,0-0.291-0.29,1.451,0s4.646,1.742,4.646,1.742l2.613,3.484l0.871,0.871
			c0,0,1.451,0.58,2.322,1.161s2.322,1.452,2.322,1.452l2.324,0.29l1.742-3.774l0.145-1.162c-3.92-3.92-9.582-7.84-9.582-7.84v1.742
			v3.484c0,0-2.613,0.436-3.92-0.436s-1.742-2.178-3.049-3.049s-1.307-1.307-1.307-1.307s-5.227-3.049-6.533-4.355
			s-8.275-0.436-8.275-0.436s3.484,2.613,4.355,4.355s-1.307,3.049-1.307,3.049l-2.178-0.436l-2.613-1.307
			c0,0-3.049-2.613-5.227-3.92s-3.049-1.307-8.711-3.049s-1.742,0-7.404-1.742s-13.067-3.049-17.858-4.355s-4.791-0.871-6.533-0.871
			s-6.533,0.871-6.533,0.871l5.227,1.307l-0.436,3.92l-3.92,0.871l-6.969,4.355l-8.275,1.742c0,0-1.307-2.613-2.613-3.484
			s-8.275-3.049-8.275-3.049l-11.76,0.436l-5.034,3.438l-1.935,2.659L80.285,91.319z"/>
		<path fill="#956754" d="M94.368,202.674c-1.452-1.451-4.936-6.098-6.969-7.84c-2.032-1.742-7.259-6.387-7.259-6.387
			s-0.581-0.291-0.581-5.227c0-4.938,1.742-9.873,2.323-11.324c0.58-1.453,1.451-6.098,1.451-6.098v-4.355l-2.032-4.646l2.384-3.576
			l0.801-1.201l0.299-0.449l0.29-6.969c0,0,0.017-0.276,0.043-0.701c-2.793,0.699-5.705,1.427-5.705,1.427h-4.791l-4.355,5.662
			l-2.613,5.662l-0.871,4.791l-1.307,9.582l4.355,9.146l4.355,6.969l6.969,6.969l4.355,5.227l3.049,2.178
			c0,0,5.92,3.471,10.212,7.338c-0.215-0.233-0.339-0.367-0.339-0.367S95.82,204.127,94.368,202.674z"/>
		<path fill="#956754" d="M149.537,262.78c-3.484,0.871-7.84,2.324-7.84,2.324s-7.549-0.873-8.42-1.162
			c-0.871-0.291-6.969-4.936-6.969-4.936s-0.581,1.16-3.194-2.904s-5.808-9.291-6.679-11.033s-2.032-6.678-2.322-8.711
			c-0.291-2.033-2.323-6.389-2.613-7.551c-0.291-1.16-2.033-6.389-4.065-9.291c-2.032-2.904-1.452-3.195-3.484-5.227
			c-0.634-0.635-1.409-1.438-2.175-2.242c0.532,0.721,0.936,1.427,1.159,2.096c1.742,5.227,6.533,12.631,6.533,12.631
			s1.742,5.662,2.178,9.582s0,8.711,0,8.711l3.92,9.582l2.613,6.098c0,0,1.307,6.533,1.307,7.84s0,1.307,0,1.307v2.178l-0.846,2.198
			c1.567,1.261,3.023,2.593,3.023,2.593s1.216,0.995,2.646,2.038l0.838,0.14l1.742-0.871l0.871-1.742l4.355-1.307l6.098,0.871
			c0,0,1.307-1.307,3.92-2.613s5.227-2.178,6.533-2.613c1.307-0.436,6.969-6.533,6.969-6.533l2.613-3.049
			c0,0-2.813,0.392-5.685,0.944C151.52,262.328,150.466,262.548,149.537,262.78z"/>
		<path fill="#9F4D2C" d="M265.102,85.077c-0.138-0.092-0.266-0.174-0.392-0.254l-0.188,1.707l-1.451-0.871l-3.195-3.194
			c0,0-0.289-1.452-0.58-3.194c-0.05-0.298-0.121-0.53-0.195-0.735c-0.121-0.217-0.236-0.427-0.343-0.627
			c-0.313-0.372-0.624-0.38-0.624-0.38s-0.871-0.871-1.451-1.742s-4.646-2.322-4.646-2.322h-3.193h-2.322v0.58
			c0,0-0.291,1.452,1.16,2.323c1.453,0.871,4.064,3.194,4.355,4.065s0.582,2.613,0.582,2.613l0.871,1.451
			c0,0,0.289,0.291,2.322,1.162s2.902,1.452,4.064,1.742s2.324,0.58,2.324,0.58l1.742,0.581l0.871,0.581h1.16
			c0,0,0.871-1.162,0.582-2.033C266.264,86.238,266.844,86.238,265.102,85.077z"/>
		<path fill="#9F4D2C" d="M230.549,262.489l0.436,4.355l0.807,4.032l0.064,0.323l0.079,0.642
			c5.658-3.833,11.033-8.048,16.098-12.603l-11.821-4.154L230.549,262.489z"/>
		<path fill="#9F4D2C" d="M201.803,274.684c0,0,0-0.436-0.871-4.355c-0.667-3.001-1.589-5.492-2.375-7.863
			c-0.242-0.726-0.47-1.439-0.674-2.154c-0.871-3.049-3.049-10.889-3.049-10.889l-2.178-3.92c0,0-3.049-1.307-4.791-0.871
			s-7.84,2.613-7.84,2.613l-9.146,4.791c0,0-1.495,0.378-3.44,1.121c-0.158,0.062-0.314,0.121-0.479,0.186
			c-2.178,0.871-5.227,3.049-5.227,3.049l-3.484,4.791l-2.613,3.049c0,0-5.662,6.098-6.969,6.533
			c-1.307,0.436-3.92,1.307-6.533,2.613s-3.92,2.613-3.92,2.613l-6.098-0.871l-4.355,1.307l-0.871,1.742l-1.742,0.871l-0.838-0.14
			c1.407,1.027,3.022,2.102,3.887,2.317c1.742,0.436,7.84,0,7.84,0l3.221-0.179l8.539-3.306c0,0,3.049-1.742,5.663-3.92
			s5.227-4.355,8.275-7.404s4.355-8.275,4.355-8.275l5.662-4.355l2.178,0.871l0.436-1.742l2.613-2.178l2.613,3.484l4.791,0.871
			c0,0,0,0,1.307-0.436s2.178-0.436,2.178-0.436l-1.742,6.098l0.436,3.484l1.742,0.436v7.404l1.884,5.415l0.294-0.188
			c0,0,2.178,2.178,3.484,2.613c0.854,0.286,3.94,0.942,5.976,1.363c1.722-0.387,4.382-0.928,5.784-0.928c2.178,0,8.711,0,8.711,0
			l3.191,0.485c1.847-0.971,3.674-1.973,5.476-3.016l-16.942-1.39L201.803,274.684z"/>
		<path fill="#9F4D2C" d="M208.804,42.917c0.918,0.768,2.356,1.799,3.452,1.799c0.631,0,1.724,0,2.856,0
			c-1.288-0.404-2.739-0.87-3.728-0.87C210.764,43.846,209.811,43.438,208.804,42.917z"/>
		<path fill="#9F4D2C" d="M220.532,21.632c-1.742,0-2.613,0-2.613,0s-1.742-0.871-3.92-3.049s-1.307-0.871-1.307-0.871
			s-3.484-1.307-6.533-2.613s-2.613,0-4.791,0s-4.355,0-5.662,0s-3.92,0-3.92,0s-4.355,0.436-6.533,0.871s-3.049,0.871-8.711,1.742
			s-4.355,1.742-6.098,1.742s-3.484,3.049-3.484,3.049l-3.484-0.436c0,0-3.484,1.742-9.582,4.791
			c-6.098,3.049-6.098,2.178-8.711,2.613c0,0-3.049,2.613-4.791,4.355s-3.484,3.484-3.484,3.484s0,3.92,0,5.227
			s-4.355,3.484-4.355,3.484s-0.169,0-0.436,0v3.92l-3.92,5.662l-0.871,6.969l-10.018-1.307l-5.227-0.871h-3.92l-1.307,2.613
			l-0.871,2.613l-2.613,0.871l-1.742,0.436l-3.049,3.92L96.4,73.462l-4.355,2.613l-3.92,3.484l-1.55,2.132l5.034-3.438l11.76-0.436
			c0,0,6.969,2.178,8.275,3.049s2.613,3.484,2.613,3.484l8.275-1.742l6.969-4.355l3.92-0.871l0.436-3.92l-5.227-1.307
			c0,0,4.791-0.871,6.533-0.871s1.742-0.436,6.533,0.871s12.196,2.613,17.858,4.355s1.742,0,7.404,1.742s6.533,1.742,8.711,3.049
			s5.227,3.92,5.227,3.92l2.613,1.307l2.178,0.436c0,0,2.178-1.307,1.307-3.049s-4.355-4.355-4.355-4.355s6.969-0.871,8.275,0.436
			s6.533,4.355,6.533,4.355s0,0.436,1.307,1.307s1.742,2.178,3.049,3.049s3.92,0.436,3.92,0.436v-3.484v-1.742
			c0,0,5.662,3.92,9.582,7.84s0.436,1.742,5.227,5.227s5.227,1.742,8.275,4.355s0.871,0.871,8.275,5.227s10.453,6.098,14.373,8.711
			s6.533,3.92,6.969,5.227s0,1.742,4.791,1.742c2.339,0,3.226,0.207,4.127,0.267c0.946,0.063,1.909-0.034,4.584-0.703
			c5.227-1.307,7.84-2.613,7.84-2.613s-4.355,0.436,1.307-1.307s3.92,0.436,7.84-2.613c1.138-0.886,2.535-1.917,3.942-2.937
			c-1.201-4.78-2.633-9.467-4.283-14.05h-2.272c0,0-4.791,1.307-7.404,2.178s-3.484,0.436-6.098,0.871s-6.098,0.436-7.404,0.436
			s-3.92-0.871-5.662-1.742s-6.098-3.92-6.098-3.92l-9.146-4.791l-2.178-0.871l-1.307-1.742l-5.227-5.662l-3.484-3.049
			c0,0-5.662-4.355-6.969-5.662s-5.662-3.92-6.098-5.227s-1.742-4.355-1.742-4.355s0,0,0-1.307s0.871-1.742,2.178-1.742
			s6.969-0.871,6.969-0.871l3.92,0.871c0,0,0.436-2.178-2.178-2.178s-10.889-1.742-13.066-2.613s-7.404-2.613-10.453-3.484
			s-9.146-2.613-9.582-3.92s-2.178-3.049-3.484-3.049s-9.146-3.049-9.146-3.049s-11.324-4.355-13.502-4.355s-3.92,0-3.92,0
			s-6.533,0.871-1.307-1.307c0.812-0.338,1.564-0.687,2.285-1.034l-0.979,0.164l-2.613,0.871l-1.162-2.033
			c0,0,2.613-3.773,3.775-4.064s4.355-4.355,4.355-4.355s2.904-2.614,4.646-1.162s1.742,1.452,1.742,1.452s3.193,1.162,4.936-1.161
			s1.742-2.323,1.742-2.323s1.742-2.323,2.904-1.452c1.16,0.871,0.871,1.162,1.742,1.452s2.613,0.581,4.064,0.871
			s4.646-2.032,4.646-2.032l3.773-2.904l3.484,2.613c0,0,0.291,0,0,1.742c-0.289,1.742-2.031,1.742-2.031,1.742
			s-1.162,2.032,0.871,2.613c2.031,0.581,2.031,0.581,4.064,0.581s4.646,0,4.646,0l0.289-2.032c1.162-0.291,2.033-0.001,3.484,1.451
			c1.453,1.452,2.033,1.162,2.324,2.033c0.289,0.871,0.871,0.871,2.322,0.871s2.904-1.453,4.646,0.58s1.742,2.613,1.742,3.484
			s-0.871,1.161,0.58,2.613s2.031,1.742,4.064,1.742s1.742-0.29,5.809-0.29c4.064,0,5.807-0.29,5.807-0.29s2.322-0.871,3.775,0.29
			c1.451,1.161,2.613,0.58,3.484,1.161s2.902,1.162,2.902,1.162l0.452,0.453c0.036-0.052,0.084-0.109,0.125-0.163
			c-8.039-7.863-16.96-14.827-26.609-20.717C224.004,21.841,221.742,21.632,220.532,21.632z M102.498,68.235l6.533-1.307
			l0.436,3.049l-6.533,3.049l-2.178-3.049L102.498,68.235z M166.088,47.329c1.742,0.436,3.92,0.436,3.92,0.436l6.969,0.436
			l7.84,3.049l4.355,2.613l-1.742,2.178l-2.613,0.871l-5.662-3.049l-5.662-2.178l2.178,4.355l3.049-0.871l0.871,3.049l1.742,4.791
			l-3.049,0.871l-7.404-6.098l-5.227,2.613l-6.969,0.871l-3.049-0.436l-4.791-2.613l-3.049-1.307l-3.049-1.742l-1.307-2.613
			c0,0,1.307-1.307,2.613-2.613s3.484-1.742,3.484-1.742l1.743-0.871l2.613-0.871l3.92-1.742h3.484
			C161.297,44.716,164.346,46.894,166.088,47.329z"/>
		<path fill="#9F4D2C" d="M119.484,269.893c0,0,0,0,0-1.307s-1.307-7.84-1.307-7.84l-2.613-6.098l-3.92-9.582
			c0,0,0.436-4.791,0-8.711s-2.178-9.582-2.178-9.582s-4.791-7.404-6.533-12.631c-0.223-0.669-0.627-1.375-1.159-2.096
			c-0.776-1.054-1.827-2.141-3.002-3.197c-4.292-3.867-10.212-7.338-10.212-7.338l-3.049-2.178l-4.355-5.227l-6.969-6.969
			l-4.355-6.969l-4.355-9.146l1.307-9.582l0.871-4.791l2.613-5.662l4.355-5.662h4.791c0,0,2.912-0.728,5.705-1.427
			c2.038-0.508,4.013-1.003,4.748-1.187c1.742-0.436,9.146-3.92,9.146-3.92l2.647-3.309l0.837-1.046l4.207-6.31l0.149-0.224
			l-1.742-6.533l-0.871-5.227l-1.742-5.227c0,0-0.728-0.156-1.797-0.358c-2.042-0.387-5.348-0.949-7.349-0.949
			c-3.049,0-12.195-0.436-12.195-0.436s-4.355-2.178-4.355-3.484c0-0.754-1.016-5.717-1.875-9.779l-0.738,0.633
			c0,0-0.436,3.484-1.307,5.662s-1.307,2.613-1.307,3.92s0,7.404,0,7.404l-1.089,2.178l1.524,1.742v8.275l-6.098,4.791l-0.001-0.026
			l-5.661,8.302v9.146l-0.871,6.968c0,0-0.871,1.307-0.871,4.355s-0.871,11.324,0,13.066s1.742,6.098,1.742,7.404
			s0.871,8.275,0.871,9.582s0.436,5.227,0.436,5.227l2.457,2.622c1.682,0.236,3.14,0.427,3.641,0.427
			c1.307,0,12.631,1.742,12.631,1.742l11.324,7.404c0,0,5.662,6.098,6.533,8.275s4.355,7.84,4.791,9.582s0,10.018,0,10.018
			l-0.436,5.227l-1.501,1.953l1.937-0.646l-1.05,5.603l4.099,1.366l3.484,6.969l0.436,6.533l8.733,12.647
			c0.002,0.002,0.003,0.004,0.003,0.004l0.846-2.198V269.893z"/>
		<path fill="#9F4D2C" d="M234.945,61.45c-0.163-0.175-0.314-0.339-0.45-0.488C234.536,61.09,234.653,61.289,234.945,61.45z"/>
		<path fill="#9F4D2C" d="M115.919,54.039c-3.142,1.085-0.791,0.695-0.791,0.695C115.431,54.583,115.691,54.336,115.919,54.039z"/>
		<path fill="#9F4D2C" d="M115.129,54.733l-4.355,1.742l1.742,1.307C112.516,57.782,113.387,55.604,115.129,54.733z"/>
		<path fill="#8B2B1C" d="M205.723,279.911c-1.402,0-4.063,0.541-5.784,0.928c1.076,0.223,1.864,0.379,1.864,0.379l9.596,2.26
			c2.103-0.98,4.179-2.008,6.227-3.081l-3.191-0.485C214.434,279.911,207.901,279.911,205.723,279.911z"/>
		<path fill="#8B2B1C" d="M188.301,271.635v-7.404l-1.742-0.436l-0.436-3.484l1.742-6.098c0,0-0.871,0-2.178,0.436
			s-1.307,0.436-1.307,0.436l-4.791-0.871l-2.613-3.484l-2.613,2.178l-0.436,1.742l-2.178-0.871l-5.662,4.355
			c0,0-1.307,5.227-4.355,8.275s-5.662,5.227-8.275,7.404s-5.663,3.92-5.663,3.92l-8.539,3.306l4.619-0.257l4.355-0.436l6.534-6.533
			c0,0,3.92-1.307,6.533-1.307s6.098-0.436,6.098-0.436s1.742,3.92,2.178,5.227s1.742,2.178,1.742,2.178l5.227-4.791l6.533,4.791
			l1.283,1.283l5.827-3.708L188.301,271.635z"/>
		<path fill="#8B2B1C" d="M100.997,241.793l1.501-1.953l0.436-5.227c0,0,0.436-8.275,0-10.018s-3.92-7.404-4.791-9.582
			s-6.533-8.275-6.533-8.275l-11.324-7.404c0,0-11.324-1.742-12.631-1.742c-0.5,0-1.959-0.19-3.641-0.427l4.076,4.347l-8.275,4.355
			l-0.871,2.613l3.92-1.742l0.436-1.742l3.049-0.871h2.178l6.533,0.436l4.791,1.742l4.791,2.613l3.049,1.742l2.613,3.049l3.92,3.92
			l2.613,2.613l1.742,4.355l0.436,5.227c0,0,0,3.049,0,4.355s0,5.662,0,5.662s0,0.881,0,2.613L100.997,241.793z"/>
		<path fill="#8B2B1C" d="M109.902,261.618l-0.436-6.533l-3.484-6.969l-4.099-1.366l-0.256,1.366v3.049l1.307,5.227l2.613,7.84
			c0,0,8.275,7.84,9.582,7.84c0.617,0,2.105,1.068,3.506,2.194L109.902,261.618z"/>
		<path fill="#5E4532" d="M199.939,280.838c-2.035-0.421-5.121-1.077-5.976-1.363c-1.307-0.436-3.484-2.613-3.484-2.613
			l-0.294,0.188l-5.827,3.708l0.023,0.023l0.871,1.307v2.613l2.613,3.049h1.307h4.791h5.227l1.138,0.354
			c3.767-1.395,7.457-2.943,11.071-4.627l-9.596-2.26C201.803,281.217,201.015,281.061,199.939,280.838z"/>
		<path fill="#5E4532" d="M139.256,281.039l-3.221,0.179c0,0-6.098,0.436-7.84,0c-0.865-0.216-2.479-1.29-3.887-2.317
			c-1.43-1.043-2.646-2.038-2.646-2.038s-1.457-1.332-3.023-2.593c0,0-0.001-0.002-0.003-0.004c-1.401-1.126-2.89-2.194-3.506-2.194
			c-1.307,0-9.582-7.84-9.582-7.84l-2.613-7.84l-1.307-5.227v-3.049l0.256-1.366l1.05-5.603l-1.937,0.646l-1.983,0.66
			c0,0.396,0,0.821,0,1.307c0,2.613-0.871,4.355-0.871,4.355l-1.307,0.871l-3.484,6.969l2.178,6.533l2.613,6.098
			c0,0,0.871,2.613,2.178,4.355s0.871,2.178,0.871,2.178s0.871,4.791,1.742,6.098s2.178-0.871,2.178-0.871l0.871-1.307l2.178,3.92
			l4.791,5.662l5.662,3.92c0,0,3.484,0.871,5.227,1.307s4.355,0,4.355,0s3.92,0,8.275,0s4.355,0,4.355,0s2.613-1.742,4.791-2.613
			s4.356-2.613,4.356-2.613l-0.872-3.049l-0.871-5.227l-4.355,0.436L139.256,281.039z"/>
		<path fill="#512618" d="M157.813,3.339c-3.049,1.307-2.613,0-2.613,0s-2.613,0-5.227,0c-2.614,0-6.098,2.178-9.147,3.484
			s-7.404,3.049-9.582,4.355s-2.613,1.742-2.613,1.742l-3.92,3.484l-4.791,4.355l-6.533,3.049l-0.871,8.711
			c0,0-3.484,1.307-5.662,2.613s-0.871,1.307-0.871,1.307s-0.871,3.484-1.742,4.791s-1.307,1.307-3.92,2.613
			s-5.227,1.742-5.227,1.742l-2.613,0.436l-2.178,0.871c0,0-1.307,1.742-6.533,6.533s-6.098,6.098-7.404,6.969
			s-3.484,3.484-4.791,5.227s-3.484,4.791-4.355,6.533s-3.049,3.484-4.791,5.227s-4.355,6.969-5.227,9.146s-3.92,6.969-6.098,11.324
			s-0.871,8.275-0.871,9.582s-2.178,3.92-2.178,3.92s-2.178,4.791-3.484,6.969s-3.049,9.146-3.049,9.146s-0.436,6.969-1.307,9.582
			s0,7.404-0.436,11.76c-0.436,4.355-0.436,8.71-0.436,10.017s-0.436,14.373-0.436,14.373l-0.871,2.178l-0.436,10.453
			c0,0,0,6.969,0,10.018s0,2.178,0,5.662s0.436,6.098,0.436,6.098l3.049,3.92c0,0,1.742,3.92,2.178,7.404
			c0.37,2.962,0.112,2.778,0.025,2.656l7.814,12.588l2.613,1.742c0,0,2.178,0,4.355,0l2.178-2.178l1.742-2.613
			c0,0,1.529-3.051,3.049-4.812c0-1.364,0-3.143,0-3.899c0-1.307,0.436-2.178,1.742-3.049s7.84-1.742,7.84-1.742l3.049,1.742
			l2.178,1.742c0,0,3.484,4.791,5.227,7.404s1.307,10.889,1.307,12.631c0,0.136-0.031,0.269-0.075,0.398
			c0.214,1.875,0.363,3.928,0.51,6.135c0.436,6.533,0.871,5.662,0.871,5.662v2.613l0.436,6.098c0,0,0.871,2.178,1.742,3.484
			s3.049,5.227,5.227,8.711s2.178,5.662,2.178,5.662s6.533,7.404,8.711,7.404s3.049,2.613,4.355,3.484
			c0.689,0.459,2.222,1.522,3.52,2.426c11.167,2.68,22.819,4.107,34.808,4.107c18.167,0,35.571-3.264,51.662-9.229l-1.138-0.354
			h-5.227h-4.791h-1.307l-2.613-3.049v-2.613l-0.871-1.307l-0.023-0.023l-1.283-1.283l-6.533-4.791l-5.227,4.791
			c0,0-1.307-0.871-1.742-2.178s-2.178-5.227-2.178-5.227s-3.484,0.436-6.098,0.436s-6.533,1.307-6.533,1.307l-6.534,6.533
			l0.871,5.227l0.872,3.049c0,0-2.178,1.742-4.356,2.613s-4.791,2.613-4.791,2.613s0,0-4.355,0s-8.275,0-8.275,0
			s-2.613,0.436-4.355,0s-5.227-1.307-5.227-1.307l-5.662-3.92l-4.791-5.662l-2.178-3.92l-0.871,1.307c0,0-1.307,2.178-2.178,0.871
			s-1.742-6.098-1.742-6.098s0.436-0.436-0.871-2.178s-2.178-4.355-2.178-4.355l-2.613-6.098l-2.178-6.533l3.484-6.969l1.307-0.871
			c0,0,0.871-1.742,0.871-4.355c0-0.485,0-0.91,0-1.307c0-1.732,0-2.613,0-2.613s0-4.355,0-5.662s0-4.355,0-4.355l-0.436-5.227
			l-1.742-4.355l-2.613-2.613l-3.92-3.92l-2.613-3.049l-3.049-1.742l-4.791-2.613l-4.791-1.742l-6.533-0.436h-2.178l-3.049,0.871
			l-0.436,1.742l-3.92,1.742l-4.355,4.355l-2.613,2.613l-0.871,5.662l-3.92,0.871c0,0-1.307-0.436-1.307-2.178s0-6.969,0-6.969
			s1.307-1.307,1.742-3.92s0.436-3.484,0.436-5.227s-0.436-3.92,0-5.227s0.436-2.178,1.307-3.92s0.871-4.355,0.871-4.355
			s0.436-1.307,0.436-3.049s0.436-4.791,0.436-4.791v-1.307l-0.871-6.098c0,0-3.484-3.92-3.484-5.227s0-0.436,0-3.92
			s-0.436-6.533,0-10.018s0-3.484,0.436-6.533c0.436-3.049,1.307-4.791,2.613-9.146s2.613-8.711,2.613-8.711l1.742-3.92l2.178-4.791
			c0,0,0.436-4.791,1.307-6.969s3.484-11.76,3.484-11.76l0.871-7.404l3.92-5.662c0,0,1.307-3.484,2.613-4.791
			s0.871-3.049,3.484-6.533s3.049-4.791,4.791-6.533s3.049-3.92,5.662-6.533s5.227-4.791,5.227-4.791l3.484-2.613h1.742l2.613,2.613
			l2.613-1.742l0.436-1.307l1.307-0.871l5.227-1.307h3.92h1.742l4.355-1.742c0,0-2.352,0.391,0.791-0.695
			c1.087-1.421,1.387-4.096,1.387-4.096l3.484-4.355l3.796-0.292c-1.371-0.3-2.49-0.579-2.49-0.579l4.355-2.613l5.662-5.662
			c0,0,0-3.049,0-4.355s0-4.355,0-4.355l0.436-3.049l3.92-1.742h4.791l6.969,1.307l0.871-4.355l-2.613-1.742
			c0,0,3.92-2.178,6.969-4.355s3.92-1.307,3.92-1.307l11.76-6.969h5.662l6.969,2.178l3.217-3.218
			c-6.871-1.725-13.931-2.979-21.144-3.71l-0.366,0.396C163.475,1.161,160.862,2.032,157.813,3.339z"/>
		<path fill="#2C2313" d="M127.324,2.032l-3.484,1.742c0,0-6.969,3.484-9.582,3.92s-3.049,1.307-5.227,2.178s-3.92,2.613-3.92,2.613
			l-2.178,6.969l-1.742,0.436c0,0-3.484,1.742-6.098,2.178s-2.613,3.049-2.613,3.049l-0.871,2.178l-5.662,3.484l-2.178,2.178
			c0,0-3.049,2.613-3.92,4.791s-4.791,5.227-4.791,5.227l-3.049,3.92l-6.969,7.84l-1.742,3.049c0,0-2.613,3.484-3.484,5.662
			s-1.742,1.742-1.742,1.742s-3.049,1.742-3.484,3.049s-2.613,2.178-2.613,2.178s0,3.049-0.871,4.791s-0.871,3.92-3.049,7.404
			s-3.484,4.355-3.484,4.355s-0.436,1.742-2.613,4.791s-1.742,6.969-2.613,12.195s-1.742,3.049-3.92,6.533s-2.613,4.791-2.613,4.791
			l-1.742,3.484c0,0-1.742,4.791-2.613,7.404s-0.871,7.404-0.871,7.404s0,4.791,0,7.404s-0.871,4.791-1.307,6.969
			c-0.436,2.177-1.742,3.048-2.613,4.355s-1.742,1.307-1.742,1.307s-1.307,4.355-1.742,6.969s-1.307,6.969-1.307,6.969l-2.178,3.484
			l4.355,7.404v3.92c0,0,0,3.049-0.871,4.791s-0.871,10.453-0.871,14.373s0,9.582,0,9.582s0.871,3.484,2.613,6.098
			s3.049,5.227,3.484,7.404c0.253,1.268,0.212,4.451,0.133,7.406c8.983,13.246,20.052,24.96,32.729,34.686l1.111-0.279h3.484h2.178
			h2.178c0,0,1.307,0,2.613-0.871s0-1.307,0-1.307s0-1.742,0-3.484s0-4.355,0-5.662s0-3.049,0-3.049l-0.436-3.049
			c0,0-0.871-2.178-1.742-3.92s0-3.484,0-3.484l0.436-3.92l2.178-1.742c0,0,1.307-2.178,1.307-3.484s-2.613-2.613-2.613-2.613
			l-3.92-1.742c0,0,0-0.772,0-1.763c-1.52,1.761-3.049,4.812-3.049,4.812l-1.742,2.613l-2.178,2.178c-2.178,0-4.355,0-4.355,0
			l-2.613-1.742l-7.814-12.588c0.087,0.122,0.344,0.306-0.025-2.656c-0.436-3.484-2.178-7.404-2.178-7.404l-3.049-3.92
			c0,0-0.436-2.613-0.436-6.098s0-2.613,0-5.662s0-10.018,0-10.018l0.436-10.453l0.871-2.178c0,0,0.436-13.066,0.436-14.373
			s0-5.662,0.436-10.017c0.436-4.355-0.436-9.146,0.436-11.76s1.307-9.582,1.307-9.582s1.742-6.969,3.049-9.146
			s3.484-6.969,3.484-6.969s2.178-2.613,2.178-3.92s-1.307-5.227,0.871-9.582s5.227-9.146,6.098-11.324s3.484-7.404,5.227-9.146
			s3.92-3.484,4.791-5.227s3.049-4.791,4.355-6.533s3.484-4.355,4.791-5.227s2.178-2.178,7.404-6.969s6.533-6.533,6.533-6.533
			l2.178-0.871l2.613-0.436c0,0,2.613-0.436,5.227-1.742s3.049-1.307,3.92-2.613s1.742-4.791,1.742-4.791s-1.307,0,0.871-1.307
			s5.662-2.613,5.662-2.613l0.871-8.711l6.533-3.049l4.791-4.355l3.92-3.484c0,0,0.436-0.436,2.613-1.742s6.533-3.049,9.582-4.355
			s6.533-3.484,9.147-3.484c2.613,0,5.227,0,5.227,0s-0.436,1.307,2.613,0s5.662-2.178,5.662-2.178l0.366-0.396
			C158.851,0.259,153.789,0,148.666,0c-7.042,0-13.968,0.501-20.75,1.449C127.549,1.815,127.324,2.032,127.324,2.032z"/>
		<path fill="#2C2313" d="M105.982,287.315c-2.178,0-8.711-7.404-8.711-7.404s0-2.178-2.178-5.662s-4.355-7.404-5.227-8.711
			s-1.742-3.484-1.742-3.484l-0.436-6.098v-2.613c0,0-0.436,0.871-0.871-5.662c-0.147-2.207-0.296-4.26-0.51-6.135
			c-0.519,1.539-3.845,2.65-3.845,2.65s-2.613,1.742-2.613,3.049s0,6.098,0,7.84s0.436,8.711,0.436,8.711s0.871,6.533,0.871,8.711
			s2.178,4.791,2.178,4.791l3.484,4.791l1.941,2.669c8.02,3.536,16.41,6.384,25.098,8.468c-1.298-0.903-2.831-1.967-3.52-2.426
			C109.031,289.928,108.16,287.315,105.982,287.315z"/>
		<path fill="#E1B098" d="M191.786,214.579c0.871-2.613,2.613-5.662,5.227-8.275s3.484-1.742,5.227-5.662
			c1.199-2.698,1.985-4.983,2.359-6.146c0.169-0.525,0.254-0.823,0.254-0.823l-0.262-0.635l-2.787-6.77c0,0-2.613-3.049-3.92-5.662
			s-3.484-3.92-4.355-6.098s-2.613-5.662-5.662-8.711s-3.92-6.098-3.92-6.098l2.613-3.92l0.436-3.92c0,0-1.307-1.742-3.049-1.742
			s-3.92-1.306-4.791,0c-0.871,1.307-3.92,3.92-3.92,3.92l-0.871,4.355v8.566l2.613-1.162l9.146,9.582c0,0,2.178,9.582,2.613,13.502
			s2.178,3.92,2.178,3.92l3.049,2.178v1.742c0,0,0,0-1.307,1.742s-1.742,2.613-2.613,4.355s-1.307,5.662-2.178,7.404
			s-2.613,5.227-2.613,5.227s-2.613,5.227-2.613,7.84s-0.871,6.533-0.871,6.533l-3.92-2.178l-5.662-3.049
			c0,0,0.436-1.742,1.742-6.098s0.871-4.791,0.871-4.791s0.436-3.049,1.742-6.533s1.307-3.92,1.307-3.92l1.307-5.227l-0.436-7.84
			c0,0,0-12.631-1.742-15.244l-2.613-4.936v1.887c0,0-2.613,6.969-2.613,8.711s0.436,4.791,0.436,7.84s0,7.404,0,9.146
			s0,10.018,0,10.018v3.484l-2.613,3.92l-3.049,2.613l-0.871,4.355l-2.613,9.146l-3.92,7.84l-0.871,1.742l2.613,1.307
			c0,0,5.227,0.871,6.969,0s6.533-1.742,8.711-3.484s3.484-3.049,4.791-3.92s3.92-3.484,3.92-3.484s1.307-1.307,3.049-6.969
			S190.915,217.192,191.786,214.579z"/>
		<path fill="#E1B098" d="M287.17,166.233l-6.098-3.049l-1.307-0.871l-1.742-1.742l1.307-1.742l3.484-3.049
			c-1.742-2.613-10.018-6.098-11.76-6.098s-6.533,0-9.146-0.435c-2.613-0.436-9.146-2.178-9.146-2.178s-2.178,1.307-3.484-0.871
			s-2.613-5.662-3.92-7.404c-0.677-0.903-1.705-2.273-2.538-3.385c-0.774-1.032-1.382-1.842-1.382-1.842l-6.969-4.355
			c0,0-10.018-5.227-11.76-5.662c-1.412-0.353-3.696-1.857-6.822-3.803c-0.733-0.455-1.497-0.928-2.324-1.424
			c-4.181-2.509-11.157-9.813-14.022-10.782c-0.121-0.041-0.245-0.088-0.351-0.106c-2.613-0.436-8.711-4.791-8.711-4.791
			s-6.969-3.92-9.582-5.662s-11.324-7.404-11.324-7.404s0.436-0.436-2.178-0.871s-7.404-0.436-7.404-0.436s-1.307,0.436-3.049,1.307
			s-5.227,3.484-5.227,3.484s-1.307,0,0,3.049s5.227,4.791,7.404,5.662s6.533,2.178,7.84,3.92s2.178,3.049,3.92,4.791
			s3.049,2.178,6.533,6.533s6.969,7.404,8.711,10.018s1.742,4.791,4.791,7.404s3.92,3.92,5.662,5.227s3.049,3.92,3.049,3.92
			s1.307,2.178,2.613,3.484s2.613,4.355,2.613,4.355v2.178v2.613l-1.742,0.436l-1.742,2.613l3.484,5.227
			c0,0,0.871-0.436,2.178,0.436s5.227,3.484,7.404,4.791s2.178,1.307,2.178,1.307l3.92,2.613c1.307,0.871,6.098,5.662,6.098,5.662
			l0.436,1.307l-7.84,8.275l-2.178,2.613c0,0-0.871,1.742-4.355,6.533s-3.484,5.227-6.533,8.275s-6.969,8.275-6.969,8.275
			s-0.112,0.896-0.165,2.347c-0.053,1.41-0.05,3.345,0.165,5.493c0.188,1.885,0.543,3.94,0.953,6.081
			c0.535,2.805,1.165,5.764,1.66,8.728c0.871,5.227,2.178,7.84,2.613,9.582s0,1.742,2.178,5.227s4.355,4.791,6.533,6.969
			s4.355,1.742,6.098,2.613s5.227,0.871,5.227-1.307s-3.484-3.049,0-4.791c0.546-0.272,1.103-0.555,1.669-0.834
			c-0.119-0.01-0.234-0.019-0.362-0.037c0,0-5.227-4.355-6.533-6.098s-3.484-3.049-3.484-3.049s-3.92-2.178-6.533-5.662
			s-2.613-3.484-3.484-5.662s0-6.533,0-8.711s3.484-9.146,5.662-13.938s2.613-3.92,3.92-6.969s4.355-3.92,8.275-7.84
			s3.049-3.049,4.791-4.791s2.178-3.049,2.178-5.662s2.178-3.049,2.178-3.049l5.227-1.742c0,0,4.791-1.307,6.969-1.307
			s6.098-1.307,6.098-1.307h5.227l10.018-1.307l2.178,1.307c0,0,6.533,4.355,8.275,6.098s0,6.969,0,6.969l-0.871,2.178
			c0,0,0,2.178,0,5.662s2.613,3.049,2.613,3.049l6.036,6.354c7.949-17.816,12.49-37.485,12.808-58.181
			c-2.05,2.962-5.146,7.285-6.213,8.707C289.784,161.442,287.17,166.233,287.17,166.233z M250.584,151.86
			c0,0-0.436,2.178-0.436,6.098s-1.307,5.662-2.613,9.582s-6.098,0-6.098,0l-6.098-1.307l-2.178-1.742l-5.227-0.436l-3.049-1.742
			c0,0-0.436-3.484-0.436-4.791s-1.307-2.178-1.307-2.178s0,0-3.92-3.049c-3.92-3.048-3.484-0.871-3.484-0.871l-3.92-6.097
			l-0.436-3.92l-0.871-1.742c0,0,0,0-1.307-2.613s-1.307-3.049-1.307-3.049l-3.049,0.436l-2.178,0.871l-3.92-0.436l-1.742-0.871
			l-4.791-8.711l-1.307-2.178l-1.742-1.742l-1.742-0.436l-2.178-4.791l0.871-6.533l3.484,0.871l2.178,1.307
			c0,0,0.871-2.613,2.613-2.613s3.92,1.307,3.92,1.307l3.049,3.92l4.791,4.355l4.791,4.791l5.227,3.049l9.582,4.791l7.404,3.484
			l3.484,0.436l3.92,0.871l2.613,2.613v3.92l1.742,2.613c0,0,4.355,4.791,5.662,5.226S250.584,151.86,250.584,151.86z"/>
		<path fill="#E1B098" d="M257.989,235.92c0,0-2.613-1.307-7.404-4.791s-4.355,0-4.355,0s0,1.307,0,6.098
			c2.178-1.307,8.711-2.613,8.711-2.613L257.989,235.92z"/>
		<path fill="#E1B098" d="M247.1,241.147c0-0.832-0.446-1.409-0.875-1.878c-0.01,2.4-0.074,1.912-0.432,4.056
			c-0.436,2.613-1.742,1.307-4.791,3.049s-2.178,1.742-6.969,4.355c-1.596,0.871-2.703,1.642-3.592,2.271
			c1.751-0.427,3.542-0.454,5.334,0.342c3.92,1.742,3.484,1.307,6.098,2.178s5.227,1.307,7.84,0.871
			c0.558-0.092,1.034-0.083,1.446-0.037c0.83-0.791,1.651-1.593,2.463-2.401c-0.316-1.908-1.589-4.049-2.603-5.401
			C249.713,246.809,247.1,243.325,247.1,241.147z"/>
		<path fill="#E1B098" d="M258.241,235.994c0.571,0.19,1.926,0.821,1.926,2.54c0,2.178,0.436,3.92,0.436,3.92
			c0.961,0.449,1.768,0.825,2.467,1.151c1.495-1.8,2.948-3.636,4.359-5.507c-0.548,0-1.217,0-2.035,0
			C258.981,238.098,262.631,237.259,258.241,235.994z"/>
		<path fill="#F1D9A7" d="M178.719,190.188l0.436,7.84l-1.307,5.227c0,0,0,0.436-1.307,3.92s-1.742,6.533-1.742,6.533
			s0.436,0.436-0.871,4.791s-1.742,6.098-1.742,6.098l5.662,3.049l3.92,2.178c0,0,0.871-3.92,0.871-6.533s2.613-7.84,2.613-7.84
			s1.742-3.484,2.613-5.227s1.307-5.662,2.178-7.404s1.307-2.613,2.613-4.355s1.307-1.742,1.307-1.742v-1.742l-3.049-2.178
			c0,0-1.742,0-2.178-3.92s-2.613-13.502-2.613-13.502l-9.146-9.582l-2.613,1.162l-1.307,0.58l1.307,2.469l2.613,4.936
			C178.719,177.557,178.719,190.188,178.719,190.188z M180.026,215.014v-2.613l1.742-7.404l2.613-6.533l1.307-10.889l3.049,12.195
			c0,0-0.871,2.613-2.178,4.791s-2.178,5.662-5.227,10.889S180.026,215.014,180.026,215.014z"/>
		<path fill="#F1D9A7" d="M275.846,199.77c0-3.484,0-5.662,0-5.662l0.871-2.178c0,0,1.742-5.227,0-6.969s-8.275-6.098-8.275-6.098
			l-2.178-1.307l-10.018,1.307h-5.227c0,0-3.92,1.307-6.098,1.307s-6.969,1.307-6.969,1.307l-5.227,1.742
			c0,0-2.178,0.436-2.178,3.049s-0.436,3.92-2.178,5.662s-0.871,0.871-4.791,4.791s-6.969,4.791-8.275,7.84s-1.742,2.178-3.92,6.969
			s-5.662,11.76-5.662,13.938s-0.871,6.533,0,8.711s0.871,2.178,3.484,5.662s6.533,5.662,6.533,5.662s2.178,1.307,3.484,3.049
			s6.533,6.098,6.533,6.098c0.128,0.019,0.243,0.027,0.362,0.037c1.776,0.162,2.657-0.507,4.321-1.686
			c0.889-0.63,1.996-1.4,3.592-2.271c4.791-2.613,3.92-2.613,6.969-4.355s4.355-0.436,4.791-3.049
			c0.357-2.144,0.422-1.655,0.432-4.056c0.004-0.524,0.004-1.183,0.004-2.042c0-4.791,0-6.098,0-6.098s-0.436-3.484,4.355,0
			s7.404,4.791,7.404,4.791c0.089,0.025,0.168,0.05,0.252,0.073c4.391,1.266,0.74,2.104,7.152,2.104c0.818,0,1.487,0,2.035,0
			c1.186-1.572,2.337-3.171,3.462-4.791c-0.366,0-0.74,0-1.142,0c-1.742,0-6.098,0-10.018-2.178s-4.791-0.436-8.275-1.742
			s-5.227,0-11.76,0s-8.711,0-16.115-0.436s-5.662-2.613-5.662-2.613l0.436-4.791l0.871-3.92l4.355-6.098
			c0,0,6.098-4.355,7.404-6.969s0.871-4.791,0.871-4.791l4.791-8.711c0,0,9.582-4.355,10.889-4.355s7.84,5.227,7.84,5.227
			l7.84,5.227c0,0,1.742,4.355,3.049,6.533s0.436,6.098,0.871,7.84s6.969,4.355,6.969,4.355l5.44,3.35
			c1.773-3.281,3.424-6.639,4.951-10.062l-6.036-6.354C278.459,202.819,275.846,203.254,275.846,199.77z"/>
		<path fill="#F1D9A7" d="M250.584,150.553c-1.307-0.436-5.662-5.226-5.662-5.226l-1.742-2.613v-3.92l-2.613-2.613l-3.92-0.871
			l-3.484-0.436l-7.404-3.484l-9.582-4.791l-5.227-3.049l-4.791-4.791l-4.791-4.355l-3.049-3.92c0,0-2.178-1.307-3.92-1.307
			s-2.613,2.613-2.613,2.613l-2.178-1.307l-3.484-0.871l-0.871,6.533l2.178,4.791l1.742,0.436l1.742,1.742l1.307,2.178l4.791,8.711
			l1.742,0.871l3.92,0.436l2.178-0.871l3.049-0.436c0,0,0,0.436,1.307,3.049s1.307,2.613,1.307,2.613l0.871,1.742l0.436,3.92
			l3.92,6.097c0,0-0.436-2.177,3.484,0.871c3.92,3.049,3.92,3.049,3.92,3.049s1.307,0.871,1.307,2.178s0.436,4.791,0.436,4.791
			l3.049,1.742l5.227,0.436l2.178,1.742l6.098,1.307c0,0,4.791,3.92,6.098,0s2.613-5.662,2.613-9.582s0.436-6.098,0.436-6.098
			S251.891,150.989,250.584,150.553z M234.905,157.086l-2.178-3.92l-5.227-5.662l-1.742-1.307l-8.275-8.275l9.146,3.92l7.84,3.484
			l6.533,9.582l3.049,3.92L234.905,157.086z"/>
		<path fill="#D7EBD2" d="M267.135,211.53c-0.436-1.742,0.436-5.662-0.871-7.84s-3.049-6.533-3.049-6.533l-7.84-5.227
			c0,0-6.533-5.227-7.84-5.227s-10.889,4.355-10.889,4.355l-4.791,8.711c0,0,0.436,2.178-0.871,4.791s-7.404,6.969-7.404,6.969
			l-4.355,6.098l-0.871,3.92l-0.436,4.791c0,0-1.742,2.178,5.662,2.613s9.582,0.436,16.115,0.436s8.275-1.307,11.76,0
			s4.355-0.436,8.275,1.742s8.275,2.178,10.018,2.178c0.401,0,0.775,0,1.142,0c3.134-4.516,6.028-9.211,8.654-14.072l-5.44-3.35
			C274.104,215.885,267.571,213.272,267.135,211.53z"/>
		<polygon fill="#D7EBD2" points="234.469,145.327 226.629,141.843 217.483,137.923 225.758,146.198 227.5,147.505 232.727,153.167 
			234.905,157.086 244.051,158.829 241.002,154.909 		"/>
		<path fill="#D7EBD2" d="M181.333,215.45c3.049-5.227,3.92-8.711,5.227-10.889s2.178-4.791,2.178-4.791l-3.049-12.195
			l-1.307,10.889l-2.613,6.533l-1.742,7.404v2.613C180.026,215.014,178.284,220.676,181.333,215.45z"/>
		<path fill="#E1B098" d="M156.506,191.93c0,0,0,6.969,0,8.711s0,3.92,0,3.92l-8.711-5.662l-1.307-2.178
			c0,0-0.871-0.871-1.742,0.436s-2.613,3.484-4.355,4.355s-3.049,2.613-3.484,3.92s-0.436,1.307-0.436,1.307l-3.484,3.484
			l-3.484-6.098l-6.969-2.178l-2.178,7.404l4.355,8.275l6.098,6.098l3.92,1.307l1.307,2.178c0,0-4.791,1.742,0.871,2.178
			s9.146,0.436,9.146,0.436s-0.871,2.613,3.049-1.742c3.92-4.355,3.049-2.178,5.663-6.533s3.92-2.613,4.355-6.098
			s0-4.355,1.307-6.533s3.484-10.889,3.484-10.889s0-3.484,0-4.791s-1.742-5.227-1.742-5.227L156.506,191.93z"/>
		<path fill="#E1B098" d="M149.102,135.31l2.178,1.307l2.178,3.484l-3.049,3.484l2.178,3.049l3.049,3.048l0.436-4.791l0.436-1.742
			c0,0,0.436,0,3.049-2.613s2.613-2.613,2.613-2.613v-3.049l-7.84-1.742l-3.92-0.871h-3.92h-1.742l-0.871,2.613l1.742,0.436H149.102
			z"/>
		<path fill="#27120D" d="M86.818,282.088l-3.484-4.791c0,0-2.178-2.613-2.178-4.791s-0.871-8.711-0.871-8.711
			s-0.436-6.969-0.436-8.711s0-6.533,0-7.84s2.613-3.049,2.613-3.049s3.326-1.111,3.845-2.65c0.044-0.13,0.075-0.263,0.075-0.398
			c0-1.742,0.436-10.018-1.307-12.631s-5.227-7.404-5.227-7.404l-2.178-1.742l-3.049-1.742c0,0-6.533,0.871-7.84,1.742
			s-1.742,1.742-1.742,3.049c0,0.757,0,2.535,0,3.899c0,0.99,0,1.763,0,1.763l3.92,1.742c0,0,2.613,1.307,2.613,2.613
			s-1.307,3.484-1.307,3.484l-2.178,1.742l-0.436,3.92c0,0-0.871,1.742,0,3.484s1.742,3.92,1.742,3.92l0.436,3.049
			c0,0,0,1.742,0,3.049s0,3.92,0,5.662s0,3.484,0,3.484s1.307,0.436,0,1.307s-2.613,0.871-2.613,0.871h-2.178h-2.178h-3.484
			l-1.111,0.279c9.351,7.173,19.576,13.259,30.492,18.069L86.818,282.088z"/>
		<path fill="#141416" d="M0,148.667c0,30.884,9.419,59.566,25.539,83.335c0.079-2.955,0.121-6.139-0.133-7.406
			c-0.436-2.178-1.742-4.791-3.484-7.404s-2.613-6.098-2.613-6.098s0-5.662,0-9.582s0-12.631,0.871-14.373s0.871-4.791,0.871-4.791
			v-3.92l-4.355-7.404l2.178-3.484c0,0,0.871-4.355,1.307-6.969s1.742-6.969,1.742-6.969s0.871,0,1.742-1.307
			s2.178-2.178,2.613-4.355c0.436-2.178,1.307-4.355,1.307-6.969s0-7.404,0-7.404s0-4.791,0.871-7.404s2.613-7.404,2.613-7.404
			l1.742-3.484c0,0,0.436-1.307,2.613-4.791s3.049-1.307,3.92-6.533s0.436-9.146,2.613-12.195s2.613-4.791,2.613-4.791
			s1.307-0.871,3.484-4.355s2.178-5.662,3.049-7.404s0.871-4.791,0.871-4.791s2.178-0.871,2.613-2.178s3.484-3.049,3.484-3.049
			s0.871,0.436,1.742-1.742s3.484-5.662,3.484-5.662l1.742-3.049l6.969-7.84l3.049-3.92c0,0,3.92-3.049,4.791-5.227
			s3.92-4.791,3.92-4.791l2.178-2.178l5.662-3.484l0.871-2.178c0,0,0-2.613,2.613-3.049s6.098-2.178,6.098-2.178l1.742-0.436
			l2.178-6.969c0,0,1.742-1.742,3.92-2.613s2.613-1.742,5.227-2.178s9.582-3.92,9.582-3.92l3.484-1.742c0,0,0.225-0.217,0.591-0.583
			C55.634,11.545,0,73.604,0,148.667z"/>
		<path fill="#5E4532" d="M181.768,7.694l-6.969-2.178h-5.662l-11.76,6.969c0,0-0.871-0.871-3.92,1.307s-6.969,4.355-6.969,4.355
			l2.613,1.742l-0.871,4.355l-6.969-1.307h-4.791l-3.92,1.742l-0.436,3.049c0,0,0,3.049,0,4.355s0,4.355,0,4.355l-5.662,5.662
			l-4.355,2.613c0,0,1.119,0.279,2.49,0.579l7.528-0.579v1.307c0.266,0,0.436,0,0.436,0s4.355-2.178,4.355-3.484s0-5.227,0-5.227
			s1.742-1.742,3.484-3.484s4.791-4.355,4.791-4.355c2.613-0.436,2.613,0.436,8.711-2.613c6.098-3.049,9.582-4.791,9.582-4.791
			l3.484,0.436c0,0,1.742-3.049,3.484-3.049s0.436-0.871,6.098-1.742s6.533-1.307,8.711-1.742s6.533-0.871,6.533-0.871
			s2.613,0,3.92,0s3.484,0,5.662,0s1.742-1.307,4.791,0s6.533,2.613,6.533,2.613s-0.871-1.307,1.307,0.871s3.92,3.049,3.92,3.049
			s0.871,0,2.613,0c1.21,0,3.473,0.209,5.472,0.045c-12.566-7.668-26.361-13.52-41.019-17.201L181.768,7.694z"/>
		<path fill="#5E4532" d="M68.09,201.512l-4.076-4.347l-2.457-2.622c0,0-0.436-3.92-0.436-5.227s-0.871-8.275-0.871-9.582
			s-0.871-5.662-1.742-7.404s0-10.018,0-13.066s0.871-4.355,0.871-4.355l0.871-6.968v-9.146l5.661-8.302l-0.434-5.2l-0.436-5.662
			l3.92-5.662l1.524,1.742l1.089-2.178c0,0,0-6.098,0-7.404s0.436-1.742,1.307-3.92s1.307-5.662,1.307-5.662l0.738-0.633
			l5.359-4.594l4.355-6.969l1.935-2.659l1.55-2.132l3.92-3.484l4.355-2.613l2.178-2.613l3.049-3.92l1.742-0.436l2.613-0.871
			l0.871-2.613l1.307-2.613h3.92l0.436-2.613l-1.742-1.307h-1.742h-3.92l-5.227,1.307l-1.307,0.871l-0.436,1.307l-2.613,1.742
			l-2.613-2.613h-1.742l-3.484,2.613c0,0-2.613,2.178-5.227,4.791s-3.92,4.791-5.662,6.533s-2.178,3.049-4.791,6.533
			s-2.178,5.227-3.484,6.533s-2.613,4.791-2.613,4.791l-3.92,5.662l-0.871,7.404c0,0-2.613,9.582-3.484,11.76
			s-1.307,6.969-1.307,6.969l-2.178,4.791l-1.742,3.92c0,0-1.307,4.355-2.613,8.711s-2.178,6.098-2.613,9.146
			c-0.436,3.048,0,3.048-0.436,6.533s0,6.533,0,10.018s0,2.613,0,3.92s3.484,5.227,3.484,5.227l0.871,6.098v1.307
			c0,0-0.436,3.049-0.436,4.791s-0.436,3.049-0.436,3.049s0,2.613-0.871,4.355s-0.871,2.613-1.307,3.92s0,3.484,0,5.227
			s0,2.613-0.436,5.227s-1.742,3.92-1.742,3.92s0,5.227,0,6.969s1.307,2.178,1.307,2.178l3.92-0.871l0.871-5.662l2.613-2.613
			l4.355-4.355l0.871-2.613L68.09,201.512z"/>
		<polygon fill="#8B2B1C" points="72.01,125.728 72.01,117.452 70.485,115.71 68.961,113.968 65.041,119.63 65.477,125.292 
			65.911,130.492 65.912,130.519 		"/>
		<polygon fill="#8B2B1C" points="109.467,69.978 109.031,66.929 102.498,68.235 100.756,69.978 102.934,73.026 		"/>
		<path fill="#8B2B1C" d="M112.516,57.782l-0.436,2.613l5.227,0.871l10.018,1.307l0.871-6.969l3.92-5.662v-3.92v-1.307l-7.528,0.579
			l-3.796,0.292l-3.484,4.355c0,0-0.3,2.675-1.387,4.096c-0.228,0.297-0.488,0.544-0.791,0.695
			C113.387,55.604,112.516,57.782,112.516,57.782z"/>
		<path fill="#8B2B1C" d="M157.813,44.716l-3.92,1.742l-2.613,0.871l-1.743,0.871c0,0-2.178,0.436-3.484,1.742
			s-2.613,2.613-2.613,2.613l1.307,2.613l3.049,1.742l3.049,1.307l4.791,2.613l3.049,0.436l6.969-0.871l5.227-2.613l7.404,6.098
			l3.049-0.871l-1.742-4.791l-0.871-3.049l-3.049,0.871l-2.178-4.355l5.662,2.178l5.662,3.049l2.613-0.871l1.742-2.178l-4.355-2.613
			l-7.84-3.049l-6.969-0.436c0,0-2.178,0-3.92-0.436s-4.791-2.613-4.791-2.613H157.813z"/>
		<path fill="#8D4152" d="M167.831,36.006l3.193-0.581h3.195c0,0,7.549,0,9.291,0s5.227,0,5.227,0s3.484,0,4.646,0
			c1.16,0,4.064,0.871,4.064,0.871s6.098,4.355,6.969,4.355c0.562,0,2.565,1.323,4.388,2.265c1.007,0.521,1.96,0.929,2.581,0.929
			c0.988,0,2.439,0.466,3.728,0.87c0.98,0.308,1.868,0.581,2.37,0.581c1.162,0,2.613,0,2.613,0l3.484-0.58c0,0,0,1.161,0,2.032
			s-0.871,1.452-0.871,1.452v3.484l2.613,2.032l1.742,0.29h1.742l2.033,0.291h1.742l0.289,2.322c0,0,0.582,1.742,0.582,2.613
			c0,0.515,0.362,0.985,1.041,1.727c0.136,0.149,0.287,0.313,0.45,0.488c0.397,0.427,0.863,0.927,1.411,1.56
			c1.887,2.179,2.033-0.291,2.033-0.291s0.58-1.161,1.162-2.322c0.58-1.161,0.871-1.162,2.613-1.742s0,0,0.871,0
			s4.064,1.451,4.064,1.451s4.064,1.452,5.518,1.452c1.451,0,3.193,0,4.645-0.581s2.904-1.161,2.904-1.161v-5.227v-3.774
			l-4.064-4.646l-3.614-3.612l-0.452-0.453c0,0-2.031-0.581-2.902-1.162s-2.033,0-3.484-1.161c-1.453-1.161-3.775-0.29-3.775-0.29
			s-1.742,0.29-5.807,0.29c-4.066,0-3.775,0.29-5.809,0.29s-2.613-0.29-4.064-1.742s-0.58-1.742-0.58-2.613s0-1.451-1.742-3.484
			s-3.195-0.58-4.646-0.58s-2.033,0-2.322-0.871c-0.291-0.871-0.871-0.581-2.324-2.033c-1.451-1.452-2.322-1.742-3.484-1.451
			l-0.289,2.032c0,0-2.613,0-4.646,0s-2.033,0-4.064-0.581c-2.033-0.581-0.871-2.613-0.871-2.613s1.742,0,2.031-1.742
			c0.291-1.742,0-1.742,0-1.742l-3.484-2.613l-3.773,2.904c0,0-3.195,2.322-4.646,2.032s-3.193-0.581-4.064-0.871
			s-0.582-0.581-1.742-1.452c-1.162-0.871-2.904,1.452-2.904,1.452s0,0-1.742,2.323s-4.936,1.161-4.936,1.161s0,0-1.742-1.452
			s-4.646,1.162-4.646,1.162s-3.193,4.064-4.355,4.355s-3.775,4.064-3.775,4.064l1.162,2.033l2.613-0.871l0.979-0.164l0.764-0.127
			L167.831,36.006z"/>
		<path fill="#8D4152" d="M252.036,73.463c0,0,4.066,1.451,4.646,2.322s1.451,1.742,1.451,1.742s0.312,0.008,0.624,0.38
			c0.121,0.144,0.238,0.351,0.343,0.627c0.074,0.205,0.146,0.437,0.195,0.735c0.291,1.742,0.58,3.194,0.58,3.194l3.195,3.194
			l1.451,0.871l0.188-1.707l0.103-0.907l-0.291-1.162c0,0-0.291-0.29-0.291-1.161s0.58-2.612,0-3.774s-2.613-2.904-2.613-2.904
			l-3.773-2.903l-5.227-2.323l-4.066-2.613l-2.902-0.58l-1.162,0.29l1.162,1.742l-0.291,4.065l0.291,0.871h0.871h2.322H252.036z"/>
		<path fill="#EA9228" d="M155.2,184.961c0,0,0.436-3.484,0.436-4.791s0-2.613,0-4.355s-0.871-4.355-0.871-4.355l-4.355-3.92
			l-1.743,4.791c0,0,0.436,3.049,0.436,6.098s0,6.969,0,6.969L155.2,184.961z"/>
	</g>
</g>
</svg>
