<?xml version="1.0" encoding="utf-8"?>
<!-- Generator: Adobe Illustrator 12.0.0, SVG Export Plug-In . SVG Version: 6.00 Build 51448)  -->
<!DOCTYPE svg PUBLIC "-//W3C//DTD SVG 1.1//EN" "http://www.w3.org/Graphics/SVG/1.1/DTD/svg11.dtd" [
	<!ENTITY ns_svg "http://www.w3.org/2000/svg">
	<!ENTITY ns_xlink "http://www.w3.org/1999/xlink">
]>
<svg  version="1.1" xmlns="&ns_svg;" xmlns:xlink="&ns_xlink;" width="293.303" height="293.303" viewBox="0 0 293.303 293.303"
	 overflow="visible" enable-background="new 0 0 293.303 293.303" xml:space="preserve">

<g id="Layer_3">
</g>
<g id="Layer_2">
	<g>
		<path fill="none" d="M22.573,68.458c0.26-0.411,0.518-0.823,0.782-1.232C23.091,67.635,22.833,68.047,22.573,68.458z"/>
		<path fill="none" d="M292.705,159.856c-0.066,0.744-0.132,1.488-0.21,2.229C292.573,161.345,292.639,160.601,292.705,159.856z"/>
		<path fill="none" d="M284.61,196.489c-0.296,0.817-0.602,1.629-0.911,2.438C284.009,198.118,284.314,197.307,284.61,196.489z"/>
		<path fill="none" d="M293.202,151.818c-0.03,0.867-0.059,1.736-0.104,2.6C293.144,153.555,293.172,152.686,293.202,151.818z"/>
		<path fill="none" d="M293.303,146.651c0,1.302-0.019,2.601-0.052,3.896C293.284,149.252,293.303,147.953,293.303,146.651z"/>
		<path fill="none" d="M292.311,163.704c-0.084,0.727-0.169,1.454-0.263,2.178C292.142,165.158,292.227,164.431,292.311,163.704z"/>
		<path fill="none" d="M287.981,185.906c-0.203,0.73-0.412,1.457-0.626,2.183C287.569,187.363,287.778,186.637,287.981,185.906z"/>
		<path fill="none" d="M286.944,189.474c-0.228,0.747-0.464,1.49-0.704,2.232C286.48,190.964,286.717,190.221,286.944,189.474z"/>
		<path fill="none" d="M285.819,193.002c-0.257,0.774-0.524,1.544-0.795,2.313C285.295,194.546,285.563,193.776,285.819,193.002z"/>
		<path fill="none" d="M142.608,0.058c0.213-0.006,0.428-0.01,0.642-0.015C143.036,0.048,142.821,0.052,142.608,0.058z"/>
		<path fill="none" d="M95.269,9.264c0.512-0.192,1.023-0.383,1.538-0.569C96.292,8.881,95.781,9.071,95.269,9.264z"/>
		<path fill="none" d="M293.003,155.927c-0.05,0.779-0.097,1.56-0.156,2.337C292.906,157.486,292.953,156.706,293.003,155.927z"/>
		<path fill="none" d="M105.694,5.805c0.434-0.127,0.868-0.253,1.304-0.375C106.562,5.552,106.128,5.678,105.694,5.805z"/>
		<path fill="none" d="M109.491,4.755c0.404-0.105,0.81-0.208,1.215-0.31C110.301,4.547,109.896,4.649,109.491,4.755z"/>
		<path fill="none" d="M102.043,6.918c0.648-0.207,1.298-0.41,1.951-0.608C103.341,6.508,102.691,6.711,102.043,6.918z"/>
		<path fill="none" d="M99,7.923c0.484-0.167,0.972-0.33,1.459-0.491C99.972,7.593,99.485,7.756,99,7.923z"/>
		<path fill="none" d="M127.481,1.247c0.268-0.035,0.536-0.071,0.805-0.104C128.017,1.176,127.749,1.212,127.481,1.247z"/>
		<path fill="none" d="M124.022,1.739c0.212-0.033,0.425-0.065,0.638-0.098C124.447,1.674,124.235,1.706,124.022,1.739z"/>
		<path fill="none" d="M120.294,2.367c0.319-0.059,0.639-0.114,0.959-0.169C120.933,2.253,120.613,2.309,120.294,2.367z"/>
		<path fill="none" d="M173.616,290.819c-0.576,0.107-1.152,0.213-1.73,0.313C172.464,291.032,173.039,290.927,173.616,290.819z"/>
		<path fill="none" d="M116.456,3.119c0.346-0.073,0.691-0.146,1.038-0.216C117.147,2.973,116.802,3.046,116.456,3.119z"/>
		<path fill="none" d="M288.931,182.301c-0.181,0.72-0.365,1.437-0.557,2.151C288.565,183.737,288.75,183.021,288.931,182.301z"/>
		<path fill="none" d="M253.556,247.028c-0.733,0.781-1.476,1.554-2.227,2.318C252.08,248.582,252.822,247.81,253.556,247.028z"/>
		<path fill="none" d="M291.587,169.145c0.083-0.545,0.155-1.094,0.233-1.641c-0.066,0.467-0.136,0.933-0.206,1.397L291.587,169.145
			z"/>
		<path fill="none" d="M289.298,180.791c0.141-0.587,0.279-1.174,0.411-1.764c-0.009,0.031-0.017,0.063-0.025,0.094
			C289.557,179.679,289.432,180.236,289.298,180.791z"/>
		<path fill="none" d="M256.026,244.332c-0.69,0.772-1.389,1.536-2.095,2.294C254.638,245.868,255.336,245.104,256.026,244.332z"/>
		<path fill="none" d="M258.432,241.571c-0.656,0.772-1.32,1.537-1.993,2.296C257.111,243.108,257.775,242.344,258.432,241.571z"/>
		<path fill="none" d="M283.316,199.938c-0.348,0.89-0.706,1.771-1.07,2.651C282.61,201.709,282.969,200.827,283.316,199.938z"/>
		<polygon fill="none" points="27.356,61.345 27.348,61.357 27.348,61.357 		"/>
		<path fill="none" d="M43.394,42.523c-0.438,0.434-0.87,0.873-1.303,1.313C42.524,43.396,42.956,42.957,43.394,42.523
			L43.394,42.523z"/>
		<path fill="none" d="M55.349,31.893c-0.168,0.134-0.334,0.27-0.502,0.404c0.165-0.133,0.333-0.265,0.499-0.397L55.349,31.893z"/>
		<path fill="none" d="M248.651,252.007c0,0.001,0,0.002-0.001,0.002c0.801-0.774,1.593-1.559,2.374-2.352
			C250.243,250.45,249.451,251.232,248.651,252.007z"/>
		<path fill="none" d="M271.573,223.492c-0.575,0.935-1.16,1.863-1.756,2.784C270.413,225.355,270.998,224.427,271.573,223.492z"/>
		<path fill="none" d="M280.479,206.706c-2.053,4.565-4.331,9.007-6.822,13.31C276.146,215.713,278.427,211.272,280.479,206.706z"/>
		<path fill="none" d="M273.623,220.07c-0.603,1.042-1.219,2.074-1.847,3.099C272.404,222.145,273.021,221.112,273.623,220.07z"/>
		<path fill="none" d="M281.938,203.344c-0.434,1.032-0.88,2.058-1.335,3.077C281.059,205.401,281.506,204.376,281.938,203.344z"/>
		<path fill="none" d="M263.049,235.855c-0.604,0.788-1.217,1.57-1.839,2.347C261.832,237.426,262.444,236.644,263.049,235.855z"/>
		<path fill="none" d="M260.772,238.747c-0.628,0.777-1.265,1.548-1.907,2.312C259.508,240.294,260.145,239.524,260.772,238.747z"/>
		<path fill="none" d="M269.519,226.729c-0.57,0.874-1.148,1.742-1.737,2.604C268.37,228.471,268.948,227.603,269.519,226.729z"/>
		<path fill="none" d="M265.264,232.895c-0.587,0.806-1.182,1.606-1.785,2.4C264.082,234.501,264.677,233.7,265.264,232.895z"/>
		<path fill="none" d="M267.418,229.855c-0.575,0.834-1.157,1.663-1.75,2.483C266.261,231.518,266.843,230.689,267.418,229.855z"/>
		<path fill="none" d="M112.898,3.91c0.426-0.101,0.854-0.198,1.281-0.296C113.751,3.711,113.324,3.81,112.898,3.91z"/>
		<path fill="none" d="M2.282,120.741c0.011-0.057,0.021-0.112,0.031-0.169C2.304,120.629,2.293,120.685,2.282,120.741z"/>
		<path fill="none" d="M1.619,124.824c0.045-0.306,0.091-0.611,0.139-0.916C1.71,124.213,1.665,124.519,1.619,124.824z"/>
		<path fill="none" d="M2.898,117.522c0.063-0.313,0.128-0.626,0.193-0.938C3.026,116.897,2.961,117.209,2.898,117.522z"/>
		<path fill="none" d="M1.161,128.133c0.026-0.211,0.057-0.421,0.084-0.631C1.217,127.713,1.187,127.922,1.161,128.133z"/>
		<path fill="none" d="M17.358,77.397c0.207-0.386,0.415-0.771,0.625-1.154C17.772,76.627,17.565,77.012,17.358,77.397z"/>
		<path fill="none" d="M14.135,83.772c0.168-0.354,0.335-0.709,0.506-1.061C14.47,83.063,14.303,83.418,14.135,83.772z"/>
		<path fill="none" d="M0.71,132.194c0.027-0.274,0.052-0.55,0.081-0.824C0.762,131.645,0.737,131.92,0.71,132.194z"/>
		<path fill="none" d="M19.055,74.326c0.271-0.479,0.546-0.954,0.823-1.43C19.601,73.372,19.326,73.848,19.055,74.326z"/>
		<path fill="none" d="M15.912,80.152c0.173-0.339,0.352-0.676,0.527-1.014C16.264,79.477,16.085,79.813,15.912,80.152z"/>
		<path fill="none" d="M162.873,292.405c-0.546,0.061-1.093,0.122-1.641,0.178C161.78,292.527,162.327,292.466,162.873,292.405z"/>
		<path fill="none" d="M0.41,135.659c0.02-0.276,0.044-0.552,0.066-0.828C0.454,135.107,0.43,135.383,0.41,135.659z"/>
		<path fill="none" d="M159.207,292.762c-0.526,0.045-1.053,0.094-1.582,0.133C158.154,292.855,158.681,292.807,159.207,292.762z"/>
		<path fill="none" d="M166.491,291.962c-0.559,0.075-1.117,0.152-1.678,0.222C165.374,292.114,165.933,292.037,166.491,291.962z"/>
		<path fill="none" d="M170.069,291.434c-0.568,0.091-1.135,0.182-1.705,0.267C168.935,291.615,169.501,291.524,170.069,291.434z"/>
		<path fill="none" d="M20.901,71.166c0.243-0.402,0.487-0.804,0.733-1.204C21.388,70.362,21.144,70.764,20.901,71.166z"/>
		<path fill="none" d="M0.043,143.277c0.007-0.305,0.016-0.609,0.024-0.914C0.059,142.668,0.05,142.973,0.043,143.277z"/>
		<path fill="none" d="M155.471,293.031c-0.493,0.029-0.984,0.064-1.479,0.089C154.486,293.096,154.978,293.061,155.471,293.031z"/>
		<path fill="none" d="M91.583,10.702c0.826-0.336,1.656-0.663,2.488-0.983C93.238,10.039,92.409,10.366,91.583,10.702z"/>
		<path fill="none" d="M151.567,293.212c-0.412,0.014-0.821,0.034-1.234,0.045C150.746,293.246,151.155,293.226,151.567,293.212z"/>
		<path fill="none" d="M0.174,139.556c0.01-0.2,0.017-0.401,0.027-0.601C0.19,139.154,0.184,139.355,0.174,139.556z"/>
		<path fill="none" d="M68.74,22.396c1.167-0.732,2.346-1.45,3.535-2.15C71.085,20.946,69.907,21.664,68.74,22.396z"/>
		<path fill="none" d="M60.617,27.888c1.755-1.273,3.539-2.509,5.352-3.705C64.156,25.379,62.372,26.614,60.617,27.888z"/>
		<path fill="none" d="M24.751,65.104c0.275-0.409,0.554-0.815,0.833-1.223C25.306,64.288,25.026,64.694,24.751,65.104z"/>
		<path fill="none" d="M66.602,23.766c0.585-0.382,1.172-0.761,1.763-1.135C67.774,23.005,67.188,23.384,66.602,23.766z"/>
		<path fill="none" d="M75.218,18.556c1.301-0.727,2.612-1.438,3.937-2.125C77.831,17.118,76.519,17.829,75.218,18.556z"/>
		<path fill="none" d="M79.178,16.418c0.555-0.288,1.114-0.571,1.674-0.854C80.292,15.847,79.733,16.13,79.178,16.418z"/>
		<path fill="none" d="M85.254,13.443c0.934-0.432,1.873-0.852,2.817-1.264C87.127,12.592,86.188,13.012,85.254,13.443z"/>
		<path fill="none" d="M88.876,11.827c0.542-0.232,1.086-0.46,1.631-0.687C89.962,11.367,89.418,11.595,88.876,11.827z"/>
		<path fill="none" d="M81.638,15.174c0.913-0.452,1.832-0.896,2.756-1.329C83.469,14.278,82.551,14.722,81.638,15.174z"/>
		<path fill="none" d="M72.791,19.94c0.606-0.354,1.216-0.704,1.829-1.05C74.007,19.236,73.397,19.586,72.791,19.94z"/>
		<path fill="none" d="M52.655,34.091c0.508-0.425,1.02-0.845,1.533-1.264C53.674,33.246,53.163,33.666,52.655,34.091z"/>
		<path fill="none" d="M35.245,51.29c0.374-0.436,0.75-0.869,1.128-1.301C35.995,50.421,35.618,50.854,35.245,51.29z"/>
		<path fill="none" d="M32.645,54.414c0.569-0.703,1.146-1.4,1.728-2.093C33.791,53.014,33.214,53.711,32.645,54.414z"/>
		<path fill="none" d="M28.895,59.236c0.309-0.414,0.623-0.824,0.935-1.235C29.517,58.412,29.203,58.822,28.895,59.236z"/>
		<path fill="none" d="M30.721,56.839c0.333-0.429,0.667-0.856,1.004-1.282C31.388,55.982,31.053,56.409,30.721,56.839z"/>
		<path fill="none" d="M47.248,38.841c0.47-0.434,0.943-0.865,1.418-1.294C48.191,37.976,47.718,38.407,47.248,38.841z"/>
		<path fill="none" d="M49.275,37.008c0.907-0.807,1.824-1.602,2.751-2.385C51.099,35.406,50.182,36.201,49.275,37.008z"/>
		<path fill="none" d="M37.208,49.049c0.68-0.763,1.368-1.517,2.063-2.265C38.576,47.533,37.888,48.286,37.208,49.049z"/>
		<path fill="none" d="M40.043,45.957c0.415-0.439,0.834-0.875,1.255-1.31C40.878,45.082,40.458,45.518,40.043,45.957z"/>
		<path d="M3.271,115.755c-0.06,0.277-0.123,0.552-0.18,0.829c-0.065,0.313-0.13,0.625-0.193,0.938
			c-0.204,1.013-0.401,2.029-0.584,3.05c-0.01,0.057-0.021,0.112-0.031,0.169c-0.187,1.051-0.359,2.107-0.524,3.167
			c-0.048,0.305-0.093,0.61-0.139,0.916c-0.133,0.89-0.258,1.782-0.375,2.678c-0.027,0.21-0.058,0.42-0.084,0.631
			c-0.136,1.075-0.258,2.154-0.37,3.237c-0.029,0.274-0.054,0.55-0.081,0.824c-0.086,0.877-0.164,1.756-0.234,2.637
			c-0.022,0.276-0.046,0.552-0.066,0.828c-0.082,1.096-0.152,2.193-0.209,3.296c-0.01,0.199-0.017,0.4-0.027,0.601
			c-0.044,0.934-0.08,1.87-0.106,2.808c-0.009,0.305-0.018,0.609-0.024,0.914C0.018,144.399,0,145.523,0,146.651
			c0,28.183,7.957,54.503,21.735,76.852c-7.986-13.141-13.37-26.758-16.25-39.239C1.391,166.522-1.096,140.29,3.271,115.755z"/>
		<path d="M73.449,19.934l-0.077,0.269c1.449-0.844,3.338-1.924,5.465-3.091c0.113-0.23,0.226-0.461,0.338-0.692
			c-0.006,0.004-0.013,0.008-0.02,0.012c-1.325,0.688-2.636,1.398-3.937,2.125c-0.199,0.111-0.4,0.222-0.599,0.335
			c-0.612,0.346-1.222,0.695-1.829,1.05c-0.173,0.101-0.344,0.204-0.517,0.306c-1.189,0.7-2.367,1.418-3.535,2.15
			c-0.125,0.079-0.25,0.156-0.375,0.234c-0.591,0.374-1.178,0.753-1.763,1.135c-0.211,0.139-0.422,0.277-0.633,0.417
			c-1.813,1.196-3.597,2.432-5.352,3.705c-0.206,0.149-0.41,0.299-0.616,0.449l8.375-5.36L73.449,19.934z"/>
		<path d="M26.02,63.252c-0.145,0.21-0.292,0.419-0.436,0.629c-0.278,0.407-0.558,0.813-0.833,1.223
			c-0.471,0.704-0.937,1.41-1.396,2.122c-0.264,0.409-0.522,0.821-0.782,1.232c-0.316,0.5-0.629,1-0.939,1.504
			c-0.246,0.4-0.491,0.802-0.733,1.204c-0.345,0.574-0.686,1.151-1.023,1.73c-0.277,0.476-0.552,0.951-0.823,1.43
			c-0.362,0.637-0.72,1.275-1.072,1.917c-0.21,0.384-0.417,0.769-0.625,1.154c-0.31,0.578-0.616,1.158-0.918,1.741
			c-0.176,0.338-0.354,0.675-0.527,1.014c-0.432,0.849-0.855,1.702-1.271,2.56c-0.171,0.352-0.337,0.706-0.506,1.061
			c-0.249,0.523-0.493,1.049-0.736,1.575c0.553-1.024,1.126-2.035,1.723-3.03C22.045,70.778,24.81,65.586,26.02,63.252z"/>
		<path d="M30.845,59.494c0,0,3.55-7.608,9.129-13.188c1.489-1.489,2.578-2.578,3.379-3.378l0.041-0.405
			c-0.438,0.434-0.87,0.873-1.303,1.313c-0.265,0.27-0.53,0.541-0.792,0.812c-0.421,0.435-0.84,0.87-1.255,1.31
			c-0.26,0.273-0.515,0.552-0.771,0.827c-0.696,0.748-1.384,1.502-2.063,2.265c-0.279,0.313-0.559,0.626-0.835,0.94
			c-0.378,0.432-0.755,0.865-1.128,1.301c-0.292,0.342-0.583,0.687-0.872,1.031c-0.582,0.692-1.158,1.39-1.728,2.093
			c-0.308,0.38-0.616,0.76-0.92,1.143c-0.337,0.426-0.672,0.854-1.004,1.282c-0.299,0.386-0.596,0.773-0.891,1.162
			c-0.313,0.411-0.626,0.821-0.935,1.235c-0.519,0.698-1.031,1.401-1.538,2.108c-0.002,0.004-0.005,0.008-0.008,0.013
			C27.705,61.362,28.472,61.273,30.845,59.494z"/>
		<path d="M55.346,31.899c-0.167,0.133-0.334,0.265-0.499,0.397c-0.22,0.177-0.44,0.353-0.659,0.53
			c-0.513,0.419-1.024,0.839-1.533,1.264c-0.21,0.176-0.419,0.355-0.629,0.532c-0.927,0.783-1.844,1.578-2.751,2.385
			c-0.203,0.18-0.407,0.358-0.608,0.539c-0.476,0.429-0.948,0.86-1.418,1.294c-0.163,0.149-0.323,0.301-0.485,0.451l7.263-4.357
			L55.346,31.899z"/>
		<polygon points="39.467,61.523 41.353,62.684 43.047,45.949 39.467,53.408 		"/>
		<path d="M139.891,292.803c-22.824-1.521-52.241-8.115-81.658-29.417c-3.658-2.649-7.127-5.455-10.411-8.39
			c26.069,23.794,60.753,38.307,98.829,38.307c1.231,0,2.458-0.017,3.682-0.046c0.413-0.011,0.822-0.031,1.234-0.045
			c0.81-0.026,1.619-0.052,2.425-0.092c0.494-0.024,0.985-0.06,1.479-0.089c0.719-0.043,1.438-0.084,2.154-0.137
			c0.529-0.039,1.056-0.088,1.582-0.133c0.676-0.057,1.353-0.113,2.025-0.179c0.548-0.056,1.095-0.117,1.641-0.178
			c0.648-0.071,1.296-0.143,1.94-0.222c0.561-0.069,1.119-0.146,1.678-0.222c0.625-0.085,1.25-0.169,1.873-0.262
			c0.57-0.085,1.137-0.176,1.705-0.267c0.606-0.098,1.212-0.196,1.816-0.301c0.578-0.101,1.154-0.206,1.73-0.313
			c0.263-0.049,0.526-0.101,0.79-0.151c-0.466-0.056-0.972-0.13-1.52-0.225C165.968,291.942,154.111,293.75,139.891,292.803z"/>
		<path fill="#E32826" d="M88.157,12.325c8.296-3.903,16.12-5.46,18.959-6.928c-0.039,0.011-0.08,0.021-0.119,0.032
			c-0.436,0.122-0.87,0.248-1.304,0.375c-0.568,0.164-1.134,0.334-1.7,0.505c-0.653,0.198-1.303,0.401-1.951,0.608
			c-0.529,0.169-1.058,0.339-1.584,0.514C99.972,7.593,99.484,7.756,99,7.923c-0.734,0.251-1.465,0.509-2.193,0.771
			c-0.514,0.187-1.026,0.377-1.538,0.569c-0.4,0.149-0.799,0.302-1.198,0.455c-0.833,0.32-1.662,0.647-2.488,0.983
			c-0.358,0.145-0.718,0.29-1.075,0.438c-0.545,0.227-1.09,0.454-1.631,0.687c-0.27,0.116-0.537,0.235-0.806,0.353
			c-0.944,0.412-1.883,0.832-2.817,1.264c-0.288,0.132-0.574,0.267-0.86,0.401c-0.924,0.434-1.843,0.877-2.756,1.329
			c-0.262,0.131-0.524,0.26-0.786,0.391c-0.56,0.282-1.119,0.565-1.674,0.854c-0.001,0-0.002,0.001-0.003,0.001
			c-0.113,0.231-0.225,0.462-0.338,0.692C81.685,15.548,84.956,13.832,88.157,12.325z"/>
		<path fill="#E32826" d="M108.404,111.719c0.102,0.717,0.191,1.37,0.267,1.934c0.109-0.217,0.221-0.433,0.337-0.649
			C108.771,112.498,108.567,112.065,108.404,111.719z"/>
		<path fill="#E32826" d="M99.15,9.97l30.206-8.949c-0.357,0.042-0.714,0.078-1.069,0.122c-0.269,0.033-0.537,0.069-0.805,0.104
			c-0.943,0.123-1.883,0.254-2.82,0.395c-0.213,0.032-0.426,0.064-0.638,0.098c-0.926,0.144-1.849,0.298-2.77,0.459
			c-0.32,0.055-0.64,0.11-0.959,0.169c-0.937,0.17-1.87,0.349-2.8,0.536c-0.346,0.069-0.692,0.143-1.038,0.216
			c-0.762,0.159-1.52,0.324-2.277,0.495c-0.427,0.098-0.854,0.195-1.281,0.296c-0.733,0.173-1.463,0.352-2.192,0.535
			c-0.405,0.102-0.811,0.204-1.215,0.31c-0.79,0.206-1.577,0.42-2.361,0.639l-7.815,4.396L99.15,9.97z"/>
		<path fill="#E32826" d="M107.728,107.17c0.149,0.946,0.289,1.873,0.418,2.752l0.717-2.752H107.728z"/>
		<path fill="#E32826" d="M142.934,3.703l-2.536,1.015c0,0-4.564,3.043-6.593,3.043s-3.55-1.015-5.072-1.015s-4.057,0-4.057,0
			h-8.115l-1.521,1.015c0,0-0.818,0.917-2.172,2.064l4.201-1.05l17.245,1.521l2.536,1.014c0,0,6.086,2.029,7.101,3.551
			s13.693,2.536,13.693,2.536s9.638-3.551,16.23-3.551c1.994,0,3.289,0.325,4.171,0.778l1.408-3.821c0,0,9.13,6.086,11.666,7.101
			s9.129,3.043,11.158,3.551c2.028,0.507,9.636,6.594,9.636,6.594l9.13,5.579c0,0,4.991,5.872,7.825,9.573l0.797,0.57l1.015,2.028
			c1.015,2.029,0,4.058,0,4.058l0.507,1.521c0,0,3.551,0,5.072,0s7.101,2.536,7.607,5.072l1.015-4.565l2.536,2.536l5.072,7.608
			c0,0,2.536,3.043,3.55,4.564c1.016,1.521,2.029,3.043,2.029,3.043c0.896,1.345,0.803,3.084,0.419,4.607l0.089,0.972l3.043,5.072
			c0,0,0.507,3.043,0.507,5.579s-0.507,1.521-0.507,1.521s-2.536-2.536-4.058-4.058c-1.522-1.521-0.507-5.579-0.507-5.579
			l-3.044,2.029l-2.299,1.888l-0.237,1.662l2.689,4.37c1.301-0.144,3.024-0.313,3.904-0.313c1.521,0,5.072,10.144,5.072,10.144
			l2.536,2.029l1.666-0.508c0.99-1.233,2.052-2.502,3.077-3.63l0.835-1.949v-2.536l4.565-2.028l3.558,3.114
			c1.189,0.427,2.021,0.943,2.021,0.943l2.535,5.579v7.101l-1.419,4.869l2.434,7.304l-2.355,1.087
			c0.596,1.926,2.519,8.188,3.37,11.593c1.015,4.058-3.043,9.637-5.579,8.622l-4.564-3.043c0,0-6.087,1.521-8.622,1.521
			c-2.536,0-7.101,0-12.681-0.507c-0.507-0.046-0.93-0.097-1.28-0.15l3.31,10.294l-5.072,8.115l-6.086,10.144
			c0,0-11.666,4.565-13.188,6.087s2.028,8.622,2.028,8.622l5.072,2.536c0,0,8.115,0.507,13.188,0.507s10.144,2.536,10.144,2.536
			s-0.641,3.622-1.723,7.545l1.216-1.459l1.015-2.028l1.521-1.521l0.507-2.029c0,0,0.508-1.521,2.536-4.058
			c2.028-2.535,14.708-7.607,14.708-7.607l-4.058-2.028h-5.071l-3.043-1.522v-9.637l-2.029-5.579l3.551,2.536
			c0.507,3.043-1.015,0.508,0.507,3.043c1.521,2.536,4.564,3.044,4.564,3.044h4.565h2.535l1.015-1.521c0,0,0.507-1.015-2.536-2.029
			s-5.071-3.551-5.071-3.551l4.564-3.043h4.564l3.551,4.058l2.028,2.029v4.564l-0.434,3.911c0.07-0.465,0.14-0.931,0.206-1.397
			c0.077-0.54,0.156-1.08,0.228-1.622c0.094-0.724,0.179-1.451,0.263-2.178c0.062-0.539,0.128-1.077,0.185-1.618
			c0.078-0.741,0.144-1.485,0.21-2.229c0.047-0.531,0.099-1.061,0.142-1.593c0.06-0.777,0.106-1.558,0.156-2.337
			c0.031-0.504,0.068-1.005,0.095-1.509c0.046-0.863,0.074-1.732,0.104-2.6c0.016-0.424,0.037-0.847,0.049-1.271
			c0.033-1.295,0.052-2.594,0.052-3.896C293.303,65.658,227.646,0,146.651,0c-1.138,0-2.271,0.018-3.401,0.043
			c-0.214,0.005-0.429,0.009-0.642,0.015c-0.836,0.022-1.669,0.059-2.503,0.095h1.814L142.934,3.703z M167.786,6.746l4.564,1.015
			l6.087,1.521l-4.058,1.015h-1.521l-3.044-0.508C166.771,9.282,167.786,6.746,167.786,6.746z"/>
		<path fill="#E32826" d="M104.894,19.934l1.41,0.47l-1.045-6.367c-4.234,1.193-2.393-0.189-2.393-0.189h-6.594l-0.53-0.159
			l-2.005,2.188l3.043,2.028h7.101l-3.043,2.174l1.014-0.145H104.894z"/>
		<path fill="#E32826" d="M238.793,81.304c0,0,3.55-2.029,7.101-2.029l0.317,0.415c1.384-2.053,2.423-3.865,4.247-7.516
			c0,0-1.38-1.38-3.893-3.646c-0.375-0.105-0.737-0.206-1.086-0.3l-5.673,6.482L238.793,81.304z"/>
		<polygon fill="#E32826" points="108.952,36.532 108.952,41.573 109.737,41.313 		"/>
		<path fill="#E32826" d="M229.342,197.035c0.279,0.538,0.559,1.025,0.828,1.43c2.029,3.043,0.508,3.551,0.508,5.072
			c0,0.4,0,0.91-0.02,1.521c1.368,0,2.756,0,3.569,0c2.029,0,3.551,0,5.579,0c2.029,0,8.623-1.015,8.623-1.015l3.124-1.562
			c-6.766-1.311-18.34-4.524-18.34-4.524S231.708,197.601,229.342,197.035z"/>
		<path fill="#E32826" d="M274.804,216.724c-8.115,10.651-6.086,14.201-13.187,18.259c0,0-3.043,6.594-7.608,10.651
			c-1.646,1.463-3.424,3.85-5.357,6.373c0.8-0.774,1.592-1.557,2.373-2.35c0.103-0.103,0.203-0.207,0.305-0.311
			c0.751-0.765,1.493-1.537,2.227-2.318c0.126-0.134,0.25-0.269,0.376-0.402c0.706-0.758,1.404-1.521,2.095-2.294
			c0.138-0.155,0.275-0.311,0.412-0.465c0.673-0.759,1.337-1.523,1.993-2.296c0.145-0.17,0.289-0.341,0.434-0.513
			c0.643-0.764,1.279-1.534,1.907-2.312c0.146-0.182,0.292-0.363,0.438-0.545c0.622-0.776,1.234-1.559,1.839-2.347
			c0.144-0.188,0.287-0.372,0.43-0.561c0.604-0.794,1.198-1.595,1.785-2.4c0.135-0.186,0.271-0.37,0.404-0.556
			c0.593-0.82,1.175-1.649,1.75-2.483c0.121-0.175,0.244-0.348,0.363-0.523c0.589-0.861,1.167-1.729,1.737-2.604
			c0.1-0.151,0.2-0.301,0.299-0.452c0.596-0.921,1.181-1.85,1.756-2.784c0.067-0.107,0.136-0.215,0.203-0.323
			c0.628-1.024,1.244-2.057,1.847-3.099c0.012-0.018,0.022-0.036,0.033-0.055c2.491-4.303,4.77-8.744,6.822-13.31
			c0.043-0.095,0.082-0.189,0.125-0.285c0.455-1.02,0.901-2.045,1.335-3.077c0.104-0.25,0.204-0.503,0.308-0.755
			c0.364-0.88,0.723-1.762,1.07-2.651c0.13-0.335,0.255-0.673,0.383-1.01c0.31-0.81,0.615-1.621,0.911-2.438
			c0.142-0.39,0.276-0.783,0.414-1.175c0.271-0.769,0.538-1.538,0.795-2.313c0.144-0.431,0.282-0.863,0.421-1.296
			c0.24-0.742,0.477-1.485,0.704-2.232c0.141-0.46,0.275-0.922,0.411-1.385c0.214-0.726,0.423-1.452,0.626-2.183
			c0.134-0.483,0.264-0.969,0.393-1.454c0.191-0.715,0.376-1.432,0.557-2.151c0.125-0.502,0.248-1.005,0.367-1.51
			c0.134-0.555,0.259-1.112,0.386-1.67C287.044,188.541,280.925,208.69,274.804,216.724z"/>
		<path fill="#E32826" d="M253.501,77.246v-2.029c0,0.837-0.066,1.516-0.169,2.077L253.501,77.246z"/>
		<path fill="#E32826" d="M215.283,194.766c0.39,0.371,0.787,0.757,1.192,1.163c0.315,0.315,0.62,0.617,0.92,0.912
			c0.039-0.949,0.063-1.887,0.076-2.657c-0.563-0.137-1.128-0.273-1.692-0.41L215.283,194.766z"/>
		<path fill="#E32826" d="M219.606,198.987c0.479,0.455,0.929,0.88,1.355,1.274l0.586-0.782v-2.536l0.2-1.728
			c-0.855-0.206-1.73-0.417-2.616-0.631l-0.12,0.837L219.606,198.987z"/>
		<path fill="#E32826" d="M110.507,71.559l-0.541,0.108v2.121l0.598-0.163C110.54,72.811,110.521,72.112,110.507,71.559z"/>
		<path fill="#9A2820" d="M95.742,13.688l0.53,0.159h6.594c0,0-1.842,1.383,2.393,0.189l-0.364-2.218l7.972-1.993
			c1.354-1.147,2.172-2.064,2.172-2.064l1.521-1.015h8.115c0,0,2.536,0,4.057,0s3.043,1.015,5.072,1.015s6.593-3.043,6.593-3.043
			l2.536-1.015l-1.015-3.551h-1.814c-3.619,0.159-7.204,0.451-10.75,0.868L99.15,9.97L95.742,13.688z"/>
		<path fill="#9A2820" d="M202.782,199.986v2.536c0,0,2.028,0.508,2.536-1.015c0.507-1.521,4.564-5.579,4.564-5.579l0.686-3.427
			c-0.285-0.071-0.566-0.14-0.846-0.209l-3.391,4.143v-4.984c-0.115-0.029-0.232-0.059-0.347-0.087c-1.579,0-3.465,0-4.725,0
			c-1.538,0-3.823,2.612-5.382,4.669l1.051,3.939l2.302-2.015L202.782,199.986z"/>
		<path fill="#9A2820" d="M220.026,201.508l0.936-1.246c-0.427-0.395-0.877-0.819-1.355-1.274L220.026,201.508z"/>
		<path fill="#9A2820" d="M292.048,164.99v-4.564l-2.028-2.029l-3.551-4.058h-4.564l-4.564,3.043c0,0,2.028,2.536,5.071,3.551
			s2.536,2.029,2.536,2.029l-1.015,1.521h-2.535h-4.565c0,0-3.043-0.508-4.564-3.044c-1.521-2.535,0,0-0.507-3.043l-3.551-2.536
			l2.029,5.579v9.637l3.043,1.522h5.071l4.058,2.028c0,0-12.68,5.072-14.708,7.607c-2.028,2.536-2.536,4.058-2.536,4.058
			l-0.507,2.029l-1.521,1.521l-1.015,2.028l-1.216,1.459c-1.281,4.639-3.18,9.7-5.378,9.7c-0.826,0-2.247-0.214-3.977-0.548
			l-3.124,1.562c0,0-6.594,1.015-8.623,1.015c-2.028,0-3.55,0-5.579,0c-0.813,0-2.201,0-3.569,0
			c-0.051,1.711-0.247,4.245-0.995,7.607l-2.028-1.521l-6.594-0.507l-4.058-4.058l-0.508-1.521l-3.043-6.594l-1.014,2.029
			l-1.521,2.536l-1.521,2.028l-1.015,1.521l-3.043,4.564l-4.565,1.015l-0.468,0.819l23.799,4.76c0,0-4.02,2.363-9.088,5.094
			c0.146,0.156,0.297,0.316,0.466,0.485c1.521,1.521,1.521,1.521,1.521,1.521l4.564,1.015h3.551h6.594c0,0,0.507-3.044,0.507-5.579
			c0-2.536,0-3.043,0-4.564s0-4.565,0-4.565c5.072-2.535,8.115-4.564,8.115-4.564l3.55,0.507c0,0,0-0.507,1.522,0
			c1.521,0.508,3.043,0.508,3.043,0.508h2.028l3.043-2.029h1.522h3.043l1.015,2.029v1.521c4.564,0.507,6.594,0.507,6.594,0.507
			h1.521l1.521-0.507v-4.058l-1.015-2.536c-2.536-1.015-2.536-1.015-2.536-1.015l-2.536-2.028l1.522-1.521h4.057l1.521-1.522
			c0,0,0.508-1.521,0.508-3.55c0-2.029,1.014-9.637,1.014-9.637l2.536-4.564h3.043l3.043,2.028v5.072l-2.535,4.564l-0.508,2.028
			v4.565v2.536l-3.55,5.072l-1.015,3.55l-0.507,3.043l-1.015,4.565l-1.521,3.55l-2.536,3.043l-4.058,3.551l-0.507,3.043
			l-0.507,6.086c7.101-4.058,5.071-7.607,13.187-18.259c6.121-8.033,12.24-28.183,14.88-37.603c0.009-0.031,0.017-0.063,0.025-0.094
			c0.734-3.256,1.364-6.55,1.878-9.883l0.027-0.243L292.048,164.99z"/>
		<path fill="#9A2820" d="M180.973,204.552c-0.447-0.158-0.84-0.285-1.201-0.394l4.752,5.465l3.043,2.536l4.058,4.427
			c0-2.458,0-6.455,0-6.455S189.596,207.595,180.973,204.552z"/>
		<path fill="#9A2820" d="M216.476,201.508c0.555,0.83,0.806-1.959,0.92-4.667c-0.3-0.295-0.604-0.597-0.92-0.912
			c-0.405-0.406-0.803-0.792-1.192-1.163l-1.851,3.699C213.433,198.465,215.462,199.986,216.476,201.508z"/>
		<polygon fill="#9A2820" points="195.175,205.059 193.653,208.102 195.39,209.665 195.175,205.565 		"/>
		<path fill="#2A110D" d="M54.026,34.935l2.178-1.307l0.507,5.071v10.651l1.522,8.115c0,0,0,2.028,0,4.564s0,2.536,0,5.579
			s0,6.594,0,6.594s1.521,5.579,1.521,9.129c0,3.551,0,8.115,0,8.115l2.536,8.622v6.594c0,0-2.536-0.507,0,3.043
			c2.536,3.551,5.072,8.115,5.072,8.115l0.507,1.521v-4.564l-5.579-42.604V45.293l2.536-16.737l5.579-6.594
			c0,0,1.13-0.69,2.967-1.76l0.077-0.269l-5.072,3.043l-8.375,5.36c-1.575,1.155-3.127,2.34-4.653,3.556l-0.003,0.007L54.026,34.935
			z"/>
		<path fill="#2A110D" d="M130.254,222.303c0,0-1.014,0.507,2.536,2.029c1.164,0.498,2.381,1.051,3.493,1.569
			c0.147,0.068,0.292,0.137,0.436,0.204c-3.123-2.082-6.434-4.289-9.508-6.339v0.508L130.254,222.303z"/>
		<path fill="#2A110D" d="M181.48,251.72l-31.446-16.737c0,0-3.808-2.539-8.912-5.94l1.811,2.897l3.043,4.564v1.521h-5.579
			c0,0-2.536-3.55-3.043-5.071c-0.507-1.522-3.55-6.087-3.55-6.087s-2.536,9.637,0.507,10.144
			c3.043,0.508,11.158,8.623,11.158,8.623v-2.029l6.593-2.028l6.594,7.101l1.015,3.55l5.072,5.072l4.058,2.029l8.622,2.535
			l19.78,4.565c0,0,0,3.043,1.521,3.55c1.521,0.508,9.129,0.508,9.129,0.508l6.594-2.029l2.536-0.507h5.071l2.029,1.521
			c0,0-9.318,6.078-13.471,9.18c9.298-4.514,18.047-9.981,26.12-16.275C229.53,263.858,181.48,251.72,181.48,251.72z"/>
		<path fill="#2A110D" d="M119.061,214.334c-1.933-1.289-3.316-2.211-3.84-2.561l1.846,2.415
			C117.671,214.188,118.361,214.246,119.061,214.334z"/>
		<path fill="#2A110D" d="M106.504,201.555c-0.078-0.096-0.153-0.188-0.232-0.284c0.089,0.147,0.144,0.237,0.144,0.237
			S106.447,201.523,106.504,201.555z"/>
		<path fill="#5B1B11" d="M254.009,245.634c4.565-4.058,7.608-10.651,7.608-10.651l0.507-6.086l0.507-3.043l4.058-3.551l2.536-3.043
			l1.521-3.55l1.015-4.565l0.507-3.043l1.015-3.55l3.55-5.072v-2.536v-4.565l0.508-2.028l2.535-4.564v-5.072l-3.043-2.028h-3.043
			l-2.536,4.564c0,0-1.014,7.607-1.014,9.637c0,2.028-0.508,3.55-0.508,3.55l-1.521,1.522h-4.057l-1.522,1.521l2.536,2.028
			c0,0,0,0,2.536,1.015l1.015,2.536v4.058l-1.521,0.507h-1.521c0,0-2.029,0-6.594-0.507v-1.521l-1.015-2.029h-3.043h-1.522
			l-3.043,2.029h-2.028c0,0-1.521,0-3.043-0.508c-1.522-0.507-1.522,0-1.522,0l-3.55-0.507c0,0-3.043,2.029-8.115,4.564
			c0,0,0,3.044,0,4.565s0,2.028,0,4.564c0,2.535-0.507,5.579-0.507,5.579h-6.594h-3.551l-4.564-1.015c0,0,0,0-1.521-1.521
			c-0.169-0.169-0.32-0.329-0.466-0.485c-5.434,2.927-12.072,6.273-16.271,7.586c-8.114,2.536-4.058,0.507-5.579-3.551
			s-1.521-7.101-1.521-9.129c0-0.313,0-0.707,0-1.152l-4.058-4.427l-3.043-2.536l-4.752-5.465c-6.589-1.978,0.694,3.943,0.694,3.943
			l-6.086,1.521c0,0-2.029-0.507-4.058-2.028c-2.029-1.521-2.029-4.058-3.043-5.579c-1.015-1.521-4.058-3.551-4.058-3.551
			s-8.115,2.536-16.23,2.536s0,0,0-5.579s0-4.058,0-6.594s0-6.086-1.015-7.607c-1.014-1.521-6.593,0-6.593,0l-14.708-9.637
			c0,0-3.043,9.129-5.072,9.637c-2.028,0.507-2.536-0.508-2.536-0.508s-3.55-3.55-6.086-10.144s0-2.536,0-10.651
			s-0.508-4.058-2.536-6.594c-2.029-2.535-2.029-2.028-2.536-5.579c-0.507-3.55,2.029-5.071,2.029-5.071s0,0,2.535-6.594
			c2.536-6.594,0-8.622-2.535-13.694c-2.536-5.071-1.015-4.564-1.015-4.564s0.686-2.053,1.748-4.169
			c-0.076-0.563-0.166-1.217-0.267-1.934c-0.3-0.641-0.466-0.998-0.466-0.998l0.208-0.799c-0.129-0.879-0.269-1.806-0.418-2.752
			h-1.312l-3.043-4.058l1.015-2.535c0,0,0,0,0-6.087c0-6.086,0-3.551,0-11.665c0-8.115-1.521-3.043-1.521-3.043s-4.564,0-6.594,0
			c-2.029,0-1.014-3.044-1.014-3.044s0-1.521-1.521-3.043s-1.015-2.028-1.015-2.028l3.043-3.551l2.537-4.564l2.028-3.551
			l2.536-6.593c0,0,1.521-4.058,2.028-6.594c0.508-2.536,3.551-5.072,3.551-5.072l0.507-0.169v-5.041l-0.358-2.188
			c-2.592-1.067-5.86-2.583-6.742-3.76l-4.058-2.535c0,0,0,0,0-1.521c0-1.522,0-3.551,0-3.551l0.508-2.536l2.536-0.362l3.043-2.174
			h-7.101l-3.043-2.028l2.005-2.188L99.15,9.97l0.165-0.181l7.815-4.396c-0.005,0.001-0.009,0.003-0.013,0.004
			c-2.839,1.468-10.663,3.024-18.959,6.928c-3.202,1.507-6.472,3.223-9.32,4.786c-2.127,1.167-4.016,2.247-5.465,3.091
			c-1.836,1.069-2.967,1.76-2.967,1.76l-5.579,6.594l-2.536,16.737v26.881l5.579,42.604v4.564v2.028l1.521,3.044h2.536l4.564,1.014
			v8.622l-1.521,5.072l0.507,1.521l3.043,6.087v2.028l2.536,8.622l1.521,1.522l3.043,2.535l1.522,8.623c0,0,0,0.507,0.507,4.564
			c0.507,4.058,4.565,7.101,4.565,7.101s0.507,1.015,2.536,2.028c2.029,1.015,6.594,6.087,6.594,6.087s2.536,3.55,2.536,5.579
			c0,1.739,1.86,4.963,2.392,5.849c0.079,0.097,0.155,0.188,0.232,0.284c0.402,0.214,2.067,1.157,2.955,2.489
			c1.014,1.521,1.014,1.521,1.014,1.521l4.748,6.208c0.524,0.35,1.907,1.271,3.84,2.561c2.244,0.28,4.6,0.868,4.6,0.868l2.029,0.508
			l1.521,2.535v1.521c3.074,2.05,6.385,4.257,9.508,6.339c2.074,0.974,3.679,1.776,3.679,1.776l0.725,1.16
			c5.104,3.401,8.912,5.94,8.912,5.94l31.446,16.737c0,0,48.05,12.139,55.253,10.656c4.158-3.241,8.135-6.704,11.917-10.367
			c0.001,0,0.001-0.001,0.001-0.002C250.585,249.483,252.363,247.097,254.009,245.634z"/>
		<path fill="#5B1B11" d="M215.779,193.773c-0.523-0.127-1.045-0.254-1.565-0.381h-0.781l-0.949-0.422
			c-0.649-0.159-1.289-0.315-1.915-0.469l-0.686,3.427c0,0-4.058,4.058-4.564,5.579c-0.508,1.522-2.536,1.015-2.536,1.015v-2.536
			l-3.551-2.028l-2.302,2.015l0.273,1.028l-2.028,4.058v0.507l0.215,4.1l3.335,3.001l1.561,0.313l0.468-0.819l4.565-1.015
			l3.043-4.564l1.015-1.521l1.521-2.028l1.521-2.536l1.014-2.029l1.851-3.699L215.779,193.773z"/>
		<path fill="#121212" d="M224.084,269.472l-2.029-1.521h-5.071l-2.536,0.507l-6.594,2.029c0,0-7.607,0-9.129-0.508
			c-1.521-0.507-1.521-3.55-1.521-3.55l-19.78-4.565l-8.622-2.535l-4.058-2.029l-5.072-5.072l-1.015-3.55l-6.594-7.101l-6.593,2.028
			v2.029c0,0-8.115-8.115-11.158-8.623c-3.043-0.507-0.507-10.144-0.507-10.144s3.043,4.564,3.55,6.087
			c0.507,1.521,3.043,5.071,3.043,5.071h5.579v-1.521l-3.043-4.564l-1.811-2.897l-0.725-1.16c0,0-1.604-0.803-3.679-1.776
			c-0.144-0.067-0.289-0.136-0.436-0.204c-1.112-0.519-2.329-1.071-3.493-1.569c-3.55-1.522-2.536-2.029-2.536-2.029l-3.043-2.028
			v-0.508v-1.521l-1.521-2.535l-2.029-0.508c0,0-2.355-0.588-4.6-0.868c-0.7-0.088-1.39-0.146-1.994-0.146l-1.846-2.415
			l-4.748-6.208c0,0,0,0-1.014-1.521c-0.888-1.332-2.553-2.275-2.955-2.489c-0.057-0.031-0.089-0.047-0.089-0.047
			s-0.055-0.09-0.144-0.237c-0.531-0.886-2.392-4.109-2.392-5.849c0-2.029-2.536-5.579-2.536-5.579s-4.565-5.072-6.594-6.087
			c-2.029-1.014-2.536-2.028-2.536-2.028s-4.058-3.043-4.565-7.101c-0.507-4.058-0.507-4.564-0.507-4.564l-1.522-8.623l-3.043-2.535
			l-1.521-1.522l-2.536-8.622v-2.028l-3.043-6.087l-0.507-1.521l1.521-5.072v-8.622l-4.564-1.014h-2.536l-1.521-3.044v-2.028
			l-0.507-1.521c0,0-2.536-4.564-5.072-8.115c-2.536-3.55,0-3.043,0-3.043v-6.594l-2.536-8.622c0,0,0-4.564,0-8.115
			c0-3.55-1.521-9.129-1.521-9.129s0-3.551,0-6.594s0-3.043,0-5.579s0-4.564,0-4.564l-1.522-8.115V38.699l-0.507-5.071l-2.178,1.307
			l-7.263,4.357c-1.139,1.061-2.265,2.136-3.369,3.231l0,0l-0.041,0.405c2.197-2.197,2.2-2.2,2.2-2.2l-2.506,5.221l-1.694,16.734
			l4.708,2.896l4.564,2.029c0,0,3.55,11.158,3.55,12.68s-0.507,14.708-0.507,14.708v12.173v7.608l3.55,2.536l3.043,8.114v6.594
			c0,0-1.522-1.015,0,5.579c1.521,6.594,11.158,21.303,12.68,23.331c1.521,2.029,2.536,2.029,2.536,7.101
			c0,5.072-2.029,4.565,0,8.115c2.029,3.551,9.637,12.173,9.637,12.173l6.086,6.593c0,0,0.507,3.551,0.507,6.087
			s3.043,8.115,4.564,9.637s7.101,2.536,7.101,5.579s4.565,18.259,5.072,21.302s4.058,6.593,4.058,6.593s11.158,0,13.694,0
			c2.536,0,12.679,4.565,12.679,4.565l7.608,8.622c0,0,0,2.536,3.55,3.551c3.551,1.014,23.331,6.593,23.331,6.593l3.551,1.522
			l4.564,5.071l8.115,4.565l7.101,1.014l2.624,3.936c3.844-1.48,7.613-3.113,11.293-4.899
			C214.766,275.55,224.084,269.472,224.084,269.472z"/>
		<path fill="#0A0A0B" d="M196.696,279.615l-7.101-1.014l-8.115-4.565l-4.564-5.071l-3.551-1.522c0,0-19.78-5.579-23.331-6.593
			c-3.55-1.015-3.55-3.551-3.55-3.551l-7.608-8.622c0,0-10.144-4.565-12.679-4.565c-2.536,0-13.694,0-13.694,0
			s-3.551-3.55-4.058-6.593s-5.072-18.259-5.072-21.302s-5.579-4.058-7.101-5.579s-4.564-7.101-4.564-9.637
			s-0.507-6.087-0.507-6.087l-6.086-6.593c0,0-7.608-8.622-9.637-12.173c-2.029-3.55,0-3.043,0-8.115
			c0-5.071-1.015-5.071-2.536-7.101c-1.521-2.028-11.158-16.737-12.68-23.331c-1.522-6.594,0-5.579,0-5.579v-6.594l-3.043-8.114
			l-3.55-2.536v-7.608V94.997c0,0,0.507-13.187,0.507-14.708s-3.55-12.68-3.55-12.68l-4.564-2.029l-4.708-2.896l-1.886-1.16v-8.115
			l3.58-7.459l2.506-5.221c0,0-0.003,0.003-2.2,2.2c-0.801,0.8-1.89,1.889-3.379,3.378c-5.579,5.579-9.129,13.188-9.129,13.188
			l7.101,10.651c0,0,4.565,0.507,4.565,2.536c0,2.028,0,20.794,0,20.794s0,4.058,0,8.623c0,4.564-1.015,4.564,0.507,9.637
			c1.521,5.071,6.086,15.215,6.086,15.215l8.622,14.709c0,0,1.014,11.665,1.014,13.188c0,1.521,2.536,9.637,4.565,13.694
			s7.608,12.68,8.115,16.229c0.507,3.551,2.536,5.072,3.55,9.637c1.015,4.565,9.637,28.91,9.637,28.91l12.172,13.187
			c0,0,10.144,7.607,13.694,8.622c3.551,1.015,8.115,3.551,8.115,3.551l4.058,3.043l3.043,6.594c0,0,4.564,3.043,6.086,4.564
			s14.201,9.13,14.201,9.13s9.13,5.072,10.651,5.072s11.158,5.071,11.158,5.071l9.637,4.058l2.028,2.536
			c0,0-2.379,0.793-6.564,1.698c0.548,0.095,1.054,0.169,1.52,0.225c8.594-1.646,16.922-4.041,24.914-7.117L196.696,279.615z"/>
		<path fill="#E65828" d="M217.472,194.184c0.019-1.062,0.019-1.806,0.019-1.806l-1.521,1.015h-1.755
			c0.521,0.127,1.042,0.254,1.565,0.381C216.344,193.91,216.908,194.047,217.472,194.184z"/>
		<path fill="#E65828" d="M128.732,57.973c1.521-1.015,4.564-1.521,4.564-1.521l-1.014-5.072c0,0,0,0-1.521-1.521
			c-0.45-0.45-0.899-0.943-1.31-1.417C128.674,52.705,127.748,58.629,128.732,57.973z"/>
		<path fill="#E65828" d="M116.053,39.206l-4.058-3.55c0,0-1.524-0.538-3.402-1.313l0.358,2.188l0.785,4.78L116.053,39.206z"/>
		<path fill="#E65828" d="M228.142,90.939c0,0,0.001,0.772,0.391,1.28C228.369,91.7,228.142,90.939,228.142,90.939z"/>
		<path fill="#E65828" d="M106.416,20.44l1.015,3.551l0.508,1.521l7.101-0.508c0,0,3.043,6.087,3.043,7.608s0,9.129,0,11.665
			c0,1.003,0.318,2.003,0.702,2.849l2.848-2.849h1.208c-0.298-1.138-0.701-3.207-0.701-6.086c0-4.564,3.043-1.521,3.043-1.521
			l2.029,2.028c0,0,3.043,3.043,4.564,4.564s2.029,0,2.029,0l1.522-1.521l-1.015-2.028c0,0,0,0-1.521,0
			c-1.063,0-4.843-5.686-7.03-9.118l-0.071-0.012h-2.029l0.507-2.535c0,0,0.649,1.064,1.593,2.547l6.015,1.003c0,0,0-3.55,0-5.071
			c0-1.522-1.521-2.029-1.521-2.029s0,0-1.014-1.521c-1.015-1.521-2.029-3.043-2.029-3.043s-3.55-4.565-12.172-2.536
			c-8.623,2.028-0.508,2.028-0.508,2.028h2.029h3.043h1.521c0,0,3.043,2.029,4.058,4.565h-3.043l-2.536-2.029l-3.043-1.015h-3.551
			c0,0,0,0-1.521,0s-2.536-2.535-2.536-2.535l1.015-1.522l2.536-1.521c0,0,1.521,0,4.058,0s15.215,0,15.215,0
			s4.565,2.029,9.13,4.565c4.564,2.536,4.058,4.058,7.1,9.129c3.044,5.072,2.536,1.015,4.058,2.029
			c1.522,1.015,3.551,3.043,4.058,6.086c0.508,3.043,0,0-4.564,2.536s0,2.028,0,2.028s-5.071,6.594-8.114,6.594
			c-3.044,0-2.536,0.507-2.536,0.507v1.521v5.579v4.565l-1.521,5.579c0,0,0,0.439,0,1.077l0.507,0.444
			c1.015-1.521,5.579-3.551,10.144-3.551s4.058,3.044,4.058,3.044l8.622,3.043l4.058-0.508c0,0,4.058,0,7.101-1.014l-4.564-4.058
			l-5.579-4.058c0,0,0.507-3.551,3.551-6.087c3.043-2.536,2.535-3.043,2.028-4.564s-1.521-2.028-1.521-2.028v-7.101
			c0,0,6.594-5.072,9.637-4.058l1.521,4.564l4.564-1.217c0-0.342,0-0.621,0-0.813c0-1.521-4.058-4.057-4.058-4.057
			s-5.071,0-12.172-1.015c-7.102-1.015-1.522-4.564-1.522-7.607c0-3.044,2.029-2.029,2.029-2.029s2.028,0,3.55,0
			c0.585,0,2.668,0.375,5.01,0.836l-0.444-4.894l2.142-5.815c-0.882-0.453-2.177-0.778-4.171-0.778
			c-6.593,0-16.23,3.551-16.23,3.551s-12.679-1.015-13.693-2.536s-7.101-3.551-7.101-3.551l-2.536-1.014l-17.245-1.521l-4.201,1.05
			l-7.972,1.993l0.364,2.218l1.045,6.367L106.416,20.44z"/>
		<path fill="#E65828" d="M230.304,52.9l-0.134,2.536v3.551l1.522,1.521h3.55l2.743-0.588c0.099-1.135,2.329-0.934,2.329-0.934
			s0.243,0.112,0.645,0.296l1.384-0.296l1.521-2.536c-0.507-2.536-6.086-5.072-7.607-5.072s-5.072,0-5.072,0l0.508,1.521H230.304z"
			/>
		<path fill="#E65828" d="M168.801,120.357c2.535,1.521,9.637,6.593,9.637,6.593l9.637-2.535l1.521-4.058l2.536-2.536
			c0,0,2.535-5.579,5.578-2.536c0,0-1.014-2.028-2.535-3.55s-4.564-1.521-4.564-1.521h-8.115l-3.044-1.015l-1.521-2.536
			l-2.536-6.594h-5.071l-3.551-0.507c0,0-0.507-4.565-0.507-6.087s-4.058-3.55-4.058-3.55c0,0.88,0,1.927,0,3.043
			c0,3.043,0,3.043,0,4.564s-1.521,2.536-1.521,2.536h2.536c0,0,1.521,2.536,1.014,4.058c-0.507,1.521-3.55,3.043-3.55,3.043h-2.536
			l1.015,4.058l1.521,0.508c0,0,3.043-1.015,3.043,1.014c0,0.883-0.671,2.146-1.43,3.296c1.843,2.45,1.43,3.298,1.43,3.298
			l1.521,1.015C166.771,121.371,166.265,118.836,168.801,120.357z"/>
		<path fill="#E65828" d="M226.112,75.725l1.522,13.187c0.529,1.854,0.816,2.874,0.952,3.375c0.398,0.452,1.158,0.629,2.598-0.332
			c0.361-0.239,0.647-0.443,0.877-0.617c-0.502-2.065-0.877-3.44-0.877-3.44l6.521-0.406c2.626-1.552,5.456-3.478,6.667-5.173
			c0.711-0.994,1.301-1.829,1.839-2.628l-0.317-0.415c-3.551,0-7.101,2.029-7.101,2.029l1.014-6.594l5.673-6.482
			c-2.78-0.749-4.658-1.125-4.658-1.125l-0.507-2.029l-8.622-3.043l-1.522,1.015h-3.043l-2.028,2.028l-1.537,5.383l1.029,1.718
			L226.112,75.725z"/>
		<path fill="#E65828" d="M206.332,157.89l3.044-2.029l-3.044-4.058l-3.043,3.044l-6.593,0.507c0,0-1.427,0.57-1.07,1.926
			c0.119,0.452,0.436,0.991,1.07,1.625c0.472,0.472,0.996,0.891,1.537,1.26c0.783,0.535,1.598,0.964,2.341,1.302
			c1.618,0.582,2.715,0.988,2.715,0.988s-1.207-0.304-2.715-0.988c-3.74-1.346-10.269-3.634-12.492-4.025
			c-0.933,0.568-1.817,1.38-2.037,2.478c-0.507,2.536,0,3.044,0,4.565s2.029,2.028,2.029,2.028s0,0,3.043,0.507
			c3.043,0.508,7.101,0,8.622,0s5.579,0,5.579,0h5.579C207.347,165.497,206.332,157.89,206.332,157.89z"/>
		<path fill="#E65828" d="M250.966,94.49c0,0-3.551,3.043-4.058,5.072c-0.508,2.028-0.508,6.086-0.508,6.086l6.438,13.305
			l1.904,0.635l2.816-6.839c0,0,4.564-6.593,5.579-8.115c0.461-0.691,2.18-3.059,4.202-5.579l-1.666,0.508l-2.536-2.029
			c0,0-3.551-10.144-5.072-10.144c-0.88,0-2.604,0.169-3.904,0.313l1.368,2.224L250.966,94.49z"/>
		<path fill="#E65828" d="M210.897,128.472l-1.015-3.043l-2.029-3.043l-4.057-1.015
			C207.334,124.908,210.897,128.472,210.897,128.472z"/>
		<path fill="#E65828" d="M150.034,79.274l2.028,0.508l2.022,0.722l-4.352-5.048C150.172,77.193,150.399,78.728,150.034,79.274z"/>
		<path fill="#E65828" d="M282.411,118.328c0,0,0.066,0.212,0.181,0.58l2.355-1.087l-2.434-7.304l-2.131,7.304L282.411,118.328z"/>
		<path fill="#E65828" d="M150.034,88.911h1.521h1.521l2.029-3.043l-2.536-1.015c0,0-3.551,0-5.579,0c-0.552,0-1.064,0-1.521,0
			v2.536c0,0,1.42,1.137,3.198,2.984c-0.099-0.587-0.155-1.092-0.155-1.463C148.513,86.375,150.034,88.911,150.034,88.911z"/>
		<path fill="#E65828" d="M251.744,136.386c-1.059,0.264-2.162,0.505-3.314,0.709c-8.623,1.521,0,0-1.521-1.015
			s-6.087-5.072-8.115-6.594c-0.305-0.229-0.598-0.433-0.877-0.617c-1.9,1.257-3.824,2.427-4.702,2.646
			c-2.029,0.507-3.551-0.508-3.551-0.508l-0.507-2.028c0,0-3.044-0.508-6.087,0l-4.564,2.028h-3.043l-2.029-0.507v5.579l2.029,3.043
			c0,0,6.086,4.058,6.593,5.579c0.508,1.521,0.508,5.072,0.508,5.072s1.015,1.015,1.015,2.536s1.521,5.071-1.522,2.028
			c-3.043-3.043-7.101-11.158-7.101-11.158l-3.55-3.043l-2.536,9.13l1.269,1.268l3.296,3.297c0,0,1.015,3.043,1.015,4.564
			s0,3.551,0,3.551s-1.521,1.521,0,1.521s3.551-0.507,3.551-0.507h7.101l0.507,2.535v2.029h-6.594l-3.043-0.508l-2.028-1.014
			c0,0,0.431,2.177-2.34,1.278l3.354,1.258c0,0,4.565,6.086,4.565,9.129h-3.551c0,0-5.071-1.015-7.101-1.015
			c-2.028,0-9.129-4.057-9.129-4.057l0.507,4.564l3.043,6.593c0.18,0,0.388,0.038,0.616,0.104l2.427,0.404h2.536h4.564l6.087,2.536
			v5.071l-0.388,2.714c0.886,0.214,1.761,0.425,2.616,0.631l1.321-11.46l2.536,4.058c0,0,1.907,5.718,3.736,9.222
			c2.366,0.565,3.872,0.923,3.872,0.923s11.574,3.214,18.34,4.524c1.729,0.334,3.15,0.548,3.977,0.548
			c2.198,0,4.097-5.062,5.378-9.7c1.082-3.923,1.723-7.545,1.723-7.545s-5.071-2.536-10.144-2.536s-13.188-0.507-13.188-0.507
			l-5.072-2.536c0,0-3.55-7.101-2.028-8.622s13.188-6.087,13.188-6.087l6.086-10.144l5.072-8.115l-3.31-10.294
			C252.133,136.776,251.749,136.578,251.744,136.386z"/>
		<path fill="#E65828" d="M114.024,72.682c0,0,1.942,0,3.847-0.104l2.747-10.547l4.832,0.645c-1.404-2.855-3.371-6.224-4.832-6.224
			c-0.581,0-1.108-0.375-1.576-0.949c-0.542,0.654-5.048,6.113-5.524,7.543c-0.508,1.521,0,1.521,0,1.521l-1.015,6.594l-1.996,0.398
			c0.015,0.554,0.033,1.252,0.057,2.066L114.024,72.682z"/>
		<path fill="#E65828" d="M206.332,191.451v-0.087c-0.112,0-0.229,0-0.347,0C206.1,191.393,206.217,191.422,206.332,191.451z"/>
		<path fill="#E65828" d="M212.483,192.971l-2.431-1.08l-0.33,0.402c0.279,0.069,0.561,0.138,0.846,0.209
			C211.194,192.655,211.834,192.812,212.483,192.971z"/>
		<path fill="#ED7A41" d="M110.473,110.721c2.029-2.536-1.014-3.551-1.014-3.551h-0.597l-0.717,2.752l-0.208,0.799
			c0,0,0.166,0.357,0.466,0.998c0.163,0.347,0.366,0.779,0.604,1.284C109.451,112.183,109.944,111.382,110.473,110.721z"/>
		<path fill="#ED7A41" d="M200.574,161.466c1.508,0.685,2.715,0.988,2.715,0.988S202.192,162.048,200.574,161.466z"/>
		<path fill="#ED7A41" d="M139.891,67.609l-0.507-0.444c0,0.367,0,0.799,0,1.256C139.562,68.122,139.733,67.846,139.891,67.609z"/>
		<path fill="#ED7A41" d="M117.871,72.577c1.324-0.072,2.63-0.195,3.253-0.403c1.521-0.507,4.565-3.043,4.565-3.043l1.521-2.536
			c0,0-0.73-1.821-1.762-3.92l-4.832-0.645L117.871,72.577z"/>
		<path fill="#ED7A41" d="M149.733,75.456l-0.206-0.239l-5.072,1.521l-11.665,8.115l2.029,4.564c0,0-1.522,1.015-2.536,3.551
			l3.043,4.058h2.028h1.521l1.521-1.015c0,0,0-4.058,0-5.579s0-3.55,0-5.072c0-1.521,0.508-3.55,0.508-3.55l2.536-2.028l4.057-1.015
			l2.536,0.507C150.399,78.728,150.172,77.193,149.733,75.456z"/>
		<path fill="#ED7A41" d="M203.797,121.371c-2.431-2.43-4.848-4.847-6.087-6.086c-3.043-3.043-5.578,2.536-5.578,2.536l-2.536,2.536
			l-1.521,4.058l-9.637,2.535c0,0-7.102-5.071-9.637-6.593c-2.536-1.521-2.029,1.014-3.551,0l1.521,1.014l3.043,2.536
			c0,0-3.55,5.072-3.55,6.594s0,2.536,0,2.536l-0.508,3.55l-1.014,3.551l-2.536,5.072c0,0-4.058,0.507-6.087,1.014
			c-2.028,0.508-2.535,5.072-2.535,5.072l1.521,2.536h2.028l1.015-1.521l1.015-2.536c0,0,7.101-2.029,10.144-3.043
			c3.043-1.015,4.564-0.508,4.564-0.508h4.565l7.101,6.087l2.536,2.028l5.071,2.029h-2.535c0,0-1.306,0.327-2.528,1.072
			c2.224,0.392,8.752,2.68,12.492,4.025c-0.743-0.338-1.558-0.767-2.341-1.302c-0.541-0.369-1.065-0.788-1.537-1.26
			c-0.635-0.634-0.951-1.173-1.07-1.625c-0.356-1.355,1.07-1.926,1.07-1.926l6.593-0.507l3.043-3.044l3.044,4.058l-3.044,2.029
			c0,0,1.015,7.607,4.565,9.129l0.703,0.265c2.771,0.898,2.34-1.278,2.34-1.278l2.028,1.014l3.043,0.508h6.594v-2.029l-0.507-2.535
			h-7.101c0,0-2.029,0.507-3.551,0.507s0-1.521,0-1.521s0-2.029,0-3.551s-1.015-4.564-1.015-4.564l-3.296-3.297l-1.269-1.268
			l2.536-9.13l3.55,3.043c0,0,4.058,8.115,7.101,11.158c3.044,3.043,1.522-0.507,1.522-2.028s-1.015-2.536-1.015-2.536
			s0-3.551-0.508-5.072c-0.507-1.521-6.593-5.579-6.593-5.579l-2.029-3.043v-5.579l-2.535-2.029
			C210.897,128.472,207.334,124.908,203.797,121.371z"/>
		<path fill="#ED7A41" d="M133.804,78.768c0,0,1.522-3.551,2.536-5.072c-1.521,0-3.043,2.029-6.593,6.594
			c-3.55,4.564,1.014,2.536,1.014,2.536l2.029,2.028v-4.564L133.804,78.768z"/>
		<path fill="#ED7A41" d="M162.299,116.045c0.759-1.149,1.43-2.413,1.43-3.296c0-2.028-3.043-1.014-3.043-1.014l-1.521-0.508
			l-1.015-4.058h2.536c0,0,3.043-1.521,3.55-3.043c0.508-1.521-1.014-4.058-1.014-4.058h-2.536c0,0-5.579,0-7.608,0
			c-1.731,0-3.83-6.278-4.409-9.695c-1.778-1.848-3.198-2.984-3.198-2.984v-2.536c-1.22,0-2.028,0-2.028,0l-1.522,3.043l2.029,3.551
			c0,0,0,0,0.507,3.043c0.247,1.479,2.769,3.675,5.297,5.544c0.433-0.564,0.789-0.979,0.789-0.979s1.187,1.482,2.354,3.164
			c1.294,0.851,2.211,1.401,2.211,1.401v2.536c0,0,4.058,6.086,6.593,9.129C161.926,115.557,162.119,115.806,162.299,116.045z"/>
		<path fill="#A65029" d="M230.17,198.465c-0.27-0.404-0.549-0.892-0.828-1.43c-1.829-3.504-3.736-9.222-3.736-9.222l-2.536-4.058
			l-1.321,11.46l-0.2,1.728v2.536l-0.586,0.782l-0.936,1.246l-0.42-2.521l-0.595-3.565l0.12-0.837l0.388-2.714V186.8l-6.087-2.536
			h-4.564h-2.536l-2.427-0.404c1.72,0.488,4.694,2.671,6.484,4.462c2.029,2.028,0.508,2.535,0.508,2.535l-0.845,1.034l2.431,1.08
			l0.949,0.422h0.781h1.755l1.521-1.015c0,0,0,0.744-0.019,1.806c-0.013,0.771-0.037,1.708-0.076,2.657
			c-0.114,2.708-0.365,5.497-0.92,4.667c-1.014-1.521-3.043-3.043-3.043-3.043l3.043,6.594l0.508,1.521l4.058,4.058l6.594,0.507
			l2.028,1.521c0.748-3.362,0.944-5.896,0.995-7.607c0.02-0.611,0.02-1.121,0.02-1.521
			C230.678,202.016,232.199,201.508,230.17,198.465z"/>
		<path fill="#A65029" d="M201.261,191.364c1.26,0,3.146,0,4.725,0c0.118,0,0.234,0,0.347,0v-2.536c0,0-8.622,1.521-12.679,3.55
			c-4.058,2.029,1.521,1.015,1.521,1.015l0.704,2.641C197.438,193.977,199.723,191.364,201.261,191.364z"/>
		<path fill="#A65029" d="M123.661,30.584h2.029l0.071,0.012c-0.943-1.482-1.593-2.547-1.593-2.547L123.661,30.584z"/>
		<path fill="#A65029" d="M199.739,172.599c0,0,7.101,4.057,9.129,4.057c2.029,0,7.101,1.015,7.101,1.015h3.551
			c0-3.043-4.565-9.129-4.565-9.129l-3.354-1.258l-0.703-0.265h-5.579c0,0-4.058,0-5.579,0s-5.579,0.508-8.622,0
			c-3.043-0.507-3.043-0.507-3.043-0.507s-2.029-0.507-2.029-2.028s-0.507-2.029,0-4.565c0.22-1.098,1.104-1.909,2.037-2.478
			c1.223-0.745,2.528-1.072,2.528-1.072h2.535l-5.071-2.029l-2.536-2.028l-7.101-6.087h-4.565c0,0-1.521-0.507-4.564,0.508
			c-3.043,1.014-10.144,3.043-10.144,3.043l-1.015,2.536l-1.015,1.521h-2.028l-1.521-2.536c0,0,0.507-4.564,2.535-5.072
			c2.029-0.507,6.087-1.014,6.087-1.014l2.536-5.072l1.014-3.551l0.508-3.55c0,0,0-1.015,0-2.536s3.55-6.594,3.55-6.594
			l-3.043-2.536l-1.521-1.014l-1.521-1.015c0,0,0.413-0.848-1.43-3.298c-0.18-0.239-0.373-0.488-0.6-0.76
			c-2.535-3.043-6.593-9.129-6.593-9.129c0.507,2.028,0,6.593,0,10.144c0,3.55,2.535,3.55,2.535,3.55s2.536,3.551,3.551,7.101
			c1.015,3.551-0.507,3.043-0.507,3.043s-4.058-0.507-6.594-2.028s-1.521,0-8.622-2.028c-7.101-2.029-1.015-3.551-1.015-3.551
			s0,0,0-5.071c0-5.072-3.043-3.043-3.043-3.043s-2.536,1.014-4.564,1.014c-2.029,0-4.565,6.086-4.565,6.086s2.536,3.044,3.55,4.565
			c1.015,1.521,9.13,9.637,8.115,11.665c0,0-6.086,2.028-11.158,5.072c-5.072,3.043,0,9.129,0,11.158c0,2.028,2.029,3.55,2.029,3.55
			l7.608,4.565l4.564,2.028l2.028,1.521l-3.043,2.536l0.508,3.551c0,0,2.535,0,4.564,0c2.028,0,7.607,0.507,9.129,0.507
			s3.044,2.029,3.044,2.029l-13.188,0.507c0,0,6.594,7.607,8.115,7.607s2.536,0,2.536,0s2.536,0,4.058,0s3.55,3.043,3.55,3.043
			l6.087,5.072c0,0,3.043,3.043,4.564,3.551c1.521,0.507,4.564,0,6.086,0c1.522,0,3.044-1.522,3.044-1.522l1.014-3.043l1.522-1.521
			c0,0,5.071-3.55,6.593-4.058c1.521-0.507,4.564,0,6.086,0l-3.043-6.593L199.739,172.599z"/>
		<path fill="#A65029" d="M152.896,102.219c0.995,1.431,1.978,3.005,2.211,3.938v-2.536
			C155.106,103.62,154.189,103.069,152.896,102.219z"/>
		<path fill="#A65029" d="M144.455,94.49c-0.507-3.043-0.507-3.043-0.507-3.043l-2.029-3.551l1.522-3.043c0,0,0.808,0,2.028,0
			c0.457,0,0.97,0,1.521,0c2.028,0,5.579,0,5.579,0l2.536,1.015l-2.029,3.043h-1.521h-1.521c0,0-1.521-2.536-1.521,0
			c0,0.371,0.057,0.876,0.155,1.463c0.579,3.417,2.678,9.695,4.409,9.695c2.029,0,7.608,0,7.608,0s1.521-1.015,1.521-2.536
			s0-1.521,0-4.564c0-1.116,0-2.163,0-3.043l-8.122-9.422l-2.022-0.722l-2.028-0.508l-2.536-0.507l-4.057,1.015l-2.536,2.028
			c0,0-0.508,2.028-0.508,3.55c0,1.522,0,3.551,0,5.072s0,5.579,0,5.579l-1.521,1.015h-1.521h-2.028l-3.043-4.058
			c1.014-2.536,2.536-3.551,2.536-3.551l-2.029-4.564l-2.029-2.028c0,0-4.564,2.028-1.014-2.536c3.55-4.564,5.072-6.594,6.593-6.594
			c0.857-1.284,2.074-3.651,3.043-5.274c0-0.457,0-0.889,0-1.256c0-0.638,0-1.077,0-1.077l1.521-5.579v-4.565v-5.579v-1.521
			c0,0-0.508-0.507,2.536-0.507c3.043,0,8.114-6.594,8.114-6.594s-4.564,0.508,0-2.028s5.072,0.507,4.564-2.536
			c-0.507-3.043-2.535-5.071-4.058-6.086c-1.521-1.015-1.014,3.043-4.058-2.029c-3.042-5.071-2.535-6.593-7.1-9.129
			c-4.565-2.536-9.13-4.565-9.13-4.565s-12.679,0-15.215,0s-4.058,0-4.058,0l-2.536,1.521l-1.015,1.522c0,0,1.015,2.535,2.536,2.535
			s1.521,0,1.521,0h3.551l3.043,1.015l2.536,2.029h3.043c-1.015-2.536-4.058-4.565-4.058-4.565h-1.521h-3.043h-2.029
			c0,0-8.115,0,0.508-2.028c8.622-2.029,12.172,2.536,12.172,2.536s1.014,1.521,2.029,3.043c1.014,1.521,1.014,1.521,1.014,1.521
			s1.521,0.507,1.521,2.029c0,1.521,0,5.071,0,5.071l-6.015-1.003c2.187,3.433,5.967,9.118,7.03,9.118c1.521,0,1.521,0,1.521,0
			l1.015,2.028l-1.522,1.521c0,0-0.507,1.521-2.029,0s-4.564-4.564-4.564-4.564l-2.029-2.028c0,0-3.043-3.043-3.043,1.521
			c0,2.879,0.403,4.948,0.701,6.086h-1.208l-2.848,2.849c0.586,1.294,1.326,2.224,1.326,2.224s0,2.535,0.508,4.058
			c0.507,1.521-1.521,2.028-1.521,2.028s-0.02,0.023-0.055,0.065c0.468,0.574,0.996,0.949,1.576,0.949
			c1.461,0,3.427,3.368,4.832,6.224c1.032,2.099,1.762,3.92,1.762,3.92l-1.521,2.536c0,0-3.043,2.536-4.565,3.043
			c-0.624,0.208-1.93,0.331-3.253,0.403c-1.905,0.104-3.847,0.104-3.847,0.104l-3.46,0.943l-0.598,0.163v0.922l4.058,7.101
			c0,0,3.551,1.521,5.072,1.015c1.521-0.508,2.028-2.029,2.028-2.029l3.043-0.507h2.029l2.536,8.115l-3.55-1.521l-3.55-1.015
			l-5.072,2.536c0,0-0.507,2.535-0.507,4.564c0,2.028,1.521,1.521,1.521,1.521l5.579,2.029l2.536,5.579l-3.55-1.015v8.622h2.028
			l3.043-1.015l9.637-6.593l8.115-1.521l-6.594,11.158h4.564l3.043-1.521c0,0,0,0,0.508-3.044c0,0,1.075-2.581,1.825-4.802
			c0.225-0.664,0.895-1.619,1.442-2.334C147.224,98.165,144.702,95.97,144.455,94.49z M132.283,51.379l1.014,5.072
			c0,0-3.043,0.507-4.564,1.521c-0.984,0.656-0.058-5.268,0.719-9.532c0.411,0.474,0.86,0.967,1.31,1.417
			C132.283,51.379,132.283,51.379,132.283,51.379z"/>
		<path fill="#ED7A41" d="M230.678,49.857c0,0,1.015-2.028,0-4.058l-0.213,4.058H230.678z"/>
		<path fill="#ED7A41" d="M281.397,100.577l-1.522,4.057l1.522,5.58l-2.536-0.508l-3.043-6.594c0,0,0.507,2.029,0,5.579
			c-0.508,3.551-1.522,0-1.522,0l-2.028-1.521l-3.043-1.014c0,0-0.507,6.086-0.507,7.607s-0.508,3.043-0.508,4.564
			c0,0.465-0.568,1.214-1.357,2.029c0.695,0,1.333,0,1.865,0c3.55,0,5.071,0,5.071,0s2.029,0,3.551,0s4.058,2.535,7.101,8.114
			s-3.551,6.594-7.101,6.594c-3.551,0-0.508-2.028-0.508-2.028l-0.507-5.579l-3.551,2.028c0,0-6.593,1.521-8.114,2.029
			c-1.318,0.438-6.065,3.16-12.916,4.87c0.005,0.192,0.389,0.391,1.491,0.559c0.351,0.054,0.773,0.104,1.28,0.15
			c5.58,0.507,10.145,0.507,12.681,0.507c2.535,0,8.622-1.521,8.622-1.521l4.564,3.043c2.536,1.015,6.594-4.564,5.579-8.622
			c-0.852-3.405-2.774-9.667-3.37-11.593c-0.114-0.368-0.181-0.58-0.181-0.58l-2.028-0.507l2.131-7.304l1.419-4.869v-7.101
			l-2.535-5.579c0,0-0.832-0.517-2.021-0.943l0.499,0.437L281.397,100.577z"/>
		<path fill="#ED7A41" d="M224.591,118.836c0,0,11.666-1.521,8.623-2.029l-4.058-3.55l-4.058-2.536l1.014-6.594
			c0,0-2.535-3.55-3.55-5.579c-1.015-2.028-3.043-5.072-3.043-5.072l-1.521,12.681l-0.508,5.579L224.591,118.836z"/>
		<path fill="#ED7A41" d="M233.214,103.112v3.044l2.028,1.521c0,0-0.507-3.044-1.521-8.623c-0.511-2.811-1.15-5.62-1.659-7.718
			c-0.229,0.174-0.516,0.378-0.877,0.617c-1.439,0.961-2.199,0.784-2.598,0.332c-0.136-0.501-0.423-1.521-0.952-3.375l0.507,5.072
			l3.043,2.536L233.214,103.112z M228.532,92.22c-0.39-0.508-0.391-1.28-0.391-1.28S228.369,91.7,228.532,92.22z"/>
		<path fill="#ED7A41" d="M210.897,81.304c-2.536,0-4.058-2.536-4.058-2.536v3.55c0,0,3.043,6.087,3.55,8.115
			c0.508,2.029,2.536,2.536,2.536,2.536l1.171,2.926l1.365-0.39l0.108-0.394l1.413-5.186v-1.521v-5.579l0.507-6.087
			c0,0,0-0.001-1.338-1.004C214.315,78.521,212.164,81.304,210.897,81.304z"/>
		<path fill="#ED7A41" d="M210.897,128.472l2.535,2.029l2.029,0.507h3.043l4.564-2.028c3.043-0.508,6.087,0,6.087,0l0.507,2.028
			c0,0,1.521,1.015,3.551,0.508c0.878-0.22,2.802-1.39,4.702-2.646c-1.574-1.043-2.674-1.411-2.674-1.411h-3.55
			c0,0-9.13,0-13.694-1.015c-4.565-1.015-6.087-0.507-10.145-4.058l2.029,3.043L210.897,128.472z"/>
		<path fill="#ED7A41" d="M176.346,25.334c3.755,0.738,8.178,1.7,8.178,1.7l0.507-3.551c0,0,2.029-2.536,4.565-4.058
			s6.086,0.508,6.086,0.508l3.314,5.386l0.235-0.314l4.334,1.807c0.077-0.259,0.153-0.521,0.231-0.792
			c1.014-3.55,1.521-0.507,1.521-0.507l1.041,2.341l9.103,2.73l-1.015,4.565l-1.521,0.507l7.101,4.564c0,0,3.043,1.521,4.564,1.015
			s1.521,0,1.521,0l2.754,1.966c-2.834-3.701-7.825-9.573-7.825-9.573l-9.13-5.579c0,0-7.607-6.087-9.636-6.594
			c-2.029-0.508-8.622-2.536-11.158-3.551s-11.666-7.101-11.666-7.101l-1.408,3.821l-2.142,5.815L176.346,25.334z"/>
		<path fill="#ED7A41" d="M239.807,91.447l1.522,4.058v7.607l2.028,7.102l9.13,8.622l0.352,0.117l-6.438-13.305
			c0,0,0-4.058,0.508-6.086c0.507-2.029,4.058-5.072,4.058-5.072l4.564-4.564l-1.368-2.224l-2.689-4.37l0.237-1.662L239.807,91.447z
			"/>
		<path fill="#ED7A41" d="M244.372,82.317c-1.211,1.695-4.041,3.621-6.667,5.173l1.595-0.101c0,0,5.579-5.072,7.608-6.594
			c2.028-1.521,3.043-2.535,3.043-2.535l3.381-0.967c0.103-0.562,0.169-1.24,0.169-2.077l-0.507-2.028l-2.536-1.015
			c-1.824,3.65-2.863,5.463-4.247,7.516C245.673,80.488,245.083,81.323,244.372,82.317z"/>
		<path fill="#ED7A41" d="M257.56,112.749l-2.816,6.839l2.31,0.77c0,0,1.445,0,3.381,0l0.676-0.508l2.536-0.507l-0.507-4.564
			l-1.521-2.029l1.521-3.043c0,0,2.028-2.028,2.028-4.058c0-2.028,0-3.55,0-3.55l4.564-5.072l0.687-1.602
			c-1.025,1.128-2.087,2.396-3.077,3.63c-2.022,2.521-3.741,4.888-4.202,5.579C262.124,106.156,257.56,112.749,257.56,112.749z"/>
		<path fill="#ED7A41" d="M202.782,53.915c-2.536-1.521-3.043,2.536-3.043,2.536v6.594c0,0,4.058,5.071,5.579,6.593
			c1.521,1.522,5.579,0.508,5.579,0.508l2.535-1.015l1.673-0.278l0.356-4.286l-5.072-1.015l0.508-2.028l0.317-0.317
			c-0.866-0.218-1.817-0.583-2.854-1.205C205.825,58.479,205.318,55.437,202.782,53.915z"/>
		<path fill="#ED7A41" d="M136.34,73.695c-1.014,1.521-2.536,5.072-2.536,5.072l-1.014,1.521v4.564l11.665-8.115l5.072-1.521
			l0.206,0.239l4.352,5.048l8.122,9.422c0,0,4.058,2.028,4.058,3.55s0.507,6.087,0.507,6.087l3.551,0.507h5.071l2.536,6.594
			l1.521,2.536l3.044,1.015h8.115c0,0,3.043,0,4.564,1.521s2.535,3.55,2.535,3.55c1.239,1.239,3.656,3.656,6.087,6.086l4.057,1.015
			c-4.057-3.55-3.043-6.086-3.043-6.086l2.029-2.536l6.086-1.521h-9.637c0,0-3.55,0-6.593-0.507
			c-3.043-0.508-1.521-0.508-2.536-2.029s-1.521-1.015-5.579-3.043c-4.058-2.029-3.043,0-3.043,0s-2.536-0.507-5.579-2.536
			c-3.043-2.028,0-1.521,0-1.521l9.637-7.101c0,0-3.043,0-6.087,0c-3.043,0-8.622-1.521-8.622-3.551c0-2.028,0-3.043,0-5.071
			c0-2.029,2.029-7.101,2.029-7.101l4.057-1.015l1.522-4.058l2.535-7.607c0,0,0.508-4.058-0.507-6.594s-2.536-2.536-2.536-2.536
			l-7.607-4.564l9.129-5.579c0,0,0-5.431,0-7.811l-4.564,1.217l-1.521-4.564c-3.043-1.015-9.637,4.058-9.637,4.058v7.101
			c0,0,1.015,0.507,1.521,2.028s1.015,2.028-2.028,4.564c-3.044,2.536-3.551,6.087-3.551,6.087l5.579,4.058l4.564,4.058
			c-3.043,1.014-7.101,1.014-7.101,1.014l-4.058,0.508l-8.622-3.043c0,0,0.507-3.044-4.058-3.044s-9.129,2.029-10.144,3.551
			c-0.157,0.236-0.329,0.513-0.507,0.812C138.414,70.044,137.197,72.411,136.34,73.695z"/>
		<polygon fill="#FAF5CD" points="230.304,52.9 231.692,52.9 231.185,51.379 230.678,49.857 230.465,49.857 		"/>
		<path fill="#FAF5CD" d="M206.359,27.854l-1.041-2.341c0,0-0.508-3.043-1.521,0.507c-0.078,0.271-0.154,0.533-0.231,0.792
			l1.753,0.729L206.359,27.854z"/>
		<path fill="#F6A35D" d="M256.037,72.174l-4.058-2.536c0,0-1.521,0-5.071-1.014c-0.116-0.033-0.229-0.064-0.343-0.097
			c2.513,2.267,3.893,3.646,3.893,3.646l2.536,1.015l0.507,2.028v2.029l-0.169,0.048l-3.381,0.967c0,0-1.015,1.014-3.043,2.535
			c-2.029,1.521-7.608,6.594-7.608,6.594l-1.595,0.101l-6.521,0.406c0,0,0.375,1.375,0.877,3.44
			c0.509,2.098,1.148,4.907,1.659,7.718c1.015,5.579,1.521,8.623,1.521,8.623l-2.028-1.521v-3.044l-2.029-6.593l-3.043-2.536
			l-1.521,3.043l-2.536-1.015l-4.564-2.536c0,0,2.028,3.044,3.043,5.072c1.015,2.029,3.55,5.579,3.55,5.579l-1.014,6.594
			l4.058,2.536l4.058,3.55c3.043,0.508-8.623,2.029-8.623,2.029l-7.101-7.101l0.508-5.579c0,0-3.044,4.564-5.072,3.55l-2.536-5.579
			l-1.521,4.564c0,0-2.536-1.014-4.058-2.535c-1.521-1.522-9.129-1.522-9.129-1.522l-0.507-3.043l3.043-1.521l2.535,2.536
			l3.551-0.507l0.507-4.058V94.49l-2.535,2.536c0,0-5.072,2.028-7.101,2.028c-2.029,0,0-3.55,0-3.55v-5.072
			c0,0,1.014-4.058,2.535-5.072c1.521-1.014,3.551,0,3.551,0h5.071l2.029,1.015l-0.508,3.551l0.508,7.607l5.735-1.639l-1.171-2.926
			c0,0-2.028-0.507-2.536-2.536c-0.507-2.028-3.55-8.115-3.55-8.115v-3.55c0,0,1.521,2.536,4.058,2.536
			c1.267,0,3.418-2.783,5.255-5.569c-0.199-0.148-0.427-0.319-0.69-0.518c-2.029-1.521-2.029-2.028-2.029-2.028l1.521-2.536
			l0.151-1.8l-1.673,0.278l-2.535,1.015c0,0-4.058,1.015-5.579-0.508c-1.521-1.521-5.579-6.593-5.579-6.593v-6.594
			c0,0,0.507-4.058,3.043-2.536s3.043,4.564,5.579,6.086c1.036,0.622,1.987,0.987,2.854,1.205l5.261-5.263l-7.607-5.579
			l-3.043-5.071l-9.129,3.043l-2.029-0.507l0.508-7.101l3.55-7.608l-1.015-6.086l1.286-1.715l-3.314-5.386
			c0,0-3.55-2.029-6.086-0.508s-4.565,4.058-4.565,4.058l-0.507,3.551c0,0-4.423-0.962-8.178-1.7
			c-2.342-0.461-4.425-0.836-5.01-0.836c-1.521,0-3.55,0-3.55,0s-2.029-1.015-2.029,2.029c0,3.043-5.579,6.593,1.522,7.607
			c7.101,1.015,12.172,1.015,12.172,1.015s4.058,2.535,4.058,4.057c0,0.191,0,0.471,0,0.813c0,2.38,0,7.811,0,7.811l-9.129,5.579
			l7.607,4.564c0,0,1.521,0,2.536,2.536s0.507,6.594,0.507,6.594l-2.535,7.607l-1.522,4.058l-4.057,1.015
			c0,0-2.029,5.071-2.029,7.101c0,2.028,0,3.043,0,5.071c0,2.029,5.579,3.551,8.622,3.551c3.044,0,6.087,0,6.087,0l-9.637,7.101
			c0,0-3.043-0.507,0,1.521c3.043,2.029,5.579,2.536,5.579,2.536s-1.015-2.029,3.043,0c4.058,2.028,4.564,1.521,5.579,3.043
			s-0.507,1.521,2.536,2.029c3.043,0.507,6.593,0.507,6.593,0.507h9.637l-6.086,1.521l-2.029,2.536c0,0-1.014,2.536,3.043,6.086
			c4.058,3.551,5.579,3.043,10.145,4.058c4.564,1.015,13.694,1.015,13.694,1.015h3.55c0,0,1.1,0.368,2.674,1.411
			c0.279,0.185,0.572,0.389,0.877,0.617c2.028,1.521,6.594,5.579,8.115,6.594s-7.102,2.536,1.521,1.015
			c1.152-0.204,2.256-0.445,3.314-0.709c6.851-1.71,11.598-4.432,12.916-4.87c1.521-0.508,8.114-2.029,8.114-2.029l3.551-2.028
			l0.507,5.579c0,0-3.043,2.028,0.508,2.028c3.55,0,10.144-1.015,7.101-6.594s-5.579-8.114-7.101-8.114s-3.551,0-3.551,0
			s-1.521,0-5.071,0c-0.532,0-1.17,0-1.865,0c-1.793,1.854-4.729,4.058-4.729,4.058l-3.043-3.044l1.353-1.014
			c-1.936,0-3.381,0-3.381,0l-2.31-0.77l-1.904-0.635l-0.352-0.117l-9.13-8.622v6.086l-2.536-2.028l-10.144-2.029l7.607-3.551
			l5.072,1.522l-2.028-7.102v-7.607l-1.522-4.058l11.903-9.777l2.299-1.888l3.044-2.029v-2.536L256.037,72.174z M196.188,56.451
			v1.521l-3.55,3.551l-0.507-3.551v-3.551L196.188,56.451z M192.132,81.811l-2.029-3.55c0,0,0-3.551,0-7.608
			c0-2.398-0.178-3.024-0.322-3.135l-0.185,0.092c0,0,0.085-0.169,0.185-0.092l3.873-1.938l3.55,1.522c0,0,0,3.043-0.507,4.564
			c-0.508,1.521-2.536,1.015-2.536,1.015v1.521c0,0,1.521,5.579,1.015,8.114L192.132,81.811z M236.257,117.314l2.536,0.507
			l2.536,3.043l3.55,5.072l2.029,2.535l-2.029,5.579l-2.536-3.043l-5.579-4.564l-1.521-5.072L236.257,117.314z"/>
		<path fill="#F6A35D" d="M258.066,69.638l0.419,4.607C258.869,72.722,258.962,70.982,258.066,69.638z"/>
		<path fill="#F6A35D" d="M237.985,59.921l2.974-0.638c-0.401-0.184-0.645-0.296-0.645-0.296S238.084,58.786,237.985,59.921z"/>
		<polygon fill="#F6A35D" points="226.112,75.725 224.591,72.174 223.562,70.456 223.069,72.174 223.577,75.725 223.577,77.246 
			223.577,82.317 223.577,88.911 228.142,93.983 227.635,88.911 		"/>
		<path fill="#FBDE8F" d="M224.591,41.235c-1.521,0.507-4.564-1.015-4.564-1.015l-7.101-4.564l1.521-0.507l1.015-4.565l-9.103-2.73
			l-1.041-0.313l-1.753-0.729l-4.334-1.807l-0.235,0.314l-1.286,1.715l1.015,6.086l-3.55,7.608l-0.508,7.101l2.029,0.507
			l9.129-3.043l3.043,5.071l7.607,5.579l-5.261,5.263l-0.317,0.317l-0.508,2.028l5.072,1.015l-0.356,4.286l-0.151,1.8l-1.521,2.536
			c0,0,0,0.507,2.029,2.028c0.264,0.198,0.491,0.369,0.69,0.518c1.338,1.003,1.338,1.004,1.338,1.004l-0.507,6.087v5.579v1.521
			l-1.413,5.186l-0.108,0.394l-1.365,0.39l-5.735,1.639l-0.508-7.607l0.508-3.551l-2.029-1.015h-5.071c0,0-2.029-1.014-3.551,0
			c-1.521,1.015-2.535,5.072-2.535,5.072v5.072c0,0-2.029,3.55,0,3.55c2.028,0,7.101-2.028,7.101-2.028l2.535-2.536v3.551
			l-0.507,4.058l-3.551,0.507l-2.535-2.536l-3.043,1.521l0.507,3.043c0,0,7.607,0,9.129,1.522c1.521,1.521,4.058,2.535,4.058,2.535
			l1.521-4.564l2.536,5.579c2.028,1.015,5.072-3.55,5.072-3.55l1.521-12.681l4.564,2.536l2.536,1.015l1.521-3.043l-4.564-5.072
			v-6.594v-5.071v-1.521l-0.508-3.551l0.492-1.718l1.537-5.383l2.028-2.028h3.043l1.522-1.015l8.622,3.043l0.507,2.029
			c0,0,1.878,0.376,4.658,1.125c0.349,0.094,0.711,0.194,1.086,0.3c0.114,0.032,0.227,0.063,0.343,0.097
			c3.55,1.014,5.071,1.014,5.071,1.014l4.058,2.536l1.016,3.043v2.536c0,0-1.016,4.058,0.507,5.579
			c1.521,1.521,4.058,4.058,4.058,4.058s0.507,1.015,0.507-1.521s-0.507-5.579-0.507-5.579l-3.043-5.072l-0.089-0.972l-0.419-4.607
			c0,0-1.014-1.521-2.029-3.043c-1.014-1.521-3.55-4.564-3.55-4.564l-5.072-7.608l-2.536-2.536l-1.015,4.565l-1.521,2.536
			l-1.384,0.296l-2.974,0.638l-2.743,0.588h-3.55l-1.522-1.521v-3.551l0.134-2.536l0.161-3.043l0.213-4.058l-1.015-2.028
			l-0.797-0.57l-2.754-1.966C226.112,41.235,226.112,40.729,224.591,41.235z"/>
		<path fill="#FBDE8F" d="M265.167,102.099c0,0,0,1.521,0,3.55c0,2.029-2.028,4.058-2.028,4.058l-1.521,3.043l1.521,2.029
			l0.507,4.564l-2.536,0.507l-0.676,0.508l-1.353,1.014l3.043,3.044c0,0,2.936-2.203,4.729-4.058
			c0.789-0.815,1.357-1.564,1.357-2.029c0-1.521,0.508-3.043,0.508-4.564s0.507-7.607,0.507-7.607l3.043,1.014l2.028,1.521
			c0,0,1.015,3.551,1.522,0c0.507-3.55,0-5.579,0-5.579l3.043,6.594l2.536,0.508l-1.522-5.58l1.522-4.057l-1.522-8.115l-0.499-0.437
			l-3.558-3.114l-4.565,2.028v2.536l-0.835,1.949l-0.687,1.602L265.167,102.099z"/>
		<polygon fill="#FBDE8F" points="230.678,112.242 240.821,114.271 243.357,116.3 243.357,110.214 238.285,108.691 		"/>
		<polygon fill="#FBDE8F" points="242.343,131.008 244.879,134.051 246.908,128.472 244.879,125.937 241.329,120.864 
			238.793,117.821 236.257,117.314 235.242,121.371 236.764,126.443 		"/>
		<path fill="#FBDE8F" d="M189.596,67.609l0.185-0.092C189.681,67.44,189.596,67.609,189.596,67.609z"/>
		<path fill="#FBDE8F" d="M194.16,74.203v-1.521c0,0,2.028,0.507,2.536-1.015c0.507-1.521,0.507-4.564,0.507-4.564l-3.55-1.522
			l-3.873,1.938c0.145,0.11,0.322,0.736,0.322,3.135c0,4.058,0,7.608,0,7.608l2.029,3.55l3.043,0.507
			C195.682,79.782,194.16,74.203,194.16,74.203z"/>
		<polygon fill="#FBDE8F" points="192.132,57.973 192.639,61.523 196.188,57.973 196.188,56.451 192.132,54.422 		"/>
		<path fill="#F6A35D" d="M169.814,9.789l3.044,0.508h1.521l4.058-1.015l-6.087-1.521l-4.564-1.015
			C167.786,6.746,166.771,9.282,169.814,9.789z"/>
		<path fill="#763E20" d="M200.285,212.979l-1.561-0.313l-3.335-3.001l-1.736-1.563l1.521-3.043l2.028-4.058l-0.273-1.028
			l-1.051-3.939l-0.704-2.641c0,0-5.579,1.015-1.521-1.015c4.057-2.028,12.679-3.55,12.679-3.55v2.536v0.087v4.984l3.391-4.143
			l0.33-0.402l0.845-1.034c0,0,1.521-0.507-0.508-2.535c-1.79-1.791-4.765-3.974-6.484-4.462c-0.229-0.065-0.437-0.104-0.616-0.104
			c-1.521,0-4.564-0.507-6.086,0c-1.521,0.508-6.593,4.058-6.593,4.058l-1.522,1.521l-1.014,3.043c0,0-1.521,1.522-3.044,1.522
			c-1.521,0-4.564,0.507-6.086,0c-1.521-0.508-4.564-3.551-4.564-3.551l-6.087-5.072c0,0-2.028-3.043-3.55-3.043s-4.058,0-4.058,0
			s-1.015,0-2.536,0s-8.115-7.607-8.115-7.607l13.188-0.507c0,0-1.522-2.029-3.044-2.029s-7.101-0.507-9.129-0.507
			c-2.029,0-4.564,0-4.564,0l-0.508-3.551l3.043-2.536l-2.028-1.521l-4.564-2.028l-7.608-4.565c0,0-2.029-1.521-2.029-3.55
			c0-2.029-5.072-8.115,0-11.158c5.072-3.044,11.158-5.072,11.158-5.072c1.015-2.028-7.101-10.144-8.115-11.665
			c-1.014-1.521-3.55-4.565-3.55-4.565s2.536-6.086,4.565-6.086c2.028,0,4.564-1.014,4.564-1.014s3.043-2.029,3.043,3.043
			c0,5.071,0,5.071,0,5.071s-6.086,1.521,1.015,3.551c7.101,2.028,6.086,0.507,8.622,2.028s6.594,2.028,6.594,2.028
			s1.521,0.508,0.507-3.043c-1.015-3.55-3.551-7.101-3.551-7.101s-2.535,0-2.535-3.55c0-3.551,0.507-8.115,0-10.144
			c-0.233-0.933-1.216-2.507-2.211-3.938c-1.168-1.682-2.354-3.164-2.354-3.164s-0.356,0.415-0.789,0.979
			c-0.548,0.715-1.218,1.67-1.442,2.334c-0.75,2.221-1.825,4.802-1.825,4.802c-0.508,3.044-0.508,3.044-0.508,3.044l-3.043,1.521
			h-4.564l6.594-11.158l-8.115,1.521l-9.637,6.593l-3.043,1.015h-2.028v-8.622l3.55,1.015l-2.536-5.579l-5.579-2.029
			c0,0-1.521,0.507-1.521-1.521c0-2.029,0.507-4.564,0.507-4.564l5.072-2.536l3.55,1.015l3.55,1.521l-2.536-8.115h-2.029
			l-3.043,0.507c0,0-0.507,1.521-2.028,2.029c-1.521,0.507-5.072-1.015-5.072-1.015l-4.058-7.101v-0.922v-2.121l0.541-0.108
			l1.996-0.398l1.015-6.594c0,0-0.508,0,0-1.521c0.477-1.43,4.982-6.889,5.524-7.543c0.035-0.042,0.055-0.065,0.055-0.065
			s2.028-0.507,1.521-2.028c-0.508-1.522-0.508-4.058-0.508-4.058s-0.74-0.93-1.326-2.224c-0.384-0.846-0.702-1.846-0.702-2.849
			c0-2.536,0-10.144,0-11.665s-3.043-7.608-3.043-7.608l-7.101,0.508l-0.508-1.521l-1.015-3.551l-0.112-0.037l-1.41-0.47h-3.043
			l-1.014,0.145l-2.536,0.362l-0.508,2.536c0,0,0,2.028,0,3.551c0,1.521,0,1.521,0,1.521l4.058,2.535
			c0.882,1.177,4.15,2.692,6.742,3.76c1.878,0.774,3.402,1.313,3.402,1.313l4.058,3.55l-6.316,2.106l-0.785,0.261l-0.507,0.169
			c0,0-3.043,2.536-3.551,5.072c-0.507,2.536-2.028,6.594-2.028,6.594l-2.536,6.593l-2.028,3.551l-2.537,4.564l-3.043,3.551
			c0,0-0.507,0.507,1.015,2.028s1.521,3.043,1.521,3.043s-1.015,3.044,1.014,3.044c2.029,0,6.594,0,6.594,0s1.521-5.072,1.521,3.043
			c0,8.114,0,5.579,0,11.665c0,6.087,0,6.087,0,6.087l-1.015,2.535l3.043,4.058h1.312h1.135h0.597c0,0,3.043,1.015,1.014,3.551
			c-0.529,0.661-1.022,1.462-1.464,2.282c-0.117,0.217-0.229,0.433-0.337,0.649c-1.063,2.116-1.748,4.169-1.748,4.169
			s-1.521-0.507,1.015,4.564c2.535,5.072,5.071,7.101,2.535,13.694c-2.535,6.594-2.535,6.594-2.535,6.594s-2.536,1.521-2.029,5.071
			c0.507,3.551,0.507,3.044,2.536,5.579c2.028,2.536,2.536-1.521,2.536,6.594s-2.536,4.058,0,10.651s6.086,10.144,6.086,10.144
			s0.508,1.015,2.536,0.508c2.029-0.508,5.072-9.637,5.072-9.637l14.708,9.637c0,0,5.579-1.521,6.593,0
			c1.015,1.521,1.015,5.071,1.015,7.607s0,1.015,0,6.594s-8.115,5.579,0,5.579s16.23-2.536,16.23-2.536s3.043,2.029,4.058,3.551
			c1.014,1.521,1.014,4.058,3.043,5.579c2.028,1.521,4.058,2.028,4.058,2.028l6.086-1.521c0,0-7.283-5.921-0.694-3.943
			c0.361,0.108,0.754,0.235,1.201,0.394c8.623,3.043,10.651,5.579,10.651,5.579s0,3.997,0,6.455c0,0.445,0,0.84,0,1.152
			c0,2.028,0,5.071,1.521,9.129s-2.535,6.087,5.579,3.551c4.199-1.313,10.838-4.659,16.271-7.586
			c5.068-2.73,9.088-5.094,9.088-5.094L200.285,212.979z"/>
		<path d="M139.891,292.803c14.221,0.947,26.077-0.86,32.996-2.359c4.186-0.905,6.564-1.698,6.564-1.698l-2.028-2.536l-9.637-4.058
			c0,0-9.637-5.071-11.158-5.071s-10.651-5.072-10.651-5.072s-12.68-7.608-14.201-9.13s-6.086-4.564-6.086-4.564l-3.043-6.594
			l-4.058-3.043c0,0-4.564-2.536-8.115-3.551c-3.55-1.015-13.694-8.622-13.694-8.622l-12.172-13.187c0,0-8.622-24.345-9.637-28.91
			c-1.014-4.564-3.043-6.086-3.55-9.637c-0.507-3.55-6.086-12.172-8.115-16.229s-4.565-12.173-4.565-13.694
			c0-1.522-1.014-13.188-1.014-13.188l-8.622-14.709c0,0-4.565-10.144-6.086-15.215c-1.521-5.072-0.507-5.072-0.507-9.637
			c0-4.565,0-8.623,0-8.623s0-18.766,0-20.794c0-2.029-4.565-2.536-4.565-2.536l-7.101-10.651c-2.373,1.779-3.14,1.868-3.497,1.863
			l0,0c-0.449,0.627-0.889,1.261-1.329,1.895c-1.209,2.334-3.974,7.526-10.898,19.065c-0.596,0.995-1.17,2.006-1.723,3.03
			c-4.433,9.62-7.853,19.801-10.127,30.407c-4.368,24.535-1.881,50.768,2.213,68.509c2.881,12.481,8.264,26.099,16.25,39.239
			c7.205,11.686,15.998,22.286,26.087,31.493c3.284,2.935,6.753,5.74,10.411,8.39C87.65,284.688,117.067,291.281,139.891,292.803z"
			/>
	</g>
</g>
</svg>
