<?xml version="1.0" encoding="utf-8"?>
<!-- Generator: Adobe Illustrator 12.0.0, SVG Export Plug-In . SVG Version: 6.00 Build 51448)  -->
<!DOCTYPE svg PUBLIC "-//W3C//DTD SVG 1.1//EN" "http://www.w3.org/Graphics/SVG/1.1/DTD/svg11.dtd" [
	<!ENTITY ns_svg "http://www.w3.org/2000/svg">
	<!ENTITY ns_xlink "http://www.w3.org/1999/xlink">
]>
<svg  version="1.1" xmlns="&ns_svg;" xmlns:xlink="&ns_xlink;" width="302.098" height="302.098" viewBox="0 0 302.098 302.098"
	 overflow="visible" enable-background="new 0 0 302.098 302.098" xml:space="preserve">
<g id="Layer_3">
</g>
<g id="Layer_2">
	<g>
		<path d="M25.927,66.409C14.874,82.715,6.93,101.298,2.935,121.306c4.39-18.113,12.875-37.779,22.86-54.454L25.927,66.409z"/>
		<path d="M301.643,139.262c0.005,0.063,0.012,0.127,0.017,0.191C301.654,139.39,301.647,139.326,301.643,139.262z"/>
		<path d="M301.243,134.957c0.038,0.354,0.076,0.708,0.111,1.063C301.319,135.665,301.281,135.312,301.243,134.957z"/>
		<path d="M44.785,258.388c-0.522-0.517-1.038-1.04-1.552-1.564C43.747,257.348,44.263,257.872,44.785,258.388z"/>
		<path d="M28.916,239.927c-1.495-2.052-2.94-4.142-4.333-6.269C25.976,235.786,27.42,237.875,28.916,239.927z"/>
		<path d="M27.057,64.779c-0.175,0.25-0.349,0.501-0.522,0.753c0.052-0.05,0.104-0.101,0.155-0.151
			C26.812,65.18,26.934,64.978,27.057,64.779z"/>
		<path d="M292.78,98.715c0.152,0.413,0.3,0.828,0.449,1.243C293.08,99.543,292.933,99.128,292.78,98.715z"/>
		<path d="M5.599,186.831l2.513-11.208l-2.048-0.409c0,0-1.394,5.111-1.859,8.364c-0.068,0.48-0.168,1.095-0.287,1.789
			c0.35,1.508,0.729,3.004,1.125,4.494l0.556-2.41V186.831z"/>
		<path d="M67.279,276.75c-0.477-0.318-0.952-0.639-1.424-0.964C66.327,276.112,66.802,276.432,67.279,276.75z"/>
		<path d="M24.26,233.168c0.065,0.1,0.131,0.198,0.196,0.297c-0.063-0.097-0.125-0.196-0.188-0.293L24.26,233.168z"/>
		<path d="M291.697,95.866c-0.05-0.128-0.101-0.257-0.151-0.385l-0.001,0.006C291.595,95.614,291.647,95.739,291.697,95.866z"/>
		<path d="M86.456,80.88c-0.361,0.542-1.143,2.206-1.964,4.038l5.487-3.164C88.608,80.896,86.968,80.112,86.456,80.88z"/>
		<path d="M50.349,263.623c-0.509-0.456-1.016-0.913-1.519-1.375C49.333,262.709,49.839,263.167,50.349,263.623z"/>
		<path d="M48.209,261.669c-1.092-1.017-2.17-2.046-3.231-3.094C46.039,259.624,47.117,260.653,48.209,261.669z"/>
		<path d="M301.877,142.899c0.019,0.34,0.033,0.682,0.049,1.023C301.91,143.581,301.896,143.24,301.877,142.899z"/>
		<path d="M302.024,146.507c0.01,0.345,0.021,0.69,0.028,1.036C302.045,147.197,302.034,146.852,302.024,146.507z"/>
		<path d="M51.947,37.056c-2.943,2.562-5.782,5.238-8.519,8.017c1.397-1.314,2.836-2.606,4.31-3.876
			C48.996,39.864,50.375,38.495,51.947,37.056z"/>
		<path d="M295.064,105.386c0.096,0.301,0.195,0.6,0.289,0.901C295.26,105.986,295.16,105.687,295.064,105.386z"/>
		<path d="M226.235,20.542l0.094-0.073l0.92,0.712c1.199,0.761,2.365,1.516,3.493,2.256l7.205,4.467l-0.351,0.175
			c5.301,3.698,8.715,6.331,8.715,6.331l2.323,2.323l9.294,7.9l5.524,5.524c-12.587-14.013-27.754-25.656-44.756-34.188l0.758,0.47
			C221.78,17.788,224.053,19.171,226.235,20.542z"/>
		<path d="M297.152,112.597c0.104,0.399,0.209,0.799,0.312,1.2C297.361,113.396,297.257,112.996,297.152,112.597z"/>
		<path d="M296.252,109.309c0.111,0.388,0.218,0.778,0.326,1.167C296.47,110.086,296.363,109.697,296.252,109.309z"/>
		<path d="M298.094,116.377c0.052,0.223,0.107,0.443,0.159,0.666C298.201,116.821,298.146,116.6,298.094,116.377z"/>
		<path d="M293.903,101.87c0.146,0.425,0.292,0.851,0.435,1.278C294.195,102.721,294.049,102.295,293.903,101.87z"/>
		<path d="M298.947,120.23c0.075,0.364,0.146,0.729,0.219,1.093C299.093,120.958,299.022,120.594,298.947,120.23z"/>
		<path d="M108.117,6.2c-8.217,2.432-16.141,5.542-23.709,9.269c4.511-1.955,9.408-3.76,14.26-5.374
			C101.888,8.683,105.05,7.384,108.117,6.2z"/>
		<path d="M300.298,127.689c0.022,0.14,0.047,0.279,0.068,0.419C300.345,127.968,300.32,127.829,300.298,127.689z"/>
		<path d="M207.362,10.856c-1.691-0.68-3.396-1.332-5.117-1.951l2.562,1.708C205.611,10.612,206.463,10.689,207.362,10.856z"/>
		<path d="M300.832,131.439c0.045,0.347,0.086,0.695,0.129,1.043C300.918,132.134,300.877,131.786,300.832,131.439z"/>
		<path d="M299.609,123.64c0.068,0.374,0.138,0.748,0.204,1.123C299.747,124.387,299.678,124.014,299.609,123.64z"/>
		<path d="M191.478,6.993h5.111l4.242,1.414c-7.63-2.663-15.537-4.734-23.669-6.151l7.33,4.143
			C188.769,6.762,191.478,6.993,191.478,6.993z"/>
		<path d="M70.293,278.712c-0.576-0.365-1.148-0.736-1.719-1.108C69.145,277.976,69.717,278.347,70.293,278.712z"/>
		<path d="M128.195,300.379c-0.23-0.035-0.458-0.075-0.688-0.111C127.737,300.304,127.965,300.344,128.195,300.379z"/>
		<path d="M76.452,282.415c-0.453-0.257-0.903-0.518-1.352-0.78C75.549,281.897,75.999,282.158,76.452,282.415z"/>
		<path d="M113.876,297.484c-0.369-0.094-0.738-0.188-1.106-0.284C113.138,297.296,113.507,297.39,113.876,297.484z"/>
		<path d="M110.327,296.539c-0.268-0.075-0.538-0.146-0.805-0.223C109.789,296.392,110.059,296.463,110.327,296.539z"/>
		<path d="M124.822,299.824c-0.357-0.063-0.713-0.127-1.07-0.191C124.108,299.697,124.465,299.76,124.822,299.824z"/>
		<path d="M121.239,299.151c-0.285-0.058-0.571-0.111-0.855-0.17C120.667,299.04,120.954,299.093,121.239,299.151z"/>
		<path d="M117.164,298.28c-0.292-0.067-0.583-0.139-0.875-0.207C116.581,298.141,116.872,298.212,117.164,298.28z"/>
		<path d="M106.443,295.4c-0.344-0.105-0.685-0.216-1.027-0.325C105.759,295.184,106.1,295.294,106.443,295.4z"/>
		<path d="M89.521,289.033c-0.434-0.194-0.867-0.39-1.299-0.588C88.654,288.643,89.087,288.838,89.521,289.033z"/>
		<path d="M86.057,287.433c-0.422-0.2-0.842-0.406-1.262-0.611C85.214,287.027,85.634,287.233,86.057,287.433z"/>
		<path d="M92.984,290.527c-0.401-0.167-0.802-0.334-1.202-0.505C92.182,290.193,92.583,290.36,92.984,290.527z"/>
		<path d="M83.108,285.984c-0.422-0.213-0.845-0.426-1.265-0.643C82.263,285.558,82.686,285.771,83.108,285.984z"/>
		<path d="M99.744,293.155c-0.254-0.092-0.511-0.18-0.765-0.273C99.233,292.975,99.49,293.063,99.744,293.155z"/>
		<path d="M79.683,284.202c-0.526-0.283-1.05-0.571-1.573-0.859C78.633,283.63,79.157,283.918,79.683,284.202z"/>
		<path d="M103.251,294.373c-0.383-0.128-0.766-0.256-1.148-0.387C102.485,294.117,102.868,294.245,103.251,294.373z"/>
		<path d="M96.064,291.773c-0.386-0.15-0.769-0.306-1.153-0.459C95.295,291.467,95.678,291.623,96.064,291.773z"/>
		<path d="M58.568,270.476c-0.496-0.385-0.991-0.772-1.482-1.164C57.578,269.704,58.072,270.091,58.568,270.476z"/>
		<path d="M61.34,272.577c-0.59-0.438-1.175-0.879-1.759-1.324C60.165,271.698,60.75,272.139,61.34,272.577z"/>
		<path d="M64.662,274.961c-0.476-0.333-0.954-0.664-1.426-1.003C63.708,274.297,64.186,274.628,64.662,274.961z"/>
		<path d="M52.668,265.663c-0.516-0.444-1.027-0.895-1.537-1.345C51.642,264.768,52.152,265.218,52.668,265.663z"/>
		<path d="M56.169,268.574c-1.096-0.886-2.182-1.785-3.252-2.702C53.987,266.788,55.073,267.688,56.169,268.574z"/>
		<path d="M42.003,255.565c0.214,0.223,0.432,0.44,0.647,0.662c-0.204-0.21-0.405-0.423-0.607-0.634L42.003,255.565z"/>
		<path d="M147.549,302.054c-0.34-0.008-0.68-0.019-1.02-0.029C146.869,302.036,147.208,302.046,147.549,302.054z"/>
		<path d="M73.656,280.781c-0.447-0.268-0.895-0.533-1.339-0.805C72.761,280.248,73.209,280.513,73.656,280.781z"/>
		<path d="M132.445,300.958c-0.304-0.037-0.609-0.072-0.913-0.112C131.836,300.885,132.141,300.92,132.445,300.958z"/>
		<path d="M29.194,240.308c0.186,0.254,0.368,0.51,0.556,0.763l0.001-0.016C29.565,240.806,29.377,240.559,29.194,240.308z"/>
		<path d="M139.5,301.663c-0.14-0.011-0.279-0.024-0.419-0.036C139.22,301.638,139.36,301.652,139.5,301.663z"/>
		<path d="M136.059,301.359c-0.349-0.034-0.697-0.071-1.046-0.108C135.362,301.288,135.71,301.325,136.059,301.359z"/>
		<path d="M143.906,301.925c-0.322-0.016-0.645-0.027-0.967-0.045C143.261,301.898,143.584,301.91,143.906,301.925z"/>
		<path fill="#E9A98F" d="M212.621,187.528c0.124-0.05,0.217-0.087,0.292-0.118c0.047-0.051,0.094-0.102,0.14-0.152
			c-0.121-0.032-0.306-0.108-0.199-0.427c0.231-0.697,1.626-7.667,1.626-7.667s-4.688-0.697-9.235-1.496
			c-0.426-0.074-0.851-0.15-1.271-0.227l1.212,3.116C205.186,180.557,211.459,187.993,212.621,187.528z"/>
		<path fill="#E9A98F" d="M216.105,248.17c0.163-0.469,0.309-0.903,0.447-1.321c-0.804,0.562-2.537-0.305-2.537-0.305
			s-0.737-0.135-1.918-0.401c0.12,0.065,0.224,0.124,0.291,0.169C213.782,247.241,214.016,254.211,216.105,248.17z"/>
		<path fill="#E9A98F" d="M185.204,168.243c0.696,1.162,2.556,2.092,2.556,3.253c0,1.162,0,3.95-0.232,6.041
			c-0.225,2.019-5.426,7.065-8.922,10.758c0.151,0.662,0.26,1.197,0.303,1.532c0.433,0.054,0.773,0.069,0.951,0.024
			c0.93-0.232,1.395,2.092,1.395,2.092s-1.727,0.784-3.374,1.709c0.335,0.251,0.65,0.446,0.818,0.614
			c0.697,0.697,2.091,0.465,2.788,1.161c0.004,0.005,0.012,0.011,0.017,0.016c0.375-0.579,0.753-1.138,1.146-1.642
			c1.626-2.091,4.414-0.232,4.414-0.232l0.232,0.93c0,0,0,2.788,0,3.485c0,0.126,0.023,0.269,0.064,0.431
			c0.876,0.656,1.897,1.41,2.901,2.118c0.117-1.09,0.266-2.358,0.52-3.943c0.93-5.809,0.697-1.626,0.697-1.626s2.323,0,3.253,0
			c0.929,0,2.556-2.324,3.021-3.021c0.465-0.697,0.929-4.415,1.161-5.577c0.232-1.161,1.627-2.556,1.627-2.556s0-2.788,0-3.718
			c0-0.929,1.161-2.091,1.161-2.091l0.552-0.881c-2.925-0.563-5.264-1.107-5.431-1.442c-0.465-0.93-0.465-3.253-1.858-5.809
			c-1.395-2.556-0.93-2.324-1.162-4.183s-0.465-1.394-0.465-1.394s-0.232-1.162-0.93-1.859c-0.696-0.697-1.394-1.162-2.323-2.091
			c-0.93-0.93-3.718-3.485-4.183-5.344c-0.464-1.859,0-5.112,0.232-6.971c0.134-1.069,0.729-2.293,1.432-3.757
			c-2.021,0.026-4.824,2.348-8.478,5.022c0.536,2.283,1.273,5.139,2.632,8.958C185.437,168.708,184.507,167.082,185.204,168.243z"/>
		<path fill="#E9A98F" d="M203.56,176.375l-0.697-0.232l-0.61,0.978c0.556,0.106,1.134,0.214,1.722,0.32L203.56,176.375z"/>
		<path fill="#E9A98F" d="M268.385,172.658c0.697-0.93,0.697-3.95,0.929-5.344c0.074-0.443-0.04-0.839-0.229-1.173
			c-0.135,0.217-0.286,0.449-0.467,0.708C266.99,169.172,268.385,172.658,268.385,172.658z"/>
		<path fill="#E9A98F" d="M274.193,214.248c0.059-0.044,0.111-0.086,0.168-0.129c-0.613,0.081-1.227,0.129-1.795,0.129
			c-1.208,0-1.686-0.104-1.857-0.213C270.748,214.739,271.127,216.547,274.193,214.248z"/>
		<path fill="#E9A98F" d="M258.161,209.369c-0.416-0.313-0.927-1.561-1.363-2.84c0.057,1.112,0.215,2.402,0.666,3.305
			c0.43,0.858,2.36,1.895,3.778,2.726C260.068,211.164,258.667,209.749,258.161,209.369z"/>
		<path fill="#E9A98F" d="M262.771,214.665c-0.042,0.675-0.124,1.597-0.255,2.464c0.305-0.719,0.524-1.362,0.524-1.719
			C263.04,215.228,262.937,214.967,262.771,214.665z"/>
		<path fill="#E9A98F" d="M271.638,199.145l-6.274-0.465l-6.272,0.697c0,0-0.777,1.478-1.433,2.948
			c1.973-1.05,5.039-2.565,6.544-2.716C266.525,199.377,271.638,199.145,271.638,199.145z"/>
		<path fill="#E9A98F" d="M270.708,213.783c0,0,0.697-8.829,0.93-9.99c0.231-1.162,0-4.647,0-4.647s-2.324,4.183-2.789,6.738
			C268.385,208.439,270.708,213.783,270.708,213.783z"/>
		<path fill="#E9A98F" d="M148.493,173.123c-0.145-0.437-0.291-1.601-0.379-2.411c-1.396,0.842-2.642,1.714-2.642,1.714l0.929,3.95
			C146.401,176.375,148.725,173.819,148.493,173.123z"/>
		<path fill="#E9A98F" d="M218.895,228.886c0.465-1.395,17.193-11.851,17.193-11.851s0.465-5.111,0.465-6.041
			c0-0.771,0.644-5.714,2.995-6.695c-0.639,0.126-1.146,0.273-1.369,0.422c-0.696,0.465-4.182,3.253-4.182,3.253l-2.324,2.788
			c0,0-2.555,6.738-2.787,8.133c-0.233,1.394-2.323,2.323-2.323,2.323s-4.647,0-5.577,0c-0.929,0-2.556,1.858-3.485,3.253
			c-0.929,1.395-3.253,7.202-3.253,7.202v3.95c0,0,1.627,5.809,2.556,9.294c0.074,0.277,0.116,0.518,0.135,0.73
			c1.254-4.023,1.26-5.437,1.26-7.004C218.197,236.786,218.43,230.28,218.895,228.886z"/>
		<path fill="#E9A98F" d="M135.249,265.674l0.502-4.019c-0.951,1.005-2.344,2.353-5.772,4.664l1.243,0.903L135.249,265.674z"/>
		<path fill="#E9A98F" d="M249.1,207.509c0.697,3.485,1.858,6.971,1.858,9.294s-0.232,4.183,1.162,4.183s8.597-0.232,8.597-0.232
			s0.217-0.392,0.517-0.963c-0.717,0.188-1.623-0.199-2.143-0.199c-0.697,0-2.556,0-5.576,0s-1.162-1.161-1.162-1.161
			s0.465-2.091,0.697-4.88c0.231-2.788,0-3.021,0-4.646s-1.162-2.091-2.324-3.021c-1.161-0.93-5.111-1.626-6.737-1.858
			c-0.854-0.122-2.218-0.052-3.423,0.109c0.202,0.015,0.413,0.053,0.634,0.123C244.917,205.418,248.402,204.025,249.1,207.509z"/>
		<path fill="#E9A98F" d="M151.476,301.491c1.405-0.281,2.981-0.563,4.521-0.844c0.051-0.18,0.095-0.362,0.126-0.55v0.465v-0.465
			c-0.031,0.188-0.075,0.37-0.126,0.55c0.361-0.065,0.721-0.132,1.076-0.198c-0.072,0-0.144,0.001-0.216,0
			c-0.697-0.007,8.364-2.091,8.364-2.091l4.183-10.456l-5.576-8.829c0,0-0.465-0.465,0-1.858c0.465-1.395,9.758-11.851,9.758-11.851
			s1.395,12.547,2.092,13.012s1.858,1.162,4.414,1.162c2.557,0,9.062-1.162,9.526-2.556c0.465-1.395,2.092-7.899,2.788-6.971
			c0.697,0.93,6.971,12.779,6.971,12.779l1.162,1.858l1.626-3.718c0,0-0.697-5.344-0.929-6.272c-0.232-0.93-2.092-6.041-2.092-6.041
			s-1.394-5.81-1.394-7.203c0-1.395,0-3.95,0-7.668c0-3.717-0.232-11.385,0-12.547c0.071-0.356,1.348-0.099,3.12,0.454
			c-0.57-0.367-1.144-0.747-1.727-1.15c-3.021-2.092-3.718-2.324-4.414-3.253c-0.697-0.93-3.253-3.95-3.253-3.95
			s-4.874-0.232-7.815-0.697c-1.5,0-2.991,0-3.338,0l-0.087,0.052c-0.942,1.417-1.828,2.872-2.236,2.736
			c-0.694-0.231-0.927-2.305-0.93-2.321c-0.933-0.147-1.872-0.371-2.091-0.699c-0.465-0.697-3.021-1.394-3.021-2.091
			c0-0.056,0-0.113,0-0.17c-1.476-0.323-3.485-0.992-3.485-0.992l-1.858-5.111c0,0-2.092,2.788-3.485,4.88
			c-1.395,2.091-3.95,5.576-6.273,5.344s0-0.697-0.465-4.183s-2.556-1.395-4.879-0.232c-2.324,1.162-1.859,2.788-2.324,4.879
			c-0.465,2.092-2.323,1.859-2.323,1.859s-2.091,1.161-4.647,3.021c-2.556,1.858-1.858,3.021-2.323,4.88
			c-0.465,1.858-0.232,1.161-0.232,4.414s0.232,5.344,0.232,5.344s4.027,3.718,4.337,4.647c0.31,0.929,2.479,8.364,2.479,8.364
			s6.195,13.941,6.195,16.729c0,2.789,0,6.816,0,6.816l-2.788,5.576c0,0-8.674-0.62-9.604-1.239c-0.93-0.62-1.859-0.311-1.859-0.311
			l-3.098-3.718l2.168-2.168l-0.619-0.31c0,0-4.027-7.435-4.957-8.984c-0.929-1.548-4.337-14.87-4.337-14.87l1.851,1.347
			c-0.022-0.79-0.11-2.476-0.457-3.515c-0.465-1.395-0.697-2.789-1.394-3.485c-0.569-0.57-1.6-1.756-2.339-2.68
			c-0.744,1.914-1.378,7.403-1.378,7.403l-7.745-4.646l4.338-1.55l1.549-7.744l0.31-0.62l0.124,0.118
			c0.284-1.318,0.729-2.828,0.729-2.828s2.091-2.556,3.253-4.647c1.162-2.091,5.576-8.364,7.667-12.779
			c2.091-4.414,1.858-4.646,1.858-4.646s0.93-2.788,1.395-4.415c0.464-1.626,3.021-3.485,4.182-6.273s1.394-5.111,0.232-6.041
			c-1.162-0.929-3.253-0.464-3.253-0.464s-3.253-1.859-3.253-3.485c0-1.627,0.929-5.345,2.324-8.829
			c1.394-3.485,2.788-2.557,3.485-4.183c0.697-1.627,2.788-3.95,3.718-6.506c0.929-2.556,0.929-4.646,0.929-4.646l0.464-3.253
			l-4.182,5.344c0,0-5.576,2.323-6.97,2.323s-2.324-1.858-2.324-1.858l-2.788-1.395c0,0-8.364,0.93-10.688,1.395
			c-2.323,0.465-2.788,3.253-3.252,4.646c-0.465,1.395-6.042,5.576-7.436,9.759s-2.323,0.93-2.323,0.93l-5.112-0.93
			c0,0-2.324,6.041-2.324,7.899c0,1.859,0,7.436,0,10.688s5.577,6.041,5.577,6.041l1.394-0.93c0,0,7.435-2.788,10.688-2.788
			s5.112,2.788,5.112,2.788s-0.426,0.305-1.074,0.776c1.684,0.047,3.326,0.153,4.327,0.153c2.556,0,0.929,1.162,0.929,1.162
			s0,4.182,0,5.344s-3.95,3.021-6.506,4.646c-2.556,1.627-6.97,3.95-11.85,6.273c-4.879,2.324-3.021,1.859-3.95,2.091
			c-0.93,0.233-5.809,3.254-8.83,4.415c-3.021,1.162-3.717,1.395-6.273,1.395c-2.556,0-2.324-0.697-2.324-0.697l-3.77-1.257
			l-3.433,9.156v2.324l-4.182,2.788l-3.718,3.718l3.252,3.717l5.112,1.395h2.789l1.859,0.93l2.323,2.788l0.93-1.395l0.929-1.858
			l5.576-10.224l1.859,5.576c0,0,0,10.224,0,12.082c0,1.859,0.929,2.788,0.929,2.788l1.394,7.436l-1.394,0.93l-1.394-2.324
			c0,0,0-1.858-0.465-3.252c-0.464-1.395-3.252-1.859-3.252-1.859l-4.647-0.93h-5.111l-0.438,4.381
			c2.22,1.696,5.085,3.52,5.085,3.52l-5.112-3.253l0.027-0.267c-0.746-0.57-1.418-1.126-1.886-1.592
			c-1.859-1.859-5.112-2.324-6.505-2.789c-1.395-0.465-2.324-0.465-2.324-0.465l2.324-1.858h3.252l0.465-2.788l-2.788-4.646v1.394
			l-1.859,2.323l-1.394,2.789h-1.858l-2.324-2.324l4.647-2.323l1.394-2.323l-4.183-3.253l-3.253,4.646l-1.858,1.395l-21.179-15.348
			c0.203,0.211,0.404,0.424,0.607,0.634c0.194,0.2,0.388,0.399,0.583,0.597c0.515,0.524,1.03,1.048,1.552,1.564
			c0.064,0.063,0.128,0.125,0.193,0.188c1.061,1.048,2.14,2.077,3.231,3.094c0.208,0.192,0.413,0.386,0.621,0.578
			c0.503,0.462,1.009,0.919,1.519,1.375c0.26,0.233,0.521,0.465,0.783,0.695c0.51,0.45,1.021,0.9,1.537,1.345
			c0.083,0.07,0.166,0.139,0.249,0.209c1.07,0.917,2.156,1.816,3.252,2.702c0.305,0.247,0.61,0.494,0.917,0.738
			c0.492,0.392,0.986,0.779,1.482,1.164c0.336,0.261,0.675,0.519,1.013,0.776c0.583,0.445,1.168,0.887,1.759,1.324
			c0.629,0.465,1.259,0.928,1.896,1.382c0.473,0.339,0.95,0.67,1.426,1.003c0.396,0.276,0.793,0.553,1.192,0.825
			c0.473,0.325,0.948,0.646,1.424,0.964c0.43,0.287,0.862,0.57,1.295,0.854c0.571,0.372,1.144,0.743,1.719,1.108
			c0.671,0.426,1.345,0.848,2.024,1.264c0.444,0.271,0.892,0.537,1.339,0.805c0.479,0.287,0.96,0.572,1.443,0.854
			c0.449,0.263,0.899,0.523,1.352,0.78c0.55,0.313,1.104,0.621,1.658,0.928c0.523,0.288,1.047,0.576,1.573,0.859
			c0.717,0.385,1.437,0.767,2.16,1.14c0.42,0.217,0.843,0.43,1.265,0.643c0.56,0.282,1.122,0.562,1.686,0.838
			c0.42,0.205,0.84,0.411,1.262,0.611c0.718,0.344,1.441,0.68,2.166,1.012c0.432,0.198,0.865,0.394,1.299,0.588
			c0.751,0.335,1.504,0.665,2.261,0.989c0.4,0.171,0.801,0.338,1.202,0.505c0.64,0.267,1.282,0.529,1.926,0.787
			c0.384,0.153,0.768,0.309,1.153,0.459c0.967,0.379,1.938,0.75,2.915,1.108c0.254,0.094,0.511,0.182,0.765,0.273
			c0.783,0.283,1.57,0.561,2.359,0.831c0.382,0.131,0.765,0.259,1.148,0.387c0.72,0.239,1.441,0.474,2.166,0.702
			c0.342,0.109,0.683,0.22,1.027,0.325c1.021,0.316,2.047,0.622,3.078,0.916c0.268,0.076,0.537,0.147,0.805,0.223
			c0.812,0.227,1.626,0.448,2.443,0.661c0.368,0.097,0.737,0.19,1.106,0.284c0.802,0.202,1.606,0.398,2.413,0.589
			c0.292,0.068,0.583,0.14,0.875,0.207c1.069,0.245,2.142,0.479,3.219,0.701c0.284,0.059,0.57,0.112,0.855,0.17
			c0.835,0.167,1.673,0.328,2.513,0.481c0.357,0.064,0.713,0.128,1.07,0.191c0.893,0.156,1.788,0.304,2.685,0.444
			c0.23,0.036,0.458,0.076,0.688,0.111c1.108,0.167,2.222,0.323,3.338,0.466c0.304,0.04,0.608,0.075,0.913,0.112
			c0.854,0.105,1.71,0.203,2.568,0.293c0.349,0.037,0.697,0.074,1.046,0.108c1.004,0.099,2.011,0.189,3.021,0.268
			c0.14,0.012,0.279,0.025,0.419,0.036c1.143,0.086,2.29,0.156,3.44,0.218c0.322,0.018,0.645,0.029,0.967,0.045
			c0.873,0.041,1.747,0.074,2.623,0.1c0.34,0.011,0.679,0.021,1.02,0.029c1.164,0.026,2.33,0.044,3.5,0.044
			c1.455,0,2.904-0.025,4.35-0.066c0.254-0.439,0.46-0.898,0.599-1.385C154.457,300.928,152.881,301.209,151.476,301.491z"/>
		<path fill="#F6CF5D" d="M288.982,209.321l-0.151,1.209c0,0-39.438,90.705-131.758,89.919c-0.355,0.066-0.715,0.133-1.076,0.198
			c-0.139,0.486-0.345,0.945-0.599,1.385c60.704-1.717,112.437-39.251,134.83-92.213
			C289.833,209.639,289.416,209.477,288.982,209.321z"/>
		<path fill="#E9A98F" d="M302.053,147.543c-0.008-0.346-0.019-0.691-0.028-1.036c-0.026-0.863-0.059-1.725-0.099-2.584
			c-0.016-0.341-0.03-0.683-0.049-1.023c-0.062-1.152-0.132-2.301-0.218-3.446c-0.005-0.064-0.012-0.128-0.017-0.191
			c-0.084-1.084-0.182-2.165-0.288-3.242c-0.035-0.355-0.073-0.708-0.111-1.063c-0.087-0.828-0.182-1.652-0.282-2.475
			c-0.043-0.348-0.084-0.696-0.129-1.043c-0.145-1.114-0.298-2.225-0.466-3.331c-0.021-0.14-0.046-0.279-0.068-0.419
			c-0.151-0.979-0.314-1.954-0.484-2.927c-0.066-0.375-0.136-0.749-0.204-1.123c-0.142-0.774-0.29-1.546-0.443-2.316
			c-0.073-0.365-0.144-0.729-0.219-1.093c-0.222-1.066-0.451-2.129-0.694-3.187c-0.052-0.223-0.107-0.443-0.159-0.666
			c-0.203-0.863-0.412-1.724-0.63-2.581c-0.103-0.401-0.207-0.8-0.312-1.2c-0.187-0.709-0.378-1.416-0.574-2.121
			c-0.108-0.39-0.215-0.779-0.326-1.167c-0.29-1.011-0.589-2.019-0.898-3.021c-0.094-0.302-0.193-0.601-0.289-0.901
			c-0.237-0.749-0.479-1.495-0.727-2.238c-0.143-0.427-0.289-0.853-0.435-1.278c-0.22-0.639-0.445-1.277-0.674-1.912
			c-0.149-0.415-0.297-0.83-0.449-1.243c-0.353-0.954-0.712-1.904-1.083-2.849c-0.05-0.127-0.103-0.252-0.152-0.379l-2.017,10.486
			h-3.253c0,0-1.859,0-3.253,0c-1.395,0-4.647,0-9.294,0.465s0,0-5.576,3.253s-4.183,0.465-6.971,0.465s-2.788,0-4.646-0.465
			c-1.859-0.464,0-4.182,0-7.9c0-3.717-1.395-0.929-3.718-1.394c-2.323-0.464-7.9,2.324-13.941,4.182
			c-6.041,1.859-4.646,7.435-5.576,10.688c-0.93,3.253-6.041,2.788-7.435,2.323c-1.395-0.465,0-2.788,0-4.182
			c0-1.395,0-5.112-1.395-6.041c-1.394-0.93-8.365-0.465-10.688-0.465s-8.364,4.182-11.617,6.97
			c-3.253,2.789-4.646,5.577-6.971,10.223c-2.323,4.647-3.252,2.324-3.252,2.324l-4.647,3.718v8.829c0,0,0.785,1.256,1.484,2.607
			c0.128-0.318,0.254-0.644,0.374-0.98c1.162-3.253,3.718-8.132,6.738-11.385c3.021-3.252,1.395,0.232,1.395,0.232
			s4.107,1.32,6.027,1.512c-0.042-1.39-0.214-0.625-0.916-2.906c-0.93-3.021,0.232-1.626,0.93-2.323
			c0.697-0.697,1.858-1.859,2.556-3.021c0.697-1.162,0.232-4.182,0.465-4.879s2.556-1.162,5.111-1.162
			c2.557,0,5.344,1.626,5.344,1.626s0,0,0.465,0.697s4.183,5.344,4.183,5.344s2.323-0.697,3.718-1.626
			c1.395-0.93,2.091-0.232,2.788-0.232c0.696,0,5.809,2.788,7.202,3.253c1.395,0.464,3.486,2.323,3.486,2.323l0.464,2.323
			c0,0,2.788,3.485,4.88,6.042c2.091,2.556,3.021,0.697,3.021,0.697s2.323,0,5.344-0.929s3.718-0.929,6.97-2.556
			c3.254-1.626,3.021-2.091,3.95-2.556s3.486-3.021,5.112-4.182s4.415-1.859,4.415-2.789c0-0.929,0-1.858,0-1.858s0.696,0,1.394,0
			c0.282,0,1.442,0.076,3.031,0.167c0.063-0.355,0.135-0.721,0.222-1.097c0.697-3.021,7.667-4.646,8.364-4.646s3.253,0,3.95,0
			c0.696,0,2.091,0.929,3.485,2.323c1.394,1.394,2.556,3.718,4.414,7.435c1.858,3.718,0.697,4.879,0.697,6.97
			c0,2.091,0,1.395,0,3.95s0,3.485-0.697,5.809c-0.697,2.324-1.626,1.162-1.626,1.162s-1.627,0.232-3.021,0.464
			c-0.954,0.159-2.56,1.188-3.776,2.045c0.362,1.61-1.157,3.24-1.768,3.293c0.063,0.275,0.139,0.521,0.2,0.703
			c0.231,0.696,0,6.738,0,6.738s-3.719,0-4.647-0.232c-0.93-0.232-5.344-0.232-5.344-0.232l-1.306,0.652l-0.089,0.741h-1.395
			l-2.323,1.395c0,0-0.21,0.627-0.697,1.459v1.562c0,0,0.697,1.626,0.697,2.323s0,2.092-0.464,3.021
			c-0.465,0.93-0.93,1.627-0.93,1.627l-1.627,3.021c0,0,0.233,2.323,2.092,5.344s0,3.253,0,3.253v1.626l2.323,4.88
			c0,0-1.395,2.091-2.556,3.021c-0.588,0.47-1.058,1.001-1.859,1.8c0,0.585,0,0.988,0,0.988l1.395,2.091l3.253,1.627l0.232,1.858
			l1.394,2.091l0.697,0.697c0,0,2.556,4.415,2.556,5.809c0,0.544,0,1.192-0.014,1.838c0.298-0.32,0.522-0.551,0.711-0.676
			c0.697-0.465,0.697-2.788,0.697-2.788s-1.859-3.718,2.091-1.627c3.95,2.092,6.506,3.95,6.506,3.95l-0.081,0.649
			c0.434,0.156,0.851,0.318,1.246,0.498c7.638-18.065,11.869-37.923,11.869-58.77C302.098,149.877,302.08,148.709,302.053,147.543z"
			/>
		<path fill="#E9A98F" d="M29.974,238.932l-4.369-5.14l-1.336-0.62c0.063,0.097,0.125,0.196,0.188,0.293
			c0.042,0.064,0.085,0.128,0.127,0.193c1.392,2.127,2.837,4.217,4.333,6.269c0.093,0.127,0.186,0.254,0.279,0.381
			c0.183,0.251,0.371,0.498,0.557,0.747L29.974,238.932z"/>
		<path fill="#BB8D5C" d="M63.221,270.941l1.858-1.395l3.253-4.646l4.183,3.253l-1.394,2.323l-4.647,2.323l2.324,2.324h1.858
			l1.394-2.789l1.859-2.323v-1.394l2.788,4.646l-0.465,2.788H72.98l-2.324,1.858c0,0,0.929,0,2.324,0.465
			c1.394,0.465,4.646,0.93,6.505,2.789c0.467,0.466,1.14,1.021,1.886,1.592l0.438-4.381h5.111l4.647,0.93
			c0,0,2.788,0.465,3.252,1.859c0.465,1.394,0.465,3.252,0.465,3.252l1.394,2.324l1.394-0.93l-1.394-7.436
			c0,0-0.929-0.929-0.929-2.788c0-1.858,0-12.082,0-12.082l-1.859-5.576l-5.576,10.224l-0.929,1.858l-0.93,1.395l-2.323-2.788
			l-1.859-0.93h-2.789l-5.112-1.395l-3.252-3.717l3.718-3.718l4.182-2.788v-2.324l3.433-9.156l-1.807-0.602l-6.273,2.323
			l-0.213-0.224l-4.588,6.884l-23.854,2.788l-7.008-7.007c-0.633,0.773-1.047,1.276-1.047,1.276l-1.088-0.436
			c1.757,2.038,3.566,4.029,5.428,5.971l0.04,0.028L63.221,270.941z"/>
		<path fill="#BB8D5C" d="M278.375,72.051l-1.394,2.323l-4.647,0.464c0,0-3.252,6.042-5.111,6.042s-2.323,0-2.323,0h-5.577
			c0,0-3.717,0-6.97,0.929c0,0-1.395,8.364-1.395,10.224c0,1.859-3.718-0.93-3.718-0.93l-3.717-1.394l-4.647-3.718
			c0,0-6.041,0-8.364-0.929s-4.183-1.394-6.041-1.394c-1.859,0-5.111,0-6.506,0c-1.394,0,0,5.112,0,6.971
			c0,1.858,5.577,4.182,5.577,4.182l-4.183,2.323c0,0-2.788,0.93-9.759,0.93s-3.253,0-7.9-2.324h-3.717c0,0-1.859,6.971-2.789,8.365
			c-0.929,1.394-2.323,4.646-4.182,4.646c-1.859,0-1.395,0-3.253-1.858c-1.859-1.859,0-4.647,0-4.647l-1.859-1.859l-2.788,0.465
			l-0.929,10.223l-3.253,0.929l-1.859,1.395l-4.182,5.576l-2.788,6.506l0.929,6.97c0,0-4.646,0-13.011,0c-0.523,0-0.986,0-1.395,0
			l-13.941,9.759c0,0,1.859,0.929,2.788,2.323s1.859,7.436,1.859,7.436s-9.294,5.111-10.688,4.182s-2.788-2.323-2.788-2.323
			s-2.788-1.395-4.182-1.858c-1.394-0.466-3.253-0.466-4.647-1.859c-1.394-1.394-2.324-4.183-3.718-4.183s-2.323,0.465-2.323,0.465
			s-2.788,5.111-9.759,14.87s-3.718,0.465-3.718,0.465s-3.253,0-5.111,0c-1.859,0-6.97,3.718-9.294,4.183s-4.183,8.829-4.183,11.617
			s-2.323,7.9-3.717,7.9s-10.223,9.758-12.082,12.547c-1.859,2.788,0,9.294,0,12.081c0,2.789-3.718,10.224-6.042,12.547
			c-2.323,2.324-6.041,2.789-10.223,3.718c-4.182,0.93-4.182,5.577-4.182,5.577s-4.647,7.435-5.576,8.828
			c-0.001,0.002-0.002,0.004-0.003,0.006l1.243,1.078l15.8-1.238c0,0,4.75-0.917,9.496-1.8c0.245-0.49,0.604-1.209,0.882-1.763
			c0.465-0.93,2.324-1.162,2.324-1.162s2.788-0.232,4.646-1.626c1.859-1.395,3.95-2.557,4.647-2.788
			c0.697-0.232,8.132-1.859,8.132-1.859s4.647,0,5.809-0.696c1.162-0.697,3.95-2.324,5.809-4.415c1.858-2.091,3.95-0.697,3.95-0.697
			l3.95,1.162l1.162,0.696c0,0,0.929-2.323,1.858-3.717c0.565-0.85,3.281-0.923,5.897-0.851c0.648-0.472,1.074-0.776,1.074-0.776
			s-1.859-2.788-5.112-2.788s-10.688,2.788-10.688,2.788l-1.394,0.93c0,0-5.577-2.788-5.577-6.041s0-8.829,0-10.688
			c0-1.858,2.324-7.899,2.324-7.899l5.112,0.93c0,0,0.929,3.253,2.323-0.93s6.971-8.364,7.436-9.759
			c0.464-1.394,0.929-4.182,3.252-4.646c2.324-0.465,10.688-1.395,10.688-1.395l2.788,1.395c0,0,0.93,1.858,2.324,1.858
			s6.97-2.323,6.97-2.323l4.182-5.344l-0.929-3.95c0,0,1.246-0.872,2.642-1.714c-0.053-0.484-0.085-0.842-0.085-0.842l-0.179-0.403
			c-0.608,0.729-1.68,1.564-1.68,1.564s-0.929-0.929-1.394-1.626s0-1.627,0-2.788c0-1.162,1.859-3.718,3.485-4.88
			c1.626-1.161,3.021-1.394,4.646-3.485c0.698-0.897,1.14-1.364,1.581-1.608c-0.059-1.15,0.111-2.01,0.511-1.876
			c0.271,0.09,0.857,0.11,1.729,0.183l-0.723-0.492l-2.169-1.859c0,0-0.93-1.858,0-1.858s4.027,0,4.027,0l5.886,2.168l1.018,1.83
			c0.533-2.58,1.361-6.199,1.849-8.801c0.697-3.717,0.232-4.415,0.929-6.041c0.697-1.626,3.021-4.182,3.95-4.182
			s1.395,0.929,4.415,4.879c1.917,2.507,2.244,4.735,3.177,8.7c3.653-2.674,6.457-4.996,8.478-5.022
			c0.393-0.818,0.816-1.713,1.215-2.697c-0.699-1.351-1.484-2.607-1.484-2.607v-8.829l4.647-3.718c0,0,0.929,2.324,3.252-2.324
			c2.324-4.646,3.718-7.435,6.971-10.223c3.253-2.788,9.294-6.97,11.617-6.97s9.295-0.465,10.688,0.465
			c1.395,0.929,1.395,4.646,1.395,6.041c0,1.394-1.395,3.717,0,4.182c1.394,0.464,6.505,0.93,7.435-2.323
			c0.93-3.253-0.465-8.83,5.576-10.688c6.041-1.858,11.618-4.646,13.941-4.182c2.323,0.465,3.718-2.323,3.718,1.394
			c0,3.718-1.859,7.436,0,7.9c1.858,0.465,1.858,0.465,4.646,0.465s1.395,2.788,6.971-0.465s0.93-2.788,5.576-3.253
			s7.899-0.465,9.294-0.465c1.394,0,3.253,0,3.253,0h3.253l2.017-10.486l0.001-0.006c-5.104-12.893-11.936-24.911-20.202-35.78
			C274.635,65.103,278.375,72.051,278.375,72.051z"/>
		<path fill="#BB8D5C" d="M147.925,164.972l-1.756,0.715l1.68,3.779c0.241-0.289,0.412-0.562,0.412-0.759L147.925,164.972z"/>
		<path fill="#BB8D5C" d="M86.456,286.276c0,0-2.865-1.823-5.085-3.52l-0.027,0.267L86.456,286.276z"/>
		<path fill="#A66D4A" d="M265.363,69.263c-1.394,1.394-2.323,0-2.323,0l-1.394-1.859l-1.859-2.789l-10.688,0.93
			c0,0-14.406,0.929-15.8,0.929s-4.182,0-6.971,0.93c-2.787,0.929,0,0-2.323,0.464c-2.323,0.465-9.294,7.9-9.294,7.9
			s-3.717,0-5.111,0s-4.647,2.789-6.506,2.789s-2.788,6.505-4.183,9.293c-1.394,2.789-2.323,1.394-5.111,1.394s-3.253,0-3.253,0
			l-5.576,4.182h-3.718l-3.253,4.183c0,0-4.646,0.465-6.041,0.465s-4.183,0.464-9.294,0.929c-5.111,0.464-6.971,11.153-6.971,11.153
			s2.788,0.929,6.041,5.112c3.253,4.182,0,6.041-1.858,9.758s-7.899,1.859-7.899,1.859s-1.859-0.465-5.577-2.789
			c-1.691-1.057-3.286-0.765-4.83,0.04c-0.34,1.389-0.775,3.384-1.211,6.002c-0.93,5.576-1.859-0.465-2.324-1.859
			c-0.121-0.363-0.306-0.823-0.512-1.344c-0.45,0.322-0.898,0.623-1.347,0.879c-3.253,1.858-2.788,3.717-6.041,7.435
			c-3.253,3.717-3.717,1.858-3.717,1.858s-7.9-0.929-12.547-0.929s-3.253,0-12.547,2.788c0,0,2.324,1.859,2.324,3.253
			s-0.93,4.647-3.718,7.9s-5.112,4.183-7.9,4.183s-1.859-1.395-1.859-1.395s0,0,0-1.395c0-1.394-2.788,0-2.788,0
			s-2.731,2.457-7.142,5.695c-0.478,1.176-0.758,2.205-0.758,2.205s0,2.788,0,6.506s-0.464,3.253-0.464,3.253h-3.253
			c0,0-0.929,2.788-2.324,3.253c-1.394,0.465-1.859,0.465-1.859,0.465s0,10.688-2.323,11.152c0,0-4.647,7.436-5.576,8.829
			c-0.93,1.395-2.789,4.183-2.789,4.183l0.465-4.183l-3.253,1.395l-0.375,3.002c0.51,0.734,0.84,1.331,0.84,1.645
			c0,0.322-0.475,0.918-1.251,1.643l-0.608,4.863c0,0,1.859,7.9,1.859,10.688c0,2.789-2.788,3.254-4.647,3.254
			s-3.717,1.394-3.717,1.394l-7.436,3.253l-0.465-1.395l3.253-3.252l-3.253-0.93c0,0-2.323,3.253-6.041,5.111
			c-1.345,0.673-2.202,2.623-2.749,4.839l4.453,1.047h4.337l2.479,0.31l4.027,3.099l-1.549-0.311l-2.479-0.618
			c0,0-4.957,0.309-5.886,0.309c-0.929,0-3.408-0.929-3.408-0.929l-1.261-0.252l0.332,0.562l10.53,9.145
			c0.001-0.002,0.002-0.004,0.003-0.006c0.929-1.394,5.576-8.828,5.576-8.828s0-4.647,4.182-5.577
			c4.182-0.929,7.9-1.394,10.223-3.718c2.324-2.323,6.042-9.758,6.042-12.547c0-2.787-1.859-9.293,0-12.081
			c1.859-2.789,10.688-12.547,12.082-12.547s3.717-5.112,3.717-7.9s1.859-11.152,4.183-11.617s7.435-4.183,9.294-4.183
			c1.858,0,5.111,0,5.111,0s-3.253,9.294,3.718-0.465s9.759-14.87,9.759-14.87s0.929-0.465,2.323-0.465s2.324,2.789,3.718,4.183
			c1.394,1.394,3.253,1.394,4.647,1.859c1.394,0.464,4.182,1.858,4.182,1.858s1.394,1.394,2.788,2.323s10.688-4.182,10.688-4.182
			s-0.93-6.042-1.859-7.436s-2.788-2.323-2.788-2.323l13.941-9.759c0.408,0,0.871,0,1.395,0c8.364,0,13.011,0,13.011,0l-0.929-6.97
			l2.788-6.506l4.182-5.576l1.859-1.395l3.253-0.929l0.929-10.223l2.788-0.465l1.859,1.859c0,0-1.859,2.788,0,4.647
			c1.858,1.858,1.394,1.858,3.253,1.858c1.858,0,3.253-3.252,4.182-4.646c0.93-1.394,2.789-8.365,2.789-8.365h3.717
			c4.647,2.324,0.93,2.324,7.9,2.324s9.759-0.93,9.759-0.93l4.183-2.323c0,0-5.577-2.324-5.577-4.182c0-1.859-1.394-6.971,0-6.971
			c1.395,0,4.646,0,6.506,0c1.858,0,3.718,0.465,6.041,1.394s8.364,0.929,8.364,0.929l4.647,3.718l3.717,1.394
			c0,0,3.718,2.789,3.718,0.93c0-1.859,1.395-10.224,1.395-10.224c3.253-0.929,6.97-0.929,6.97-0.929h5.577c0,0,0.464,0,2.323,0
			s5.111-6.042,5.111-6.042l4.647-0.464l1.394-2.323c0,0-3.74-6.948-7.031-12.35c-1.482-1.95-3.012-3.862-4.585-5.736v5.074
			C266.759,59.039,266.759,67.868,265.363,69.263z"/>
		<path fill="#A66D4A" d="M37.663,250.03c0,0,0.414-0.503,1.047-1.276l-2.596-2.597l-6.141-7.225l-0.222,2.123l-0.001,0.016
			c2.174,2.924,4.45,5.767,6.825,8.523L37.663,250.03z"/>
		<path fill="#F09529" d="M282.093,151.513c-0.929,0.466-5.111,1.162-5.111,1.162l-0.608,5.067l1.306-0.652c0,0,4.414,0,5.344,0.232
			c0.929,0.232,4.647,0.232,4.647,0.232s0.231-6.042,0-6.738c-0.062-0.182-0.137-0.428-0.2-0.703
			c-0.011,0.001-0.023,0.006-0.033,0.006C286.74,150.12,283.022,151.049,282.093,151.513z"/>
		<path fill="#F09529" d="M287.205,124.096l-0.233,1.162l3.719,8.364c0,0-2.092,0.697-4.415,0.93
			c-2.324,0.232-2.556,2.556-2.556,4.879c0,2.323-1.395,0-2.092,0s-2.787-1.394-2.787-1.394s-0.697-1.162-2.789-4.647
			c-2.091-3.485-2.323,0.697-3.949,0.697c-1.627,0-2.092,2.324-2.092,2.324s1.858,2.556,2.556,4.182s-0.232,1.162-0.232,1.162
			s-0.929,0-3.717,0c-2.789,0-0.232,4.879,0.696,4.879c0.93,0,2.092,0,3.718-0.232c1.627-0.232,0.93-2.091,0.93-2.091
			s0-0.93,0-1.627c0-0.697,0.929-2.323,0.929-2.323s0,0,0.93,0s2.091,0.465,3.253,0.465s8.364,3.253,9.759,5.111
			c0.215,0.287,0.339,0.585,0.406,0.883c1.217-0.857,2.822-1.886,3.776-2.045c1.394-0.232,3.021-0.464,3.021-0.464
			s0.929,1.162,1.626-1.162c0.697-2.323,0.697-3.253,0.697-5.809s0-1.859,0-3.95c0-2.091,1.161-3.252-0.697-6.97
			c-1.858-3.717-3.021-6.041-4.414-7.435c-1.395-1.394-2.789-2.323-3.485-2.323c-0.697,0-3.253,0-3.95,0s-7.667,1.626-8.364,4.646
			c-0.087,0.376-0.159,0.741-0.222,1.097c2.332,0.133,5.59,0.298,8.354,0.298C290.226,122.703,287.205,124.096,287.205,124.096z"/>
		<path fill="#F09529" d="M175.924,229.193c-0.851,0.474-2.089,1.087-2.802,1.087c-0.28,0-0.694-0.068-1.162-0.17
			c0,0.057,0,0.114,0,0.17c0,0.697,2.556,1.394,3.021,2.091c0.219,0.328,1.158,0.552,2.091,0.699v-0.002L175.924,229.193z"/>
		<path fill="#F09529" d="M180.237,232.655l0.087-0.052c-0.016,0-0.032-0.004-0.048-0.006
			C180.264,232.617,180.251,232.635,180.237,232.655z"/>
		<path fill="#F09529" d="M260.484,197.984c-0.929-0.232,0-1.395,0-1.395s0-1.395,0.697-6.273s0.93-2.323,0.93-2.323
			s1.858,0,3.949-0.232c2.092-0.232,1.627-2.556,1.627-2.556l-0.465-0.697l-0.697-0.697l0.93-2.323l-0.465-1.395
			c0,0-0.231-3.484-0.231-4.879c0,0,0.929-1.627,1.626-2.556c0,0-1.395-3.485,0.232-5.809c0.181-0.259,0.332-0.491,0.467-0.708
			c-0.407-0.719-1.164-1.151-1.164-1.151l-0.93-2.788c0,0-6.273-0.232-7.668,0.465c-1.394,0.697-3.949,2.323-3.949,2.323
			l-3.95,3.485c0,0-2.091,1.162-3.718,1.627c-1.626,0.464-0.929,3.021-0.929,3.021l0.232,3.253c0,0,0.465,5.111,0.696,6.041
			c0.232,0.929,1.395,1.394,1.395,1.394v0.93c0,0-0.465,2.556-1.859,3.253c-1.394,0.697-1.161,0.232-1.161,0.232l-1.395,1.626
			l0.232,3.021c0,0,6.738-1.626,8.829-1.394c2.092,0.232,0,2.788,0,5.111s-1.161,2.556-1.161,2.556s0,0,0-1.626
			c0-1.627-4.414-2.556-5.345-2.556c-0.929,0-9.293,2.091-13.011,2.556c-0.328,1.638-1.462,1.429-2.349,1.243
			c-0.168,0.728,0.281,1.682,0.025,2.706c-0.465,1.859-0.465,6.506-0.465,6.506s-5.81,0.465-6.971,0.465
			c-1.162,0-2.091,4.646-3.021,9.991c-0.929,5.344-7.203,0-8.132,0c-0.93,0-1.859-1.395-3.485-1.627
			c-1.627-0.232-8.829-3.253-9.759-3.021s0,1.162,0,1.162l0.93,2.556v1.626c0,0,1.161,3.719,2.091,4.647
			c0.93,0.93,5.111,12.779,5.111,12.779h-1.162c0,0-2.323-1.162-3.252-1.626c-0.93-0.465-0.465-1.395-0.697-3.485
			c-0.232-2.092,0-2.092,0-2.092s-0.697-1.394-2.323-3.484c-1.627-2.092-0.465-1.162-0.465-3.485c0-2.324-0.93-3.718-1.162-5.81
			c-0.232-2.091-3.95-1.394-3.95-1.394l-2.788-2.323c0,0-1.086,1.001-2.406,1.953c-0.339,0.489-0.614,0.835-0.614,0.835
			s-0.079,0.092-0.214,0.24c-0.011,0.447-0.019,0.909-0.019,1.386c0,1.899,0.591,3.15,1.153,4.07c0.8,0.416,1.403,0.808,1.403,1.042
			c0,0.183-0.149,0.531-0.423,0.986c-0.009,0.059-0.019,0.117-0.042,0.175c-0.465,1.162,0,2.556,0,4.183
			c0,1.626-3.485,4.879-4.183,4.879c-0.351,0-1.88,0-3.4,0c2.941,0.465,7.815,0.697,7.815,0.697s2.556,3.021,3.253,3.95
			c0.696,0.929,1.394,1.161,4.414,3.253c0.583,0.403,1.156,0.783,1.727,1.15c3.724,1.162,9.637,3.63,11.227,4.489
			c1.181,0.267,1.918,0.401,1.918,0.401s1.733,0.866,2.537,0.305c0.141-0.426,0.268-0.823,0.385-1.201
			c-0.019-0.213-0.061-0.453-0.135-0.73c-0.929-3.485-2.556-9.294-2.556-9.294v-3.95c0,0,2.324-5.808,3.253-7.202
			c0.93-1.395,2.557-3.253,3.485-3.253c0.93,0,5.577,0,5.577,0s2.09-0.93,2.323-2.323c0.232-1.395,2.787-8.133,2.787-8.133
			l2.324-2.788c0,0,3.485-2.788,4.182-3.253c0.223-0.148,0.73-0.296,1.369-0.422c0.309-0.129,0.647-0.191,1.018-0.165
			c1.205-0.161,2.569-0.231,3.423-0.109c1.626,0.232,5.576,0.929,6.737,1.858c1.162,0.93,2.324,1.395,2.324,3.021
			s0.231,1.858,0,4.646c-0.232,2.789-0.697,4.88-0.697,4.88s-1.858,1.161,1.162,1.161s4.879,0,5.576,0
			c0.52,0,1.426,0.387,2.143,0.199c0.382-0.729,0.898-1.755,1.282-2.662c0.131-0.867,0.213-1.789,0.255-2.464
			c-0.318-0.582-0.885-1.338-1.528-2.105c-1.418-0.831-3.349-1.867-3.778-2.726c-0.451-0.902-0.609-2.192-0.666-3.305
			c-0.536-1.576-0.96-3.201-0.96-3.201s0.749-0.433,1.82-1.002c0.655-1.471,1.433-2.948,1.433-2.948l6.272-0.697l6.274,0.465
			c0,0,0.231,3.485,0,4.647c-0.232,1.161-0.93,9.99-0.93,9.99s-0.007,0.101,0.001,0.252c0.172,0.108,0.649,0.213,1.857,0.213
			c0.568,0,1.182-0.048,1.795-0.129c2.597-1.97,3.911-3.461,4.697-4.307c0.014-0.646,0.014-1.294,0.014-1.838
			c0-1.394-2.556-5.809-2.556-5.809l-0.697-0.697l-1.394-2.091l-0.232-1.858l-3.253-1.627l-1.395-2.091c0,0,0-0.403,0-0.988
			c-0.782,0.781-1.881,1.818-3.718,3.312C262.111,199.145,261.414,198.216,260.484,197.984z"/>
		<path fill="#F09529" d="M186.133,148.028c-0.232,1.859-0.696,5.112-0.232,6.971c0.465,1.858,3.253,4.414,4.183,5.344
			c0.93,0.929,1.627,1.394,2.323,2.091c0.697,0.697,0.93,1.859,0.93,1.859s0.232-0.465,0.465,1.394s-0.232,1.627,1.162,4.183
			c1.394,2.556,1.394,4.879,1.858,5.809c0.167,0.335,2.506,0.88,5.431,1.442l0.61-0.978l0.697,0.232l0.414,1.065
			c0.42,0.076,0.845,0.152,1.271,0.227c4.547,0.799,9.235,1.496,9.235,1.496s-1.395,6.97-1.626,7.667
			c-0.106,0.318,0.078,0.395,0.199,0.427c0.375-0.409,0.732-0.817,0.963-1.124c0.696-0.929,4.182-4.414,4.414-6.273
			c0.232-1.858,0-2.323-0.697-4.182c-0.696-1.859,0-0.93,0-0.93s-0.465-0.697-1.161-0.93c-0.697-0.232-1.395-3.717-0.93-4.646
			c0.464-0.93,0.93-2.556,0.93-4.183c0-1.626,0-1.394-0.93-2.556s0,0-0.465-1.626c0,0-0.697-2.557-5.344-6.041
			c-4.647-3.485-3.253,2.556-3.253,2.556s0,2.091-0.232,6.738c-0.232,4.646-4.415,5.111-5.809,4.646
			c-1.395-0.465-2.092-1.394-3.021-3.253c-0.93-1.858,0.232-3.718,0.697-6.273c0.464-2.556,2.556-3.95,3.949-6.273
			c1.395-2.323,3.718-3.253,4.415-3.021s2.323,2.323,6.041,6.273s1.395,0.232,1.395-0.697c0-0.929,0-1.161,0.231-3.717
			c0.232-2.557,1.858-0.697,3.95-1.859c2.091-1.162-0.465-1.162-0.465-1.162s-0.232-1.162-0.232-1.859s0.697-4.879,0.697-4.879
			s-1.161-0.465-1.858-0.465s-2.092,0.465-2.788,0.465c-0.697,0-3.486,0-8.598,0s-1.394-2.091-1.394-2.091s-0.232-2.323-0.232-6.738
			c0-1.08,0-1.755-0.014-2.206c-1.92-0.192-6.027-1.512-6.027-1.512s1.626-3.485-1.395-0.232c-3.021,3.253-5.576,8.132-6.738,11.385
			c-0.12,0.337-0.246,0.662-0.374,0.98c-0.398,0.984-0.822,1.879-1.215,2.697C186.862,145.735,186.267,146.959,186.133,148.028z"/>
		<path fill="#F09529" d="M271.869,160.576v0.762c0.487-0.832,0.697-1.459,0.697-1.459l2.323-1.395c0,0-1.858,0.232-3.021,0.93
			C270.708,160.111,271.869,160.576,271.869,160.576z"/>
		<path fill="#F09529" d="M200.539,180.092c0,0.93,0,3.718,0,3.718s-1.395,1.395-1.627,2.556c-0.232,1.162-0.696,4.88-1.161,5.577
			c-0.465,0.696-2.092,3.021-3.021,3.021c-0.93,0-3.253,0-3.253,0s0.232-4.183-0.697,1.626c-0.254,1.585-0.402,2.854-0.52,3.943
			c2.019,1.425,3.959,2.664,4.47,2.563c1.161-0.232,2.323-1.395,2.788-2.788c0.465-1.395,2.323-1.627,4.182-3.485
			c1.859-1.858,2.324-2.091,3.021-4.415c0.697-2.323,1.162-2.788,1.162-2.788s2.788-0.232,3.95-0.465
			c1.162-0.231,1.626-0.231,1.626-0.231s0.735-0.735,1.454-1.513c-0.075,0.031-0.168,0.068-0.292,0.118
			c-1.162,0.465-7.436-6.971-7.436-6.971l-1.212-3.116c-0.588-0.106-1.166-0.214-1.722-0.32l-0.552,0.881
			C201.7,178.001,200.539,179.164,200.539,180.092z"/>
		<path fill="#DF7059" d="M178.698,194.266c-0.168-0.168-0.483-0.363-0.818-0.614c-0.356,0.2-0.71,0.407-1.041,0.614
			c-1.858,1.161-3.253,3.485-3.253,3.485s-2.788,1.626-3.949,3.717c-1.162,2.092,0.465,2.092,0.465,2.092l1.626,0.465l1.162-0.232
			c0,0,3.021-1.627,4.879-3.253c1.411-1.234,2.554-3.272,3.734-5.097c-0.005-0.005-0.013-0.011-0.017-0.016
			C180.789,194.731,179.396,194.963,178.698,194.266z"/>
		<path fill="#DF7059" d="M165.577,157.327c0.947,0.625,1.22,1.244,1.537,1.906c1.426,1.1,3.762,2.969,3.762,2.969
			s0.93,1.859,0.93,3.408c0,1.099,0,6.088,0,8.9c0.301,1.271,0.556,2.37,0.852,3.259c0.221,0.661,0.301,1.089,0.309,1.389
			l3.177-0.227c0,0,1.728,6.146,2.463,9.363c3.496-3.692,8.697-8.739,8.922-10.758c0.232-2.091,0.232-4.879,0.232-6.041
			c0-1.161-1.859-2.091-2.556-3.253c-0.697-1.161,0.232,0.465-3.485-9.991c-1.358-3.819-2.096-6.676-2.632-8.958
			c-0.933-3.964-1.26-6.193-3.177-8.7c-3.021-3.95-3.485-4.879-4.415-4.879s-3.253,2.556-3.95,4.182
			c-0.696,1.626-0.231,2.324-0.929,6.041c-0.487,2.602-1.315,6.221-1.849,8.801l0.532,0.958
			C165.3,155.696,165.301,156.493,165.577,157.327z"/>
		<path fill="#DF7059" d="M186.598,218.198c-0.383,0.255-0.748,0.366-1.096,0.385c-0.104,0.565-0.065,1.009-0.065,1.009h0.929
			c0,0,2.357,0.923,3.941,1.747c-0.563-0.92-1.153-2.171-1.153-4.07c0-0.477,0.008-0.938,0.019-1.386
			C188.729,216.369,187.665,217.486,186.598,218.198z"/>
		<path fill="#DF7059" d="M175.924,229.193l-0.711-2.398l4.879-7.203l1.395-2.323c0,0,0.609-0.641,1.386-1.493
			c0.005-0.044,0.008-0.088,0.008-0.133c0-0.697-1.626-3.95-1.626-3.95l-3.021-1.858c0,0-2.323,2.323-2.788,3.021
			c-0.465,0.696-2.091,2.556-3.485,4.182c-1.395,1.627-2.091,1.395-2.091,1.395l-1.162,0.93c0,0-3.718,1.394-4.646,2.091
			c-0.93,0.697-6.738,0.232-7.668,0.232s-0.697-1.162-0.697-1.162l-0.232-3.021l-2.323,1.859l-2.556,3.485
			c0,0-3.021,3.021-5.576,6.272c-2.556,3.253-3.253,4.415-3.253,5.112s-3.718,4.879-5.344,7.202
			c-1.626,2.324-3.021,8.133-3.253,10.456s-1.626,3.718-1.626,3.718v-0.697c0,0-2.091-3.253-3.718-4.879
			c-1.626-1.627-0.465-1.162-0.465-1.162l-2.556-1.627c0,0,5.576-7.435,6.506-8.829c0.929-1.394,6.506-14.173,6.506-14.173
			l6.041-9.062l0.77-1.54l-0.073-0.01l0.929-3.717l0.06-0.052c0.211-1.254,0.405-2.495,0.405-2.814c0-0.696,1.162-1.161,1.394-3.484
			c0.232-2.323,0-2.556,0-3.253s0.465-1.627,0.465-1.627s2.323-5.344,4.183-9.99c1.858-4.647,2.091-4.88,2.788-6.738
			c0.696-1.859,1.394-4.183,2.323-7.436s0-4.646-0.465-9.759c-0.465-5.111-0.93-3.253-1.626-5.344
			c-0.298-0.894-0.468-1.913-0.511-2.771c-0.441,0.244-0.883,0.711-1.581,1.608c-1.626,2.092-3.02,2.324-4.646,3.485
			c-1.626,1.162-3.485,3.718-3.485,4.88c0,1.161-0.465,2.091,0,2.788s1.394,1.626,1.394,1.626s1.071-0.835,1.68-1.564l-1.68-3.779
			l1.756-0.715l0.335,3.735c0,0.197-0.171,0.47-0.412,0.759l0.179,0.403c0,0,0.033,0.357,0.085,0.842
			c0.088,0.811,0.234,1.975,0.379,2.411c0.232,0.696-2.091,3.253-2.091,3.253l-0.464,3.253c0,0,0,2.091-0.929,4.646
			c-0.93,2.556-3.021,4.879-3.718,6.506c-0.697,1.626-2.091,0.697-3.485,4.183c-1.395,3.484-2.324,7.202-2.324,8.829
			c0,1.626,3.253,3.485,3.253,3.485s2.091-0.465,3.253,0.464c1.162,0.93,0.929,3.253-0.232,6.041s-3.718,4.647-4.182,6.273
			c-0.465,1.627-1.395,4.415-1.395,4.415s0.232,0.232-1.858,4.646c-2.091,4.415-6.506,10.688-7.667,12.779
			c-1.162,2.092-3.253,4.647-3.253,4.647s-0.444,1.51-0.729,2.828l6.692,6.388c0,0-2.479,0-3.408,0c-0.162,0-0.324,0.249-0.48,0.651
			c0.74,0.924,1.77,2.109,2.339,2.68c0.697,0.696,0.929,2.091,1.394,3.485c0.347,1.039,0.435,2.725,0.457,3.515l0.313,0.229
			c3.429-2.312,4.821-3.659,5.772-4.664l0.118-0.938l4.027-6.506c0,0-0.232-2.091-0.232-5.344s-0.232-2.556,0.232-4.414
			c0.465-1.859-0.232-3.021,2.323-4.88c2.556-1.859,4.647-3.021,4.647-3.021s1.858,0.232,2.323-1.859
			c0.465-2.091,0-3.717,2.324-4.879c2.323-1.162,4.414-3.253,4.879,0.232s-1.858,3.95,0.465,4.183s4.879-3.253,6.273-5.344
			c1.394-2.092,3.485-4.88,3.485-4.88l1.858,5.111c0,0,2.01,0.669,3.485,0.992c0.468,0.102,0.882,0.17,1.162,0.17
			C173.835,230.28,175.073,229.667,175.924,229.193z"/>
		<path fill="#DF7059" d="M191.245,227.724c0-1.627-0.465-3.021,0-4.183c0.023-0.058,0.033-0.116,0.042-0.175
			c-0.764,1.272-2.525,3.404-4.922,5.286c-3.253,2.557,0,0-1.394,0c-1.395,0-1.395,0.697-2.788,1.627
			c-0.567,0.378-1.25,1.333-1.907,2.317c0.016,0.002,0.032,0.006,0.048,0.006c0.347,0,1.838,0,3.338,0c1.521,0,3.05,0,3.4,0
			C187.76,232.603,191.245,229.35,191.245,227.724z"/>
		<path fill="#E66825" d="M203.56,139.896c0,0-3.718,2.091,1.394,2.091s7.9,0,8.598,0c0.696,0,2.091-0.465,2.788-0.465
			s1.858,0.465,1.858,0.465s-0.697,4.182-0.697,4.879s0.232,1.859,0.232,1.859s2.556,0,0.465,1.162
			c-2.092,1.162-3.718-0.697-3.95,1.859c-0.231,2.556-0.231,2.788-0.231,3.717c0,0.93,2.323,4.647-1.395,0.697
			s-5.344-6.041-6.041-6.273s-3.021,0.697-4.415,3.021c-1.394,2.323-3.485,3.718-3.949,6.273c-0.465,2.556-1.627,4.415-0.697,6.273
			c0.929,1.859,1.626,2.788,3.021,3.253c1.394,0.465,5.576,0,5.809-4.646c0.232-4.647,0.232-6.738,0.232-6.738
			s-1.395-6.041,3.253-2.556c4.646,3.484,5.344,6.041,5.344,6.041c0.465,1.626-0.465,0.464,0.465,1.626s0.93,0.93,0.93,2.556
			c0,1.627-0.466,3.253-0.93,4.183c-0.465,0.93,0.232,4.414,0.93,4.646c0.696,0.232,1.161,0.93,1.161,0.93s-0.696-0.93,0,0.93
			c0.697,1.858,0.93,2.323,0.697,4.182c-0.232,1.859-3.718,5.345-4.414,6.273c-0.23,0.307-0.588,0.715-0.963,1.124
			c-0.046,0.051-0.093,0.102-0.14,0.152c-0.719,0.777-1.454,1.513-1.454,1.513s-0.464,0-1.626,0.231
			c-1.162,0.232-3.95,0.465-3.95,0.465s-0.465,0.465-1.162,2.788c-0.696,2.324-1.161,2.557-3.021,4.415
			c-1.858,1.858-3.717,2.091-4.182,3.485c-0.465,1.394-1.627,2.556-2.788,2.788c-0.511,0.102-2.451-1.138-4.47-2.563
			c-1.004-0.708-2.025-1.462-2.901-2.118c0.182,0.727,0.717,1.85,1.098,3.751c0.465,2.323,2.323,1.859,2.556,2.556
			c0.232,0.697,0.697,2.092,0.697,2.092s-0.465,4.182-0.465,5.344c0,0.715-0.703,1.868-1.245,2.65
			c1.32-0.952,2.406-1.953,2.406-1.953l2.788,2.323c0,0,3.718-0.697,3.95,1.394c0.232,2.092,1.162,3.485,1.162,5.81
			c0,2.323-1.162,1.394,0.465,3.485c1.626,2.091,2.323,3.484,2.323,3.484s-0.232,0,0,2.092c0.232,2.091-0.232,3.021,0.697,3.485
			c0.929,0.464,3.252,1.626,3.252,1.626h1.162c0,0-4.182-11.85-5.111-12.779c-0.93-0.929-2.091-4.647-2.091-4.647V217.5l-0.93-2.556
			c0,0-0.93-0.93,0-1.162s8.132,2.788,9.759,3.021c1.626,0.232,2.556,1.627,3.485,1.627c0.929,0,7.203,5.344,8.132,0
			c0.93-5.345,1.858-9.991,3.021-9.991c1.161,0,6.971-0.465,6.971-0.465s0-4.646,0.465-6.506c0.256-1.024-0.193-1.979-0.025-2.706
			c-0.37-0.077-0.699-0.15-0.904-0.082c-0.697,0.232-2.788,2.092-5.345,3.485c-2.555,1.395-2.09-3.021-2.09-3.021l-8.365,1.859
			l-3.485-0.232l0.465-9.294l-0.697,0.696l3.95-4.879l2.091-0.232c0,0,4.88-2.323,7.436-4.183c2.556-1.858,1.394-3.021,1.394-3.717
			c0-0.697,0.93-4.415,0.93-4.415l1.627-1.394l2.556,5.576c0,0,3.252-5.112,6.272-8.597c3.021-3.485,3.021,0.696,3.951,1.626
			c0.929,0.93,0.465,3.95,0.465,3.95s-4.88,3.485-5.577,3.485s-2.556,1.394-2.556,1.394s0.93,3.95,1.858,5.112
			c0.93,1.161,2.323,1.626,2.323,1.626s-2.091,4.415-2.788,5.344c-0.697,0.93-0.697,2.323-1.161,4.647
			c3.718-0.465,12.082-2.556,13.011-2.556c0.931,0,5.345,0.929,5.345,2.556c0,1.626,0,1.626,0,1.626s1.161-0.232,1.161-2.556
			s2.092-4.879,0-5.111c-2.091-0.232-8.829,1.394-8.829,1.394l-0.232-3.021l1.395-1.626c0,0-0.232,0.465,1.161-0.232
			c1.395-0.697,1.859-3.253,1.859-3.253v-0.93c0,0-1.162-0.465-1.395-1.394c-0.231-0.93-0.696-6.041-0.696-6.041l-0.232-3.253
			c0,0-0.697-2.557,0.929-3.021c1.627-0.465,3.718-1.627,3.718-1.627l3.95-3.485c0,0,2.556-1.626,3.949-2.323
			c1.395-0.697,7.668-0.465,7.668-0.465l0.93,2.788c0,0,0.757,0.433,1.164,1.151c0.189,0.334,0.304,0.729,0.229,1.173
			c-0.231,1.394-0.231,4.414-0.929,5.344c-0.697,0.929-1.626,2.556-1.626,2.556c0,1.395,0.231,4.879,0.231,4.879l0.465,1.395
			l-0.93,2.323l0.697,0.697l0.465,0.697c0,0,0.465,2.323-1.627,2.556c-2.091,0.232-3.949,0.232-3.949,0.232s-0.232-2.556-0.93,2.323
			s-0.697,6.273-0.697,6.273s-0.929,1.162,0,1.395c0.93,0.232,1.627,1.161,5.344-1.859c1.837-1.493,2.936-2.53,3.718-3.312
			c0.802-0.799,1.271-1.33,1.859-1.8c1.161-0.93,2.556-3.021,2.556-3.021l-2.323-4.88v-1.626c0,0,1.858-0.232,0-3.253
			s-2.092-5.344-2.092-5.344l1.627-3.021c0,0,0.465-0.697,0.93-1.627c0.464-0.929,0.464-2.323,0.464-3.021s-0.697-2.323-0.697-2.323
			v-1.562v-0.762c0,0-1.161-0.465,0-1.162c1.162-0.697,3.021-0.93,3.021-0.93h1.395l0.089-0.741l0.608-5.067
			c0,0,4.183-0.696,5.111-1.162c0.93-0.464,4.647-1.394,5.344-1.394c0.01,0,0.022-0.005,0.033-0.006
			c0.61-0.054,2.13-1.683,1.768-3.293c-0.067-0.298-0.191-0.597-0.406-0.883c-1.395-1.858-8.597-5.111-9.759-5.111
			s-2.323-0.465-3.253-0.465s-0.93,0-0.93,0s-0.929,1.626-0.929,2.323c0,0.697,0,1.627,0,1.627s0.697,1.858-0.93,2.091
			c-1.626,0.232-2.788,0.232-3.718,0.232c-0.929,0-3.485-4.879-0.696-4.879c2.788,0,3.717,0,3.717,0s0.93,0.465,0.232-1.162
			s-2.556-4.182-2.556-4.182s0.465-2.324,2.092-2.324c1.626,0,1.858-4.182,3.949-0.697c2.092,3.485,2.789,4.647,2.789,4.647
			s2.09,1.394,2.787,1.394s2.092,2.323,2.092,0c0-2.324,0.231-4.647,2.556-4.879c2.323-0.232,4.415-0.93,4.415-0.93l-3.719-8.364
			l0.233-1.162c0,0,3.021-1.394-1.627-1.394c-2.764,0-6.021-0.165-8.354-0.298c-1.589-0.091-2.749-0.167-3.031-0.167
			c-0.697,0-1.394,0-1.394,0s0,0.929,0,1.858c0,0.93-2.789,1.627-4.415,2.789s-4.183,3.717-5.112,4.182s-0.696,0.93-3.95,2.556
			c-3.252,1.627-3.949,1.627-6.97,2.556s-5.344,0.929-5.344,0.929s-0.93,1.859-3.021-0.697c-2.092-2.556-4.88-6.042-4.88-6.042
			l-0.464-2.323c0,0-2.092-1.859-3.486-2.323c-1.394-0.465-6.506-3.253-7.202-3.253c-0.697,0-1.394-0.697-2.788,0.232
			c-1.395,0.929-3.718,1.626-3.718,1.626s-3.718-4.646-4.183-5.344s-0.465-0.697-0.465-0.697s-2.787-1.626-5.344-1.626
			c-2.556,0-4.879,0.464-5.111,1.162s0.232,3.717-0.465,4.879c-0.697,1.162-1.858,2.323-2.556,3.021
			c-0.697,0.697-1.859-0.697-0.93,2.323c0.702,2.281,0.874,1.516,0.916,2.906c0.014,0.451,0.014,1.126,0.014,2.206
			C203.327,137.573,203.56,139.896,203.56,139.896z M250.726,162.667c-1.161,0-8.132,2.556-8.132,2.556l-1.859-2.323
			c-0.696,0-2.09-0.93-2.09-0.93l0.231-2.556c0,0,0.93-1.162,3.021-2.556c2.092-1.395,7.436-1.627,8.598-1.627
			c1.161,0,3.021,4.88,3.021,4.88S251.888,162.667,250.726,162.667z"/>
		<path fill="#E66825" d="M182.184,230.28c1.394-0.93,1.394-1.627,2.788-1.627c1.394,0-1.859,2.557,1.394,0
			c2.396-1.882,4.158-4.014,4.922-5.286c0.273-0.455,0.423-0.804,0.423-0.986c0-0.234-0.604-0.626-1.403-1.042
			c-1.584-0.824-3.941-1.747-3.941-1.747h-0.929c0,0-0.038-0.443,0.065-1.009c-0.919,0.047-1.716-0.577-2.39-1.082
			c-0.868-0.651-0.315-1.101-0.24-1.726c-0.776,0.853-1.386,1.493-1.386,1.493l-1.395,2.323l-4.879,7.203l0.711,2.398l1.147,3.875
			v0.002c0.003,0.017,0.235,2.09,0.93,2.321c0.408,0.136,1.294-1.319,2.236-2.736c0.014-0.02,0.026-0.038,0.039-0.058
			C180.934,231.613,181.616,230.658,182.184,230.28z"/>
		<path fill="#D53D48" d="M234.229,197.519c0.464-2.324,0.464-3.718,1.161-4.647c0.697-0.929,2.788-5.344,2.788-5.344
			s-1.394-0.465-2.323-1.626c-0.929-1.162-1.858-5.112-1.858-5.112s1.858-1.394,2.556-1.394s5.577-3.485,5.577-3.485
			s0.464-3.021-0.465-3.95c-0.931-0.93-0.931-5.111-3.951-1.626c-3.021,3.484-6.272,8.597-6.272,8.597l-2.556-5.576l-1.627,1.394
			c0,0-0.93,3.718-0.93,4.415c0,0.696,1.162,1.858-1.394,3.717c-2.556,1.859-7.436,4.183-7.436,4.183l-2.091,0.232l-3.95,4.879
			l0.697-0.696l-0.465,9.294l3.485,0.232l8.365-1.859c0,0-0.465,4.415,2.09,3.021c2.557-1.394,4.647-3.253,5.345-3.485
			c0.205-0.068,0.534,0.005,0.904,0.082C232.768,198.948,233.901,199.157,234.229,197.519z M230.047,195.35l-3.407-3.099
			c0,0-1.549,1.55-2.788,1.859s-4.647,2.788-6.197,2.788c-1.549,0-4.646-5.576-4.646-5.576h2.788l6.197-5.576l3.407-0.93
			l6.506,2.169l1.238,5.266L230.047,195.35z"/>
		<path fill="#D53D48" d="M250.494,155.231c-1.162,0-6.506,0.232-8.598,1.627c-2.091,1.394-3.021,2.556-3.021,2.556l-0.231,2.556
			c0,0,1.394,0.93,2.09,0.93l1.859,2.323c0,0,6.971-2.556,8.132-2.556c1.162,0,2.789-2.556,2.789-2.556
			S251.655,155.231,250.494,155.231z"/>
		<path fill="#D53D48" d="M165.577,157.327c0.18,0.543,0.473,1.102,0.961,1.467c0.163,0.123,0.359,0.272,0.576,0.439
			C166.797,158.571,166.524,157.952,165.577,157.327z"/>
		<path fill="#D53D48" d="M171.806,179.241l1.16-0.083c-0.008-0.3-0.088-0.728-0.309-1.389c-0.296-0.889-0.551-1.987-0.852-3.259
			c0,1.153,0,1.942,0,1.942l-2.789-6.506l-3.098-0.93l-0.31,6.196c0,0,2.788,2.788,3.098,4.027s2.788,5.576,2.788,5.576l0.619,0.826
			l-0.619-4.544L171.806,179.241z"/>
		<path fill="#D53D48" d="M156.625,164.757c0.465,5.112,1.395,6.506,0.465,9.759s-1.627,5.576-2.323,7.436
			c-0.697,1.858-0.93,2.091-2.788,6.738c-1.859,4.646-4.183,9.99-4.183,9.99s-0.465,0.93-0.465,1.627s0.232,0.93,0,3.253
			c-0.232,2.323-1.394,2.788-1.394,3.484c0,0.319-0.194,1.561-0.405,2.814l2.419-2.117l4.957-0.929v-1.859l-3.717-2.479l0.929-0.619
			l2.479-4.337l0.93,1.858v1.55l0.929,2.478l2.169-0.31l4.027-0.93l1.549,1.55h1.859l2.478,0.929l0.62,1.859l1.239,1.238v2.479
			l-0.31,1.548l-2.479,4.958c0,0-4.027,2.477-5.267,1.548c-1.239-0.93,1.239-1.239,1.239-1.239l1.238-3.717l-2.478,0.309
			l-0.62-1.548c0,0,0.62-2.169,0.62-3.099s0.929-3.407,0.929-3.407l-1.549-0.93h-1.858l-1.858,0.31l-0.62,3.718
			c0,0-2.168,1.239-3.098,1.239s-0.62,0.929-0.62,0.929l-2.168,3.408l-4.884-0.61l-0.77,1.54l-6.041,9.062
			c0,0-5.577,12.779-6.506,14.173c-0.93,1.395-6.506,8.829-6.506,8.829l2.556,1.627c0,0-1.162-0.465,0.465,1.162
			c1.626,1.626,3.718,4.879,3.718,4.879v0.697c0,0,1.394-1.395,1.626-3.718s1.627-8.132,3.253-10.456
			c1.626-2.323,5.344-6.505,5.344-7.202s0.697-1.859,3.253-5.112c2.556-3.252,5.576-6.272,5.576-6.272l2.556-3.485l2.323-1.859
			l0.232,3.021c0,0-0.232,1.162,0.697,1.162s6.738,0.465,7.668-0.232c0.929-0.697,4.646-2.091,4.646-2.091l1.162-0.93
			c0,0,0.696,0.232,2.091-1.395c1.395-1.626,3.021-3.485,3.485-4.182c0.465-0.697,2.788-3.021,2.788-3.021l3.021,1.858
			c0,0,1.626,3.253,1.626,3.95c0,0.045-0.003,0.089-0.008,0.133c-0.075,0.625-0.628,1.074,0.24,1.726
			c0.674,0.505,1.471,1.129,2.39,1.082c0.348-0.019,0.713-0.13,1.096-0.385c1.067-0.712,2.132-1.829,2.574-2.315
			c0.135-0.148,0.214-0.24,0.214-0.24s0.275-0.346,0.614-0.835c0.542-0.782,1.245-1.936,1.245-2.65c0-1.162,0.465-5.344,0.465-5.344
			s-0.465-1.395-0.697-2.092c-0.232-0.696-2.091-0.232-2.556-2.556c-0.381-1.901-0.916-3.024-1.098-3.751
			c-0.041-0.162-0.064-0.305-0.064-0.431c0-0.697,0-3.485,0-3.485l-0.232-0.93c0,0-2.788-1.858-4.414,0.232
			c-0.393,0.504-0.771,1.063-1.146,1.642c-1.181,1.824-2.323,3.862-3.734,5.097c-1.858,1.626-4.879,3.253-4.879,3.253l-1.162,0.232
			l-1.626-0.465c0,0-1.627,0-0.465-2.092c1.161-2.091,3.949-3.717,3.949-3.717s1.395-2.324,3.253-3.485
			c0.331-0.207,0.685-0.414,1.041-0.614c1.647-0.925,3.374-1.709,3.374-1.709s-0.465-2.324-1.395-2.092
			c-0.178,0.045-0.519,0.029-0.951-0.024c0.014,0.104,0.022,0.194,0.022,0.257c0,1.239-1.549,0-1.549,0h-1.239l-0.744-0.434
			l2.603,2.602l-4.646,0.311l-4.957-3.717c0,0-1.549-1.86-1.549-0.311c0,1.549-0.62,6.815-0.62,6.815l-1.239,0.619l-4.646,3.408
			l-0.311-3.718v-5.267l-0.31-1.239l-2.479-0.619l0.93,4.337l0.31,4.338l-1.239,0.31l-2.168-8.056l-0.31-4.336v-2.17
			c0,0,1.239-3.098,1.858-4.026c0.619-0.93,0.619-2.169,0.619-2.169h1.239l0.62,4.957l1.239,1.858l1.549-4.337l0.31-5.577
			c0,0,0.311-3.717,0.311-4.956s0-3.408,0-3.408v-0.93c0,0,1.549-0.619,1.549-1.858s-0.62-2.788-0.62-2.788l-0.62-0.619
			l-6.092-4.154c-0.872-0.072-1.459-0.093-1.729-0.183c-0.399-0.134-0.569,0.726-0.511,1.876c0.043,0.857,0.213,1.877,0.511,2.771
			C155.695,161.504,156.16,159.646,156.625,164.757z"/>
		<path fill="#DF7059" d="M114.802,221.916c-0.929,1.394-1.858,3.717-1.858,3.717l-1.162-0.696l-3.95-1.162
			c0,0-2.091-1.394-3.95,0.697c-1.859,2.091-4.647,3.718-5.809,4.415c-1.162,0.696-5.809,0.696-5.809,0.696
			s-7.435,1.627-8.132,1.859c-0.697,0.231-2.789,1.394-4.647,2.788c-1.859,1.394-4.646,1.626-4.646,1.626s-1.859,0.232-2.324,1.162
			c-0.277,0.554-0.637,1.272-0.882,1.763c4.404-0.819,8.805-1.608,9.401-1.608c1.24,0,8.675-0.93,8.675-0.93l5.576,5.576
			l-8.984,1.859H75.768l-1.607,2.41l0.213,0.224l6.273-2.323l1.807,0.602l3.77,1.257c0,0-0.232,0.697,2.324,0.697
			c2.556,0,3.252-0.232,6.273-1.395c3.021-1.161,7.9-4.182,8.83-4.415c0.929-0.231-0.93,0.233,3.95-2.091
			c4.879-2.323,9.294-4.646,11.85-6.273c2.556-1.626,6.506-3.484,6.506-4.646s0-5.344,0-5.344s1.626-1.162-0.929-1.162
			c-1.001,0-2.643-0.106-4.327-0.153C118.083,220.993,115.368,221.066,114.802,221.916z"/>
		<path fill="#9A5F2B" d="M27.439,207.742c-0.492,0.615-0.961,1.947-1.386,3.57l1.386,1.387l1.859,5.887h-2.413l5.516,9.345
			c0.187,0.156,0.305,0.259,0.305,0.259l0.813,0.191c0.547-2.216,1.404-4.166,2.749-4.839c3.718-1.858,6.041-5.111,6.041-5.111
			l3.253,0.93l-3.253,3.252l0.465,1.395l7.436-3.253c0,0,1.858-1.394,3.717-1.394s4.647-0.465,4.647-3.254
			c0-2.787-1.859-10.688-1.859-10.688l0.608-4.863c-2.583,2.411-8.544,6.258-11.761,6.258c-4.182,0-2.323-3.253-2.323-4.647
			c0-1.394,0.465-1.858,0.465-1.858l-1.859-9.759l-1.13,0.753c0.07,0.217,0.138,0.432,0.201,0.642
			c1.394,4.646-4.647,4.182-6.971,6.041l-1.123,0.345C31.326,201.227,28.721,206.14,27.439,207.742z"/>
		<path fill="#9A5F2B" d="M25.604,233.792l-0.023-0.027l-0.046-2.121l-0.573-0.048v-3.098l-0.715-4.529l-0.214-1.357l-5.422,0.465
			l-0.533-0.32c1.923,3.56,3.99,7.031,6.183,10.412l0.008,0.004L25.604,233.792z"/>
		<path fill="#9A5F2B" d="M71.585,159.414l-0.721-0.433l-2.067,2.756l-1.787-2.68c-2.02,0.981-4.794,2.47-5.649,3.609
			c0,0,0,0.719,0.04,1.957c0.528,0.553,1.354,0.831,1.354,0.831h3.718h2.324l2.323,2.788c0,0-3.253,8.829-4.647,8.829
			c-1.395,0-4.182,4.183-4.182,5.577c0,1.394,0,1.394,0,1.394l-3.718,1.859v-2.789l1.859-5.576c0,0-2.523,1.122-6.041,2.709
			c0,1.989,0,2.403,0,2.403l-5.625,2.249c-0.292,2.815,1.907,6.115,1.907,6.115l1.394-0.465c0,0,3.908,4.188,5.666,6.72l0.375-3.002
			l3.253-1.395l-0.465,4.183c0,0,1.859-2.788,2.789-4.183c0.929-1.394,5.576-8.829,5.576-8.829
			c2.323-0.465,2.323-11.152,2.323-11.152s0.465,0,1.859-0.465c1.395-0.465,2.324-3.253,2.324-3.253h3.253
			c0,0,0.464,0.465,0.464-3.253s0-6.506,0-6.506s0.281-1.029,0.758-2.205c-1.346,0.988-2.846,2.048-4.476,3.135
			C68.798,164.99,71.585,159.414,71.585,159.414z"/>
		<path fill="#9A5F2B" d="M136.178,119.45l-1.858-0.465h-2.788l-4.183,3.718c0,0-0.816,0.408-2.021,1.053
			c-0.068,0.849-0.165,1.647-0.303,2.2c-0.361,1.442-2.395,0.369-3.29-0.186c-2.422,1.431-4.941,3.093-6.004,4.368
			c-2.324,2.788-3.253,0-3.253,0l-3.718-0.93l-9.294,3.253c0,0-0.547,0.819-1.596,2.012c0.067,0.253,0.135,0.507,0.202,0.777
			c1.394,5.576-1.859,2.323-3.253,2.323c-0.038,0-0.075,0-0.113,0c-0.922,0.782-1.967,1.577-3.139,2.323l-0.93-2.788l-6.041,3.253
			c0,0,0.929,3.718,0.929,5.112s1.859,6.041,1.859,6.041s2.788-1.394,2.788,0c0,1.395,0,1.395,0,1.395s-0.929,1.395,1.859,1.395
			s5.112-0.93,7.9-4.183s3.718-6.506,3.718-7.9s-2.324-3.253-2.324-3.253c9.294-2.788,7.9-2.788,12.547-2.788
			s12.547,0.929,12.547,0.929s0.464,1.859,3.717-1.858c3.253-3.718,2.788-5.577,6.041-7.435c0.448-0.256,0.897-0.558,1.347-0.879
			c-0.585-1.474-1.347-3.444-1.347-5.162C136.178,119.45,136.178,119.45,136.178,119.45z"/>
		<path fill="#9A5F2B" d="M173.818,84.598c0.93,6.041-1.858,4.182-1.858,4.182s-1.391-2.436-2.066-4.597
			c-1.262,1.624-2.516,3.139-3.51,4.132c-3.253,3.253-4.183-0.465-4.183-0.465s-2.323,0-4.182,0c-1.859,0-1.859,1.394-9.759,4.647
			c-7.9,3.253,0,4.647,0,7.9s1.858,4.647,1.858,6.041s-1.858,0.465-1.858,0.465s-2.324,2.788-6.042,6.041
			c-3.717,3.253,0,6.041,0,6.041v2.788c0,0-0.262,0.793-0.647,2.363c1.543-0.805,3.139-1.096,4.83-0.04
			c3.718,2.324,5.577,2.789,5.577,2.789s6.041,1.859,7.899-1.859s5.111-5.576,1.858-9.758c-3.253-4.183-6.041-5.112-6.041-5.112
			s1.859-10.688,6.971-11.153c5.111-0.465,7.899-0.929,9.294-0.929s6.041-0.465,6.041-0.465l3.253-4.183h3.718l5.576-4.182
			c0,0,0.465,0,3.253,0s3.718,1.395,5.111-1.394c1.395-2.788,2.324-9.293,4.183-9.293s5.111-2.789,6.506-2.789s5.111,0,5.111,0
			s6.971-7.435,9.294-7.9c2.323-0.464-0.464,0.465,2.323-0.464c2.789-0.93,5.577-0.93,6.971-0.93s15.8-0.929,15.8-0.929l10.688-0.93
			l1.859,2.789l1.394,1.859c0,0,0.93,1.394,2.323,0c1.396-1.395,1.396-10.224,1.396-10.224s-1.859-3.253-6.042-3.253
			c-4.182,0-3.718,3.253-3.718,3.253s-5.111,1.859-6.505,1.859c-1.395,0-2.789-0.465-2.789-0.465s-3.252-0.464-3.252-2.323
			s-1.395-2.324-2.788-2.324c-1.395,0-2.789,0-2.789,0s-4.183,0.465-6.041,1.859s-2.323,0-4.183,0c-1.858,0-3.252,0.465-8.828,1.859
			c-5.577,1.394-3.253,3.253-7.436,7.9s-4.647,4.182-8.829,4.182c-1.233,0-1.938,0-2.323,0c0,0-2.324,0-10.224,2.788
			c-7.9,2.788,0.93,4.647,0.93,4.647v2.788l-1.859,2.324c0,0-2.323,1.394-8.364,3.717s-0.93-4.182-0.93-4.182l1.859-2.788
			l-0.93-3.253l-6.041-1.394c0,0-1.191,1.74-2.799,3.959C173.2,81.308,173.531,82.73,173.818,84.598z"/>
		<path fill="#6C4926" d="M5.042,189.861c0.182,0.687,0.365,1.373,0.556,2.056v-4.466L5.042,189.861z"/>
		<path fill="#6C4926" d="M226.329,20.469l-0.094,0.073c0.34,0.213,0.679,0.426,1.014,0.639L226.329,20.469z"/>
		<path fill="#6C4926" d="M248.635,36.733l1.859,4.183v3.253l-0.465,1.858h-2.789c0,0,0,0-2.787,0c-2.788,0,0,2.789,0,2.789
			s-3.254,0.464-5.112,0.464s-1.394-0.464-1.394-0.464l-0.93-2.789c0,0-2.324-1.394-4.647-1.394s-6.505,3.252-8.828,4.182
			c-2.324,0.929-2.789,2.323-6.506,4.647c-3.718,2.323-7.9,7.899-12.548,8.829c-4.646,0.929-1.858-1.394-3.252-3.718
			c-0.062-0.101-0.126-0.19-0.191-0.275c-0.322,2.118-1.141,3.961-3.062,4.922c-2.789,1.394-6.506-1.394-6.506-1.394
			s-5.577,3.718-6.971,3.718c-1.395,0-1.395,0.929-3.718,0.929s-3.718,2.324-7.899,5.577c-4.183,3.253-1.395,2.323-1.395,3.717
			c0,0.963,0.666,1.928,1.384,4.424c1.607-2.219,2.799-3.959,2.799-3.959l6.041,1.394l0.93,3.253l-1.859,2.788
			c0,0-5.111,6.505,0.93,4.182s8.364-3.717,8.364-3.717l1.859-2.324v-2.788c0,0-8.83-1.859-0.93-4.647
			c7.899-2.788,10.224-2.788,10.224-2.788c0.385,0,1.09,0,2.323,0c4.182,0,4.646,0.465,8.829-4.182s1.858-6.506,7.436-7.9
			c5.576-1.394,6.97-1.859,8.828-1.859c1.859,0,2.324,1.394,4.183,0s6.041-1.859,6.041-1.859s1.395,0,2.789,0
			c1.394,0,2.788,0.465,2.788,2.324s3.252,2.323,3.252,2.323s1.395,0.465,2.789,0.465c1.394,0,6.505-1.859,6.505-1.859
			s-0.464-3.253,3.718-3.253c4.183,0,6.042,3.253,6.042,3.253v-5.074c-1.082-1.287-2.183-2.557-3.306-3.808l-5.524-5.524
			L248.635,36.733z"/>
		<path fill="#6C4926" d="M191.478,61.827c0,0,0.971-0.757,1.874-1.904C192.343,60.818,191.478,61.827,191.478,61.827z"/>
		<path fill="#6C4926" d="M18.61,223.077l5.422-0.465l-0.93-7.744l0.032-0.632c-0.647,0.87-2.201-1.847-2.201-1.847l-1.858-1.395
			l-2.324-4.646l-5.37,2.301c1.996,4.833,4.229,9.543,6.696,14.107L18.61,223.077z"/>
		<path fill="#6C4926" d="M26.053,211.312c0.425-1.623,0.895-2.955,1.386-3.57c1.281-1.602,3.887-6.515,5.383-9.413l-4.918,1.514
			c0,0-2.323,2.788-4.182,4.646c-1.55,1.55-0.733,3.426-0.418,6.34l0.108-2.157L26.053,211.312z"/>
		<path fill="#6C4926" d="M84.597,140.361l6.041-3.253l0.93,2.788c1.172-0.746,2.217-1.541,3.139-2.323c-1.355,0-2.675,0-2.675,0
			l-0.464-1.859c0,0,0-3.717,0-5.576s-2.324-1.394-2.324-1.394s-7.9,3.253-11.618,4.646v2.789v3.253c0,0,0.465,4.647,1.859,5.576
			c1.394,0.929,0.93,5.112,0.93,5.112l-6.971-2.788c0,2.323-0.464,8.829-0.464,8.829l-2.115,2.82l0.721,0.433
			c0,0-2.788,5.576,4.183,0.93c1.629-1.087,3.13-2.146,4.476-3.135c4.411-3.238,7.142-5.695,7.142-5.695s-1.859-4.646-1.859-6.041
			S84.597,140.361,84.597,140.361z"/>
		<path fill="#6C4926" d="M43.704,200.307c0,0-0.465,0.465-0.465,1.858c0,1.395-1.859,4.647,2.323,4.647
			c3.217,0,9.177-3.847,11.761-6.258c0.776-0.725,1.251-1.32,1.251-1.643c0-0.313-0.33-0.91-0.84-1.645
			c-1.758-2.532-5.666-6.72-5.666-6.72l-1.394,0.465c0,0-2.199-3.3-1.907-6.115l-1.346,0.539l2.323-3.253c0,0,0-3.718-2.788-3.718
			c-0.469,0-0.778,0-0.978,0c-0.006,0-0.09,0-0.321,0c-0.03,0-0.061,0-0.096,0c-1.394,0-7.899,0-9.294,0c-1.394,0,0,2.323,0,2.323
			s0.355,0.711,0.881,1.827c0.352-0.14,0.684-0.286,0.978-0.433c1.859-0.93,2.789,0,1.394,0c-0.706,0-1.292,0.952-1.698,1.892
			c0.948,2.091,2.12,4.84,2.892,7.226l1.13-0.753L43.704,200.307z"/>
		<path fill="#6C4926" d="M142.219,118.985c0,0-3.717-2.788,0-6.041c3.718-3.253,6.042-6.041,6.042-6.041s1.858,0.929,1.858-0.465
			s-1.858-2.788-1.858-6.041s-7.9-4.647,0-7.9c7.899-3.253,7.899-4.647,9.759-4.647c1.858,0,4.182,0,4.182,0s0.93,3.718,4.183,0.465
			c0.994-0.994,2.248-2.509,3.51-4.132c-0.105-0.336-0.194-0.667-0.257-0.979c-0.465-2.323-2.788-4.182-4.647-5.576
			c-1.14-0.855-2.104-0.661-2.68-0.383c1.957,3.967-2.532,3.171-3.826,3.171c-0.62,0-0.966,0-1.361-0.042
			c-0.01,0.014-0.023,0.027-0.032,0.042c-0.93,1.394,0,1.394,0,1.394l-9.294,5.577c0,0-4.182,0-5.577,0.464
			c-1.394,0.465-1.858,5.576-1.858,5.576s0,0,0,2.789c0,2.788-1.394,5.112-1.394,5.112s-1.859,0-5.112-0.93v-1.859l-2.788-1.394
			c0,0-1.859,0.93-5.576,3.718c0,0-0.107,1.073-0.219,2.342c0.132-0.008,0.219-0.019,0.219-0.019l4.182,5.576l2.788-2.788
			l1.394,0.93c0,0-4.182,13.941-5.576,13.476c-1.395-0.465-2.788-0.929-2.788-0.929s0,2.295-0.162,4.306
			c1.205-0.645,2.021-1.053,2.021-1.053l4.183-3.718h2.788l1.858,0.465c0,0,0,0,0,2.323c0,1.718,0.762,3.688,1.347,5.162
			c0.207,0.521,0.391,0.98,0.512,1.344c0.465,1.394,1.394,7.435,2.324,1.859c0.436-2.618,0.871-4.613,1.211-6.002
			c0.385-1.57,0.647-2.363,0.647-2.363V118.985z"/>
		<path fill="#6C4926" d="M121.308,120.844c0,0,0-6.506-1.859-7.435s-2.788,1.859-2.788,1.859s-2.323,2.788-4.182,6.505
			s-4.647-1.394-4.647-1.394l-1.394-2.324l-0.404,0.324l-1.919,1.535c0,0-7.435,1.394-8.829,1.394s0,3.718,0,5.112
			c0,1.327,1.263,3.082,2.586,8.053c1.049-1.193,1.596-2.012,1.596-2.012l9.294-3.253l3.718,0.93c0,0,0.929,2.788,3.253,0
			c1.063-1.275,3.582-2.938,6.004-4.368c-0.259-0.16-0.428-0.279-0.428-0.279V120.844z"/>
		<path fill="#6C4926" d="M58.574,183.113v2.789l3.718-1.859c0,0,0,0,0-1.394c0-1.395,2.788-5.577,4.182-5.577
			c1.394,0,4.647-8.829,4.647-8.829l-2.323-2.788h-2.324h-3.718c0,0-0.826-0.278-1.354-0.831c0.05,1.58,0.165,4.007,0.425,6.872
			c0,0-1.859-0.93-2.323-2.788c-0.465-1.858-5.577,1.395-5.577,1.395s0.465,7.435,0.465,9.758c0,0.136,0,0.263,0,0.386
			c3.518-1.587,6.041-2.709,6.041-2.709L58.574,183.113z"/>
		<path fill="#6C4926" d="M67.011,159.057l-0.072-0.108l-1.859-1.394l-3.717,5.111C62.217,161.527,64.991,160.039,67.011,159.057z"
			/>
		<path fill="#2F2414" d="M153.372,66.01c0,0,5.111,5.111,8.364,10.223c0.235,0.369,0.422,0.703,0.573,1.011
			c0.576-0.278,1.54-0.472,2.68,0.383c1.859,1.394,4.183,3.253,4.647,5.576c0.063,0.313,0.151,0.644,0.257,0.979
			c0.676,2.162,2.066,4.597,2.066,4.597s2.788,1.859,1.858-4.182c-0.287-1.867-0.618-3.29-0.939-4.406
			c-0.718-2.496-1.384-3.46-1.384-4.424c0-1.394-2.788-0.464,1.395-3.717c4.182-3.253,5.576-5.577,7.899-5.577
			s2.323-0.929,3.718-0.929c1.394,0,6.971-3.718,6.971-3.718s0.865-1.009,1.874-1.904c0.97-1.233,1.86-2.917,1.379-4.602
			c-0.93-3.253-0.93-6.505-0.93-6.505s-3.253,0.929-12.082,4.647c-8.829,3.717-1.395,4.647-3.253,8.829s-5.576,1.859-5.576,1.859
			s-5.112-1.859-15.8-2.789c-0.756-0.065-1.415-0.095-2.003-0.101c-0.491,0.85-1.027,1.178-2.388,0.206
			C148.841,62.382,153.372,66.01,153.372,66.01z"/>
		<path fill="#2F2414" d="M206.348,11.64l1.858,1.394c0,0,1.103,1.102,2.244,1.94l3.591-1.243c-2.198-1.01-4.426-1.968-6.679-2.875
			c-0.899-0.167-1.751-0.245-2.556-0.244L206.348,11.64z"/>
		<path fill="#2F2414" d="M19.075,210.995l1.858,1.395c0,0,1.554,2.717,2.201,1.847l0.17-3.407c-0.315-2.914-1.132-4.79,0.418-6.34
			c1.859-1.858,4.182-4.646,4.182-4.646l4.918-1.514l1.123-0.345c2.323-1.859,8.364-1.395,6.971-6.041
			c-0.063-0.21-0.131-0.425-0.201-0.642c-0.771-2.386-1.944-5.135-2.892-7.226c-0.398,0.919-0.625,1.826-0.625,1.826
			s-2.788-0.93-4.182-0.93s-1.394,3.253-1.394,3.253v1.858l-3.718,2.323l-1.859-4.182l-4.182-6.041v1.394l-5.112,13.012
			l-0.929-7.436c0,0-5.112-4.646-5.112-6.505v-6.506l-2.599-0.521l-2.513,11.208v0.62v4.466c1.605,5.723,3.542,11.306,5.783,16.732
			l5.37-2.301L19.075,210.995z"/>
		<path fill="#2F2414" d="M226.235,20.542c-2.183-1.371-4.455-2.754-6.78-4.102l11.287,6.998c-1.128-0.741-2.294-1.495-3.493-2.256
			C226.914,20.968,226.575,20.755,226.235,20.542z"/>
		<path fill="#2F2414" d="M204.488,62.292c4.647-0.93,8.83-6.506,12.548-8.829c3.717-2.324,4.182-3.718,6.506-4.647
			c2.323-0.93,6.505-4.182,8.828-4.182s4.647,1.394,4.647,1.394l0.93,2.789c0,0-0.465,0.464,1.394,0.464s5.112-0.464,5.112-0.464
			s-2.788-2.789,0-2.789c2.787,0,2.787,0,2.787,0h2.789l0.465-1.858v-3.253l-1.859-4.183l-2.323-2.323c0,0-3.414-2.632-8.715-6.331
			l-4.297,2.148h-2.788c0,0,0,0-2.323,0.929c-2.323,0.93-3.718,3.718-5.577,6.971c-1.858,3.253,0,0-1.394,2.788s0,0,0,1.859
			s-2.788,3.252-8.364,2.323s-2.789-0.464-6.971-1.394c-4.183-0.929-3.718,3.718-4.646,6.971c-0.93,3.252,0,1.394,0,4.646
			c0,1.012-0.046,2.023-0.191,2.978c0.065,0.084,0.13,0.174,0.191,0.275C202.63,60.898,199.842,63.221,204.488,62.292z"/>
		<path fill="#2F2414" d="M36.269,178.466c1.395,0,7.9,0,9.294,0c0.035,0,0.065,0,0.096,0c0.23,0,0.315,0,0.321,0
			c0.2,0,0.509,0,0.978,0c2.788,0,2.788,3.718,2.788,3.718l-2.323,3.253l1.346-0.539l5.625-2.249c0,0,0-0.414,0-2.403
			c0-0.123,0-0.25,0-0.386c0-2.323-0.465-9.758-0.465-9.758s5.111-3.253,5.577-1.395c0.464,1.858,2.323,2.788,2.323,2.788
			c-0.261-2.865-0.375-5.292-0.425-6.872c-0.04-1.238-0.04-1.957-0.04-1.957l3.717-5.111l1.859,1.394l0.072,0.108l1.787,2.68
			l2.067-2.756l2.115-2.82c0,0,0.464-6.506,0.464-8.829l-5.576-2.324c0,0-6.506-3.717-7.9-3.717s-2.323,4.182-2.323,6.041
			c0,1.858,2.788,10.224,2.788,10.224s-1.395-0.465-2.788-2.324c-0.831-1.106-3.146-0.896-4.881-0.543
			c-0.281,0.491-0.521,0.949-0.695,1.473c-0.1,0.301-0.788,0.536-1.801,0.722c-0.688,2.902-2.039,9.134-2.381,14.613
			c-0.465,7.436-2.324,1.395-6.506,1.395s1.859-1.859,1.394-3.253c-0.465-1.395-0.929-3.253-5.111-4.183
			c-4.183-0.93-2.324,1.859-5.112,2.323c-2.788,0.465-2.788,4.183-3.718,11.153c-0.929,6.971,1.394,3.253,2.789,4.182
			c1.173,0.782,3.66,0.247,5.527-0.496c-0.525-1.116-0.881-1.827-0.881-1.827S34.875,178.466,36.269,178.466z"/>
		<path fill="#2F2414" d="M133.855,98.538v1.859c3.253,0.93,5.112,0.93,5.112,0.93s1.394-2.324,1.394-5.112c0-2.789,0-2.789,0-2.789
			s0.465-5.111,1.858-5.576c1.395-0.464,5.577-0.464,5.577-0.464l9.294-5.577c0,0-0.93,0,0-1.394
			c0.009-0.014,0.022-0.027,0.032-0.042c-0.493-0.051-1.067-0.165-2.355-0.423c-2.324-0.464-0.93-2.323-0.93-2.323
			s-0.465-4.647-2.788-5.112c-2.324-0.464-4.182,1.859-6.041,2.789c-1.296,0.648-1.691,1.071-4.174,2.686
			c0.348,0.287,0.309,0.762-1.403,1.496c-0.372,0.159-0.8,0.211-1.263,0.186c-0.593,0.365-1.25,0.765-1.99,1.208
			c-6.97,4.182,1.859,7.435,1.859,7.435s-1.859,0.465-17.194,2.324c-15.335,1.858-2.323,2.788-2.323,2.788s2.788,2.789,6.971,7.436
			c3.717-2.788,5.576-3.718,5.576-3.718L133.855,98.538z"/>
		<path fill="#2F2414" d="M91.568,130.138c0,1.859,0,5.576,0,5.576l0.464,1.859c0,0,1.32,0,2.675,0c0.038,0,0.076,0,0.113,0
			c1.394,0,4.647,3.253,3.253-2.323c-0.067-0.27-0.135-0.524-0.202-0.777c-1.323-4.971-2.586-6.726-2.586-8.053
			c0-1.394-1.394-5.112,0-5.112s8.829-1.394,8.829-1.394l1.919-1.535l0.404-0.324l1.394,2.324c0,0,2.788,5.112,4.647,1.394
			s4.182-6.505,4.182-6.505s0.929-2.788,2.788-1.859s1.859,7.435,1.859,7.435v4.647c0,0,0.169,0.119,0.428,0.279
			c0.896,0.555,2.929,1.628,3.29,0.186c0.138-0.553,0.235-1.351,0.303-2.2c0.162-2.01,0.162-4.306,0.162-4.306
			s1.394,0.464,2.788,0.929c1.394,0.465,5.576-13.476,5.576-13.476l-1.394-0.93l-2.788,2.788l-4.182-5.576
			c0,0-0.087,0.01-0.219,0.019c-0.121,1.373-0.246,2.974-0.246,3.699c0,1.394-1.394,0.465-1.394,0.465s-9.759-0.465-12.083-2.789
			c-2.323-2.323,1.395-1.858,1.395-1.858l6.97-4.647c0,0-6.506,0-14.87,0c-8.365,0-5.577,9.294-5.577,9.294h1.395
			c0,0,0,2.323-1.395,7.9c-1.394,5.576-3.253,1.858-5.111,3.253c-1.859,1.394,0,0,0.464-2.789c0.465-2.788-0.464-4.182-2.788-4.647
			c-2.323-0.465-4.182,0.465-10.688,1.859c-6.505,1.394,1.394,6.041,1.394,6.041l1.395,2.788l-6.506,10.224v1.394
			c3.718-1.394,11.618-4.646,11.618-4.646S91.568,128.279,91.568,130.138z"/>
		<path fill="#260F0C" d="M6.063,175.213l2.048,0.409l2.599,0.521v6.506c0,1.858,5.112,6.505,5.112,6.505l0.929,7.436l5.112-13.012
			v-1.394l4.182,6.041l1.859,4.182l3.718-2.323v-1.858c0,0,0-3.253,1.394-3.253s4.182,0.93,4.182,0.93s0.227-0.907,0.625-1.826
			c0.407-0.939,0.993-1.892,1.698-1.892c1.395,0,0.465-0.93-1.394,0c-0.294,0.146-0.626,0.293-0.978,0.433
			c-1.868,0.743-4.354,1.278-5.527,0.496c-1.395-0.929-3.718,2.789-2.789-4.182c0.93-6.971,0.93-10.688,3.718-11.153
			c2.788-0.464,0.929-3.253,5.112-2.323c4.182,0.93,4.646,2.788,5.111,4.183c0.465,1.394-5.576,3.253-1.394,3.253
			s6.041,6.041,6.506-1.395c0.342-5.479,1.693-11.711,2.381-14.613c-3.679,0.672-11.675,0.673-11.675,0.673h-1.394
			c0,0-3.718-1.859-3.718-4.183s9.759-2.788,9.759-2.788c-1.394-0.93-6.971-6.506-6.971-6.506s-0.464-3.718-4.182-1.395
			c-3.717,2.324-4.647,9.759-4.647,9.759s-0.465,3.253,0.93,4.647c1.394,1.394,4.647,3.253,4.647,3.253s2.323-1.395,1.859,1.858
			c-0.465,3.253-3.718,4.647-3.718,4.647l-5.576,1.394l-1.859-1.858l-6.506,3.253c0,0-0.929,0.929-4.647,0.929s-1.859-0.464-3.718,0
			c-1.858,0.465-5.111,3.253-5.111,3.253v1.395v1.858v1.859l-0.976,0.975c0.355,1.831,0.733,3.654,1.153,5.461
			c0.119-0.694,0.218-1.309,0.287-1.789C4.669,180.325,6.063,175.213,6.063,175.213z"/>
		<path fill="#260F0C" d="M143.614,68.333c0.929,1.859,0.929,5.112,0.929,5.112l-2.788,2.788l-1.859,1.394
			c0,0,0.625,0.104,0.938,0.363c2.482-1.615,2.877-2.038,4.174-2.686c1.859-0.93,3.717-3.253,6.041-2.789
			c2.323,0.465,2.788,5.112,2.788,5.112s-1.395,1.859,0.93,2.323c1.288,0.258,1.862,0.373,2.355,0.423
			c0.396,0.042,0.741,0.042,1.361,0.042c1.294,0,5.783,0.796,3.826-3.171c-0.151-0.309-0.338-0.643-0.573-1.011
			c-3.253-5.112-8.364-10.223-8.364-10.223s-4.531-3.627-0.673-4.542c-0.219-0.156-0.456-0.342-0.721-0.569
			c-3.044-2.609-4.867-5.217-5.088-5.542c0.275,0.409,3.027,4.679-0.953,6.006c-1.871,0.624-4.394,1.339-6.818,1.691l0.312,1.562
			C139.431,64.615,142.684,66.474,143.614,68.333z"/>
		<path fill="#260F0C" d="M211.924,15.822c1.395,0.465,3.718,2.323,3.718,2.323s3.253,2.324,0,5.112
			c-3.253,2.789-3.718,3.718-6.971,3.718s-3.718,0-5.576,0s-6.971,0.93-6.971,0.93h-2.323c0,0-2.323-0.465-3.718-0.465
			c-1.394,0-5.576-1.858-5.576,2.324s2.788,7.435,2.788,7.435s1.395-0.465,3.253,0s4.646,0.465,6.506,0.465
			c1.858,0,4.646-0.465,4.646-0.465s5.577,3.253,0,4.183c-5.576,0.929-8.829,0.929-8.829,0.929l-3.253-0.465l-5.576-4.647
			c0,0-2.323-3.253-3.718-3.253c-1.394,0-5.111,2.788-5.111,2.788l-1.395,5.112c0,0,1.395,0.465,1.395,2.324
			c0,1.858,0,1.858,0,1.858s-7.436,2.324-9.294,0.465c-1.858-1.858-1.858-1.858-1.858-1.858s-4.183-5.112-4.647-3.253
			c-0.465,1.858-3.718,2.788-3.718,6.041s1.859,6.505,1.859,6.505l0.929,1.394c0,0,0,0.93-1.858,3.253
			c-0.767,0.958-1.138,1.995-1.538,2.688c0.588,0.005,1.247,0.035,2.003,0.101c10.688,0.93,15.8,2.789,15.8,2.789
			s3.718,2.323,5.576-1.859s-5.576-5.112,3.253-8.829c8.829-3.718,12.082-4.647,12.082-4.647s0,3.252,0.93,6.505
			c0.481,1.686-0.409,3.369-1.379,4.602c-0.903,1.147-1.874,1.904-1.874,1.904s3.717,2.788,6.506,1.394
			c1.921-0.96,2.739-2.804,3.062-4.922c0.146-0.955,0.191-1.966,0.191-2.978c0-3.253-0.93-1.394,0-4.646
			c0.929-3.253,0.464-7.9,4.646-6.971c4.182,0.93,1.395,0.465,6.971,1.394s8.364-0.464,8.364-2.323s-1.394,0.929,0-1.859
			s-0.465,0.465,1.394-2.788c1.859-3.253,3.254-6.041,5.577-6.971c2.323-0.929,2.323-0.929,2.323-0.929h2.788l4.297-2.148
			l0.351-0.175l-7.205-4.467l-11.287-6.998l-0.758-0.47c-1.537-0.772-3.089-1.519-4.656-2.239l-3.591,1.243
			C210.966,15.353,211.49,15.677,211.924,15.822z"/>
		<path fill="#260F0C" d="M57.645,155.231c1.394,1.859,2.788,2.324,2.788,2.324s-2.788-8.365-2.788-10.224
			c0-1.859,0.929-6.041,2.323-6.041s7.9,3.717,7.9,3.717l5.576,2.324l6.971,2.788c0,0,0.464-4.183-0.93-5.112
			c-1.394-0.929-1.859-5.576-1.859-5.576v-3.253v-2.789v-1.394l6.506-10.224l-1.395-2.788c0,0-7.899-4.647-1.394-6.041
			c6.506-1.394,8.365-2.324,10.688-1.859c2.324,0.465,3.253,1.859,2.788,4.647c-0.464,2.789-2.323,4.182-0.464,2.789
			c1.858-1.395,3.717,2.323,5.111-3.253c1.395-5.577,1.395-7.9,1.395-7.9h-1.395c0,0-2.788-9.294,5.577-9.294
			c8.364,0,14.87,0,14.87,0l-6.97,4.647c0,0-3.718-0.465-1.395,1.858c2.324,2.324,12.083,2.789,12.083,2.789
			s1.394,0.929,1.394-0.465c0-0.725,0.125-2.326,0.246-3.699c0.111-1.269,0.219-2.342,0.219-2.342
			c-4.183-4.647-6.971-7.436-6.971-7.436s-13.012-0.929,2.323-2.788c15.335-1.859,17.194-2.324,17.194-2.324
			s-8.829-3.253-1.859-7.435c0.74-0.444,1.396-0.844,1.99-1.208c-3.593-0.197-9.425-5.297-9.425-5.297V72.98
			c0,0-0.464-0.929-1.859-0.929c-1.394,0-2.788,0-6.041,2.323c-3.253,2.324-8.364,5.576-8.364,5.576
			c-7.435,0-11.617-2.323-11.617-2.323s-2.789-0.465-3.253,0.93c-0.465,1.394-2.789,5.111-2.789,5.111s-4.647,3.718,0,3.718
			s8.365-2.788,8.365-2.788l1.394-0.465c0,0,11.618-5.576,2.788,1.858c-8.829,7.435-12.547,8.83-12.547,8.83l-2.323-0.465
			c0,0-0.465-5.112-0.465-6.506s0-4.647,0-4.647s-0.938-0.749-2.054-1.449l-5.487,3.164c-1.292,2.884-2.683,6.185-2.683,6.185
			s-0.465,2.789-1.394,4.182c-0.065,0.098-0.142,0.213-0.224,0.336l3.477,0.128c0.465,3.717,6.971,5.112-1.394,6.506
			c-0.951,0.159-1.861,0.31-2.738,0.454c-0.016,0.155-0.031,0.308-0.05,0.476c-0.929,7.899-6.041,9.294-6.041,9.294
			s-2.323-0.93-3.717-1.395c-1.395-0.465-4.647-2.788-4.647-2.788s-1.858-2.324-4.182,0c-2.323,2.323-5.111,5.576-0.929,6.506
			c2.068,0.459,3.455,0.692,4.609,0.81c1.179,0.12,2.116,0.12,3.291,0.12c2.323,0,3.253-3.718,4.647,2.323s4.182,8.365,1.394,11.153
			c-2.788,2.789-5.577,3.253-7.9,3.253s-5.112-5.112-6.971-6.505c-1.858-1.395-4.182-3.718-4.182-3.718l8.365-1.394l-6.97-8.364
			c0,0-1.395-2.789-1.859,2.323c-0.465,5.111-0.929,7.9-0.929,9.293c0,1.395,0,0.93,0,4.647c0,1.427,0,2.509,0,3.305l1.858,2.271
			c0,0,1.859,2.323-0.929,3.718c-2.789,1.394-6.506,1.858-8.83,1.858c-0.461,0-1.071-0.278-1.768-0.733
			c-2.872,0.65-5.203,1.198-5.203,1.198s-0.929,1.394,0.929,3.718c1.859,2.323,2.788,1.858,7.436,2.323
			c4.646,0.465,7.899,0.93,7.899,0.93s0.465,1.858-0.464,4.182c-0.581,1.451-1.161,2.358-1.628,3.175
			C54.5,154.335,56.814,154.125,57.645,155.231z"/>
		<path fill="#0A0A0B" d="M83.203,74.374c0,0,0.091-0.025,0.254-0.07C83.546,74.118,83.203,74.374,83.203,74.374z"/>
		<path fill="#0A0A0B" d="M191.478,6.993c-0.901,0.375-2.109,0.849-3.496,1.377l9.072,5.128c5.194,3.116-13.095,1.33-23.713,0.217
			c-2.734,0.974-4.634,1.641-4.634,1.641l-1.858,4.647c0,0,6.041,3.253,3.253,6.971c-2.788,3.717-4.183,5.112-11.153,5.112
			c-6.97,0-8.829,0-8.829,0s-2.323-0.465-2.323,3.717s0,9.759,0,11.153s-1.859,3.718-1.859,3.718l0.93,4.646
			c0,0,0.009,0.014,0.023,0.035c0.222,0.324,2.044,2.933,5.088,5.542c0.265,0.227,0.502,0.413,0.721,0.569
			c1.36,0.972,1.896,0.645,2.388-0.206c0.4-0.692,0.771-1.729,1.538-2.688c1.858-2.323,1.858-3.253,1.858-3.253l-0.929-1.394
			c0,0-1.859-3.252-1.859-6.505s3.253-4.183,3.718-6.041c0.465-1.859,4.647,3.253,4.647,3.253s0,0,1.858,1.858
			c1.858,1.859,9.294-0.465,9.294-0.465s0,0,0-1.858c0-1.859-1.395-2.324-1.395-2.324l1.395-5.112c0,0,3.718-2.788,5.111-2.788
			c1.395,0,3.718,3.253,3.718,3.253l5.576,4.647l3.253,0.465c0,0,3.253,0,8.829-0.929c5.577-0.929,0-4.183,0-4.183
			s-2.788,0.465-4.646,0.465c-1.859,0-4.647,0-6.506-0.465s-3.253,0-3.253,0s-2.788-3.253-2.788-7.435s4.183-2.324,5.576-2.324
			c1.395,0,3.718,0.465,3.718,0.465h2.323c0,0,5.112-0.93,6.971-0.93s2.323,0,5.576,0s3.718-0.929,6.971-3.718
			c3.253-2.788,0-5.112,0-5.112s-2.323-1.858-3.718-2.323c-0.434-0.145-0.958-0.469-1.474-0.848c-1.142-0.838-2.244-1.94-2.244-1.94
			l-1.858-1.394l-1.541-1.027l-2.562-1.708c-0.47-0.169-0.942-0.333-1.414-0.498l-4.242-1.414H191.478z"/>
		<path fill="#0A0A0B" d="M0,151.049c0,0.75,0.018,1.497,0.028,2.244l0.169-0.567C0.125,152.207,0.059,151.656,0,151.049z"/>
		<path fill="#0A0A0B" d="M3.74,177.072v-1.858v-1.395c0,0,3.253-2.788,5.111-3.253c1.859-0.464,0,0,3.718,0
			s4.647-0.929,4.647-0.929l6.506-3.253l1.859,1.858l5.576-1.394c0,0,3.253-1.395,3.718-4.647c0.464-3.253-1.859-1.858-1.859-1.858
			s-3.253-1.859-4.647-3.253c-1.395-1.395-0.93-4.647-0.93-4.647s0.93-7.435,4.647-9.759c3.718-2.323,4.182,1.395,4.182,1.395
			s5.577,5.576,6.971,6.506c0,0-9.759,0.465-9.759,2.788s3.718,4.183,3.718,4.183h1.394c0,0,7.996-0.001,11.675-0.673
			c1.014-0.186,1.701-0.421,1.801-0.722c0.175-0.523,0.415-0.981,0.695-1.473c0.468-0.816,1.048-1.724,1.628-3.175
			c0.929-2.323,0.464-4.182,0.464-4.182s-3.253-0.465-7.899-0.93c-4.647-0.465-5.577,0-7.436-2.323
			c-1.858-2.324-0.929-3.718-0.929-3.718s2.331-0.548,5.203-1.198c-2.81-1.837-7.058-6.606-8.92-8.096
			c-2.324-1.859-9.294-3.718-10.688-3.718c-1.394,0-2.323,7.9-2.323,9.759c0,1.859,1.394,0.93-1.859,6.041
			c-3.253,5.112-6.506,7.9-7.9,8.83c-1.394,0.929-5.111,6.505-5.111,6.505l-3.718,4.183H1.417H0.44
			c0.445,5.847,1.233,11.597,2.325,17.239l0.976-0.975V177.072z"/>
		<path fill="#0A0A0B" d="M81.809,91.103c0,0,1.39-3.301,2.683-6.185c0.821-1.833,1.603-3.497,1.964-4.038
			c0.512-0.768,2.152,0.016,3.522,0.875c1.116,0.7,2.054,1.449,2.054,1.449s0,3.253,0,4.647s0.465,6.506,0.465,6.506l2.323,0.465
			c0,0,3.718-1.395,12.547-8.83c8.83-7.435-2.788-1.858-2.788-1.858l-1.394,0.465c0,0-3.718,2.788-8.365,2.788s0-3.718,0-3.718
			s2.324-3.718,2.789-5.111c0.464-1.395,3.253-0.93,3.253-0.93s4.182,2.323,11.617,2.323c0,0,5.111-3.252,8.364-5.576
			c3.253-2.323,4.647-2.323,6.041-2.323c1.395,0,1.859,0.929,1.859,0.929v1.394c0,0,5.832,5.1,9.425,5.297
			c0.463,0.026,0.892-0.026,1.263-0.186c1.712-0.734,1.75-1.209,1.403-1.496c-0.313-0.258-0.938-0.363-0.938-0.363l1.859-1.394
			l2.788-2.788c0,0,0-3.253-0.929-5.112c-0.93-1.859-4.183-3.718-4.183-3.718l-0.312-1.562c-2.994,0.435-5.839,0.314-7.123-1.227
			c-2.323-2.788-3.717-5.111-3.717-5.111s-0.465,0-0.465,2.788s0.465,3.253-2.323,6.506c-2.789,3.253-7.9,3.253-9.759,3.253
			c-1.859,0-2.788-0.93-6.971,0c-4.182,0.929-6.97,0.929-12.082,1.858c-4.589,0.834-11.796,2.792-13.222,3.183
			c-0.117,0.248-0.993,1.274-4.436,4.717c-6.041,6.041-15.335,13.476-15.335,13.476l7.435,2.788l9.07,0.336
			c0.083-0.124,0.159-0.238,0.224-0.336C81.344,93.892,81.809,91.103,81.809,91.103z"/>
		<path fill="#0A0A0B" d="M53.463,124.096c0-1.394,0.464-4.182,0.929-9.293c0.464-5.112,1.859-2.323,1.859-2.323l6.97,8.364
			l-8.365,1.394c0,0,2.324,2.323,4.182,3.718c1.859,1.394,4.647,6.505,6.971,6.505s5.112-0.464,7.9-3.253
			c2.788-2.788,0-5.112-1.394-11.153s-2.324-2.323-4.647-2.323c-1.174,0-2.111,0-3.291-0.12c-1.154-0.118-2.541-0.35-4.609-0.81
			c-4.182-0.93-1.394-4.183,0.929-6.506c2.324-2.324,4.182,0,4.182,0s3.253,2.323,4.647,2.788c1.394,0.465,3.717,1.395,3.717,1.395
			s5.112-1.395,6.041-9.294c0.02-0.167,0.035-0.32,0.05-0.476c-6.847,1.126-11.467,1.764-13.526,0.94
			c-2.323-0.929-7.9-6.97-7.9-6.97s2.324-8.83-2.788,0c-5.111,8.829-5.111,18.123-5.111,18.123s3.253,1.859,0,4.647
			s-5.112-1.395-3.253,2.788c1.858,4.182,4.182,6.97,4.182,6.97l2.324,2.84c0-0.795,0-1.877,0-3.305
			C53.463,125.026,53.463,125.491,53.463,124.096z"/>
		<path d="M184.492,6.399l3.489,1.972c1.387-0.528,2.595-1.002,3.496-1.377C191.478,6.993,188.769,6.762,184.492,6.399z"/>
		<path d="M26.689,65.38c-0.051,0.05-0.103,0.101-0.155,0.151c-0.201,0.293-0.408,0.583-0.607,0.877l-0.132,0.443
			C26.09,66.357,26.391,65.87,26.689,65.38z"/>
		<path d="M47.738,41.196c15.063-12.986,33.827-23.61,50.929-31.102c-4.852,1.614-9.749,3.419-14.26,5.374
			c-11.764,5.793-22.668,13.067-32.46,21.587C50.375,38.495,48.996,39.864,47.738,41.196z"/>
		<path d="M3.275,162.667l3.718-4.183c0,0,3.717-5.576,5.111-6.505c1.394-0.93,4.647-3.718,7.9-8.83
			c3.253-5.111,1.859-4.182,1.859-6.041c0-1.858,0.929-9.759,2.323-9.759c1.395,0,8.365,1.859,10.688,3.718
			c1.862,1.49,6.11,6.259,8.92,8.096c0.697,0.455,1.306,0.733,1.768,0.733c2.324,0,6.041-0.464,8.83-1.858
			c2.788-1.395,0.929-3.718,0.929-3.718l-1.858-2.271l-2.324-2.84c0,0-2.324-2.788-4.182-6.97c-1.859-4.183,0,0,3.253-2.788
			s0-4.647,0-4.647s0-9.294,5.111-18.123c5.112-8.83,2.788,0,2.788,0s5.577,6.041,7.9,6.97c2.059,0.824,6.679,0.187,13.526-0.94
			c0.877-0.145,1.787-0.295,2.738-0.454c8.364-1.394,1.859-2.789,1.394-6.506l-3.477-0.128l-9.07-0.336l-7.435-2.788
			c0,0,9.294-7.435,15.335-13.476c3.443-3.443,4.319-4.469,4.436-4.717c-0.163,0.044-0.254,0.07-0.254,0.07s0.343-0.256,0.254-0.07
			c1.426-0.392,8.633-2.349,13.222-3.183c5.112-0.929,7.9-0.929,12.082-1.858c4.183-0.93,5.112,0,6.971,0
			c1.858,0,6.97,0,9.759-3.253c2.788-3.253,2.323-3.718,2.323-6.506s0.465-2.788,0.465-2.788s1.394,2.323,3.717,5.111
			c1.284,1.541,4.129,1.662,7.123,1.227c2.424-0.352,4.947-1.067,6.818-1.691c3.98-1.327,1.228-5.597,0.953-6.006
			c-0.014-0.021-0.023-0.035-0.023-0.035l-0.93-4.646c0,0,1.859-2.324,1.859-3.718s0-6.971,0-11.153s2.323-3.717,2.323-3.717
			s1.859,0,8.829,0c6.971,0,8.365-1.395,11.153-5.112c2.788-3.718-3.253-6.971-3.253-6.971l1.858-4.647c0,0,1.899-0.667,4.634-1.641
			c-3.63-0.38-6.365-0.682-6.957-0.682c-2.323,0-16.265,2.788-16.265,2.788s-14.87,10.688-18.587,10.688
			c-3.718,0-38.57,12.547-38.57,12.547S67.868,59.504,66.474,60.898c-1.395,1.394-23.7,26.952-23.7,26.952l-19.052,24.629
			l-8.83,16.729c0,0-11.922,43.711-14.695,23.518l-0.169,0.567c0.046,3.147,0.176,6.274,0.412,9.373h0.977H3.275z"/>
		<path d="M14.893,129.208l8.83-16.729L42.774,87.85c0,0,22.305-25.558,23.7-26.952c1.394-1.394,26.487-21.841,26.487-21.841
			s34.853-12.547,38.57-12.547c3.717,0,18.587-10.688,18.587-10.688s13.941-2.788,16.265-2.788c0.592,0,3.327,0.302,6.957,0.682
			c10.618,1.113,28.907,2.899,23.713-0.217l-9.072-5.128l-3.489-1.972l-7.33-4.143C168.679,0.777,159.955,0,151.049,0
			c-14.916,0-29.322,2.173-42.932,6.2c-3.067,1.185-6.229,2.483-9.45,3.895C81.565,17.586,62.801,28.21,47.738,41.196
			c-1.473,1.271-2.912,2.562-4.31,3.876c-5.993,6.086-11.473,12.677-16.372,19.706c-0.123,0.199-0.245,0.401-0.368,0.602
			c-0.298,0.489-0.599,0.977-0.895,1.472c-9.984,16.675-18.47,36.341-22.86,54.454C1.014,130.923,0,140.867,0,151.049
			c0.059,0.606,0.125,1.157,0.197,1.677C2.97,172.919,14.893,129.208,14.893,129.208z"/>
		<path fill="#F6CF5D" d="M274.361,214.119c-0.057,0.043-0.109,0.085-0.168,0.129c-3.066,2.3-3.445,0.491-3.484-0.213
			c-0.008-0.151-0.001-0.252-0.001-0.252s-2.323-5.344-1.859-7.899c0.465-2.556,2.789-6.738,2.789-6.738s-5.112,0.232-7.436,0.465
			c-1.505,0.15-4.571,1.666-6.544,2.716c-1.071,0.569-1.82,1.002-1.82,1.002s0.424,1.625,0.96,3.201
			c0.437,1.279,0.947,2.526,1.363,2.84c0.506,0.38,1.907,1.795,3.081,3.19c0.644,0.768,1.21,1.523,1.528,2.105
			c0.166,0.303,0.27,0.563,0.27,0.745c0,0.356-0.22,1-0.524,1.719c-0.384,0.907-0.9,1.933-1.282,2.662
			c-0.3,0.571-0.517,0.963-0.517,0.963s-7.202,0.232-8.597,0.232s-1.162-1.859-1.162-4.183s-1.161-5.809-1.858-9.294
			c-0.697-3.484-4.183-2.091-7.9-3.252c-0.221-0.07-0.432-0.108-0.634-0.123c-0.37-0.026-0.709,0.036-1.018,0.165
			c-2.352,0.981-2.995,5.924-2.995,6.695c0,0.93-0.465,6.041-0.465,6.041s-16.729,10.456-17.193,11.851
			c-0.465,1.394-0.697,7.899-0.697,9.758c0,1.567-0.006,2.98-1.26,7.004c-0.117,0.378-0.244,0.775-0.385,1.201
			c-0.139,0.418-0.284,0.853-0.447,1.321c-2.09,6.041-2.323-0.93-3.717-1.858c-0.067-0.045-0.171-0.104-0.291-0.169
			c-1.59-0.859-7.503-3.327-11.227-4.489c-1.772-0.553-3.049-0.811-3.12-0.454c-0.232,1.162,0,8.83,0,12.547
			c0,3.718,0,6.273,0,7.668c0,1.394,1.394,7.203,1.394,7.203s1.859,5.111,2.092,6.041c0.231,0.929,0.929,6.272,0.929,6.272
			l-1.626,3.718l-1.162-1.858c0,0-6.273-11.85-6.971-12.779c-0.696-0.929-2.323,5.576-2.788,6.971
			c-0.465,1.394-6.97,2.556-9.526,2.556c-2.556,0-3.717-0.697-4.414-1.162s-2.092-13.012-2.092-13.012s-9.293,10.456-9.758,11.851
			c-0.465,1.394,0,1.858,0,1.858l5.576,8.829l-4.183,10.456c0,0-9.062,2.084-8.364,2.091c92.475,0.93,131.974-89.919,131.974-89.919
			l0.232-1.858c0,0-2.556-1.858-6.506-3.95c-3.95-2.091-2.091,1.627-2.091,1.627s0,2.323-0.697,2.788
			c-0.188,0.125-0.413,0.355-0.711,0.676C278.272,210.658,276.958,212.149,274.361,214.119z M270.011,232.525l-10.224,0.311
			l-8.055,10.533l3.408,4.646h6.506c0,0-4.957,7.436-8.675,7.436c-3.717,0-9.604-0.31-9.604-0.31s-1.238-1.55-1.238,5.266
			c0,6.816-14.871,13.322-14.871,13.322l-9.604-11.463l-1.238-11.463l10.843-3.408c0,0,4.647-1.238,5.576-1.858
			c0.93-0.619,3.718-7.435,3.718-7.435l5.267-6.815c0,0,8.055-2.169,9.913-3.098c1.859-0.93,13.632-4.958,15.801-4.647
			c2.168,0.31,10.223,5.266,10.223,5.266L270.011,232.525z"/>
		<path fill="#D46CA1" d="M86.301,243.678l8.984-1.859l-5.576-5.576c0,0-7.435,0.93-8.675,0.93c-0.596,0-4.997,0.789-9.401,1.608
			c-4.746,0.883-9.496,1.8-9.496,1.8l-15.8,1.238l-1.243-1.078l-10.53-9.145l-0.332-0.562l-3.386-0.678l-2.168,1.55l-3.144-0.263
			l0.046,2.121l0.023,0.027l4.369,5.14l6.141,7.225l2.596,2.597l7.008,7.007l23.854-2.788l4.588-6.884l1.607-2.41H86.301z
			 M55.712,250.677l-3.485,2.788l-8.364-2.788l-6.273-6.273l2.091-1.394l0.403,0.179l5.87,2.609h6.97l4.879,1.394l8.365,0.697
			L55.712,250.677z"/>
		<path fill="#D46CA1" d="M26.886,218.585h-1.305l0.619,6.815c0,0,2.169,0.619,3.098,0.619c0.731,0,2.415,1.337,3.103,1.91
			L26.886,218.585z"/>
		<path fill="#D46CA1" d="M125.955,255.76c0.929,0,3.408,0,3.408,0l-6.692-6.388l-0.124-0.118l-0.31,0.62l-1.549,7.744l-4.338,1.55
			l7.745,4.646c0,0,0.634-5.489,1.378-7.403C125.631,256.009,125.793,255.76,125.955,255.76z"/>
		<path fill="#D46CA1" d="M135.751,261.656l-0.502,4.019l-4.027,1.549l-1.243-0.903l-0.313-0.229l-1.851-1.347
			c0,0,3.408,13.322,4.337,14.87c0.93,1.55,4.957,8.984,4.957,8.984l0.619,0.31l-2.168,2.168l3.098,3.718
			c0,0,0.929-0.31,1.859,0.311c0.929,0.619,9.604,1.239,9.604,1.239l2.788-5.576c0,0,0-4.027,0-6.816
			c0-2.787-6.195-16.729-6.195-16.729s-2.169-7.436-2.479-8.364c-0.31-0.93-4.337-4.647-4.337-4.647l-4.027,6.506L135.751,261.656z"
			/>
		<path fill="#D46CA1" d="M176.143,178.931l-3.177,0.227l-1.16,0.083l-0.311,1.858l0.619,4.544l2.169,2.892l1.115,1.115l0.744,0.434
			h1.239c0,0,1.549,1.239,1.549,0c0-0.063-0.009-0.152-0.022-0.257c-0.043-0.335-0.151-0.87-0.303-1.532
			C177.87,185.077,176.143,178.931,176.143,178.931z"/>
		<path fill="#F6D227" d="M251.732,228.189c-1.858,0.929-9.913,3.098-9.913,3.098l-5.267,6.815c0,0-2.788,6.815-3.718,7.435
			c-0.929,0.62-5.576,1.858-5.576,1.858l-10.843,3.408l1.238,11.463l9.604,11.463c0,0,14.871-6.506,14.871-13.322
			c0-6.815,1.238-5.266,1.238-5.266s5.887,0.31,9.604,0.31c3.718,0,8.675-7.436,8.675-7.436h-6.506l-3.408-4.646l8.055-10.533
			l10.224-0.311l7.745-3.718c0,0-8.055-4.956-10.223-5.266C265.364,223.231,253.592,227.259,251.732,228.189z"/>
		<polygon fill="#A02322" points="52.924,245.798 45.954,245.798 40.084,243.189 39.681,243.01 37.59,244.404 43.863,250.677 
			52.227,253.465 55.712,250.677 66.167,247.889 57.803,247.192 		"/>
		<path fill="#A02322" d="M30.847,230.357l3.386,0.678l1.261,0.252c0,0,2.479,0.929,3.408,0.929c0.93,0,5.886-0.309,5.886-0.309
			l2.479,0.618l1.549,0.311l-4.027-3.099l-2.479-0.31h-4.337l-4.453-1.047l-0.813-0.191c0,0-0.118-0.103-0.305-0.259
			c-0.688-0.573-2.372-1.91-3.103-1.91c-0.929,0-3.098-0.619-3.098-0.619l-0.619-6.815h1.305h2.413l-1.859-5.887l-1.386-1.387
			l-2.641-2.641l-0.108,2.157l-0.17,3.407l-0.032,0.632l0.93,7.744l0.214,1.357l0.715,4.529v3.098l0.573,0.048l3.144,0.263
			L30.847,230.357z"/>
		<path fill="#A02322" d="M162.82,159.104l0.62,0.619c0,0,0.62,1.549,0.62,2.788s-1.549,1.858-1.549,1.858v0.93c0,0,0,2.169,0,3.408
			s-0.311,4.956-0.311,4.956l-0.31,5.577l-1.549,4.337l-1.239-1.858l-0.62-4.957h-1.239c0,0,0,1.239-0.619,2.169
			c-0.619,0.929-1.858,4.026-1.858,4.026v2.17l0.31,4.336l2.168,8.056l1.239-0.31l-0.31-4.338l-0.93-4.337l2.479,0.619l0.31,1.239
			v5.267l0.311,3.718l4.646-3.408l1.239-0.619c0,0,0.62-5.267,0.62-6.815c0-1.55,1.549,0.311,1.549,0.311l4.957,3.717l4.646-0.311
			l-2.603-2.602l-1.115-1.115l-2.169-2.892l-0.619-0.826c0,0-2.479-4.337-2.788-5.576s-3.098-4.027-3.098-4.027l0.31-6.196
			l3.098,0.93l2.789,6.506c0,0,0-0.789,0-1.942c0-2.813,0-7.802,0-8.9c0-1.549-0.93-3.408-0.93-3.408s-2.336-1.869-3.762-2.969
			c-0.217-0.167-0.413-0.316-0.576-0.439c-0.488-0.365-0.781-0.924-0.961-1.467c-0.276-0.834-0.277-1.631-0.277-1.631l-0.532-0.958
			l-1.018-1.83l-5.886-2.168c0,0-3.098,0-4.027,0s0,1.858,0,1.858l2.169,1.859l0.723,0.492L162.82,159.104z"/>
		<path fill="#A02322" d="M151.668,210.839c0,0-0.31-0.929,0.62-0.929s3.098-1.239,3.098-1.239l0.62-3.718l1.858-0.31h1.858
			l1.549,0.93c0,0-0.929,2.478-0.929,3.407s-0.62,3.099-0.62,3.099l0.62,1.548l2.478-0.309l-1.238,3.717c0,0-2.479,0.31-1.239,1.239
			c1.239,0.929,5.267-1.548,5.267-1.548l2.479-4.958l0.31-1.548v-2.479l-1.239-1.238l-0.62-1.859l-2.478-0.929h-1.859l-1.549-1.55
			l-4.027,0.93l-2.169,0.31l-0.929-2.478v-1.55l-0.93-1.858l-2.479,4.337l-0.929,0.619l3.717,2.479v1.859l-4.957,0.929l-2.419,2.117
			l-0.06,0.052l-0.929,3.717l0.073,0.01l4.884,0.61L151.668,210.839z"/>
		<path fill="#A02322" d="M231.906,186.986l-6.506-2.169l-3.407,0.93l-6.197,5.576h-2.788c0,0,3.098,5.576,4.646,5.576
			c1.55,0,4.958-2.479,6.197-2.788s2.788-1.859,2.788-1.859l3.407,3.099l3.098-3.099L231.906,186.986z"/>
	</g>
</g>
</svg>
