<?xml version="1.0" encoding="utf-8"?>
<!-- Generator: Adobe Illustrator 12.0.0, SVG Export Plug-In . SVG Version: 6.00 Build 51448)  -->
<!DOCTYPE svg PUBLIC "-//W3C//DTD SVG 1.1//EN" "http://www.w3.org/Graphics/SVG/1.1/DTD/svg11.dtd" [
	<!ENTITY ns_svg "http://www.w3.org/2000/svg">
	<!ENTITY ns_xlink "http://www.w3.org/1999/xlink">
]>
<svg  version="1.1" xmlns="&ns_svg;" xmlns:xlink="&ns_xlink;" width="285.258" height="285.258" viewBox="0 0 285.258 285.258"
	 overflow="visible" enable-background="new 0 0 285.258 285.258" xml:space="preserve">
<g id="Layer_3">
</g>
<g id="Layer_2">
	<g>
		<path fill="#69744E" d="M142.629,0c-4.148,0-8.254,0.179-12.313,0.526c0.467,0.054,0.907,0.138,1.3,0.269
			c2.331,0.777,6.217-0.777,10.88,0.777c4.663,1.555,3.886,0,10.88,3.886c6.995,3.886,7.771,6.217,17.875,7.772
			c10.104,1.554,10.88,0,13.212,1.554c2.331,1.554,4.663,0,10.88,3.886c6.218,3.886,10.104,6.995,12.435,7.771
			c2.332,0.777,0.777,1.554,4.663,3.109c3.886,1.554,13.989,6.217,13.989,6.217l7.771,6.217c0,0,4.663,4.663,7.771,7.771
			s6.994,12.435,7.771,14.767c0.777,2.331,2.332,7.771,4.663,10.88c2.332,3.109,2.332,3.886,4.663,9.326
			c2.332,5.44,1.555,5.44,4.663,11.657c3.108,6.218,3.108,6.218,3.886,10.103c0.777,3.886,0.777,3.886,0.777,8.549
			s-2.331,9.326,0,12.435c2.332,3.108,3.886,12.435,3.886,12.435s2.332,6.994,2.332,10.104c0,3.108,0,5.439,0,10.103
			s0,17.098,0,17.098l-3.109,10.881l-5.439,8.549l-3.886,7.771l-8.549,9.325l-16.321,14.767l-7.771,8.549l-16.32,16.32
			c-5.44,3.109-23.314,7.772-23.314,7.772l-5.44,3.108l-18.652,8.549l-17.875-1.555c0,0-13.211-0.777-17.097-0.777
			s-17.875-3.108-17.875-3.108s-8.887-4.848-15.303-7.553c-1.768-0.521-3.748-1.14-5.721-1.773
			c-3.883-0.006-9.293-0.777-11.617-0.777c-2.332,0-21.761,0-21.761,0h-0.815c23.718,17.592,53.083,27.999,84.881,27.999
			c78.771,0,142.628-63.857,142.628-142.629C285.258,63.857,221.4,0,142.629,0z"/>
		<path fill="#748963" d="M80.324,257.259c2.323,0,7.734,0.771,11.617,0.777c-5.841-1.877-11.617-3.886-11.617-3.886
			s-8.549-2.331-13.212-2.331s-10.104-2.332-13.989-2.332c-1.381,0-3.746-0.491-6.218-1.124c3.464,3.138,7.083,6.106,10.844,8.896
			h0.815C58.563,257.259,77.992,257.259,80.324,257.259z"/>
		<path fill="#748963" d="M95.867,9.344c0,0-1.755,0-1.768,0C94.112,9.344,95.867,9.344,95.867,9.344c0.995,0,2.486,0,4.663,0
			c10.88,0,14.766,0,19.429,0s13.212,0,13.212,0s6.217,0,10.88,2.332c4.663,2.332,12.435,2.332,12.435,2.332l6.218,1.554
			c0,0,3.108,3.109,9.326,6.995c6.217,3.886,13.988,7.771,13.988,7.771c0.194,0,0.777,0,2.332,0c3.108,0,10.88,0,10.88,0
			l3.887,1.555l10.88,6.995c0,0-3.108-1.555,4.663,3.108s8.549,3.886,11.657,7.771s8.549,12.435,8.549,12.435
			s-0.777-0.777,2.332,6.994c3.108,7.772,13.988,25.646,13.988,25.646l3.886,16.32l2.332,16.321c0,0,3.886,5.44,4.663,10.103
			c0.776,4.663,0.776,20.207,0.776,20.207l-7.771,16.32v20.206l-6.994,3.886c0,0-4.663,3.886-6.218,6.218
			c-1.484,2.227-5.803,5.87-6.187,6.191c0.018,0.005-0.404,0.544-5.471,6.243c-6.217,6.994-13.988,13.212-13.988,13.212
			l-6.218,5.439c0,0-6.218,3.109-10.104,5.44c-3.886,2.332-13.212,8.549-13.212,8.549l-17.874,10.104l-10.104,6.994l-15.543,0.777
			l-24.87-1.555c0,0-14.766-3.886-19.429-4.662c-1.117-0.187-2.994-0.686-5.2-1.336c6.416,2.705,15.303,7.553,15.303,7.553
			s13.989,3.108,17.875,3.108s17.097,0.777,17.097,0.777l17.875,1.555l18.652-8.549l5.44-3.108c0,0,17.874-4.663,23.314-7.772
			l16.32-16.32l7.771-8.549l16.321-14.767l8.549-9.325l3.886-7.771l5.439-8.549l3.109-10.881c0,0,0-12.435,0-17.098
			s0-6.994,0-10.103c0-3.109-2.332-10.104-2.332-10.104s-1.554-9.326-3.886-12.435c-2.331-3.108,0-7.771,0-12.435
			s0-4.663-0.777-8.549c-0.777-3.885-0.777-3.885-3.886-10.103c-3.108-6.217-2.331-6.217-4.663-11.657
			c-2.331-5.44-2.331-6.217-4.663-9.326c-2.331-3.108-3.886-8.549-4.663-10.88c-0.777-2.332-4.663-11.658-7.771-14.767
			s-7.771-7.771-7.771-7.771l-7.771-6.217c0,0-10.104-4.663-13.989-6.217c-3.886-1.555-2.331-2.332-4.663-3.109
			c-2.331-0.777-6.217-3.886-12.435-7.771c-6.217-3.886-8.549-2.332-10.88-3.886c-2.332-1.554-3.108,0-13.212-1.554
			c-10.104-1.555-10.88-3.886-17.875-7.772c-6.994-3.886-6.217-2.331-10.88-3.886c-4.663-1.554-8.549,0-10.88-0.777
			c-0.393-0.131-0.833-0.215-1.3-0.269c-18.82,1.609-36.598,6.871-52.619,15.077c1.249-0.217,2.405-0.486,3.403-0.819
			C88.095,12.453,95.867,9.344,95.867,9.344z"/>
		<path fill="none" stroke="#89986C" stroke-width="0" stroke-linecap="round" stroke-linejoin="round" d="M95.867,9.344
			c0,0-1.755,0-1.768,0"/>
		<path fill="#89986C" d="M67.112,251.82c4.663,0,13.212,2.331,13.212,2.331s5.775,2.009,11.617,3.886
			c1.973,0.634,3.953,1.252,5.721,1.773c2.206,0.65,4.083,1.149,5.2,1.336c4.663,0.776,19.429,4.662,19.429,4.662l24.87,1.555
			l15.543-0.777l10.104-6.994l17.874-10.104c0,0,9.326-6.217,13.212-8.549c3.886-2.331,10.104-5.44,10.104-5.44l6.218-5.439
			c0,0,7.771-6.218,13.988-13.212c5.066-5.699,5.488-6.238,5.471-6.243c0.384-0.321,4.702-3.965,6.187-6.191
			c1.555-2.332,6.218-6.218,6.218-6.218l6.994-3.886v-20.206l7.771-16.32c0,0,0-15.543-0.776-20.207
			c-0.777-4.663-4.663-10.103-4.663-10.103l-2.332-16.321l-3.886-16.32c0,0-10.88-17.875-13.988-25.646
			c-3.109-7.771-2.332-6.994-2.332-6.994s-5.44-8.549-8.549-12.435s-3.886-3.108-11.657-7.771s-4.663-3.108-4.663-3.108
			l-10.88-6.995l-3.887-1.555c0,0-7.771,0-10.88,0c-1.555,0-2.138,0-2.332,0c0,0-7.771-3.886-13.988-7.771
			c-6.218-3.886-9.326-6.995-9.326-6.995l-6.218-1.554c0,0-7.771,0-12.435-2.332c-4.663-2.332-10.88-2.332-10.88-2.332
			s-8.549,0-13.212,0s-8.549,0-19.429,0c-2.177,0-3.668,0-4.663,0c0,0-7.771,3.109-14.766,5.44
			c-0.998,0.333-2.155,0.602-3.403,0.819C43.379,33.181,17.119,64.258,5.922,101.827c3.741,0,6.788,0,6.788,0l6.217-13.212
			c0,0,3.109-3.109,4.663-6.217s6.995-8.549,9.326-13.212c2.332-4.663,3.886-10.88,6.217-13.212
			c2.332-2.332,4.663-10.103,4.663-10.103l5.44-4.663c0,0,3.109-3.886,6.995-8.549c3.886-4.663,5.44-10.103,17.098-12.435
			s16.32-4.663,16.32-4.663s0.777-1.554,6.995-1.554s10.88,0,15.543,0s1.554,0,13.211,0c11.658,0,23.315,0,23.315,0l6.218,2.332
			c0,0,0,0.777,3.886,2.332s7.771,3.109,7.771,3.109s-2.332,0,5.44,5.44c7.771,5.44,6.217,4.663,14.766,7.771
			c8.549,3.109,13.212,3.886,13.212,3.886l4.663,0.777l6.994,1.555c0,0,3.109,0.777,4.663,4.663
			c1.555,3.886,5.44,10.103,7.772,12.435c2.331,2.332,4.662,7.771,4.662,7.771s1.555-1.554,1.555,5.44
			c0,6.995,0.777,11.658,0.777,11.658l2.331,3.108c0,0,3.108,3.886,6.218,5.44c3.108,1.554,3.108,1.554,4.663,6.994
			c1.554,5.44,1.554,6.995,1.554,11.658s0,10.103,0,10.103s1.555-2.332-0.777,6.217c-2.331,8.549-3.108,10.88-3.885,16.32
			c-0.777,5.44-0.777,10.881-0.777,14.767s0,3.886,0,8.549s3.108,0-0.777,9.326c-3.886,9.325-6.218,14.766-9.326,18.651
			s-8.549,9.326-8.549,9.326s-3.108,3.108-6.217,7.771c-3.109,4.663-7.772,8.549-7.772,8.549s-9.325,8.549-11.657,10.104
			c-2.331,1.555-6.217,3.886-6.217,3.886l-14.767,3.886l-17.098,2.331l-8.549,3.886c0,0-6.217,2.332-10.88,4.663
			c-4.663,2.332-7.771,2.332-18.652,3.109c-10.88,0.776-27.201,0.776-31.086,0.776s-15.543-5.439-17.875-6.217
			s-6.217-6.995-10.88-8.549c-4.663-1.555-17.098-10.88-17.098-10.88s-3.886-3.109-6.217-3.109s-9.326-2.331-12.435-2.331
			c-0.186,0-0.39-0.012-0.607-0.033c6.58,9.901,14.364,18.934,23.144,26.887c2.473,0.633,4.837,1.124,6.218,1.124
			C57.008,249.488,62.449,251.82,67.112,251.82z"/>
		<path fill="#ACBB8D" d="M36.802,223.841c2.332,0,6.217,3.109,6.217,3.109s12.435,9.325,17.098,10.88
			c4.663,1.554,8.549,7.771,10.88,8.549s13.989,6.217,17.875,6.217s20.206,0,31.086-0.776c10.88-0.777,13.989-0.777,18.652-3.109
			c4.663-2.331,10.88-4.663,10.88-4.663l8.549-3.886l17.098-2.331l14.767-3.886c0,0,3.886-2.331,6.217-3.886
			c2.332-1.555,11.657-10.104,11.657-10.104s4.663-3.886,7.772-8.549c3.108-4.663,6.217-7.771,6.217-7.771s5.44-5.44,8.549-9.326
			s5.44-9.326,9.326-18.651c3.886-9.326,0.777-4.663,0.777-9.326s0-4.663,0-8.549s0-9.326,0.777-14.767
			c0.776-5.44,1.554-7.771,3.885-16.32c2.332-8.549,0.777-6.217,0.777-6.217s0-5.44,0-10.103s0-6.217-1.554-11.658
			c-1.555-5.44-1.555-5.44-4.663-6.994c-3.109-1.555-6.218-5.44-6.218-5.44l-2.331-3.108c0,0-0.777-4.663-0.777-11.658
			c0-6.994-1.555-5.44-1.555-5.44s-2.331-5.44-4.662-7.771c-2.332-2.332-6.218-8.549-7.772-12.435
			c-1.554-3.886-4.663-4.663-4.663-4.663l-6.994-1.555l-4.663-0.777c0,0-4.663-0.777-13.212-3.886
			c-8.549-3.108-6.994-2.332-14.766-7.771c-7.772-5.44-5.44-5.44-5.44-5.44s-3.886-1.555-7.771-3.109s-3.886-2.332-3.886-2.332
			l-6.218-2.332c0,0-11.657,0-23.315,0c-11.657,0-8.548,0-13.211,0s-9.326,0-15.543,0s-6.995,1.554-6.995,1.554
			s-4.663,2.332-16.32,4.663s-13.212,7.771-17.098,12.435c-3.886,4.664-6.995,8.549-6.995,8.549l-5.44,4.663
			c0,0-2.332,7.771-4.663,10.103c-2.332,2.332-3.886,8.549-6.217,13.212c-2.332,4.663-7.772,10.104-9.326,13.212
			s-4.663,6.217-4.663,6.217l-6.217,13.212c0,0-3.047,0-6.788,0c-0.817,2.742-1.553,5.519-2.207,8.327l2.778-0.556
			c0,0,3.108,6.217,6.217,1.554s5.44-9.326,8.549-12.435c3.109-3.108,7.772-11.657,10.104-13.989s7.771-11.658,10.103-14.766
			c2.332-3.109,3.109-10.88,5.44-13.989c2.332-3.108,3.108-3.886,6.217-6.994c3.109-3.109,7.772-5.44,7.772-5.44
			s3.109-3.109,7.771-6.995c4.663-3.886,14.766-12.434,14.766-12.434l6.217-1.555c0,0,12.435,0,15.543,0s17.098-0.777,27.978-1.554
			c10.88-0.777,18.651-0.777,18.651-0.777s-0.776-1.554,3.887,0c4.663,1.555,9.325,5.44,13.211,7.771
			c3.887,2.332,5.44,3.109,7.772,4.663c2.331,1.555,5.439,3.886,5.439,3.886l8.549,4.664c0,0,8.549,4.663,10.881,4.663
			c2.331,0,7.771,1.554,10.103,3.886c2.332,2.332,3.887,0.777,6.218,10.104c2.332,9.326,5.44,17.875,5.44,17.875l2.331,4.663
			c0,0,0.777,3.108,4.663,5.44s3.886,2.332,3.886,2.332s5.44,5.44,5.44,7.771c0,2.332,2.331,4.664-0.777,11.658
			c-3.108,6.995-3.108,10.88-3.108,10.88s0,3.886,0,6.995s0,5.44,0,11.657c0,6.218,1.554,13.212,1.554,16.32s0,16.321,0,16.321
			s-8.549,14.766-10.88,16.32c-2.331,1.554-7.771,4.663-10.104,5.439c-2.331,0.777-6.217,1.555-8.549,4.663
			c-2.331,3.109-9.325,9.326-11.657,11.657c-2.331,2.332-4.663,4.663-9.326,6.995c-4.663,2.331-17.875,6.217-20.206,7.771
			s-1.554,2.332-8.549,3.886c-6.994,1.555-24.092,9.326-26.423,10.104c-2.332,0.776-10.88,2.331-13.212,2.331s-12.435,0-15.543,0
			s-16.32-3.108-16.32-3.108s-13.212-5.44-16.321-6.994c-3.108-1.555-12.435-6.995-12.435-6.995l-9.326-4.663l-15.543-9.326
			l-4.663-3.108c0,0-3.109-1.554-5.44-3.886c-2.207-2.207-10.677-4.412-11.575-4.642c3.461,8.172,7.665,15.952,12.522,23.261
			c0.217,0.021,0.421,0.033,0.607,0.033C27.476,221.51,34.471,223.841,36.802,223.841z"/>
		<path fill="#BFD384" d="M28.253,206.744l4.663,3.108l15.543,9.326l9.326,4.663c0,0,9.326,5.44,12.435,6.995
			c3.109,1.554,16.321,6.994,16.321,6.994s13.212,3.108,16.32,3.108s13.212,0,15.543,0s10.88-1.555,13.212-2.331
			c2.332-0.777,19.429-8.549,26.423-10.104c6.995-1.554,6.218-2.331,8.549-3.886s15.543-5.44,20.206-7.771
			c4.663-2.332,6.995-4.663,9.326-6.995c2.332-2.331,9.326-8.548,11.657-11.657c2.332-3.108,6.218-3.886,8.549-4.663
			c2.332-0.776,7.772-3.886,10.104-5.439c2.331-1.555,10.88-16.32,10.88-16.32s0-13.213,0-16.321s-1.554-10.103-1.554-16.32
			c0-6.217,0-8.549,0-11.657s0-6.995,0-6.995s0-3.886,3.108-10.88c3.108-6.994,0.777-9.326,0.777-11.658
			c0-2.331-5.44-7.771-5.44-7.771s0,0-3.886-2.332s-4.663-5.44-4.663-5.44l-2.331-4.663c0,0-3.108-8.549-5.44-17.875
			c-2.331-9.326-3.886-7.772-6.218-10.104c-2.331-2.332-7.771-3.886-10.103-3.886c-2.332,0-10.881-4.663-10.881-4.663l-8.549-4.664
			c0,0-3.108-2.331-5.439-3.886c-2.332-1.554-3.886-2.332-7.772-4.663c-3.886-2.331-8.548-6.217-13.211-7.771
			c-4.663-1.554-3.887,0-3.887,0s-7.771,0-18.651,0.777c-10.88,0.777-24.87,1.554-27.978,1.554s-15.543,0-15.543,0l-6.217,1.555
			c0,0-10.103,8.548-14.766,12.434c-4.663,3.886-7.771,6.995-7.771,6.995s-4.663,2.331-7.772,5.44
			c-3.109,3.108-3.886,3.886-6.217,6.994c-2.331,3.109-3.108,10.88-5.44,13.989c-2.332,3.108-7.771,12.435-10.103,14.766
			s-6.995,10.88-10.104,13.989c-3.108,3.109-5.44,7.771-8.549,12.435s-6.217-1.554-6.217-1.554l-2.778,0.556
			C1.286,120.586,0,131.458,0,142.629c0,19.72,4.002,38.504,11.238,55.587c0.898,0.229,9.368,2.435,11.575,4.642
			C25.145,205.19,28.253,206.744,28.253,206.744z M18.927,169.44l2.332-6.994l-10.88-2.332c0,0,0-6.217,0-9.325
			c0-3.109,1.554-7.772,1.554-11.658s-2.332-10.103,1.554-16.32l10.88-13.989l9.326-13.989c0,0,6.217-9.326,8.549-10.88
			c2.332-1.555,9.326-9.326,11.657-12.435s6.218-15.543,10.104-19.429c3.885-3.886,2.331-9.326,9.326-10.88
			c6.358-1.413,13.356-3.467,14.578-3.83c-8.086,1.047,0.188-0.056,0.188-0.056s-0.066,0.02-0.188,0.056
			c1.511-0.196,3.592-0.466,6.406-0.833c17.875-2.331,30.31-6.994,30.31-6.994h6.217c0,0,3.886,0,11.658,1.554
			c7.771,1.554,14.766,0.777,20.206,4.663c5.44,3.886,3.108,2.332,10.88,5.44c7.772,3.108,8.55,3.108,14.767,6.217
			s8.549,10.104,12.435,13.212c3.886,3.109,9.326,5.44,12.435,11.658c3.108,6.217,6.218,12.435,6.995,14.766
			c0.776,2.332,0.776,0,4.662,6.217s5.44,5.44,5.44,10.103c0,4.663-3.108,17.875-3.108,17.875v8.549c0,0,0,5.44,0,10.88
			s0,7.771-2.332,13.212c-2.331,5.439-4.662,8.549-6.994,13.988c-2.331,5.44-6.994,14.767-6.994,14.767s-3.887,8.549-6.218,13.212
			s0,3.108-6.994,6.994c-6.995,3.886-10.881,3.886-16.32,6.994c-5.44,3.109-10.881,1.555-19.43,4.663
			c-8.549,3.109-3.108,0.777-16.32,6.995c-13.212,6.217-12.435,6.994-17.875,9.326c-5.44,2.331-7.771,3.885-7.771,3.885
			s-6.217,0.777-13.212-0.776c-6.994-1.555-25.646-9.326-25.646-9.326l-19.429-8.549l-15.543-6.218l-4.663-3.108l-11.658-11.657
			l-6.217-9.326l-1.554-6.218L18.927,169.44z"/>
		<path fill="#B8CEA3" d="M29.808,195.086l11.658,11.657l4.663,3.108l15.543,6.218l19.429,8.549c0,0,18.652,7.771,25.646,9.326
			c6.995,1.554,13.212,0.776,13.212,0.776s2.332-1.554,7.771-3.885c5.44-2.332,4.663-3.109,17.875-9.326
			c13.212-6.218,7.771-3.886,16.32-6.995c8.549-3.108,13.989-1.554,19.43-4.663c5.439-3.108,9.325-3.108,16.32-6.994
			c6.994-3.886,4.663-2.331,6.994-6.994s6.218-13.212,6.218-13.212s4.663-9.326,6.994-14.767c2.332-5.439,4.663-8.549,6.994-13.988
			c2.332-5.44,2.332-7.771,2.332-13.212s0-10.88,0-10.88v-8.549c0,0,3.108-13.212,3.108-17.875c0-4.663-1.555-3.886-5.44-10.103
			s-3.886-3.886-4.662-6.217c-0.777-2.332-3.887-8.549-6.995-14.766c-3.108-6.218-8.549-8.549-12.435-11.658
			c-3.886-3.108-6.218-10.103-12.435-13.212s-6.994-3.108-14.767-6.217c-7.771-3.109-5.439-1.555-10.88-5.44
			c-5.44-3.886-12.435-3.109-20.206-4.663c-7.772-1.554-11.658-1.554-11.658-1.554h-6.217c0,0-12.435,4.663-30.31,6.994
			c-2.814,0.367-4.895,0.638-6.406,0.833c-1.222,0.363-8.22,2.417-14.578,3.83c-6.995,1.554-5.44,6.994-9.326,10.88
			c-3.886,3.886-7.772,16.32-10.104,19.429s-9.326,10.88-11.657,12.435c-2.332,1.554-8.549,10.88-8.549,10.88l-9.326,13.989
			l-10.88,13.989c-3.886,6.217-1.554,12.435-1.554,16.32s-1.554,8.549-1.554,11.658c0,3.108,0,9.325,0,9.325l10.88,2.332
			l-2.332,6.994l3.109,10.103l1.554,6.218L29.808,195.086z M20.482,153.897c0,0,0-3.108,0-7.771c0-4.664-2.332-9.327-2.332-9.327
			l-2.332-8.549l0.777-5.44l5.44-3.886l6.995-6.217l12.435-11.658c0,0,6.995-9.326,13.989-16.32
			c6.995-6.995,11.658-9.326,17.098-15.543c5.44-6.217,8.549-5.44,13.212-8.549c4.663-3.108,7.771-3.886,13.212-5.44
			s18.652-3.886,18.652-3.886s9.326,0,13.212,0s10.103,0.777,10.103,0.777l19.43,2.332c0,0,13.988,6.217,16.32,6.995
			c2.331,0.777,15.543,12.435,15.543,12.435l10.104,10.88c0,0,3.886,10.88,4.662,13.211c0.777,2.332,6.995,18.652,6.995,18.652
			l0.777,6.217v10.88v18.652v10.88c0,0-3.109,3.887-4.663,6.218c-1.555,2.332-3.886,3.108-8.549,7.771s-5.44,6.994-13.989,12.435
			s-8.549,5.44-11.657,6.218s-6.218,1.554-11.657,3.886c-5.44,2.331-11.658,6.994-14.767,6.994s-10.88,0-14.766,0
			s-13.212-1.555-27.978-2.331c-14.766-0.777-6.217-3.108-6.217-3.108s-5.44-0.777-10.88-0.777c-5.44,0-10.88,0-10.88,0h-6.218
			c0,0-10.103-1.555-13.989-3.886c-3.886-2.332-3.886-3.886-6.217-5.44s-5.44,0-5.44,0l-4.663-3.108l-2.332-9.326l-16.321-7.771
			l8.549-4.663l-0.777-4.663l-3.109-0.777h-3.886L20.482,153.897z"/>
		<path fill="#B8CEA3" d="M87.907,37.378c0.123-0.036,0.188-0.056,0.188-0.056S79.82,38.425,87.907,37.378z"/>
		<path fill="#CEE1B4" d="M28.253,160.891l3.109,0.777l0.777,4.663l-8.549,4.663l16.321,7.771l2.332,9.326l4.663,3.108
			c0,0,3.109-1.555,5.44,0s2.332,3.108,6.217,5.44c3.886,2.331,13.989,3.886,13.989,3.886h6.218c0,0,5.44,0,10.88,0
			c5.44,0,10.88,0.777,10.88,0.777s-8.549,2.331,6.217,3.108c14.766,0.776,24.092,2.331,27.978,2.331s11.658,0,14.766,0
			s9.326-4.663,14.767-6.994c5.439-2.332,8.549-3.108,11.657-3.886s3.108-0.777,11.657-6.218s9.326-7.771,13.989-12.435
			s6.994-5.439,8.549-7.771c1.554-2.331,4.663-6.218,4.663-6.218v-10.88V133.69v-10.88l-0.777-6.217c0,0-6.218-16.32-6.995-18.652
			c-0.776-2.331-4.662-13.211-4.662-13.211l-10.104-10.88c0,0-13.212-11.657-15.543-12.435c-2.332-0.777-16.32-6.995-16.32-6.995
			l-19.43-2.332c0,0-6.217-0.777-10.103-0.777s-13.212,0-13.212,0s-13.211,2.332-18.652,3.886s-8.549,2.332-13.212,5.44
			c-4.663,3.109-7.771,2.332-13.212,8.549c-5.44,6.217-10.103,8.549-17.098,15.543c-6.994,6.995-13.989,16.32-13.989,16.32
			l-12.435,11.658l-6.995,6.217l-5.44,3.886l-0.777,5.44l2.332,8.549c0,0,2.332,4.663,2.332,9.327c0,4.663,0,7.771,0,7.771
			l3.886,6.994H28.253z M50.014,113.484l1.554-2.332l3.886-6.217c0,0,2.332-7.771,9.326-15.543s5.44-6.217,12.435-10.88
			s7.772-3.109,17.875-6.217c10.103-3.109,22.538-3.109,25.646-4.664c3.108-1.554,12.435-3.885,12.435-3.885l16.32-3.886
			l3.108,4.663c0,0,13.212,14.766,18.652,15.543c5.44,0.777,11.657,4.663,11.657,4.663l2.332,10.88c0,0,4.663,0,10.88,0
			c6.218,0,6.995,16.32,6.995,16.32s0,6.995,0,9.326s-2.332,14.766-3.887,22.538c-1.554,7.771-2.331,6.995-3.108,11.657
			c-0.777,4.663-3.108,5.44-5.44,7.771c-2.331,2.332-3.108,15.544-3.108,15.544s-5.44,3.108-8.549,4.663
			c-3.108,1.554-22.538,12.435-29.532,11.657s-5.44-2.331-14.766-6.218c-9.326-3.886-14.766,0-24.092,0
			c-9.326,0-16.32,2.332-20.206,1.555c-3.886-0.776-10.103-6.218-13.989-13.212s-0.777-5.439-0.777-5.439s-5.44-5.44-8.549-7.772
			c-3.108-2.331-2.332-3.886-6.217-6.994s-3.886-3.108-6.995-6.994c-3.108-3.886-5.44-14.767-5.44-14.767l-0.777-7.771
			L50.014,113.484z"/>
		<path fill="#DBEDD5" d="M53.9,150.011c3.109,3.886,3.109,3.886,6.995,6.994s3.109,4.663,6.217,6.994
			c3.108,2.332,8.549,7.772,8.549,7.772s-3.108-1.555,0.777,5.439s10.103,12.436,13.989,13.212
			c3.886,0.777,10.88-1.555,20.206-1.555c9.326,0,14.767-3.886,24.092,0c9.326,3.887,7.772,5.44,14.766,6.218
			s26.424-10.104,29.532-11.657c3.108-1.555,8.549-4.663,8.549-4.663s0.777-13.212,3.108-15.544c2.332-2.331,4.663-3.108,5.44-7.771
			c0.777-4.662,1.555-3.886,3.108-11.657c1.555-7.771,3.887-20.206,3.887-22.538s0-9.326,0-9.326s-0.777-16.32-6.995-16.32
			c-6.217,0-10.88,0-10.88,0l-2.332-10.88c0,0-6.217-3.886-11.657-4.663c-5.44-0.777-18.652-15.543-18.652-15.543l-3.108-4.663
			l-16.32,3.886c0,0-9.326,2.331-12.435,3.885c-3.109,1.555-15.543,1.555-25.646,4.664c-10.103,3.108-10.88,1.554-17.875,6.217
			s-5.44,3.109-12.435,10.88s-9.326,15.543-9.326,15.543l-3.886,6.217l-1.554,2.332l-2.332,13.989l0.777,7.771
			C48.46,135.245,50.792,146.125,53.9,150.011z M100.53,136.022c0,0,0,0,0-2.332s3.886-3.886,9.326-7.772
			c5.44-3.886,5.44-5.44,5.44-5.44s3.109-1.554,7.771-3.886c4.663-2.332,3.886-0.777,7.772-2.332s2.332-0.777,3.886-3.109
			c1.555-2.332,8.549-1.554,10.88-1.554c2.331,0,4.663,7.772,4.663,7.772l6.994,4.663c0,0,6.218,0,10.881,0
			s11.657,7.771,11.657,7.771l3.886,6.217l-3.886,10.88c0,0-3.886,3.887-7.771,6.218c-3.887,2.331-6.218,3.886-6.994,6.217
			c-0.777,2.332-1.555,2.332-4.663,5.44c-3.109,3.108-3.109,4.663-3.109,4.663l-3.108,2.332l-6.218,3.107h-6.217
			c0,0-3.109,0-6.217,0c-3.109,0-4.663,0-4.663,0s-4.663,0-10.103-0.776c-5.44-0.777-6.217-0.777-6.217-0.777l-3.109-3.108
			l-6.994-3.886l-3.109-1.555l-3.886-6.994l4.663-10.881L100.53,136.022z"/>
		<path fill="#DBEFF3" d="M101.307,164.777l3.109,1.555l6.994,3.886l3.109,3.108c0,0,0.777,0,6.217,0.777
			c5.44,0.776,10.103,0.776,10.103,0.776s1.554,0,4.663,0c3.108,0,6.217,0,6.217,0h6.217l6.218-3.107l3.108-2.332
			c0,0,0-1.555,3.109-4.663c3.108-3.108,3.886-3.108,4.663-5.44c0.776-2.331,3.107-3.886,6.994-6.217
			c3.886-2.331,7.771-6.218,7.771-6.218l3.886-10.88l-3.886-6.217c0,0-6.994-7.771-11.657-7.771s-10.881,0-10.881,0l-6.994-4.663
			c0,0-2.332-7.772-4.663-7.772c-2.332,0-9.326-0.777-10.88,1.554c-1.554,2.332,0,1.555-3.886,3.109s-3.109,0-7.772,2.332
			l3.886-0.777h10.103h7.771l3.108,2.332l1.555,14.766h3.108l6.218,5.44v-4.663v-4.663h2.331l15.544,1.554l0.777,11.658
			c0,0-4.663,4.663-6.995,5.44c-2.331,0.777-3.108,3.109-13.212,9.326c-10.103,6.217-4.663,6.994-6.994,10.104
			c-2.332,3.108-4.663,3.108-4.663,3.108s-10.103,0-13.212,0c-3.108,0-4.663-2.332-6.995-2.332s-6.217,0-9.326-0.776
			c-3.109-0.777-7.772-0.777-7.772-0.777l-6.217-10.881l3.108-0.777l3.886-4.662v-6.218l-1.554-6.217l0.777-6.995l2.332-1.554
			l6.218-2.332l4.663-5.44l1.554-4.663c-4.663,2.332-7.771,3.886-7.771,3.886s0,1.554-5.44,5.44c-5.44,3.886-9.326,5.44-9.326,7.772
			s0,2.332,0,2.332l1.555,10.88l-4.663,10.881L101.307,164.777z"/>
		<path fill="#F2F0F0" d="M116.851,126.696l-6.218,2.332l-2.332,1.554l-0.777,6.995l1.554,6.217v6.218l-3.886,4.662l-3.108,0.777
			l6.217,10.881c0,0,4.663,0,7.772,0.777c3.109,0.776,6.994,0.776,9.326,0.776s3.886,2.332,6.995,2.332c3.109,0,13.212,0,13.212,0
			s2.331,0,4.663-3.108c2.331-3.109-3.108-3.887,6.994-10.104c10.104-6.217,10.881-8.549,13.212-9.326
			c2.332-0.777,6.995-5.44,6.995-5.44l-0.777-11.658l-15.544-1.554h-2.331v4.663v4.663l-6.218-5.44h-3.108l-1.555-14.766
			l-3.108-2.332h-7.771h-10.103l-3.886,0.777l-1.554,4.663L116.851,126.696z"/>
	</g>
</g>
</svg>
