<?xml version="1.0" encoding="utf-8"?>
<!-- Generator: Adobe Illustrator 12.0.0, SVG Export Plug-In . SVG Version: 6.00 Build 51448)  -->
<!DOCTYPE svg PUBLIC "-//W3C//DTD SVG 1.1//EN" "http://www.w3.org/Graphics/SVG/1.1/DTD/svg11.dtd" [
	<!ENTITY ns_svg "http://www.w3.org/2000/svg">
	<!ENTITY ns_xlink "http://www.w3.org/1999/xlink">
]>
<svg  version="1.1" xmlns="&ns_svg;" xmlns:xlink="&ns_xlink;" width="296.484" height="296.484" viewBox="0 0 296.484 296.484"
	 overflow="visible" enable-background="new 0 0 296.484 296.484" xml:space="preserve">
<g id="Layer_3">
</g>
<g id="Layer_2">
	<g>
		<path fill="#0D1426" d="M273.21,218.693c-6.105,6.105-7.326,8.547-7.326,8.547s-4.885,6.106-7.326,12.212
			c-2.443,6.105-8.548,9.769-12.212,10.989c-1.982,0.661-4.689,2.04-8.298,3.745c-0.43,0.655-0.906,1.421-1.471,2.36
			c-3.662,6.105-10.989,8.548-18.315,17.095c-2.691,3.141-4.888,6.114-6.59,8.622c31.272-14.827,56.529-40.276,71.107-71.689
			C276.319,214.609,278.678,213.226,273.21,218.693z"/>
		<path fill="#0D1426" d="M149.881,291.958c-6.105,0-12.211,0-17.095,0c-4.885,0-13.432,0-17.095-2.441
			c-3.663-2.442-12.211-2.442-17.095-3.664c-4.884-1.221-9.769-6.104-9.769-6.104l-15.874-6.106L58.3,258.989l-14.653-13.432
			l-14.676-9.27c27.001,36.517,70.371,60.196,119.272,60.196c12.59,0,24.812-1.571,36.484-4.526c-6.946,0-10.586,0-16.528,0
			C162.091,291.958,155.987,291.958,149.881,291.958z"/>
		<path fill="#0D1426" d="M9.457,175.955c0,0,3.663-10.989,6.105-15.874c2.442-4.884,1.221-9.769,1.221-9.769v-13.432
			c0,0,3.663-7.327,7.327-9.769s2.442-3.663,2.442-3.663l14.653-9.769v-3.664v-9.769l-2.442-10.99v-7.327l4.884-9.769l6.106-10.99
			l8.547-8.547c0,0,8.547-6.105,10.99-10.99c2.442-4.884,7.327-14.653,7.327-14.653s6.105-4.884,12.21-13.432l-1.114-0.668
			C36.016,36.035,0,87.931,0,148.241c0,14.111,1.972,27.762,5.655,40.691c0.137-1.415,0.139-1.987,0.139-1.987L9.457,175.955z"/>
		<path fill="#082135" d="M236.578,256.547c0.564-0.939,1.041-1.705,1.471-2.36c-3.056,1.445-6.758,3.122-11.239,4.803
			c-9.768,3.662-9.768,2.442-14.652,2.442s-7.327,4.884-13.433,6.105c-6.104,1.221-7.326,6.104-7.326,6.104l-6.105,7.327
			c0,0-3.663,4.884-9.769,6.105s-7.326,0-17.096,0c-9.768,0-19.537-1.222-19.537-1.222h-8.547c0,0-6.105-1.221-13.432-3.663
			s-12.211-2.441-21.98-3.663c-9.769-1.222-3.663-3.663-3.663-3.663l-13.432-13.432c0,0-2.442-4.885-7.327-7.327
			s-7.327-8.547-7.327-8.547l-7.327-7.327c0,0-8.547-12.211-12.211-15.874c-3.663-3.663-17.095-20.759-17.095-20.759l-6.106-30.526
			l1.222-25.643l12.21-14.653l7.327-6.105c0,0,7.326-9.769,10.99-15.874c3.663-6.105,7.326-24.422,7.326-24.422l19.538-13.432
			l-1.221-19.537l6.105-10.99l17.096-15.874l9.768-7.326c0,0,9.89-7.988,19.267-16.109c-14.918,1.824-29.151,5.862-42.361,11.778
			l1.114,0.668c-6.105,8.547-12.21,13.432-12.21,13.432s-4.885,9.769-7.327,14.653c-2.442,4.884-10.99,10.99-10.99,10.99
			l-8.547,8.547l-6.106,10.99l-4.884,9.769v7.327l2.442,10.99v9.769v3.664l-14.653,9.769c0,0,1.221,1.221-2.442,3.663
			s-7.327,9.769-7.327,9.769v13.432c0,0,1.221,4.885-1.221,9.769c-2.442,4.885-6.105,15.874-6.105,15.874l-3.663,10.99
			c0,0-0.001,0.572-0.139,1.987c4.922,17.28,12.902,33.272,23.315,47.355l14.676,9.27L58.3,258.989l14.653,14.652l15.874,6.106
			c0,0,4.885,4.884,9.769,6.104c4.884,1.222,13.432,1.222,17.095,3.664c3.663,2.441,12.21,2.441,17.095,2.441
			c4.884,0,10.99,0,17.095,0s12.21,0,18.316,0c5.942,0,9.582,0,16.528,0c9.369-2.371,18.383-5.634,26.946-9.694
			c1.702-2.508,3.898-5.481,6.59-8.622C225.588,265.095,232.916,262.652,236.578,256.547z"/>
		<path fill="#172D54" d="M101.038,24.541L83.942,40.415l-6.105,10.99l1.221,19.537L59.521,84.374c0,0-3.663,18.317-7.326,24.422
			c-3.664,6.105-10.99,15.874-10.99,15.874l-7.327,6.105l-12.21,14.653l-1.222,25.643l6.106,30.526c0,0,13.432,17.096,17.095,20.759
			c3.664,3.663,12.211,15.874,12.211,15.874l7.327,7.327c0,0,2.442,6.104,7.327,8.547s7.327,7.327,7.327,7.327l13.432,13.432
			c0,0-6.105,2.441,3.663,3.663c9.769,1.222,14.653,1.221,21.98,3.663s13.432,3.663,13.432,3.663h8.547
			c0,0,9.769,1.222,19.537,1.222c9.77,0,10.99,1.222,17.096,0s9.769-6.105,9.769-6.105l6.105-7.327c0,0,1.222-4.884,7.326-6.104
			c6.105-1.222,8.548-6.105,13.433-6.105s4.885,1.22,14.652-2.442c4.481-1.681,8.184-3.357,11.239-4.803
			c3.608-1.705,6.315-3.084,8.298-3.745c3.664-1.221,9.769-4.884,12.212-10.989c2.441-6.105,7.326-12.212,7.326-12.212
			s1.221-2.441,7.326-8.547c5.468-5.468,3.108-4.084,9.569-8.119c1.352-2.913,2.61-5.876,3.774-8.887
			c-2.452,1.855-5.173,3.762-7.237,4.795c-4.885,2.441-7.327,10.99-12.212,14.653c-4.884,3.663-6.105,2.442-6.105,2.442
			s-6.104,3.662-8.548,7.326c-2.441,3.663-3.662,2.442-8.547,8.548c-4.884,6.105-10.989,8.547-10.989,8.547
			s-6.106,2.442-10.99,3.664c-4.884,1.221-7.327,1.221-10.99,1.221s-7.326,1.221-7.326,1.221h-18.316l-8.547,1.222
			c0,0-7.327,3.663-10.99,4.884c-3.664,1.222-8.548,3.664-13.432,3.664c-2.442,0-3.358,0-3.664,0l-8.547,3.663h-9.769l-9.769-2.442
			c0,0,0,0-6.105-2.442s-19.538-3.663-19.538-3.663l-9.769-9.769l-8.547-7.327c0,0-3.663-3.663-8.548-8.547
			c-4.884-4.885-6.105-2.442-6.105-2.442l-9.769-7.326l-9.769-8.548l-3.664-6.105c0,0-2.442-3.663-2.442-7.327
			c0-3.663,0-7.326,0-7.326l-1.221-10.99l-2.442-13.432l1.221-3.663l10.99-12.211l3.663-6.105l7.327-9.769l8.547-6.105l2.442-6.105
			l2.442-12.21l7.327-9.769c0,0,4.884-13.432,12.21-19.538c7.327-6.105,2.442-7.326,2.442-7.326s0-13.432,1.221-18.316
			s6.105-7.326,7.327-12.21s4.884-8.548,8.547-13.432c3.664-4.884,10.99-15.874,10.99-15.874s4.885-7.327,9.769-9.769
			c4.884-2.442,12.211-6.105,12.211-6.105s2.133-0.504,5.657-1.332c-5.723,0.047-11.367,0.418-16.917,1.097
			c-9.377,8.121-19.267,16.109-19.267,16.109L101.038,24.541z"/>
		<path fill="#104F8B" d="M129.123,7.445c-4.884,2.442-9.769,9.769-9.769,9.769s-7.326,10.99-10.99,15.874
			c-3.663,4.884-7.326,8.548-8.547,13.432s-6.105,7.326-7.327,12.21s-1.221,18.316-1.221,18.316s4.884,1.221-2.442,7.326
			c-7.326,6.106-12.21,19.538-12.21,19.538l-7.327,9.769l-2.442,12.21l-2.442,6.105l-8.547,6.105l-7.327,9.769l-3.663,6.105
			l-10.99,12.211l-1.221,3.663l2.442,13.432l1.221,10.99c0,0,0,3.663,0,7.326c0,3.664,2.442,7.327,2.442,7.327l3.664,6.105
			l9.769,8.548l9.769,7.326c0,0,1.221-2.442,6.105,2.442c4.885,4.884,8.548,8.547,8.548,8.547l8.547,7.327l9.769,9.769
			c0,0,13.432,1.221,19.538,3.663s6.105,2.442,6.105,2.442l9.769,2.442h9.769l8.547-3.663c0.305,0,1.221,0,3.664,0
			c4.884,0,9.768-2.442,13.432-3.664c3.663-1.221,10.99-4.884,10.99-4.884l8.547-1.222h18.316c0,0,3.663-1.221,7.326-1.221
			s6.106,0,10.99-1.221c4.884-1.222,10.99-3.664,10.99-3.664s6.105-2.441,10.989-8.547c4.885-6.105,6.105-4.885,8.547-8.548
			c2.443-3.664,8.548-7.326,8.548-7.326s1.222,1.221,6.105-2.442c4.885-3.663,7.327-12.212,12.212-14.653
			c2.064-1.033,4.785-2.939,7.237-4.795c6.411-16.581,9.93-34.603,9.93-53.446c0,0-4.957,14.282-8.62,17.945
			c-1.368,1.368-2.056,3.248-2.442,5.257c0,2.187,0,3.961,0,5.733c0,2.195-0.44,3.953-2.106,6.587
			c-1.287,4.494-3.028,11.26-3.998,14.171c-1.222,3.663-19.538,13.432-23.201,14.653c-3.664,1.222-4.885,1.221-4.885,1.221
			l-13.432,6.105c0,0-3.663,6.105-6.105,10.99c-2.442,4.884-4.885,10.989-4.885,10.989s-8.547,4.885-15.874,4.885
			c-7.326,0-9.769,0-18.315,0c-8.549,0-12.212,0-12.212,0h-14.652c0,0-10.99,0-15.874-1.221c-4.884-1.222-14.653-1.222-18.316-1.222
			c-3.664,0-18.316-7.326-26.864-9.769s-7.327-1.221-7.327-1.221l-4.884-4.885l-6.105-9.769l-1.221-4.885l-10.99-18.316
			c0,0-10.99-2.441-13.432-6.104c-2.442-3.664-6.105-6.106-6.105-6.106l1.221-12.21l2.442-3.664c0,0,7.327-8.547,7.327-14.652
			l7.327-7.327c0,0,0,0,2.442-3.663c2.442-3.664,12.21-8.548,12.21-8.548s4.885-4.884,12.211-7.327c0,0,7.326-6.105,12.211-8.547
			c1.734-0.868,3.932-1.889,6.044-2.845l4.945-6.924l6.105-13.432l-7.326-13.432L119.354,68.5v-9.769l3.663-3.663
			c0,0,6.105-6.105,12.211-12.211c6.105-6.105,8.548-14.653,8.548-14.653l14.652-4.884l8.548-3.664l7.326-3.663l10.99-3.664
			l10.627-4.495C180.957,2.755,164.921,0,148.242,0c-0.418,0-0.834,0.004-1.251,0.008c-3.524,0.828-5.657,1.332-5.657,1.332
			S134.007,5.003,129.123,7.445z"/>
		<path fill="#2F90B7" d="M174.302,15.993l-7.326,3.663l-8.548,3.664l-14.652,4.884c0,0-2.442,8.547-8.548,14.653
			c-6.105,6.106-12.211,12.211-12.211,12.211l-3.663,3.663V68.5l2.442,12.211l7.326,13.432l4.884-20.758l7.327-18.316L159.65,35.53
			l8.548-6.105c0,0,30.526-8.547,35.411-8.547c2.504,0,7.895-2.246,12.554-4.435c-6.484-3.348-13.246-6.233-20.243-8.608
			l-10.627,4.495L174.302,15.993z"/>
		<path fill="#2F90B7" d="M278.095,190.608c-6.105,7.326-17.096,9.769-21.979,10.989c-4.245,1.062-11.253,2.122-15.422,2.382
			c-1.846,1.776-3.65,3.183-5.084,3.644c-1.688,3.604-2.694,8.628-2.694,8.628s-9.769,8.548-19.538,8.548c-9.769,0-4.884,0-12.211,0
			c-7.326,0-15.874,0-15.874,0h-13.432h-9.77c0,0-14.652-1.221-19.537-1.221s-3.664-1.222-3.664-1.222l-6.105-7.326l-24.422-4.885
			l-6.105-19.537l-8.547-3.663c0,0,0-6.105,0-9.769s-1.221-3.663-1.221-3.663l2.442-10.99l6.106-3.663l2.442-17.095l3.663-10.99
			l2.442-6.105l7.327-8.548l1.16-1.624c-2.113,0.956-4.31,1.978-6.044,2.845c-4.885,2.442-12.211,8.547-12.211,8.547
			c-7.327,2.442-12.211,7.327-12.211,7.327s-9.768,4.884-12.21,8.548c-2.442,3.663-2.442,3.663-2.442,3.663l-7.327,7.327
			c0,6.105-7.327,14.652-7.327,14.652l-2.442,3.664l-1.221,12.21c0,0,3.663,2.442,6.105,6.106
			c2.442,3.663,13.432,6.104,13.432,6.104l10.99,18.316l1.221,4.885l6.105,9.769l4.884,4.885c0,0-1.221-1.222,7.327,1.221
			s23.2,9.769,26.864,9.769c3.663,0,13.432,0,18.316,1.222c4.884,1.221,15.874,1.221,15.874,1.221h14.652c0,0,3.663,0,12.212,0
			c8.547,0,10.989,0,18.315,0c7.327,0,15.874-4.885,15.874-4.885s2.442-6.105,4.885-10.989c2.442-4.885,6.105-10.99,6.105-10.99
			l13.432-6.105c0,0,1.221,0.001,4.885-1.221c3.663-1.222,21.979-10.99,23.201-14.653c0.97-2.911,2.711-9.677,3.998-14.171
			C282.201,185.523,280.541,187.673,278.095,190.608z"/>
		<path fill="#2F90B7" d="M291.527,128.333l-2.441,15.875c0,0-3.664,10.989-3.664,18.316c0,3.783,0,6.586,0,8.92
			c0.387-2.009,1.074-3.889,2.442-5.257c3.663-3.663,8.62-17.945,8.62-17.945c0-13.189-1.725-25.974-4.957-38.146v3.584V128.333z"/>
		<path fill="#51B3D6" d="M168.198,29.425l-8.548,6.105l-18.316,19.538l-7.327,18.316l-4.884,20.758l-6.105,13.432l-4.945,6.924
			l-1.16,1.624l-7.327,8.548l-2.442,6.105l-3.663,10.99l-2.442,17.095l-6.106,3.663l-2.442,10.99c0,0,1.221,0,1.221,3.663
			s0,9.769,0,9.769l8.547,3.663l6.105,19.537l24.422,4.885l6.105,7.326c0,0-1.221,1.222,3.664,1.222s19.537,1.221,19.537,1.221h9.77
			h13.432c0,0,8.548,0,15.874,0c7.327,0,2.442,0,12.211,0c9.77,0,19.538-8.548,19.538-8.548s1.006-5.024,2.694-8.628
			c-0.084,0.027-0.171,0.06-0.253,0.081c-4.884,1.221-6.105,0-9.769,0s-9.769,0-18.315,0c-3.894,0-5.504,0-6.106,0
			c0,0-0.115,0-0.321,0c-1.61,0-9.059,0-15.553,0c-7.326,0-10.99,0-10.99,0l-8.547-1.222h-12.211l-6.105-6.105l-10.99-3.663
			l-6.105-9.769v-12.211v-3.663v-9.769l-3.663-6.106l-3.664-10.989l-3.663-3.663l14.653-15.875l1.221-13.432l6.105-12.211
			l-1.221-8.547l3.663-8.548c0,0,17.095-14.653,18.315-19.537c1.222-4.884,0-7.327,0-7.327l4.885-8.547l8.548-3.664l6.105-3.663
			l2.442-3.664l14.652-9.768l6.105-1.222h8.548h10.99c0,0,2.478,0,5.593,0c-4.438-2.938-9.043-5.642-13.798-8.098
			c-4.659,2.189-10.05,4.435-12.554,4.435C198.724,20.878,168.198,29.425,168.198,29.425z"/>
		<path fill="#51B3D6" d="M285.421,101.469l-1.221,12.211l-2.442,18.316c0,0,0,0-3.663,1.221c-3.663,1.222-7.326,4.884-7.326,4.884
			v3.664l-5.602,10.502c-0.555,1.554-1.131,2.961-1.725,4.15c-1.036,2.071-1.851,3.316-2.494,3.997l-2.391,15.54l-7.327,10.99
			l-1.221,6.105c0,0-4.774,6.561-9.316,10.929c4.169-0.26,11.177-1.32,15.422-2.382c4.884-1.221,15.874-3.663,21.979-10.989
			c2.445-2.936,4.105-5.085,5.22-6.845c1.666-2.634,2.106-4.392,2.106-6.587c0-1.772,0-3.547,0-5.733c0-2.334,0-5.137,0-8.92
			c0-7.327,3.664-18.316,3.664-18.316l2.441-15.875V113.68v-3.584c-2.523-9.503-5.967-18.631-10.229-27.283l1.681,6.446
			L285.421,101.469z"/>
		<path fill="#68CBED" d="M213.377,24.541h-8.548l-6.105,1.222l-14.652,9.768l-2.442,3.664l-6.105,3.663l-8.548,3.664l-4.885,8.547
			c0,0,1.222,2.442,0,7.327c-1.221,4.884-18.315,19.537-18.315,19.537l-3.663,8.548l1.221,8.547l-6.105,12.211l-1.221,13.432
			l-14.653,15.875l3.663,3.663l3.664,10.989l3.663,6.106v9.769v3.663v12.211l6.105,9.769l10.99,3.663l6.105,6.105h12.211
			l8.547,1.222c0,0,3.664,0,10.99,0c6.494,0,13.942,0,15.553,0c0.206,0,0.321,0,0.321,0c0.603,0,2.213,0,6.106,0
			c8.547,0,14.652,0,18.315,0s4.885,1.221,9.769,0c0.082-0.021,0.169-0.054,0.253-0.081c1.434-0.461,3.238-1.867,5.084-3.644
			c4.542-4.368,9.316-10.929,9.316-10.929l1.221-6.105l7.327-10.99l2.391-15.54c-2.391,2.53-2.391-2.776-2.391-2.776l-9.769,20.759
			l-18.317,1.221l-8.547,3.663c0,0-8.548,0-13.432,0c-4.885,0-6.105-2.441-6.105-2.441h-7.327l-8.547-2.442l-4.885-4.884
			l-1.222-17.096l-0.915,0.654l-7.632,5.451v-3.666v-9.766l-4.885-20.759l-3.663-4.884l-7.326-15.875l2.441-12.21l8.548-3.664
			l3.663-6.105l7.327-6.105l3.663-10.99l2.442-6.105c0,0,9.769-7.327,13.432-8.548c3.663-1.221,7.326-7.326,7.326-7.326l7.327-7.327
			l8.547-7.327h8.548l13.433,3.663l6.105,15.875l3.662,3.663L261,70.942l10.99,12.211c0,0,0,15.874,0,21.979
			c0,6.106,0,17.095,0,17.095s-2.826,18.836-6.822,30.04l5.602-10.502v-3.664c0,0,3.663-3.663,7.326-4.884
			c3.663-1.221,3.663-1.221,3.663-1.221l2.442-18.316l1.221-12.211l-2.442-12.211l-1.681-6.446
			c-11.669-23.682-29.472-43.798-51.338-58.272c-3.115,0-5.593,0-5.593,0H213.377z"/>
		<path fill="#8FD7F2" d="M265.167,152.268c3.996-11.204,6.822-30.04,6.822-30.04s0-10.989,0-17.095c0-6.105,0-21.979,0-21.979
			L261,70.942l-8.548-15.874l-3.662-3.663l-6.105-15.875l-13.433-3.663h-8.548l-8.547,7.327l-7.327,7.327
			c0,0-3.663,6.105-7.326,7.326c-3.663,1.221-13.432,8.548-13.432,8.548l-2.442,6.105l-3.663,10.99l-7.327,6.105l-3.663,6.105
			l-8.548,3.664l-2.441,12.21l7.326,15.875l3.663,4.884l4.885,20.759v9.766v3.666l7.632-5.451l0.915-0.654l1.222,17.096l4.885,4.884
			l8.547,2.442h7.327c0,0,1.221,2.441,6.105,2.441c4.884,0,13.432,0,13.432,0l8.547-3.663l18.317-1.221l9.769-20.759
			c0,0,0,5.307,2.391,2.776c0.644-0.681,1.458-1.926,2.494-3.997C264.037,155.229,264.613,153.821,265.167,152.268z M251.231,147.87
			l-2.441,13.433l-10.99,4.884h-7.327c0,0-8.547,0-18.315,0s-4.884-4.884-4.884-4.884s-2.443-3.664-4.885-7.327
			c-2.442-3.663-4.885-3.663-4.885-3.663l-3.663-4.884l-3.664-14.653l-9.769-24.421l14.653-30.527l8.548-15.874l14.653-3.663
			l3.663-4.884l7.326-4.884l4.885,1.221v12.211v10.99l13.432-3.663l3.663,3.663l2.442,6.105l8.547,18.316l-2.441,14.653
			l2.441,24.422L251.231,147.87z"/>
		<path fill="#B0D9F2" d="M259.779,110.017l2.441-14.653l-8.547-18.316l-2.442-6.105l-3.663-3.663l-13.432,3.663v-10.99V47.741
			l-4.885-1.221l-7.326,4.884l-3.663,4.884l-14.653,3.663l-8.548,15.874l-14.653,30.527l9.769,24.421l3.664,14.653l3.663,4.884
			c0,0,2.442,0,4.885,3.663c2.441,3.663,4.885,7.327,4.885,7.327s-4.885,4.884,4.884,4.884s18.315,0,18.315,0h7.327l10.99-4.884
			l2.441-13.433l10.989-13.432L259.779,110.017z M251.231,134.438l-3.663,2.442l-6.105,13.432c0,0-7.326,2.442-17.095-1.221
			l-9.77-12.211c0,0-1.221-3.664-3.663-7.327c-2.442-3.664-2.441-6.105-2.441-6.105l-6.105-7.327l-3.664-8.548v-7.326v-6.105
			l1.222-14.653l7.327-7.327l9.769,1.221l1.221,10.989c0,0,9.769,0,14.653,0l6.105-2.442h8.547l4.884,4.884l-1.221,4.884
			l4.885,9.769v8.547l2.442,15.874l-6.92,6.92L251.231,134.438z"/>
		<path fill="#BCE4EC" d="M225.588,133.217l-1.221-9.769l8.548-12.211v-4.884l6.105-13.432l7.325-7.327l4.885,6.105l1.221-4.884
			l-4.884-4.884h-8.547l-6.105,2.442c-4.885,0-14.653,0-14.653,0l-1.221-10.989l-9.769-1.221l-7.327,7.327l-1.222,14.653v6.105
			v7.326l3.664,8.548l6.105,7.327c0,0-0.001,2.442,2.441,6.105c2.442,3.663,3.663,7.327,3.663,7.327l9.77,12.211
			c9.769,3.663,17.095,1.221,17.095,1.221l6.105-13.432l-7.326,9.769L225.588,133.217z"/>
		<polygon fill="#BCE4EC" points="256.116,110.017 253.673,116.122 253.673,124.67 251.638,132.811 258.558,125.891 		"/>
		<polygon fill="#D7EEF5" points="253.673,116.122 256.116,110.017 256.116,101.469 251.231,91.7 246.346,85.595 239.021,92.922 
			232.916,106.354 232.916,111.238 224.368,123.449 225.588,133.217 240.242,146.649 247.568,136.881 251.231,134.438 
			251.638,132.811 253.673,124.67 		"/>
	</g>
</g>
</svg>
